<?xml version="1.0" encoding="UTF-8"?><svg id="Layer_1" xmlns="http://www.w3.org/2000/svg" viewBox="0 0 207.21 203.87"><path d="M113.83,51.75c1.13-1.45,16.15,1.31,16.89,1.31s-17.55,25.91-16.97,26.81c.57.9,15,.49,15.33,1.39s-29.35,36.98-29.35,38.04,4.84,2.21,4.92,3.69c.08,1.48-27.06,33.78-28.12,33.53-1.07-.25,14.59-27.8,13.86-28.86-.74-1.07-5.99.16-6.64-.08-.66-.25,22.22-35.91,21.32-38.04-.9-2.13-12.79-3.03-12.95-3.53-.16-.49,20.58-32.8,21.73-34.27Z"/><line x1="119.08" y1="47.33" x2="127.11" y2="47.9" fill="none" stroke="#000" stroke-linecap="round" stroke-linejoin="round" stroke-width="2.44"/></svg>