<?xml version="1.0" encoding="UTF-8"?><svg id="Layer_1" xmlns="http://www.w3.org/2000/svg" viewBox="0 0 207.21 203.87"><path d="M217.44,164.13c.32-.24.74-.56.94-.71.27-.2.35-.31.31-.41-.03-.1-.19-.12-.66-.07-1.11.11-1.69.31-3.19,1.14-.74.41-1.44.81-1.55.91-.11.08-.46.35-.79.6-.81.61-2.05,1.83-2.74,2.7-1.43,1.79-2.27,3.69-2.5,5.63-.37,3.16-.07,5.11,1.17,7.54,1.55,3.04,4.23,5.44,6.82,6.11,1.39.37,3.41.43,4.99.13,1.57-.29,2.14-.53,4.53-1.91l2.16-1.24-.1-.18c-.11-.19-.24-.19-2.96.02-3.77.29-6.99-.77-9.22-3.05-.62-.63-.8-.87-1.45-1.93-1.16-1.88-1.59-3.13-1.59-4.6,0-2.28.85-5,2.2-6.92.94-1.36,2.3-2.75,3.64-3.76Z"/><path d="M138.6,77.65c-.44-.19-2.98.02-4.13.38-1.03.32-5.86,1.95-6.58,2.72-1.07-.41-3.02-.36-4.01-.28-.84.02-1.62.3-2.33.71-1.06.21-2.41.84-4.31.02-1.45-.69-1.88-2.55-.06-3.09.26-.11.33.13.24-.14,0,0,0-.02,0-.02.08.27.3.49.69.51.95,0,1.05-1.69.06-1.69-.2.03-.36.12-.49.24.07-.08-1.82-.33-3.22,1.08-1.31,1.45,0,5.16,4.09,5.29.27,0,.54,0,.82,0-.2.38-.26.46-.35.64-1.81.81-2.48.63-3.51.29-.62-.19-1.32-.33-1.66-.95-.43-.54-.15-1.03-.32-.92.51-.34.63-1.15-.14-1.52-.76-.34-1.47.52-1.26,1.14,0,0,0-.01,0-.02-.05-.16-1.37,1.68.71,3.39,1.09.72,2.51.53,3.75.65,1.65.08,1.62-.33,1.36.24-1.92.84-2.82,1.4-5.45.43,0,.22-.06.45-.17.64.28-.5.26-1.24-.42-1.38-1.38-.25-1.71,1.65-.35,1.82-.01,0-.02,0-.03,0-.08-.02.53,1.29,2.14,1.35.96,0,1.93-.12,2.84-.4-.3.48-.64.94-1.17,1.2-3.1,1.31-3.3.5-8.29-2.41-8.81-4.75-9.47-4.15-13-4.74-4.42-1.05-3.96-1.11-10.65-.47-1.54.16-3.11.31-4.55.92-1.35.52-2.6,1.89-2.3,3.42.3,1.18,1.5,1.77,2.49,2.29,2.84,1.43,3.63,1.06,5.13,1.3,3.53.65,7.12.91,10.7,1.1-4.28.82-11.98.26-16.25,2.24-1.79.8-4.19,2.62-4.78,3.33-1.1,1.85,1.6,3.08,3.1,3.18,1.2.16,2.37-.22,3.55-.38.63-.09,1.27-.11,1.91-.16,1-.08,1.98-.33,2.98-.4,4.3-.33,7.89-1.17-.39,1.17-11.87,3.68-15.18,10.09-7.71,10.23,3.14-.03,3.12-1.14,14.47-3.5,1.7-.33,2.56-.97,6.2-.28-1.82,1.81-4.86,4.01-7.69,5.4-.79.48-1.56,1-2.38,1.43-1.61.75-5.6,1.51-7.37,1.67-1.53.2-3.01.69-4.51,1.03-2.41.71-7.34,3.02-7.65,5.48,0,.9.9,1.5,1.73,1.53,1.62.05,3.14-.63,4.72-.88-.99.46-2.04.87-2.78,1.71-1.32,1.2-1.38,2.89.76,2.89,3.32-.03,6.44-1.36,9.48-2.56,1.01-.37,2.07-.59,3.08-.99-1.33.99-.95,2.32.49,2.88.85.27,1.74-.05,2.61-.06,5.02-.14,13.49-3.62,13.55-3.64,5.15-1.4,10.17-4.48,13.52-8.64,3.93-5.15,4.45-7.33,6.02-11.19.64-1.46,1.35-2.89,1.96-4.36,2.15-5.89,1.66-3.91,3.7-8.25,1.37-2.19,1.36-1.96,5.01-5.92.18-.05.27-.15.3-.27.13-.1,1.54-1.53,1.64-1.62,0,0,0,0,0,0,.07-.02.44-.43,1.63-1.62,1.94-1.93,3.8-2.55,2.83-3.2ZM117.67,77.02c-.08.07-.14.16-.19.26.06-.14.14-.23.19-.26ZM117.38,77.73s0,.09.01.14c0-.05-.01-.09-.01-.14ZM117.4,77.93s0-.04-.01-.05c0,.02,0,.04.01.05ZM112.16,82.17s-.01-.03-.02-.04c0,.01.01.03.02.04ZM112.2,82.23s0-.01-.01-.02c0,0,0,.01.01.02ZM113.17,88.03l.47.12c-.16,0-.32-.05-.47-.12ZM81.64,85.22c-.07,0-.15.01-.23.02-.07,0-.41-.04-.76.01.09-.01.19-.02.3-.02.28,0,.51-.01.69-.01ZM79.93,85.67s0,0,0,0c0,0,0,0,0,0ZM79.9,85.73s0,.02,0,.03c0-.01,0-.02,0-.03ZM79.89,85.8s0,.03,0,.05c0-.02,0-.03,0-.05ZM79.88,85.86c0,.2.18.39.46.52-.31-.13-.45-.33-.46-.52ZM81.14,86.54c.37,0,1.06-.04,1.49-.21-.14.06-.32.11-.56.15-.36.06-.66.07-.93.06ZM82.94,86.06c.14-.32-.21-.78-.95-.84.25.01.42.06.62.18.25.15.45.42.33.67ZM94.3,86.89c.12.1.21.23.22.36-.01-.13-.1-.26-.22-.36ZM94.03,86.76s0,0,0,0c0,0,0,0,0,0ZM94.24,86.85s0,0,0,0c0,0,0,0,0,0ZM92.72,86.55s-.08,0-.12,0c.04,0,.08,0,.12,0ZM93.62,86.67c-.27-.05-.59-.1-.89-.12.33.01.66.07.89.12ZM92.23,86.57s0,0-.01,0c0,0,0,0,0,0,0,0,0,0,0,0ZM92.53,86.55s-.03,0-.05,0c.02,0,.03,0,.05,0ZM92.37,86.56s-.01,0-.02,0c0,0,.01,0,.02,0ZM91.9,86.67s-.06.03-.08.05c-.14.09-.22.22-.23.36,0-.16.1-.31.31-.4ZM92.12,86.6s0,0,0,0c0,0,0,0,0,0ZM91.94,86.65s0,0,0,0c0,0,0,0,0,0ZM85.99,87.6c1.16.37,2.81.88,3.59-.13.02-.03.04-.06.06-.09-.02.03-.04.06-.06.09-.78,1.01-2.42.51-3.59.13ZM91.98,87.59c.23.11.57.2,1.04.21.05,0,.09,0,.14,0-.52.02-.92-.07-1.18-.22ZM80.08,96.57s0,0,0,0c0,0,0,0,0,0ZM79.22,96.28c-.6-.02-1.31.17-1.58.61.27-.45.98-.64,1.58-.61ZM79.31,96.28s-.02,0-.03,0c.01,0,.02,0,.03,0ZM77.53,97.04s-.01.01-.02.02c0,0,.01-.01.02-.02ZM77.43,97.25s0,.02,0,.03c0,0,0-.02,0-.03ZM77.48,97.11s0,.02-.01.03c0,0,0-.02.01-.03ZM77.45,97.18s0,.02,0,.03c0,0,0-.02,0-.03ZM77.43,97.33s0,.02,0,.03c0,0,0-.02,0-.03ZM77.45,97.4s0,.02.01.03c0,0,0-.02-.01-.03ZM77.48,97.47s.01.02.02.03c0,0-.01-.02-.02-.03ZM77.55,97.56s0,0,0,0c.23.23.83.22,1.4.08-.57.15-1.17.17-1.4-.08ZM80.12,96.97s.01-.03.02-.04c0,.01,0,.02-.01.04,0,0,0,0,0,0ZM80.09,97.02s0-.01.01-.02c0,0,0,.01-.01.02ZM80.14,96.91c.03-.1.03-.18,0-.26.04.08.04.16,0,.26ZM80.11,96.6s.01.02.02.03c0-.01-.01-.02-.02-.03ZM88.37,103.95c-.08,0-.17-.02-.25-.06.08.04.16.06.25.06ZM88.11,103.88s-.04-.02-.06-.03c.02.01.04.02.06.03ZM90.72,95.51s0,.02,0,.03c0-.01,0,.08-.1.17-.04.04-.16.1-.31.17.22-.11.37-.24.41-.36ZM89.98,103.81s0,0,0,0c0,0,0,0,0,0ZM90.91,102.87s-.01-.02-.02-.03c0,0,0,.01.01.02,0,0,0,0,0,0ZM90.92,102.89s.02.04.02.05c0-.02-.01-.03-.02-.05ZM90.96,103s0,.01,0,.02c0,0,0-.01,0-.02ZM90.16,94.95c-.14-.03-.32-.06-.53-.06-.4-.01-.88.05-1.2.18.44-.2,1.21-.25,1.73-.12ZM84.13,94.27c-.86-.02-1.46.23-1.83.56.09-.09.2-.17.3-.24.34-.23.93-.33,1.53-.32ZM83.45,96.87s-.02,0-.02,0c0,0,.02,0,.02,0ZM82.55,96.67s0,0,0,0c0,0,0,0,0,0ZM82.37,96.59s-.02-.01-.03-.02c.01,0,.02.01.03.02ZM81.85,95.56c-.05.21-.04.42.04.59-.09-.18-.09-.39-.04-.59ZM82.05,96.37s0,0,0,0c0,0,0,0,0,0ZM82.17,96.47s.02.01.03.02c0,0-.01,0-.02-.01,0,0,0,0,0,0ZM84.3,96.83c.46-.07.91-.22,1.31-.47-.33.23-.77.4-1.31.47ZM86.22,95.52c.04-.33-.13-.67-.57-.91.08.04.16.09.22.14.29.22.39.5.35.78ZM84.21,94.28c.05,0,.11,0,.16,0-.05,0-.1,0-.16,0ZM84.41,94.29s.09,0,.13.01c-.04,0-.08,0-.13-.01ZM84.67,94.32s.03,0,.04,0c-.01,0-.03,0-.04,0ZM85.54,94.55s.03.01.04.02c-.01,0-.03-.01-.04-.02ZM88.11,95.63s.04.06.07.09c.04.05.08.09.13.13-.09-.07-.16-.14-.2-.22ZM89.19,96.12c-.13,0-.29-.01-.44-.06.27.07.58.07.88.02-.15.03-.29.04-.43.04ZM88.73,96.06s.01,0,.02,0c0,0-.01,0-.02,0ZM89.87,102.41s-.03,0-.05,0c.02,0,.03,0,.05,0ZM89.78,102.41c-.42.04-.86.19-1.22.39.36-.2.81-.35,1.22-.39ZM88.5,102.84s0,0,0,0c0,0,0,0,0,0ZM86.06,103.93c-.19-.16-.5-.27-.87-.33.51.07.83.24,1,.46-.04-.04-.08-.09-.13-.13ZM85.87,105.26c-.47.43-1.28.79-2.28.81.89-.02,1.76-.37,2.28-.81ZM83.78,103.61c-.25.04-.5.11-.74.2.16-.06.34-.12.54-.18.07,0,.14-.02.2-.03ZM82.95,103.85s-.08.03-.12.05c.04-.02.08-.04.12-.05ZM82.68,103.98s-.09.05-.14.08c.04-.03.09-.05.14-.08ZM82.43,104.13s-.02.02-.03.02c.01,0,.02-.02.03-.02ZM79.35,105.84s-.02,0-.03,0c.01,0,.02,0,.03,0ZM79.27,105.85c-.49.03-1.06.23-1.51.67.47-.45,1.03-.64,1.51-.67ZM77.48,106.84c.1-.13.21-.23.26-.3-.07.1-.17.2-.26.3ZM77.25,107.28s0,.07.02.11c.02.06.06.11.11.16-.1-.08-.13-.17-.13-.26ZM78.25,107.66c.46-.08.98-.28,1.35-.49-.24.14-.54.29-.84.37-.13.04-.31.09-.51.12ZM80.1,106.85s-.1.08-.27.19c0,0,0,0,.01,0,.41-.27.55-.52.52-.72.04.16-.03.35-.26.54ZM81.94,105.36c.15.26.44.48.83.6-.39-.12-.69-.34-.83-.6ZM81.91,105.31s0,.02.01.03c0,0,0-.02-.01-.03ZM82.86,105.99s.02,0,.02,0c0,0-.02,0-.02,0ZM83.32,106.06s.01,0,.02,0c0,0-.01,0-.02,0ZM83.45,106.07s.08,0,.12,0c-.03,0-.06,0-.08,0-.01,0-.02,0-.04,0ZM87.91,103.71s0,0,0,.01c0,0,0,0,0,0,0,0,0,0,0-.01ZM87.93,103.74s.02.03.04.04c-.01-.01-.03-.03-.04-.04ZM88.03,103.84s-.03-.02-.05-.04c.02.01.03.03.05.04ZM88.47,103.95c.41,0,.98-.03,1.46-.14-.49.11-1.05.15-1.46.14ZM112.66,106.52c.13-.19.27-.37.38-.53-.11.16-.25.34-.38.53ZM114.29,105.54s.05-.08.08-.13c-.03.04-.05.09-.08.13ZM114.43,105.31c.07-.1.13-.21.21-.31-.07.11-.14.21-.21.31ZM114.39,104.39c-.33-.05-.64.45-.9.87.25-.42.57-.92.9-.87ZM113.16,105.79s0,0,0,0c0,0,0,0,0,0ZM111.16,114.41s-.03-.01-.05-.01c.02,0,.03,0,.05.01ZM111.27,114.47s-.06-.03-.08-.04c.03.01.06.03.08.04ZM108.54,116.47c.31-.37,1.06-.87,2.11-1.84-1.05.97-1.8,1.47-2.11,1.84ZM110.63,111.89c.07-.04.12-.09.16-.16-.03.06-.09.12-.16.16ZM110.2,111.08c.24-.13.43-.05.54.1-.11-.15-.3-.22-.54-.1ZM110.83,111.62s0,0,0,0c0,0,0,0,0,0ZM110.82,111.67s0,0,0,0c0,0,0,0,0,0ZM110.8,111.7s0,.01,0,.02c0,0,0-.01,0-.02ZM110.75,111.19s.01.02.02.03c0-.01-.01-.02-.02-.03ZM110.54,111.92s0,0-.01,0c0,0,0,0,.01,0ZM110.76,114.53s-.03.02-.04.04c.01-.01.03-.02.04-.04ZM110.83,114.48s-.03.02-.05.03c.02-.01.03-.02.05-.03ZM110.98,114.41s-.03,0-.05.01c.02,0,.03,0,.05-.01ZM110.91,114.44s-.03.01-.05.02c.02,0,.03-.02.05-.02ZM111.07,114.4s-.03,0-.05,0c.02,0,.03,0,.05,0ZM108.89,112.33s.06-.07.09-.11c-.02.03-.05.07-.09.11ZM107.07,110.82c-.48-.26-.97.38-1.36.75.39-.36.88-1.01,1.36-.75ZM105.7,111.57c-.06.05-.11.1-.16.13.05-.04.11-.08.16-.13ZM105.45,111.81s.03-.03.04-.05c-.01.01-.03.03-.04.05ZM105.44,111.82c-.18.17-.46.39-.68.61.22-.22.51-.43.68-.61ZM100.86,120.52c1.45-.67,2.82-1.5,4.31-2.08.2-.08.39.04.47.22-.08-.17-.27-.29-.47-.22-1.47.61-2.86,1.41-4.31,2.08-.14.07-.22.21-.22.35,0-.13.06-.27.22-.35ZM105.2,119.27c-.46.25-1.21.62-1.94.97.49-.25,1.08-.55,1.78-.9.05-.03.1-.05.15-.07ZM100.64,120.91s0-.01,0-.02c0,0,0,.01,0,.02ZM100.9,121.24c.08.01.19,0,.34-.05-.02.01-.04.02-.06.03-.1.05-.2.05-.28.02ZM107.96,113.94c-.28-.25-.05-.61.26-.94-.31.34-.54.69-.26.94.17.16.44.14.59-.03-.15.17-.43.18-.59.03ZM109.37,116.95c.35-.27.71-.67.94-.84-.23.17-.58.57-.94.84ZM118.16,102.71c-.04.08-.08.16-.12.24.04-.08.08-.16.12-.24ZM116.99,105.5s0,0,0,0c-.05.14-.07.26-.07.35-.02-.11,0-.24.07-.34ZM117.2,106.14c.23.05.42-.14.6-.47-.12.29-.28.56-.6.47ZM118.82,103.05c-.25.53-.42,1.11-.63,1.65.19-.54.39-1.14.63-1.65.11-.21,0-.4-.17-.49.17.08.28.27.17.49ZM121.99,84c.06.02.14.04.22.06.09.02.19.03.28.03-.21,0-.38-.03-.5-.09ZM123.9,83.63c-.15.09-.29.16-.43.23.38-.18.73-.46,1.02-.75-.2.23-.42.43-.59.53ZM125.2,82c.05-.24-.03-.38-.3-.32.3-.06.37.08.3.32Z"/><path d="M228.31,8.96c-.29-.97-.53-1.95-.81-2.93-.24-.85-.62-1.7-1.43-2.13-.88-.46-1.94-.15-2.82.16-.95.33-1.86.76-2.72,1.28.42-.51.86-1,1.39-1.41.24-.19.49-.37.76-.5.25-.12.51-.18.66-.43.27-.45-.02-1.04-.54-1.1-.3-.03-.61.16-.86.3-.28.15-.55.33-.81.52.55-1.5.82-3.34.43-4.91-.38-1.53-1.62-2.44-3.08-2.87-1.51-.44-3.22-.59-4.75-.17-1.53.42-2.56,1.66-2.54,3.26.01.92.39,1.81.72,2.65.34.88.55,1.8.79,2.72-.24-.44-.47-.89-.7-1.34-.18-.36-.33-.88-.76-1.01-.37-.11-.75.11-.88.47-.15.43-.05,1.01.06,1.43-.93-.99-2.06-1.73-3.39-2.07-.64-.16-1.34-.22-1.96.03-.57.22-.99.72-1.26,1.26-.3.6-.44,1.3-.58,1.95-.14.72-.27,1.45-.33,2.18-.12,1.27-.08,2.74.97,3.64,1.11.95,2.8.94,4.17.79-.3.11-.6.22-.9.34-.29.11-.62.21-.89.37-.4.24-.49.8-.16,1.14.42.42.94.11,1.4-.07.64-.25,1.28-.49,1.93-.72-1.9,1.34-4.6,3.36-3.64,6.04.39,1.09,1.32,2.14,2.36,2.65,1.2.59,2.55.26,3.57-.52,1.19-.91,2.03-2.25,2.64-3.6,0,.35-.06.7.2.97.23.23.59.28.87.12.3-.17.37-.45.37-.77,0-.37.01-.75.04-1.12.25,1.22.42,2.46.69,3.68.24,1.1.8,2.09,2.03,2.17,1.09.08,2.34-.4,3.2-1.06.87-.67,1.41-1.7,1.48-2.79.08-1.38-.39-2.68-1.08-3.86.43.5.85,1.04,1.31,1.51.4.41,1.13.28,1.22-.34.05-.31-.11-.49-.3-.71-.22-.24-.42-.49-.63-.74-.45-.54-.91-1.08-1.39-1.59,1.44.65,3.28,1.54,4.89,1.02.69-.22,1.21-.79,1.34-1.5.16-.82-.07-1.65-.31-2.43ZM216.49,10.94c-.92.18-2.26-.46-2.16-1.54.04-.49.38-.96.81-1.2.44-.24.91-.21,1.35.01-.39-.04-.73.2-.78.6-.45-.28-1.05.02-1.08.56-.03.52.55.93,1.02.68,0,.52.58.9,1.05.63.43-.25.49-.87.1-1.18.04-.03.08-.06.12-.1.05.38.38.6.75.6-.24.45-.68.78-1.17.93ZM217.11,8.81c-.01-.09-.04-.18-.09-.25.12.05.25.06.38.04.13-.02.18-.08.29,0-.23-.02-.42.04-.58.2ZM212.72-2.59c.35-.97,1.32-1.28,2.27-1.37.99-.09,2.02.03,2.98.29.83.22,1.69.65,2.03,1.49.37.89.27,1.94.13,2.87-.31,1.99-1.43,3.55-2.49,5.21-.13.2-.26.41-.38.62-.05.08-.11.26-.18.31-.08.05-.23-.05-.35-.09-.41-.14-.88-.2-1.32-.14-.17.02-.18.05-.25-.11-.05-.11-.09-.23-.14-.34-.09-.25-.18-.49-.27-.74-.16-.48-.31-.97-.44-1.46-.3-1.09-.51-2.2-.88-3.27-.35-1.02-1-2.13-.74-3.24ZM206.71,9.38c-.57-.02-1.22-.07-1.71-.37-.49-.3-.65-.84-.69-1.39-.06-.64.03-1.28.12-1.91.1-.64.21-1.28.36-1.91.12-.5.28-1.31.83-1.53.49-.19,1.15.03,1.61.21,1.16.45,2.03,1.29,2.79,2.25.86,1.09,1.61,2.26,2.64,3.21-1.88.79-3.88,1.44-5.94,1.43ZM213.59,14.51c-.38,1.24-.96,2.44-1.78,3.45-.74.91-1.93,1.92-3.15,1.26-.55-.3-1-.83-1.33-1.34-.35-.54-.47-1.2-.22-1.8.47-1.15,1.61-1.97,2.58-2.68,1.18-.86,2.47-1.6,3.52-2.62.08.15.17.29.28.42.08.09.31.23.35.34.03.07-.07.27-.06.37.02.17.08.34.09.51.06.7-.1,1.42-.29,2.09ZM221.72,18.03c-.33,1-1.17,1.52-2.14,1.82-.35.11-.99.3-1.3,0-.32-.3-.36-.94-.42-1.34-.17-1.03-.37-2.06-.57-3.08-.11-.53-.21-1.07-.31-1.6-.09-.49-.1-1.03-.24-1.51.38-.09.73-.24,1.05-.46.06-.04.18-.17.24-.18.06,0,.2.1.25.12.16.08.3.18.45.28.63.44,1.19.95,1.66,1.56.93,1.19,1.72,2.82,1.33,4.37ZM227.19,11.18c-.26.68-1.41.4-1.93.27-.75-.19-1.46-.51-2.17-.82-.71-.31-1.42-.6-2.15-.86-.37-.13-.74-.24-1.12-.35-.09-.03-.45-.06-.51-.13-.02-.03,0-.25,0-.3,0-.11-.03-.23-.05-.34-.02-.08-.04-.16-.07-.24-.02-.05-.12-.23-.11-.27.02-.08.34-.27.4-.32.32-.25.65-.49.99-.72.62-.42,1.26-.81,1.94-1.13.67-.32,1.38-.62,2.1-.78.3-.06.69-.14.97.03.3.19.44.61.55.93.28.81.42,1.66.67,2.47.23.79.68,1.71.5,2.55Z" fill="#282828"/></svg>