<?xml version="1.0" encoding="UTF-8"?><svg id="Layer_1" xmlns="http://www.w3.org/2000/svg" viewBox="0 0 207.21 203.87"><path d="M72.47,86.58c-.54-1.28,10.99-12.43,13.2-14.01s42.12,4.8,45.16,7.09c3.04,2.29,3.31,12.8,3.97,15.62.66,2.82-37.34,35.02-39.53,36.23-2.19,1.21-21.76-42.46-22.81-44.93Z" fill="none" stroke="#000" stroke-linecap="round" stroke-linejoin="round" stroke-width="2.44"/><line x1="72.47" y1="86.58" x2="134.81" y2="95.28" fill="none" stroke="#000" stroke-linecap="round" stroke-linejoin="round" stroke-width="2.44"/><polyline points="130.84 79.66 118.12 92.81 95.28 131.52 96.2 89.27 85.67 72.57" fill="none" stroke="#000" stroke-linecap="round" stroke-linejoin="round" stroke-width="2.44"/><polyline points="96.2 89.27 108.62 74.63 118.12 92.81" fill="none" stroke="#000" stroke-linecap="round" stroke-linejoin="round" stroke-width="2.44"/><path d="M72.4,86.43l23.86,3.53-1.07,41.41s-2.95-3.2-11.31-19.76c-8.36-16.56-11.48-25.17-11.48-25.17Z"/><path d="M95.93,130.7l22.14-37.55,16.48,2.3s-1.31,3.69-11.81,12.87c-10.49,9.18-26.81,22.38-26.81,22.38Z"/><path d="M85.98,72.95l10.28,16.29,12.46-14.43s-19.19-3.33-22.74-1.86Z"/><path d="M108.72,74.81l9.35,17.87,12.74-12.63s1.04-2.41-22.08-5.25Z"/></svg>