<?xml version="1.0" encoding="UTF-8"?><svg id="Layer_1" xmlns="http://www.w3.org/2000/svg" viewBox="0 0 207.21 203.87"><path d="M128.49,89.81c-.07-.29-.24-.52-.44-.73-.09-.1-.14-.2-.17-.32-.06-.2-.13-.41-.23-.59-.08-.14-.26-.22-.35-.36-.09-.14-.12-.32-.26-.43-.06-.04-.1-.1-.15-.15-.04-.04-.09-.08-.1-.12-.07-.25-.26-.37-.46-.49-.14-.08-.25-.18-.31-.35-.04-.12-.16-.2-.26-.3-.05-.05-.13-.07-.16-.13-.11-.2-.29-.31-.48-.42-.09-.06-.16-.13-.21-.24-.1-.26-.3-.39-.58-.41-.06,0-.13-.02-.17-.06-.14-.13-.31-.19-.48-.23-.12-.03-.2-.1-.29-.18-.3-.31-.65-.53-1.07-.64-.14-.04-.25-.09-.34-.19-.09-.1-.2-.19-.34-.2-.2-.02-.35-.1-.5-.23-.05-.05-.15-.06-.22-.08-.08-.02-.15-.05-.23-.07-.13-.03-.26-.06-.39-.09-.07-.02-.14-.02-.2-.06-.14-.1-.29-.13-.45-.16-.2-.03-.41-.03-.59-.15-.07-.04-.18-.07-.26-.05-.18.06-.33,0-.49-.05-.12-.04-.24-.08-.36-.1-.09-.02-.2-.03-.29,0-.3.08-.6.15-.92.08-.03,0-.05,0-.08,0-.21-.01-.43-.03-.64-.05-.04,0-.08-.03-.12-.05-.18-.09-.36-.09-.55-.02-.05.02-.13.04-.18.02-.17-.07-.33-.05-.5-.02-.26.05-.54.04-.78.19-.06.03-.14.04-.21.03-.22-.02-.45-.03-.66-.08-.24-.05-.43,0-.59.17-.14.14-.29.2-.48.12-.23-.09-.43,0-.59.15-.28.28-.62.36-.9.35-.42-.03-.42-.03-.69.12-.06.04-.13.06-.2.08-.12.05-.23.09-.35.14-.07.03-.15.06-.23.07-.13.01-.24.05-.35.13-.06.04-.12.09-.19.11-.25.07-.45.26-.72.27-.04,0-.08.04-.12.06-.1.05-.2.08-.29.14-.27.17-.55.29-.85.36,0,0-.02,0-.02.01-.28.22-.66.28-.92.54-.02.02-.05.03-.07.04-.29.04-.5.24-.73.38-.06.03-.13.05-.19.08-.12.05-.25.09-.37.15-.15.09-.29.17-.47.18-.12,0-.24.06-.36.1-.15.05-.27.14-.33.29-.07.18-.19.3-.38.34-.03,0-.05.02-.07.03-.11.08-.23.13-.37.13-.07,0-.16.04-.21.09-.12.12-.25.19-.42.22-.03,0-.08.01-.1.04-.17.19-.4.3-.6.43-.2.13-.38.28-.58.42-.03.02-.08.03-.13.04-.18.03-.3.14-.42.27-.21.25-.39.53-.73.64-.04.01-.07.06-.11.08-.08.05-.17.11-.26.14-.17.06-.3.15-.39.31-.06.1-.14.18-.22.27-.08.09-.16.19-.24.28-.04.05-.07.1-.12.14-.28.26-.64.43-.86.76-.02.03-.05.05-.08.07-.15.08-.24.21-.31.36-.07.16-.17.28-.31.39-.1.08-.18.2-.24.32-.07.14-.14.27-.28.34-.18.09-.28.24-.33.43-.02.07-.04.14-.09.19-.18.2-.24.48-.47.65-.01,0-.02.03-.03.05-.05.19-.19.32-.3.47-.24.36-.41.75-.59,1.14-.09.18-.15.36-.3.5-.12.12-.17.27-.17.44,0,.08,0,.16,0,.24,0,.09-.01.16-.07.22-.22.25-.28.58-.4.87-.02.05-.01.11-.02.16-.01.12-.02.23-.04.34-.03.18-.09.37-.11.55-.02.11-.04.21-.11.3-.11.15-.15.33-.14.51.02.24-.05.47-.15.67-.11.22-.15.43-.16.67-.01.26,0,.53-.13.79-.07.15-.08.32-.04.5.05.23.07.46.07.69,0,.22,0,.43.11.63.03.05.04.12.04.18,0,.24.09.47.02.72-.02.07,0,.16.03.24.07.24.15.48.3.68.09.12.15.25.14.4,0,.18.06.33.12.49.1.3.28.56.37.86.07.22.2.41.27.64.02.07.08.12.11.18.08.15.18.29.24.44.08.19.18.35.37.44.06.03.13.07.17.12.13.16.24.33.36.5.03.04.06.1.06.15.03.23.18.38.36.52.07.06.13.12.16.2.11.26.32.41.6.44.11.01.19.05.26.12.08.09.15.17.22.26.11.14.23.27.41.34.12.05.23.11.32.19.36.3.79.4,1.24.44.16.01.32,0,.44.14.05.05.14.08.22.1.15.05.31.1.46.12.29.03.59.06.88.05.13,0,.26-.04.39,0,.05.02.11.01.16,0,.34-.04.67-.08,1.01-.12.25-.03.49-.11.74-.09.06,0,.12-.02.18-.03.13-.03.26-.07.39-.09.22-.04.44-.1.58-.3.03-.03.07-.08.1-.08.19-.01.33-.13.49-.2.28-.12.54-.31.84-.4.02,0,.03-.02.05-.03.14-.15.33-.22.5-.3.15-.07.28-.17.35-.32.05-.12.14-.18.26-.2.17-.02.29-.11.4-.24.11-.13.24-.24.31-.4.03-.06.09-.11.15-.14.12-.07.21-.16.29-.28.1-.16.24-.28.39-.4.19-.14.35-.3.52-.46.04-.04.07-.08.09-.13.11-.28.37-.42.58-.61.1-.08.2-.16.24-.28.04-.1.1-.15.19-.21.09-.05.19-.13.22-.22.09-.26.27-.44.46-.61.26-.22.44-.51.7-.72.1-.08.18-.2.24-.32.12-.24.29-.43.5-.59.1-.08.18-.17.24-.28.06-.1.13-.19.22-.26.23-.18.38-.42.55-.65.1-.14.16-.32.3-.41.24-.15.38-.35.5-.6.1-.19.29-.34.43-.51.07-.08.15-.17.18-.26.07-.24.21-.4.44-.5.04-.02.08-.04.11-.07.19-.24.38-.49.57-.74.02-.02.01-.05.03-.07.12-.16.24-.33.36-.49.07-.09.15-.18.24-.25.18-.17.35-.36.56-.49.16-.1.32-.19.4-.37.02-.04.05-.07.09-.1.22-.19.34-.49.61-.62,0,0,.01-.01.02-.02.1-.18.24-.33.45-.4.02,0,.04-.03.06-.05.14-.14.28-.3.44-.43.19-.16.35-.35.61-.42.1-.03.18-.11.25-.19.14-.14.26-.29.4-.43.06-.06.14-.11.22-.14.18-.07.31-.17.4-.34.06-.13.17-.23.33-.24.24-.01.39-.15.52-.34.06-.08.11-.17.19-.22.17-.11.35-.22.54-.29.18-.07.31-.17.4-.34.08-.16.22-.22.39-.25.08-.01.17-.01.23-.06.17-.14.36-.18.56-.23.08-.02.15-.06.21-.11.13-.09.26-.15.42-.16.16-.01.31-.08.42-.22.16-.21.41-.21.63-.23.19-.01.35-.03.5-.14.33-.23.73-.29,1.07-.48.03-.02.07-.01.11-.02.27-.03.47-.16.62-.39.05-.08.11-.14.2-.17.28-.1.45-.31.53-.6.02-.09.05-.18.1-.25.23-.33.22-.68.13-1.05ZM107.56,86.49c-.31.15-.6.34-.9.51-.19.11-.36.26-.56.37-.23.13-.42.3-.61.48-.11.1-.26.14-.4.21-.03.02-.08.02-.1.05-.26.31-.66.46-.94.75-.03.03-.06.09-.09.09-.29.05-.44.32-.7.42-.05.02-.1.08-.12.13-.06.15-.17.25-.33.29-.06.01-.11.06-.16.09-.14.11-.29.21-.43.32-.1.09-.19.19-.27.3-.09.13-.21.22-.35.28-.16.06-.31.14-.38.32-.02.05-.07.11-.12.14-.4.21-.68.58-1.01.86-.12.1-.19.26-.3.38-.12.13-.26.24-.38.37-.05.05-.1.1-.14.16-.06.11-.11.22-.16.34-.05.12-.12.21-.21.3-.2.21-.47.35-.61.62-.02.04-.06.07-.09.1-.14.1-.21.24-.25.4-.05.23-.19.39-.39.52-.17.1-.32.24-.39.46-.06.19-.16.36-.23.54-.17.41-.34.82-.51,1.24-.01.02,0,.06-.03.08-.2.22-.21.51-.27.77-.05.19-.07.39-.09.58-.02.19-.07.37-.18.53-.07.09-.1.18-.1.3,0,.26-.11.49-.24.7-.11.18-.31.24-.49.32-.07.03-.14,0-.19-.07-.28-.31-.4-.67-.28-1.07.08-.26.06-.53.12-.79.08-.35.09-.7.23-1.04.09-.22.19-.44.31-.65.14-.24.21-.51.32-.77.03-.08.06-.17.11-.24.19-.29.28-.62.42-.93,0,0,0-.02,0-.03.16-.25.29-.54.5-.75.19-.18.38-.33.44-.6.01-.06.08-.12.14-.16.16-.12.25-.28.32-.45.09-.21.23-.37.45-.43.14-.04.22-.14.27-.27.03-.08.05-.17.1-.25.06-.1.12-.23.21-.27.21-.09.31-.29.47-.42.12-.11.24-.21.36-.32.03-.03.06-.07.09-.1.08-.09.15-.2.25-.27.22-.16.42-.35.66-.49.16-.1.34-.2.44-.38.03-.07.11-.14.18-.16.16-.03.24-.14.35-.23.22-.17.44-.34.66-.5.08-.06.17-.1.26-.13.17-.06.3-.16.38-.32.07-.13.18-.2.32-.26.25-.11.48-.25.73-.36.26-.12.48-.35.74-.48.19-.09.35-.25.58-.27.05,0,.1-.04.14-.07.49-.29.99-.56,1.53-.77.17-.06.32-.16.49-.22.15-.06.31-.09.46-.13.34-.08.67-.17,1.01-.25.08-.02.17-.02.25-.03-.46.18-.88.41-1.32.62Z" fill="#191919"/><path d="M100,113.34c-.17-.09-.31-.2-.45-.32-.06-.05-.12-.11-.2-.13-.27-.08-.55-.15-.83-.21-.15-.03-.27-.07-.37-.19-.08-.09-.18-.13-.3-.16-.2-.05-.39-.11-.57-.2-.21-.1-.41-.22-.61-.34-.15-.09-.31-.17-.46-.27-.14-.1-.25-.22-.38-.33-.12-.1-.22-.23-.36-.28-.18-.07-.3-.19-.42-.32-.18-.21-.35-.43-.59-.57,0,0-.01-.01-.02-.02-.19-.25-.42-.46-.56-.75-.07-.16-.17-.3-.31-.4-.17-.13-.29-.28-.36-.48-.04-.1-.14-.18-.22-.27-.12-.13-.22-.25-.24-.44,0-.06-.03-.13-.06-.17-.08-.11-.11-.24-.15-.37-.08-.23-.15-.47-.35-.65-.09-.08-.13-.23-.18-.35-.1-.26-.15-.54-.24-.81-.16-.45-.23-.91-.26-1.39,0-.06,0-.13-.02-.18-.07-.15-.08-.31-.07-.47,0-.06-.01-.12-.02-.19-.08-.44-.2-.87-.15-1.33,0-.06,0-.13-.02-.18-.03-.09-.02-.17,0-.26.03-.1.06-.21.04-.31-.04-.21.03-.4.09-.6.03-.09.06-.19.06-.29,0-.16.01-.3.11-.43.02-.03.04-.06.04-.1.01-.19.11-.34.21-.49.07-.11.13-.22.11-.35-.02-.14.04-.26.09-.38.16-.34.38-.64.52-.99.05-.13.05-.24-.01-.36-.05-.09-.15-.11-.23-.04-.05.04-.09.11-.12.16-.36-.1-.68-.12-.97.07-.23.15-.46.3-.69.44-.04.03-.08.08-.13.09-.24.04-.36.21-.48.4-.09.15-.2.27-.38.32-.09.03-.18.12-.23.21-.08.11-.14.22-.26.29-.05.03-.08.09-.12.14-.06.06-.12.13-.19.18-.15.1-.25.23-.29.4-.03.12-.09.23-.18.32-.11.1-.16.23-.18.38,0,.11-.06.18-.15.23-.23.14-.34.36-.33.63,0,.11-.03.2-.11.29-.11.11-.16.25-.17.41,0,.08-.03.16-.07.23-.1.16-.11.34-.09.52.02.15,0,.27-.1.4-.12.16-.16.35-.12.56.04.21.05.42-.06.63-.06.12-.08.25-.05.39.04.19.02.37-.06.55-.1.22-.09.44.01.65.09.19.13.39.12.6,0,.11.02.21.04.32,0,.08.03.16.02.24,0,.17.04.32.11.47.06.12.13.25.13.38,0,.3.05.58.13.87,0,.02,0,.04,0,.05,0,.32.12.59.37.8.11.09.17.19.16.34-.02.18.05.34.17.47.09.1.14.2.16.33.03.16.12.3.25.4.17.13.29.29.36.49.05.14.13.25.26.33.07.05.13.12.19.18.07.07.13.15.21.2.1.07.18.14.23.26.06.15.17.26.32.31.18.06.28.21.41.33.14.12.31.21.46.31.01,0,.03.02.04.04.26.26.58.41.92.53.11.04.2.09.3.15.29.18.58.36.89.29.2.05.34.11.48.13.12.01.22.03.33.1.14.09.29.15.46.09.14-.05.23,0,.34.1.23.21.48.26.76.1.05-.03.13-.07.17-.05.22.08.45.02.67.04.09,0,.18.02.25.06.15.07.31.09.44.04.18-.07.35-.09.54-.05.06.01.15-.01.2-.05.18-.13.39-.21.6-.29.04-.01.07-.05.11-.07.03-.02.07-.04.1-.03.2.05.39-.06.58-.07.35-.02.56-.21.67-.53.06-.19.18-.28.37-.3.09-.01.18-.05.29-.08-.1-.16-.23-.25-.36-.32ZM89.66,101.03c-.08.2-.09.42-.25.58-.04.04-.02.15-.02.23,0,.06.03.13.02.18-.07.21-.08.44-.1.66-.02.2-.11.38-.24.55-.16.2-.27.44-.33.69-.01.06-.02.13-.13.12-.19-.23-.25-.52-.36-.78-.02-.06-.03-.12-.03-.18,0-.29.01-.57.01-.86,0-.21.06-.38.2-.54.05-.06.08-.14.09-.21.04-.16.1-.3.25-.39.05-.03.09-.08.13-.13.14-.17.28-.34.46-.48.05-.04.1-.07.16-.09.11-.03.18.02.18.13,0,.17.02.34-.05.5Z" fill="#191919"/><path d="M124.82,94.09c-.1.06-.23.11-.35.12-.43,0-.81.2-1.22.28-.06.01-.11.06-.16.09-.2.11-.39.25-.61.33-.14.05-.25.13-.36.23-.08.07-.16.17-.25.19-.33.07-.55.32-.82.5-.26.17-.48.39-.77.53-.11.05-.18.15-.23.25-.13.24-.34.42-.56.56-.15.1-.26.21-.36.35-.09.14-.19.28-.31.4-.22.22-.37.5-.65.66-.14.23-.32.43-.48.64-.06.07-.11.14-.17.2-.17.16-.33.33-.4.56-.02.07-.08.14-.15.18-.33.21-.47.58-.73.84-.03.03-.05.08-.07.12-.09.19-.19.37-.34.54-.11.13-.19.29-.34.4-.08.05-.11.16-.17.24-.14.17-.26.36-.43.51-.14.12-.26.25-.29.44-.05.29-.24.5-.42.7-.2.22-.41.42-.55.69-.03.06-.07.11-.11.15-.29.33-.54.69-.8,1.04-.16.22-.4.38-.55.61-.01.02-.05.03-.07.04-.13.07-.22.18-.26.33-.04.15-.13.24-.27.31-.09.05-.17.13-.23.22-.12.19-.3.31-.49.39-.16.06-.28.15-.36.3-.05.1-.13.15-.22.22-.22.14-.46.25-.61.48-.07.11-.16.19-.28.25-.15.08-.25.18-.35.32-.1.13-.25.22-.38.33-.03.03-.05.07-.07.11-.09.17-.13.35-.13.57-.02.21.06.41.25.57.08.06.15.13.21.21.14.16.41.25.66.1.06-.04.13-.09.19-.09.18,0,.33-.08.48-.15.13-.06.27-.09.41-.1.17-.01.35-.02.49-.13.15-.13.34.03.49-.07.04-.03.1-.04.14-.07.19-.12.42-.15.58-.33.03-.03.1-.03.15-.04.12-.03.24-.05.34-.14.04-.04.11-.06.17-.08.14-.04.26-.11.37-.21.13-.11.28-.19.43-.27.24-.14.48-.26.72-.4.03-.02.05-.05.08-.07.04-.03.09-.06.14-.08.33-.13.61-.35.93-.52.33-.17.55-.51.87-.7.03-.02.05-.05.07-.08.24-.23.44-.49.74-.65.08-.04.14-.11.19-.19.1-.14.22-.25.36-.35.15-.11.3-.24.4-.4.12-.2.3-.3.49-.4.12-.06.23-.14.31-.24.09-.11.11-.27.19-.37.09-.11.22-.18.33-.27.04-.03.07-.08.1-.13.08-.12.14-.26.23-.36.12-.14.21-.28.28-.45.02-.05.06-.09.09-.13.19-.25.37-.5.6-.71.07-.06.1-.17.16-.25.04-.06.07-.13.12-.17.21-.14.29-.34.32-.57.02-.14.08-.23.16-.32.09-.11.17-.23.22-.36.07-.19.12-.39.17-.59.03-.11.09-.19.19-.25.24-.15.35-.38.35-.66,0-.16.05-.27.17-.37.12-.09.23-.21.26-.37.04-.28.16-.53.3-.77.03-.05.06-.11.07-.17.06-.28.2-.51.38-.73.11-.13.2-.27.22-.45.02-.16.1-.29.24-.37.14-.08.24-.2.29-.34.11-.29.34-.45.59-.59.19-.11.34-.25.39-.45.05-.22.09-.46.08-.69-.02-.38-.41-.7-.84-.43ZM110.39,109.55s0,0,0,0c0,0,0,0-.01.01,0,0,0-.01,0-.01Z" fill="#191919"/><path d="M93.93,116.22c-.06-.07-.11-.16-.19-.22-.33-.26-.72-.42-1.04-.69-.03-.02-.06-.04-.1-.04-.17,0-.3-.1-.44-.16-.34-.15-.66-.31-.95-.54-.04-.03-.09-.06-.14-.07-.22-.03-.4-.14-.57-.27-.04-.03-.09-.06-.14-.07-.21-.05-.34-.19-.45-.36-.06-.1-.14-.19-.26-.21-.15-.03-.25-.12-.33-.25-.08-.12-.17-.21-.31-.23-.08-.02-.14-.06-.19-.13-.05-.08-.13-.14-.2-.22-.04-.04-.07-.08-.11-.12-.08-.1-.14-.22-.23-.29-.27-.2-.37-.53-.63-.72-.02-.01-.03-.05-.04-.07-.06-.19-.17-.35-.28-.51-.11-.15-.15-.36-.23-.54-.02-.06-.05-.11-.08-.17-.1-.19-.21-.37-.31-.56-.03-.05-.04-.12-.04-.18,0-.2-.06-.37-.21-.5-.04-.04-.08-.1-.09-.16-.07-.46-.23-.9-.23-1.37,0-.23-.06-.46-.09-.69-.04-.28-.07-.57-.1-.85,0-.07.02-.14.03-.21,0-.12.05-.26,0-.37-.09-.24-.05-.48-.01-.72.06-.31.17-.62.09-.94,0-.04.02-.09.03-.13.03-.1.03-.2-.06-.27-.09-.07-.19-.05-.28,0-.03.02-.07.03-.09.05-.27.28-.67.45-.84.84,0,.02-.02.03-.04.04-.14.15-.26.32-.41.46-.24.23-.4.5-.53.8-.02.05-.06.12-.11.14-.32.2-.42.51-.47.86,0,.06-.03.13-.07.17-.2.16-.25.38-.26.62,0,.17-.07.31-.19.43-.07.07-.12.15-.17.24-.07.13-.13.28-.18.42-.1.25-.2.5-.08.78.03.07.02.18,0,.26-.08.32-.17.64-.21.97,0,.08-.01.16-.01.24,0,.18.01.36-.01.53-.03.17-.04.33,0,.5.01.06,0,.12,0,.18.02.25.03.5.05.75.02.24.07.48.09.72.01.16.05.3.15.42.05.06.08.14.12.21.06.12.11.24.17.36.06.12.12.24.17.36.09.22.18.42.33.61.18.23.39.45.43.76,0,.03.03.07.06.09.28.25.56.5.83.75.03.02.06.03.09.05.12.07.21.16.3.26.18.19.38.35.58.51.02.02.05.02.07.03.26.06.47.21.69.35.33.2.67.37,1.06.42.12.01.26.04.35.11.2.14.38.16.6.08.11-.04.26-.09.36-.06.17.06.34.05.5.09.18.05.34,0,.48-.09.08-.05.15-.08.25-.08.06,0,.13,0,.19-.01.18-.05.35-.04.53-.01.32.06.62.03.88-.21.06-.05.13-.09.21-.12.14-.04.25-.13.35-.24.05-.05.12-.11.17-.11.3.01.5-.12.7-.32.17-.17.37-.3.56-.45.03-.03.06-.07.09-.1.15-.19.3-.38.31-.64.11-.02.19-.03.31-.05-.08-.07-.14-.12-.18-.17ZM84.68,107.92c-.18.27-.27.58-.38.88-.02.06,0,.12-.02.18-.02.09-.03.18-.07.25-.07.1-.08.21-.09.33,0,.16-.03.32-.05.48-.02.14-.06.28-.02.42.02.07,0,.16,0,.24,0,.04-.03.07-.02.1.08.29-.07.54-.13.81-.03.12-.07.23-.11.39-.21-.2-.39-.37-.56-.55-.15-.16-.2-.35-.16-.57.04-.18.07-.37.05-.56-.02-.31.11-.58.16-.87.03-.17.09-.34.14-.51,0-.03.02-.05.04-.07.19-.21.25-.52.44-.72.22-.24.44-.49.77-.58.11.12.09.23.02.35Z" fill="#191919"/><path d="M86.21,119.19c-.21,0-.4-.06-.59-.14-.11-.04-.21-.09-.32-.12-.08-.02-.16-.06-.23-.04-.22.07-.38-.04-.53-.17-.23-.19-.45-.37-.68-.57-.14-.12-.27-.23-.4-.36-.04-.04-.07-.08-.09-.13-.12-.2-.23-.4-.37-.58-.2-.28-.48-.51-.56-.87,0-.03-.03-.05-.04-.07-.13-.25-.26-.51-.38-.76-.04-.08-.06-.17-.11-.24-.2-.31-.28-.65-.27-1.02,0-.13,0-.28-.05-.4-.1-.26-.16-.51-.06-.78.05-.12,0-.23-.08-.32-.1-.09-.22-.09-.33-.04-.08.03-.17.09-.21.16-.15.26-.41.42-.55.68-.11.2-.24.39-.41.55-.05.05-.06.13-.09.19-.09.2-.19.4-.28.61-.04.09-.06.19-.08.28-.01.05,0,.11-.02.16-.14.28-.16.61-.36.86-.03.03-.04.08-.05.12-.06.28-.22.53-.2.83,0,.03-.01.07-.02.11-.05.24-.11.49-.16.73,0,.03-.01.07,0,.11.02.39.04.78.07,1.18,0,.07.04.14.08.2.06.1.08.19.07.31-.02.15.02.3.08.44.08.21.12.43.31.58.03.02.03.06.05.09.21.39.49.7.97.77.06,0,.12.06.18.1.21.16.41.17.64.03.05-.03.11-.06.17-.06.2.01.41.02.61.06.21.05.38-.01.56-.11.16-.08.33-.17.5-.16.16,0,.31,0,.47-.05.07-.02.15-.03.21,0,.16.05.3,0,.44-.06.15-.07.31-.15.46-.22.21-.09.43-.18.64-.28.06-.03.12-.08.17-.13.08-.08.16-.17.22-.27.07-.1.15-.15.27-.14.04,0,.09.01.13.03.2.05.37,0,.51-.15.09-.11.19-.21.3-.34-.08-.12-.17-.26-.26-.39-.07-.11-.17-.21-.3-.21ZM81.07,117.64c.06.19.04.36,0,.55-.05.21-.06.44-.08.66,0,.09,0,.17-.01.29-.2-.11-.37-.21-.53-.3-.03-.02-.06-.05-.07-.08-.14-.33-.4-.62-.36-1.02,0-.09,0-.18-.01-.27-.01-.22,0-.43.16-.61.04-.05.05-.13.06-.2,0-.03,0-.05,0-.08-.05-.43.15-.76.42-1.06.07-.08.14-.14.25-.1.11.04.15.12.15.23,0,.11,0,.22,0,.32,0,.18.02.36.03.53.02.3.11.6-.01.9-.03.07-.01.16.01.23Z" fill="#191919"/></svg>