<?xml version="1.0" encoding="UTF-8"?><svg id="Layer_1" xmlns="http://www.w3.org/2000/svg" viewBox="0 0 207.21 203.87"><path d="M75.49,104.54c1.38,1.59,2.07,3.42,2.5,5.35.99,4.46,1.61,9,2.77,13.43,1.04,4,2.06,8,2.95,12.06.16-2.58.32-5.16.48-7.74.23-3.6.83-7.15,1.42-10.71.26-1.55-.34-3.38-.95-4.92-1.28-3.22-1.56-6.39-.99-9.84.45-2.71.41-5.5,1.35-8.14.46-1.29.77-2.64,1.65-4.1.1,1.52-.54,2.56-.85,3.67-.67,2.43-1.39,4.83-1.23,7.4.07,1.1.35,2.01,1.15,2.82,1.07,1.08,1.73,2.4,2.31,3.84.33.81.46,1.56.54,2.43.45-1.5,1.56-2.33,2.94-2.44,4.43-.34,6.72-3.39,8.76-6.74,4.52-7.4,10.11-13.76,17.54-18.38,1.71-1.06,3.34-2.25,5.15-3.14.27-.13.53-.43.98-.16-1.86,1.2-3.68,2.34-5.48,3.54-6.76,4.5-12.37,10.1-16.66,17.03-1.53,2.48-2.91,5.11-5.28,6.98-.22.17-.39.46-.47.73-.68,2.3-2.25,3.86-4.11,5.24-1.07.8-2.02,1.76-3.01,2.66-.46.42-.88.68-1.38.02-2.06,10.01-3.05,20.07-2.46,30.26.05.92.03,1.85,0,2.77,0,.41,0,.93-.58.95-.52.02-.69-.43-.73-.87-.08-.96-.15-1.93-.16-2.89,0-1.84-.4-3.6-1.15-5.25-3.58-7.91-5.35-16.21-5.47-24.89-.05-3.41-.54-6.77-1.69-10.01-.09-.26-.27-.54.13-.96Z"/><path d="M75.49,105.15c1.59,1.91,2.25,4.12,2.74,6.51.56,2.7,1.02,5.42,1.57,8.13,1.11,5.44,2.7,10.78,3.9,16.21v-.02c.3-4.86.53-9.72,1.27-14.54.47-3.08,1.13-5.79.12-8.82-.69-2.08-1.46-4.02-1.65-6.24-.2-2.37.39-4.87.65-7.23.25-2.19.78-4.23,1.52-6.3.13-.38.28-.76.44-1.13.12-.26.25-.52.38-.78.05-.1.16-.64.1-.17-.12.9-.6,1.78-.84,2.66-.78,2.79-1.48,5.8-1.05,8.72.28,1.87,1.89,2.99,2.72,4.61.44.86.84,1.76,1.04,2.71.02.1.21,1.23.18,1.23-.04,0,.63-1.24.69-1.31,1.12-1.34,2.89-1.05,4.4-1.55s2.84-1.45,3.94-2.62c2.46-2.64,4.06-6.07,6.21-8.96,2.61-3.51,5.6-6.75,8.99-9.53,1.71-1.4,3.51-2.63,5.37-3.81,1.03-.65,2.04-1.34,3.09-1.97.69-.42,1.86-1.39,2.68-1.09v-1.22c-3.72,2.39-7.48,4.72-10.88,7.57-3.15,2.65-6.01,5.64-8.48,8.93-2.44,3.24-4.12,7.22-7,10.1-.71.71-1.29,1.1-1.65,2.05s-.84,1.81-1.49,2.59c-1.29,1.56-3.05,2.66-4.53,4.03-.38.36-.8.87-1.25,1.14-.5.29-.51.02-.96-.06-.33-.06-.09-.08-.24.33-.1.27-.13.66-.19.95-.14.71-.27,1.43-.4,2.15-.43,2.38-.79,4.77-1.08,7.17-.53,4.33-.82,8.68-.86,13.04-.01,1.67,0,3.34.05,5,.02.57.04,1.13.07,1.7.04.79.38,2.37.02,3.05-.41.77-1.04.39-1.25-.29-.36-1.2-.12-2.66-.21-3.91-.08-1.05-.29-2.1-.62-3.1-.71-2.14-1.77-4.17-2.52-6.31-1.7-4.87-2.78-9.95-3.21-15.08-.22-2.59-.15-5.18-.4-7.77-.13-1.3-.33-2.6-.62-3.88-.27-1.2-.79-2.35-1.02-3.55v1.22c0-.21.09-.39.25-.54.19-.28-.19-.95,0-1.22-.42.6-.32,1.5-.13,2.18.66,2.42,1.32,4.72,1.55,7.23.21,2.35.16,4.73.34,7.09s.49,4.61.93,6.89c.91,4.74,2.44,9.26,4.35,13.69,1.04,2.42,1.05,4.82,1.24,7.4.04.53-.02,1.65.79,1.61.76-.04.59-1.22.6-1.72.08-4.86-.29-9.7.01-14.57.32-5.21,1.02-10.4,1.99-15.54.07-.38.12-1.62.38-1.91.37-.42-.13-.02.34.05.28.04.28.13.55.07.45-.1.88-.69,1.2-.99.49-.46.98-.92,1.49-1.36,1.53-1.31,3.18-2.4,4.22-4.18.46-.79.6-1.83,1.23-2.48.75-.78,1.57-1.43,2.25-2.3,1.32-1.69,2.32-3.59,3.47-5.39,2.55-3.99,5.64-7.64,9.14-10.83,3.84-3.5,8.19-6.24,12.55-9.04.06-.04.02-1.21,0-1.22-.86-.31-2.15.77-2.86,1.2-1.16.71-2.29,1.47-3.45,2.2-2.08,1.31-4.06,2.77-5.91,4.39-3.72,3.23-6.92,7.03-9.68,11.11-2.32,3.44-4.25,7.83-8.55,9.14-.94.29-1.98.23-2.9.56-.43.15-.81.4-1.13.71-.4.4-.49,1-.84,1.37-.25.27-.12-.4-.17-.67s-.1-.54-.17-.8c-.15-.54-.36-1.06-.59-1.57-.58-1.29-1.37-2.24-2.23-3.34-1.81-2.3-.5-5.79.2-8.3.3-1.08.82-2.13.95-3.26.07-.65.04-1.32.02-1.97,0-.03,0-.06,0-.08-1.24,2.16-2.03,4.79-2.39,7.24-.37,2.44-.76,4.99-.87,7.46-.06,1.32-.06,2.67.08,3.98.29,2.57,1.5,4.79,2.01,7.29.26,1.29-.17,2.67-.37,3.94-.23,1.45-.45,2.91-.62,4.37-.33,2.75-.45,5.52-.62,8.28-.04.64-.03,1.3-.12,1.93-.15,1.12-.27-.02-.37-.46-.33-1.48-.68-2.95-1.05-4.42-.66-2.7-1.42-5.37-2.04-8.08-.71-3.07-1.22-6.19-1.83-9.28-.55-2.78-1.12-5.44-2.98-7.66.2.24-.2.97,0,1.22Z"/><path d="M104.5,58.09c-.72,1.07-1.37,2.06-2.05,3.03-3.53,4.95-6.86,10.04-9.64,15.44-2.04,3.96-3.15,8.29-4.11,12.63-.33,1.51-.63,3.03-.84,4.57-.12.93,0,1.77.54,2.51,1.39,1.91,2.43,3.92,2.08,6.48,1.43-1.92,3.31-2.69,5.55-2.79,1.46-.06,2.95-.11,4.02-1.45-1.9,3.22-3.04,7.1-7.43,7.93-.78.15-1.55.35-2.28.7-.26.12-.58.24-.84.19-.42-.08-.13-.49-.22-.72-.13-.33-.24.2-.47.09-.3-.14-.43-.38-.55-.65-.48-1.08-1.09-2.08-1.81-3.01-1.65-2.13-1.43-4.47-.43-6.67.82-1.8,1.21-3.65,1.42-5.56.42-3.84,1.7-7.41,3.15-10.95,3.21-7.79,8.1-14.53,13.04-21.25.17-.23.31-.51.86-.51Z"/><path d="M104.5,57.48c-5.08,7.54-11,15.02-13.87,23.76-.69,2.11-1.24,4.27-1.73,6.44-.44,1.93-.98,3.96-1.08,5.95-.05.97-.08,2.05.38,2.93.94,1.78,2.52,3.38,2.29,5.59-.03.26.15,1.03,0,1.22,1.18-1.51,2.73-2.44,4.64-2.71,1.84-.26,3.58,0,4.93-1.53v-1.22c-1.2,2.07-2.1,4.44-3.87,6.12-.91.86-2,1.44-3.21,1.74-.77.19-1.53.32-2.27.61-.36.14-1.32.72-1.44.05v1.22c.04-.3.22-1.44.01-1.63-.22-.21-.18.14-.32.08-.3-.14-.42-.17-.64-.51-.54-.84-.9-1.78-1.48-2.61-1.23-1.73-1.89-3.13-1.13-5.25.71-1.96,1.4-3.77,1.68-5.86,1.07-8.23,4.85-15.89,9.32-22.79,1.21-1.87,2.48-3.7,3.78-5.52.69-.97,1.39-1.93,2.1-2.89.51-.7.99-1.82,1.91-1.95.07-.01-.05-1.21,0-1.22-.82.12-1.19.97-1.65,1.59-.62.84-1.23,1.68-1.84,2.53-1.22,1.69-2.41,3.39-3.56,5.13-2.26,3.41-4.35,6.94-6.04,10.66-1.75,3.84-3.3,7.92-3.87,12.12-.29,2.09-.59,4.08-1.42,6.04-.55,1.31-.87,2.53-.88,3.95s.18,2.61.96,3.8c.61.92,1.28,1.77,1.78,2.77.14.29.34,1.02.71,1.16.29.11.57-.28.61.17v-1.2c-.05.44-.24,1.52.21,1.74.33.16.93-.24,1.21-.35.5-.19,1-.34,1.52-.46.81-.19,1.59-.35,2.34-.73,2.85-1.45,3.98-4.68,5.49-7.28.16-.27-.2-1,0-1.22-1.35,1.53-3.1,1.27-4.93,1.53-1.91.27-3.46,1.2-4.64,2.71v1.22c.12-1.12.15-2.32-.04-3.42s-.62-2.06-1.17-2.98c-.61-1.02-1.34-1.8-1.45-3.02v1.04c.02-1.72.51-3.5.88-5.17s.75-3.29,1.2-4.92c.89-3.2,2.1-6.23,3.67-9.16,3.21-5.96,7.16-11.42,10.93-17.02.19-.28-.19-.94,0-1.22Z"/><path d="M102.48,84.06c3.84.21,6.95-1.37,9.45-4.12,4.34-4.77,9.57-8.39,14.86-11.95,1.65-1.11,3.32-2.19,4.98-3.29.07.09.13.18.2.27-.52.38-1.02.78-1.55,1.15-4.38,3.02-8.81,5.99-12.85,9.48-1.24,1.07-2.36,2.27-3.43,3.5-1.36,1.56-2.8,3-4.53,4.15-.31.21-.66.44-.83.75-1.71,3.13-4.59,4.24-7.89,4.66-.21.03-.42.04-.63.07-1.14.2-2.53-.12-2.96,1.79-.85-1.56-.77-2.92-.94-4.22-.41-3.04.62-5.57,2.38-8.06,4.46-6.3,10.06-11.55,15.39-17.04,1.98-2.04,3.75-4.29,5.92-6.16.31-.26.61-.53,1.1-.6-.56.59-1.13,1.17-1.68,1.77-5.17,5.6-10.49,11.06-15.46,16.85-1.07,1.24-2.03,2.56-2.99,3.88-.52.71-.65,1.49-.52,2.38.29,1.99.31,3.98-.27,6.04.51-.38.93-.7,1.36-1.02.29-.1.59-.19.88-.29Z"/><path d="M102.48,84.67c2.68.1,5.22-.62,7.39-2.24,1.12-.83,2.02-1.87,2.99-2.87,1.14-1.17,2.33-2.29,3.57-3.35,2.36-2.02,4.87-3.85,7.43-5.62,1.35-.93,2.72-1.85,4.09-2.76.64-.42,1.28-.84,1.92-1.26.38-.25.77-.5,1.15-.76s.63-.69.96-.23v-1.22c-5.22,3.94-11.03,7.22-15.71,11.84-2.23,2.2-4.09,4.58-6.65,6.44-.99.72-1.44,1.88-2.32,2.74s-1.92,1.47-3.06,1.9c-1.07.4-2.21.63-3.34.78-.8.1-1.85.05-2.58.42-.35.18-.6.45-.78.8-.24.47,0,.93-.43.23-.13-.22-.23-.56-.3-.81-.4-1.34-.63-3.17-.41-4.54.47-2.87,2.24-5.24,3.98-7.48,1.93-2.49,4.04-4.85,6.21-7.13,2.38-2.5,4.84-4.93,7.25-7.4,1.26-1.29,2.43-2.65,3.66-3.96.99-1.06,2.22-2.73,3.67-3.12v-1.22c-5.06,5.29-10.09,10.63-14.95,16.11-1.13,1.28-2.27,2.55-3.32,3.9-.94,1.21-2.31,2.55-2.42,4.14-.03.49-.02,1.01,0,1.5.04.76.21,1.51.22,2.27.01,1.01-.2,2.03-.45,3-.05.21.14,1.11,0,1.22.75-.57,1.34-1.02,2.24-1.31.13-.04-.11-1.18,0-1.22-.9.29-1.48.74-2.24,1.31v1.22c.71-2.74.27-5.16.23-7.91v1.14c.1-1.17.8-1.98,1.48-2.9.76-1.02,1.55-2.02,2.38-2.99,1.81-2.11,3.68-4.17,5.56-6.21,3.72-4.04,7.47-8.07,11.27-12.05.11-.12-.11-1.19,0-1.22-1.34.36-2.43,1.81-3.36,2.79-1.24,1.31-2.41,2.67-3.66,3.97-2.29,2.38-4.65,4.69-6.94,7.07-2.34,2.44-4.62,4.94-6.7,7.61-1.86,2.39-3.81,4.94-4.17,8.04-.2,1.68-.02,3.39.17,5.06.08.71.16,1.75.59,2.35.29.4,0,.53.31.07.17-.25.21-.52.43-.75.67-.7,1.86-.62,2.74-.73,2.44-.32,4.9-.93,6.71-2.71.42-.41.78-.86,1.1-1.35.48-.73.86-1.13,1.58-1.64,1.32-.94,2.49-2.05,3.58-3.24,2.61-2.86,5.32-5.36,8.42-7.68,3.27-2.45,6.73-4.64,10-7.1.07-.05.06-1.14,0-1.22-.31-.43-.56-.03-.96.23-.32.21-.64.42-.96.63-.7.46-1.41.92-2.11,1.39-1.31.87-2.61,1.75-3.9,2.64-2.62,1.8-5.19,3.68-7.61,5.75-2.24,1.91-4.08,4.33-6.41,6.11-2.19,1.68-4.78,2.45-7.53,2.34,0,0-.03,1.22,0,1.22Z"/><path d="M113.92,55.14c-1.61,1.8-3.23,3.59-4.82,5.4-3.46,3.93-6.92,7.87-9.85,12.22-2.94,4.35-5.36,9-7.31,13.87-.54,1.36-.66,2.75-.08,4.17.28.69.4,1.45.58,2.18.1.41.12.89.49,1.13,1.33.87,1.29,1.9.42,3.1,1.19-1.75,2.84-2.38,4.87-2.42,1.65-.03,3.32-.17,4.97-.67-1.52.98-2.16,2.85-3.88,3.58-.39.16-.7.43-.99.75-.49.54-1.14.86-1.88.94-1.62.18-3.27.19-4.77.95-.3.15-.31-.18-.41-.33-2.33-3.59-3.18-7.25-1.1-11.36,1.28-2.53,1.99-5.33,3.36-7.85,4.03-7.4,8.95-14.14,14.78-20.22,1.48-1.54,2.92-3.12,4.4-4.67.33-.34.6-.76,1.24-.77Z"/><path d="M113.92,54.53c-6.23,6.97-12.72,13.85-17.41,22-1.12,1.94-2.14,3.94-3.07,5.98-.8,1.75-1.88,3.67-1.97,5.62-.05,1.04-.02,2.07.31,3.06s.4,2.11.8,3.02c.37.84,1.29,1.03,1.39,2.07v-1.22c-.06.6-.29,1.04-.62,1.53-.19.28.19.95,0,1.22,2.35-3.24,6.44-2.12,9.85-3.09v-1.22c-1.42,1-2.18,2.66-3.73,3.51-.74.41-1.25,1.09-2,1.46-.97.48-2.19.38-3.24.52-.58.08-1.17.19-1.73.38-.33.11-.81.46-1.1.28-.21-.13-.47-.78-.6-1.01-.32-.55-.61-1.11-.87-1.69-.94-2.15-1.15-4.23-.33-6.45s1.82-4.3,2.69-6.45c.86-2.14,2.01-4.14,3.2-6.12,2.34-3.9,4.96-7.63,7.83-11.15,1.58-1.94,3.25-3.81,4.97-5.62,1.02-1.07,2.03-2.15,3.04-3.23.7-.75,1.51-2.05,2.59-2.21.07,0-.05-1.21,0-1.22-1.03.15-1.76,1.32-2.42,2.03-.96,1.02-1.91,2.04-2.87,3.05-1.74,1.83-3.43,3.69-5.03,5.63-3.17,3.85-6.04,7.95-8.56,12.25-1.3,2.21-2.4,4.43-3.32,6.83s-2.29,4.57-2.65,7.02c-.16,1.1-.16,2.29-.06,3.4s.37,2.09.76,3.07c.21.52.45,1.01.71,1.5.16.29.63,1.43.91,1.57.39.18,1.09-.29,1.53-.41.71-.19,1.45-.27,2.19-.35,1.35-.14,2.29-.24,3.32-1.18.77-.71,1.74-1.04,2.47-1.83s1.37-1.73,2.3-2.39c.14-.1-.13-1.18,0-1.22-3.41.97-7.5-.15-9.85,3.09v1.22c.57-.85.82-2,.59-3.03-.1-.44-.37-.75-.69-1.05-.48-.44-.62-.58-.78-1.21-.33-1.31-.87-2.68-.99-4.03v.3c0-.14,0-.28,0-.42v.92c.12-1.61.86-3.09,1.5-4.55s1.38-2.99,2.14-4.45c1.57-3,3.34-5.9,5.32-8.64,4.07-5.64,8.86-10.74,13.48-15.92.21-.23-.2-1,0-1.22Z"/><path d="M94.79,82.04c.43,3.17,1.48,6.18,1.59,9.49,2.09-1.64,4.4-2.08,6.83-2.1,1.17-.01,2.2-.4,3.11-1.17,2.69-2.28,5.41-4.52,8.1-6.79,4.28-3.62,9.25-6.16,14.25-8.63-.38.63-1.03.9-1.62,1.22-5.39,2.95-10.41,6.34-14.9,10.63-3.07,2.93-6.59,5.43-9.98,8.03-1.85,1.42-4.1,1.87-6.54,1.8-1.51-.04-1.76-.84-2.22-1.84-1.69-3.7-.83-7.11,1.1-10.42.05-.09.18-.14.28-.21Z"/><path d="M94.79,82.65c.46,3.17,1.44,6.25,1.59,9.47v.02c1.22-.91,2.56-1.54,4.06-1.84,1.39-.28,2.9-.06,4.26-.51,1.42-.47,2.53-1.7,3.65-2.63,1.35-1.13,2.7-2.26,4.05-3.39,2.49-2.08,4.97-4.08,7.74-5.77,2.75-1.68,5.64-3.13,8.53-4.56v-1.22c-.59.81-1.54,1.17-2.39,1.65-1.02.57-2.02,1.15-3.02,1.76-1.98,1.21-3.91,2.51-5.76,3.91-3.82,2.88-7.15,6.32-10.95,9.24-1.82,1.4-3.68,3.16-5.76,4.17-.96.47-2.01.74-3.07.87-.92.11-2.2.3-3.08-.11-.68-.31-.95-1-1.23-1.65-.51-1.16-.93-2.45-.85-3.74.06-1.07.41-2.16.81-3.15.31-.77.71-2.07,1.43-2.52.19-.12-.18-1.11,0-1.22-.63.4-.98,1.48-1.27,2.13-.38.88-.68,1.8-.86,2.74-.18,1-.19,2.03-.16,3.05.04,1.56.44,3.06,1.14,4.45.8,1.6,2.5,1.42,4.08,1.23,2.01-.24,3.58-1.06,5.17-2.27,1.71-1.3,3.43-2.57,5.1-3.9,3.27-2.59,6.17-5.6,9.5-8.11,1.85-1.4,3.78-2.69,5.76-3.91.93-.57,1.87-1.12,2.83-1.66.9-.51,1.95-.9,2.58-1.75.13-.17-.15-1.14,0-1.22-3.54,1.75-7.08,3.54-10.38,5.73-3.47,2.31-6.58,5.16-9.77,7.83-1.37,1.15-2.7,2.66-4.55,2.97s-3.63.15-5.43.9c-.55.23-1.7,1.25-2.18.82-.12-.11-.12-1.29-.13-1.41-.06-.46-.13-.91-.21-1.37-.37-2.1-.92-4.15-1.23-6.26.06.4-.06.82,0,1.22Z"/><path d="M102.48,84.06c-.29.1-.59.19-.88.29-.09-.14-.27-.28-.25-.41.34-2.98.75-5.93,3.11-8.13.65-.61,1.38-1.16,2.23-1.38,2.09-.54,3.63-1.88,5.09-3.33,4.93-4.92,10.11-9.56,15.28-14.21.3-.27.57-.6,1.12-.53-1.78,1.68-3.54,3.38-5.34,5.04-4.34,4.02-8.41,8.3-12.27,12.78-.63.73-.7,1.61-.91,2.44-.87,3.52-2.74,6.08-6.4,7.03-.27.07-.52.28-.77.42Z"/><path d="M102.48,83.45c-.54.18-.87.49-1.14-.12v1.22c.34-2.96.84-5.99,3.11-8.13,1.21-1.14,2.63-1.34,4.04-2.1,1.31-.71,2.4-1.74,3.45-2.78,2.64-2.62,5.35-5.17,8.09-7.69,1.37-1.26,2.75-2.51,4.13-3.75.72-.65,1.44-1.3,2.16-1.95.56-.51,1.05-1.14,1.84-1.18v-1.22c-5.4,5.11-10.82,10.16-15.77,15.71-1.13,1.27-2.25,2.31-2.63,4.01-.29,1.26-.66,2.49-1.3,3.62-.61,1.08-1.44,2.03-2.47,2.73-1.1.75-2.42.95-3.53,1.64-.19.12.17,1.11,0,1.22,1.11-.69,2.43-.89,3.53-1.64.98-.67,1.78-1.57,2.39-2.59.65-1.11,1.05-2.33,1.34-3.58.42-1.78,1.47-2.84,2.67-4.19,4.95-5.56,10.37-10.6,15.77-15.71.09-.08-.06-1.22,0-1.22-.9.04-1.57.94-2.2,1.51-.84.76-1.68,1.52-2.52,2.28-1.56,1.41-3.12,2.83-4.66,4.25-1.66,1.54-3.31,3.09-4.94,4.67-1.38,1.33-2.68,2.81-4.23,3.94-1.43,1.04-3.21,1.24-4.58,2.31-1.4,1.1-2.35,2.6-2.89,4.28-.45,1.4-.73,2.97-.8,4.44-.01.3-.06.67,0,.96.14.73.48.51,1.14.3.13-.04-.11-1.18,0-1.22Z"/></svg>