<?xml version="1.0" encoding="UTF-8"?><svg id="Layer_1" xmlns="http://www.w3.org/2000/svg" viewBox="0 0 207.21 203.87"><path d="M156.53,102.9c-2.3-38.95-32.21-53.38-53.15-53.91-22.64-.58-51.42,18.61-52.76,49.31-1.34,30.7,23.6,53.15,47.39,56.21,23.79,3.07,60.82-12.66,58.52-51.61ZM107.8,113.52c-5.76,2.17-12.15-1.41-14.71-6.4-2.56-4.99-1.96-12.69,3.97-16.37,8.44-5.24,16.24-2.3,19.06,6.27,2.81,8.57-2.56,14.33-8.31,16.5Z"/><ellipse cx="104.69" cy="101.16" rx="2.3" ry="2.64" fill="none" stroke="#000" stroke-linecap="round" stroke-linejoin="round" stroke-width="2.44"/><path d="M66.74,105.46c.03-1.32-.16-3.83,0-7.04" fill="none" stroke="#fff" stroke-linecap="round" stroke-linejoin="round" stroke-width="2.44"/><path d="M58.88,112.11c-1.73-8.06-1.18-33.81,15.28-45.15,18.29-12.6,42.66-15.67,62.03,3.52" fill="none" stroke="#fff" stroke-linecap="round" stroke-linejoin="round" stroke-width="2.44"/><path d="M147.52,92.16s8.59,20.59-10.17,42.4c-15.17,17.64-40.1,14.39-48.54,10.36" fill="none" stroke="#fff" stroke-linecap="round" stroke-linejoin="round" stroke-width="2.44"/><path d="M96.67,140.72s18.76,2.73,29.35-5.01c13.51-9.86,15.92-22.45,15.92-22.45" fill="none" stroke="#fff" stroke-linecap="round" stroke-linejoin="round" stroke-width="2.44"/><path d="M97.82,135c-4.17-.31-6.9-1.01-6.9-1.01" fill="none" stroke="#fff" stroke-linecap="round" stroke-linejoin="round" stroke-width="2.44"/><path d="M139.27,96s1.15,18.42-13.24,30.89c-6.14,5.32-13.42,7.39-19.77,8.02" fill="none" stroke="#fff" stroke-linecap="round" stroke-linejoin="round" stroke-width="2.44"/><path d="M89,126.31s23.26,9.85,38.8-7.42" fill="none" stroke="#fff" stroke-linecap="round" stroke-linejoin="round" stroke-width="2.44"/><path d="M132.17,109.04s4.22-9.02,1.15-20.53" fill="none" stroke="#fff" stroke-linecap="round" stroke-linejoin="round" stroke-width="2.44"/><path d="M128.52,97.34s1.73,9.59-2.69,16.31" fill="none" stroke="#fff" stroke-linecap="round" stroke-linejoin="round" stroke-width="2.44"/><path d="M122.57,117.1s-7.48,9.98-24.75,6.52" fill="none" stroke="#fff" stroke-linecap="round" stroke-linejoin="round" stroke-width="2.44"/><path d="M100.7,118.25s8.42,3.11,17.65-5.18c5.55-4.99,4.99-12.66,4.99-12.66" fill="none" stroke="#fff" stroke-linecap="round" stroke-linejoin="round" stroke-width="2.44"/><path d="M106.76,63.6c5.56,1.35,11.52,4.12,15.5,7.2" fill="none" stroke="#fff" stroke-linecap="round" stroke-linejoin="round" stroke-width="2.44"/><path d="M67.79,90.76c2.27-9.67,9.03-21.36,28.63-27.51.52-.16,1.08-.29,1.66-.37" fill="none" stroke="#fff" stroke-linecap="round" stroke-linejoin="round" stroke-width="2.44"/><path d="M74.8,96.25c2.05-7.42,4.35-16.24,13.17-21.87" fill="none" stroke="#fff" stroke-linecap="round" stroke-linejoin="round" stroke-width="2.44"/><path d="M93.99,71.18c2.94-1.41,14.2-2.56,22.13,4.48" fill="none" stroke="#fff" stroke-linecap="round" stroke-linejoin="round" stroke-width="2.44"/><path d="M105.63,76.56c-7.67-.51-17.65.26-22,12.41" fill="none" stroke="#fff" stroke-linecap="round" stroke-linejoin="round" stroke-width="2.44"/><path d="M86.06,101.37c.77-5.37,1.15-13.43,9.47-17.14,8.31-3.71,14.97-1.79,17.65.51" fill="none" stroke="#fff" stroke-linecap="round" stroke-linejoin="round" stroke-width="2.44"/></svg>