<?xml version="1.0" encoding="UTF-8"?><svg id="Layer_1" xmlns="http://www.w3.org/2000/svg" viewBox="0 0 207.21 203.87"><path d="M132.89,100.6c-.48-1-2.58-1.57-3.5-2.03-1.17-.58-2.34-1.18-3.51-1.78-2.27-1.17-4.53-2.35-6.8-3.52-4.55-2.35-9.12-4.65-13.81-6.7-2.18-.95-4.46-1.95-6.88-1.95-2.37,0-4.44,1.2-6.17,2.73-3.72,3.28-6.8,7.29-9.97,11.07-1.58,1.88-3.16,3.75-4.87,5.5-1.24,1.27-3.88,2.93-3.39,5.03.2.86.9,1.57,1.77,1.71,1.16.19,2.34.13,3.5.4,2.04.48,4.01,1.23,5.94,2.05,3.94,1.69,7.72,3.78,11.83,5.05,2.03.63,4.17,1.09,6.31,1.09,2.32,0,4.6-.56,6.75-1.4,5.01-1.96,9.34-5.25,13.75-8.26,2.23-1.52,4.52-2.94,6.97-4.08.98-.46,1.63-1.2,2.17-2.28.64-1.26.05-2.3-.1-2.63ZM96.43,89.65c2.7-1.59,6.27.08,8.83,1.22,3,1.33,7.29,3.41,10.23,4.89-7.32-.78-13.22-3.53-24.84-1.26,1.41-1.52,4.07-3.65,5.78-4.85ZM80.72,106.85c1.71-1.79,3.23-3.76,5.12-5.36,1.96-1.67,4.33-2.63,6.84-3.11-2.18,4.25-1.78,9.52.63,13.6-4.13-1.85-8.17-4.04-12.59-5.13ZM122.3,105.48c-3.09,2.03-6.05,4.26-9.25,6.11,1.01-1.76,1.64-3.74,1.77-5.77.12-1.94-.04-4.2-1.03-5.93,1.25.13,2.51.27,3.76.47,1.22.19,8.7,1.39,9.88,1.99-1.77.95-3.46,2.03-5.13,3.13Z"/></svg>