<?xml version="1.0" encoding="UTF-8"?><svg id="Layer_1" xmlns="http://www.w3.org/2000/svg" viewBox="0 0 207.21 203.87"><path d="M103.71,71.86c-22.18.36-31.26,18.37-29.51,33.44,1.43,12.34,13.41,27.72,28.79,26.65,15.38-1.07,30.04-8.76,30.22-26.11.18-17.35-7.33-34.34-29.51-33.98ZM112.83,103.52c-.89,5.01-5.72,7.15-12.7,6.8-6.97-.36-6.26-9.12-6.26-9.12-.36-7.33,3.93-10.55,11.45-10.02,7.51.54,8.41,7.33,7.51,12.34Z"/><path d="M103.16,86.53c.04-3.17.29-6.34.76-9.47" fill="none" stroke="#fff" stroke-linecap="round" stroke-linejoin="round" stroke-width="2.44"/><path d="M105.82,87.95c.76-2.96,1.89-5.83,3.35-8.52" fill="none" stroke="#fff" stroke-linecap="round" stroke-linejoin="round" stroke-width="2.44"/><path d="M79.93,110.69c3.78-.77,7.46-2.03,10.93-3.73" fill="none" stroke="#fff" stroke-linecap="round" stroke-linejoin="round" stroke-width="2.44"/><path d="M89.71,122.09c1.61-3.04,3.23-6.08,4.84-9.11" fill="none" stroke="#fff" stroke-linecap="round" stroke-linejoin="round" stroke-width="2.44"/><path d="M112.67,111c1.85,1.42,3.71,2.85,5.56,4.27" fill="none" stroke="#fff" stroke-linecap="round" stroke-linejoin="round" stroke-width="2.44"/><path d="M115.33,108.15c3.08.01,6.15.7,8.94,2" fill="none" stroke="#fff" stroke-linecap="round" stroke-linejoin="round" stroke-width="2.44"/><path d="M102.09,101.6c-.12-.81.44-1.57,1.25-1.7.81-.12,1.57.44,1.7,1.25.12.81-.44,1.57-1.25,1.7-.81.12-1.57-.44-1.7-1.25Z" fill="none" stroke="#000" stroke-linecap="round" stroke-linejoin="round" stroke-width="2.44"/></svg>