<?xml version="1.0" encoding="UTF-8"?><svg id="Layer_1" xmlns="http://www.w3.org/2000/svg" viewBox="0 0 207.21 203.87"><path d="M85.79,74.17c1.09.87,6.01,7.11,6.89,8.2" fill="none" stroke="#000" stroke-linecap="round" stroke-linejoin="round" stroke-width="2.44"/><path d="M110.17,58.53c1.41-.38,3.17,32.69,5.68,34.76,2.51,2.08,26.46.77,26.89,2.19.44,1.42-20.99,7.98-21.32,10.06-.33,2.08,19.68,18.8,19.13,20.12-.55,1.31-23.39-11.04-25.03-10.28-1.64.77-4.15,29.95-5.36,29.95s-6.78-27.55-8.31-28.42c-1.53-.87-27.33,16.07-27.88,15.31s19.13-21.97,19.35-23.5c.22-1.53-29.52-10.28-28.64-12.57.87-2.3,34.22-.87,36.08-1.75,1.86-.87,7.76-35.42,9.4-35.86Z"/><line x1="126.45" y1="84.44" x2="132.58" y2="75.59" fill="none" stroke="#000" stroke-linecap="round" stroke-linejoin="round" stroke-width="2.44"/><path d="M134.43,107.84c1.64,0,9.73,2.3,10.49,2.3" fill="none" stroke="#000" stroke-linecap="round" stroke-linejoin="round" stroke-width="2.44"/><path d="M122.08,129.05c.77.98,2.95,9.18,2.95,9.18" fill="none" stroke="#000" stroke-linecap="round" stroke-linejoin="round" stroke-width="2.44"/><path d="M92.35,131.45c-.22,1.64-2.51,9.62-2.51,9.62" fill="none" stroke="#000" stroke-linecap="round" stroke-linejoin="round" stroke-width="2.44"/><path d="M62.28,119.75c.44,0,8.75-2.95,10.28-3.72" fill="none" stroke="#000" stroke-linecap="round" stroke-linejoin="round" stroke-width="2.44"/></svg>