<?xml version="1.0" encoding="UTF-8"?><svg id="Layer_1" xmlns="http://www.w3.org/2000/svg" viewBox="0 0 207.21 203.87"><path d="M107.82,101.69c-1.52-.05-3.03.07-4.53.3-5.93.92-21.76,2.6-27.58-4.45-7.22-8.75,8.31-33.91,27.35-35,19.03-1.09,28.44,15.53,30.08,24.94,1.57,9.02-8.41,14.72-25.32,14.21Z"/><path d="M103.98,97.18c-3.99,1.85-16.48,6.83-23.97.35-1.53-1.32-1.78-3.58-.68-5.27,2.85-4.35,10-12.42,24.27-13.53,14.22-1.11,21.48,5.13,24.42,8.68,1.19,1.44,1.27,3.51.15,5-2.38,3.18-8.25,7.69-21.52,4.51-.9-.21-1.84-.13-2.67.26Z" fill="#fff7f7"/><path d="M96.02,80.56c1.33,3.58,3.57,6.79,6.51,9.24.49.41,1.21-.3.71-.71-2.8-2.34-4.98-5.37-6.25-8.79-.22-.6-1.19-.34-.97.27h0Z"/><path d="M101.05,79.48c1.29,2.94,2.46,5.94,3.5,8.97.21.61,1.18.35.97-.27-1.07-3.12-2.27-6.19-3.6-9.21-.26-.59-1.12-.08-.87.51h0Z"/><path d="M106.11,79.18c.87,2.87,1.66,6.13.15,8.93-.31.57.56,1.08.87.51,1.65-3.06.91-6.55-.04-9.7-.19-.62-1.15-.35-.97.27h0Z"/><path d="M107.13,90.57c3.83-2.33,6.34-6.51,6.61-10.98.04-.64-.96-.64-1,0-.25,4.12-2.59,7.98-6.12,10.12-.55.33-.05,1.2.51.87h0Z"/><path d="M107.45,92.48c5.7-1.17,10.49-5.68,12.05-11.28.17-.62-.79-.89-.97-.27-1.47,5.28-5.98,9.47-11.34,10.58-.63.13-.36,1.1.27.97h0Z"/><path d="M107.96,93.88c6.56-.66,12.75-3.94,16.92-9.06.4-.5-.3-1.21-.71-.71-4,4.9-9.91,8.13-16.21,8.76-.64.06-.64,1.07,0,1h0Z"/><path d="M108.1,95.91c5.73.95,11.85.12,16.88-2.88,1.42-.85,2.73-1.87,3.91-3.03.46-.46-.25-1.17-.71-.71-3.97,3.95-9.54,5.88-15.08,5.99-1.58.03-3.17-.08-4.73-.34-.63-.1-.9.86-.27.97h0Z"/><path d="M91.15,82.28c1.41,4.8,5.46,8.65,10.33,9.78.63.15.9-.82.27-.97-4.54-1.05-8.32-4.6-9.63-9.08-.18-.62-1.15-.36-.97.27h0Z"/><path d="M86.5,85.07c3.53,5.17,9.48,8.46,15.74,8.69.65.02.64-.98,0-1-5.89-.21-11.55-3.32-14.87-8.19-.36-.53-1.23-.03-.87.51h0Z"/><path d="M80.61,90.53c6.36,4.3,14.3,6.82,21.9,4.63.62-.18.36-1.15-.27-.97-7.36,2.11-14.98-.37-21.13-4.53-.54-.36-1.04.51-.51.87h0Z"/><path d="M78.45,94.52c5.33,4.06,12.38,4.58,18.76,3.35,1.98-.38,3.93-.92,5.84-1.55.61-.2.35-1.17-.27-.97-6.18,2.03-12.98,3.12-19.24.81-1.64-.61-3.19-1.45-4.58-2.52-.51-.39-1.01.48-.51.87h0Z"/><path d="M102.85,88.57c-1.37.63-2.05,2.17-1.61,3.61.93,3.04,2.09,8.3.63,12.44-2.18,6.21-8.63,15.56-8.26,26.66.37,11.1,7.63,15.2,8.44,1.1.81-14.1,5.79-21.65,6.89-29.17.66-4.55-.09-9.69-.79-13.05-.39-1.88-2.42-2.91-4.17-2.11l-1.13.52Z"/><path d="M108.21,100.05c.1,1.01-.19,1.87-.65,1.91-.46.05-.92-.73-1.02-1.75-.1-1.01.19-1.87.65-1.91.46-.05.92.73,1.02,1.75Z" fill="#fff7f7"/><path d="M106.66,95.05c.05.53-.19.98-.55,1.02s-.69-.36-.74-.89c-.05-.53.19-.98.55-1.02.36-.04.69.36.74.89Z" fill="#fff7f7"/><path d="M98,124.02c-.34.45-.97.54-1.42.2-.45-.34-.54-.97-.2-1.42.34-.45.97-.54,1.42-.2.45.34.54.97.2,1.42Z" fill="#fff7f7"/><path d="M96.66,128.69c-.29.38-.84.46-1.22.17s-.46-.84-.17-1.22c.29-.38.84-.46,1.22-.17.38.29.46.84.17,1.22Z" fill="#fff7f7"/></svg>