<?xml version="1.0" encoding="UTF-8"?><svg id="Layer_1" xmlns="http://www.w3.org/2000/svg" viewBox="0 0 207.21 203.87"><path d="M107.82,138.01l6.32.58-4.52-6.75,3.21-7.46-2.73.77s-.02.01-.03.02c0,0,0,0,0,.01,0,0-.01-.01-.02-.02l-3.81,1.08s.04.07.06.1c-.03.02-.07.04-.1.06-.12.02-.25.02-.38.01,0-.02-.02-.03-.02-.05l-.79.22-4.23-3.71c.1.23.2.46.31.68-.1-.09-.2-.18-.3-.27-.08-.14-.19-.24-.31-.31,0-.03,0-.07,0-.1.07-.02.13-.04.19-.06.03.01.06.02.09.03l-1.84-1.62-.31,8.12-6.98,4.15,7.63,2.8,1.79,7.92,1.95-2.47c-.12-.06-.25-.1-.4-.13-.02-.16-.07-.34-.12-.59.38-.13.64.01.85.3l2.75-3.5,1.56.14c0-.19.35-.08.21.02ZM110.13,125.31s.06.03.1.04c0,.02,0,.03.01.05-.03,0-.05,0-.08,0-.01-.03-.02-.06-.03-.09ZM108.18,128.22s0,0-.01,0c-.02-.01-.04-.02-.06-.04.01-.02.02-.04.03-.06l.04.09ZM109.06,127.53s.03.09.05.13c0,.02,0,.05.02.08-.09-.04-.18-.08-.28-.11,0,0,0,0,0,0,.07-.03.15-.06.22-.09ZM107.82,128.08s.08-.03.12-.05c0,0,0,0,0,0,0,0,0,0,0,0,0,0,.02,0,.03-.01.01.02.02.04.03.05,0-.02-.02-.04-.03-.05.03-.01.06-.02.08-.04,0,0,.02.01.03.02,0,.02.02.04.02.05-.03,0-.06.02-.08.05,0-.01-.02-.02-.02-.03,0,.02.01.03.02.05-.01.04-.01.09.03.16.01-.01.02-.02.02-.03,0,0,0,.01,0,.02,0,0-.02,0-.03.01,0,0,0,0,0,0-.05,0-.09.01-.13.02-.03-.07-.06-.14-.09-.21ZM108.18,129.45c.05-.13.19.02.21.12-.02.02-.05.04-.07.07-.03,0-.08-.03-.15-.08,0-.04,0-.07,0-.11ZM106.15,127.21c.14-.05.3-.11.45-.19.02.24.23.3.48.33,0,0,0,0,0,.01-.1.04-.18.13-.25.23-.03.01-.05.02-.08.03-.12-.06-.3-.16-.62-.13,0-.1.01-.19.02-.29ZM100.66,141.55s.04.05.07.08c-.02.01-.05.02-.08.03,0-.04,0-.08,0-.12ZM101.3,142.84c-.09.05-.17.1-.24.15-.06-.05-.12-.11-.21-.08,0,.02-.01.03-.02.04-.15-.34-.16-.77-.12-1.08.09.07.18.12.28.16.14.24.25.5.31.8ZM98.79,131.98s.05-.02.07-.03c.04,0,.08.02.11.02-.06,0-.12.02-.19.03,0,0,0-.01,0-.02ZM98.81,132.69c.25-.04.48-.04.66-.1,0,.02,0,.04,0,.06-.21.13-.42.2-.62.24-.01-.07-.03-.13-.03-.2ZM102.19,141.14c-.06-.34-.09-.67-.07-.98.27-.01.53,0,.75.11-.09.34-.38.61-.68.87ZM99.14,126.58s0,0,0,.01c-.15-.14-.26-.32-.33-.52.05,0,.11,0,.17.01.06.17.11.33.16.5ZM98.93,125.95c-.06,0-.11.01-.15.02-.02-.09-.04-.19-.04-.29.03,0,.07.01.1.02.03.08.06.17.09.25ZM102.65,133.88s.05-.01.08-.02c-.05.13-.13.28-.08.02ZM101,126.87s.01.04.01.06c0-.03-.01-.05-.02-.08,0,0,0,.01,0,.02ZM101.21,124.94c-.07-.04-.13-.09-.19-.16.04-.01.08-.03.13-.04.02.07.04.13.06.2ZM107.5,133.42c-.08,0-.16,0-.23-.02,0-.04,0-.08,0-.12.08,0,.17.01.28.04-.02.03-.03.06-.05.09ZM106.44,133.1c-.11-.32-.26-.63-.41-.92.24.2.62.05.92.13.1-.13.1-.21.05-.27.05,0,.1-.02.16-.03-.18.43-.4.82-.71,1.1ZM105.38,128.21s-.01,0-.02,0c-.14-.1-.22-.21-.3-.33,0-.04.02-.08.02-.12.11.14.21.29.3.44ZM105.03,127.71s-.04.02-.06.04c-.09-.13-.18-.26-.35-.33.01-.01.02-.03.04-.04.13.08.25.2.38.33ZM104.48,127.29s.09.04.13.06c-.03.01-.06.02-.09.03-.03,0-.06-.02-.1-.02.02-.02.03-.05.06-.07ZM103.75,125.87s.01.02.01.03c0,0-.01,0-.02,0,0-.01,0-.02,0-.04ZM103.46,125.96c.12-.02.1-.1.07-.18.06-.04.12-.02.17.02,0,.12.02.25.04.37-.04.04-.09.06-.17.04-.04-.08-.07-.17-.11-.25ZM106.1,131.82c-.03.09-.14.14-.15.24-.05-.08-.09-.16-.14-.23.1,0,.19,0,.28,0ZM105.35,131.91c-.08.17-.12.31-.33.1.11-.04.22-.08.33-.1Z"/><path d="M102.62,70.87l-1.17,3.47-3.55.9,2.94,2.19-.24,3.65,2.99-2.12,3.4,1.36-1.09-3.5,2.34-2.81-3.66-.04-1.95-3.1ZM99.99,75.01c-.19.15-.35.31-.47.51,0,0,0-.01,0-.02,0-.01,0-.03-.01-.04,0-.02-.01-.05-.02-.08,0-.01,0-.02,0-.04,0-.04-.01-.08-.02-.12.21-.24.38-.35.54-.4,0,.06,0,.12,0,.18ZM103.11,77.85s-.02,0-.03,0c-.05,0-.09,0-.14-.01-.01,0-.02,0-.03,0-.04,0-.08,0-.12,0,0,0-.01,0-.02,0-.04,0-.09,0-.13.01-.01,0-.02,0-.03,0-.02,0-.05,0-.07.01-.03-.09-.06-.2-.07-.32.24,0,.47,0,.71,0,.01.11.03.22.05.33-.03,0-.07-.01-.1-.01ZM104.12,77.92s0-.04,0-.06c0,0,.01,0,.02,0,0,.02-.01.04-.02.06ZM105.66,75.99c.16-.08.31-.16.45-.25l.03.26c-.16.01-.32.02-.49.04,0-.01,0-.03,0-.04ZM105.22,75.33s-.07-.09-.1-.13c.06.02.1.06.1.13Z"/><path d="M89.05,110.28c.07.1.13.2.23.29-.05.15-.28.14-.48.04.08-.11.16-.22.24-.33l-4.44-1.71-.09-.44c-.17-.06-.32-.14-.45-.24.14.06.29.13.44.19l-.25-1.17c-.14-.05-.29-.11-.43-.17-.03.04-.05.08-.07.12-.18-.12-.4-.2-.58-.16-.06-.07-.11-.15-.15-.24.07-.27.45-.58.58-.93,0-.01.01-.02.02-.04,0,0,.01,0,.01-.01.03.15.06.3.1.44.11.02.22.05.32.07l-.72-3.4c-.21-.22-.43-.4-.67-.41.1-.23.19-.47.3-.7.05.04.1.07.16.1l-.25-1.2-4.62,5.71s.04.03.06.05c-.08.1-.18.19-.29.24l-.4.5-1.42-.15c-.07.14-.16.29-.24.44-.24-.07-.46-.11-.68-.13-.06-.12-.11-.22-.13-.36,0-.02.01-.04.02-.06l-1.74-.19c-.02.14-.08.29-.18.45,1.29.4.2,1.59,1.83,1.88,0,.02-.02.05-.02.07-.51-.09-1-.05-1.43.19.53.11.98.38,1.4.7-.48.32-2.21.71-2-.13-1.01-.55.34-1.17.22-1.78-.18-.03-.36-.05-.51,0,.26-.56.2-1.01.08-1.44l-.64-.07c-.07.3-.09.68-.31,1.1-.02-.37.02-.76.12-1.12l-.98-.1c-.17.11-.39.06-.63-.06,0,0,0,0,0,0l-.32-.03c-.03.26,0,.51.11.76-.17-.11-.34-.22-.51-.33l1.56,2.4c.24.04.56.34.81.4-.04.08-.08.14-.13.18-.15-.09-.3-.17-.45-.25l2.44,3.76-2.6,5.83s.06-.07.08-.11c.34.14.63.28.79.33-.18.24-.46.16-.66.37.58.26-.64,1.04-.38.28-.08-.02-.15-.02-.22-.01l-.42.94,3.83-1.03c-.08-.01-.16-.03-.24-.06,0-.03,0-.06.01-.09.14-.05.31-.05.47.05,0,.01,0,.02-.01.03l4-1.07,1.78,1.6c-.02-.06-.03-.13-.04-.19.14-.02.28-.08.39-.2.26-.27.24-.43.12-.55.52-.3,1.33-.39,1.91-.1.06.21.08.43.05.62-.09.28-.31.4-.58.45-.11-.52-.84-1.33-1.16-.87.32.27.55.59.78.9-.48,0-1.03-.11-1.39,0l.76.68c.24-.05.42.03.6.14-.1.03-.2.08-.3.13l.63.57c.2,0,.37-.07.5-.29.06.01.13.03.2.03.06.22,0,.47-.15.75l2.11,1.9.04-.82c-.04-.09-.07-.17-.12-.25.03-.03.06-.05.1-.08-.14-.09-.06-.18.05-.2l.37-7,2.15-1.23c0-.21,0-.42.03-.62.18.11.36.2.54.3l4.52-2.6-3.35-1.29ZM74.4,109.22s0-.01,0-.02c.04.02.07.05.1.07-.03-.02-.07-.04-.1-.06ZM70.5,107.06s-.01,0-.02-.01c0,0,.01,0,.02,0,0,0,0,0,0,0ZM71.97,108c.12.06.23.12.35.18-.04.08-.08.17-.11.29-.1-.13-.18-.29-.24-.47ZM82.15,112.52c-.09.11-.17.21-.26.33-.02-.27-.06-.54-.14-.81.14.17.27.33.4.48ZM81.82,111.81c-.03.06-.05.12-.08.18-.02-.07-.05-.13-.07-.2.05,0,.1.01.15.02ZM81.59,109.74c-.07-.04-.15-.09-.22-.13.13-.25.26-.03.22.13ZM80.19,111.59c-.01.09-.02.17-.02.26-.11-.06-.22-.13-.32-.18.11-.04.23-.07.35-.08ZM81.41,106.44c.27-.02.54-.03.83,0-.03.06-.06.12-.09.18.24.1-.02.33,0,0-.33-.08-.45.18-.59.42-.14-.16-.24-.3-.26-.38.04-.09.08-.16.12-.23ZM78.05,114.31c-.1.23-.32-.02,0,0,0,0,0,0,0,0ZM81.27,103.25s-.04.03-.07.04c0,0-.01-.02-.02-.02.03-.01.06-.02.09-.02ZM79.63,107.23s0,.08,0,.11c-.05.07-.11.13-.16.18-.2-.2-.43-.36-.67-.49.27.05.57.16.84.2ZM79.31,105.52c.07.11.08.2.06.27-.12,0-.25-.03-.38-.09.14-.05.26-.1.32-.18ZM76.51,109.31s-.03-.1,0,0h0ZM73.67,115.06c-.1-.02-.2-.04-.29-.07-.03-.04-.06-.08-.09-.13.3-.22.6-.42.89-.65.16.2-.15.66-.52.85ZM78.37,106.45s-.01-.02-.02-.04c.01,0,.03,0,.04,0,0,.01-.02.02-.02.04ZM77.83,107.67c.04-.17.1-.29.17-.39.36.02.73.19,1.09.47-.36.14-.79.09-1.26-.08ZM78.07,108.3c0-.09,0-.17,0-.25.05.04.09.07.14.1,0,.02,0,.04,0,.06-.04.03-.09.06-.13.09ZM75.2,117.76c-.23-.1.02-.33,0,0,.24.1-.02.33,0,0ZM75.4,116.9c-.13-.1-.25-.19-.37-.27-.04-.18-.08-.36-.09-.55.37.26.72.54,1.04.83-.19-.03-.38-.04-.57-.02ZM76.67,115.75c-.49-.72-.95-1.56-1.02-1.88-.06-.32-.02-.56.09-.74.19-.13.38-.25.58-.37.62-.12,1.43.27,1.33.98-.38-.08-.76-.09-1.15-.01.47.24.86.53,1.15.86-.35.33-.67.72-.98,1.16ZM77.52,112.62c.12-.13.21-.27.28-.41-.02.18-.09.34-.22.46-.02-.02-.03-.04-.06-.05ZM78.71,112.04c-.1-.2-.18-.4-.25-.59.06-.22.11-.43.14-.64.07.4.11.81.11,1.24ZM78.93,111.49s0,.02,0,.03c0,0,0,0,0-.02,0,0,0,0,0,0-.03-.1-.01-.04,0,0ZM80.24,108.98c-.28-.15-.56-.3-.85-.44.32-.45,1.14-.1,1.25.27-.1.1-.25.16-.41.18ZM77.75,115.16c0-.19-.03-.37-.06-.53.08.1.14.2.2.3-.05.07-.1.15-.14.23ZM79.46,113.74c-.11.08-.22.16-.34.24-.18-.17-.32-.35-.4-.54.25.1.5.2.75.3ZM77.58,116.6c.09-.36.14-.7.16-1.02.08-.12.18-.22.3-.29.12.43.07.91-.2,1.46-.08-.05-.17-.1-.25-.15ZM78.47,116.65c-.04-.07-.07-.14-.09-.22.08.04.15.08.23.12-.05.05-.1.08-.14.09ZM79.79,115.81c-.14-.09-.3-.18-.46-.26-.02.05-.08.06-.09-.05-.2-.11-.4-.23-.56-.36.06,0,.13,0,.2,0-.06-.1-.11-.23-.14-.37.27.17.55.35.82.53.16.05.31.12.46.19-.07.11-.14.22-.21.32ZM79.34,114.8c.26,0,.49.14.7.34-.26-.03-.5-.14-.7-.34ZM80.34,114.96c-.31-.26-.73-.55-1.08-.85.16-.08.29-.17.41-.27.27.12.52.25.74.39.04.14.09.28.15.41-.07.11-.15.22-.22.32ZM80.36,115.75c.09-.15.18-.32.28-.52.15.14.26.31.3.47.04-.08.09-.16.13-.25.06-.06.11-.14.16-.2.06.22.06.46.01.74-.2.1-.41.19-.61.29.05-.1.11-.2.16-.3-.18-.06-.32-.14-.43-.23ZM79.81,117.92s-.02-.01-.03-.02c.09-.17.18-.33.26-.5.26.02.48-.11.78-.36-.26.4-.61.69-1,.88ZM83.94,111.57c-.41-.06-.62.46-1.13.1.29-.69.8-.71,1.13-1.28.4.27.39.67.32,1.09-.11,0-.21.04-.32.09ZM84.6,110.95c.11-.18.72-.37.77-.61.19.07.38.1.57.08-.19.43-.81.78-1.34.53ZM86.77,109.57s-.02-.02-.03-.04c.02,0,.03,0,.05,0,0,.01-.01.02-.02.04ZM87.04,109.96c-.53-.32.58-.69,0,0h0ZM83.16,120.6c0-.09,0-.17,0-.25.06.06.08.16,0,.25ZM87.53,113.13c.04.12-.06-.18,0,0h0ZM86.04,112.93c.21-.23.4-.43.54-.64.18.12.33.28.4.55-.26.21-.62.21-.94.09ZM85.8,114.68c-.01-.05-.02-.1-.03-.15.09-.07.19-.14.29-.2.03.04.07.09.11.14-.09.08-.21.15-.36.22ZM88.06,110.25c.12.09.2.14.25.18.03.02.05.03.06.04-.01,0-.03-.02-.06-.04-.19-.14-.68-.48-.25-.18ZM87.59,113.89c-.19-.3-.4-.57-.62-.82.03-.01.06-.03.08-.05.01.02.02.04.04.07.33.17.56.28.72.35-.06.17-.13.32-.22.44ZM90,111.79s-.03-.06-.04-.09c-.07.22-.19.28-.33.27-.2-.42-.38-.29-.67-.68.5-.58.47.21,1.22.39-.06.03-.11.06-.16.1ZM90.24,111.08c.09.07.18.16.27.27,0,.02-.02.03-.03.05-.19-.07-.24-.19-.24-.31Z"/><path d="M141.9,61.31c.11.7.15,1.12.25,1.53-.07.01-.12.03-.17.05-.15-.81-.4-.93-.29-1.5-3.34,1.23-6.54,2.98-9.49,4.83-1.48.93-2.95,1.91-4.34,2.96.41.23.8.48.97,1.02-.61.18-1.15.47-1.69.75-.06-.35-.12-.7-.18-1.05-2.41,1.95-4.54,4.19-6.07,6.96-.8,1.44-1.44,2.96-2.09,4.48-1.02,2.4-2.09,4.71-3.27,7.01-.32.62-.67,1.25-1.04,1.86.12.03.23.08.31.15-.03.23-.08.35-.15.41-.07-.04-.17-.06-.29-.03,0,.02,0,.04,0,.07-.06-.01-.14-.03-.21-.05-.82,1.24-1.77,2.38-2.91,3.23-.26-.62-.6-1.2-.97-1.83-.07-.11-.14-.23-.17-.36-.06-.22-.01-.46.02-.69.17-.96.19-1.99-.23-2.87-.31-.66-.99-1.32-1.75-1.4-.67-.07-1.31,1.18-1.55,1.69-.3.66-.49,1.37-.67,2.08-.56-.09-1.18-.03-1.74-.02-.33,0-.65.01-.98.02-.28,0-.56.08-.84.07-.37-.9-.74-1.81-1.31-2.61-.25-.36-.59-.73-1.06-.69-.56.05-.93.34-1.2.74.01.17.02.32.03.48-.12.07-.24.13-.35.2-.38,1.09-.41,2.15.01,3.22.03.07.05.14.05.21,0,.08-.04.14-.07.21-.35.68-.6,1.42-.72,2.18-3.2-.9-5.64-4.47-7.09-7.24-.8-1.53-1.5-3.17-2.04-4.81-.45-1.39-.71-2.81-1.36-4.16-.52-1.09-1.17-2.1-1.9-3.04-.22.18-.41.39-.53.63-.38-.35-.42-1.11-.5-1.85-1.47-1.6-3.2-3-5.04-4.21,0,.03,0,.07.01.1-.07-.02-.14-.03-.2-.03l-.02-.21c-.6-.39-1.21-.77-1.83-1.13l.2,1.72c-.21.01-.43.02-.64.03.07-.62.15-1.22.25-1.87-.68-.39-1.37-.77-2.06-1.12-.05,0-.09,0-.14.02.01-.02.03-.04.04-.06-.06-.03-.11-.06-.17-.09-2.17-1.11-4.42-2.13-6.75-2.88.02.03.04.07.05.1-.08-.02-.15-.03-.23-.04-.04.04-.1.05-.17-.01-.25,0-.46.09-.57.42-.03-.26-.06-.52-.08-.77-3.44-1-7.01-1.37-10.63-.59-1.45.31-2.83.87-4.07,1.68,1.12.2,2.31.52,3.48.96.04-.13.04-.28.03-.45.44-.12.86-.25,1.26-.4-.02.44-.39.62-.98.62.3.27.66.47.99.72-.04,0-.08,0-.12,0,3.43,1.59,6.32,4.31,6.03,8.23-.01.16-.03.34.07.47.04.05.1.09.16.13,2.58,1.69,4.83,3.86,6.61,6.37.05-.07.09-.15.08-.27.1.05.23.07.42.06,0-.02,0-.04,0-.06.14.22.08.54-.18.73.31.46.62.94.9,1.42.06.11.12.21.18.32-.49-1.61.73-.66,0,0,.9,1.6,1.56,3.32,2.04,5.09.43,1.62.84,3.23,1.15,4.87.08.43.22.58.64.68.82.19,1.64.38,2.46.58.1-.16.27-.27.6-.27-.04.06-.07.13-.09.21l-.5.06c1.37.33,2.73.69,4.06,1.16,2.62.93,5.11,2.18,7.47,3.62,1.36.83,2.67,1.74,3.92,2.73,1.71,1.35,3.24,2.92,4.58,4.65.2.25.39.51.48.82.13.43.05.89.05,1.34,0,1.96.77,2.98,2.45,3.86.46.24,4.85,3.11,4.7,3.3,1.17-1.49,2.47-2.53,3.97-3.63,1.17-.86,2.43-1.83,2.53-3.41.03-.41,0-.82.02-1.24,0-.21.02-.42.05-.62.43-2.81,3.29-5.56,5.57-7,2.3-1.46,4.87-2.59,7.51-3.38-.03-.05-.05-.1-.08-.16.27-.06.55-.07.83-.06.08-.02.16-.05.24-.07,1.3-.35,2.62-.59,3.95-.81,1.3-.22,2.62-.36,3.93-.52.23-.03.47-.02.61-.24.15-.24.13-.57.16-.84.07-.84.15-1.68.23-2.51.03-.25.06-.51.09-.76-.05,0-.1-.02-.15-.03-.06-.18-.12-.36-.18-.54.13.02.27.02.41.02.27-1.89.71-3.78,1.36-5.59,0-.1.02-.2.05-.29.02-.01.05-.03.07-.04.39-1.03.85-2.03,1.39-2.99,0,0,0,0,0,0,0,0,0,0,.01,0,.09-.15.17-.31.26-.46-.2-.03-.38-.06-.55-.12,0,0-.01,0-.02,0-.06-.15-.11-.27-.19-.3.22-.56.64-.71,1.1-.79.04.11.07.2.06.26.13-.1.26-.17.38-.23.44-.62.92-1.22,1.44-1.79.47-.5.97-.97,1.49-1.4,0-.02.02-.05.02-.07,0,.01,0,.03.01.04.26-.21.53-.42.8-.62.87-.62,1.83-1.08,2.71-1.7-.04-.08-.08-.16-.11-.25.01-.3.04-.59.06-.88.05.07.1.13.15.19,0-.25-.02-.49-.02-.74-.02,0-.05,0-.07-.01.02-.17.04-.34.06-.51,0-.94.02-1.87.13-2.79-.17.34-.42.61-.7.74-.03,0-.06,0-.09,0,0-.33-.01-.66,0-.99,0-.14.03-.28.05-.42.28-.03.55-.04.83-.04.15-.82.38-1.64.72-2.44.5-1.14,1.4-2.19,2.5-3.12-.16-.07-.32-.14-.47-.23,0,0,0-.01,0-.02l.92-.11c1.73-1.35,3.85-2.43,5.69-3.19-4.43-.97-8.86-.28-13.06,1.23ZM58.06,67.1s.02-.06.03-.1c.03-.06.06-.11.08-.17.08-.14.21-.24.4-.29.02.09.05.18.07.26-.11.16-.29.27-.58.3ZM59.14,64.55s-.02-.03-.02-.04c.02,0,.05.02.07.03-.01,0-.03,0-.04.01ZM62.88,72.01c-.13-.15-.26-.31-.32-.55.15.18.3.35.47.51-.05.01-.1.03-.15.04ZM76.71,71.23c0-.06,0-.12.01-.18.23-.17.49,0,.75.19,0,.18,0,.35,0,.52-.25-.16-.52-.39-.78-.44,0-.03.01-.06.01-.09ZM76.72,76.92c.28-.9.77.93,0,0h0ZM75.38,67.89s.02,0,.02,0c.01.02.02.05.03.07-.02-.01-.03-.02-.05-.03,0-.02,0-.03,0-.05ZM75.63,75.15c.17.16.24.44.24.82-.32-.11-.5-.39-.6-.77l.36-.04ZM71.65,67.5c.01.11.02.22,0,.32.08-.15.22-.23.38-.27.3.06.58.1.81.03.35.06.72.13,1.01.1.03.12.04.23.05.35-.18.15-.37.29-.57.42-.23-.03-.49-.02-.81.06-.02.16.01.27.07.33-.14.07-.29.13-.44.19-.1-.12-.2-.25-.3-.38.08-.16.17-.31.08-.6-.06-.16-.2-.21-.38-.22,0-.11.04-.22.1-.34ZM73.01,72.4c-.06-.31.36-.2,0,0,.08.19.25.27.55.2-.19.56-.78.81-1.52.94,0-.28.12-.66.41-1.2-.87.31-1.09.79-.95,1.28-.07,0-.13.02-.2.03-.3-.22-.54-.51-.77-.82.02-.45,0-.9-.05-1.33.07.13.17.25.35.38,1.15-.36,1.37.45,2.18.52ZM72.88,76.17s.04-.1.06-.15c.2.07.35.32-.15.31.02-.03.03-.07.05-.1.02.02.04.03.07.05-.01-.03-.02-.08-.03-.11ZM72.87,75.85c-.01.07-.03.13-.04.19-.32-.09-.63-.13-.93-.12.15-.42.32-.84.43-1.23.15.12.31.22.47.32-.07.07-.14.13-.21.2.24.2.47.36.72.47.06.08.13.13.23.16.13.23.27.46.4.69-.13-.08-.26-.15-.39-.22-.1-.28-.28-.5-.68-.47ZM71.28,74.03c-.1,0-.19,0-.24-.07.08.02.16.05.24.07ZM70.54,69.94c-.44.99-.9-.41-1.37-.36.36-.9,1.09.17,1.37.36ZM70.65,73.84l-.17.02s.04-.04.07-.06c.04.01.07.03.11.04ZM68.27,65.15c.02.06.03.13.05.19-.07-.04-.14-.07-.21-.1.05-.03.11-.06.16-.09ZM68.36,68.11c-.35,1.32-1.22,2.49-2.61,3.14-.24-1.04-.53-2.05-.87-3.03.87-.53,2.17-.47,3.48-.11ZM68.13,75.39c-.03.12-.04.27-.02.43-.28,0-.58-.09-.87-.27,0-.02,0-.04.01-.06.31-.02.6-.05.88-.1ZM67.67,73.67s.04,0,.07,0c-.01.02-.04.02-.07,0ZM64.3,64.23c.12-.02.24-.03.37-.05,0,.03-.01.06-.03.09-.15.03-.26,0-.37-.02,0,0,.02-.01.03-.02ZM63.81,64.48c.05-.48-.06.57-.09.82.01-.1.04-.35.09-.82ZM64.55,65.08c.09.02.17.05.26.07-.11.51-.4.77-.86.8-.09-.2-.19-.4-.29-.59.27-.09.57-.18.89-.28ZM64.3,70.49c-.05-.52-.1-1.04-.16-1.56.49.27.47.95.16,1.56ZM64.04,66.14c.61-.18,1.6-.27,2.53-.44-.07.36-.06.86.04,1.56-.32.07-1.41-.21-2.33-.57-.08-.19-.16-.37-.25-.55ZM65.8,72.33c0-.16,0-.31.23-.29.02-.11.07-.19.15-.24.09.06.17.1.25.1-.08.09-.2.14-.4.14,0,.16,0,.31-.23.29.07,1.16,1.3.85.77,2-.12-.61-2.09-1.49-.77-2ZM66.02,75.59c0-.32.33-.68.67-.23l.06.51c-.14.05-.26.06-.35.06l-.04-.34c-.1,0-.22,0-.33,0ZM67.77,77.29c-.21.04-.42.07-.63.11-.06,0-.12.01-.18.02-.26-.22-.56-.38-.9-.5.5-.33,1.73-.34,1.71.37ZM68.31,76.53c-.07.05-.13.1-.19.16-.21-.09-.42-.19-.66-.24.05-.39.52-.41.83-.22,0,.1.01.2.02.3ZM68.8,74.74c-.5.09-.33-.64-.43-1.04.19,0,.34.07.44.19-.02.27-.02.55,0,.85ZM68.67,71.99c-.59.15-.38-.71-.87-.68.2-.79.89.23.87.68ZM67.77,70.9c-.39-.92.82-.61.92-1.15.33.07.57.27.61.71-.27.33-.89.4-1.53.44ZM69.34,73.22s0,0,0-.01c0,0,0,0,0,0,0,0,0,0-.01,0ZM70.34,78.46c0-.09,0-.18,0-.27.19.14.41.25.65.29-.22,0-.44,0-.65-.02ZM69.79,74.73c.85-.28,1,.32,1.17.91-.42-.26-1.19-.08-1.17-.91ZM72.83,86.38s-.06,0-.09,0c-.1-.2-.21-.36-.33-.49.09-.02.17-.04.26-.06.77-.1.42.2.16.55ZM71.64,78c.11.12.19.26.25.44-.06,0-.12,0-.17,0-.02-.15-.05-.3-.08-.44ZM72.19,79.31c-.03-.27-.02-.51.02-.73.14.15.32.28.54.39-.09.05-.3.18-.56.33ZM72.68,81.02c-.06-.29-.02-.5.1-.65.06.21.13.43.21.65-.1-.01-.2-.02-.32,0ZM72.5,78.64c.03-.06.06-.12.09-.18.08-.02.13-.07.17-.13-.09-.08-.16-.18-.23-.29,0,0,0,0,0,.01-.23-.15-.7-.05-.67.23-.15-.22-.23-.47-.25-.72.04,0,.07,0,.11.01-.01-.07-.01-.12,0-.17.3-.17.53-.36.73-.57.08.07.14.16.19.26.02-.11.03-.22.03-.35.19.06.37.13.54.22.22.51.29,1.07.32,1.67-.14,0-.27-.01-.39-.05-.21.01-.42.04-.64.08ZM73.57,83.29c.06.31-.36.2,0,0,0-.03,0-.06,0-.08.04-.04.08-.07.12-.11.05.02.06.09-.12.19ZM75.15,86.2c-.25.04-.16.34-.2.55-.22-.02-.29-.23-.55-.19l-.03-.28c.44-.14.87-.26,1.3-.33.22.18.29.45.07.71-.29-.03-.24-.49-.58-.45ZM75.86,87.45c.18-1.05.42.98,0,0h0ZM75.45,79.79s-.03,0-.05,0c-.05-.1-.1-.2-.15-.29.06,0,.12,0,.19,0,0,.1.01.19.01.29ZM76.39,86.42s.02.09.03.14c-.14-.02-.12-.18-.03-.14ZM76.21,79.55c.8-.73-.53.94,0,0h0ZM75.25,77.66c-.02-.2-.03-.4-.04-.59.25-.34.58-.62.87-.93.13.12.25.27.35.43.02,0,.04,0,.06-.01.02.16.01.29-.01.41.01.35.03.7.05,1.04-.55.04-.84-.25-1.27-.36ZM78.57,94.7c-.04-.78,1.11.12,0,0h0ZM78.45,90.31c.13-.23.26-.44.32-.59.19.12.27.27.29.43-.2.07-.4.12-.61.16ZM77.18,73.53s-.07,0-.11-.01c.18-.23.32-.44.41-.65-.03.19-.09.33-.21.39-.05.02-.08.12-.09.27ZM77.84,77.94c.16.04.34.14.51.26-.14.09-.29.18-.45.27-.04-.16-.06-.33-.06-.53ZM78.64,80.61s-.04-.04-.06-.07c.02-.02.03-.05.04-.07l.02.14ZM78.51,79.51c-.14-.19-.32-.39-.46-.66.13,0,.26,0,.38,0l.08.66ZM79.65,74.39c-.04.4-.11.78-.22,1.13-.15-.23-.28-.59-.4-1.03.21-.03.42-.06.62-.1ZM80.1,83.4c.09.03.18.07.27.12-.04.12-.12.21-.29.22.01-.11.02-.22.03-.34ZM78.04,70.47c.09-.11.22-.17.38-.19-.09.14-.18.29-.26.43-.04-.09-.08-.18-.12-.24ZM80.72,90.44c.05-.55.1-1.11.02-1.77.45.13,1.06-.65.45-.58.16-.82.73.21,1.07.13-.27.93-.76,1.68-1.55,2.21ZM81.14,82.77c-.2-.04-.38-.09-.54-.15-.04-.25-.17-.47-.34-.66.02,0,.04-.01.06-.02.25.1.5.2.75.31.02.17.04.35.07.52ZM81.49,79.37c-.1-.14-.2-.27-.3-.4-.12.39-.18.94-.2,1.55-.25.06-.55.15-.9.19,0,0,0-.01,0-.02.32-.53.93-.93,1.08-1.73.33.05.37.21.33.41ZM80.4,76.97l-.15-1.29c.39,0,.64.18.83.44.1.2.21.41.32.62.01.03.03.07.04.1l-1.04.12ZM80.93,74.51c.04-.08.07-.16.09-.23.09-.14.23-.25.39-.29.06.14.11.28.17.42-.08.07-.19.11-.26.19-.01-.02-.03-.05-.04-.07,0,.03.01.07.02.11-.04.05-.07.11-.06.19-.24-.01-.32-.15-.3-.31ZM82.35,80.14c-.04.14-.13.25-.23.34-.06-.13-.12-.25-.18-.37.1.03.22.04.42.01,0,0,0,.01,0,.02ZM86.49,77.99s0,0,0,0c-.01.04-.02.09-.03.13,0-.04.02-.08.03-.13ZM86.4,78.33c-.15.52-.33,1.01-.65,1.4h0c.23-.46.5-.93.65-1.4ZM84.47,82c-.04-.78,1.11.12,0,0h0ZM86.65,93.84s-.07-.05-.11-.07c.07,0,.14.02.21.03-.04.01-.07.03-.1.05ZM87.2,88.17c-.42.1-1.08-.21-1.72-.6-.05-.35-.11-.7-.16-1.06.16-.05.3-.13.41-.22.25.06.47.15.68.25.26.54.39,1.23.82,1.56-.01.02-.02.04-.03.07ZM86.49,85.67c.14-1.04,1.86-.58,2.35-.28-.24,1.16-1.54.19-2.35.28ZM92.48,100.84c-.16.02-.32.04-.47.05.11-.13.23-.24.37-.33.03,0,.06.02.09.02.02.09.02.18.01.26ZM92.9,92.16c-.27-.07-.41-.29-.43-.68.15-.03.28-.03.4-.02,0,.23.02.47.03.7ZM95.6,95.71c-.03-.28-.07-.56-.1-.84.47.13.98.12,1.47.11-.35.33-.8.58-1.37.73ZM100.62,111.35c-.07.03-.13.04-.19.05-.42-.1-.88-.16-1.39-.17.12-.9.81-1.36,1.93-1.49.39.93-.56.81-.34,1.6ZM99.59,88.19c-.11-.06-.22-.14-.39-.12.03-.29.5-.24.46-.58.24,0,.27.27.31.53-.13.06-.26.11-.39.17ZM101.45,96.87s.08,0,.12,0c.02.1.05.21.08.31-.08.01-.18.02-.33,0,0-.19.05-.28.13-.31ZM102.31,103.32l-.4.05c0-.18-.03-.37-.06-.57.3-.03.64.13.45.52ZM104.31,103.23s-.02-.02-.03-.04c.01-.03.02-.07.04-.1,0,.05,0,.09-.01.14ZM110.45,107.01s-.01.02-.02.03c0-.04-.01-.08-.02-.12.01.03.03.06.04.1ZM109.55,106.38c.06.09.13.19.19.28-.1-.11-.22-.23-.34-.35.05.02.1.05.15.07ZM106.69,90.55c0,.1.01.21.02.32-.02,0-.04,0-.05,0-.07-.05-.15-.1-.23-.14.03-.17.15-.2.26-.18ZM104.36,92.84s.02-.03.03-.04c.13-.04.25-.09.38-.13.19.02.43.1.71.08,0-.11-.02-.22-.04-.31.23-.08.45-.16.66-.24,0,0,0,0,0,0,0,.13-.04.38-.09.68-.15.17-.26.34-.28.55-.42-.24-.99-.29-1.37-.58ZM107.32,106.25c.12-.24.24-.49.36-.74.28.1.55.22.81.35-.15.07-.25.27-.28.68.25.08.56.23.9.4-.38.03-.8.05-1.24.06-.19-.24-.37-.49-.55-.75ZM108.49,107.79c.31-.24.56-.5.75-.79.28.14.57.29.84.41-.34.35-.71.67-1.14.95-.15-.19-.3-.39-.45-.58ZM111.27,109.38c-.36.11-.7.29-1.03.56-.12-.87.35-1.28,1-1.55-.09.29-.07.64.03.99ZM111.11,104.71c-.07-.15-.15-.31-.2-.49.09.03.18.05.28.07,0,0,0,0,0,0,.13.24.26.44.43.56.02.05.04.1.06.15-.15-.13-.34-.23-.56-.29ZM110.62,96.04c-.13.12-.43.11-.71.11.21-.09.47-.16.74-.22,0,.04-.02.07-.03.11ZM112.33,104.87s.08-.03.13-.06c-.04-.02-.07-.05-.11-.07.02-.08.07-.17.15-.28.86.54-.13.84-.16.42ZM113.1,104.28c-.12-.48-.02-.8.13-1.08.27.02.53.06.77.07-.06.51-.4,1.03-.9,1.01ZM117.69,94.7c-.1.01-.19.02-.29.03.02.01.04.02.06.04-.1.02-.2.02-.3,0-.28-.7.56-.53.85-.79.01.16.03.32.07.47-.11.1-.24.19-.39.25ZM118.25,85.8c-.12.03-.24.06-.34.11-.03-.02-.06-.03-.09-.05,0-.02,0-.04.01-.06.08-.03.16-.05.24-.08.06,0,.13,0,.19,0,0,.03-.01.06-.02.09ZM119.86,90.25c-.02-.06-.03-.13-.05-.19-.31.06-.2-.35,0,0,.17,0,.31.05.41.15l-.36.04ZM124.4,83.41c-.33,0-.6.07-.81.17-.01-.11-.02-.23,0-.37.37-.07.53.13.83.15,0,.02,0,.03,0,.05ZM124.47,82.81c-.23-.34-.59-.52-.55-1.2.16-.05.3-.07.43-.09.07.13.13.27.18.41-.01.3-.04.59-.06.88ZM124.85,76.24c-.23-.21-.52-.39-.85-.54.3,0,.62.07.9.22-.02.11-.03.22-.05.32ZM127.65,94.13c-.02-.14-.05-.28-.08-.41.07-.01.12-.03.17-.05.11.58.27.81.31,1.1-.12-.18-.25-.4-.4-.64ZM129.19,76.59s.06.04.09.06c-.04,0-.07.01-.11.01,0-.02.02-.05.03-.07ZM127.93,73.04c-.53,1.08-.48-.81,0,0h0ZM128.03,73.94s0,0,0,0c-.01-.01-.02-.01-.02-.02,0,0,.02.01.03.02.03.02.05.03.05.04,0,0-.03-.02-.05-.04ZM129.3,78.66c-.24-.11-.46-.39-.38-.68.35.05.46.4.84.42-.01.23-.14.32-.3.3-.06-.02-.11-.03-.16-.05ZM131.48,94.01c.06.31-.36.2,0,0-.06-.31.36-.2,0,0ZM132.19,94.42s-.1-.01-.15-.02c.02-.11.08-.21.16-.26,0,.1-.01.19-.01.28ZM130.28,72.89s.02,0,.03,0c.19.09.35.19.5.3.03.13.06.27.08.41-.33-.07-.57-.27-.61-.71ZM131.16,74.76c-.09-.16-.1-.33.08-.55.23,0,.4.04.54.13-.21.14-.42.27-.62.41ZM132.26,72.13c-.07.13-.18.22-.16.42l-.52.06c-.18-.51.27-.53.67-.6,0,.04,0,.08.01.12ZM132.18,71.22c-.98-.15-.27-1.14-.02-.27,0,.09.02.18.02.27ZM133.55,73.31s-.02,0-.03-.01c0-.01,0-.03,0-.04.03-.33.12-.64.26-.93.07-.02.15-.06.24-.1-.06.5-.23.84-.46,1.09ZM135.36,82.84c-.11-.05-.2-.08-.28-.08v-.12c.08,0,.18-.02.27-.02,0,.07.01.15.02.22ZM136.81,71.66c.12-.2.24-.39.35-.57.08.44.16.9.24,1.36-.17,0-.33,0-.5,0-.03-.26-.06-.52-.09-.79ZM137.29,73.78c-.08-.07-.17-.14-.27-.2-.02-.2-.04-.39-.06-.59.18.05.36.09.54.12.03.2.06.4.09.61-.1.02-.2.04-.3.06ZM140.86,67.17c-.12-.09.19.15,0,0h0ZM140.99,68.2c-.12-.09.19.15,0,0h0ZM138.1,73.54c-.06.04-.13.06-.2.09.05-.13.1-.27.14-.41.17.03.33.06.5.08,0,.05,0,.1,0,.16.11-.06.25-.09.41-.11.03,0,.07,0,.1,0-.05.18-.11.37-.17.59-.27.18-.52.32-.76.42-.19-.26-.2-.54-.01-.84ZM139.35,76.14c-.2.24-.48.44-.77.46-.31-.87.35-.98.55-1.45.09.29.17.58.27.86-.02.04-.03.08-.05.12ZM139.35,72.37s-.06.02-.09.03c-.37.02-.74.04-1.1.05.03-.58-.03-1.21-.13-1.84.35.07.68.19,1.01.38.04.14.13.14.25.08.2.54.19.84.06,1.32ZM139.74,66.53h0s0,0,0,0c.04.03.08.06,0,0,0,0,0,0,0,0ZM138.89,63.58s-.01-.01-.02-.02c.08-.22.34-.31.59-.39-.02.49-.21.46-.58.41ZM140.16,63.77c-.1.05-.23.09-.36.12.02-.29.03-.59.01-.88.11-.07.19-.15.22-.28.06-.03.11-.06.16-.09.08.07.12.19.15.33-.15.22-.22.49-.19.8ZM142.27,72.13c-.28.03-.56.06-.84.08-.07-.06-.13-.12-.19-.19,1.56-.9-1.62-2.52,1.38-2.17-.41.78-.78.99-.38,1.73-.24.12-.11.35.11.48-.03.02-.06.04-.08.06ZM143.01,71.52c-.17-.01-.31-.02-.42-.01.1-.1.17-.21.19-.37.14.15.21.27.25.37,0,0,0,0-.01.01ZM143.06,65.6c.1.03.18.07.25.11.03.22.08.45.11.67-.13-.04-.29-.25-.36-.78ZM143.15,62.75c-.02-.11-.03-.23-.04-.34.04.03.09.06.14.07.03.13-.01.22-.1.27ZM145.02,68.43c.06-.14.12-.29.18-.43.03.07.06.14.09.21-.06.11-.15.18-.28.22ZM146.43,61.89c.19.18.35.37.43.6-.28-.16-.4-.37-.43-.6Z"/><path d="M127.19,69.7s-.04.03-.06.05c.03,0,.06.02.09.03-.01-.02-.02-.05-.03-.08Z"/><path d="M138.05,81.1c.04.09.09.17.15.25.05-.09.11-.17.16-.26-.1,0-.2.01-.31,0Z"/></svg>