<?xml version="1.0" encoding="UTF-8"?><svg id="Layer_1" xmlns="http://www.w3.org/2000/svg" viewBox="0 0 207.21 203.87"><path d="M118.8,141.12h4.34c.06,1.54.06,3.07.09,4.65,4,.54,6.12,2.92,6.75,6.89-17.58.11-35.12.13-52.75.01.29-1.83.84-3.42,2.06-4.74,1.24-1.33,2.79-1.99,4.67-2.11.14-1.56.03-3.09.12-4.71.72-.06,1.43-.02,2.14-.03.72,0,1.43,0,2.22,0,.13-.8.06-1.57.1-2.32.04-.74.06-1.48.1-2.26.5-.12.58-.47.61-.92.33-4.93.67-9.87,1.01-14.8.25-3.59.52-7.18.77-10.78.23-3.38.44-6.76.66-10.13.15-2.16.31-4.31.47-6.46.21-2.85.42-5.7.61-8.55.02-.26-.08-.59-.24-.79-.93-1.16-1.88-2.31-2.87-3.42-.28-.31-.43-.61-.43-1.02.01-.57,0-1.14,0-1.77.46-.04.88-.07,1.34-.1v-5.51c-.35-.06-.7-.12-1.07-.18v-.85c2.09-.03,4.17.02,6.23,0,.23-.57.29-7.1.08-8.07-.29-.05-.59-.1-.91-.16v-1.81c.67-.03,1.09-.4,1.52-.8,1.65-1.58,3.53-2.79,5.65-3.66.09-.04.16-.09.28-.15-.08-.19-.18-.35-.23-.53-.12-.51-.29-1.02-.31-1.54-.02-.86.22-1.64,1.25-1.91v-1.42c.36-.02.65-.03.99-.05v1.33c.05.07.07.13.11.14.91.27,1.19.95,1.22,1.82.02.75-.01,1.49-.55,2.14.26.13.42.22.59.29,2.12.94,4.09,2.13,5.68,3.85.31.34.67.43,1.12.4.21.55.11,1.1.12,1.64,0,.22-.12.35-.35.37-.19.02-.38.04-.67.06-.04,2.67-.02,5.32-.01,8.07h6.37q.14.9-.95,1c-.18.49-.23,4.12-.07,5.5.42.04.86.07,1.38.12,0,.73.02,1.45-.01,2.16,0,.17-.15.35-.26.48-.97,1.13-1.94,2.26-2.92,3.37-.29.33-.38.67-.35,1.12.37,5.17.72,10.35,1.07,15.52.27,4.05.51,8.1.79,12.15.24,3.45.51,6.9.76,10.34.18,2.59.34,5.17.52,7.76.11,1.63.22,3.26.34,4.89.03.34-.03.72.45.88.1.03.14.38.15.59.07,1.13.12,2.25.18,3.38,0,.19.04.37.07.63ZM116.28,124.44c-.65-.15-24.64-.17-25.38-.01-.28,3.95-.56,7.91-.84,11.96.45.02.82.06,1.2.06,6.44,0,12.87,0,19.31,0,1.92,0,3.84-.01,5.76-.03.25,0,.5-.05.81-.08-.29-4.03-.58-7.97-.87-11.9ZM114.43,97.52h-21.73c-.28,4.25-.56,8.48-.83,12.69.15.05.22.09.29.09.14.02.29.03.43.03,7.42,0,14.84,0,22.26,0,.09,0,.19-.03.28-.05.02,0,.04-.02.06-.04.02-.01.03-.03.11-.13-.28-4.12-.57-8.3-.87-12.61ZM100.4,63.21c-.18.71-.19,7.47,0,8.06h2.73c.15-.87.11-7.54-.04-8.06h-2.68ZM104.06,63.2v7.96c.73.17,2.33.13,2.85-.04v-7.92h-2.85ZM96.87,63.2c-.18.66-.21,7.45-.05,8.04.82.15,2.13.11,2.6-.07.13-1.35.08-7.44-.07-7.97h-2.47ZM107.82,71.15c.76.15,2.11.12,2.62-.04v-7.89h-2.62v7.93ZM101.66,93.23h3.81c.03-.13.06-.22.06-.31,0-1.25,0-2.49,0-3.74,0-.41-.15-.76-.44-1.02-.65-.59-1.4-.81-2.26-.53-.62.21-1.25.79-1.22,1.67.04,1.12,0,2.25,0,3.38,0,.16.03.32.05.55ZM92.76,77.72c.16-1.59.09-4.98-.1-5.5h-1.22c-.06,1.84-.04,3.64-.05,5.5h1.38ZM115.72,77.69v-5.45h-1.34v5.45h1.34ZM112.36,72.21v5.48h1.19v-5.48h-1.19ZM94.78,77.71c-.05-1.87.07-3.68-.04-5.49h-1.13v5.49h1.17Z"/></svg>