<?xml version="1.0" encoding="UTF-8"?><svg id="Layer_1" xmlns="http://www.w3.org/2000/svg" viewBox="0 0 207.21 203.87"><path d="M146.53,113.76c.24-.98.39-1.99.35-3.01-.01-.72-.05-1.45-.25-2.15-.2-.66-.34-1.35-.6-1.99-.51-1.01-.94-1.93-1.64-2.87-.62-.69-1.21-1.41-1.86-2.07-.67-.6-1.45-1.03-2.19-1.53.71-.68,1.3-1.49,1.93-2.24.24-.36.64-.72.57-1.2-.05-.29-.27-.49-.55-.56-.26-.07-.54.04-.79.11-1.46.34-2.81,1.03-4.14,1.71-.13.07-.26.14-.39.21-.46-.17-.94-.31-1.42-.39-.25-.04-.51-.08-.76-.08.49-2.3.76-4.64.71-6.99-.06-1.21-.24-2.4-.53-3.57-.25-1.13-.73-2.21-1.51-3.08-.7-.89-1.71-1.37-2.46-2.24,1.21-.75,2.31-1.64,3.48-2.44.02.06.05.13.09.18.45.58,1.07.98,1.62,1.46,1.32,1.05,2.94,1.65,4.49,2.3,2.09,1.02,3.81.86,6.02.45,1.99-.32,3.86-1.09,5.67-1.96,1.25-.44,1.24-1.29.14-1.91-1.14-.56-2.36-.94-3.56-1.35-1.44-.44-2.85-.98-4.34-1.25-1-.12-2-.19-3.01-.22-1.18-.01-2.35.17-3.51.41.1-.05.2-.1.31-.15.99-.48,1.92-1.05,2.94-1.48.92-.5,1.85-.93,2.84-1.29.54-.23,1.14-.39,1.62-.74.16-.12.23-.3.34-.46.37-.07.26-1.09.24-1.39-.03-.39-.1-.95-.59-.97-1.29.17-2.59.42-3.84.78-1.08.33-2.12.78-3.15,1.23-1.69.63-3.4,1.25-5.08,1.93.04-.29.07-.58.05-.88-.02-.65-.14-1.27-.34-1.9-.26-.82-.56-1.63-1-2.37-.44-.76-1.04-1.42-1.64-2.06-.74-.76-1.43-1.58-2.21-2.3-.75-.69-1.61-1.24-2.38-1.91-.42-.35-.76-.91-1.35-.96-.38-.02-.71.31-.73.68.01.27.07.55.09.82.06.44.13.87.23,1.3.19.85.66,1.6,1.04,2.37.27.6.45,1.24.7,1.85.36.98.89,1.88,1.61,2.64.33.37.75.65,1.13.98.32.35.68.66,1.08.91.56.44,1.06.96,1.73,1.25.15.06.31.14.49.21-.4.18-.8.35-1.2.53-1.34.72-2.67,1.46-3.97,2.25-1.71-1.26-3.55-2.34-5.59-2.96-.91-.47-1.84-.88-2.8-1.25-.93-.41-1.89-.77-2.88-1.04-.62-.17-1.25-.28-1.87-.45-.37-.11-.74-.23-1.12-.29-.99-.1-1.97-.34-2.96-.42-.11,0-.21,0-.32-.01-.06-.5-.22-.99-.41-1.46-.17-.45-.27-.93-.45-1.38-.29-.67-.67-1.28-1.02-1.92-.35-.62-.68-1.23-1.02-1.81.07-.31.13-.62.17-.93.06-.43.23-.85.17-1.29-.05-.24-.08-.48-.11-.72-.08-.27-.44-.35-.63-.14-.28.43-.58.85-.89,1.27-.39-.44-.83-.84-1.35-1.21-1.67-1.26-3.68-2.03-5.76-2.26-.96-.14-1.91-.38-2.88-.3-1.37.13-2.75.37-4.01.95-2.91,1.16-5.45,3.15-7.09,5.83-3.49,5.15-3.27,9.86,1.08,14.39.52.57.99,1.19,1.57,1.72.38.34.79.65,1.16,1,.55.53,1.08,1.09,1.73,1.51.44.28.89.53,1.35.78.94.57,1.99.85,3.09.9.76.08,1.53.09,2.3.04.74,0,1.46-.11,2.18-.22.84-.05,1.65-.31,2.42-.62,1.48-.6,3.04-1.44,4.32-2.43,1.31-.85,2.37-2,3.13-3.36.26-.45.62-.91.86-1.43.19-.49.32-1,.47-1.5.14-.55.34-1.13.27-1.7.1.03.2.06.3.09,1,.32,2.07.49,3.07.85.68.19,1.29.57,1.95.83,1.22.4,2.48.67,3.72,1.02.84.26,1.66.57,2.5.84-1.79.86-3.51,1.85-5.23,2.85-1.12.65-2.32,1.14-3.41,1.83-1.44.97-2.9,1.91-4.29,2.95-1.31,1.01-2.65,1.92-4,2.9-1.14.94-2.21,1.94-3.33,2.91,0-.03-.01-.05-.02-.07-.35-.88-1.08-1.43-1.83-1.99-1.39-1.1-2.76-1.58-4.52-1.72-1.34-.17-2.69-.12-4.02.12-.85.14-1.72.16-2.58.26-.82.12-1.65.28-2.47.39-.6.17-.61.88-.16,1.24.84.76,1.87,1.28,2.85,1.82,1.18.57,2.43,1.06,3.73,1.27.87.09,1.75.22,2.63.19.54-.02,1.07-.12,1.61-.09.64.05,1.29.03,1.93.14.37.05.75.05,1.12,0-.31.29-.63.58-.95.86-.59.49-1.24.91-1.77,1.46-.31.35-.63.68-.95,1.01-1.11-.57-2.31-.94-3.46-1.41-1.05-.33-2.11-.65-3.17-.96-1.64-.33-3.25-.95-4.96-.89-1.18.02-2.36,0-3.54-.03-.05-.19-.16-.36-.26-.54-.24-.4-.46-.81-.71-1.2-1.09-1.63-2.52-2.99-3.85-4.42-2.55-2.23-7.85-4.03-11.22-3.8-3.17.4-7.23,2.4-8.94,5.17-.79,1.27-1.28,2.69-1.54,4.16-.33,1.46-.68,2.97-.26,4.46.67,2.92,2.23,5.6,4.3,7.75,1.05,1.01,2.27,1.84,3.45,2.69.79.56,1.59,1.11,2.47,1.52.89.5,1.89.68,2.89.8.99.14,1.99-.01,2.98-.09,2.33-.25,4.67-1.02,6.63-2.33,1.21-.81,2.13-1.96,2.84-3.22.41-.6.72-1.25.99-1.92.46-1.06.89-2.13,1.15-3.26.09-.51.23-1.07.2-1.6.23.03.47.06.7.09,1.52.31,3.05.54,4.57.82.56.09,1.12.07,1.68.14.39.07.77.12,1.16.17.89.17,1.74.54,2.63.73-1.27,1.07-2.42,2.22-3.64,3.35-1.29,1.07-2.59,2.14-3.86,3.24-1.81,1.78-3.58,3.6-5.28,5.47-1.36,1.61-2.64,3.29-3.93,4.96-.65.94-1.43,1.78-2.15,2.67-.02.02-.03.04-.05.06-.36-1.17-1.64-1.9-2.54-2.64-2.14-1.36-4.55-2.46-7.12-2.55-.75-.08-1.49-.28-2.25-.28-.77-.02-1.52.26-2.28.11-.48.03-.74.67-.4,1.02.87.55,1.81,1,2.59,1.7.91.76,2.01,1.24,2.98,1.91.95.69,1.74,1.63,2.87,2.04l-.06-.02c1.34.56,2.85.92,4.3.63.14-.04.32-.09.51-.14-.33.41-.66.82-.97,1.24-.59.85-1.16,1.72-1.81,2.54-.96,1.33-2.02,2.64-2.57,4.21-.35.87.68,1.34,1.29,1.69.78.49,1.01-.24,1.32-.78.44-.72.96-1.38,1.47-2.05,1.37-1.88,2.95-3.6,4.57-5.28-.08.23-.12.47-.17.7-.16.88-.36,1.76-.47,2.65-.14.95-.02,1.91.12,2.85.11.93.45,1.81.84,2.66.36.82.86,1.57,1.34,2.32.58,1.06,1.21,2.09,1.9,3.08.26.45.79.71,1.03.1.19-.28.19-.64.25-.96.06-.41.11-.82.13-1.24.04-1.74-.06-3.51-.46-5.21-.47-1.8-.8-3.63-1.38-5.4-.32-.94-.65-1.87-1.06-2.78-.1-.18-.14-.45-.32-.58,0,0,0,0,0,0,1.47-1.64,3.19-3.02,4.84-4.48.93-.79,1.91-1.52,2.77-2.38,1.09-1.12,2.18-2.23,3.42-3.19,1.71-1.51,3.24-3.21,5-4.66.43-.36.89-.71,1.26-1.14.28-.35.56-.7.89-1.01.48-.45,1.09-.95,1.69-1.35.19.41.39.81.65,1.18.39.53.87,1.02,1.01,1.68.15,1.18.61,2.27.97,3.39.18.69.21,1.41.32,2.12.16,1.27.45,2.53.52,3.81,0,.03,0,.06,0,.1-.84-.54-1.82-.79-2.81-.95-.16-.19-.32-.38-.49-.55-.4-.42-.89-.73-1.25-1.18-.12-.16-.12-.39-.31-.5-1.1-.47-1.02,1.03-.8,2.08-2.92.2-5.76,1.47-7.91,3.45-1.13,1.1-2.06,2.41-2.85,3.77-.53,1-.96,2.06-1.3,3.14-.29,1.1-.32,2.25-.39,3.39-.09,1.77.1,3.56,1.09,5.07.8,1.43,1.72,2.77,2.6,4.15.46.73.94,1.48,1.61,2.05.65.57,1.4.99,2.13,1.43.8.5,1.63.97,2.52,1.29,2.14.82,4.37,1.48,6.66,1.62.82.04,1.64-.04,2.46-.03.8.02,1.6.03,2.39-.17,1.11-.33,2.23-.68,3.23-1.28,1.5-.85,2.64-2.18,3.69-3.52.66-.89,1.36-1.76,1.85-2.76.45-1.02.86-2.07,1.17-3.14.15-.56.22-1.13.27-1.71.12-1.1.25-2.2.21-3.31,0-1.17-.44-2.27-.95-3.31-.42-1.03-.95-2.02-1.58-2.93-.26-.35-.57-.67-.88-.99.19-.14.37-.28.56-.42.2-.13.39-.29.44-.53.1-.44-.27-.83-.7-.84-.4-.06-.88-.17-1.3-.24-.44-.07-.88-.02-1.32.06-.6-.39-1.21-.76-1.83-1.11.48-1,.87-2.05,1.33-3.09.14-.33.15-.78-.21-.97-.57-.26-1.01.4-1.42.7-.41.36-.81.72-1.22,1.08-.39.32-.71.7-.98,1.11-.19-.07-.35-.17-.55-.21,0-.51-.03-1.01-.08-1.51-.17-1.51-.16-3.03-.33-4.54-.08-.81-.27-1.6-.47-2.39-.09-.35-.18-.82-.31-1.18-.15-.41-.37-.79-.53-1.2-.35-.88-.58-1.8-.96-2.67-.22-.44-.55-.81-.9-1.16,1.24-1.28,2.3-2.73,3.59-3.97.55-.48,1.2-1.04,1.74-1.57.22-.19.45-.38.68-.57,0,.02.01.03.02.05.2.35.37.72.63,1.03.26.35.54.69.91.93.56.43,1.11.88,1.77,1.14.57.24,1.14.34,1.75.47,1.35.28,2.72.46,4.1.48,1.6.15,3.22-.04,4.7-.66.48-.21,1.01-.37,1.41-.73.21-.25.11-.63-.16-.79-.19-.11-.42-.13-.64-.19-.78-.18-1.53-.44-2.26-.77-1.98-.96-3.95-2.12-6.2-2.29-1.62-.16-3.22.19-4.83.39,1.53-1.16,3.15-2.25,4.77-3.27,2.08-1.37,4.11-2.84,6.29-4.04,1.86-.97,3.78-1.81,5.76-2.47,1.23-.39,2.48-.77,3.77-.91.15.23.41.36.6.57.22.24.43.51.64.76.57.64,1.12,1.35,1.39,2.18.17,1.26.48,2.49.67,3.75.12,1.76.22,3.52,0,5.28-.02.19-.04.38-.06.57-.61-.38-1.32-.64-2.04-.67-.04,0-.08,0-.12,0-.41-.37-.82-.75-1.09-1.24-.15-.24-.21-.51-.32-.76-.2-.32-.68-.33-.9-.02-.12.17-.11.37-.13.56-.1.56-.18,1.13-.12,1.7,0,.05.01.1.02.15-.42.13-.82.29-1.22.47-.93.52-1.77,1.19-2.63,1.81-1.06.87-2.12,1.78-2.9,2.92-.55.87-1.22,1.68-1.64,2.63-.42.97-.82,1.96-1.11,2.97-.19.7-.18,1.44-.2,2.16-.02.89.02,1.79.2,2.66.15.68.24,1.37.41,2.05.6,2,1.76,3.82,3.16,5.36,1.43,1.68,3.36,2.81,5.38,3.64,1.24.47,2.43,1.04,3.66,1.52,1.31.47,2.75.55,4.13.49,1.36-.16,2.74-.43,3.98-1.02,1.24-.63,2.21-1.64,3.25-2.55,1.06-.84,1.93-1.87,2.72-2.96.58-.8,1.22-1.57,1.7-2.44.46-.88.73-1.84.95-2.8ZM77.47,123c.71,1.97,1.16,4.03,1.53,6.09.6,2.58,1.01,5.24.73,7.89-.1-.17-.2-.33-.31-.49-.43-.64-.82-1.32-1.2-1.99-.69-1.12-1.4-2.23-1.77-3.51-.41-1.63-.46-3.37.01-5,.17-.66.29-1.34.52-1.98.15-.34.32-.67.47-1.02ZM115.92,96.25c1.29.67,2.52,1.49,3.91,1.95-1.33.51-2.77.65-4.19.52-1.73-.05-3.46-.32-5.12-.84-.55-.2-1.03-.54-1.46-.93-.24-.22-.56-.36-.75-.64-.22-.32-.47-.79-.67-1.16,3.38-.36,5.12-.56,8.28,1.09ZM135.05,99.45c-.29.22-.58.45-.86.69.01-.05.03-.1.04-.15.07-.25.14-.5.2-.75.2.08.41.15.62.21ZM140.64,78.08c1.32,0,2.63.22,3.92.47,2.3.72,4.56,1.57,6.82,2.4-2.5,1.28-5.34,2.11-8.17,1.99-1.26-.15-2.5-.69-3.68-1.16-.92-.43-1.85-.87-2.62-1.54-.49-.46-1.04-.87-1.4-1.45,1.69-.35,3.4-.62,5.12-.7ZM131.87,74.04c-.34-.24-.62-.56-.96-.81-.43-.28-.76-.67-1.11-1.04-.63-.54-1.25-1.09-1.69-1.81-.51-.85-.8-1.82-1.21-2.72-.41-.93-1.1-1.74-1.31-2.75.73.58,1.52,1.09,2.21,1.72.56.54,1.09,1.11,1.64,1.66.65.66,1.36,1.28,1.91,2.03.89,1.27,1.5,2.78,1.67,4.33-.05-.04-.1-.07-.16-.1-.35-.14-.7-.29-1.01-.5ZM104.84,69.6c.47-.97,1.05-1.89,1.39-2.92.5.82.99,1.64,1.49,2.46.29.51.43,1.05.68,1.59.18.39.39.77.5,1.19,0,0,0,.02,0,.02-.27-.01-.54-.03-.81-.06-1.2-.23-2.42-.15-3.63-.26-.31-.02-.63-.01-.94,0,.55-.59.97-1.3,1.32-2.03ZM107.77,79.4c-.59,1.04-1.21,2.12-2.23,2.79-1.82,1.32-3.81,2.42-5.98,3.04-.75.16-1.52.18-2.28.26-.92,0-1.85.04-2.77-.06-.71-.06-1.44-.09-2.1-.41-.74-.35-1.42-.66-2.11-1.13-.49-.34-.91-.77-1.36-1.17-.56-.48-1.17-.89-1.68-1.43-.84-.96-1.77-1.85-2.54-2.88-2.59-3.49-2.32-6.96-.09-10.54,1.12-1.83,2.51-3.57,4.36-4.7,1.15-.69,2.37-1.27,3.63-1.73,1.09-.32,2.23-.5,3.37-.51.67.03,1.32.17,1.98.25.68.09,1.36.16,2.02.33,1.79.52,3.51,1.46,4.73,2.88-.49.67-.96,1.35-1.37,2.07-.38.69-.67,1.43-.99,2.15-.28-.86-.6-1.72-1.13-2.45-.23-.32-.49-.61-.73-.92-.22-.31-.43-.65-.71-.91-.34-.27-.86-.87-1.26-.38-.15.22-.09.5-.09.75,0,.7.35,1.3.56,1.95.24,1.15.46,2.37,1.2,3.32-1.34.07-2.68.44-3.97.84-.58.19-1.13.44-1.66.74-.17.1-.37.23-.45.42-.12.35.29.54.58.54.43.03.85.12,1.27.18,1.22.08,2.47,0,3.67-.24-.79.88-1.35,1.93-1.79,3.02-.23.5-1.32,3.37-.34,3.4.16-.01.29-.15.41-.24,1.17-.82,2.34-1.71,3.16-2.9.05.93.21,1.85.34,2.76.14.81.64,1.47,1.18,2.07.12.15.27.32.46.39.24.09.55-.03.65-.27.14-.42.09-.88.22-1.3.36-1.34.42-2.75.14-4.11-.04-.21-.04-.44-.08-.65.33.03.66.06.99.1.63.11,1.24.31,1.87.41.69.14,1.4.16,2.1.24.03,0,.07.01.1.02,0,.03-.01.07-.02.1-.08.9-.39,1.77-.61,2.64-.12.47-.4.86-.64,1.27ZM99.97,93.07c-.67.24-1.36.06-2.04,0-.62-.02-1.23-.1-1.85-.07-1.34.15-2.7.01-4.03-.23-1.55-.4-3.05-1.07-4.41-1.94,1.25-.24,2.49-.24,3.74-.48,1.24-.25,2.52-.27,3.78-.15.81.07,1.61.17,2.38.47,1.01.46,2,1.02,2.85,1.74.21.22.44.43.66.65-.03.03-.06.05-.09.08-.1-.13-.26-.21-.46-.19-.18.03-.35.07-.53.12ZM80.01,101.72c-.54,1.14-.99,2.33-1.68,3.39-1.1,1.86-2.95,3.18-5.02,3.78-.81.1-1.6.31-2.41.44-.93.1-1.86.18-2.79.2-.75-.04-1.51-.16-2.24-.32-1.09-.38-2.07-1-3.03-1.63-1.32-.88-2.73-1.67-3.88-2.79-1.82-1.83-3.13-4.15-3.8-6.64-.17-.69-.31-1.4-.2-2.12.23-1.22.54-2.43.85-3.63.41-1.19.97-2.37,1.84-3.29,1.77-1.78,4.1-2.93,6.54-3.48,1.32-.28,2.65,0,3.93.3,2.57.58,5.15,1.44,7.3,2.99.85.83,1.76,1.61,2.6,2.45.71.74,1.35,1.54,1.89,2.4.1.15.2.29.31.44.02.04.05.07.08.11-.6,0-1.21-.02-1.81-.01-1.05,0-2.08.28-3.12.4-.47.06-.94.07-1.4.15-.72.16-1.42.39-2.13.59.06-.66-.06-1.3-.14-1.97-.08-.72-.06-1.45-.21-2.17-.16-.68-.37-1.35-.6-2.01-.03-.12-.16-.37-.31-.43-.35-.19-.72.15-.68.52-.08.28-.18.58-.27.92-.28.9-.37,1.87-.63,2.78-.25.8-.21,1.64-.16,2.46-.76-.53-1.56-1.02-2.41-1.39-.97-.42-2.04-.51-3.09-.6-.28-.04-.67-.1-.79.24-.22.48,1.38,1.73,1.78,2,.64.46,1.31.87,2,1.27.52.34.96.81,1.58.98-.66.47-1.3.96-1.86,1.55-.57.62-1.05,1.33-1.51,2.03-.17.26-.33.52-.47.8-.05.1-.09.19-.07.3.13.44.57.09.83,0,1.65-.62,3.32-1.34,4.69-2.47.1.37.25.74.35,1.11.17.62.29,1.26.67,1.79.3.46.76.79,1.08,1.24.16.23.33.49.58.64.39.22.77-.18.81-.56.11-.61,0-1.24-.07-1.85-.09-.75-.18-1.53-.54-2.22.99.37,2,.85,3.09.78.28.03.56.13.73-.18.24-.48-.56-1.14-.85-1.49-.54-.61-1.35-.84-2.1-1.09.6-.09,1.19-.18,1.79-.27.89-.06,1.78.06,2.66-.06.9-.14,1.91-.19,2.8.09.08.03.16.05.24.07.03.16.08.31.1.47-.06,1.02-.39,2.08-.84,3.02ZM68.81,120.24s.1.04.1.04c-1.28-.34-2.21-1.29-3.29-2-1.29-.74-2.64-1.35-3.8-2.3,1.86.26,3.81.18,5.58.89,2.04.87,4.39,1.82,5.68,3.7-1.57.39-2.75.24-4.27-.33ZM100.74,116.6c-.02.44-.03.88-.06,1.31-.34-.44-.71-.86-1.08-1.28-.11-.14-.22-.27-.34-.4.5.07.98.26,1.47.36ZM106.26,119.15c.13.07.25.14.38.21-.2.03-.39.07-.59.11.07-.11.14-.21.21-.32ZM102.13,124.56c.29.63.68,1.2,1.09,1.77.29.43.54.9.84,1.32.11.16.23.29.41.35,1.82.41.63-3.46.41-4.32-.15-.49-.42-.93-.62-1.39.48.02.96.11,1.43.16.8.07,1.58-.12,2.37-.25.59-.08,1.16-.25,1.7-.49.36.37.7.76,1.04,1.16.53.79,1.03,1.61,1.39,2.5.26.59.55,1.16.71,1.79.19.81.2,1.65.21,2.47-.07,1.19-.09,2.39-.4,3.55-.32,1-.64,2.02-1.15,2.94-.28.44-.59.85-.91,1.27-1.16,1.49-2.34,3.06-4.04,3.96-.56.32-1.16.54-1.78.71-.72.24-1.45.44-2.22.42-1.34-.09-2.69.04-4.03-.14-1.51-.21-2.99-.6-4.43-1.12-1.08-.36-2.15-.76-3.12-1.36-.99-.57-2.08-1.09-2.75-2.05-.87-1.31-1.76-2.62-2.6-3.96-.63-1.03-1.35-2.04-1.48-3.29-.13-1.58.06-3.19.3-4.75.56-2.1,1.63-4.04,3.01-5.71,1.84-2.27,4.7-3.64,7.59-3.98.15-.02.29-.03.44-.04.14.33.31.65.5.96.42.72.84,1.47,1.5,1.99-1.33.8-2.72,1.62-3.72,2.85-.29.43-1.29,1.59-.38,1.84.87-.04,1.62-.55,2.41-.86.9-.36,1.82-.64,2.75-.89-.35.74-.63,1.51-.92,2.28-.18.5-.37,1.01-.58,1.5-.1.22-.21.47-.23.72-.01.17.1.35.27.38.17.04.27-.06.41-.14.68-.39,1.14-1.08,1.7-1.61.31-.33.66-.63.95-.98.36-.47.69-.97,1.1-1.4.17.66.47,1.28.83,1.86ZM132.63,91.31c-.07-.79-.25-1.56-.41-2.34-.12-.58-.19-1.18-.36-1.75-.34-.88-.98-1.62-1.63-2.29-.49-.47-.91-1.02-1.52-1.33-.12-.16-.31-.21-.5-.2-1.66.12-3.29.57-4.82,1.19-1.16.42-2.3.92-3.4,1.46-1.87.89-3.66,1.95-5.38,3.09-1.38.97-2.8,1.88-4.24,2.76-2.34,1.56-4.74,3.07-6.77,5.03-1.16,1.05-2.05,2.36-3.11,3.52-.25.29-.51.57-.78.83-.13.12-.3.24-.33.43-.04.19.04.35.15.5.25.33.54.61.73.98.33.65.42,1.38.7,2.05.21.75.62,1.42.85,2.16.54,1.99.71,4.04.75,6.09,0,.89.15,1.76.16,2.65.04.93-.03,1.85-.04,2.78-.03,0-.06,0-.09,0-.22,0-.44,0-.67,0,.15-.73.03-1.47.05-2.21,0-.44.09-.75.13-1.23,0-.82-.15-1.64-.22-2.47-.15-1.55-.26-3.25-.95-4.7-.17-.46-.36-.92-.5-1.39-.11-.56-.24-1.12-.53-1.62-.46-.76-1.15-1.35-1.53-2.17-.07-.15-.19-.29-.24-.45-.01-.05-.05-.17-.13-.27-.25-.32-.68-.2-.94.05-.24.17-.49.33-.74.51-.94.63-1.75,1.41-2.48,2.27-.47.43-1,.8-1.49,1.2-1.68,1.3-3.06,2.93-4.58,4.4-.96.86-1.87,1.78-2.73,2.74-.84.91-1.76,1.72-2.73,2.49-1.21,1.06-2.42,2.12-3.6,3.21-.91.82-1.71,1.74-2.59,2.59-1.48,1.42-2.87,2.93-4.22,4.49-1.11,1.44-2.37,2.78-3.29,4.35-.04-.02-.08-.05-.12-.07-.22-.13-.48-.22-.66-.4.23-.83.71-1.57,1.22-2.27.43-.61.84-1.24,1.27-1.85.93-1.26,1.75-2.6,2.73-3.82,1.24-1.67,2.65-3.19,3.93-4.82.75-.94,1.53-1.91,2.33-2.89.71-.97,1.49-1.89,2.32-2.77.9-.97,1.82-1.93,2.76-2.87.76-.77,1.5-1.55,2.36-2.2.99-.77,1.93-1.6,2.91-2.38,1.51-1.25,2.89-2.72,4.59-3.71h0c.34-.14.44-.62.2-.9-.28-.29-.73-.36-1.1-.5-1.28-.32-2.5-.87-3.82-.97-.72-.17-1.46-.11-2.19-.2-1.4-.25-2.81-.41-4.22-.64-.68-.08-1.38-.07-2.05-.23-1.21-.36-2.46-.25-3.69-.02-.71.08-1.33,0-2.06-.02-1.02.07-2.02.28-3.04.41-.1-.37-.17-.75-.2-1.14.8-.19,1.59-.42,2.4-.56.56-.06,1.12-.12,1.67-.21.87-.14,1.73-.31,2.62-.3,1.68.02,3.37.05,5.05.11.63-.02,1.26-.02,1.89.08.81.1,1.58.4,2.37.58.41.09.81.18,1.21.29.75.24,1.51.49,2.27.69,1.14.38,2.26.82,3.38,1.27.28.11.53.29.79.44.4.17.82-.17.82-.57.73-.9,1.62-1.65,2.54-2.35.88-.72,1.65-1.56,2.54-2.28.86-.75,1.75-1.45,2.59-2.22,1.14-1.1,2.55-1.86,3.82-2.8,2.08-1.47,4.18-2.92,6.36-4.24.77-.39,1.53-.78,2.29-1.21,1.54-.85,3.05-1.81,4.67-2.52.56-.26,1.11-.53,1.68-.75.25-.1.53-.16.71-.39.23-.31.14-.75-.14-1-.47-.39-1.11-.46-1.68-.63-.29-.08-.57-.17-.86-.25-1.56-.45-3.15-.8-4.71-1.23-.89-.28-1.67-.83-2.58-1.07-.77-.28-1.57-.47-2.36-.67-.83-.23-1.64-.55-2.5-.66-1.08-.08-2.16-.2-3.2-.5-.74-.18-1.51-.18-2.31-.26-.01-.06-.02-.13-.03-.19,0-.06-.01-.13-.02-.19.83-.03,1.65.08,2.47.1.59,0,1.19.02,1.78.11.87.17,1.76.08,2.64.19.95.2,1.92.25,2.86.48.88.3,1.82.4,2.71.67.95.25,1.87.65,2.78,1.03.81.3,1.58.68,2.34,1.08,1.08.42,2.16.85,3.15,1.46.75.48,1.48.99,2.23,1.47.12.19.34.29.56.28.29,0,.49-.25.74-.37,1.2-.64,2.42-1.23,3.62-1.87,1.21-.67,2.53-1.11,3.79-1.68,1.98-.75,3.98-1.45,5.93-2.26,1.51-.62,3.08-1.04,4.64-1.48.03.09.06.18.08.27-.11.03-.2.1-.26.19-.08.11-.1.23-.09.36-.05.07-.09.14-.14.21-1.09.46-2.15.99-3.25,1.45-.62.32-1.26.6-1.92.83-.82.37-1.59.84-2.43,1.17-.44.16-.86.37-1.27.58-.72.35-1.5.59-2.16,1.06-1.26.83-2.42,1.77-3.69,2.59-.26.2-.56.36-.76.62-.25.32-.11.8.26.95.49.34.81.87,1.3,1.23,1.17.88,2.08,2.11,2.43,3.55.3,1.36.5,2.75.5,4.15-.04.94-.12,1.88-.2,2.82-.21,2.12-.44,4.25-1.12,6.27-.09-.02-.17-.04-.26-.06-.03,0-.06-.02-.08-.03-.05-.5.13-.98.18-1.48.1-1.79.2-3.59.04-5.38-.07-.7-.07-1.41-.13-2.11ZM131.33,97.99c-.02.27-.04.53-.07.8-.02.16-.05.32-.08.49-.04-.04-.08-.08-.12-.12-.27-.32-.47-.69-.77-.99-.17-.14-.27-.31-.35-.5.47.05.94.18,1.39.33ZM144.7,115.4c-.39.91-1.05,1.66-1.66,2.42-.45.55-.92,1.08-1.42,1.58-.58.55-1.29.93-1.92,1.42-.86.65-1.66,1.41-2.68,1.82-1.2.38-2.47.59-3.73.65-.72-.02-1.44-.05-2.14-.2-.95-.22-1.83-.66-2.74-1-1.73-.62-3.48-1.29-4.97-2.38-1.79-1.53-3.46-3.4-4.12-5.71-.4-1.87-.67-3.79-.47-5.71.21-1.04.62-2.04.99-3.03.5-1,1.17-1.9,1.79-2.82.82-.93,1.72-1.79,2.71-2.52.6-.43,1.18-.89,1.82-1.27.29-.16.59-.3.9-.42.24.61.58,1.18.95,1.72.47.78,1.1,1.46,1.88,1.94-.49.89-1.02,1.77-1.33,2.74-.2.66-.49,1.32-.55,2.01,0,.19.13.36.31.42.5.14,1.07-.59,1.46-.86.85-.76,1.83-1.34,2.7-2.07.25.64.79,1.09,1.26,1.57.57.66,1.35,1.11,1.89,1.79.52.68,1.64.41,1.71-.46-.02-.41-.12-.81-.19-1.21-.12-.7-.22-1.42-.5-2.08-.23-.49-.44-1-.67-1.49,1.01-.22,1.97-.62,2.89-1.09.27.17.54.35.81.51.57.35,1.17.65,1.7,1.06.53.47.97,1.03,1.47,1.53.73.74,1.17,1.7,1.71,2.58.42.78.63,1.66.89,2.5.35,2.03.04,4.14-.73,6.04Z" fill="#050505"/></svg>