<?xml version="1.0" encoding="UTF-8"?><svg id="Layer_1" xmlns="http://www.w3.org/2000/svg" viewBox="0 0 500 500"><path d="M295.08,293.5c-1.4-7.21-4.42-14.32-8.6-20.35-3.99-5.75-10-11.83-17.52-11.83-2.11,0-4.15.48-6.07,1.35-.91.41-1.78.91-2.6,1.47-.75.51-1.75,1.1-2.3,1.84.01-.46-.25-.81-.48-1.19-.26-.44-.53-.87-.8-1.31-.52-.84-1.05-1.68-1.56-2.52-.25-.41-.5-.82-.74-1.23-.25-.43-.68-.94-.82-1.42-.12-.43-.03-1.05-.03-1.5,0-.53.01-1.07.03-1.6.02-.5-.4-3.72-.46-3.85-.05-.12-.08-1.08-.06-1.33.15-2.01.81-3.96,1.35-5.89.6-2.12,1.19-4.28,1.24-6.5,2.24,2.62,5.22,5.65,8.89,5.86,3.96.23,6.71-3.26,8.7-6.21,1.1-1.63,2.09-3.33,3.09-5.03.5-.85,1-1.7,1.52-2.55.25-.41.5-.82.76-1.23.24-.38.5-.96.85-1.24.32-.26,2.41-6.25,2.47-6.71.14-1.03.21-2.07.22-3.11.05-3.67-.4-8.11-3.01-10.94-1.17-1.27-2.85-1.95-4.57-1.91-1.84.05-3.51.87-4.89,2.05-2.75,2.35-4.51,5.91-5.51,9.33-1.01,3.41-1.61,7.73.18,11,.81,1.47,2.36,2.74,4.08,2.84,1.91.11,3.14-1.35,3.53-3.08.21-.93.24-1.87.13-2.82-.09-.77-.23-1.85-.97-2.27-.69-.38-1.62-.1-1.92.64-.17.4-.1.75.02,1.14.15.49.22.99.22,1.5,0,.53-.01,1.94-.66,2.16-.33.11-.82-.19-1.08-.37-.38-.25-.67-.6-.89-.99-.95-1.67-.89-3.79-.68-5.64.42-3.61,1.89-7.58,4.35-10.31,1.18-1.31,2.74-2.55,4.61-2.37,1.94.19,2.96,2.13,3.48,3.8,1.12,3.67,1.06,7.99.07,11.68-.12.46-.23.92-.51,1.31-.3.42-.58.84-.87,1.26-.55.82-1.08,1.66-1.59,2.5-1.01,1.65-1.97,3.32-2.96,4.98-.98,1.65-1.99,3.28-3.19,4.78-1.08,1.35-2.59,2.94-4.44,3-1.81.06-3.51-1.16-4.79-2.32-1.39-1.25-2.61-2.66-3.76-4.12-.24-.31-1.51-.69-1.55-.71-.03-.02-.15-.32-.17-.38-.1-.42,0-.96.03-1.4.02-.5.04-1.01.05-1.51.03-1.93-.08-3.88-.51-5.77-.8-3.48-2.84-6.39-5.02-9.15-2.2-2.78-4.7-5.6-5.56-9.13-.23-.93-.33-1.85-.31-2.8.02-.84,8.19-15.42,12.33-22,.52-.83,1.06-1.65,1.62-2.45.24-.35,1.99-3.49,2.16-3.89.28-.66.02-1.44-.62-1.78-.81-.42-1.48.14-2.11.63-.74.58-1.46,1.18-2.15,1.81-1.4,1.26-2.72,2.61-4,4-5.26,5.71-9.9,12.14-13.7,18.9-.47.84-.93,1.7-1.37,2.56-.37.73-.39,3.31-.31,3.45.15.24.07.92.1,1.23.09.9.29,1.78.55,2.64,1.06,3.45,3.18,6.44,5.2,9.39,2.05,2.98,4.08,6.04,4.75,9.66.73,3.93.29,8.09-.44,11.99-.74,3.91-1.83,7.75-3.04,11.53-.62,1.95-1.27,3.89-1.95,5.81-.66,1.87-1.37,3.73-1.87,5.65-.02.07-.03.24-.08.3-.13.15.22-.04-.18.08-.13.04-.35,0-.49,0-.56,0-1.11.02-1.67.05-.97.05-1.94.15-2.91.27-1.98.24-3.95.61-5.89,1.09-1.91.48-3.79,1.06-5.62,1.78-1.68.65-3.36,1.39-4.82,2.47-2.88,2.15-4.92,5.35-6.52,8.51-1.71,3.38-3.05,6.94-4.05,10.59-1.03,3.77-1.77,7.65-2.06,11.54-.29,3.84-.23,7.85.88,11.56,1.03,3.43,3.14,6.4,6.42,7.98,3.47,1.67,7.45,1.44,10.96.03,1.62-.65,3.11-1.62,4.42-2.78,1.08,2.57,2.98,4.68,5.39,6.08,2.74,1.59,5.92,2.22,9.04,2.46,3.24.25,6.57.02,9.7-.85,1.5-.41,2.96-.97,4.35-1.66.18-.09.76-.53.95-.5.19.03.64.68.79.83.55.53,1.14,1.03,1.76,1.47,2.47,1.77,5.7,2.72,8.7,2.97,3.17.27,6.38-.25,9.36-1.36,5.76-2.15,10.72-6.39,14.16-11.45,1.92-2.83,3.42-6.05,4.11-9.41.75-3.67.42-7.43-.28-11.07ZM224.15,314.89c-2.47,1.71-5.41,2.61-8.42,2.28-2.81-.31-5.36-2.04-6.74-4.49-1.44-2.54-1.87-5.6-1.98-8.48-.12-3.05.14-6.11.61-9.13.91-5.82,2.67-11.66,5.39-16.89,1.3-2.5,2.86-4.99,5-6.87,2.15-1.89,5.12-2.86,7.82-3.68,3.23-.98,6.6-1.66,9.97-1.88,3.24-.21,7.11-.19,9.82,1.84-2.77,1.9-5.04,4.47-6.98,7.19-2.02,2.81-3.73,5.84-5.24,8.95-1.56,3.2-2.93,6.5-4.13,9.85-1.2,3.36-2.3,6.8-2.96,10.31-.37,1.99-.59,4.03-.52,6.06.02.49.05.98.1,1.46.05.48.27,1.08.23,1.55-.03.34-.52.69-.79.94-.38.35-.77.68-1.18.99ZM252.49,320.45c-4.63,1.73-9.98,2.01-14.78.83-2.25-.56-4.46-1.51-6.11-3.19-1.7-1.72-2.59-3.94-2.95-6.31-.78-5.05.84-10.27,2.41-15.01,1.53-4.63,3.37-9.16,5.62-13.49,2.14-4.11,4.67-8.17,8.04-11.39.84-.81,1.74-1.57,2.72-2.2.46-.3.94-.58,1.43-.83.49-.25,2.53-1,2.8-1.06.59-.12,1.16-.18,1.76-.16,1.14.04,2.27.35,3.27.91,2.07,1.16,3.65,3.03,4.95,4.98,1.31,1.98,2.4,4.11,3.29,6.32,1.83,4.54,2.71,9.52,2.69,14.41-.03,9.39-3.56,19.68-12.04,24.66-.99.58-2.03,1.09-3.09,1.51ZM292.87,303.21c-1.04,5.78-4.5,10.99-8.86,14.84-4.46,3.93-10.3,6.59-16.34,6.03-3.26-.3-6.61-1.61-8.88-4.02,5.93-4.32,9.44-11.17,10.8-18.27,1.51-7.9.6-16.17-2.49-23.59-1.59-3.82-3.83-7.73-7.05-10.41,2.95-2.54,6.65-4.21,10.61-3.59,3.75.58,7.03,2.99,9.63,5.63,5.33,5.43,8.97,12.67,11.11,19.92,1.27,4.3,2.16,8.98,1.48,13.47Z" fill="#282828"/></svg>