<?xml version="1.0" encoding="UTF-8"?><svg id="Layer_1" xmlns="http://www.w3.org/2000/svg" viewBox="0 0 207.21 203.87"><path d="M123.16,87.86c-.78-1.48-2.17-2.57-3.65-3.28-1.59-.77-3.39-1.21-5.17-1.19-1.77.02-3.48.58-5.06,1.34-.78.38-1.53.82-2.24,1.32-.75-2.15-.63-4.46-.55-6.7.02-.59.05-1.18.06-1.77,0-.27,0-.54,0-.81,0-.24.02-.49-.09-.71-.18-.35-.61-.48-.96-.33-.19.08-.28.22-.38.4-.14.26-.27.52-.39.78-.55,1.14-1.01,2.31-1.49,3.47-.73-3.25-1.05-6.6-2.39-9.69-.16-.37-.33-.73-.52-1.09-.16-.3-.36-.54-.72-.56-.35-.02-.7.24-.77.59-.04.18,0,.38.01.57.01.22.03.44.05.66.13,1.69.25,3.37.02,5.06-.25,1.85-1.08,3.58-1.23,5.45-.58-1.18-.87-2.48-1.1-3.77-.12-.65-.22-1.3-.33-1.95-.05-.27-.08-.5-.3-.68-.21-.17-.5-.22-.76-.12-.24.09-.43.31-.6.49-.22.24-.43.49-.61.76-.35.5-.63,1.03-.87,1.59-.52,1.19-.85,2.45-1.01,3.73-.18,1.46-.14,3.03.37,4.43-1.4.17-2.77.55-4.06,1.09-1.22.51-2.33,1.26-3.17,2.29-1.76,2.15-2.06,5.03-1.81,7.7.15,1.63.5,3.23.96,4.81,1.03,3.53,2.35,7,3.75,10.4,1.39,3.39,2.92,6.72,4.55,10,.83,1.67,1.7,3.31,2.56,4.96.84,1.6,1.61,3.23,2.49,4.8.44.77.9,1.52,1.42,2.24.22.31.42.67.84.7.4.03.62-.25.87-.52,1.15-1.26,2.25-2.56,3.31-3.9,2.11-2.68,4.03-5.49,5.82-8.39,1.79-2.9,3.46-5.87,5.06-8.88.86-1.63,1.7-3.27,2.58-4.88.88-1.63,1.77-3.25,2.59-4.91,1.61-3.23,3.09-6.63,3.54-10.24.22-1.73.25-3.67-.59-5.25ZM93.6,82.99c.06-.06.14-.1.2-.17.16-.18.2-.4.22-.63.14.29.31.59.64.7.29.09.61,0,.81-.22.26-.29.18-.63.17-.99,0-.19,0-.37,0-.56,0-.09,0-.19.01-.28,0-.13-.02-.17.1-.21.48,1.47,1.25,2.86,2.45,3.87.34.36.94.3,1.21-.11.28-.45-.05-1.01-.14-1.48-.11-.58-.1-1.17-.03-1.75.03-.25.04-.6.15-.83.04-.09.03-.06.11-.12.05-.03.1-.05.15-.08.09-.07.17-.15.23-.25.03.26.03.58.21.79.15.19.4.3.65.29.65-.04.75-.71.85-1.22.2,1.01.43,2.02.74,3,.11.36.35.67.77.66.5,0,.65-.42.82-.81.09.13.22.23.36.29.06.02.17.02.21.05.06.04.06.11.09.18.06.13.15.24.27.32.05.03.14.05.17.09.06.06.05.2.06.29.08.79.21,1.58.45,2.34.06.19.12.37.19.56.03.07.1.18.1.25,0,.09-.11.15-.18.22-.29.26-.56.53-.83.8-.54.56-1.04,1.17-1.49,1.81-.49.7-.93,1.45-1.3,2.22-.55-1.76-1.6-3.57-3.08-4.71-.77-.59-1.68-1.02-2.62-1.27-.48-.12-.97-.21-1.46-.25-.12-.01-.25-.02-.37-.03-.08,0-.32.03-.37-.01-.06-.05-.12-.24-.15-.32-.06-.14-.1-.28-.14-.43-.15-.52-.24-1.07-.26-1.61,0-.06,0-.12,0-.19,0-.13-.02-.14.06-.22ZM94.54,110.07c-.12.41-.24.82-.32,1.25-.06.34-.02.71-.3.97-.24.22-.62.24-.89.05-.34-.23-.32-.56-.29-.92.02-.21.05-.42.09-.62.02-.11.08-.24.08-.35,0-.05-.04-.12-.04-.18-.04-.35.23-.76.47-.99.22-.21.58-.24.84-.1.34.18.45.55.35.9ZM97.45,112.72c-.02.23-.03.46-.04.69,0,.2.02.41-.02.6-.07.28-.3.51-.59.55-.3.04-.63-.13-.75-.41-.09-.2-.05-.43-.04-.64.01-.22.03-.45.04-.67.03-.42,0-.87.07-1.29.06-.34.34-.6.69-.6.95,0,.69,1.18.64,1.77ZM101.01,115.31c-.31.17-.72.07-.92-.22-.11-.16-.12-.37-.15-.55-.03-.21-.06-.43-.07-.64-.03-.44-.03-.9,0-1.34.03-.63.77-1.01,1.23-.49.26.28.17.72.17,1.07,0,.43,0,.86.07,1.28.08.35.03.71-.32.9ZM107.89,113.61c-.04.33-.35.58-.67.6-.33.02-.61-.2-.7-.5-.11-.36-.15-.74-.25-1.1-.09-.34-.31-.76-.25-1.11.05-.28.27-.52.55-.58.82-.17.96.93,1.1,1.48.05.21.09.41.14.62.04.18.11.4.08.59ZM110.19,112.35c-.24-.21-.28-.58-.44-.85-.08-.15-.18-.29-.29-.42-.11-.12-.23-.22-.3-.37-.29-.66.56-1.29,1.09-.78.47.45.92,1.11,1.05,1.76.13.63-.63,1.08-1.12.66ZM112.89,104.69c-.14.36-.47.62-.76.83-.35.25-.69.5-1.05.74-.7.48-1.42.95-2.16,1.38-1.49.88-3.08,1.63-4.72,2.17-.83.27-1.67.45-2.54.43-.87-.01-1.76-.17-2.6-.39-1.69-.45-3.3-1.19-4.85-2.01-.78-.41-1.55-.85-2.3-1.31-.29-.18-.62-.39-.74-.73-.14-.38.08-.68.28-.98.98-1.44,2.08-2.81,3.31-4.04,1.2-1.19,2.58-2.29,4.18-2.89.8-.3,1.64-.46,2.5-.41.87.04,1.73.36,2.54.67,1.64.64,3.19,1.51,4.66,2.47.74.48,1.47.99,2.18,1.51.36.26.71.53,1.05.81.3.24,1.31.92,1,1.75Z"/><path d="M99.24,101.46c-.36-.05-.81.39-1.06.6-.08.07-.16.15-.24.21-.13.1-.13.1-.13.26,0,.23.02.47.06.7.07.45.21.93.43,1.33.2.37.46.74.85.92.44.2.73.04.93-.37.41-.86.27-1.87-.1-2.7-.13-.28-.38-.91-.74-.95Z"/><path d="M92.87,105.41c1.39.82,2.81,1.61,4.3,2.24-1.26-1.28-2.08-3.04-2.29-4.82-.72.82-1.39,1.68-2.01,2.58Z"/><path d="M110.48,103.66c-.32-.24-.64-.48-.97-.71-.65-.46-1.32-.91-2-1.34-1.34-.85-2.74-1.61-4.22-2.16,1.04,1.26,1.49,3.08,1.58,4.67.08,1.61-.24,3.51-1.64,4.51.96-.26,1.9-.64,2.8-1.05,1.9-.89,3.69-2.03,5.38-3.26-.18-.04-.31-.18-.45-.29-.16-.13-.31-.25-.47-.37Z"/></svg>