<?xml version="1.0" encoding="UTF-8"?><svg id="Layer_1" xmlns="http://www.w3.org/2000/svg" viewBox="0 0 207.21 203.87"><path d="M99.28,76.46c-3.59-.33-5.29,3.7-1.11,4.62,1.43.29,2.94-.74,3.44-2.07.59-1.41-1.16-2.38-2.33-2.55Z"/><path d="M92.71,80.04c-1.77-.57-2.91,2.18-1.29,3.03.78,0,1.59-.3,2.25-.71.99-.79.04-2.11-.96-2.31Z"/><path d="M96.08,72.04c2.16,1.08,3.74-2.1,1.56-3.24-1.69-.79-2.99,2.35-1.56,3.24Z"/><path d="M102.92,70.14c-2.92,1.56-1.37,3.93.69,5.41,1.54.99,2.61-1.3,3.09-2.46.37-.99.5-2.22-.25-3.07-1.02-1.22-2.41-.56-3.53.12Z"/><path d="M106.03,64.05c.88.43,1.92.02,2.28-.89.44-.87.68-2.22-.23-2.87-.71-.45-1.83-.33-2.31.39-.71,1.03-1.19,2.74.27,3.36Z"/><path d="M110.94,69.71c-.83.81-.71,2.39.34,2.99,1.58.93,3.39-1.43,2.21-2.77-.62-.67-1.85-.85-2.55-.22Z"/><path d="M111.2,77.39c-1.34-.37-3.14.14-3.76,1.47-.17.49-.01,1.01.08,1.49.32.81,1.17,1.2,1.96,1.42,1.7.74,2.81-.74,2.96-2.31.18-.91-.32-1.83-1.24-2.07Z"/><path d="M117.03,81.34c-.45.06-.74.48-.96.83-.32.53-.14,1.15-.06,1.72.2.67.93,1.05,1.58,1.12,2.53-.02,1.46-3.7-.56-3.67Z"/><path d="M119.96,78.54s-.03-.09-.04-.13c.29-.91.53-1.91.21-2.84-.44-1.08-1.13-2.55-2.17-2.86-.37-.96-.78-1.91-1.21-2.84-.58-1.24-1.11-2.5-1.56-3.79.44-.73.45-1.88.28-2.69-.15-1.17-.3-2.54-1.34-3.28-.07-.05-.14-.1-.21-.14-.24-2.23-.46-4.55-1.68-6.45.18-.71-.05-1.53-.9-2.33-.6-.57-1.38-1.11-2.24-1.02-.5.11-.93.35-1.28.69-1.41-.09-2.85.37-3.91,1.45-1.52,1.49-2.55,3.31-3.49,5.2-.64.41-1.27.84-1.83,1.36-1.26,1.19-1.61,2.96-1.37,4.66-.05.08-.1.15-.16.22-1.69,2.66-3.88,5.03-5.55,7.71-.13,0-.28.01-.43.05-1.69.51-3.64,4.03-3.32,5.74.05.3.14.63.29.93-1.01,2.56-1.69,5.23-1.88,8.01-.17.85-.22,1.73-.51,2.54-.02.11.02.21.09.27.12.26.47.52.66.69,1.12.87,2.51,1.26,3.89,1.48,3.06.53,6.09-.43,9.14-.51,1.56-.05,3.18.06,4.73.33.02,0,.05.01.08.01-.06,7.17-3.1,13.99-5.34,20.73-3.46,9.86-7.15,19.7-9.33,29.94-.76,3.64-1.16,7.37-1.15,11.09-.09,1.04,1.24.83,1.92.91,1.8.39,1.19-1.83,1.3-3.01-.08-2.44-.02-4.89.17-7.33.17-2.95,1.02-5.8,1.87-8.62,1.05-3.63,2.27-7.19,3.59-10.75,2.31-7.33,5.6-14.28,8.42-21.41,1.33-3.54,1.73-7.3,1.54-11.04,1.87.31,3.71.77,5.61.9,2.56.27,5.57-.27,7.4-2.19,0,0,0,0,0,0,.29-.23.6-.64.82-1.02,0,0,0,0,0-.01.08-.11.15-.24.2-.38.07-.15.11-.28.12-.37.02-.06.03-.12.02-.18.09-.53.09-1.11.12-1.48.06-2.83-.76-5.57-1.59-8.24ZM100.73,112.66c-1.44,3.38-2.67,6.83-3.84,10.31-2,5.47-3.9,10.98-5.26,16.64-.97,4.4-.53,8.92-.77,13.37-.54-.02-1.17-.06-1.72-.13-.1-8.24,2.21-16.29,4.67-24.11,1.66-5.18,3.45-10.32,5.3-15.44,3-8.95,7.32-18.14,5.36-27.8-.09-.31-.1-.7-.17-1.04.1,0,.2,0,.3,0,.33-.03.67-.07,1-.11.16.81.25,1.65.38,2.47,2.02,11.03-1.19,16.12-5.26,25.83ZM120.51,88.77c-.24-.21-.47-.44-.71-.65-2.35-2.13-5.13-4.02-8.31-4.59-2.85-.55-5.7.39-8.55.24-2.69-.21-5.38-.92-8.11-.81-3.04.16-6.11,1.48-8.05,3.87.37-2.13.42-4.25,1.16-6.32.18-.55.37-1.1.58-1.64.23.22.52.37.87.39.05,0,.1,0,.15-.03,1.62-.23,3.14-3.47,3.34-4.97.23-.86.04-2.05-.64-2.56,1.32-2.05,2.79-4.02,4.3-5.93.3-.42.59-.84.88-1.27.17.65.43,1.26.74,1.81,0,.12.06.23.16.3,1.93.92,4.55-6.64,4.49-8.12.03-.64-.09-1.59-.86-1.7-.13-.01-.25,0-.37.05.58-1.14,1.21-2.24,2.04-3.22,1-1.31,2.32-1.98,3.64-2.07-.41.68-.6,1.51-.56,2.29.05,1.12,1.27,1.62,2.25,1.66,1.22.02,2.33-.47,2.91-1.23.03.05.06.11.09.17.77,1.65,1.03,3.44,1.24,5.24-.62-.13-1.3-.02-1.69.48-1.73,1.41.15,6.14,2.15,6.58.4.06.73.01.99-.12.76,2.06,1.7,4.05,2.55,6.08-.24.06-.5.19-.78.39-.09.07-.2.15-.31.24,0,0,0,0,0,0,0,0,0,0,0,0-.05.02-.09.05-.13.07-1.46,1.02-.76,2.99.22,4.29,0,0,0,0,0,.01.49.74,1.15,1.39,1.82,1.86.61.32,1.13.2,1.48-.18.75,2.41,1.4,4.85,1.37,7.39-.04.67-.04,1.39-.33,2.01Z"/><path d="M90.1,146.52c-.13-.01-.25.09-.26.22-.09,1.86-.33,3.72-.25,5.58.02.13.15.21.28.19.13-.02.21-.15.19-.28-.02-.29,0-.59-.01-.88.04-1.5.18-3.05.26-4.57,0-.13-.09-.25-.22-.26Z"/><path d="M105.46,89.92c.31,3.05.12,6.15-.79,9.1-.54,1.9-1.19,3.84-1.84,5.72-.04.12.02.26.14.3.12.04.26-.02.3-.14.35-1.01.69-2.02,1.02-3.04,1.35-3.84,2.12-7.89,1.63-11.97-.01-.31-.49-.28-.48.02Z"/></svg>