<?xml version="1.0" encoding="UTF-8"?><svg id="Layer_1" xmlns="http://www.w3.org/2000/svg" viewBox="0 0 207.21 203.87"><path d="M99.41,70.13c1.97-.79,20.77,21.21,21.86,22.74,1.09,1.53-9.4,40.45-9.95,40.89-.55.44-26.13-26.57-25.58-29.08.55-2.51,12.03-33.89,13.67-34.55Z" fill="none" stroke="#000" stroke-linecap="round" stroke-linejoin="round" stroke-width="2.44"/><path d="M111.33,133.75s1.86-27.11,1.86-29.74-13.77-33.89-13.77-33.89c0,0-3.17,37.17-2.3,38.59.87,1.42,12.24,24.16,14.21,25.03Z" fill="none" stroke="#000" stroke-linecap="round" stroke-linejoin="round" stroke-width="2.44"/><path d="M85.75,104.67l11.37,4.04s14.32-2.35,16.07-4.7c1.75-2.35,8.09-11.15,8.09-11.15" fill="none" stroke="#000" stroke-linecap="round" stroke-linejoin="round" stroke-width="2.44"/><path d="M86.13,105.17l11.07,4.02,13.45,24.43s-23.29-25.09-24.52-28.45Z"/><path d="M97.01,108.72l2.49-38.07,13.77,32.88s-.98,1.89-5.82,3.03c-4.84,1.15-10.44,2.16-10.44,2.16Z"/><path d="M121.47,93.48l-8.28,10.54-1.76,28.16,5.58-17.79s4.59-19.64,4.47-20.91Z"/></svg>