<?xml version="1.0" encoding="UTF-8"?><svg id="Layer_1" xmlns="http://www.w3.org/2000/svg" viewBox="0 0 207.21 203.87"><path d="M76.99,122.6c.08-.53.16-1.07.26-1.59.25-1.31,1.03-6.78-2.2-10.5-3.69-4.25-7.47-5.65-7.54-8.54-.07-2.88.32-5.11,1.35-5.84,1.03-.72,1.58-.13,2.04,2.9.46,3.03,6.46,7.48,6.46,7.48,0,0-.67-6.79.36-11.29,1.03-4.5.23-9.81.73-15.46.49-5.66,16.53-8.69,23.78-10.7,7.24-2.02,20.38.77,24.32,7.36,3.94,6.59.18,21.53,1.7,27.87,1.52,6.34,1.14,12.75,1.14,12.75,0,0,4.22-2.55,5.38-5.46,1.17-2.91,1.05-3.67,3.64-2.98,2.59.7,1.08,5.11-2.46,9.42-3.54,4.31-7.36,6.43-7.12,11.15.24,4.72-5.1,6.66-15.45,6.25-10.35-.41-15.34.44-18.86-.99-3.52-1.44-10.45-.76-13.79-.93-3.18-.16-4.97-2.32-3.74-10.88Z"/><path d="M83.62,125.49c-2.73-3.09-.12-7.62.55-11.01.71-3.56.59-7.14-.07-10.69-.37-1.98-.75-3.99-.21-5.98.11-.41-.53-.52-.64-.11-.47,1.72-.28,3.49.03,5.23.33,1.86.67,3.69.73,5.58.06,1.96-.1,3.93-.48,5.86-.39,1.97-1.16,3.83-1.55,5.79-.39,1.96-.27,4.14,1.11,5.71.27.31.81-.06.53-.38h0Z" fill="#fff7f7"/><path d="M80.57,95.82c-1.01-.87-.99-2.38-.73-3.58.27-1.26.75-2.47.75-3.78,0-.42-.65-.36-.65.05,0,1.42-.63,2.72-.83,4.11-.2,1.31-.01,2.79,1.05,3.7.32.27.73-.23.42-.5h0Z" fill="#fff7f7"/><path d="M71.16,104.25c-1.46-1.05-2.16-3.06-1.59-4.79.13-.39-.46-.67-.59-.27-.66,2,.05,4.33,1.77,5.56.34.24.76-.26.42-.5h0Z" fill="#fff7f7"/><path d="M91.01,107.75c-.49-.54.02-1.13.35-1.59.26-.37.32-.71.22-1.15-.13-.55-.36-1.08-.65-1.56-.31-.5-.75-.94-.99-1.48-.45-1.01.31-2.11.63-3.06.32-.94.48-1.9.22-2.88-.11-.41-.72-.18-.62.22.29,1.1-.11,2.22-.52,3.24-.38.94-.74,1.87-.26,2.84.23.46.57.84.86,1.26.32.47.8,1.27.72,1.87-.04.28-.31.52-.46.75-.13.19-.23.39-.29.61-.13.45-.06.94.26,1.29.28.31.82-.07.53-.38h0Z" fill="#fff7f7"/><path d="M94.16,110.37c-.88-.78-.69-2.14-.54-3.17.15-1,.28-2.09-.2-3.02-.19-.37-.81-.15-.62.22.52,1.01.23,2.15.1,3.23-.14,1.15-.08,2.44.84,3.26.31.28.73-.22.42-.5h0Z" fill="#fff7f7"/><path d="M93.37,115.68c-.76-.22-1.42-.79-1.75-1.48-.08-.16-.24-.26-.42-.2-.15.05-.27.26-.2.42.45.94,1.26,1.62,2.26,1.91.17.05.35-.1.38-.27.03-.19-.1-.33-.27-.38h0Z" fill="#fff7f7"/><path d="M91.53,118.56c.29.76.86,1.39,1.59,1.75.16.08.36,0,.43-.16.08-.16,0-.35-.16-.43-.17-.08-.26-.14-.41-.25-.07-.05-.13-.1-.19-.16-.03-.02-.05-.05-.08-.07,0,0-.09-.1-.06-.06-.11-.12-.21-.26-.3-.4-.09-.14-.14-.25-.21-.43-.06-.16-.25-.27-.42-.2-.16.07-.26.25-.2.42h0Z" fill="#fff7f7"/><path d="M96.59,126.81c.66-1.08.14-2.28-.07-3.41-.15-.78-.07-1.43.29-2.14.35-.68.8-1.3.96-2.07.31-1.44-.33-2.87-.68-4.24-.43-1.7-.2-3.43.68-4.95.21-.36-.39-.63-.59-.27-.75,1.3-1.09,2.82-.92,4.32.18,1.56,1.08,3.07.93,4.67-.14,1.48-1.46,2.5-1.41,4.04.05,1.23.92,2.62.22,3.78-.22.36.38.63.59.27h0Z" fill="#fff7f7"/><path d="M100.36,129.12c.37-1.73,1.74-3.01,2.3-4.66.56-1.63.53-3.39.27-5.07-.31-1.96-.94-3.86-1.27-5.81-.32-1.89-.26-3.8.05-5.69.35-2.1.98-4.15,1.6-6.19.12-.4-.52-.51-.64-.11-1.07,3.48-2.15,7.08-1.83,10.76.33,3.77,2.32,7.51,1.37,11.33-.48,1.95-2.08,3.36-2.5,5.33-.09.41.56.52.64.11h0Z" fill="#fff7f7"/><path d="M107.69,113.21c1.24-.79,1.45-2.36.97-3.66-.27-.72-.72-1.35-1.18-1.96-.53-.71-1.14-1.47-1.01-2.41.16-1.14,1.11-2.13.7-3.33-.18-.52-.34-.81-.17-1.37.1-.33.19-.66.22-1.01.06-.71-.08-1.4-.38-2.04-.18-.38-.79-.16-.62.22.32.69.45,1.43.28,2.18-.12.57-.41,1.08-.21,1.67.11.32.3.58.32.92.01.33-.1.65-.21.96-.19.51-.44.99-.55,1.53-.28,1.3.54,2.32,1.27,3.3.93,1.24,1.88,3.38.18,4.46-.36.23.02.76.38.53h0Z" fill="#fff7f7"/><path d="M110.89,100.85c.05-.02.11-.03.16-.05.02,0,.05-.01.07-.02,0,0,.1-.02.04,0,.1-.02.2-.04.3-.05.11-.01.22-.02.34-.02.05,0,.1,0,.15,0,.1,0-.06,0,.04,0,.03,0,.05,0,.08,0,.21.02.43.06.63.12.02,0,.05.01.07.02-.06-.02.03.01.04.01.05.02.1.03.14.05.1.04.21.09.31.14.15.08.37,0,.43-.16.07-.17,0-.35-.16-.43-.88-.45-1.93-.53-2.87-.23-.16.05-.26.26-.2.42.07.17.24.25.42.2h0Z" fill="#fff7f7"/><path d="M114.32,98.33c.09-.04.18-.08.27-.1-.03,0-.06.01-.08.02.1-.02.21-.03.31-.03-.03,0-.06,0-.08,0,.11,0,.22.02.33.06-.03,0-.05-.02-.08-.02.1.03.2.08.29.13-.02-.01-.05-.03-.07-.04.06.04.13.09.18.14.12.12.36.09.46-.04.11-.15.09-.33-.04-.46-.43-.41-1.16-.53-1.69-.26-.08.04-.15.09-.19.17-.03.07-.04.17-.01.25.03.08.09.15.17.19.07.03.17.05.25.01h0Z" fill="#fff7f7"/><path d="M111.56,129.36c-.15-.21-.3-.43-.46-.64-.15-.2-.31-.4-.44-.62-.08-.14.02-.23.12-.34.16-.16.35-.29.55-.4.19-.11.4-.19.61-.24.25-.07.51-.1.69-.3.16-.17.19-.4.22-.62.04-.27.09-.55.13-.82.07-.42-.58-.53-.64-.11l-.14.85c-.01.07-.02.22-.06.26-.04.04-.2.06-.27.08-.51.11-.99.34-1.39.68-.37.32-.69.74-.42,1.24.12.22.29.42.43.63.17.24.34.48.52.72.24.34.78-.03.53-.38h0Z" fill="#fff7f7"/><path d="M123.14,131.18c.33-.25.45-.64.67-.96.05-.08.08-.12.14-.16-.03.02.04-.02.05-.02-.03,0,.04,0,.05,0,.13.02.25.16.36.27.3.3.63.53,1.08.49.42-.04.81-.29.99-.68.18-.38-.42-.65-.59-.27-.1.22-.4.36-.64.29-.16-.05-.28-.18-.39-.3-.14-.14-.28-.27-.45-.36-.39-.2-.83-.05-1.08.29-.2.27-.31.69-.57.88-.34.25.04.79.38.53h0Z" fill="#fff7f7"/><path d="M131.59,121.01c1.1-1.56,2.88-2.47,3.93-4.07.95-1.46,1.34-3.18,1.65-4.87.08-.41-.57-.53-.64-.11-.3,1.67-.68,3.42-1.69,4.83-1.05,1.47-2.71,2.34-3.75,3.81-.24.34.26.76.5.42h0Z" fill="#fff7f7"/><path d="M126.49,120.83c-1.83-1.24-.43-3.87-.23-5.56.21-1.76-.01-3.52-.2-5.27-.2-1.85-.19-3.61.03-5.46.2-1.65.36-3.35-.36-4.9-.18-.38-.79-.16-.62.22.82,1.77.42,3.7.22,5.56-.2,1.83-.03,3.63.17,5.46.2,1.92.32,3.81-.16,5.7-.4,1.59-.88,3.65.74,4.76.34.23.76-.27.42-.5h0Z" fill="#fff7f7"/><path d="M126.06,93.66c-.41-1.44-.6-2.94-.57-4.43.03-1.31.34-2.7-.38-3.89-.22-.36-.75.02-.53.38.34.57.38,1.25.35,1.9-.03.68-.1,1.36-.09,2.05,0,1.43.22,2.85.61,4.22.11.41.73.18.62-.22h0Z" fill="#fff7f7"/><path d="M120.37,124.87c1.57-1.61,1.15-3.99.6-5.95-.34-1.22-.68-2.42-.66-3.69.02-1.09.25-2.16.51-3.21.49-2,1.14-4.02.98-6.11-.09-1.2-.51-2.32-.85-3.46-.35-1.18-.59-2.38-.7-3.6-.26-2.75.09-5.54,1.02-8.14.14-.39-.45-.67-.59-.27-.75,2.12-1.15,4.34-1.16,6.59,0,2.39.52,4.61,1.21,6.88.37,1.2.53,2.37.4,3.63-.11,1.02-.35,2.02-.6,3.01-.5,1.98-1.08,4.02-.79,6.08.35,2.46,2.23,5.67.12,7.84-.29.3.21.72.5.42h0Z" fill="#fff7f7"/><path d="M80.93,81.91c.32-1.44,1.02-2.78,2-3.88.28-.31-.22-.73-.5-.42-1.06,1.18-1.8,2.63-2.14,4.18-.09.41.55.52.64.11h0Z" fill="#fff7f7"/><path d="M118.89,73.88c1.31.99,2.49,2.14,3.49,3.44.79,1.03,1.6,2.26,1.38,3.62-.07.42.58.53.64.11.23-1.42-.47-2.73-1.28-3.84-1.07-1.46-2.36-2.76-3.81-3.84-.34-.25-.75.25-.42.5h0Z" fill="#fff7f7"/><path d="M115.2,116.41c.33-.75.67-1.53.75-2.36.08-.89-.2-1.69-.6-2.47-.79-1.54-1.53-3.15-1-4.91.12-.4-.52-.51-.64-.11-.47,1.55-.03,3.2.69,4.6.4.78.9,1.57.91,2.48.02.88-.36,1.71-.71,2.5-.17.38.42.66.59.27h0Z" fill="#fff7f7"/><path d="M105.96,119.59c.33-1.03.76-2.02,1.28-2.96.08-.15,0-.36-.16-.43-.17-.08-.35,0-.43.16-.52.95-.94,1.94-1.28,2.96-.05.17-.01.35.16.43.15.07.38,0,.43-.16h0Z" fill="#fff7f7"/><path d="M99.71,72.27c.27-.04.53-.08.8-.13,2.78-.5,19.47-3,22.43,8.49,3.23,12.54-21.67,14.95-28.32,12.92-6.65-2.04-13.26-3.72-11.88-12.47.97-6.18,14.46-8.44,16.98-8.81Z" fill="#fff7f7"/><path d="M99.28,90.51c-6.56,0-9.79-4.56-11.14-7.31-1.04-2.13-.42-4.65,1.47-6.01h0c3.19-2.29,7.65-3.34,9.79-3.36,3.14-.02,6.49.19,13.13,2.95,3.09,1.29,4.8,3.53,4.67,6.16-.11,2.22-1.57,4.33-3.41,4.9-.65.2-1.2.42-1.79.65-2.14.85-4.57,1.82-12.38,2.01-.12,0-.24,0-.35,0ZM90.22,78.04h0c-1.45,1.04-1.94,3.06-1.14,4.7,1.54,3.14,4.61,6.85,10.52,6.72,7.62-.19,9.86-1.08,12.02-1.93.58-.23,1.18-.47,1.87-.68,1.42-.44,2.59-2.17,2.68-3.95.06-1.27-.38-3.63-4.03-5.14-6.46-2.69-9.71-2.89-12.72-2.87-1.95.01-6.22,1.03-9.19,3.16Z"/><path d="M100.9,86.54c-3.42,0-5.1-2.37-5.8-3.8-.58-1.18-.23-2.58.82-3.33,1.64-1.18,3.94-1.72,5.05-1.73,1.59-.01,3.31.09,6.67,1.49,2.35.98,2.53,2.66,2.5,3.33-.06,1.22-.87,2.37-1.89,2.69-.31.1-.59.21-.88.32-1.09.43-2.33.93-6.28,1.02-.06,0-.12,0-.19,0ZM101.26,78.72c-.1,0-.19,0-.28,0-.98,0-3.07.54-4.45,1.53h0c-.62.45-.83,1.32-.49,2.02.74,1.5,2.23,3.29,5.02,3.21,3.76-.09,4.86-.53,5.92-.95.29-.12.6-.24.95-.35.54-.17,1.11-.86,1.15-1.74.05-.98-.61-1.8-1.85-2.32-3.18-1.32-4.81-1.42-5.97-1.42Z"/><path d="M101.98,83.9c-.99,0-1.79-.52-2.26-1.47-.27-.55-.11-1.2.38-1.55.58-.41,1.41-.64,1.89-.64.57-.01,1.18.03,2.37.53.69.29,1.08.83,1.05,1.45-.03.56-.4,1.07-.88,1.22-.1.03-.18.06-.27.1-.39.16-.84.33-2.23.37-.02,0-.05,0-.07,0ZM102.11,81.28s-.07,0-.1,0c-.27,0-.89.16-1.29.45h0c-.07.05-.1.16-.05.24.29.6.76.9,1.36.88,1.2-.03,1.54-.16,1.87-.29.11-.04.22-.09.35-.13.04-.02.14-.13.14-.28,0-.21-.22-.35-.41-.43-1-.42-1.49-.45-1.87-.45Z"/></svg>