<?xml version="1.0" encoding="UTF-8"?><svg id="Layer_1" xmlns="http://www.w3.org/2000/svg" viewBox="0 0 207.21 203.87"><path d="M134.44,106.63c-.06-.13-2.75-2.02-6.67-3.4-2.05-.92-8.91-2.85-11.88-3.05-.19-.36-.41-.71-.68-1.01-2.41-2.28-3.7-1.85-7.53-1.28-1.11.23-2.14.74-3.2,1.13.17-.43.31-.87.44-1.31.53-1.83,1.18-2.59,1.66-3.88,0-.01,0-.02.01-.04.02-.05.04-.1.05-.15.03-.1.08-.24.19-.54h0c.2-.57.47-1.42.79-2.4,0,0,0,0,.01.01.09-.29.18-.57.27-.86,0,0,0,0-.01-.01.38-1.17.79-2.47,1.17-3.68.03-.08.06-.16.08-.25,0,0,0,0,0,0,.79-2.48,1.44-4.59,1.44-4.59.32-1.38.96-5.97,1.05-7.59-.03-.48.25-1.3.03-1.77-.02-.08-.08-.15-.18-.22-.04-.02-.08-.03-.12-.04,0,0,0,0,0,0-.04,0-.07,0-.11,0,0,0,0,0-.01,0-.03,0-.07.02-.1.03,0,0,0,0-.01,0-.03.02-.06.03-.1.06,0,0-.01,0-.02.01,0,0-.01,0-.02.01,0,0,0,0,0,0-.41.34-.7,1.26-.95,1.59-.55.96-2.03,4.16-2.25,5.24-1.1-2.05-2.09-4.24-3.52-4.57-.07-.02-.14-.03-.2-.03,0,0-.02,0-.02,0-.06,0-.12,0-.17,0,0,0,0,0-.01,0-.72.07-1.08.82-1.13,1.73-.1,1.04.24,2.03.42,3.04-1.44-1.17-2.58-1.54-3.34-1.28-.22.06-.42.18-.58.36,0,0,0,.01,0,.02-.75.88-.6,2.97.73,5.67-.75-.8-2.32-1.66-3.44-1.23-.1.04-.19.08-.27.14-1.33.91.11,3.91.47,4.85.35.97.97,1.8,1.53,2.66-1.18-.37-2.65-.43-3.43.32,0,0,0,0,0,0-.05.05-.09.1-.13.15-.02.02-.03.04-.04.06-.03.04-.06.09-.09.14-.01.02-.03.04-.04.06-.04.07-.07.14-.1.22-.43,1.15.1,3.91,2.37,5.92-.45.04-.82.32-1.08.7,0,0,0,0,0,0,0,0,0,.01-.01.02-.02.04-.05.07-.07.11,0,0-.01.02-.02.03-.03.05-.05.09-.07.14,0,.01-.01.03-.02.04-.02.04-.03.08-.05.11,0,.01-.01.03-.02.04-.02.05-.03.1-.05.15-.42,1.53,1.27,2.8,2.55,3.75,0,0-1.98.94-3.02,1.35,0-.2.01-.41.02-.62,0,0,0,0,0,0,.02-1.04,0-.93,0-.92,0,0,0,0,0,0-.02-.69-.06-1.42-.13-2.2,0-.05-.01-.19-.05-.47-.12-1.18-.29-2.44-.52-3.74.02,0,.03,0,.05.01-.06-.28-.12-.55-.19-.82-.18-1-.4-2.02-.63-3.04,0,0,.01,0,.02,0-.05-.2-.1-.39-.15-.59-.21-.86-.43-1.71-.67-2.55,0,0,0,0,0,0-.12-.43-.24-.85-.38-1.27,0,0,0,0,0,0-.73-2.36-1.58-4.55-2.52-6.3-.64-1.4-1.22-2.88-1.92-4.24-.03-.02-.06-.04-.09-.06-.02,0-.03-.02-.05-.02-.01,0-.02,0-.03-.01-.02,0-.04-.01-.06-.02,0,0,0,0,0,0-.12-.02-.21.02-.29.1,0,0-.02.02-.03.02,0,0,0,0,0,0-.13.14-.2.39-.21.64-.42,2.57-.28,4.78.1,6.35-.8-.51-1.7-.77-2.59-1.04-.54-.08-1.11.17-1.47.59h0s0,0,0,.01c-.04.04-.07.09-.11.14,0,0,0,0,0,.01-.03.05-.07.1-.09.16,0,.02-.02.04-.02.05-.02.04-.03.08-.05.12,0,.02-.01.04-.02.07-.01.04-.02.07-.03.11,0,.01,0,.02,0,.04,0,0,0,0,0,0-.02.08-.03.16-.03.24.09,1.12.63,2.17,1.16,3.14.54.72,1.21,1.33,1.79,2.02-.59-.05-1.2-.21-1.79-.09-.64.17-1.14.46-1.43.87,0,0,0,0,0,0,0,0,0,.01-.01.02-.01.02-.03.04-.04.06-.02.03-.04.06-.06.1-.01.02-.02.04-.03.06-.02.04-.03.07-.05.11,0,.02-.02.04-.02.07-.01.04-.02.08-.03.12,0,.02-.01.05-.02.07,0,.02,0,.04-.01.05,0,0,0,0,0,0-.05.3-.02.64.1,1.01.45,1.48,1.97,2.62,3.14,3.55-1.21-.08-3.3-.38-3.61.77,0,0,0,0,0,.01-.03.11-.04.24-.03.38,0,0,0,.01,0,.02,0,0,0,0,0,0,0,.09.02.18.04.27.4,1.37,1.61,2.32,2.91,2.78-.36,0-.71.09-1.06.16-.68.04-1.43.02-1.86,1.1-.38.95.16,1.92,1.02,2.52,1.33.82,4.77,1.87,6.18,2.25-.79.35-1.7.67-2.83,1.4-5.05,3.24-6.78,7.74-8.86,10.89-.88,1.16-1.58,2.43-2.35,3.66-.81,1.09-1.42,2.3-1.93,3.55-.69,1.31-.19,3.45,1.51,3.52,1.12-.08,1.78-1.18,2.46-1.96-1,3.35,1.08,4.16,3.3,1.74-.27.85-.45,2.1.59,2.48,1.11.41,2.13-.44,2.66-1.36-.31.99-.17,2.63,1.13,2.72,1.58.03,1.9-1.95,2.94-4.61,1.6-3.62,2.08-4.67,2.92-5.53.95-.77,2.02-1.39,3.17-1.82,1.03-.48,2.04-1.02,3.12-1.39,1.32-.22,2.56-.69,3.79-1.21,6.85-2.48,6.79-3.12,10.64-5.63,2.43-2.01,4.64-4.72,5.15-7.79.08-.52.24-1.38.14-1.41.14.04,10.86,2.31,11.33,2.44.58.16,3.91,1.01,4.5,1.13.73.13,2.2.78,2.02.28ZM114.96,100.19c-.26.04-.42.12-.46.26.04-.15.09-.24.46-.26Z"/></svg>