<?xml version="1.0" encoding="UTF-8"?><svg id="Layer_1" xmlns="http://www.w3.org/2000/svg" viewBox="0 0 207.21 203.87"><path d="M56.89,109.72c3.28-3.94,20.04-25.87,22.99-30.3,2.95-4.43,7.22-1.48,10.99-.66,3.77.82,9.51.33,12.13-3.61,2.62-3.94,5.25-5.41,8.69-4.76,3.44.66,33.53,14.21,38.62,14.05,0,0-1.56,3.99-11.89,6.29-10.33,2.3-20.17-.66-23.78.82-3.61,1.48-5.25,6.07-10.33,7.05-5.08.98-11.64-1.97-14.76.16-3.12,2.13-6.56,7.71-14.1,10.33-7.54,2.62-18.57.62-18.57.62Z"/><path d="M104.98,106.8c-19.68,6.07-48.08,2.92-48.08,2.92,0,0,7.58,3.81,14.47,10.04,6.89,6.23,17.22,16.4,36.08,13.28,18.86-3.12,26.89-9.18,29.03-16.07,2.13-6.89,9.59-29.08,13.86-32.52,0,0-25.66,16.29-45.34,22.36Z"/><line x1="86.94" y1="101.06" x2="89.23" y2="109.43" fill="none" stroke="#000" stroke-linecap="round" stroke-linejoin="round" stroke-width="2.44"/><line x1="103.23" y1="98.27" x2="106.23" y2="106.91" fill="none" stroke="#000" stroke-linecap="round" stroke-linejoin="round" stroke-width="2.44"/><line x1="119.08" y1="91.39" x2="122.52" y2="99.91" fill="none" stroke="#000" stroke-linecap="round" stroke-linejoin="round" stroke-width="2.44"/><line x1="134.49" y1="91.39" x2="135.97" y2="94.5" fill="none" stroke="#000" stroke-linecap="round" stroke-linejoin="round" stroke-width="2.44"/><line x1="77.59" y1="108.44" x2="78.41" y2="110.74" fill="none" stroke="#000" stroke-linecap="round" stroke-linejoin="round" stroke-width="2.44"/><path d="M98.89,115.76c4.96-1.27,9.86-2.78,14.67-4.52" fill="none" stroke="#000" stroke-linecap="round" stroke-linejoin="round" stroke-width="2.44"/><path d="M81.94,83.8c.54-1.6,2.48-2.37,4.15-2.15,1.68.22,3.15,1.19,4.55,2.13" fill="none" stroke="#000" stroke-linecap="round" stroke-linejoin="round" stroke-width="2.44"/><path d="M108.76,74.55c2.76.24,5.46,1.18,7.76,2.72" fill="none" stroke="#000" stroke-linecap="round" stroke-linejoin="round" stroke-width="2.44"/></svg>