<?xml version="1.0" encoding="UTF-8"?><svg id="Layer_1" xmlns="http://www.w3.org/2000/svg" viewBox="0 0 207.21 203.87"><path d="M128.37,81.77c-.11-.26-.26-.51-.45-.73-.21-.24-.45-.46-.72-.64-.04-.04-.07-.08-.11-.12-.2-.23-.4-.49-.6-.73-.28-.34-.56-.67-.86-.98-.34-.35-.69-.69-1.03-1.04-.34-.34-.68-.69-1.03-1.01-.37-.35-.75-.7-1.12-1.05-.36-.34-.71-.69-1.05-1.04-.36-.37-.71-.74-1.06-1.11-.36-.38-.72-.76-1.07-1.15-.35-.39-.7-.77-1.06-1.15-.34-.36-.68-.73-1.03-1.09-.36-.37-.72-.74-1.09-1.1-.36-.36-.73-.69-1.11-1.02-.38-.33-.77-.64-1.17-.95-.42-.33-.86-.63-1.3-.93-.42-.28-.86-.55-1.3-.8-.44-.26-.89-.5-1.34-.73-.22-.11-.44-.22-.66-.32-.24-.11-.49-.21-.74-.31-.22-.09-.45-.17-.67-.25-.13-.05-.26-.1-.4-.14-.13-.04-.26-.08-.4-.12-.06-.02-.12-.03-.19-.05-.06-.02-.12-.03-.18-.05-.12-.03-.24-.06-.36-.08-.13-.03-.26-.06-.4-.08-.13-.03-.26-.05-.4-.07-.25-.05-.5-.08-.75-.12-.24-.03-.47-.06-.71-.08-.13-.01-.26-.02-.39-.03-.08,0-.16,0-.24,0-.05,0-.09,0-.14,0-.13,0-.26,0-.4.01-.12.01-.25.02-.37.04-.14.02-.28.04-.42.07-.04,0-.09.01-.13.02-.08.02-.15.04-.23.06-.25.06-.49.15-.73.24-.23.08-.46.18-.69.28-.11.05-.22.09-.32.14-.08.04-.16.08-.24.11-.04.02-.08.04-.12.06-.13.07-.27.14-.4.21-.09.05-.18.1-.27.16-.1.06-.21.12-.31.19-.12.08-.24.16-.35.24-.13.08-.25.18-.37.27-.1.07-.19.15-.28.22-.2.16-.39.33-.58.49-.78.69-1.49,1.45-2.18,2.23-.67.76-1.33,1.54-1.93,2.36-.31.42-.62.85-.91,1.29-.29.43-.57.88-.84,1.32-.53.85-1.06,1.71-1.55,2.59-.51.93-1.02,1.86-1.54,2.78-.5.88-1.03,1.73-1.58,2.58-.39.59-.8,1.18-1.21,1.78-.4.59-.81,1.18-1.2,1.77-.29.43-.58.86-.85,1.3-.28.45-.55.9-.83,1.36-.27.45-.53.89-.79,1.34-.26.45-.51.9-.74,1.36-.23.45-.44.91-.67,1.37-.21.43-.44.85-.64,1.29-.19.44-.36.88-.5,1.34-.04.12-.07.24-.11.36-.02.08-.05.17-.07.25,0,.04-.02.09-.02.13-.03.12-.06.24-.09.36-.03.14-.06.29-.07.43-.02.13-.03.27-.03.41,0,.14.02.28.06.41.04.12.07.23.14.33.13.23.31.43.52.59.26.19.55.34.86.45.2.07.39.13.59.19.14.04.27.08.41.11.16.03.32.07.48.1.11.02.23.04.35.06.12.02.23.05.35.06.27.04.53.08.8.11.3.03.6.06.89.09.11.01.22.02.33.03.14.01.28.02.42.03.25.01.5.03.74.04.17,0,.34,0,.51.01.03,0,.07,0,.1,0,.1,0,.19,0,.29,0,.28,0,.56,0,.84-.02.23,0,.46-.02.69-.03.29-.01.59-.02.88-.04.54-.02,1.09-.04,1.63-.06.51-.02,1.03-.02,1.54-.05.53-.03,1.07-.06,1.6-.11.1,0,.21-.02.32-.03.93-.08,1.87-.24,2.78-.43.95-.2,1.88-.49,2.79-.83.34-.13.68-.27,1.02-.41.09-.04.18-.08.27-.12-.58,1.15-1.05,2.35-1.4,3.58-.09.48-.87,2.14-.3,2.38,1.19,0,2.38-.49,3.37-1.14.51.19.95.28,1.36.28,0,.07,0,.14,0,.2,0,1.23.03,2.45-.05,3.67-.13,1.94-.41,3.87-.57,5.81-.26,2.71-.46,5.43-.9,8.11-.59,3.65-1.5,7.24-2.54,10.78-1.69,5.68-5.18,11.3,3.83,11.5.16,0,.32.02.47.02,0,0,0,.01.01.02,0,0,.02,0,.03,0,.02,0,.04,0,.05-.02,0,0,0,0,0,0,4.13.05,6.27-2.2,6.39-6.48,0-2.39-.22-4.78-.29-7.16-.17-3.16-.45-6.32-.35-9.5.14-5.43.05-10.85.13-16.28-.07-.96-.11-1.92-.29-2.87.22-.2.44-.43.66-.67.96.23,2.01.24,2.9-.22.28-.16.63-.33.72-.66.02-.1-.05-.2-.11-.27-.3-.38-.65-.73-.98-1.08-.78-.79-1.57-1.56-2.42-2.27.03,0,.07-.02.1-.02.35-.07.71-.14,1.07-.22.39-.09.76-.2,1.14-.32.41-.13.81-.26,1.21-.4.38-.13.76-.27,1.13-.42.49-.19.97-.39,1.45-.61.48-.21.95-.44,1.42-.67.49-.24.97-.49,1.46-.75.46-.24.91-.48,1.36-.73.94-.5,1.88-1,2.8-1.53.23-.13.45-.27.68-.41.11-.07.22-.14.33-.22.11-.07.21-.14.32-.22.41-.3.81-.6,1.19-.94,0,0,0,0,.01-.01,0,0,.01-.01.02-.02t0,0s.04-.04.07-.06c0,0,0,0,0,0,0,0,.01-.01.02-.02,0,0,0,0,.01-.01h0s.03-.03.05-.05c.02-.02.04-.03.06-.05.16-.15.32-.31.47-.46.14-.14.27-.29.4-.44.14-.16.27-.33.39-.5.11-.17.23-.34.33-.51.11-.2.23-.4.31-.61.1-.27.16-.55.16-.83,0-.31-.05-.62-.17-.91ZM93.43,69.99c.22-.29.45-.58.68-.86.21-.25.42-.5.63-.75.21-.24.42-.48.63-.72.21-.23.42-.45.63-.67.14-.08.29-.15.44-.21.88-.4,1.86-.5,2.77-.85,1.03-.41,2.1-.69,3.2-.81.37-.03.74-.04,1.11-.04.1,0,.19,0,.29,0,.39,0,.78,0,1.17-.02.98-.04,1.94-.31,2.92-.33.96-.03,1.91.22,2.82.5.09.05.18.1.26.15.44.25.88.52,1.31.8.25.17.49.33.73.51.1.07.2.15.3.22-.07-.03-.14-.05-.2-.07-1.65-.6-3.4-.24-5.09,0-.88.13-1.76.12-2.64.12-.32,0-.65,0-.97,0-1.8.02-3.49.68-5.21,1.14-1.75.37-3.54.71-5.09,1.65-.38.21-.73.45-1.07.72.12-.17.24-.33.37-.49ZM88.32,78.33c.26-.44.5-.89.75-1.34.33-.59.65-1.18.98-1.76.06-.06.11-.11.17-.16.77-.72,1.62-1.38,2.57-1.85,2.69-1.13,5.54-1.95,8.43-2.41,1.94-.22,3.76-.96,5.68-1.25,1.08-.15,2.17-.12,3.25-.19,1.11-.07,2.22-.29,3.34-.29.21,0,.43,0,.64.03.8.07,1.62.25,2.34.62.28.28.55.56.82.85.35.37.7.73,1.04,1.1.11.12.22.23.32.35-.01,0-.02-.01-.04-.02-3.08-1.09-6.35-.02-9.48.22-1.95.05-3.86.46-5.77.84-1.02.17-2.06.28-3.07.55-.99.26-1.94.67-2.9,1.02-2.19.66-4.42,1.23-6.45,2.33-1.14.54-2.17,1.28-3.1,2.13.15-.25.3-.51.45-.77ZM83.84,85.21c.65-.99,1.32-1.98,1.99-2.96.01-.02.02-.03.03-.05.35-.29.72-.55,1.1-.78,1.91-1.16,4.11-1.69,6.22-2.36,2.16-.62,4.13-1.8,6.35-2.22,1.2-.27,2.45-.25,3.66-.48,1.96-.46,3.88-1.08,5.9-1.29.75-.11,1.51-.14,2.27-.14.65,0,1.3.02,1.96.04,1.58.04,3.13-.19,4.7-.33,1.2-.15,2.41.02,3.53.44.36.35.71.7,1.08,1.04.36.33.72.66,1.06,1,.16.16.32.31.47.47-1.17-.61-2.56-.78-3.87-.79-1.57,0-3.12.26-4.68.4-1.37.13-2.74.13-4.11.12-1.11,0-2.23.09-3.31.37-1.28.33-2.52.82-3.81,1.13-1.97.48-4,.72-6,1.02-1.49.22-2.91.76-4.22,1.51-1.05.58-2.14,1.1-3.3,1.42-1.27.36-2.59.56-3.8,1.12-1.04.49-2.07,1.04-3.04,1.65-.27.18-.54.37-.78.59.19-.31.39-.63.59-.94ZM98.2,136.07c.49-2.26,1.44-4.38,2.06-6.61,1.56-5.26,2.72-10.64,3.13-16.12.25-3.51.88-6.98.86-10.51.01-.6-.02-1.2,0-1.79.17-.02.33-.06.49-.12,0,.03,0,.07,0,.1.06,1.21.13,2.42.12,3.63.06,6.98-1.08,13.91-2.7,20.68-.53,2.26-1.27,4.46-1.9,6.7-.72,2.63-1.7,5.93.09,8.3-1.78-.59-2.67-1.93-2.17-4.26ZM101.98,140.65c-.51-.05-.99-.14-1.42-.26-1.31-1.56-1.21-3.84-.82-5.74.65-3.03,1.75-5.94,2.47-8.95,1.68-6.95,2.87-14.08,2.79-21.25,0-1.18-.08-2.36-.12-3.54,0-.01,0-.03,0-.04.26-.1.51-.23.77-.38.09,1.2.14,2.41.2,3.62.12,3.54.18,7.1-.24,10.62-.42,3.34-1.26,6.62-2.05,9.89-.79,3.36-1.77,6.69-2.09,10.14-.21,1.98-.34,4.15.74,5.91-.08,0-.15-.02-.22-.03ZM102.36,140.7c-.56-.9-.87-1.96-.9-3.02-.1-4.43,1.2-8.72,2.21-12.98.8-3.37,1.68-6.74,2.08-10.19.39-3.46.33-6.94.21-10.41-.05-1.11-.11-2.21-.18-3.32,0-.11-.01-.22-.02-.34.25-.16.5-.33.77-.53-.03,1.08-.05,2.18-.03,3.26.04,3.44.05,6.88-.1,10.32-.22,3.14-.66,6.27-1.18,9.38-.65,3.72-1.53,7.4-1.8,11.18-.25,2.25-.34,4.64.54,6.76-.54,0-1.08-.05-1.6-.1ZM104.08,140.8c-.93-2.33-.77-4.87-.49-7.31.28-3.43,1.07-6.78,1.67-10.16.55-3.25,1.02-6.52,1.25-9.8.14-3.21.13-6.43.11-9.64-.03-1.13-.03-2.24,0-3.37-.01-.03.02-.41.02-.69.05-.04.11-.08.17-.12.33.09.63.13.9.13,0,.42,0,.83-.02,1.25-.18,3.38.07,6.77.1,10.15-.04,3.21-.41,6.41-.79,9.6-.44,3.56-.52,7.16-.99,10.72-.22,1.84-.58,3.65-.97,5.46-.29,1.26-.46,2.55-.82,3.79-.05,0-.1,0-.15,0ZM104.36,140.8s.01-.05.02-.07c.33-1.29.54-2.6.83-3.9,1.15-4.8,1.31-9.74,1.77-14.63.39-3.53.86-7.06.94-10.62,0-3.54-.28-7.08-.09-10.62,0-.38.02-.76.01-1.14.19,0,.36-.03.53-.08,0,.12.02.24.02.36.04,1.32.06,2.65.07,3.97-.15,4.29.17,8.58.16,12.87,0,3.97-.4,7.93-.83,11.88-.33,4-.63,8.23-2.32,11.88.1.04.12-.09.17-.16.68-1.2.97-2.56,1.27-3.89.59-2.55.8-5.17,1-7.77.43-3.97.83-7.95.84-11.95.02-4.29-.3-8.57-.16-12.86,0-1.15-.03-2.31-.05-3.46,0-.3-.02-.6-.04-.9.18-.06.35-.13.51-.22.08.43.12.86.14,1.3.11,2.03-.01,4.07.02,6.1.04,1.69.15,3.39.13,5.08-.06,3.52-.2,7.04-.2,10.56-.02,3.86.11,7.71-.22,11.56-.17,1.85-.5,3.71-1.16,5.45-.1.22-.2.43-.29.65-.92.43-1.99.59-3.06.61ZM110.1,130.81c.12,2.48.5,5.13-.67,7.43-.43.87-1.07,1.47-1.84,1.87.27-.61.53-1.23.68-1.88.49-1.86.76-3.76.81-5.68.2-3.02.13-6.04.11-9.06,0-4.06.17-8.13.22-12.19,0-1.51-.11-3.02-.13-4.54-.03-2.07.1-4.15-.03-6.22-.02-.37-.06-.75-.13-1.11.13-.08.26-.17.38-.27.04.22.06.44.09.66.34,2.6.04,5.22.1,7.83,0,2.72.04,5.45-.02,8.17-.05,2.28-.12,4.55.01,6.83.17,2.72.34,5.44.44,8.16ZM128.18,82.75h0v.02c0,.07-.02.15-.03.24-.02.07-.03.14-.05.21-.03.1-.07.2-.11.3h0c-.12.25-.26.49-.4.72-.04.06-.1.15-.16.23-.04.06-.09.12-.13.18-.1.12-.2.24-.3.37-.13.14-.25.28-.38.41-.12.12-.24.24-.37.36,0,0-.01,0-.02.01,0,0,0,0-.02.02,0,0-.01.01-.02.02,0,0,0,0,0,0-.02.02-.04.04-.06.05,0,0-.02.02-.03.02,0,0,0,0-.01.01h0s-.03.03-.05.05c-.02.02-.04.03-.06.05h0c-.09.08-.19.17-.29.24-.12.1-.25.2-.38.3-.25.19-.5.37-.75.55-.13.09-.26.17-.39.25-.91.57-1.85,1.06-2.79,1.57-.92.49-1.85.99-2.78,1.47-.71.36-1.43.72-2.18,1.05-.75.33-1.51.63-2.28.91,0,0,0,0-.01,0,0,0,0,0,0,0-.46.16-.93.31-1.4.46-.43.13-.85.25-1.29.35-.21.04-.42.08-.62.12-.16.03-.32.07-.48.1-.03,0-.07.01-.1.02-.17-.13-.34-.27-.51-.39.21-.06.43-.13.64-.2.56-.18,1.13-.36,1.69-.56,1.42-.49,2.83-1.03,4.21-1.64,1.38-.61,2.74-1.28,4.02-2.09.33-.21.65-.42.96-.65.31-.23.62-.48.9-.74.27-.26.52-.53.74-.83.21-.29.38-.61.46-.96.07-.31.04-.64-.09-.93-.15-.32-.39-.56-.68-.76-.03.03-.06.06-.09.1-.06.07-.12.13-.18.2-.07.08-.15.16-.22.23-.06.07-.13.13-.19.2-.07.07-.14.13-.2.2-.06.06-.13.12-.19.19-.07.07-.15.14-.22.21-.13.12-.26.24-.39.35-.16.13-.31.27-.47.4-.14.12-.29.24-.44.36-.07.06-.15.12-.22.18-.08.06-.16.12-.24.18-.07.05-.14.1-.2.16-.06.05-.12.1-.18.14-.17.12-.34.24-.51.36-.14.1-.29.2-.43.29-.16.1-.31.21-.47.3-.16.1-.31.19-.47.29-.08.05-.15.09-.23.14-.09.05-.18.11-.27.16-.38.23-.76.44-1.14.66-.41.23-.82.46-1.22.69-.38.21-.76.43-1.14.64-.4.23-.79.45-1.19.68,0,0,0,0,.01,0-.1.06-.21.12-.31.18-.1.06-.2.12-.3.18-.19.12-.37.24-.56.36-.19.13-.38.26-.57.4-.2.15-.41.31-.61.46h0s0,0,0,0c0,0,0,0,0,0-.04.03-.07.06-.11.09,0,0,0,0,0,0-.15.12-.3.24-.44.36-.02.01-.03.02-.04.03.32.21.62.45.91.7,0,0,0,0,0,0,0,.01.02.02.03.03,0,0,.01,0,.02.01.19.16.37.32.56.47,1.06.95,2.14,1.95,3.05,3.05-.82.79-2.1.79-3.15.55-.03,0-.06-.01-.09-.01,0,0-.01,0-.02,0-.13-.47-.77-1.42-.85-1.63-.73-1.2-1.33-2.47-2.09-3.65.11,0,.21.01.32.02,0,0,0-.02.01-.03.04-.09.1-.18.16-.26.07-.11.14-.22.22-.33.15-.22.3-.45.45-.68.3-.46.61-.93.92-1.39.31-.47.61-.94.91-1.41,0,0,0,0,0,0,.18-.29.36-.58.53-.87.09-.15.17-.3.25-.44.09-.16.18-.33.27-.49,0,0,0,0,0,0,0,0,0,0,0,0,0,0,0,0,0,0h0c.06-.11.12-.22.17-.33.07-.13.13-.26.2-.39.13-.26.24-.52.36-.78t0,0s0,0,0,0h0s0,0,0,0c0,0,0,0,0,0h0c.1-.25.21-.49.3-.74.09-.25.17-.5.26-.75h0c.06-.19.12-.38.17-.57.04-.14.08-.28.11-.42-.75.06-1.5.14-2.25.23-.18.02-.35.04-.53.07,0,.08-.02.17-.03.25-.02.17-.05.33-.08.5-.03.17-.07.34-.11.51-.02.09-.05.19-.07.28-.02.09-.05.18-.07.26-.05.18-.11.37-.17.55-.23.7-.47,1.39-.72,2.08-.24.67-.49,1.34-.75,2-.09.22-.18.45-.26.67-.22.56-.45,1.11-.69,1.66-.12.27-.24.54-.36.81,0,0-.01.02-.02.03.07,0,.14,0,.22,0h0c.49.75.92,1.55,1.34,2.33.53,1.02,1.23,1.97,1.66,3.04-.31.27-.56.59-.87.86-.68.68-1.61.74-2.5.56-.06-.39-.13-.78-.2-1.17-.33-1.81-.66-3.64-1.3-5.37.09-.03.18-.05.28-.07-.01-.05-.03-.11-.04-.16-.1-.36-.19-.72-.27-1.08-.09-.36-.18-.71-.28-1.07-.1-.35-.21-.7-.32-1.05-.11-.36-.23-.71-.34-1.07-.06-.18-.12-.36-.17-.55-.06-.2-.11-.4-.17-.6-.05-.18-.09-.36-.14-.54-.05-.2-.09-.39-.13-.59-.08-.36-.15-.73-.22-1.09-.05-.25-.1-.49-.14-.74-.72.16-1.43.34-2.14.52-.32.08-.64.16-.95.25.02.06.05.12.07.18.13.35.26.69.39,1.04.14.36.29.73.44,1.09.07.17.15.34.23.51.04.08.07.16.11.24.05.09.09.19.14.28,0,0,0,0,0-.01.12.23.25.47.38.7.13.22.26.44.39.66.12.2.24.39.37.59.15.23.31.46.46.68,0,0,0,0,0,0,.1.14.21.28.31.42.11.14.22.29.32.43.1.13.19.26.29.4.1.14.2.28.3.43,0,0,0,0,0-.01.07.1.14.19.21.29.02.03.04.06.07.09.11-.04.22-.07.33-.11.77,2.1,1.1,4.34,1.5,6.54-1.03.6-1.99,1.61-3.31,1.22-.23-.01-.47-.16-.71-.19.17-.69.29-1.4.4-2.11.19-1.45.36-2.93.12-4.38,0-.03-.01-.07-.02-.12.05-.03.09-.06.14-.1-.02,0-.05-.01-.07-.02-.19-.05-.37-.1-.56-.15-.36-.09-.71-.2-1.06-.31-.34-.11-.68-.21-1.02-.32-.33-.11-.67-.22-1-.33-.69-.22-1.4-.43-2.09-.66-.68-.23-1.35-.46-2.02-.73-.12-.05-.25-.1-.37-.15-.14-.06-.27-.12-.41-.17-.13-.05-.25-.11-.37-.17-.13-.06-.26-.12-.38-.18-.24-.11-.48-.23-.71-.35-.11-.06-.22-.12-.33-.17-.13-.07-.26-.14-.38-.22-.25-.14-.49-.3-.73-.45-.23-.15-.46-.31-.69-.46-.21-.14-.41-.28-.61-.43-.99.46-1.96.96-2.89,1.53-.01,0-.05.03-.08.05-.26.16-.51.32-.76.49h0c.06.03.12.06.19.09.08.04.17.08.26.12,0,0-.01,0-.02,0,.13.06.27.11.4.16.07.03.14.05.21.08.08.03.17.06.25.08h0s0,0,0,0c0,0,0,0,0,0h0c.09.02.17.05.25.07.08.02.17.05.25.07.19.05.38.09.58.14.37.08.73.15,1.1.22.72.14,1.45.25,2.18.37.75.12,1.5.25,2.25.38.37.06.74.12,1.11.18.36.06.73.12,1.09.18.59.1,1.18.22,1.77.36.59.14,1.17.29,1.75.45.29.08.57.16.85.24.13.04.27.08.4.12.15.05.3.1.44.16.13.05.26.11.39.17.05.02.09.05.14.08.11-.09.22-.17.33-.25.07.33.08.68.11,1.02.08,1.83-.29,3.66-.62,5.44-.04.02-.09.04-.13.07-.87.6-1.9.96-2.95,1.06.03-.6.27-1.17.44-1.75.47-1.69,1.18-3.32,2.04-4.84.05-.06.1-.11.15-.16-.18-.04-.35-.08-.53-.11-.21-.03-.42-.07-.62-.09-.2-.02-.39-.04-.59-.06-.2-.02-.4-.03-.6-.05-.22-.01-.43-.02-.65-.03h.02c-.18,0-.36,0-.54,0-.18,0-.36,0-.54,0-.37,0-.74,0-1.12.02-.18,0-.37.02-.55.03-.2.01-.4.03-.61.04-.38.03-.77.06-1.15.09-.18.01-.35.03-.53.04-.09,0-.18.01-.26.02-.1,0-.21.01-.32.02-.18,0-.36.01-.55.02-.09,0-.18,0-.28,0-.11,0-.22,0-.32,0-.19,0-.37,0-.56-.01-.19,0-.39-.02-.58-.03-.39-.02-.79-.05-1.18-.09-.29-.03-.58-.06-.87-.1-.28-.03-.55-.07-.82-.11-.59-.08-1.18-.17-1.77-.25-.28-.04-.56-.08-.84-.13-.28-.05-.55-.1-.82-.16-.2-.04-.39-.09-.58-.14,0,.06,0,.13.02.19.01.09.03.19.07.27.03.08.07.16.11.24.09.16.21.3.35.42.14.13.29.24.45.33.33.19.68.34,1.04.45.36.11.73.2,1.11.27.78.14,1.57.22,2.36.26.48.02.96.03,1.44.03.31,0,.63,0,.94-.01,1.12-.03,2.26-.11,3.4-.22,1.44-.14,2.88-.35,4.31-.59.52-.09,1.04-.18,1.56-.28,0,0,0,0,0,0-.05.09-.11.19-.16.28-.06.04-.11.07-.17.11-.02.02-.05.03-.07.05h0s-.02,0-.03.01c-.18.09-.36.17-.55.25-.43.18-.86.35-1.3.5-.35.12-.71.24-1.07.35-.21.06-.41.12-.62.17-.18.05-.36.09-.54.13,0,0,0,0-.01,0h0s-.09.02-.14.03c-.88.19-1.79.34-2.69.42-.1,0-.21.02-.32.03,0,0-.02,0-.02,0-.54.04-1.09.09-1.64.11-.57.02-1.13.04-1.7.05-.54.02-1.08.04-1.62.06-.5.02-1.01.05-1.51.06-.14,0-.29.01-.43.01-.16,0-.32,0-.47,0-.25,0-.51,0-.76-.01-.23-.01-.47-.02-.7-.04-.28-.02-.56-.04-.83-.07-.28-.03-.55-.06-.83-.09-.23-.03-.45-.06-.68-.09-.16-.03-.32-.06-.48-.08-.13-.02-.26-.05-.39-.08-.13-.03-.27-.06-.4-.09-.17-.04-.33-.08-.49-.13-.21-.07-.42-.14-.63-.24-.12-.06-.23-.12-.33-.18-.07-.05-.14-.1-.2-.15-.07-.06-.13-.12-.19-.19-.03-.03-.06-.07-.09-.11-.04-.07-.08-.13-.12-.2-.02-.04-.03-.07-.04-.11,0,0,0,0,0,0,0,0,0-.01,0-.02-.01-.03-.02-.07-.03-.12-.01-.06-.02-.12-.03-.19,0-.07,0-.13,0-.19h0s0-.01,0-.02c0-.11.02-.24.04-.36.04-.24.1-.48.17-.71.07-.22.16-.43.25-.64.08-.16.16-.32.25-.47.06-.1.12-.2.17-.3.09-.13.17-.26.26-.38.07-.1.14-.2.21-.29.07-.1.14-.19.22-.29.09-.12.19-.23.28-.35h0s0-.01,0-.01c.13-.15.26-.31.4-.46.09-.1.19-.21.28-.31.07-.07.14-.14.21-.21.17-.17.34-.34.51-.5.15-.14.3-.28.45-.42h0s0,0,.01-.01c.17-.14.34-.3.51-.44.2-.16.4-.32.6-.48.2-.16.4-.31.6-.46.17-.13.35-.25.52-.37,0,0,0,0,0,0,0,0,0,0,.01,0,.19-.13.38-.26.58-.38.13-.08.27-.17.4-.25.1-.06.2-.12.3-.18.22-.13.45-.26.68-.38.19-.11.39-.21.59-.31.16-.08.33-.16.5-.24.16-.08.32-.14.48-.22.3-.14.6-.26.91-.39.64-.26,1.28-.5,1.93-.73.95-.33,1.91-.64,2.88-.95.93-.3,1.87-.6,2.8-.89,1.02-.32,2.05-.64,3.09-.92.54-.15,1.09-.29,1.64-.43.49-.12.99-.24,1.49-.35.24-.05.48-.1.72-.16.34-.07.7-.14,1.06-.21.37-.07.75-.14,1.12-.21.37-.06.75-.13,1.12-.19.38-.06.75-.12,1.13-.18,1.07-.17,2.15-.31,3.23-.45.53-.07,1.06-.12,1.59-.18.27-.03.53-.05.8-.08.26-.03.51-.05.77-.07.51-.04,1.02-.09,1.53-.12.52-.03,1.03-.06,1.55-.08.55-.02,1.11-.03,1.67-.04.27,0,.53,0,.8,0,.23,0,.46,0,.69.02h0s0,0,.01,0c.2.01.41.02.61.03.11,0,.22.02.34.03.1,0,.19.01.29.02.11.01.22.02.33.04.09.01.19.02.28.03.19.03.39.06.58.09.17.03.33.06.5.09.12.02.24.05.36.08.13.03.26.06.39.09.15.04.3.08.44.12.09.03.17.06.26.09.08.03.16.05.24.08.21.08.42.16.62.26.05.03.11.05.16.08.04.02.07.03.11.05.05.02.11.05.16.08.04.02.08.04.12.07.01,0,.03.02.04.03,0,0,0,0,.01,0,0,0,.02.01.03.02,0,0,0,0,0,0,0,0,.01,0,.02.01.05.03.09.06.14.09.05.03.09.07.13.1.03.02.05.04.07.07.02.02.04.04.06.06,0,0,.02.02.02.02.02.02.03.03.04.04.02.02.03.03.04.05,0,0,.02.02.02.02.02.02.03.04.05.05.03.03.06.07.09.1.03.04.05.07.08.11.02.03.04.06.06.09.07.1.13.21.19.32.03.06.06.13.08.19.03.09.06.19.08.29.01.08.03.16.03.25h0s0,.01,0,.02c0,.07,0,.15,0,.23Z"/><path d="M103.57,93.23c-.09-.04-.18-.08-.26-.12-.08-.04-.15-.08-.22-.11-.09-.05-.18-.1-.27-.15-.18-.1-.36-.21-.53-.32-.15-.1-.29-.19-.44-.29-.15-.1-.3-.21-.45-.32-.33-.23-.65-.48-.95-.73,0,0,0,0,.01.01-.12-.1-.25-.2-.37-.31-.12-.1-.23-.2-.35-.31-.23-.21-.46-.42-.69-.63-.46-.43-.91-.86-1.34-1.31-.39-.41-.76-.83-1.12-1.27-.18-.23-.36-.45-.54-.68-.08-.1-.16-.2-.24-.31,0,0,0-.01-.01-.02-1.29.44-2.57.91-3.82,1.44-.42.18-.84.36-1.26.55.04.03.08.05.12.08,0,0,0,0-.01,0,.34.24.69.47,1.04.7.09.06.17.11.26.17.09.06.18.11.27.17.09.06.19.11.28.17.1.05.19.11.29.16,0,0-.01,0-.02,0,.12.06.24.13.37.19.12.07.25.13.37.19.26.13.53.26.8.38.28.13.57.25.86.37.14.05.27.11.41.16.15.06.3.12.45.17,0,0-.01,0-.02,0,.34.12.68.25,1.02.36.34.11.67.22,1.01.33.36.11.72.22,1.08.33.34.1.67.22,1.01.33.33.11.67.22,1,.32.35.11.71.22,1.06.32.17.05.35.1.52.14.18.05.36.1.54.16.03.01.07.02.1.03.13-.08.26-.15.4-.22-.03-.01-.07-.03-.1-.04-.08-.03-.16-.07-.25-.1Z"/><path d="M86.49,90.71s-.01.01-.02.02c-.32.24-.64.48-.94.75-.28.26-.56.53-.79.83-.11.15-.22.31-.31.48-.05.1-.1.2-.14.31-.03.08-.05.16-.07.24-.01.04-.02.09-.03.14.1.03.21.06.32.08.15.03.3.07.45.1,0,0-.01,0-.02,0,.17.03.33.07.5.1.18.03.36.06.54.09.36.06.71.11,1.07.16,0,0-.01,0-.02,0,.7.1,1.4.2,2.1.29.37.04.73.08,1.1.12.19.02.38.03.57.05.19.01.37.02.56.03h0c.19,0,.37.02.56.02.2,0,.4,0,.6,0,.18,0,.37,0,.55,0,.2,0,.39-.02.59-.02.09,0,.18-.01.26-.02.09,0,.18-.01.26-.02.19-.02.39-.03.58-.05.39-.03.77-.06,1.16-.09.75-.05,1.5-.06,2.25-.07.36,0,.72,0,1.07.02.36.02.73.05,1.09.08.2.02.4.04.61.07.2.02.4.06.6.1.19.04.39.09.58.14h0c.09-.09.17-.17.27-.25-.09-.04-.17-.08-.26-.12-.15-.06-.29-.11-.44-.17-.12-.04-.25-.08-.37-.12-.27-.08-.54-.16-.81-.23-.55-.15-1.1-.29-1.65-.43,0,0,.01,0,.02,0-.16-.04-.32-.08-.48-.12-.08-.02-.16-.03-.24-.05-.09-.02-.19-.04-.28-.06-.35-.07-.69-.14-1.04-.2-.36-.06-.72-.12-1.09-.18-.37-.06-.74-.12-1.11-.17-.75-.12-1.5-.25-2.25-.38-.73-.12-1.45-.24-2.17-.37-.39-.07-.78-.15-1.17-.23-.19-.04-.38-.09-.57-.14-.19-.05-.39-.1-.58-.16-.09-.03-.17-.06-.26-.09-.1-.03-.19-.07-.29-.11-.04-.02-.08-.03-.12-.05-.05-.02-.1-.04-.16-.07-.09-.04-.18-.08-.27-.12-.07-.03-.15-.07-.22-.11-.03-.01-.05-.03-.08-.04Z"/><path d="M100.08,85.05c-1.18.32-2.35.67-3.51,1.05-.18.06-.36.12-.54.18.04.05.09.11.13.16.15.18.29.37.44.55.15.19.31.38.46.56.16.19.32.37.48.55h0s0,0,0,0c.11.11.21.23.32.34.13.13.26.27.39.4.25.26.52.51.78.75.27.26.55.51.83.76.14.12.28.25.42.37.14.12.28.24.43.36,0,0,0,0-.01-.01.15.11.29.23.44.34.15.12.31.23.47.35.14.1.28.2.42.29.14.1.29.19.44.29,0,0,0,0-.01,0,.09.06.19.12.28.18.1.06.21.12.32.18.18.11.38.2.57.29.15.07.31.14.47.2.04.02.07.03.11.05.12-.06.24-.11.37-.16-.02-.02-.03-.04-.05-.06-.05-.07-.11-.14-.16-.22-.11-.15-.21-.3-.32-.45-.2-.28-.41-.55-.62-.83-.22-.29-.43-.59-.64-.9-.2-.29-.39-.59-.57-.89-.2-.33-.4-.66-.58-1-.08-.15-.16-.31-.24-.46-.09-.17-.17-.34-.25-.51-.07-.16-.14-.32-.21-.49-.07-.18-.15-.36-.22-.54-.17-.42-.32-.84-.48-1.27-.05-.14-.11-.28-.16-.42Z"/><path d="M120.46,82.86c-.76-.16-1.54-.24-2.32-.29-.12,0-.24-.01-.37-.02-.01.02-.03.05-.04.07,0,0,0,0,0-.01-.09.15-.19.3-.28.44-.11.17-.22.33-.33.49-.21.31-.43.61-.66.9-.11.13-.21.27-.32.4-.11.14-.23.28-.34.41-.23.27-.46.54-.69.8-.23.26-.47.51-.71.76-.24.25-.49.5-.73.74-.52.52-1.05,1.01-1.59,1.51-.21.2-.42.4-.63.6-.19.19-.38.38-.55.58-.04.05-.08.09-.12.14-.05.06-.1.12-.15.19-.09.12-.19.24-.28.35,0,0,0,0,0-.01-.16.21-.31.41-.47.62-.14.18-.28.36-.43.54-.08.09-.15.18-.23.27-.08.09-.15.17-.23.26-.07.08-.14.16-.22.24.05.03.11.06.16.09.05-.05.1-.09.15-.13.28-.24.58-.47.87-.7.14-.11.28-.21.42-.31.16-.11.31-.22.47-.33.29-.2.59-.38.89-.57.63-.38,1.27-.74,1.91-1.1.64-.36,1.29-.73,1.93-1.1.31-.18.62-.36.93-.54,0,0,0,0-.01,0,.21-.12.41-.24.62-.37.1-.06.21-.13.31-.2.12-.07.23-.14.35-.22.19-.12.37-.25.56-.37.1-.07.21-.15.31-.22.11-.08.23-.16.34-.24.26-.2.52-.39.77-.59.14-.11.27-.22.41-.33.14-.12.28-.24.42-.36,0,0,0,0,0,0,0,0,0,0,0,0,0,0,0,0,0,0,0,0,0,0,0,0h0c.07-.06.13-.11.2-.17.08-.07.15-.14.23-.21.08-.07.15-.14.23-.21.08-.07.15-.14.23-.22.07-.07.14-.14.21-.21.08-.08.15-.16.23-.23.08-.08.15-.16.22-.24.07-.07.14-.15.2-.22,0,0,0,0,0,0,0-.01.02-.02.03-.03-.24-.14-.5-.26-.77-.35-.37-.13-.75-.23-1.13-.31Z"/><path d="M108.79,92.47c.08-.09.15-.17.23-.26.09-.1.17-.2.26-.3.08-.09.15-.19.23-.28.28-.37.56-.74.85-1.11.08-.1.16-.2.24-.29.04-.05.08-.09.12-.14.04-.05.08-.09.12-.14.08-.09.17-.18.26-.27.09-.09.17-.17.26-.26.7-.68,1.42-1.33,2.11-2.02,0,0,0,0-.01.01.03-.03.05-.05.08-.08,0,0,0,0-.01.01.06-.06.11-.11.17-.17.41-.41.81-.83,1.2-1.26.2-.22.39-.44.59-.67.1-.12.2-.23.3-.35.1-.12.19-.23.29-.35h0c.1-.12.19-.24.29-.36.09-.12.18-.24.27-.36.05-.06.09-.13.14-.19.04-.06.09-.12.13-.18.09-.13.18-.26.26-.38.08-.12.16-.24.24-.36.03-.05.07-.11.1-.16-.58-.02-1.16-.02-1.75,0-.79.02-1.57.06-2.36.12-.02.09-.04.17-.06.26-.09.36-.2.71-.31,1.06-.11.35-.24.69-.37,1.02-.07.16-.13.32-.21.48-.08.17-.16.34-.24.51-.07.16-.15.31-.23.47-.08.16-.16.32-.25.48-.08.15-.17.3-.25.45-.09.16-.18.32-.27.47-.36.61-.75,1.2-1.13,1.79-.33.5-.66,1.01-.99,1.51-.16.24-.31.48-.48.72-.16.24-.33.48-.48.72t0,0s-.01.03-.02.04c.08,0,.15.02.23.03.08.03.16.06.24.09,0,0,0,0,0,0h0s0,0,0,0t0,0h0s0,0,0,0t0,0c.08-.08.15-.17.23-.25Z"/><path d="M107.33,83.44c.02.34.04.67.04,1.01,0,.36-.02.72-.03,1.08-.02.36-.05.72-.08,1.07-.03.38-.08.75-.14,1.13-.05.35-.1.69-.14,1.03-.05.35-.1.71-.15,1.06-.05.36-.11.71-.17,1.06-.06.37-.13.74-.19,1.12-.03.18-.06.35-.1.53,0,.03-.01.06-.02.09.13-.02.27-.03.4-.04.11-.24.22-.49.32-.73.12-.28.24-.56.36-.85.24-.59.48-1.18.71-1.77.47-1.22.91-2.45,1.33-3.69,0,0,0,.01,0,.02.09-.29.19-.57.28-.86.04-.15.09-.3.12-.45.04-.14.07-.28.1-.42.03-.16.07-.33.09-.5.02-.11.03-.22.04-.33-.92.12-1.85.27-2.77.43,0,0,0,0,0,.01Z"/><path d="M106.84,87.91c.05-.33.09-.67.13-1.01.04-.32.07-.64.09-.96h0c.04-.65.07-1.31.06-1.97,0,0,0,0,0,.01,0-.17-.02-.35-.03-.52-.36.06-.72.13-1.08.2-.79.15-1.58.32-2.37.49.02.13.05.25.07.38.07.36.14.72.21,1.08.07.35.15.69.23,1.04.09.38.2.76.31,1.14.11.36.23.73.34,1.09.11.36.23.71.33,1.07.1.35.2.7.29,1.06.09.36.18.73.27,1.09.05.2.1.39.15.59.08-.02.16-.03.24-.04,0-.04.02-.08.03-.12.06-.3.11-.61.16-.92.11-.62.21-1.25.3-1.87.09-.61.17-1.22.25-1.83Z"/></svg>