<?xml version="1.0" encoding="UTF-8"?><svg id="Layer_1" xmlns="http://www.w3.org/2000/svg" viewBox="0 0 207.21 203.87"><path d="M129.43,111.08c-.02-.06-.02-.14-.01-.2.01-.32.03-.66-.21-.91-.24-.25-.19-.64-.44-.88-.02-.02-.05-.05-.07-.07-.07-.1-.15-.2-.2-.31-.1-.24-.24-.44-.46-.58-.07-.04-.12-.1-.18-.16-.14-.15-.27-.31-.41-.46-.18-.19-.36-.38-.45-.63-.09-.25-.25-.46-.5-.58-.04-.02-.08-.04-.11-.08-.18-.22-.38-.43-.51-.68-.16-.29-.39-.5-.64-.71-.12-.1-.22-.19-.28-.33-.11-.25-.3-.42-.54-.55-.19-.11-.35-.26-.52-.39-.09-.07-.17-.16-.26-.22-.12-.07-.21-.17-.27-.3-.11-.22-.26-.4-.48-.52-.08-.04-.16-.13-.21-.21-.11-.19-.26-.35-.45-.46-.33-.2-.66-.4-.91-.71-.03-.03-.07-.07-.11-.08-.21-.09-.35-.24-.46-.44-.05-.09-.14-.15-.22-.22-.06-.05-.14-.09-.18-.15-.16-.27-.42-.41-.7-.53-.11-.05-.2-.11-.25-.22-.1-.19-.23-.33-.41-.45-.06-.04-.12-.11-.16-.17-.22-.27-.44-.55-.66-.82-.04-.05-.1-.09-.15-.13-.24-.22-.37-.49-.39-.81-.01-.2-.03-.39-.12-.56-.09-.17-.06-.33.02-.49.07-.14.12-.29.19-.44.04-.08.09-.16.14-.23.1-.16.2-.33.31-.49.07-.1.13-.22.23-.29.23-.16.33-.4.45-.63.12-.22.36-.38.42-.66,0-.02,0-.05.01-.07.03-.12.09-.21.2-.26.22-.11.34-.29.45-.5.06-.12.15-.22.24-.32.19-.2.4-.37.59-.57.08-.08.15-.18.19-.28.13-.43.41-.76.69-1.09.17-.21.31-.43.32-.7,0-.2.11-.33.29-.37.4-.1.59-.39.72-.76.07-.21.17-.43.3-.61.14-.21.31-.39.36-.65.01-.07.09-.13.13-.2.23-.32.38-.7.67-.98.02-.02.03-.06.05-.09.1-.18.19-.36.29-.54.05-.09.09-.18.13-.28.12-.32.24-.64.37-.95.02-.05.06-.1.1-.14.23-.21.31-.5.36-.79.02-.12.04-.25.1-.36.13-.25.16-.51.11-.76-.06-.27-.02-.52.05-.77.04-.14.1-.3.08-.43-.07-.37-.08-.75-.16-1.11-.07-.33-.17-.65-.23-.98-.05-.27-.17-.55-.3-.79-.12-.21-.27-.42-.57-.43-.09,0-.2-.07-.27-.14-.13-.15-.3-.2-.48-.24-.33-.07-.67-.12-1.01-.18-.05,0-.12,0-.16.02-.26.17-.57.15-.86.21-.52.11-1.07.15-1.5.52-.02.01-.04.03-.06.03-.16.03-.32.03-.46.08-.15.06-.28.2-.43.25-.18.06-.3.14-.38.31-.09.18-.23.3-.44.35-.09.02-.19.08-.26.14-.17.15-.38.3-.45.5-.1.27-.4.21-.53.4-.06.08-.14.15-.19.24-.26.44-.71.7-1.01,1.1-.02.03-.06.04-.09.05-.23.12-.39.31-.51.54-.07.13-.15.22-.29.27-.19.07-.34.19-.44.36-.09.16-.22.24-.4.29-.3.08-.57.23-.74.52-.03.06-.09.11-.15.14-.43.2-.7.58-1.01.9-.15.16-.31.25-.54.23-.22-.02-.46.01-.61.18-.26.29-.58.47-.95.57-.1.02-.18.1-.27.14-.18.08-.35.13-.56.06-.25-.08-.5-.03-.72.13-.13.09-.26.13-.42.12-.23-.02-.46-.05-.68-.02-.17.02-.31,0-.45-.09-.11-.06-.23-.09-.35-.13-.17-.04-.33-.08-.5-.1-.13-.02-.27-.03-.4,0-.15.02-.26,0-.39-.08-.11-.07-.25-.12-.37-.18-.09-.05-.19-.08-.27-.15-.15-.14-.33-.21-.53-.23-.21-.02-.36-.1-.51-.24-.29-.26-.61-.48-1.02-.51-.18-.02-.32-.12-.43-.26-.15-.18-.35-.29-.58-.34-.12-.03-.23-.09-.33-.17-.31-.26-.63-.52-.87-.86-.09-.12-.24-.2-.37-.3-.07-.05-.17-.09-.22-.15-.18-.27-.46-.41-.71-.58-.15-.1-.26-.2-.35-.35-.18-.28-.39-.53-.74-.63-.1-.03-.2-.11-.29-.17-.27-.21-.39-.56-.7-.74-.02-.01-.03-.06-.05-.09-.26-.45-.61-.82-1.02-1.13-.19-.14-.36-.28-.45-.5-.05-.1-.12-.19-.2-.28-.2-.22-.43-.42-.6-.65-.15-.21-.32-.38-.55-.5-.13-.07-.26-.14-.37-.23-.16-.14-.31-.3-.45-.46-.08-.09-.18-.19-.22-.3-.11-.32-.35-.48-.63-.64-.38-.22-.82-.35-1.12-.71-.07-.08-.13-.16-.2-.23-.09-.08-.18-.19-.3-.22-.2-.06-.39-.13-.55-.26-.06-.05-.14-.09-.22-.1-.26-.02-.48-.14-.7-.25-.18-.09-.36-.13-.56-.1-.07.01-.17.01-.23-.02-.35-.2-.69-.08-1.02.05-.07.03-.15.1-.22.09-.26-.01-.49.08-.74.14-.31.07-.53.23-.68.5-.03.05-.06.1-.11.13-.23.2-.26.52-.44.76-.04.05-.03.13-.04.2-.02.08-.02.16-.05.23-.1.17-.09.35-.09.53,0,.14.03.29-.02.41-.11.26-.11.51,0,.76.02.04.02.09.03.13.02.34.05.68.07,1.02,0,.07.02.13.03.2,0,.08.03.16.01.23-.07.26.08.46.14.69.06.23.04.49.22.67.13.14.16.29.15.47-.02.19-.04.4.08.57.12.17.14.35.13.55-.01.21.06.4.17.58.11.18.21.38.3.57.04.09.06.2.04.3-.08.33.02.6.19.87.16.25.32.5.36.8.02.12.1.22.15.34.1.23.23.46.27.7.06.29.18.54.39.74.08.08.15.17.2.27.15.32.28.65.44.96.1.19.15.38.14.59,0,.12.01.25.03.37.03.22.2.38.29.57.09.19.12.41.2.61.15.36.33.7.48,1.05.03.06.03.13.03.2,0,.29.08.57.25.81.13.19.18.39.16.61-.02.23,0,.47.14.66.18.24.26.53.41.78.16.25.18.51.1.79-.11.43-.04.82.27,1.14.11.12.17.24.12.4-.03.12-.07.24-.12.35-.11.24-.22.5-.16.76.08.33,0,.63-.03.95-.05.39-.29.72-.3,1.11,0,.02-.01.05-.03.06-.2.25-.38.51-.61.73-.16.15-.31.3-.42.49-.03.06-.07.12-.12.16-.21.21-.42.41-.64.62-.06.05-.12.12-.19.13-.24.05-.44.19-.65.29-.37.18-.65.49-.98.73-.05.04-.09.11-.12.17-.06.13-.17.2-.29.27-.5.27-1.01.54-1.34,1.03-.03.05-.11.07-.18.1-.43.16-.75.47-1.08.77-.09.08-.18.17-.28.24-.12.08-.26.14-.38.24-.25.21-.52.39-.83.52-.29.13-.58.28-.75.57-.02.03-.07.05-.11.08-.31.18-.58.4-.81.68-.08.1-.17.18-.3.2-.32.06-.52.28-.62.58-.05.15-.13.26-.28.31-.19.07-.34.2-.44.37-.07.13-.18.23-.28.34-.13.15-.2.36-.34.5-.14.15-.33.24-.43.43,0,.01-.01.02-.02.03-.15.31-.29.62-.44.93-.1.22-.21.43-.29.65-.07.19-.15.4-.13.59.03.24.04.47.02.71-.02.26.03.5.21.7.07.07.1.18.15.27.06.11.11.23.19.32.11.12.19.25.22.41.06.25.21.44.44.53.23.09.43.22.61.37.24.2.52.23.8.12.14-.06.25-.05.39,0,.27.09.54.1.78-.08.11-.09.23-.09.36-.07.17.02.34.02.5-.06.14-.06.3-.09.45-.15.25-.09.49-.17.76-.1.03,0,.07-.01.1-.03.38-.16.79-.24,1.13-.48.05-.04.13-.08.19-.07.33.02.58-.19.86-.3.23-.1.46-.23.7-.25.34-.03.61-.14.85-.37.14-.14.32-.26.55-.19.08.02.19,0,.26-.05.31-.16.62-.33.95-.43.03,0,.06-.03.08-.06.2-.24.48-.3.76-.34.29-.04.51-.18.67-.43.02-.03.04-.06.06-.08.13-.15.26-.3.49-.2.05.02.12.01.17,0,.35-.14.69-.28,1.04-.42.03-.01.06-.04.08-.06.09-.09.18-.12.31-.12.26.01.48-.1.69-.25.22-.16.47-.29.76-.17.05.02.12.04.17.02.28-.07.54,0,.79.11.03.01.07.02.1.02.3,0,.47.17.6.42.13.25.27.5.48.71.17.17.27.39.19.65-.06.19-.05.39.04.57.14.28.14.57.15.87,0,.12.02.25.03.37.03.27.1.54.09.81-.02.39.04.77.02,1.16,0,.11.06.22.08.33.05.25.2.51.1.77-.12.33-.1.65.03.96.07.17.06.33,0,.5-.05.14-.05.29-.08.43-.06.38-.06.75.13,1.09,0,0,0,.02,0,.03,0,.23.1.44.17.66.1.29.18.6.1.9-.08.31-.05.58.07.87.09.22.2.46.18.69-.03.39.1.71.22,1.06.03.09.07.17.07.26,0,.24.08.45.17.66.11.24.21.48.18.75-.01.11.04.22.07.33.02.1.06.19.08.29.05.39.17.75.46,1.04.09.09.13.24.2.35.09.17.19.34.28.5.06.1.12.19.18.29.06.08.11.18.18.25.13.12.22.26.27.43.07.24.25.4.47.46.17.05.27.14.37.27.16.21.33.41.62.45.06,0,.12.06.18.1.16.14.34.22.56.23.06,0,.14.02.19.06.23.19.5.21.78.23.26-.03.52-.06.78-.08.05,0,.1,0,.14-.01.32-.16.67-.3.96-.51.2-.14.32-.38.47-.58.22-.3.49-.57.61-.94,0-.03.04-.05.07-.08.24-.23.33-.51.32-.83,0-.12,0-.28.07-.36.27-.32.3-.74.49-1.09.09-.16.13-.36.07-.57-.02-.07-.02-.16,0-.23.07-.18.13-.37.23-.53.18-.32.23-.64.12-.99-.03-.11-.05-.25-.03-.36.15-.58.12-1.2.32-1.78.01-.03,0-.07.01-.1.04-.35.08-.7.1-1.05.01-.25.05-.49.17-.72.06-.1.05-.24.07-.37.02-.19.04-.38.06-.57.02-.23.06-.45.06-.68,0-.18.05-.33.11-.49.07-.18.16-.37.16-.55,0-.35,0-.69.15-1.02.09-.21.1-.44.15-.66.04-.16.04-.31,0-.47-.05-.24-.1-.48-.04-.74.04-.19.06-.37.13-.56.09-.23.13-.48.04-.74-.06-.19-.03-.37.08-.55.18-.29.3-.61.3-.97,0-.08.02-.16.06-.23.12-.18.18-.38.24-.6.09-.36.26-.68.69-.77.12-.02.22-.11.32-.18.13-.09.25-.2.38-.3.14-.11.28-.17.47-.14.21.03.43.02.63-.1.06-.04.16-.04.23-.02.18.04.35.11.52.16.12.04.24.09.36.09.21,0,.4.05.59.15.22.11.44.17.69.1.09-.03.21-.01.29.02.24.09.48.15.73.13.21-.02.4.04.58.17.09.07.19.15.3.16.36.03.61.26.86.46.22.18.46.26.75.26.33,0,.65.1.92.3.16.12.32.22.52.23.15,0,.26.07.36.16.21.18.45.25.73.21.08-.01.17.01.26.04.08.02.14.08.22.1.19.04.33.14.45.29.16.2.39.27.63.3.31.05.62.11.93.16.27.27.65.3.99.42.01,0,.02.01.03.02.22.11.44.19.69.11.06-.02.15-.02.2,0,.22.13.47.15.72.2.25.05.48.15.73.05.04-.01.09,0,.14,0,.13,0,.27,0,.4,0,.07,0,.14-.02.2,0,.36.07.62-.09.84-.34.11-.12.22-.23.32-.36.08-.11.16-.22.23-.34.04-.07.05-.16.11-.21.27-.24.38-.56.51-.88.11-.29.2-.58.1-.9ZM109.32,92.84c.07-.04.13-.1.21-.12.36-.06.67-.27,1.03-.32.18-.03.35-.08.49-.22.05-.06.12-.11.19-.14.43-.17.67-.56.95-.89.13-.15.17-.32.15-.51-.03-.27,0-.52.09-.77.06-.17.07-.36.09-.54.03-.3.11-.58.37-.78.06-.05.08-.13.13-.2.07-.09.13-.2.22-.25.3-.19.6-.36.91-.54.11-.06.22-.12.32-.19.19-.12.37-.2.61-.14.25.06.49-.08.65-.22.2-.18.41-.32.67-.38.04-.14.07-.28.11-.41.05-.14.05-.26,0-.4-.16-.4-.04-.73.27-1.01.07-.07.14-.15.19-.24.16-.31.35-.58.68-.74.17-.08.33-.21.46-.35.15-.17.32-.29.52-.37.36-.15.66-.39.96-.63.11-.09.26-.14.38-.22.25-.16.49-.33.73-.5.07-.05.12-.13.19-.2.15-.15.26-.34.47-.41.01-.04.02-.08.04-.11.02,0,.03.01.05.02-.02.04-.04.08-.05.12-.02.09-.03.18-.07.26-.21.44-.4.89-.64,1.31-.12.21-.26.42-.39.63-.06.11-.13.21-.2.31-.04.06-.07.12-.12.17-.23.19-.46.39-.71.57-.18.13-.37.22-.48.42-.02.04-.06.07-.09.1-.11.13-.31.13-.4.3-.08.15-.2.28-.31.43,0,0-.02.03,0,.05.08.26.08.51.02.78-.06.27-.07.54-.12.81-.02.12-.05.26-.12.35-.17.23-.35.45-.54.65-.12.12-.29.2-.46.19-.18-.01-.3.06-.44.15-.16.1-.35.16-.53.23-.07.03-.17.04-.23.01-.21-.08-.37.01-.55.11-.29.16-.58.32-.88.45-.13.06-.21.13-.24.26-.03.11-.06.22-.09.33-.03.12-.05.25-.1.36-.11.23-.19.46-.18.72,0,.1-.05.22-.11.32-.12.19-.26.37-.39.56-.01.02-.02.04-.04.05-.35.23-.64.54-1.03.71-.29.12-.59.26-.9.31-.48.08-.97.17-1.46.1-.1-.01-.19-.07-.28-.12-.09-.06-.08-.15.01-.22ZM114.6,96.56c-.01.16-.12.31-.2.46-.05.09-.13.16-.19.24-.16.2-.36.26-.57.16-.18-.09-.33-.34-.26-.54.11-.3.15-.61.31-.9.18-.32.28-.69.42-1.03.02-.05.05-.09.1-.17.26.6.44,1.17.39,1.78ZM112.54,96.36c-.02.37-.13.72-.34,1.02-.18.24-.57.18-.73-.08-.12-.2-.11-.41-.09-.63.02-.18.04-.36.06-.54,0-.05,0-.1.02-.13.19-.41.13-.86.22-1.33.05.08.11.16.16.24.07.11.11.24.19.32.3.28.34.69.49,1.04.01.03.02.07.02.1ZM104.09,89.33c.14-.07.3-.13.45-.14.26-.03.52-.05.75.13.52.06.94.4,1.42.55.03,0,.06.04.08.06.01.01.01.04.03.1-.3,0-.59.01-.88.01-.17,0-.34-.02-.5.06-.06.03-.15.06-.19.03-.24-.12-.47-.02-.7,0-.08,0-.16.03-.24.02-.2,0-.36-.12-.41-.29-.07-.21,0-.43.19-.53ZM103.7,91.32c.2-.2.42-.36.73-.26.09.03.2.04.3.01.42-.11.76.02,1.06.31.12.11.23.22.38.28.02,0,.04.02.06.03.28.23.55.46.83.69,0,.02,0,.04-.01.06-.14-.02-.29-.02-.43-.05-.2-.05-.4-.06-.6-.05-.19.02-.38,0-.57-.03-.15-.03-.27,0-.4.06-.22.08-.4.03-.58-.1-.1-.07-.22-.12-.33-.17-.12-.06-.25-.11-.36-.19-.2-.14-.25-.43-.08-.6ZM97.07,102.57c-.36.16-.73.32-1.09.48-.17.08-.32.16-.49.25-.08.04-.15.12-.24.14-.24.04-.4.19-.57.35-.13.12-.2.26-.26.43-.15.36-.33.7-.5,1.05-.04.08-.1.16-.18.21-.12.08-.18.2-.26.31-.23.34-.58.45-.97.47-.1,0-.2,0-.29.05-.23.09-.44.12-.7.08-.26-.05-.52-.03-.7-.17-.43.07-.8.13-1.13.18-.2.23-.36.42-.54.61-.07.08-.14.16-.12.27.04.36-.13.64-.4.87.01.1.03.18.04.27.03.28-.02.54-.22.77-.08.08-.13.19-.2.27-.07.09-.15.17-.24.24-.24.17-.48.34-.73.5-.07.04-.13.1-.21.11-.22.05-.45.1-.67.11-.28,0-.57-.06-.85-.04-.23.02-.45-.03-.67-.03-.07,0-.14,0-.2-.02-.34-.11-.6.01-.89.19-.32.2-.39.55-.62.8-.09.1-.18.2-.29.27-.22.14-.29.11-.5-.1.04-.18.07-.34.11-.49.02-.08.06-.15.09-.22.03-.07.1-.14.11-.21.03-.3.24-.51.37-.76.04-.07.09-.14.15-.18.19-.14.4-.26.54-.46.02-.03.08-.06.12-.06.22,0,.42-.09.61-.19.07-.03.16-.04.23-.03.26.01.52.06.77.05.35-.02.7-.08,1.05-.12.01,0,.02,0,.03-.01.23-.18.46-.36.7-.55-.13-.38-.02-.7.24-.98.11-.12.17-.26.19-.43.02-.13.07-.27.14-.38.23-.35.46-.7.7-1.05.18-.25.38-.46.74-.4.05,0,.11-.03.16-.05.15-.06.29-.13.46-.08.04.01.09,0,.13-.01.04,0,.09-.04.13-.04.28,0,.56-.02.83-.11.09-.03.22.03.32.08.13.05.26.06.4.02.11-.03.22-.05.34-.05.31,0,.55-.13.68-.42.17-.37.42-.71.47-1.13.01-.09.06-.18.12-.25.23-.23.47-.46.71-.68.04-.04.11-.05.15-.09.25-.26.55-.27.89-.19.39.08.78.13,1.16.26.25.09.53.08.8.12.04,0,.08.03.15.06-.05.06-.08.11-.12.13ZM95.96,96.69c.15-.29.21-.62.32-.93.01-.04.03-.08.05-.12.02,0,.04,0,.07,0,.05.18.1.36.14.54.07.32.14.64.21.97.03.14.04.29.04.44,0,.17-.1.27-.25.33-.14.05-.28.01-.39-.13-.25-.33-.39-.67-.18-1.1ZM97.38,90c-.28-.17-.58-.25-.87-.36-.16-.06-.3-.2-.45-.3-.11-.07-.22-.17-.35-.2-.33-.09-.53-.3-.65-.6-.11-.29-.23-.57-.35-.85-.08-.19-.09-.38-.08-.57,0-.15,0-.3.01-.44.02-.36-.15-.69-.21-1.03-.02-.09-.07-.18-.06-.27.03-.35-.11-.61-.33-.86-.08-.09-.14-.21-.18-.33-.07-.17-.18-.31-.28-.46-.17-.25-.43-.39-.67-.51-.31-.15-.53-.38-.77-.61-.05-.05-.09-.1-.15-.14-.19-.14-.4-.26-.58-.41-.09-.08-.18-.18-.23-.29-.16-.31-.3-.64-.44-.96-.03-.06-.06-.13-.06-.19.01-.38-.13-.74-.2-1.11-.07-.35.04-.68.11-1.01.03-.18.25-.23.42-.12.13.09.23.22.21.37-.03.31.12.55.25.8.04.08.11.17.1.25,0,.2.1.35.19.5.11.18.27.34.33.56,0,.03.04.06.06.08.26.11.43.37.71.46.07.02.15.07.21.12.21.18.46.29.7.41.31.16.58.39.85.6.07.05.1.15.15.22.04.06.06.13.12.16.19.12.29.32.42.49.1.14.21.27.32.4.14.16.26.34.26.55,0,.26.09.49.14.74.08.38.18.75.25,1.13.03.16.03.34,0,.51-.02.12,0,.22.06.32.07.11.13.22.19.32.03.05.07.1.11.13.29.19.58.4.89.57.2.11.42.17.64.22.56.14.64.2.87.73.58.2.71.38.76.97.01.17.08.33.12.49.11.37.23.74.34,1.11.02.06,0,.13,0,.23-.07-.04-.13-.06-.16-.09-.19-.3-.49-.48-.77-.67-.12-.08-.26-.15-.37-.25-.2-.2-.42-.33-.72-.31-.2.01-.38-.1-.51-.25-.1-.12-.23-.17-.35-.25ZM100.39,102.84s.07.06.12.07c.28.06.49.22.73.36.24.14.52.22.78.32.08.03.17.06.32.11-.46.16-.85.32-1.25.43-.2.06-.43.04-.64.04-.11,0-.78-.41-.82-.51-.12-.28-.24-.57-.33-.86-.04-.13-.02-.28.12-.37.13-.09.26-.08.39,0,.2.13.4.26.59.39ZM97.97,97.97c-.14-.2-.27-.4-.37-.61-.06-.13-.09-.28-.05-.43.03-.11.02-.23.03-.34.02-.12.01-.27.08-.36.26-.38.52-.77,1-1-.06.45-.06.84,0,1.23.01.06-.02.13-.02.2,0,.08-.05.17-.02.24.1.27,0,.54.04.81.03.18-.1.36-.23.42-.15.05-.36,0-.46-.15ZM100.8,105.85c-.43.08-.85.23-1.3.24-.12,0-.22,0-.33-.04-.09-.04-.2-.05-.29-.08-.21-.06-.36-.19-.41-.41-.04-.19-.12-.36-.17-.55-.03-.11-.04-.23-.03-.34.02-.21.22-.32.4-.22.13.08.27.18.36.3.16.21.32.41.61.45.05,0,.12.04.15.07.22.25.53.33.83.42.06.02.12.04.17.07,0,.02,0,.05,0,.07ZM103.98,121.7c-.04.19-.07.38-.14.56-.11.3-.21.59-.23.92,0,.07-.06.16-.11.21-.22.17-.32.42-.43.65-.15.31-.26.65-.37.99-.06.18,0,.36.14.5.11.11.18.23.19.39.01.11.1.2.15.3.04.08.09.18,0,.25-.05.04-.15.06-.22.04-.15-.04-.3-.08-.4-.23-.09-.13-.24-.21-.37-.3-.12-.08-.2-.19-.23-.33-.02-.07-.04-.13-.08-.19-.12-.16-.13-.34-.14-.54-.01-.25,0-.5.03-.74.02-.1.02-.21.06-.3.08-.19.13-.38.15-.59.01-.11.09-.24.17-.33.17-.18.24-.39.23-.62-.01-.23.05-.43.17-.62.12-.19.14-.38.05-.59-.17-.43-.34-.87-.52-1.3-.02-.06-.09-.1-.12-.16-.07-.1-.14-.21-.2-.32-.08-.14-.15-.28-.21-.43-.1-.23-.22-.43-.43-.6-.19-.15-.25-.4-.22-.65.01-.08.02-.16.03-.24.06-.36.09-.72.02-1.08-.06-.33.12-.62.23-.92.09-.26.2-.51.3-.76.12-.29.25-.59.35-.89.1-.31.2-.63.3-.94.12-.36.08-.75-.18-1.07-.15-.19-.23-.41-.33-.63-.16-.37-.27-.72-.15-1.12.01-.05-.02-.11-.02-.17,0-.15-.03-.31.03-.43.13-.31.22-.64.41-.93.19-.28.32-.6.47-.91.06-.11.11-.22.19-.37.06.31.04.57,0,.82-.05.44-.09.89.07,1.32.08.22.11.44.09.67-.02.22.04.41.19.57.18.2.31.42.35.69.01.08.07.14.09.22.04.16.11.33.1.49-.01.17,0,.34.03.51,0,.03.02.07.02.1-.08.36-.05.75-.24,1.09-.11.19-.21.38-.22.6,0,.08-.04.16-.08.22-.17.29-.23.61-.31.94-.04.17-.12.34-.21.5-.14.26-.22.52-.14.82.03.12.01.25,0,.38,0,.12-.01.25-.02.38.33.2.46.53.6.87.32.1.54.3.6.64.02.11.03.23,0,.33-.03.15,0,.26.07.39.05.08.07.19.11.28.04.12.08.24.14.35.26.42.23.87.14,1.33ZM103.45,102.09c-.45.21-.91.41-1.43.18-.25-.11-.52-.15-.7-.39-.07-.09-.24-.1-.32-.19-.27-.3-.6-.55-.79-.92-.09-.19-.08-.39.04-.54.11-.14.3-.18.5-.12.16.05.32.12.48.16.15.04.28.11.37.23.14.18.33.24.53.27.2.03.41.05.61.08.1.02.22.03.29.09.32.29.72.42,1.11.57.03.01.06.03.11.07-.29.19-.53.38-.8.51ZM106.53,97.3c-.01.3-.1.58-.28.83-.06.08-.1.18-.14.27-.02.04-.02.09-.05.13-.22.29-.39.61-.68.84-.07.05-.16.13-.23.12-.31-.02-.54.17-.79.28-.25.12-.51.18-.79.15-.07,0-.15-.03-.2,0-.3.13-.58,0-.87-.03-.01,0-.02,0-.03,0-.24-.04-.33-.31-.57-.35-.23-.04-.36-.22-.51-.37-.21-.21-.34-.48-.59-.66-.15-.11-.19-.31-.23-.49-.05-.26-.1-.51-.14-.77-.02-.09-.02-.18-.02-.27,0-.21.1-.36.28-.43.18-.06.36-.06.51.1.15.17.36.29.42.53,0,.02.02.05.04.06.36.19.51.58.8.83.16.14.31.25.51.33.31.13.62.21.96.19.14,0,.27-.01.39-.1.12-.09.25-.14.39-.11.2.04.35-.06.43-.21.12-.2.34-.34.36-.64-.17.06-.33.12-.44.25-.11.13-.24.19-.41.21-.21.03-.41.15-.63.12-.2-.03-.4-.07-.61-.02-.09.02-.22-.05-.31-.11-.16-.1-.35-.2-.46-.35-.23-.31-.58-.56-.61-1,0-.08-.05-.15-.07-.23-.04-.12-.11-.92-.09-1.04.01-.05.02-.12.06-.16.12-.17.22-.34.27-.55.02-.07.08-.14.14-.19.19-.16.39-.31.59-.47.13-.11.27-.16.44-.16.1,0,.21,0,.31-.02.38-.09.72-.01,1.03.23.06.05.13.12.2.13.47.08.71.44,1,.76.34.36.49.8.62,1.24.08.26.05.56.06.84,0,.09-.01.18-.02.27ZM106.73,104.5c-.22-.07-.24-.42-.05-.57.17-.13.37-.22.53-.36.23-.2.53-.3.76-.51.14-.13.37-.17.56-.21.12-.03.23-.07.34-.14.22-.13.46-.23.73-.36-.12.29-.21.53-.3.77-.01.03-.05.06-.05.09-.03.3-.25.47-.43.68-.13.17-.27.31-.48.35-.02,0-.05.01-.06.03-.2.29-.53.31-.83.34-.24.03-.5-.03-.73-.11ZM108.26,106.78c-.17-.03-.34-.03-.51-.02-.29,0-.36-.26-.27-.42.07-.13.2-.29.33-.32.21-.05.36-.19.54-.28.48-.26.96-.5,1.51-.57.13-.02.26-.05.39-.07.01.02.02.05.03.07-.06.05-.12.1-.17.16-.14.15-.27.3-.4.46-.2.24-.37.53-.61.73-.23.19-.5.34-.84.28ZM110.91,106.84c-.02.29-.2.5-.37.71-.28.34-.63.62-1.03.82-.27.14-.52.09-.65-.13-.14-.25-.02-.57.25-.68.21-.08.43-.15.64-.23.36-.13.72-.26,1.03-.5.02-.02.07-.01.1-.02.04-.02.08-.04.12-.06,0,.02.01.03.02.05-.04.01-.08.02-.11.03ZM125.06,109.5c-.05,0-.1-.01-.15-.02-.35-.08-.71-.16-1.06-.25-.26-.07-.52-.14-.78-.23-.09-.03-.18-.1-.25-.17-.3-.28-.54-.61-.75-.96-.1-.16-.24-.3-.37-.44-.21-.21-.44-.4-.53-.7-.04-.13-.13-.22-.27-.22-.18,0-.34-.09-.45-.21-.25-.28-.57-.32-.9-.34-.22-.02-.43-.02-.65-.02-.26,0-.49-.05-.71-.19-.18-.12-.37-.21-.6-.23-.24-.03-.44-.18-.61-.36-.05-.06-.1-.14-.17-.17-.36-.13-.53-.46-.74-.74-.1-.13-.2-.27-.29-.42-.12-.18-.25-.36-.34-.55-.12-.26-.31-.4-.58-.49-.36-.12-.74-.22-1.07-.43-.11-.07-.29-.06-.43-.06-.22,0-.43.04-.63-.11-.05-.04-.13-.02-.2-.03-.25-.04-.49-.09-.71-.24-.05-.03-.1-.08-.15-.08-.46-.04-.71-.35-.97-.67-.13-.16-.3-.28-.44-.42-.11-.11-.2-.25-.29-.38-.23-.33-.4-.7-.55-1.09-.04-.12-.05-.23.06-.31.11-.08.22-.05.31.03.08.08.16.16.22.25.27.38.53.76.99.94.08.03.14.11.21.17.16.15.33.25.58.22.16-.02.34.04.5.1.41.15.82.16,1.23.02.16-.06.32-.05.46.03.16.09.32.11.5.09.24-.02.45.03.65.17.07.04.14.08.22.1.24.05.44.16.6.37.04.06.12.1.19.13.25.1.41.26.54.5.29.51.61.99.95,1.46.05.07.13.12.21.17.1.07.21.14.31.21.04.03.07.06.11.08.41.12.79.36,1.24.34.16,0,.32.04.47.08.18.04.35.1.52.15.1.03.2.07.27.13.27.22.55.44.9.55.06.02.13.06.17.12.16.26.4.47.5.77.08.24.23.44.38.64.16.21.27.47.4.71.03.05.04.11.07.15.47.65,1,1.24,1.71,1.64.07.04.13.11.2.16,0,.02-.01.03-.02.05Z" fill="#191919"/></svg>