<?xml version="1.0" encoding="UTF-8"?><svg id="Layer_1" xmlns="http://www.w3.org/2000/svg" viewBox="0 0 207.21 203.87"><path d="M148.47,99.87c-.28-.1-.32-.72-.09-1.38.23-.66.65-1.12.94-1.02.03,0,.05.03.07.05-.01-.54-.08-1.11-.21-1.72-.91-4.3-3.05-6.55-5.48-7.48l-1.83-.46c-.22-.03-.43-.05-.65-.06l-1.79.07c-.8.11-1.58.31-2.3.58-2.95,1.12-6.22,2.75-7.9,3.61-.74.38-1.55.59-2.39.62-5.51.17-27.85,1.38-41.97,9.6,0,.25-.05.51-.13.76-.44,1.23-1.79,1.88-3.02,1.44-.04-.01-.08-.03-.12-.05-15.47,11.49-10.84,9.8-19.71,15.16-8.88,5.37-1.99,6.41,4.47,1.58,6.46-4.83,14.43-6.06,11.73-3.94-2.7,2.11-14,7.6-14.51,10.63-.51,3.03,5.28.06,11.38-3.37,6.1-3.42,13.82-4.74,21.31-4.6,7.49.14,18.22-.6,26.46-4.55,7.59-3.64,17.64,3.45,22.81,1.14.56-.25.53-1.05-.06-1.25-2.68-.9-8.73-2.95-9.63-3.44-1.17-.63-.58-3.49,3.85-2.21,4.43,1.29,10.37,1.86,9.11.29-1.16-1.43-9.19-1.67-7.81-4.18.24-.45.69-.74,1.19-.84,1.61-.31,6.14-1.54,7.05-5.64-.23.44-.54.7-.76.62ZM89.81,105.82c2.32-1.02,3.06-.88,3.06-.88l-3.06.88ZM93.96,101.85c2.32-1.02,3.06-.88,3.06-.88l-3.06.88ZM116.11,100.5l-3.06.88c2.32-1.02,3.06-.88,3.06-.88ZM111.41,97.86l-3.06.88c2.32-1.02,3.06-.88,3.06-.88ZM103.46,100.83l-3.06.88c2.32-1.02,3.06-.88,3.06-.88ZM99.25,104.97c2.32-1.02,3.06-.88,3.06-.88l-3.06.88ZM103.42,107.43c2.32-1.02,3.06-.88,3.06-.88l-3.06.88ZM107,102.55c2.32-1.02,3.06-.88,3.06-.88l-3.06.88ZM111.19,105.01c2.32-1.02,3.06-.88,3.06-.88l-3.06.88ZM115.74,107.6c2.32-1.02,3.06-.88,3.06-.88l-3.06.88ZM119.84,103.78c2.32-1.02,3.06-.88,3.06-.88l-3.06.88ZM119.87,99.8c2.32-1.02,3.06-.88,3.06-.88l-3.06.88ZM128.81,99.4l-3.06.88c2.32-1.02,3.06-.88,3.06-.88ZM126.57,106.17c2.32-1.02,3.06-.88,3.06-.88l-3.06.88ZM145.22,96.02c-.17.48-.81.69-1.42.47-.62-.22-.98-.78-.81-1.26.17-.48.81-.69,1.42-.47.62.22.98.78.81,1.26Z"/><path d="M84.87,102.29c.01-.99-.59-1.92-1.57-2.26-1.23-.44-2.58.21-3.02,1.44-.42,1.19.17,2.49,1.32,2.97.02-.01.03-.02.05-.03,1.01-.75,2.09-1.45,3.22-2.11Z"/><path d="M84.73,103.04c.09-.25.13-.5.13-.76-1.13.66-2.21,1.36-3.22,2.11-.02.01-.03.02-.05.03.04.02.08.03.12.05,1.23.44,2.58-.21,3.02-1.44Z"/><path d="M144.41,94.76c-.62-.22-1.26,0-1.42.47-.17.48.2,1.04.81,1.26.62.22,1.26,0,1.42-.47.17-.48-.2-1.04-.81-1.26Z"/><path d="M149.39,97.52c.02.63-.04,1.2-.16,1.73.06-.12.13-.25.18-.39.21-.6.2-1.16-.01-1.33Z"/><path d="M149.32,97.47c-.28-.1-.7.36-.94,1.02-.23.66-.2,1.28.09,1.38.22.08.53-.19.76-.62.12-.53.18-1.1.16-1.73-.02-.02-.05-.04-.07-.05Z"/><path d="M143.7,88.32s.49-5.65-9.22-10.96c-9.71-5.31-9.72-1.21-5.21.68,4.51,1.89,11.16,5.33,12.58,9.82h0c.62.08,1.24.23,1.83.46h0Z"/><path d="M141.86,87.86l1.83.46c-.6-.23-1.21-.38-1.83-.46Z"/><path d="M141.22,87.8h.02s-1.36-3.13-6.9-5.17c-5.54-2.03-11.46-3.42-8.87-.77,2.59,2.65,8.79,2.15,13.95,6.01.59-.08,1.19-.11,1.79-.07Z"/><path d="M139.43,87.87l1.79-.07c-.6-.03-1.2,0-1.79.07Z"/><path d="M125.75,100.27l3.06-.88s-.74-.14-3.06.88Z"/><path d="M119.87,99.8l3.06-.88s-.74-.14-3.06.88Z"/><path d="M119.84,103.78l3.06-.88s-.74-.14-3.06.88Z"/><path d="M115.74,107.6l3.06-.88s-.74-.14-3.06.88Z"/><path d="M111.19,105.01l3.06-.88s-.74-.14-3.06.88Z"/><path d="M107,102.55l3.06-.88s-.74-.14-3.06.88Z"/><path d="M100.41,101.71l3.06-.88s-.74-.14-3.06.88Z"/><path d="M99.25,104.97l3.06-.88s-.74-.14-3.06.88Z"/><path d="M93.96,101.85l3.06-.88s-.74-.14-3.06.88Z"/><path d="M89.81,105.82l3.06-.88s-.74-.14-3.06.88Z"/><path d="M103.42,107.43l3.06-.88s-.74-.14-3.06.88Z"/><path d="M108.35,98.73l3.06-.88s-.74-.14-3.06.88Z"/><path d="M113.05,101.38l3.06-.88s-.74-.14-3.06.88Z"/><path d="M126.57,106.17l3.06-.88s-.74-.14-3.06.88Z"/></svg>