<?xml version="1.0" encoding="UTF-8"?><svg id="Layer_1" xmlns="http://www.w3.org/2000/svg" viewBox="0 0 207.21 203.87"><path d="M94.91,73.19s-.68-2.65,1.03-7.08c1.71-4.43,4.58-3.58,5.63-1.5,1.05,2.08-1.57,6.23-3.16,2.7,0,0-1.23-5.25,2.6-7.73,3.82-2.49,4.81-1.34,5.23-.97.42.37-.38-.15-1.87.02-1.49.17-2.78,1.27-4.03,2.63s-2.05,4.55-1.27,5.84c.78,1.28,1.61,1.22,1.96-.8.35-2.02-1.22-3.79-3.15-2.28-1.93,1.51-2.79,7.14-2.3,8.96.49,1.82.25,2.11.25,2.11l-.92-1.89Z"/><path d="M94.86,76.05s-1.36-1.38-4.67-1.97c-3.31-.58-3.85,1.47-2.97,2.87.88,1.4,4.35,1.32,2.79-.93,0,0-2.74-2.66-5.64-1.25-2.91,1.41-2.57,2.43-2.5,2.82.07.39.05-.28.7-1.13.65-.84,1.79-1.22,3.07-1.48,1.28-.26,3.51.42,4.01,1.36.49.94.15,1.42-1.2.89-1.36-.53-1.85-2.12-.23-2.74,1.62-.62,5.36.92,6.28,1.88.93.96,1.19.93,1.19.93l-.81-1.25Z"/><path d="M118.78,99.42c1.76,1.17,3.28,2.66,4.49,4.4,3.46,4.95,9.21,15.3,5.97,25.87-4.5,14.66-19.19,18.86-32.55,14.46-13.36-4.4-18.03-12.98-19.51-27.49-1.48-14.51,6.54-14.08,7.92-24.86,1.37-10.78,8.32-11.78,16.12-11.8,7.8-.03,9.39,12.67,12.13,15.28,1.55,1.48,3.79,3.06,5.43,4.14Z"/><path d="M101.5,80.63c.43,4.29,2.92,7.94,5.59,11.17,1.41,1.7,2.89,3.34,4.31,5.03,1.49,1.77,2.94,3.58,4.34,5.43,1.4,1.84,2.79,3.71,4.07,5.64,1.27,1.92,2.43,3.95,3.1,6.16,1.33,4.34.98,8.98.24,13.39-.84,4.96-2.22,9.82-4.06,14.49-.24.61.73.92.97.32,1.66-4.19,2.93-8.53,3.79-12.96.85-4.4,1.42-8.99.56-13.44-.88-4.56-3.53-8.33-6.22-12.01-2.75-3.76-5.7-7.34-8.75-10.86-3.15-3.63-6.45-7.61-6.95-12.58-.07-.65-1.06-.43-1,.22h0Z" fill="#fff7f7"/><path d="M97.27,80.56c1.5,9.01,5.09,17.46,8.44,25.9,3.12,7.85,6.06,15.89,6.93,24.35.47,4.58.28,9.25-.86,13.72-.16.63.81.95.97.32,2.06-8.05,1.09-16.48-1.07-24.4-2.35-8.6-6.14-16.71-9.21-25.06-1.8-4.89-3.34-9.89-4.2-15.03-.11-.65-1.1-.43-1,.22h0Z" fill="#fff7f7"/><path d="M94.13,80.86c-.9,8.52,0,17.12,1.49,25.52.39,2.18.85,4.34,1.24,6.51.39,2.22.53,4.42.53,6.68-.01,4.28.27,8.5,1.2,12.69,1.04,4.65,2.74,9.15,5.03,13.32.32.57,1.22.1.9-.47-4.11-7.49-6.15-15.87-6.13-24.4,0-2.17,0-4.32-.29-6.47-.3-2.14-.78-4.26-1.18-6.38-.78-4.16-1.43-8.34-1.8-12.55-.43-4.79-.48-9.61.03-14.4.07-.65-.95-.71-1.02-.06h0Z" fill="#fff7f7"/><path d="M91.19,81.54c-2.44,2.48-3.33,5.82-3.7,9.18-.21,1.89-.28,3.78-.35,5.67-.08,2.17-.35,4.26-.91,6.36-.53,2.01-1.18,4-1.64,6.03-.45,1.98-.76,3.98-.94,6-.36,4.02-.18,8.09.5,12.07.77,4.55,2.2,8.97,4.17,13.15.28.59,1.18.12.9-.47-3.38-7.18-5.09-15.14-4.67-23.08.11-2.02.35-4.03.73-6.02.38-1.98.94-3.91,1.5-5.85.56-1.94,1.06-3.91,1.25-5.93.18-2.02.16-4.05.31-6.07.28-3.67.84-7.56,3.54-10.3.46-.47-.23-1.22-.69-.75h0Z" fill="#fff7f7"/><path d="M117.83,124.79s1.35,2.71,2.61,2.19c1.26-.52.29-2.9-.31-4.6-.6-1.7-1.11-3.72-.05-4.79s1.46-2.75-.6-6.27c-2.06-3.52-5.84-5.52-4.58-2.13,1.27,3.38,1.83,2.81,1.43,6.24-.4,3.44-.75,4.96,1.49,9.35Z" fill="#fff7f7"/><path d="M94.54,133.57s-.11,3.02-1.47,3.08c-1.36.05-1.46-2.52-1.62-4.31-.16-1.79-.53-3.85-1.94-4.38-1.41-.53-2.47-1.9-2.05-5.96.42-4.05,3.04-7.44,3.28-3.84s-.5,3.31,1.28,6.28c1.79,2.97,2.74,4.21,2.51,9.13Z" fill="#fff7f7"/><path d="M99.89,101.06s.6,1.36,1.31.69c.71-.67-.53-1.96-.96-2.65-.43-.7.63-2.34-.46-3.46s-.65-3.24-1.49-4.09c-.84-.86-1.88-1.83-1.47.83.41,2.66-.47,3.52.51,4.44.97.92.37,2.1,1.26,2.77.9.66,1.3,1.48,1.3,1.48Z" fill="#fff7f7"/><path d="M92.21,120.9c.3,1.37,1.2,2.34,2.03,2.16.82-.18,1.25-1.43.95-2.81s-1.2-2.34-2.03-2.16c-.82.18-1.25,1.43-.95,2.81Z" fill="#fff7f7"/><path d="M109.2,102.58c.3,1.37,1.2,2.34,2.03,2.16.82-.18,1.25-1.43.95-2.81-.3-1.37-1.2-2.34-2.03-2.16-.82.18-1.25,1.43-.95,2.81Z" fill="#fff7f7"/><path d="M102.9,140.81c.3,1.37,1.2,2.34,2.03,2.16.82-.18,1.25-1.43.95-2.81-.3-1.37-1.2-2.34-2.03-2.16-.82.18-1.25,1.43-.95,2.81Z" fill="#fff7f7"/><path d="M90.61,85.3c-.21.67-.06,1.31.34,1.44.4.13.9-.31,1.11-.98.21-.67.06-1.31-.34-1.44-.4-.13-.9.31-1.11.98Z" fill="#fff7f7"/><path d="M93.03,75.43c.15.88-.24,1.77-1.02,2.21-1.13.64-2.48,1.88-1.27,3.8,1.89,3.01,2.67,1.53,5.6,2.53,2.93,1,5.02-2.36,5.84-3.77.82-1.41-1.55-3.58-2.68-4.74-1.13-1.16-1.73.97-3.03-1.33-1.3-2.3-1.47-4.95-4.72-7.01-3.25-2.05-6.39-4.93-9.04-4.75-2.65.17,1.02,1.98,3.52,3.04,2.49,1.06,4.71,4.69,5.8,6.85.53,1.06.83,2.24.99,3.18Z" fill="#fff7f7"/><path d="M91.37,81.71c-.4-1.73,1.44-2.9,2.31-4.11.92-1.27.96-2.77.35-4.18-.34-.79-.8-1.53-1.24-2.27-.47-.79-.97-1.56-1.51-2.29-.97-1.31-2.07-2.52-3.48-3.35-1.62-.96-3.43-1.54-5.13-2.33-.22-.1-.41.22-.19.33,1.48.68,3.02,1.22,4.47,1.96,1.49.77,2.66,1.85,3.69,3.17,1.07,1.37,2.01,2.89,2.8,4.43.39.75.69,1.57.64,2.43-.06.85-.44,1.61-.99,2.25-.98,1.16-2.49,2.34-2.09,4.06.06.24.42.14.37-.09h0Z"/><path d="M82.21,62.79c1.48-.18,2.56.87,3.76,1.51.29.15.6.26.89.4.45.22.88.48,1.3.76.77.53,1.47,1.15,2.14,1.8,2.73,2.69,5.84,6.16,5.44,10.29-.1,1.06-.4,2.09-.33,3.17.07,1.06.4,2.07.87,3.02.11.22.44.03.33-.19-.47-.96-.8-2.01-.83-3.09-.03-1.03.27-2.02.35-3.03.16-1.92-.48-3.84-1.45-5.48-1.06-1.79-2.5-3.36-3.97-4.82-.67-.67-1.37-1.3-2.14-1.85-.73-.52-1.5-.86-2.3-1.26-.65-.32-1.23-.79-1.87-1.12-.71-.37-1.46-.57-2.27-.48-.24.03-.15.4.09.37h0Z"/><path d="M99.37,82.88c.99-1.32,1.31-3.13.75-4.69-.3-.83-.82-1.41-1.57-1.86-.72-.44-1.58-.76-2.03-1.53-.12-.21-.45-.02-.33.19.81,1.38,2.72,1.48,3.42,2.97.72,1.53.43,3.4-.58,4.73-.15.19.18.38.33.19h0Z"/></svg>