<?xml version="1.0" encoding="UTF-8"?><svg id="Layer_1" xmlns="http://www.w3.org/2000/svg" viewBox="0 0 207.21 203.87"><path d="M111.13,132.84c-.06.14,0,.31.14.37.04.02.08.02.11.02.11,0,.21-.06.26-.17.5-1.12.57-2.44.25-4.55-.32-2.1-1.05-5.09-2.21-9.55-.04-.15-.19-.24-.34-.2-.15.04-.24.19-.2.34,2.35,9.03,2.86,11.76,1.99,13.72Z" fill="#1c1b19"/><path d="M96.32,121.7c-.14-.07-.31,0-.38.14-2.14,4.62-2.69,9.42-1.98,11.22.04.11.15.18.26.18.03,0,.07,0,.1-.02.14-.06.22-.22.16-.37-.68-1.69-.05-6.42,1.96-10.77.07-.14,0-.31-.14-.38Z" fill="#1c1b19"/><path d="M100.9,112.97c-.15-.03-.3.07-.33.22-1.25,5.98-1.86,9.98-1.86,12.23,0,.16.13.28.28.28s.28-.13.28-.28c0-2.21.6-6.17,1.85-12.11.03-.15-.07-.3-.22-.33Z" fill="#1c1b19"/><path d="M119.4,97.1c-.15.03-.25.18-.22.33.03.13.15.23.28.23.02,0,.04,0,.06,0,.02,0,1.86-.38,4.2-1.02.53-.15,1.09-.31,1.66-.48,4.15-1.26,6.86-2.55,8.04-3.84.11-.11.1-.29-.02-.4-.11-.11-.29-.1-.4.02-1.96,2.12-8.23,3.89-11.53,4.69-1.23.3-2.04.47-2.07.47Z" fill="#1c1b19"/><path d="M102.31,93.07c-.16,0-.28.13-.28.28v2.09c0,.16.13.28.28.28s.28-.13.28-.28v-2.09c0-.16-.13-.28-.28-.28Z" fill="#1c1b19"/><path d="M97.61,92.92c-.07-.14-.24-.2-.38-.13-.14.07-.2.24-.13.38.78,1.55,1.91,3.07,1.96,3.13.06.07.14.11.23.11.06,0,.12-.02.17-.06.12-.09.15-.27.06-.4-.01-.02-1.15-1.54-1.9-3.05Z" fill="#1c1b19"/><path d="M96.76,95.86c-.55-.05-5.1-1.81-6.77-3.48-.11-.11-.29-.11-.4,0-.11.11-.11.29,0,.4,1.05,1.05,3.07,2.05,4.18,2.56.71.32,1.42.61,2.01.82.59.21.86.27,1.01.27.1,0,.14-.03.19-.06.13-.09.17-.26.08-.39-.07-.1-.19-.14-.3-.12Z" fill="#1c1b19"/><path d="M92.37,96.42s.03,0,.05,0c.13,0,.25-.1.28-.23.03-.15-.07-.3-.23-.33-.07-.01-7.2-1.33-8.89-3.02-.11-.11-.29-.11-.4,0-.11.11-.11.29,0,.4,1.82,1.82,8.89,3.12,9.19,3.18Z" fill="#1c1b19"/><path d="M93.97,97.4c-7.53-.41-15.25-2.28-17.59-4.26-.12-.1-.3-.09-.4.03-.1.12-.09.3.03.4,1.58,1.34,4.82,2.31,7.26,2.89,3.28.78,7.07,1.31,10.66,1.5,0,0,.01,0,.02,0,.15,0,.27-.12.28-.27,0-.16-.11-.29-.27-.3Z" fill="#1c1b19"/><path d="M136.82,84.8c-.18-.11-.37-.19-.56-.25-.76-1.85-1.88-4.04-3.49-6.6.04-.19.06-.38.06-.59-.03-1.78-1.79-3.92-3.22-4.5-.17-.07-.33-.12-.49-.16-.13-.17-.25-.33-.38-.5-3.08-4-7.3-7.02-12.23-8.87-.02-.01-.03-.03-.05-.04-.72-.6-2-1.2-3.24-1.2-.22,0-.43.02-.64.06-2.54-.59-5.22-.9-7.99-.9-3.66,0-7.22.54-10.5,1.56-.27-.09-.56-.13-.87-.13-.9,0-1.81.4-2.36,1.06-.11.13-.21.27-.29.4-2.67,1.19-5.07,2.73-7.09,4.57-1.91,1.74-3.63,3.44-5.17,5.1-1.14.21-2.12,1.3-2.54,1.97-.33.52-.51,1.08-.55,1.63-4.54,5.74-6.7,10.94-6.42,15.54,0,0,0,.33.23.62,0,0,0,0,0,0,1.13,1.51,7.76,6.55,21.19,6.55.42,0,.85,0,1.28-.02,1.33-.03,2.7-.12,4.08-.25-.1.77-.51,2.14-1.92,4.13-1.45,2.05-1.89,3.47-1.37,4.46.31.6.94.94,1.72.94s1.51-.29,2.01-.54c.08-.04.15-.07.22-.11-1,3.39-2.32,7.43-3.49,10.98-.75,2.3-1.47,4.48-2.01,6.21-1.2,3.86-.54,7.76,1.84,10.99,2.58,3.51,6.84,5.68,11.1,5.68,3.52,0,6.64-1.43,9.03-4.14,4.62-5.24,3.6-10.22.2-20.32-1.37-4.06-2.33-7.49-2.99-10.11.13.02.27.04.4.04.42,0,.82-.12,1.18-.35.49-.31.98-.97.54-2.31-.21-.64-.59-1.39-1.03-2.26-.45-.89-.95-1.86-1.35-2.88.44,0,.98.02,1.59.02h0c3.42,0,8.55-.22,13.55-1.24,3.4-.7,6.24-1.67,8.5-2.91,1.92-1.05,3.42-2.3,4.49-3.73.05-.32.18-1.19-.03-2.69.27-.26.47-.6.58-1.01.34-1.24-.19-3.11-1.52-3.91ZM78.4,83.98c1.31,1.21.42,2.91-.92,3.64-.34.19-.73.32-1.12.3-1.09-.04-1.56-1.18-1.35-2.13.33-1.48,1.88-3.2,3.38-1.81ZM130.42,84.73c-1.07,1.29-2.58-.41-2.55-1.59.02-1.1,1.72-2.99,2.58-1.46.44.79.59,2.32-.02,3.06ZM105.9,87.38c.11-.37.35-.71.65-.99.49-.45,1.16-.7,1.74-.49.27.1.53.28.74.51.26.28.46.63.55,1,.15.59,0,1.2-.62,1.56-.94.54-2.74.44-3.09-.79-.07-.26-.06-.53.02-.8ZM105.2,78.88c-.6-.18-1.14-.59-1.38-1.17-.21-.49-.18-1.07,0-1.57.18-.5.51-.94.88-1.33,1.24-1.28,3.77-2.57,5.51-1.49.52.32.84.87.73,1.73-.3,2.5-3.31,4.57-5.74,3.83ZM102.31,83.19c-.06.69-.41,1.37-1,1.73-.66.41-1.49.4-2.26.35-2.02-.15-3.88-2.25-2.01-4.02,1.83-1.72,5.51-.95,5.27,1.94ZM105,69.56c-3.07,2.22-6.45-1.6-3.41-3.98,2.71-2.11,6.32,1.88,3.41,3.98ZM97.4,74.76c.29,3.3-5.6,2.2-6.94.95-.37-.34-.67-.78-.76-1.28-.14-.75.27-1.38.91-1.74.1-.06.2-.1.3-.15,1.83-.78,6.25-.44,6.49,2.21ZM90.82,83.48c-.84,2.01-4.5,1.89-5.98.82-.96-.69-1.04-1.89-.33-2.79.95-1.19,3.03-2.38,4.57-1.81.23.09.45.21.66.39.88.73,1.54,2.28,1.07,3.39ZM113.94,83.11c-.79.02-1.57-.57-1.71-1.35-.09-.48.04-.98.2-1.45.2-.61.45-1.25.95-1.66,1.02-.83,2.14-.05,2.4,1.06.32,1.34-.15,3.34-1.84,3.39ZM124.73,83.64c.75.74,1.01,1.92.67,2.91-.1.29-.25.56-.46.81-.03.04-.07.08-.11.11-.33.34-.76.62-1.25.83-1.76.76-4.29.65-5.68-.54-.31-.27-.56-.59-.73-.97-.01-.03-.02-.05-.03-.07-1.71-4,5.5-5.15,7.59-3.08ZM122.92,71.45c1.28,1.87-.34,3.9-2.38,3.88-2.08-.02-6.72-2.03-5.65-4.88.28-.75,1.12-1.15,1.91-1.25,2.17-.25,4.82.34,6.12,2.24ZM128.56,73.6c.2.02.42.08.68.18,1.3.52,3.16,2.97,2.45,4.31-.14.26-.37.47-.71.63-1.31.58-3.03-.44-3.46-1.71-.52-1.52-.46-3.55,1.05-3.4ZM111.71,63.86c.21-.36.51-.57.86-.68,1.05-.33,2.54.28,3.26.88.06.05.12.1.17.16.43.42.67.95.51,1.58-.64,2.45-6.16.38-4.8-1.93ZM91.29,64.92s0,0,0,0c.07-.17.18-.35.33-.53.55-.65,1.67-.93,2.44-.5.13.07.26.17.37.28.64.7.44,1.82-.29,2.37-1.29.97-3.44-.15-2.85-1.61ZM87.01,68.47c.57.16.87.54.97,1.01.3,1.42-1.18,3.72-2.62,3.7-.62-.01-1.2-.4-1.49-.95-.86-1.66,1.32-4.27,3.13-3.76ZM76.61,76.31c.38-.61,1.34-1.61,2.17-1.54.24.02.48.13.69.37.17.2.31.48.41.86.38,1.39-.22,3.33-1.9,3.38-.85.03-1.64-.61-1.76-1.46,0-.05-.01-.1-.01-.15-.03-.51.13-1.02.41-1.45ZM111.96,118.46c3.36,9.97,4.29,14.49,0,19.35-8.14,9.24-23.93.19-20.28-11.59,1.47-4.75,4.22-12.69,5.83-18.36,0,0,0,0,0,0,.02.22.06.45.13.66.25.75.85,1.2,1.6,1.2.87,0,1.46-.62,1.91-1.41.1.36.25.68.51.94.3.31.7.47,1.14.47.48,0,1.36-.2,1.77-1.53.03-.11.06-.22.09-.34.34.48.78.87,1.39.94.06,0,.11,0,.17,0,.39,0,.74-.15.99-.43.39-.43.44-1.02.41-1.63.35.31.74.62,1.15.86.66,2.72,1.68,6.41,3.18,10.87ZM130.02,96.54c-9.01,3.42-21.76,2.69-21.76,2.69,1.04,3.71,3.81,6.96,2.7,7.67-.42.27-.87.23-1.32.03-.41-.18-.82-.48-1.21-.81-.75-.63-1.38-1.33-1.68-1.21-.62.23.46,3.01-.58,2.9-1.04-.12-1.43-2.82-1.97-2.78-.54.04,0,3.71-1.39,3.71s-.42-3.67-1.04-3.71c-.62-.04-1.24,3.71-2.51,3.71s-.42-2.51-1.08-2.67c-.06-.01-.12-.02-.17-.01-.38.05-.56.61-1.36,1.25-.27.22-.61.44-1.06.65-2.01.97-3.9.54-1.12-3.4,1.96-2.78,2.17-4.52,2.13-5.31-.02-.33-.08-.49-.08-.49-15.53,1.77-23.52-3.27-25.93-5.17,1.03-.5,4.71-2.06,10.9-2.06,3.54,0,7.26.33,10.85.64,3.44.3,6.68.59,9.66.59.76,0,1.48-.02,2.15-.06.91-.05,1.83-.13,2.76-.22l-1.31,2.56c-.07.14-.02.31.12.38.04.02.09.03.13.03.1,0,.2-.06.25-.15l1.47-2.86s0-.02,0-.02c1.07-.11,2.17-.24,3.28-.37-.38.85-1.19,2.32-2.72,3.89-.11.11-.11.29,0,.4.05.05.13.08.2.08s.15-.03.2-.09c1.8-1.85,2.63-3.54,2.97-4.37.17-.02.33-.04.5-.06,1.28-.16,2.57-.31,3.87-.45-.58.92-2.02,2.85-4.6,4.45-.13.08-.17.26-.09.39.05.09.15.13.24.13.05,0,.1-.01.15-.04,3.13-1.93,4.61-4.29,5.01-5,2.43-.25,4.9-.44,7.36-.44.16,0,.32,0,.48,0-.17.21-.75.87-1.87,1.68-1.26.91-3.47,2.22-6.89,3.24-.15.04-.23.2-.19.35.04.12.15.2.27.2.03,0,.05,0,.08-.01,6.74-2.01,9.02-5.07,9.11-5.2.06-.08.07-.17.04-.25,5.68.12,9.72,1.08,11.35,1.66-1.57,1.7-3.8,2.98-6.31,3.93ZM137.45,88.1c-.05.51-.26.94-.69,1.11-.3.12-.69.13-1.2-.06-.99-.36-1.32-1.57-1.04-2.51.18-.59.56-1.1,1.07-1.17.22-.03.46.02.72.17.22.13.4.31.56.52.42.55.63,1.3.57,1.93Z" fill="#1c1b19"/></svg>