<?xml version="1.0" encoding="UTF-8"?><svg id="Layer_1" xmlns="http://www.w3.org/2000/svg" viewBox="0 0 207.21 203.87"><path d="M132.92,105.6c-.2-1.26-.6-2.49-.77-3.76-.54-2.14-.91-4.32-1.9-6.31-.56-1.38-1.39-2.61-2.32-3.77-.69-.96-1.29-2.04-2.07-2.94-1.28-1.57-3.1-2.55-4.49-4-2.67-2.42-6.06-3.89-9.59-4.45-.72-.15-1.38-.49-2.1-.66-1.41-.28-2.86-.47-4.31-.53.03-.22,0-.48,0-.66,0-.63-.01-1.27-.05-1.9.01-.83-.02-1.65-.06-2.48,0-.96.05-1.92-.02-2.88.07-2.68-.03-5.35-.05-8.03-.04-1.02.02-2.03-.01-3.05-.05-.27.18-.78-.22-.84-.43,0-.25.89-.28,1.21,0,.59-.04,1.18-.04,1.77,0,2.31,0,4.61.02,6.92-.08,2.46,0,4.91,0,7.37.03.64.04,1.28.03,1.92.03.17-.03.42-.02.63-.21,0-.42,0-.63,0-1.6-.03-3.2.03-4.78.27-.35.09-.88-.06-1.11.27-2.38.72-4.75,1.55-6.93,2.75-1.67.87-3.07,2.17-4.59,3.27-2.28,1.79-4.41,3.76-6.21,6.04-.84,1.13-1.47,2.4-2.23,3.58-.75,1.53-1.37,3.14-1.84,4.77-.92,2.96-1.3,6.05-1.06,9.14.1,2.84.49,5.68,1.41,8.38,1.13,3.49,3.03,6.78,5.52,9.48.97,1.2,1.97,2.39,3.18,3.36,1.12.99,2.41,1.74,3.74,2.42.12.11.25.21.38.3.09.06.18.06.26.02.87.44,1.75.86,2.6,1.31,2.21.74,4.42,1.53,6.72,1.91,2.6.43,5.22.79,7.87.66,2.22-.17,4.33-1.01,6.44-1.7,2.34-.63,4.59-1.65,6.64-2.94,1.53-.86,3-1.9,4.11-3.29,1.29-1.32,2.57-2.66,3.48-4.28.9-1.45,1.78-2.91,2.27-4.55.97-2.05,1.85-4.14,2.34-6.37.38-2.07.86-4.13.76-6.26-.06-.71-.03-1.42-.09-2.13ZM128.16,94.14s.01-.01.02-.02c0,0,.02,0,.03.01,0,0,0,0,0,0-.1.06-.19.11-.29.16,0-.02,0-.03-.01-.05.09,0,.19-.04.26-.1ZM127.19,94.69s-.05.03-.07.04c0-.06-.02-.13-.04-.2.03.06.07.12.11.17ZM126.14,93.69s0,0,0,0c0,0,0,0,0,.01,0,0,0-.01-.01-.02,0,0,0,0,0,0ZM126.15,95.04s.06-.04.09-.07c.04.06.08.11.12.15-.07.04-.15.07-.22.11.01-.06.02-.12.01-.19ZM125.22,90.66c.16.22.31.45.44.68-.07-.08-.15-.16-.22-.24,0,0,.01.01.02.02-.1-.11-.2-.22-.3-.32-.04-.05-.08-.11-.12-.16.06.02.12.03.19.02ZM128.82,94.57c.05-.02.1-.04.14-.07.95,1.69,1.65,3.52,2.02,5.43.25,1,.45,2,.66,3-.28.06-.53.41-.8.52-1.18.69-2.44,1.2-3.71,1.75-.2.08-.4.15-.6.22-.14-2.21-.46-4.42-1.1-6.54-.2-.77-.39-1.55-.6-2.32,1.36-.59,2.7-1.24,3.98-1.99ZM122.09,117.03c-1.19.37-2.34.85-3.56,1.13-.71.25-1.43.46-2.15.65.03-.3.06-.59.09-.89.24-1.94.45-3.89.42-5.85.01-.99.02-1.99.02-2.98,1.16-.29,2.31-.61,3.46-.97.22.12.42.02.58-.17,1.68-.48,3.35-.99,5-1.59.08,2.02,0,4.06-.15,6.06-.15,1.23-.43,2.43-.75,3.62-.05.02-.1.04-.15.07-.92.36-1.87.64-2.82.92ZM124.86,116.76s-.02.06-.03.09c-.04-.02-.08-.03-.13-.03,0,0,0,0,0,0,.06-.02.11-.04.17-.06ZM124.58,117.69s0,0,0,.01c0,0,0,0,0,0,0,0,0,0,0,0ZM123.68,118.61s-.04.08-.06.11c0-.03.01-.05.01-.08.02,0,.03-.02.04-.03ZM123.21,122.01c-.24.67-.49,1.33-.76,1.98.14-.4.28-.8.41-1.2.11-.16.17-.39.25-.56.03-.08.06-.15.1-.23ZM121.81,119.95s0-.09,0-.15c.02,0,.03-.02.05-.02-.02.06-.03.11-.05.17ZM121.85,125.41c-.06.13-.12.26-.17.39,0-.01,0-.03,0-.04.01-.05.03-.1.04-.15.03-.06.06-.12.09-.18.02,0,.03-.01.04-.02ZM120.95,126.71c-.14.05-.29.1-.43.15.14-.07.27-.15.4-.24,0,.03.02.06.03.09ZM119.89,120.29s.05-.02.08-.02c-.05.2-.1.4-.17.59.01-.18.06-.37.09-.57ZM119.79,119.61s-.08-.08-.12-.1c.02,0,.05.02.07.02.02.03.05.05.07.07.02.01.03.02.05.03-.02,0-.03.01-.05.02,0-.01-.01-.03-.02-.04ZM120,126.16s.02.02.04.03c.02.02.05.03.07.04-.07.02-.14.04-.21.06,0,0,0,0,0,0,.04-.04.07-.09.1-.13ZM119.09,125.36s0,0,0,0c0,0,0,.01-.01.02,0,0,0,0,0-.01,0,0,0,0,.01-.01ZM118.03,119.94c.07-.05.15-.09.23-.13-.05.18-.08.37-.15.52.03-.12,0-.27-.08-.38ZM117.37,120.38c-.03.15-.06.3-.11.42,0-.13.02-.25.04-.38.02-.01.04-.03.06-.04ZM116.41,120.14c-.06-.04-.12-.06-.17-.05,0-.01,0-.02,0-.03.06.03.12.05.19.05,0,.01-.02.03-.02.04ZM116.49,122.21c0,.07-.02.14-.03.21-.01,0-.02,0-.04,0,.01-.06.03-.13.06-.21ZM116.38,124.59s.07.05.12.06c-.09.27-.2.53-.32.78,0-.05-.02-.09-.04-.13.07-.24.16-.48.24-.72ZM116.91,108.28s.08.04.13.05c0,.01,0,.03.01.04-.02,0-.05.01-.07.02-.02,0-.05,0-.07.01,0-.04,0-.08,0-.12ZM117.62,99.9c-.03-.17-.08-.52-.18-.79.07-.02.13-.03.19-.05,0,.33.01.66-.01.84ZM118.26,108.03c-.06.02-.12.03-.18.05.05-.1.09-.21.12-.3,0,.09.02.18.06.26ZM118.2,101.05s0-.09,0-.13c0,.02.01.04.02.06,0,.02-.02.04-.02.07ZM118.71,102.53s-.02.08-.03.13c0-.07,0-.15.01-.22,0,.03.01.06.02.09,0-.01,0-.03,0-.04,0,.02,0,.03,0,.05ZM118.63,99.88s.09-.05.13-.08c-.02.15-.03.31-.04.46-.03-.13-.06-.25-.09-.38ZM119.15,101.69s.02-.04.03-.06c0-.02.01-.05.02-.07.02.13.07.26.08.39-.02,0-.03,0-.05,0,0,0,0,0,0,0-.02-.09-.04-.17-.07-.26ZM120.43,102.07s.01-.02.02-.03c.01.08.03.16.04.25-.02.02-.04.05-.06.07,0-.1,0-.19,0-.29ZM121.34,99.3s0,0,0-.01c.01-.04.02-.07.03-.11.02-.01.04-.03.06-.04,0,.13-.01.25-.03.38-.01,0-.03.01-.04.02-.01-.08-.02-.15-.03-.23ZM122.61,97.47s.06-.03.09-.04c-.02.02-.05.04-.07.06,0,0-.02-.02-.03-.03ZM123.41,97.15s.07-.03.11-.04c0,.01,0,.03,0,.04-.02.02-.04.04-.06.05-.01-.01-.02-.02-.03-.03,0,0,0-.02-.01-.03ZM123.57,101.51c.01.13.03.26.04.39-.01,0-.02,0-.04,0,0-.13,0-.26,0-.38ZM124.41,89.95s-.03-.02-.04-.03c0,0,0,0,0-.01,0,0,0-.01,0-.02.02.02.03.04.05.06ZM124.41,97.27c.02.07.03.13.05.2-.03.05-.04.1-.04.17-.02-.06-.04-.13-.06-.21.03-.05.04-.11.05-.16ZM124.28,92.03s.05.06.07.09c-.02-.01-.05-.02-.08-.02-.03-.06-.06-.13-.09-.19.03.04.07.09.1.13ZM124.29,96.79c.02.08.04.16.06.24-.05-.06-.11-.1-.18-.11-.01-.02-.03-.04-.04-.06.05-.02.11-.04.16-.07ZM123.15,87.21s0,0-.01,0c0,0,0-.02-.01-.03,0,0,.02.01.02.02ZM122.03,86.33s0,0,0,0c-.01,0-.02,0-.03,0,0-.02-.02-.04-.03-.06.02.02.04.04.06.06ZM122.06,90.1c.03.06.06.12.1.18-.06.05-.1.11-.12.18l-.11-.19h0s.1-.1.15-.17ZM121.46,90.84l.14.24.14.23.14.23.14.24.14.24.13.24.13.24.13.24.11.22.09.19.1.2.1.2.02.04.1.2.09.18.1.2.1.22.1.22.1.22.02.04.02.04.03.03.03.03.04.03.04.02h.03s0,.02,0,.02c.01.03.02.07.04.1.1.33.2.65.29.99-.8.34-1.61.66-2.43.97-.1-.01-.2.02-.27.1-.18.06-.35.13-.53.19-.14-.08-.33-.04-.43.09-.01.02-.03.04-.04.07-.47.16-.95.31-1.43.46-.24.07-.48.14-.72.21-.08-.09-.18-.15-.3-.13-.12.03-.2.13-.25.27-.51.13-1.03.25-1.54.35-.36-2.39-.65-4.81-1.28-7.15-.29-.99-.65-1.96-1.01-2.93,1.07-.18,2.12-.41,3.17-.67.77-.18,1.56-.37,2.32-.63l.06.09.11.17.12.2.12.2.12.2.11.2.11.19.1.19.1.18.1.18.11.18.11.19.12.21.13.22.13.23.14.23.14.23.14.23ZM116.27,108.53c-1.23.27-2.43.64-3.67.84-2.41.35-4.83.69-7.27.78-.18,0-.36.01-.54.02-.08-1.71-.15-3.41-.12-5.12.06-1.38.08-2.76.09-4.14.92-.02,1.85-.06,2.77-.11,2.08-.16,4.14-.47,6.18-.91.64-.11,1.28-.23,1.92-.36.41,2.98.61,5.99.64,9ZM120.36,86.96s.08-.04.13-.06c-.03.02-.06.05-.07.09,0,0,0,0,0,0-.02-.01-.03-.03-.05-.04ZM121.34,85.69c-.54.32-1.1.59-1.69.81l-.09-.14-.1-.15-.1-.15-.1-.15-.11-.15-.11-.16-.11-.15-.11-.14-.11-.14-.1-.13-.09-.12-.09-.12-.09-.12-.09-.12-.09-.13-.1-.14-.1-.14-.1-.15-.11-.16-.12-.16-.13-.17-.14-.17-.03-.03-.14-.16-.15-.16-.16-.15-.03-.03-.16-.13-.16-.11-.03-.02-.16-.1-.15-.09-.09-.05c1.9.81,3.59,1.93,5.24,3.41ZM111.47,81c1.19.18,2.29.45,3.32.79h0s0,.04,0,.04v.02s0,.02,0,.02v.03s.01.02.01.02v.03s.02.02.02.02l.02.03.02.03.02.03.03.03.02.03.04.04.06.06.03.02.08.07.09.07.1.08.12.09.12.09.13.09.03.02.14.09.13.09.14.09.16.12.14.11.15.14.14.15.13.15.13.18.12.18.11.17.11.16.1.15.1.14.1.14.09.13.09.12.09.12.09.12.09.12.1.13.1.14.11.15.11.15.11.16.08.12.1.16.1.15.09.14c-.7.23-1.43.41-2.15.57-1.05.28-2.12.48-3.19.66-.14-.39-.28-.79-.41-1.19-.69-1.82-1.37-3.69-2.54-5.27-.14-.12-.38-.58-.63-.96.47.13.94.28,1.4.45ZM111.59,84.32c-.05-.11-.1-.22-.15-.33.05.11.1.22.15.33ZM109.96,83.53c0,.05.02.11.02.16-.01-.06-.03-.12-.04-.18,0,0,.01,0,.02.01ZM109.57,88.23c.02.06.05.12.07.18,0,0,0,.01.01.02-.05,0-.1,0-.16.01.02-.07.05-.15.07-.22ZM109.11,87.15s.01,0,.02-.01c0,.03-.01.07-.02.1,0-.03,0-.06,0-.09ZM108.67,82.52s0,0,0,0c0-.08,0-.16,0-.24,0-.18,0-.36.01-.53,0,.03.01.06.02.1,0,.03.01.05.02.08-.11.84.11,1.7.07,2.55-.07-.59-.13-1.17-.19-1.79.03-.05.05-.1.06-.16ZM108.01,88.4c.03.05.07.1.11.14-.06,0-.13,0-.19.01.03-.05.06-.1.08-.15ZM107.36,83.32c0,.05,0,.11-.01.16,0-.05,0-.11,0-.16,0,0,0,0,.01,0ZM106.88,87.11s0-.01,0-.02c.02.01.04.02.06.03-.02.11-.04.21-.06.32,0-.11,0-.22,0-.33ZM105.67,79.87s.03,0,.05,0c-.03.06-.05.13-.06.2,0-.07,0-.14.01-.2ZM105.41,89.29s.09.01.14,0c1.78,0,3.55-.1,5.32-.27.09,0,.18-.02.27-.03.11.04.23.03.33-.03.59-.06,1.18-.14,1.76-.23.5,1.43,1.06,2.83,1.35,4.32.35,1.81.57,3.64.89,5.46.02.11.03.22.05.33-.9.18-1.81.35-2.71.54-2.51.51-5.07.79-7.63.86-.14,0-.28,0-.42.01.01-1.91.01-3.82.11-5.73.06-1.74.14-3.48.23-5.22.1,0,.2,0,.31,0ZM105.29,85.98c.02.41.04.81-.02,1.22,0,.3-.06.61-.1.93.04-.71.08-1.43.13-2.14ZM102.34,80c.06-.05.13-.1.19-.15.87-.03,1.75-.04,2.62,0-.22,1.58-.22,3.21-.38,4.81-.08,1.31-.16,2.62-.24,3.93-.78-.03-1.57-.08-2.35-.16-.79-.13-1.6-.17-2.39-.29-.7-.16-1.4-.34-2.12-.45-.08-.02-.17-.03-.25-.05.09-.15.19-.31.29-.46,1.27-2.08,2.44-4.23,3.82-6.23.25-.33.49-.68.8-.95ZM104.14,99.95c0,.1,0,.2,0,.31-3.91.08-7.82-.12-11.63-.95.09-.4.19-.8.3-1.19.94-3.48,2.43-6.79,4.27-9.89,1.76.41,3.53.74,5.33.92.7.06,1.39.11,2.09.13-.2,3.56-.35,7.11-.36,10.68ZM104.41,120.38s-.04,0-.06,0c0,0,0-.02,0-.03.02,0,.04,0,.06,0,0,0,0,.02,0,.02ZM103.9,110.85c.1,0,.21,0,.31,0,0,.17.01.33.02.5-.03,0-.06-.01-.09-.01.02-.2-.09-.41-.24-.48ZM91.48,108.79c.08-2.95.28-5.96.89-8.86,1.4.31,2.81.56,4.23.75,2.5.24,5.02.3,7.54.25,0,2.03-.13,4.05-.12,6.08.03,1.06.1,2.11.15,3.17-4.27.03-8.5-.58-12.7-1.38ZM103.65,110.85s-.05.03-.08.05c0-.02,0-.03,0-.05.03,0,.06,0,.09,0ZM103.51,118.2c0,.2-.01.4-.06.59,0-.12-.01-.24-.02-.36,0-.08,0-.17-.01-.25,0,0,0,0,0,0,.03,0,.06.02.09.02ZM102.9,120.21s.01.09.02.14c-.02,0-.04,0-.06,0,.02-.05.03-.09.04-.14ZM102.81,111.26c0-.12,0-.28-.03-.42.04,0,.07,0,.11,0-.04.14-.05.3-.08.42ZM102.55,118.18c.07-.16.12-.34.17-.5-.07.5-.04,1.01-.2,1.49,0-.01,0-.03,0-.04-.03-.3.13-.66.04-.95ZM102.08,110.82c-.02.18-.02.38-.06.53-.02-.17-.01-.35-.06-.52,0,0,0,0,0-.01.04,0,.09,0,.13,0ZM101.76,115.3s0,.04-.01.06c0-.02-.01-.05-.02-.08.01,0,.02.02.03.02ZM101.4,110.79s-.02.04-.02.06c-.01.06-.02.13-.03.19-.04,0-.08,0-.12.01,0-.09-.01-.19-.03-.28.07,0,.14,0,.2.01ZM101.2,117.01s-.05.04-.08.06c.02-.19.04-.39.06-.58,0,.17.01.35.02.52ZM101.07,118.08s-.06-.04-.09-.06c0,0,0-.01,0-.02.03-.02.06-.04.09-.05,0,.04,0,.08,0,.13ZM100.49,110.73s0,0,0,0c0,0,0,0,0,0,0,0,0,0,0,0ZM99.82,111.04s-.01.06-.02.09c-.07,0-.15-.01-.22-.02.08-.03.16-.05.24-.07ZM99.06,118.58c-.03.15-.07.31-.11.46-.09-.37.09-.83-.12-1.16,0-.03.01-.06.02-.09.08-.11.15-.23.23-.34-.01.37-.17.78-.02,1.13ZM98.41,120.14s0,0,0,0c0,0,0,0,0,0,0,0,0,0,0,0ZM97.96,119.86c.04.12.13.22.25.26-.11,0-.21-.02-.32-.02.02-.08.05-.16.07-.24ZM97.9,117.54s0-.03,0-.05c.03-.11.06-.23.08-.34.06-.1.11-.2.17-.3,0,.07,0,.15-.02.22-.08.15-.17.31-.25.47ZM97.77,117.81c-.05.1-.1.19-.14.29-.02.05-.05.11-.08.18,0-.06-.01-.12-.02-.18,0-.05-.01-.11-.02-.16,0-.01.02-.02.02-.04.1,0,.18-.03.24-.09ZM97.16,115.01c-.1.23-.2.46-.3.7-.01.02-.03.03-.04.05.01-.2.02-.41.02-.61.08-.05.16-.1.23-.15.03,0,.05.01.08.02ZM96.82,117.6c-.04.06-.07.12-.09.18-.02,0-.03,0-.05-.01,0-.06,0-.11.01-.17.02,0,.05-.01.07-.02.02,0,.03.02.05.02ZM95.68,110.2c-.05,0-.1,0-.15,0,0-.01-.01-.02-.02-.03.06,0,.12.02.17.03ZM94.69,110.04c.09.01.18.03.27.04-.12.1-.21.28-.27.55-.01-.19.03-.4,0-.59ZM94.16,119.68c-.07-.01-.14-.03-.21-.04,0,0,.02-.02.02-.03.06.04.12.04.19.05,0,0,0,.01,0,.02ZM92.99,109.76s-.01.07-.01.1c-.03-.05-.08-.09-.13-.13.05,0,.1.02.14.03ZM92.56,118.37s0,.07,0,.11c0-.04-.02-.08-.02-.12.01,0,.02,0,.03,0ZM92.52,111.75s0-.09,0-.14c0,0,0,0,0,0,0,.04,0,.09-.01.13ZM92.15,116.17s0-.07-.01-.1c0,0,0,0,0,0,0,.03,0,.06,0,.1ZM91.98,110.08s-.06-.02-.1-.03c-.02,0-.03,0-.05,0-.01-.18.05-.34.09-.5.05,0,.11.02.16.03,0,0,0,.01-.01.02-.09.15,0,.33-.09.47ZM88.23,98.78c.07.05.15.08.24.08,1.07.35,2.16.65,3.26.92-.38,1.87-.57,3.79-.74,5.69-.11,1.07-.17,2.13-.17,3.2-.66-.13-1.32-.26-1.97-.4-1.46-.31-2.88-.82-4.3-1.28-.98-.33-1.97-.65-2.94-1.01.29-3.09.99-6.16,2.19-9.02,1.44.72,2.92,1.32,4.45,1.83ZM84.01,96.41s0-.02.01-.03c0,.01,0,.02,0,.03,0,0,0,0,0,0ZM85.15,96.94c-.08-.04-.17-.07-.25-.11.05-.07.08-.14.08-.23.02,0,.03,0,.05,0,.06-.01.11-.03.16-.07-.04.13-.05.28-.04.41ZM84.85,94.9s-.06.02-.08.03c.08-.15.16-.31.23-.46-.05.14-.1.29-.15.43ZM86.08,97.33c.07-.01.13-.04.18-.08.03.03.06.05.09.07.07.04.15.06.23.05-.01.05-.01.1-.01.15-.16-.06-.33-.13-.49-.19ZM87.13,94.33c.43-.91.72-1.87,1.25-2.73.02.05.04.1.07.15,0,.01.02.02.02.03-.46.93-1,1.84-1.35,2.84,0,0-.01,0-.02,0,.02-.09.05-.19.02-.29ZM87.28,90.64c.07-.1.14-.19.21-.29-.05.09-.09.18-.14.27-.02,0-.05,0-.07.02ZM88.44,96.13c-.08.24-.09.5-.22.71.01-.08.04-.16.05-.23.04-.17.08-.33.17-.48ZM87.6,96.27s0,0,0,0c-.05.09-.1.18-.15.26.09-.39.25-.74.45-1.08-.09.19-.18.38-.27.58-.04.08-.05.16-.03.24ZM87.44,97.84s-.04-.01-.05-.02c.02-.02.03-.03.05-.05,0,.02,0,.05,0,.07ZM89.04,92.23s-.01-.04-.02-.06c0-.01,0-.02.01-.04.02-.04.03-.08.05-.11.02.03.05.06.09.09,0,0,0,0,0,0-.04.17-.09.34-.13.51,0-.07,0-.13,0-.2,0,.01,0,.03,0,.04,0-.08.01-.16-.01-.24ZM89.46,96.05c-.14.51-.33.99-.63,1.44,0-.06.02-.11.03-.17.02-.12.05-.23.07-.35.13-.34.38-.59.53-.92ZM89.25,94.13c.04-.07.07-.15.11-.22.05-.1.1-.21.15-.31-.08.29-.18.57-.27.86-.01,0-.03.02-.04.03.01-.04.03-.07.04-.11,0-.04.01-.09.02-.13,0-.04,0-.07,0-.11ZM90.46,89.06s.02-.04.03-.05c0,0,.01.02.02.02-.09.12-.17.25-.26.38,0,0-.02.02-.02.03.08-.13.16-.26.24-.38,0,0,0,0,0,0ZM90.5,90.34c-.08.09-.16.18-.24.27.07-.11.14-.23.21-.34,0,.02.02.04.03.07ZM90.5,97.19c-.05.25-.13.49-.28.7.05-.25.15-.48.28-.7ZM84.18,107.58c2.15.75,4.34,1.4,6.59,1.76.02,0,.03,0,.05,0,.02.96.09,1.91.2,2.87.02.23.04.46.06.69-.03.2-.03.38.05.51.02.23.05.46.07.68-.02.25-.01.51.08.67.18,1.49.41,2.97.73,4.44-.39-.09-.78-.18-1.17-.28-2.96-.78-5.9-1.72-8.64-3.09-.56-3.01-.8-6.07-.66-9.13,0-.01,0-.03,0-.04.88.32,1.76.62,2.64.91ZM91.83,86.6s.09.03.12.04c.04.01.08.03.12.04-.02.02-.05.05-.07.09-.04-.02-.09-.03-.14-.03,0-.05-.01-.09-.03-.14ZM92.46,87.29c.13-.12.19-.26.19-.38.15.06.3.11.45.17-.22-.03-.47.09-.63.23,0,0,0-.02,0-.02ZM93.49,90.66c.06-.1.12-.21.17-.31.12-.22.25-.44.38-.66,0,0,.01.01.02.02,0,.03.02.06.04.08-.21.33-.39.67-.62.99.01-.04.01-.08,0-.13ZM94.26,91.98s.08-.05.13-.09c-.13.28-.26.57-.38.86.08-.26.16-.51.25-.76ZM93.41,87.26s-.07-.08-.11-.11c.06.02.12.04.18.07-.03.01-.05.02-.07.04ZM94.73,88.33s.05-.05.08-.08c0,0,0,0,0,0,0,0,0,0,0,0-.02.06-.05.11-.07.17,0-.02,0-.03,0-.05,0-.01,0-.03-.01-.04ZM96.03,87.97c.14.03.28.07.42.1-.08.12-.15.24-.22.37-.02-.08-.06-.16-.13-.21,0,0-.01,0-.02-.01,0-.02-.02-.04-.03-.05,0,0,0,0,0,0,.02-.06,0-.13-.01-.19ZM98.71,80.34c.16-.06.4-.08.48-.22.45-.04.9-.08,1.35-.15.37-.03.75-.05,1.12-.07-.71.71-1.23,1.75-1.78,2.53-1.01,1.71-2.08,3.37-3.09,5.08-1.64-.38-3.23-.87-4.8-1.48-.18-.05-.36-.11-.54-.17,1.8-1.74,3.75-3.34,5.85-4.7.46-.28.9-.61,1.41-.8ZM95.16,81.32c.66-.24,1.31-.52,1.98-.75-.65.42-1.27.87-1.55,1.02-1.64,1.27-3.27,2.57-4.75,4.03-.46-.17-.9-.36-1.34-.57-.15-.04-.35-.2-.56-.33,1.84-1.5,3.96-2.64,6.22-3.4ZM80.99,92.1c2.11-2.71,4.73-4.97,7.47-7.02.37.32,1.17.69,1.93.99-.23.24-.46.48-.69.73-1.66,1.83-3.21,3.77-4.46,5.9-.58,1.15-1.21,2.27-1.76,3.43-.41-.21-.81-.43-1.21-.66-.87-.46-1.68-1.03-2.4-1.7.35-.57.73-1.13,1.13-1.68ZM75.96,106.8s-.02,0-.03,0c0-.13,0-.27.01-.4.02,0,.04.01.06.02-.01.13-.03.25-.04.38ZM79.59,94.24c.6.58,1.27,1.08,1.99,1.5.54.33,1.09.64,1.65.93-.2.45-.39.9-.55,1.37-.89,2.5-1.44,5.09-1.68,7.71-.48-.19-.95-.39-1.42-.61-1.19-.45-2.27-1.19-3.3-1.9.57-3.16,1.68-6.23,3.31-9ZM80.94,106.44s0,.07,0,.11c-.03,0-.05.01-.08.02-.14-.29-.58-.23-.63.09.02-.17.03-.33.03-.5.23.1.46.19.69.28ZM79.74,110.54s-.01.03-.02.04c0-.01,0-.02,0-.03,0,0,.01,0,.02-.01ZM79.71,105.93c-.09.08-.15.2-.16.34,0-.11.03-.26.04-.4.04.02.08.04.12.05ZM78.45,109.86s-.06-.06-.09-.08c0-.04.01-.08.02-.12.02-.12.04-.24.06-.36.01.19.02.37.02.56ZM77.86,106.51c-.03.11-.06.22-.09.34.01-.12.03-.24.04-.36.02,0,.03.01.05.02ZM76.53,104.17s.02-.04.02-.06c.19.13.39.25.56.36-.13,0-.26.08-.29.23-.03.17-.06.35-.1.52-.02-.33.19-.87-.2-1.04ZM80.14,123.29s0,0-.01-.01c-1.02-1.6-1.86-3.31-2.53-5.07-.52-1.5-.91-3.04-1.19-4.6.44.32.91.6,1.39.86.06.05.12.09.2.1.87.45,1.78.83,2.65,1.27.32.17.65.34.97.5.63,3.18,1.52,6.34,2.86,9.3-.44-.18-.87-.36-1.31-.55-1.01-.59-2.2-.95-3.03-1.79,0,0,0,0,0,0ZM87.53,131.22c-1.81-1.11-3.32-2.68-4.64-4.35-.68-.72-1.31-1.49-1.89-2.29,1.22.72,2.52,1.31,3.84,1.84.56,1.14,1.18,2.25,1.9,3.31.37.54.73,1.12,1.12,1.68-.11-.06-.22-.13-.33-.19ZM85.77,126.77s.06.02.09.03c-.02.02-.03.03-.05.05-.01-.03-.03-.06-.04-.09ZM87.07,127.75s.04.01.06.02c-.02.06-.03.13-.05.19,0-.06,0-.13,0-.21ZM87.8,127.97s.03,0,.05.01c-.02.01-.03.03-.04.04,0-.02,0-.04,0-.05ZM89.01,131.78c-.08-.09-.16-.19-.23-.28.09.03.18.02.27-.02.06.03.11.07.17.11-.11.06-.18.12-.21.2ZM91.46,127.84c-1.18-.21-2.31-.61-3.44-.96-.88-.24-1.75-.54-2.6-.87-1.35-2.98-2.38-6.11-3.05-9.32,1.98.92,4.04,1.65,6.13,2.3,1.21.36,2.43.64,3.66.91.04.17.08.35.13.52.69,2.66,1.29,5.35,2.19,7.94-1-.14-2-.38-3.02-.52ZM92.88,129.73s-.04-.01-.05-.02c0,0-.01-.02-.02-.03.03,0,.05.01.08.02,0,0,0,.02,0,.03ZM93.95,134.35s0,0,0,0c0,0,0,0,.01,0,.07.01.15.05.23.08-.08-.03-.16-.05-.25-.08ZM94.35,129.06s-.06-.08-.09-.13c.15.02.3.05.45.07.01.03.02.07.04.1-.09-.09-.22-.12-.4-.04ZM93.11,120.9c-.08-.28-.15-.56-.21-.84.23.05.45.1.68.15.84.19,1.69.35,2.56.38,1.97.19,3.94.26,5.92.34.8,0,1.59.05,2.39.07.07,1.72.17,3.44.31,5.16.02.98.06,1.96.09,2.94-3.22,0-6.44-.14-9.62-.62-.9-2.46-1.44-5.04-2.12-7.57ZM96.88,135.26s.04-.06.06-.1c.05.04.09.1.14.15-.07-.02-.13-.03-.2-.05ZM105.04,136.46c-1.86-.06-3.72-.35-5.54-.63-.18-.03-.36-.06-.55-.09.01-.14-.04-.29-.19-.36-.45-.57-.84-1.19-1.2-1.82-.76-1.36-1.34-2.8-1.99-4.21-.03-.08-.06-.16-.09-.23,1.32.18,2.64.33,3.97.46,1.81.13,3.62.17,5.43.17.05,1.33.09,2.66.09,3.99-.03.73.09,1.46.08,2.19.01.15-.02.36,0,.54ZM104.92,115.43c.03-1.53-.03-3.07-.1-4.6.82-.02,1.65-.06,2.47-.13,3.04-.24,6.04-.74,8.99-1.45,0,3.25-.2,6.51-.59,9.73-1.55.37-3.13.64-4.7.94-1.61.14-3.2.4-4.81.39-.37.03-.73.04-1.1.05-.05-1.65-.07-3.29-.15-4.94ZM105.14,122.43c-.02-.48-.04-.96-.06-1.44.68-.03,1.37-.08,2.05-.08,2.85-.15,5.59-.68,8.38-1.25.03,0,.06-.02.09-.02-.12.97-.26,1.93-.42,2.89-.41,2.04-.87,4.07-1.43,6.07-2.43.42-4.9.48-7.36.49-.29,0-.58,0-.87,0-.07-2.23-.22-4.44-.39-6.67ZM114.95,126.78c0,.09-.03.18-.08.29.02-.1.05-.19.07-.29,0,0,0,0,0,0ZM110.95,135.5c-.86.26-1.72.51-2.59.74-.87.15-1.75.22-2.63.22.04-.33-.06-.77-.02-1.05-.12-1.82-.07-3.64-.16-5.46,0-.07,0-.14,0-.22,1.62,0,3.23-.04,4.85-.07,1.06-.09,2.12-.22,3.17-.38-.22.76-.45,1.51-.7,2.25-.4,1.02-.94,1.97-1.36,2.99-.07.26-.42.64-.55.97ZM118.06,132.83c-.83.42-1.67.81-2.51,1.18-1.19.42-2.39.82-3.6,1.19.35-.69.67-1.6.84-1.9.73-1.28,1.13-2.72,1.51-4.14,2.24-.4,4.46-.97,6.61-1.71-.34.71-.69,1.42-1.05,2.12-.48.79-.79,1.67-1.29,2.45-.12.25-.48.52-.52.8ZM126.18,125.92c-1.05,1.35-2.29,2.54-3.44,3.8-1.04.94-2.21,1.74-3.43,2.44.52-.92,1.03-2.16,1.29-2.49.41-.84.82-1.68,1.22-2.53.14-.05.28-.1.42-.16,1.53-.6,3.15-1.13,4.55-2.01-.2.32-.4.63-.6.95ZM129.17,120.39c-.34,1.1-.87,2.11-1.46,3.09-.02,0-.04.02-.06.03-.42.34-.88.64-1.34.93-.84.55-1.77.94-2.71,1.28-.46.18-.92.36-1.38.54.54-1.18,1.05-2.37,1.48-3.6.65-2.07,1.35-4.14,1.93-6.24.59-.27,1.18-.53,1.75-.84.69-.47,1.47-.79,2.18-1.25.71-.57,1.51-1.05,2.23-1.62-.39,2.72-1.53,5.19-2.63,7.68ZM131.98,111.73s-.04.1-.04.17c-.96.76-1.97,1.45-2.98,2.15-1.04.55-2.07,1.12-3.13,1.63.16-.62.31-1.25.44-1.88.38-1.91.33-3.87.36-5.81,0-.62-.02-1.24-.04-1.86,1.1-.42,2.18-.87,3.24-1.39.25-.14,1.44-.63,1.98-1.11.1.48.21.95.33,1.42.33,2.2.24,4.48-.15,6.68Z" fill="#030305"/><path d="M126.29,83.13c.39.31.72.71.99,1.13.56,1.07.85,2.25,1.12,3.42.18.5.01,1.84.42,2.07.77.37.78-1.95,1.14-2.43.29-.65.75-1.19,1.14-1.78.54-.88,1.17-1.71,2.07-2.25.86-.59-.36-1.06-.71-1.49-.5-.62-1.04-1.26-1.24-2.05-.01-.1-.04-.18-.08-.25-.35-1.08-.65-2.17-.8-3.29-.03-.24-.02-.49.01-.72,0-.23-.3-.36-.47-.21-.09.08-.13.19-.13.3-.13.61-.24,1.24-.41,1.84-.61,1.87-1.46,3.89-3.29,4.85-.29-.03-.48.33-.29.55.13.18.36.22.55.3ZM132.4,82.69c.07.06.14.11.22.16-.08.05-.15.1-.22.15,0-.1,0-.2,0-.28,0,0,0-.02,0-.02ZM130.17,78.74s0,.04.01.05c-.01.01-.02.03-.03.05,0-.03,0-.06.01-.1ZM127.54,83.32s0,0,0,0c.09.12.27.15.4.08-.03.17-.06.35-.09.52-.11-.18-.22-.35-.35-.52.01-.03.02-.06.03-.09ZM127.04,82.24c-.03.19-.06.38-.09.57-.08-.08-.17-.15-.26-.22-.03-.02-.06-.04-.09-.06.15-.09.3-.19.44-.29Z" fill="#030305"/><path d="M136.03,90.24c-2.41-1.42-1.62-3.6-2.35-3.94,0,0,0,0,0,0-.51-.07-.31.52-.44.82-.29.99-.6,2-1.03,2.94-.16.3-.37.56-.62.79-.24.24-.62.4-.71.75-.03.54.5.42.86.37.76.26,1.27,1.08,1.45,1.83.15.45.09.99.36,1.38.2.2.56.05.59-.22.06-.49.08-.98.15-1.46.16-.74.38-1.55.96-2.08.29-.33,1.21-.65.77-1.18ZM131.99,91.33s-.07-.02-.11-.03c.04-.03.08-.07.12-.1,0,.04,0,.09-.01.13ZM133.18,92.24c-.05-.06-.09-.12-.14-.17.06-.01.11-.04.16-.08,0,.08,0,.17-.01.26ZM133.68,93.07s0-.01,0-.02c0,0,0,0,.01,0,0,0,0,.01,0,.02ZM135.03,90.7c0-.18-.04-.35-.23-.39.01-.04.03-.08.04-.12.13.12.27.24.42.35-.08.05-.15.1-.22.16Z" fill="#030305"/><path d="M77.84,126.99c-.37-.59-.69-1.2-.94-1.85-.42-.92-.72-1.88-1.01-2.84-.09-.38-.15-.77-.19-1.16-.02-.36-.12-1.12-.64-.8-.13.11-.16.3-.19.46-.16.89-.3,1.79-.52,2.67-.37,1.1-.74,2.21-1.18,3.29-.36.84-1.01,1.53-1.79,2.02-.25,0-.41.31-.27.52.2.22.54.24.8.39.47.23.84.61,1.22.96.38.41.61.91.84,1.41.35.62.58,1.3.76,1.99.15.39.1,1.32.55,1.44.62.06.39-.82.58-1.2.35-1.31.78-2.59,1.48-3.76.36-.71,1.05-1.1,1.66-1.55.73-.6-.86-1.49-1.17-1.97ZM72.25,129.09c-.08-.04-.16-.07-.24-.11.1-.06.2-.13.29-.2-.01.09-.03.2-.05.31ZM73.57,130.11c.05-.04.09-.1.11-.17,0,.1.01.21.03.31-.04-.05-.09-.1-.13-.15ZM73.99,127c-.05-.09-.14-.13-.22-.13.11-.22.21-.45.3-.68-.03.27-.06.54-.08.81ZM74.38,131.3s-.02-.03-.03-.05c0-.01.02-.03.03-.04,0,.03,0,.06,0,.09ZM74.69,131.92s0,0,0,0c0,0,0,0,0,0,0,0,0,0,0,0ZM74.72,128.73s0-.08,0-.12c-.03-.19.05-.37.09-.55,0,0,0,0,.01,0,.04.23-.06.45-.1.68ZM74.88,124.41c-.3.14-.23.64-.32.93-.05-.03-.09-.04-.14-.05.03-.08.06-.15.08-.23.14-.36.28-.73.4-1.1,0,.15-.02.3-.03.44ZM75.29,127c.02-.08.03-.16.04-.24,0-.03,0-.05.01-.08,0,.1,0,.2,0,.3-.02,0-.04.01-.05.02ZM75.35,133.66s0,0,0,0c0,0,0,0,0,0,0,0,0,0,0,0ZM76.36,125.63c.05.12.1.23.16.35-.05-.02-.1-.02-.16,0-.01-.09,0-.21,0-.34ZM76.42,130.8c.02-.08.03-.15.05-.23.03,0,.05-.02.07-.03-.04.08-.08.17-.12.26ZM76.76,130.16s.02-.08.03-.12c.01,0,.03,0,.04.01-.02.04-.05.07-.07.11ZM77.18,127.43c0-.06,0-.14,0-.22.01.02.02.04.03.05,0,0,.01.02.02.02-.02.04-.04.09-.04.15ZM78.19,128.71s.02-.09.03-.13c.01-.07.03-.15.05-.22.06.06.12.13.17.2-.08.05-.16.1-.25.15Z" fill="#030305"/><path d="M83.33,134.86c-.44-1.1-.45-2.34-.52-3.51.03-.19-.13-.36-.32-.35-.23,0-.31.24-.3.44-.08.3-.15.6-.23.9-.49,1.51-1.33,3.19-2.55,4.24-.24.16-.06.57.19.62.24.04.42.21.61.35.78.76.96,1.89,1.08,2.93.03.17.18.29.35.28.29,0,.35-.31.34-.54.09-.7.26-1.43.71-2,.29-.35.61-.7.97-.98.25-.22.74-.32.73-.72,0-.19-.17-.33-.3-.47-.31-.36-.54-.78-.77-1.19ZM80.15,136.67s-.03-.01-.04-.02c.02-.02.03-.04.05-.06,0,.03,0,.05-.01.08ZM81.23,137.76c-.12-.19-.25-.37-.39-.53,0,0,0,0,.01,0,.02,0,.04,0,.06-.01.02.17.16.31.34.3,0,.08,0,.16-.01.25ZM82.28,137.62c.02-.11.05-.22.09-.32.06,0,.12,0,.19,0-.1.1-.19.21-.28.31ZM82.63,135.17s-.01-.03-.02-.05c-.03-.06-.07-.1-.12-.13.01-.12.03-.24.05-.36.05.16.11.31.18.47-.03.02-.06.04-.08.07Z" fill="#030305"/><path d="M76.04,140.21c-.95-.75-1.22-2.01-1.49-3.13-.03-.14-.06-.29-.09-.44-.08-.31-.57-.25-.58.06,0,0,0,0,0,0-.14,1-.65,1.95-1.23,2.76-.2.24-.43.46-.68.64-.33.16-.73.47-.3.79.87.38,1.44,1.28,1.67,2.19.07.31.12.63.17.94.02.14.04.32.16.42.15.14.39.11.51-.05.11-.16.07-.38.11-.56.06-.4.21-.77.35-1.15.3-.98.59-1.24,1.55-1.56.52-.25.23-.7-.14-.91ZM72.54,140.57s0,.01,0,.02c-.06-.04-.13-.08-.2-.12.08-.06.16-.11.23-.18-.01.1-.02.2-.03.27ZM73.4,139.35c-.01.08-.03.15-.06.2-.02,0-.05-.01-.07-.02.04-.06.09-.12.13-.19ZM73.34,141.46c-.04-.06-.09-.12-.14-.18.06-.01.11-.04.15-.08.02-.02.04-.04.05-.07,0,.1-.04.22-.07.33ZM74.18,141.96s.02-.09.03-.13c.01,0,.02,0,.03,0-.02.04-.04.09-.06.13ZM75.29,140.74s-.02-.06-.03-.09c0-.07,0-.14.02-.21.07.07.15.15.23.21-.08.02-.15.05-.22.08Z" fill="#030305"/></svg>