<?xml version="1.0" encoding="UTF-8"?><svg id="Layer_1" xmlns="http://www.w3.org/2000/svg" viewBox="0 0 207.21 203.87"><path d="M143,77.46c-1.02-2.79-3.06-5.07-5.08-7.19-4.25-4.2-8.53-8.37-13.07-12.25-3.36-2.79-6.57-6.07-10.94-7.17-5.85-1.8-11.87.18-17.29,2.45-5.5,2.15-10.61,5.07-15.72,8-4.07,2.27-8.35,4.4-11.66,7.75-1.93,2.06-3.95,4.22-4.9,6.92-1.69,5.26,1.41,8.03,6.18,9.33,4.5,1.2,9.19,1.55,13.8,2.14,3.16.34,6.36.35,9.49.96-.41,1.74-.74,3.27-.92,3.83-1.11,4.42-3.13,8.61-3.67,13.17-.08,1.26-.55,2.82.09,3.97-.03.05-.05.1-.06.16-.35,1.86-.73,3.8-1.23,5.65-1.69,5.9-3.4,11.8-4.36,17.87-.7,4.04-.84,8.14-1.04,12.23-.02,2.3-.41,4.61-.35,6.91.19.46.77.46,1.19.56,2.83.67,5.76.46,8.62.98,3.05-.24,6.03-1.13,9.12-.55,1.21.16,2.41.35,3.63.45.75.13,1.64.04,2-.72.59-1.27.51-2.74.55-4.11.05-3.78-.63-7.51-1.14-11.24-.52-4.74-.53-9.53-1.18-14.26-.45-3.54-.41-7.1-.55-10.67-.07-.26.05-.91,0-1.37,1.37-.31.56-4.12.77-5.25.23-3.77.09-7.55.57-11.31.21-1.3.45-2.59.68-3.89.07,0,.15-.03.22-.05,2.75-.55,5.69-.42,8.49-.12,4.08.37,8.18.19,12.24-.41,2.35-.47,4.62-1.28,6.91-1.98,4.95-1.34,10.41-4.91,8.62-10.78ZM129.28,84.1c-.87.05-1.76,0-2.61.21-.98.22-1.83.75-2.8,1-1.98.55-4.06-.26-6.05.23-1.77.43-3.34,1.56-5.23,1.52-1.58.09-3.2-.36-4.77.06-.17.07-.52.12-.74.24.03-.25.07-.5.1-.75.21.1.52-.12.76-.12,1.96-.34,4.02-.21,5.94-.76.93-.37,1.66-1.11,2.63-1.4,1.4-.44,2.92-.47,4.25-1.14,1.06-.45,1.7-1.46,2.62-2.1,1.45-.86,3.11-1.26,4.76-1.57,2.78,1.14,5.23,2.62,5.37,4.32-1.4-.19-2.82.2-4.22.27ZM116.57,76.39c1.43.29,2.87.57,4.29.89.4.09.92.21,1.53.37-3.18,1.28-5.86.81-8.23,4.01-1.33,1.18-3.3.8-4.82,1.62-.67.28-1.29.64-1.96.93,0,0,0,0,0,0h0c.06-.68.27-1.44,0-2.05.77-.44,1.92-1.58,2.41-1.68,2.37-.92,3.24-.71,4.77-3.05.53-.56,1.28-.8,2-1.04ZM132.5,78.76c-1.18.1-2.27-1.28-2.59-2.31-.31-1.19.64-2.23,1.86-1.97.87.04,1.36.83,1.61,1.59.48.96.46,2.51-.88,2.68ZM127.34,79.2c-1.69.36-3.4.79-4.75,1.9-.86.88-1.77,1.72-2.99,2.04-1.26.37-2.62.42-3.83.97-.95.46-1.75,1.25-2.85,1.38-.57.18-4.76.25-5.7.72.06-.5.1-.99.14-1.49h0s0,0,0,0c.19,0,.43-.18.6-.25.95-.46,1.89-.97,2.94-1.22,1.29-.25,2.76-.33,3.72-1.36.58-.57,1.04-1.26,1.73-1.72,2.05-1.27,4.68-1.19,6.79-2.31,0,0,0,0,0,0,1.26.34,2.75.8,4.21,1.35ZM116.77,58.24c.8-.35,1.74-.2,2.57.03,3.06,1.5,3.42,5-.67,5.1-1.82.16-2.64-.79-2.96-2.49-.24-.99.17-2.1,1.05-2.64ZM115.75,72.35c1.13-.67,2.5-.33,3.72-.1,1.24.36,3.03.44,3.62,1.79.22.93-.2,1.89-.62,2.72-.05.05-.07.11-.08.18-2.49-.63-5.03-1.07-7.54-1.61-.04-.16-.17-.3-.21-.47-.32-1,.15-2.07,1.11-2.5ZM115.67,76.21h0c-.52.21-1.02.48-1.42.89-.61.67-1.02,1.56-1.89,1.96-.86.41-1.83.56-2.69.97-.92.4-1.63,1.13-2.45,1.69-.03.02-.06.04-.09.06-.34-.34-.72-.63-1.13-.87-.38-1.63,1.72-2.05,2.55-3.11.84-.81.89-2.04,1.47-3,.07.02.14.04.21.06,1.79.55,3.61.96,5.44,1.34ZM101.74,80.05s-.03-.01-.05-.01c-1.6-.84-1-3.03-1.66-4.45-.54-1.24-1.46-2.27-1.92-3.55-.04-.11-.09-.23-.13-.34h0s0,0,0,0c2.13.28,4.22.78,6.29,1.37h0c-.08.25-.14.5-.18.77-.15.81-.04,1.65-.27,2.44-.42,1.16-1.66,2.59-.94,3.78h0c-.38-.02-.76-.02-1.14,0ZM103.52,80.11h0s-.04-.05-.07-.07c-.03-.03-.06-.05-.1-.1-.25-.39-.27-.9-.13-1.33.21-.63.63-1.17.89-1.79.48-1.01.25-2.15.5-3.21.03-.14.07-.28.11-.41,1.62.47,3.23.98,4.84,1.47-.09.15-.17.31-.24.48-.31.74-.44,1.58-.99,2.2-.89,1.13-3,1.67-2.84,3.31h0c-.61-.27-1.27-.45-1.97-.54ZM104.16,51.64c.05-.05.07-.11.08-.17,1.93-.44,3.86-.66,5.78-.57t0,0c.29,1.84-1.18,3.8-3.03,4.09-2.08.5-4.58-1.28-2.83-3.36ZM97.52,64.38c1.56-1.18,5.26-1.48,7.09-.78,1.63.83,1.05,3.01-.17,3.95-.91.75-2.16,1.08-3.34,1.05-2.37,0-5.61-1.53-3.58-4.22ZM94.95,71.45c.83.02,1.65.08,2.47.17h0c.55,1.58,1.65,2.89,2.27,4.42.41,1.3.2,3.13,1.27,4.07h0s0,0,0,0c-.54.07-1.07.17-1.58.32,0,0,0,0,0,0-.95-.44-1.51-1.38-2.08-2.22-.68-1.1-1.76-1.82-2.94-2.3-1.71-.67-2.9-2.04-4.02-3.45-.18-.22-.38-.42-.58-.61,1.71-.3,3.44-.47,5.18-.4ZM85.35,59.61s0-.02,0-.03c1.81-1.03,3.63-2.05,5.5-2.96.04.07.09.14.14.21,1.01,2.56-1.13,5.04-3.7,5.25-1.33.16-2.54-1.19-1.95-2.47ZM83.91,67.73c.08-.23.31-.37.49-.51.48-.31,1.01-.61,1.61-.66.75,0,3.14-.36,3.16.76-.43.83-1.65,1.16-2.53,1.29-.9,0-2.07.09-2.71-.65h0s-.03-.08-.04-.13c0-.02.01-.06.02-.09ZM84.2,73.08c1.64-.39,3.29-.8,4.95-1.11h0c.88.82,1.65,1.74,2.45,2.66.95,1.02,2.24,1.56,3.47,2.14,1.72.75,2.21,2.86,3.7,3.86,0,0,0,0,0,0,0,0,0,0,0,0-.84.29-1.62.66-2.27,1.1h0s0,0,0,0c-.43-.17-1.13-.23-1.36-.38-.63-.2-1.19-.62-1.67-1.07-.91-.87-1.78-1.86-2.84-2.57-.86-.55-1.89-.71-2.8-1.14-1.76-.77-3.29-1.93-4.69-3.25,0,0,0,0,0,0,.36-.08.71-.16,1.07-.24ZM82.58,73.45c1.61,1.56,3.41,2.93,5.51,3.75.84.34,1.75.5,2.5,1.06,1.18.85,2.08,2.05,3.24,2.94.61.49,1.36.66,2.09.87-.19.24-.37.59-.56,1.02h0c-.06,0-.13.02-.18.06-.38.16-.81.23-1.22.24-2.55-.02-4.18-2.38-6.42-3.22-1.53-.36-3.11.16-4.67-.17-2.8-.57-5.46-2.17-7.38-4.3h0s0,0,0,0c.78-.33,1.52-.6,2.07-.83,1.6-.61,3.31-1.04,5-1.42ZM73.27,71.75c.8-1.32,2.33-1.74,3.75-1.19,1.23.37,2.43,1.2,2.75,2.51.03.1.04.22.05.35-2.53.72-5.03,1.64-7.27,3-.6-1.49-.07-3.33.73-4.67ZM75.04,75.89c1.6,1.88,3.78,3.2,6.05,4.12.47.17.96.31,1.45.4,1.42.29,2.85.09,4.28.09,2.39.44,3.92,2.92,6.39,3.29.25.07,1.3.09,1.91-.1,0,0,0,0,0,0h0c-.18.5-.36,1.06-.53,1.65-.42-.15-.93-.13-1.36-.22-2.56-.28-5.16.04-7.7-.46-1.78-.33-3.04-1.78-4.66-2.47-1.3-.47-2.72-.33-4.04-.73-1.92-.57-3.72-1.56-5.37-2.7-.09-.06-.17-.12-.26-.18.67-1.12,2.29-2,3.84-2.68ZM93.13,86.43c-4.84-.23-9.79-.17-14.48-1.62-2.37-.76-4.99-1.37-6.81-3.18-.92-.98-1.1-1.86-.84-2.62h0c1.67,1.19,3.48,2.19,5.43,2.83,1.63.59,3.5.22,5,1.17,1.21.74,2.32,1.73,3.74,2.06,3.06.71,6.23.09,9.3.73-.07.26-.14.52-.21.78-.33-.13-.85-.09-1.12-.15ZM104.9,128.85c.24,3.52.33,7.16.89,10.66.38,2.14,1.79,12.17.08,13.37-2.41.17-4.84-.7-7.27-.62-2.26-.02-4.46.67-6.7.74-2.94-.57-6.04-.29-8.97-1.09.3-4.3.5-8.69.74-13.02.47-5.61,1.59-11.17,3.08-16.6,1.07-3.87,2.31-7.7,3.01-11.65,0-.18.1-.45.16-.71,1.03.44,2.23.57,3.34.72,1.36.1,2.67-.37,3.94-.82,1.56-.59,3.45-.97,4.89.13.56.38,1.08.89,1.7,1.16-.04.27.05.63,0,.88.03,1.61.11,3.22.14,4.83,0,4.02.69,8.01.97,12.02ZM106.77,83.31c-.23,2.93-.61,5.94-1.21,8.84-.86,3.92-.74,7.95-.91,11.94-.14,1.93-.07,3.86-.07,5.78-.04.18-.03.61-.26.69-1.11-.38-1.87-1.47-3.03-1.79-2.54-.86-4.83.97-7.33,1.18-1.28.06-2.53-.33-3.76-.62-.13-.03-.26-.19-.32-.33-.25-.59-.17-1.29-.15-1.93.26-3.92,1.59-7.63,2.85-11.32,1.49-4.18,1.87-8.69,3.64-12.78.92-1.08,2.29-1.65,3.68-1.93,2.18-.45,4.68-.55,6.5.98.14.12.25.27.36.42.08.27.01.58,0,.87ZM123.55,87.64c-1.71.27-3.47.21-5.2.26-2.05-.02-4.09.25-6.14.33-.6.04-4.03-.07-5.33.46.05-.29.09-.57.13-.86h0c.11.05.23-.02.35-.08,1.82-.72,3.78-.04,5.67-.25,2.04-.05,3.7-1.48,5.72-1.63,1.12-.13,2.25.12,3.37.12,1.23.02,2.43-.33,3.54-.85,1.42-.68,3.01-.47,4.53-.64,1.01-.12,2.01-.31,3.01-.22-1.52,1.33-8.17,3.11-9.65,3.36ZM136.04,69.88c-.12.39-.47.58-.81.78-2.21,1.14-5.33-.9-5.07-3.42.07-.75.47-1.42.89-2.04.08-.1.18-.24.25-.39.98.93,1.95,1.88,2.91,2.84.56.58,1.22,1.21,1.9,1.88-.04.11-.05.24-.08.36ZM142.26,81.64s-.03.02-.04.03c-1.8,1.47-3.4.82-3.91-1.41-.57-2.4,1.07-3.03,2.93-3.92.12-.05.29-.12.42-.2.91,1.76,1.28,3.61.6,5.5Z"/><path d="M93.77,94.16c-1.1,3.34-2.32,6.65-2.85,10.14-.22,1.44-.57,2.94-.3,4.39.12.28.54.09.44-.17,0,0,0,0,0,.01-.19-4.89,1.69-9.6,3.15-14.2.11-.29-.34-.45-.44-.17Z"/><path d="M91.98,103.64c-.21,1.62-.5,3.24-.41,4.88.02.21.02.5.24.61.15.06.33-.06.33-.22-.33-1.69.14-3.5.31-5.21.04-.3-.44-.35-.47-.05Z"/><path d="M92.84,105.25c-.04,1.36-.4,2.81-.02,4.13.17.22.52-.02.4-.25-.21-1.25.03-2.56.09-3.83.03-.3-.44-.36-.47-.05Z"/><path d="M86.09,133.58c.04-.31-.44-.35-.47-.05-.87,5.62-1.96,11.37-1.09,17.05.04.31.51.23.47-.07-.26-1.27-.28-2.58-.29-3.88-.07-4.39.7-8.72,1.38-13.05Z"/><path d="M85.97,142.52c0-.13-.12-.23-.24-.23-.13,0-.23.11-.23.24-.1,3.03-.18,6.11.38,9.1.08.3.54.16.45-.13-.54-2.94-.47-6-.36-8.99Z"/><path d="M87.16,149.95c-.07-1.03-.13-2.07-.19-3.11,0-.13-.11-.23-.24-.23-.13,0-.24.11-.23.24.12,1.6.11,3.21.41,4.79.08.29.54.16.45-.13-.11-.51-.15-1.04-.2-1.56Z"/></svg>