<?xml version="1.0" encoding="UTF-8"?><svg id="Layer_1" xmlns="http://www.w3.org/2000/svg" viewBox="0 0 207.21 203.87"><path d="M129.5,100.62c-.07-.23-.12-.49-.1-.72.04-.46,0-.9-.07-1.35-.06-.35,0-.71-.13-1.05-.07-.16-.09-.34-.13-.51-.11-.45-.04-.93-.29-1.35-.03-.05,0-.14-.03-.2-.06-.22-.09-.46-.19-.67-.14-.28-.2-.55-.14-.87.05-.28.05-.58-.11-.84-.16-.26-.31-.52-.5-.75-.14-.19-.21-.38-.21-.61,0-.26-.08-.49-.25-.68-.15-.17-.24-.36-.3-.58-.06-.25-.19-.45-.4-.61-.07-.06-.12-.14-.17-.22-.11-.16-.21-.32-.31-.47-.07-.1-.16-.2-.19-.31-.09-.31-.3-.52-.55-.7-.16-.12-.27-.26-.33-.45-.1-.32-.31-.55-.61-.68-.28-.13-.45-.35-.61-.59-.07-.11-.13-.25-.23-.34-.31-.27-.67-.47-.94-.77-.06-.06-.17-.07-.26-.12-.11-.06-.22-.11-.3-.2-.27-.3-.66-.46-.89-.82-.08-.13-.29-.19-.46-.25-.12-.04-.22-.09-.29-.2-.12-.19-.3-.31-.51-.39-.25-.1-.5-.22-.74-.35-.14-.08-.28-.18-.37-.31-.21-.29-.48-.45-.84-.53-.5-.11-.99-.3-1.47-.48-.14-.05-.25-.21-.37-.31-.05-.04-.11-.08-.17-.11-.28-.11-.55-.27-.84-.31-.38-.05-.74-.17-1.1-.27-.12-.03-.28.05-.4.01-.33-.09-.64-.22-.96-.34-.42-.15-.84-.3-1.27-.44-.07-.02-.17-.02-.24,0-.16.04-.29,0-.42-.08-.2-.12-.42-.17-.67-.13-.26.04-.54.05-.8,0-.28-.05-.55-.15-.81-.26-.49-.22-.98-.31-1.51-.19-.1.02-.22,0-.33,0-.16,0-.33-.03-.49,0-.2.03-.36.03-.54-.08-.19-.12-.42-.14-.64-.07-.18.06-.31.02-.46-.07-.3-.17-.61-.13-.9.03-.1.05-.18.12-.26.17-.34-.04-.63-.05-.91-.11-.3-.06-.58-.03-.82.15-.14.1-.27.1-.42.07-.15-.03-.31-.09-.44-.05-.31.08-.62.05-.94.05-.31,0-.65,0-.93.1-.29.11-.58.16-.87.21-.3.04-.6.05-.88.17-.05.02-.11,0-.16.02-.2.05-.39.1-.59.15-.09.02-.19.07-.27.05-.39-.09-.74.03-1.05.24-.22.15-.46.25-.71.3-.37.07-.68.24-1,.42-.38.22-.82.35-1.25.46-.43.11-.81.32-1.22.47-.07.03-.15.09-.18.16-.11.2-.31.25-.51.31-.26.09-.53.16-.75.31-.46.31-.88.69-1.43.84-.06.02-.13.06-.18.09-.23.15-.48.25-.74.33-.17.05-.31.21-.46.33-.11.08-.19.21-.31.25-.34.12-.55.35-.68.67-.09.23-.25.42-.48.48-.38.11-.62.39-.91.61-.14.11-.25.26-.33.41-.13.24-.27.44-.54.53-.04.01-.08.04-.1.07-.28.36-.63.67-.93,1.02-.12.14-.23.31-.35.45-.38.44-.8.86-1,1.44-.03.09-.11.16-.17.23-.36.42-.64.89-.81,1.41-.06.19-.13.35-.28.49-.18.18-.29.39-.35.64-.08.32-.14.67-.33.92-.28.35-.38.75-.51,1.15-.08.23-.2.46-.25.69-.05.23-.12.44-.22.66-.1.21-.17.44-.1.68.09.33,0,.64-.08.96-.13.51-.18,1.04-.26,1.57-.01.08.03.16.05.24.04.17.04.34.02.52-.02.23,0,.47.06.68.06.22.08.41.03.64-.07.3-.06.61.1.88.18.29.33.59.49.89.27.51.39,1.04.47,1.59.05.35.14.67.41.91.11.1.19.23.29.34.21.27.44.49.81.5.12,0,.24.05.36.08.39.1.78.14,1.16-.05.07-.04.16-.04.24-.04.27-.03.53-.06.81-.03.21.02.42.01.62.11.05.02.1.05.16.05.26,0,.47.12.69.24.17.09.35.16.52.25.18.09.38.17.53.3.18.16.37.28.6.33.16.04.26.13.34.27.15.29.38.5.72.55.05,0,.1.03.15.06.42.24.79.55,1.08.93.17.21.35.39.6.48.55.18.76.77,1.24,1.04.06.03.06.15.12.21.14.15.27.33.44.42.24.12.44.26.62.45.07.08.18.12.27.19.32.25.74.35.99.71.07.1.23.15.35.19.16.06.27.16.39.28.17.19.38.35.59.5.23.16.5.28.73.44.38.27.74.57,1.12.83.41.27.85.49,1.21.83.04.04.09.06.14.09.3.13.59.27.89.39.16.06.3.12.4.27.04.06.09.11.15.14.38.17.73.41,1.09.61.4.22.87.34,1.31.47.26.08.52.12.74.31.1.08.25.14.38.14.42,0,.72.25,1,.49.27.22.54.36.89.35.09,0,.21,0,.28.04.22.18.51.25.7.48.24.29.56.42.95.32.08-.02.18-.04.24,0,.3.16.63.16.96.19.42.05.84.08,1.26.12.03,0,.06,0,.08,0,.2-.07.36,0,.54.1.31.18.64.23.98.09.06-.03.14-.07.19-.06.33.08.65.06.97-.03.05-.01.11,0,.16.01,1.24.19,2.42-.05,3.57-.47.09-.03.2-.06.28-.03.34.13.65.04.95-.11.18-.09.36-.09.55-.03.44.12.83-.02,1.09-.38.21-.29.48-.48.77-.66.19-.11.34-.26.48-.44.09-.13.23-.22.36-.32.33-.26.67-.51,1.01-.77.05-.04.1-.1.13-.15.28-.5.57-.99.85-1.49.05-.08.06-.18.08-.27.04-.2.06-.41.11-.6.09-.35.02-.69-.13-1-.15-.32-.4-.55-.74-.67-.13-.04-.24-.12-.36-.18-.11-.05-.22-.11-.33-.15-.1-.04-.22-.04-.31-.09-.13-.07-.25-.05-.39-.03-.39.05-.78.2-1.17.03-.06-.02-.14-.01-.2.01-.22.09-.43.04-.64-.03-.09-.03-.21-.06-.27-.02-.22.16-.49.15-.72.23-.28.09-.53.06-.8,0-.24-.05-.48-.13-.71-.19-.12-.03-.24-.1-.36-.09-.44.04-.79-.18-1.14-.4-.16-.1-.34-.18-.52-.23-.44-.14-.87-.31-1.28-.54-.41-.24-.81-.5-1.26-.67-.32-.12-.6-.37-.9-.56-.25-.16-.5-.33-.74-.51-.16-.12-.33-.25-.46-.4-.11-.13-.22-.23-.38-.28-.23-.07-.4-.22-.54-.42-.17-.23-.35-.46-.57-.64-.21-.17-.34-.38-.46-.61-.2-.39-.41-.77-.63-1.15-.16-.27-.34-.52-.52-.78-.05-.08-.11-.16-.16-.24-.23-.34-.46-.67-.53-1.09-.02-.14-.09-.31-.19-.4-.3-.27-.38-.66-.56-.99-.08-.15-.14-.34-.14-.51.01-.38-.11-.72-.25-1.06-.06-.15-.12-.3-.18-.46-.08-.23-.14-.47-.09-.72.05-.27-.02-.51-.18-.73-.08-.1-.16-.24-.15-.36.01-.41-.15-.81-.05-1.22.02-.1,0-.23-.04-.32-.1-.2-.04-.4,0-.6.04-.24.09-.49.06-.73-.04-.23-.02-.43.07-.63.04-.09.05-.19.07-.28.07-.24.07-.52.3-.7.05-.04.05-.15.06-.23.08-.54.31-1.01.62-1.44.22-.31.49-.59.72-.88.18-.22.36-.45.51-.69.16-.27.36-.48.65-.6.2-.08.35-.2.43-.41.09-.21.25-.35.45-.46.32-.18.65-.34.86-.66.14-.2.37-.29.61-.31.2-.02.36-.1.51-.22.25-.2.52-.35.86-.32.09,0,.19-.03.27-.07.4-.21.86-.07,1.27-.22.09-.03.21.05.32.07.12.02.24.05.36.03.23-.04.43.03.64.1.09.03.18.11.26.1.42-.02.77.15,1.08.41.03.03.07.04.11.05.43.23.87.44,1.34.58.18.05.34.16.51.25.28.14.56.28.83.44.1.06.22.14.26.24.08.25.24.42.41.61.27.3.6.55.76.95.01.04.05.06.07.1.24.36.49.72.52,1.18.01.17.08.35.18.49.15.21.2.44.22.69.01.19.03.39.11.56.21.47.15.93,0,1.4-.03.09-.1.18-.09.27.05.49-.12.93-.27,1.38-.19.55-.16,1.17-.62,1.61-.02.02-.02.05-.04.07-.32.66-.73,1.24-1.36,1.65-.17.11-.34.23-.52.33-.26.14-.55.25-.8.41-.19.12-.38.17-.58.14-.28-.05-.56-.11-.84-.19-.43-.12-.85-.29-1.29-.38-.42-.09-.74-.33-1.09-.53-.18-.11-.34-.27-.47-.43-.09-.11-.17-.2-.3-.27-.27-.15-.38-.42-.5-.68-.06-.13.06-.29.17-.24.34.13.72.13,1.02.39.36.3.83.31,1.27.39.28-.14.59-.1.88-.16.17-.04.32-.02.48.03.14.04.29.09.43.12.07.01.17.01.23-.02.47-.22.91-.48,1.3-.83.13-.12.21-.24.21-.42,0-.27.12-.5.3-.7.08-.09.14-.2.19-.31.12-.26.23-.53.34-.79.03-.06.06-.14.04-.19-.11-.36-.01-.7.08-1.05.04-.16.02-.31-.07-.47-.19-.33-.46-.62-.55-1-.01-.05-.07-.09-.09-.13-.1-.18-.19-.36-.29-.54-.15-.27-.26-.58-.45-.81-.48-.57-1.06-1.06-1.49-1.69-.05-.07-.14-.17-.22-.17-.42,0-.7-.28-1.03-.47-.1-.06-.22-.1-.34-.13-.41-.1-.79-.29-1.23-.24-.01,0-.03,0-.04,0-.18-.08-.34-.06-.51.03-.06.03-.13.05-.19.06-.5.06-.99.14-1.46.35-.07.03-.16.05-.24.05-.29.02-.52.18-.69.39-.16.2-.35.33-.57.45-.18.1-.4.2-.48.37-.17.35-.43.55-.76.72-.04.15-.06.3-.11.44-.06.16-.13.33-.23.47-.15.24-.34.46-.49.71-.07.11-.1.25-.11.38-.04.26-.1.53-.28.72-.35.37-.35.85-.45,1.29-.09.42-.21.85-.09,1.28,0,.02,0,.05,0,.08,0,.22-.02.44.01.65.03.21.07.44.17.62.11.2.19.39.23.61.02.12.08.23.13.34.04.1.1.19.13.3.04.17.12.3.23.42.24.27.36.58.3.94-.01.07.02.16.04.24.07.3.24.55.44.78.19.23.32.47.34.77.02.25.12.46.3.66.11.13.18.31.23.47.12.37.26.71.54.99.11.11.19.27.23.43.06.25.14.46.36.61.07.04.1.13.16.18.23.21.42.47.75.55.1.02.18.12.27.18.1.07.19.16.3.21.22.09.4.23.56.4.05.06.13.11.2.14.38.17.69.49,1.13.56.03,0,.05.02.07.04.36.23.72.41,1.15.51.57.13,1.08.44,1.67.54.24.04.47.12.72.12.33,0,.66,0,.94.21.05.04.13.04.2.05.38.07.75.24,1.15.15.02,0,.05,0,.08.01.49.1,1,.14,1.5.14.22,0,.43.02.62.16.07.05.17.05.26.05.26.02.5-.08.75-.11.46-.05.92-.04,1.38-.09.38-.04.76-.05,1.14-.09.13-.01.26-.09.39-.13.18-.06.35-.16.54-.18.41-.05.69-.27.87-.61.22-.43.61-.68.98-.95.35-.26.71-.51.88-.94.04-.1.13-.18.19-.26.22-.31.51-.56.65-.94.12-.33.27-.65.41-.98.03-.06.08-.11.12-.17.17-.22.67-1.38.69-1.65.05-.49.21-.96.36-1.43.07-.24.17-.46.08-.72-.05-.16,0-.29.08-.43.16-.32.18-.65.08-1ZM87.33,93.37c-.14.31-.26.64-.45.91-.25.37-.38.78-.53,1.19-.09.24-.18.48-.25.73-.07.26-.19.51-.31.76-.15.31-.27.62-.21.98.02.14-.02.31-.09.43-.19.37-.24.75-.22,1.15.02.31-.03.59-.23.85-.1.12-.09.33-.11.5-.03.21-.03.43-.06.65-.04.31-.1.63-.15.96-.21-.13-.24-.36-.33-.54-.17-.32-.34-.64-.57-.93-.11-.14-.2-.35-.19-.52.03-.45-.03-.9-.02-1.34.01-.39.07-.75.27-1.1.14-.26.24-.55.24-.86,0-.15.03-.31.1-.43.16-.3.34-.59.52-.88.06-.11.14-.21.18-.32.17-.5.51-.9.8-1.32.08-.12.2-.22.31-.32.27-.29.54-.57.82-.85.21-.21.22-.21.59-.08-.04.15-.06.28-.11.4ZM98.35,82.88c-.71.2-1.39.47-2.07.77-.21.1-.43.17-.65.25-.47.17-.88.49-1.39.56-.06,0-.12.06-.17.1-.27.18-.54.37-.81.55-.15.1-.3.19-.47.25-.49.17-.86.5-1.28.78-.34.23-.63.58-1.08.64-.09.01-.18.11-.25.19-.21.25-.47.42-.76.54-.17.07-.31.16-.42.31-.05.07-.11.13-.18.17-.45.21-.8.56-1.19.84-.32.23-.59.52-.79.86-.14.23-.33.43-.5.65-.08.11-.18.21-.22.34-.09.25-.26.42-.47.55-.15.09-.25.2-.31.36-.04.1-.1.19-.17.28-.17.23-.32.46-.34.77-.02.25-.16.47-.39.6-.22.13-.32.33-.34.58-.02.31-.11.58-.3.84-.11.15-.14.36-.25.51-.15.22-.29.43-.29.7-.31.5-.31,1.1-.57,1.61-.17.32-.25.67-.19,1.07.06.38-.05.79-.02,1.18.04.51.06.98-.17,1.47-.16.36-.15.79-.22,1.22-.16-.04-.2-.21-.3-.33-.12-.13-.21-.29-.32-.42-.21-.26-.37-.54-.43-.87-.06-.35-.15-.69-.21-1.04-.02-.13-.04-.28-.02-.41.06-.3.03-.6,0-.89-.05-.59.1-1.13.3-1.68.11-.31.2-.62.2-.96,0-.16.03-.33.1-.48.2-.44.33-.89.41-1.37.05-.31.19-.58.47-.74.14-.08.18-.2.2-.33.05-.33.22-.57.48-.78.2-.16.34-.39.38-.66.06-.51.41-.89.62-1.33,0-.01.01-.03.03-.03.39-.19.55-.57.79-.9.23-.32.55-.56.83-.85.09-.09.17-.18.23-.28.12-.2.25-.39.49-.48.04-.01.08-.04.1-.07.18-.37.58-.48.88-.71.27-.2.58-.35.87-.52.07-.04.13-.1.19-.15.16-.12.33-.24.5-.35.14-.1.3-.19.43-.31.22-.19.46-.35.76-.36.34,0,.59-.21.83-.41.21-.18.47-.27.71-.4.6-.3,1.28-.41,1.84-.8.07-.05.15-.08.23-.09.79-.14,1.56-.37,2.32-.59.05-.02.1-.04.16-.05.69-.03,1.32-.31,2-.41.31-.05.59.04.88.07,0,.03,0,.06.01.08-.23.1-.46.23-.71.29ZM102.75,108.82c.43.45.95.81,1.35,1.3.16.2.43.33.64.49.07.05.15.08.19.15.27.45.75.62,1.14.9.02.02.06.01.08.03.51.45,1.13.71,1.71,1.04.12.07.23.16.31.26.23.3.58.4.9.52.27.1.55.25.86.22.06,0,.13.03.19.06.45.2.89.4,1.34.61.04.02.07.04.11.05.6.14,1.13.46,1.7.67.2.07.39.16.59.24,0,.03-.01.06-.02.1-.1.03-.21.07-.31.09-.46.07-.88.3-1.35.29-.32.24-.72.09-1.07.2-.26.08-.48-.07-.7-.19-.46-.24-.93-.45-1.43-.55-.09-.02-.18-.06-.27-.1-.02,0-.04-.04-.07-.04-.47-.13-.8-.49-1.21-.72-.23-.13-.44-.32-.7-.41-.04-.01-.07-.04-.1-.07-.24-.34-.62-.53-.92-.81-.23-.21-.44-.44-.67-.66-.06-.06-.12-.11-.19-.16-.26-.21-.49-.43-.63-.74-.06-.12-.16-.22-.24-.32-.16-.19-.33-.36-.47-.56-.23-.35-.44-.72-.66-1.08-.18-.29-.34-.58-.34-1,.11.1.17.15.23.21ZM119.2,105.44c.28-.14.58-.24.86-.37.5-.22.95-.51,1.31-.95.24-.29.55-.51.83-.77.03-.03.08-.05.09-.08.06-.34.35-.48.58-.65.25-.18.44-.41.6-.66.05-.07.12-.13.21-.22.03.09.07.14.06.19-.05.35-.09.7-.17,1.04-.04.19-.1.36-.08.56.03.21-.04.4-.17.57-.1.13-.15.29-.24.42-.11.15-.21.34-.37.42-.29.14-.52.35-.76.54-.08.07-.17.14-.27.17-.35.1-.68.25-1.07.26-.47.02-.95.02-1.42,0-.14,0-.27-.03-.34-.22.11-.09.21-.21.34-.27ZM126.63,104.21c-.03.48-.03.99-.34,1.41-.06.09-.08.2-.13.3-.07.16-.15.32-.23.47-.05.1-.11.19-.14.29-.07.25-.21.44-.42.59-.12.08-.19.17-.26.3-.14.26-.33.47-.65.5-.25.02-.43.18-.6.33-.41.35-.48.37-1.07.26-.22.19-.46.35-.79.3-.06,0-.13.03-.19.05-.04.01-.07.05-.11.05-.48.02-.95.23-1.44.06-.21-.07-.45-.06-.68-.09-.11-.01-.25.01-.32-.05-.2-.18-.45-.16-.68-.22-.34-.09-.67-.22-1.01-.33-.03,0-.06-.02-.07-.04-.23-.29-.61-.46-.71-.88.19-.11.38-.15.58-.06.37.18.77.16,1.16.16.22,0,.43.06.65.06.24,0,.48.06.71-.05.15-.08.31-.08.48-.04.24.06.48.09.7-.08.05-.04.13-.06.19-.07.42-.08.8-.25,1.12-.53.05-.04.12-.09.18-.09.41.04.68-.29,1.03-.41.08-.03.16-.11.19-.18.1-.25.26-.45.51-.56.11-.05.15-.14.2-.24.07-.17.18-.33.27-.5.05-.08.1-.16.13-.25.09-.25.21-.48.46-.61.05-.02.09-.06.12-.11.17-.29.33-.59.5-.88.14-.23.28-.46.46-.75.03.3.06.52.08.75.04.38.14.76.12,1.13Z" fill="#191919"/><polygon points="113.71 121.7 113.7 121.7 113.71 121.7 113.71 121.7" fill="#191919"/><path d="M111.97,122.05c-.06,0-.12.06-.18.08-.23.08-.46.19-.69.23-.39.07-.76-.05-1.09-.28-.3-.21-.63-.29-.98-.2-.27.07-.51,0-.76-.07-.12-.04-.24-.11-.35-.09-.34.04-.64-.08-.96-.18-.17-.05-.34-.12-.52-.04-.16.07-.28.02-.41-.1-.3-.28-.71-.34-1.07-.48-.09-.04-.21.02-.32.03-.09,0-.2.05-.27.02-.31-.14-.67-.17-.89-.48-.06-.08-.18-.13-.28-.17-.37-.13-.67-.43-1.09-.43-.01,0-.02-.01-.04-.02-.2-.07-.41-.15-.61-.22-.27-.1-.55-.17-.8-.31-.4-.23-.84-.39-1.16-.73,0,0-.02-.01-.04-.02-.37-.18-.73-.36-1.11-.53-.15-.07-.27-.16-.38-.29-.12-.14-.27-.29-.44-.34-.26-.08-.48-.21-.67-.39-.17-.15-.35-.25-.56-.32-.26-.09-.5-.2-.7-.41-.2-.2-.43-.39-.67-.54-.24-.15-.48-.3-.66-.53-.1-.12-.24-.24-.38-.3-.65-.26-1.09-.81-1.64-1.21-.19-.32-.51-.48-.79-.7-.09-.07-.19-.16-.25-.26-.16-.29-.39-.48-.71-.58-.22-.07-.42-.17-.55-.39-.07-.12-.22-.2-.36-.26-.22-.09-.36-.23-.48-.42-.08-.13-.19-.29-.33-.35-.25-.11-.42-.3-.63-.45-.36-.26-.76-.45-1.12-.72-.15-.11-.33-.18-.46-.32-.16-.17-.36-.28-.6-.33-.22-.06-.46-.11-.65-.24-.22-.15-.45-.27-.7-.32-.52-.11-1.02-.34-1.57-.26-.06,0-.13-.03-.2-.04-.12-.02-.25-.06-.36-.04-.36.07-.72.14-1.07.26-.28.09-.4.37-.32.66.07.29.29.47.52.61.3.19.61.37.94.5.29.12.51.31.72.53.19.21.39.42.56.65.16.22.37.36.63.43.26.07.42.22.53.47.07.16.16.33.29.44.27.26.53.56.93.65.07.02.13.09.19.14.08.07.16.14.24.22.32.31.65.62.97.93.04.04.06.09.09.14.05.06.1.14.17.18.2.13.33.32.46.52.15.23.33.46.6.53.36.1.59.33.79.62.22.31.49.56.81.75.25.15.45.34.67.52.35.27.75.47,1.03.84.41.1.71.38,1,.67.13.13.29.25.4.4.13.17.29.28.48.37.38.2.77.41,1.14.63.15.09.26.24.39.35.11.1.23.19.34.28.09.07.21.1.27.18.25.33.6.45.99.53.31.06.61.16.83.41.05.06.13.11.21.12.4.07.77.19,1.14.39.16.09.33.15.47.3.23.24.52.35.85.3.41-.06.8,0,1.18.19.28.13.59.2.83.41.08.07.2.08.31.11.13.04.26.07.39.11.2.06.39.1.6.06.1-.02.22,0,.31.05.23.13.46.15.71.15.12,0,.27-.01.36.05.4.27.86.16,1.27.14.36-.02.7-.03,1.05.08.28.08.55.05.79-.1.15-.09.3-.13.47-.11.4.03.78-.07,1.16-.18.48-.14.9-.42,1.34-.65.47-.24.71-.76,1.23-.89.01,0,.02-.02.03-.03.26-.28.5-.57.77-.83.13-.13.16-.27.15-.44-.2.02-.41.01-.6.05-.38.08-.73.28-1.13.29Z" fill="#191919"/><path d="M113.74,121.69s0-.02,0-.03c-.01.01-.02.02-.03.03,0,0,.01,0,.02,0Z" fill="#191919"/><path d="M113.71,121.7s0,0,0,0c0,0,0,0-.01,0h0Z" fill="#191919"/></svg>