<?xml version="1.0" encoding="UTF-8"?><svg id="Layer_1" xmlns="http://www.w3.org/2000/svg" viewBox="0 0 207.21 203.87"><path d="M105.02,104.81c-.16,0-.28.13-.28.28v10.79c0,.16.13.28.28.28s.28-.13.28-.28v-10.79c0-.16-.13-.28-.28-.28Z" fill="#1c1b19"/><path d="M108.97,126.88c-.15.03-.26.17-.23.33.57,3.14.3,9.78.3,9.84,0,.16.11.29.27.29,0,0,0,0,.01,0,.15,0,.28-.12.28-.27.01-.27.27-6.76-.31-9.97-.03-.15-.17-.26-.33-.23Z" fill="#1c1b19"/><path d="M107.05,131.52c-.16.02-.27.16-.25.31,0,.07.74,7.22,0,9.87-.04.15.05.31.2.35.03,0,.05.01.08.01.12,0,.24-.08.27-.21.76-2.75.04-9.78,0-10.08-.02-.16-.16-.27-.31-.25Z" fill="#1c1b19"/><path d="M101.19,131.38c-.15-.04-.31.05-.35.2-.68,2.45-1.15,6.8-.74,8.76.03.13.15.22.28.22.02,0,.04,0,.06,0,.15-.03.25-.18.22-.33-.39-1.85.08-6.16.73-8.49.04-.15-.05-.31-.2-.35Z" fill="#1c1b19"/><path d="M125.09,81.42c-2.1-7.04-6.44-13.03-9.71-16.82-3.24-3.75-7.23-7.58-12.32-7.58-.33,0-.67.02-1.01.05-.73.07-1.47.23-2.21.47-2.69.87-5.23,2.77-7.37,5.5-5.28,6.74-9.17,14.38-10.68,20.97-1.38,6.05,2.31,11.34,9.4,13.47,2.99.9,6.16,1.46,9.32,1.67.04,1.98.07,4.81.08,8.75,0,1.13,0,2.36,0,3.68,0,6.87-1.31,13.31-2.7,20.12-.19.94-.38,1.88-.57,2.82-.57,2.88-1.17,5.85.81,8.73,1.52,2.22,4.14,3.59,6.82,3.59,1.69,0,3.24-.55,4.5-1.59,2.21-1.83,3.3-5.07,3.17-9.38-.09-3.13-.46-6.28-.81-9.32-.24-2.08-.49-4.23-.65-6.34-.29-3.94-.44-8.33-.51-12.32-.06-3.68-.06-7.02-.04-9.37,3.12-.61,6.05-1.61,8.69-2.97,5.33-2.76,7.53-8.18,5.76-14.14ZM88.51,82.58c-1.06,1.23-2.5-.7-2.04-1.86.27-.67.94-1.07,1.65-.83,1.08.38,1.04,1.93.39,2.69ZM88.82,92.41c-.7-.08-1.29-.41-1.68-.88-.55-.66-.72-1.61-.31-2.56.58-1.33,2.3-2.07,3.51-1.11,1.83,1.45,1.07,4.86-1.52,4.55ZM112,66.83c-.26.21-.62.31-1.02.23-1.13-.21-2-1.55-2.32-2.57-.14-.46-.16-1.14.28-1.45.53-.37,1.35.12,1.79.44.66.48,1.37,1.16,1.64,1.95.19.55.02,1.09-.37,1.4ZM106.97,70.54c1.41.38,2.44,1.55,2.71,2.86.19.91,0,1.89-.66,2.72-1.88,2.33-5.94,2.73-8.43,1.25-1.14-.67-1.65-1.98-1.22-3.25.71-2.12,3.21-3.32,5.27-3.66.78-.13,1.58-.13,2.34.07ZM93.12,80.17c.59-.8,1.53-1.47,2.53-1.33,2.62.37,2.17,3.84.82,5.3-.76.82-1.95,1.19-2.98.62-1.5-.83-1.37-2.97-.61-4.25.07-.12.15-.24.23-.35ZM96.75,65.15c1,.37,1.63,1.49.88,2.87-.51.93-1.92,2.27-3.08,1.72-1.24-.58-1.16-2.75-.47-3.68.75-1.01,1.84-1.22,2.67-.91ZM97.85,91.65c.29-1.09,1.7-1.91,2.79-1.65.23.05.45.16.63.33.87.83.3,2.44-.61,2.98-1.17.69-3.24-.07-2.81-1.66ZM106.35,87.53c-.64-1.68.6-3.17,1.85-3.68,1.26-.52,3.1-.64,4.24.36,1.37,1.21,1.04,3.62-.35,4.59-1.47,1.02-4.92.88-5.73-1.27ZM117.3,78.04c-.76-1.12-1.13-3.05.25-3.88.56-.34,1.14-.2,1.65.21,1.2.96,1.99,3.41,1.16,4.43-.81,1-2.5.07-3.06-.76ZM121.71,86.47c1.96.58-.93,5.99-2.43,3.58-.17-.28-.24-.61-.25-.94-.04-1.37,1.1-3.1,2.67-2.64ZM110.22,120.29c.39,5.21,1.3,10.39,1.46,15.61.09,2.96-.39,6.58-2.82,8.59-3.05,2.53-7.73,1.32-9.88-1.8-1.74-2.53-1.21-5.19-.66-7.98,1.55-7.76,3.29-15.21,3.29-23.14,0-1.32,0-2.55,0-3.68-.01-3.9-.05-6.72-.08-8.7.57.02,1.15.04,1.72.04,1.55,0,3.07-.09,4.56-.26.12,2.19.27,5.77.23,8.64,0,.14.1.26.23.28.01,0,.03,0,.05,0h0s.04,0,.05,0c.13-.02.23-.14.23-.27.04-2.91-.11-6.53-.23-8.72.44-.06.87-.12,1.3-.19-.02,2.33-.02,5.6.04,9.19.07,4.01.22,8.42.52,12.39Z" fill="#1c1b19"/></svg>