<?xml version="1.0" encoding="UTF-8"?><svg id="Layer_1" xmlns="http://www.w3.org/2000/svg" viewBox="0 0 207.21 203.87"><path d="M117.26,113.45c-.04-.19-.03-.37,0-.56.02-.26.06-.51.12-.76.05-.18.07-.37.16-.54.04-.08.07-.17.07-.26.01-.31.15-.58.23-.87.03-.12.08-.23.09-.35.01-.29.16-.53.28-.78.07-.13.15-.27.16-.41.03-.36.13-.7.27-1.03.1-.24.14-.5.22-.74.02-.07.08-.14.13-.2.13-.16.23-.32.28-.53.06-.25.15-.5.23-.74.03-.07.08-.14.13-.2.21-.26.28-.56.21-.87-.05-.21,0-.34.16-.47.29-.22.42-.52.45-.88,0-.07.02-.14.05-.2.05-.14.1-.28.16-.42.12-.26.23-.53.37-.78.09-.17.18-.34.17-.54,0-.18.06-.32.15-.47.19-.29.31-.61.3-.96,0-.18.03-.32.16-.42.25-.21.35-.5.39-.82.04-.32.15-.62.37-.86.38-.4.43-.93.6-1.42.02-.05.01-.12,0-.18-.03-.19.02-.35.14-.5.18-.25.22-.53.17-.82-.03-.16,0-.31.06-.47.09-.24.15-.49.22-.74.04-.15.06-.31.1-.46.06-.19.11-.39.05-.59-.06-.19-.04-.37,0-.56.04-.19.08-.39.08-.59,0-.41.11-.83-.06-1.24,0,0,0-.02,0-.03.02-.53-.12-1.03-.2-1.54-.01-.09-.01-.18,0-.26.08-.36.04-.68-.14-1.01-.14-.27-.25-.56-.21-.89.03-.24-.03-.48-.17-.68-.23-.33-.27-.75-.54-1.06-.04-.04-.03-.11-.06-.17-.13-.29-.25-.59-.4-.87-.09-.16-.17-.32-.21-.49-.04-.21-.15-.39-.3-.54-.08-.08-.16-.18-.22-.28-.14-.22-.27-.44-.42-.66-.06-.09-.14-.18-.24-.22-.22-.1-.36-.28-.49-.46-.13-.19-.31-.3-.53-.38-.25-.08-.49-.18-.73-.26-.08-.03-.18-.04-.26-.04-.13,0-.23-.03-.33-.11-.21-.16-.45-.23-.7-.1-.17.09-.34.1-.52.1-.1,0-.2,0-.3.01-.21.03-.4.11-.55.28-.1.12-.22.22-.34.34.02.03.04.08.06.14.05.11.14.21.15.32.02.26.1.51.13.76.03.28.11.55.23.8.09.19.11.38.07.59-.01.08-.04.17-.01.23.11.22.1.44.08.67,0,.11,0,.22.07.31.11.14.16.3.17.47.02.24.05.48.03.71-.03.26.12.48.08.74,0,.03,0,.06,0,.09,0,.13.02.25.08.37.06.13.09.28.11.43.02.16.03.32.04.47,0,.05.02.1,0,.15-.05.19-.01.38.04.56.06.21.05.41-.02.62-.07.23-.1.46-.03.71.04.12.02.26.02.39-.01.22-.04.43-.07.65-.02.19-.02.38-.05.56-.02.15-.04.29,0,.44.03.12.02.26,0,.39-.04.17-.04.33,0,.5.03.12,0,.26,0,.39-.01.21-.06.42-.05.62.01.29-.03.56-.12.82-.07.19-.08.37-.04.56.03.13,0,.26-.01.38-.05.31-.19.6-.21.93-.02.23-.1.45-.13.67-.05.29-.07.59-.13.89-.06.3-.04.62-.21.89-.04.06,0,.18,0,.26,0,.1.02.22-.03.29-.12.19-.12.4-.16.6-.05.25-.11.5-.15.76-.06.41-.25.79-.32,1.2-.04.24-.14.47-.16.73-.02.21-.05.44-.21.61-.03.03-.04.07-.05.11-.21.53-.43,1.05-.61,1.58-.08.24-.25.38-.43.54-.01-.2-.02-.4.01-.6.07-.39.15-.78.24-1.17.06-.24.14-.48.2-.72.05-.18.11-.36.13-.55.02-.25.07-.49.13-.73.11-.44.19-.9.28-1.34,0-.02,0-.04,0-.06-.05-.15.01-.27.05-.41.04-.13.04-.27.08-.41.08-.29.15-.57.15-.87,0,0,0-.02.01-.03.18-.35.18-.74.2-1.11.03-.39.12-.77.16-1.16.01-.16.04-.32.01-.47-.04-.19,0-.36.1-.51.07-.1.07-.19.06-.31-.01-.22-.03-.45.04-.65.2-.54.09-1.1.17-1.65,0-.04,0-.08-.01-.12-.07-.18-.06-.37-.04-.56.02-.22.06-.43-.04-.65-.02-.05,0-.12,0-.18.03-.25.13-.48.05-.74-.01-.03,0-.08.02-.12.09-.28.04-.55-.04-.82-.03-.11-.04-.24-.03-.35.01-.15.06-.29.08-.44.01-.08.02-.17,0-.23-.12-.28-.09-.57-.09-.86,0-.23-.04-.44-.16-.63-.09-.15-.13-.31-.14-.48,0-.1,0-.21-.05-.29-.12-.25-.12-.5-.05-.76.07-.23.02-.47-.1-.66-.12-.21-.18-.41-.18-.65,0-.23-.06-.45-.09-.68,0-.02,0-.04.01-.06.07-.23.04-.45-.1-.65-.12-.17-.19-.37-.22-.58-.02-.16-.06-.31-.08-.47-.04-.32-.09-.64-.24-.94-.01-.03-.02-.06-.02-.09,0-.25-.14-.43-.32-.59-.11-.1-.2-.22-.26-.36-.07-.18-.2-.33-.37-.42-.1-.06-.16-.13-.21-.24-.1-.25-.29-.43-.55-.52-.06-.02-.11-.04-.16-.07-.3-.21-.71-.2-.99-.46-.07-.06-.21-.04-.32-.07-.1-.02-.2-.03-.28-.08-.18-.1-.38-.12-.57-.16-.24-.05-.48-.01-.71,0-.14,0-.28.03-.4.09-.13.07-.26.09-.4.08-.14-.02-.28,0-.4.1-.07.05-.15.09-.24.13-.15.06-.27.16-.37.3-.12.17-.27.31-.5.35-.16.03-.3.13-.37.28-.11.23-.21.47-.31.71-.05.12-.1.24-.16.35-.05.11-.12.21-.17.29.09.24.16.47.33.65.06.06.08.16.1.25.04.16.12.29.22.42.09.12.15.25.21.39.08.17.12.36.21.53.12.22.27.42.26.69,0,.04.03.07.05.11.12.22.17.47.34.66.05.06.07.17.07.25,0,.13.04.23.14.32.15.14.22.32.24.53.03.35.09.7.29,1,.14.21.2.43.19.68-.01.17.02.32.14.44.11.11.13.26.16.41.07.45.13.9.22,1.35.06.31.16.62.22.93.08.44.12.89.28,1.31.03.09.04.2.05.29.03.2.02.4.08.59.12.34.15.7.22,1.05.05.23.05.47.17.69.06.1.06.23.05.35,0,.24-.06.47.04.71.02.05,0,.12-.01.18-.05.2,0,.41.07.59.08.2.1.38.09.58,0,.35-.01.7.09,1.04.05.15,0,.34,0,.5,0,.19-.02.37.01.56.02.17.11.32.14.49.03.13.04.28.03.41,0,.18-.04.36-.04.54,0,.47,0,.94,0,1.41,0,.33-.04.65-.05.98,0,.29-.03.58,0,.87.02.22.07.43-.02.65-.02.03-.02.08,0,.12.05.21.04.41-.02.62-.05.2.04.42-.11.61-.03.04-.03.14-.01.2.08.25,0,.51,0,.77,0,.3.06.61-.07.91-.03.07,0,.16,0,.24-.02.26-.04.52-.06.77-.01.12-.03.24-.06.35-.06.26-.08.53-.32.77-.03-.2-.05-.35-.06-.51-.01-.19,0-.38-.02-.57-.02-.38-.07-.76-.04-1.13.02-.3-.05-.59-.04-.88.02-.29-.05-.59-.08-.89,0-.03,0-.06.01-.09.08-.31-.07-.63.08-.94,0-.01,0-.04,0-.06-.01-.15-.02-.3-.04-.44-.01-.1-.02-.2-.06-.29-.06-.15-.07-.29-.04-.44.02-.14.03-.28.04-.41.01-.2.03-.4.04-.6,0-.05,0-.1,0-.15-.07-.7-.11-1.39-.1-2.09,0-.06,0-.12.01-.18.05-.15.02-.28-.05-.4-.14-.23-.16-.47-.15-.72.01-.29.04-.58-.04-.86-.05-.18-.08-.37-.1-.56-.02-.25-.01-.5-.02-.74,0-.06,0-.13-.02-.18-.2-.3-.1-.65-.13-.97-.03-.28-.09-.54-.15-.81-.02-.13-.06-.25-.07-.38-.07-.47-.08-.96-.2-1.42-.16-.59-.24-1.19-.41-1.77-.08-.26-.08-.55-.21-.8-.04-.08-.06-.2-.05-.29.02-.31-.08-.59-.14-.88-.03-.12-.04-.24-.06-.35-.02-.09-.04-.17-.08-.25-.1-.19-.28-.76-.28-.96,0-.12-.03-.23-.1-.34-.16-.28-.32-.55-.34-.89,0-.16-.07-.31-.17-.44-.07-.09-.11-.21-.14-.33-.06-.3-.14-.58-.34-.82-.05-.07-.1-.16-.1-.24-.01-.25-.16-.45-.28-.65-.09-.15-.16-.3-.21-.46-.04-.11-.08-.23-.15-.32-.13-.17-.24-.34-.28-.56,0-.05-.03-.09-.05-.14-.12-.26-.25-.52-.42-.75-.06-.08-.12-.17-.19-.22-.16-.11-.29-.24-.41-.4-.16-.21-.34-.41-.61-.45-.24-.04-.36-.18-.46-.38-.06-.12-.11-.25-.21-.32-.29-.25-.64-.42-1.01-.5-.34-.07-.62-.21-.88-.41-.26-.21-.55-.33-.88-.33-.14,0-.27-.02-.41-.08-.11-.05-.25-.08-.38-.07-.12.01-.21,0-.3-.08-.19-.13-.4-.18-.63-.1-.12.04-.21.01-.32-.03-.26-.12-.51-.07-.74.09-.12.08-.25.16-.38.24-.08.05-.16.09-.22.16-.08.1-.18.16-.3.17-.18.03-.31.13-.43.26-.05.05-.09.11-.14.16-.27.26-.63.46-.74.86-.01.04-.06.09-.09.11-.14.11-.21.26-.28.42-.06.12-.12.26-.22.36-.19.19-.29.43-.41.66-.12.23-.14.5-.33.7-.02.02-.02.06-.02.09-.01.26-.17.49-.09.76.01.04-.01.1-.03.15-.1.23-.1.47-.07.72.02.2.02.39.07.59.03.11.03.24,0,.35-.08.31-.08.61-.01.92.04.18.06.38.07.56.01.39.03.78.15,1.15.01.04.02.08.02.12,0,.16-.05.32-.03.48.02.16.1.3.14.46.06.24.11.48.17.72.13.47.37.9.47,1.38,0,.04.04.07.05.11.09.25.18.51.26.76.02.06.02.14,0,.21-.06.18.01.33.08.49.06.14.13.27.16.42.03.16.11.27.19.39.16.24.33.49.4.76.06.24.12.48.18.72.04.18.09.37.25.5.22.17.32.4.38.66.02.09.05.19.11.27.1.15.18.31.21.49.02.18.11.34.21.49.1.14.2.28.26.43.09.22.15.45.33.63.05.05.07.14.09.22.03.14.09.26.2.36.07.06.12.14.17.21.1.16.19.33.29.49.16.26.33.52.49.79.09.15.13.34.27.46.38.33.54.78.73,1.22.03.07.06.15.11.21.18.22.37.44.56.66.06.07.09.15.13.23.16.34.32.68.61.94.05.04.09.11.13.16.1.13.2.25.29.38.14.18.3.35.39.57.05.13.13.25.21.36.16.21.33.42.5.63.12.15.23.3.35.45.19.23.37.47.56.7.15.2.29.41.47.58.19.18.28.43.51.57.05.03.05.12.08.19.03.07.06.16.11.2.3.24.51.56.76.84.25.29.52.57.79.85.29.32.53.68.88.93.03.02.03.11.02.16-.03.07-.1.1-.17.07-.08-.03-.16-.08-.23-.14-.31-.26-.62-.52-.92-.8-.35-.33-.68-.69-1.03-1.03-.11-.11-.24-.21-.36-.31-.12-.1-.25-.19-.3-.36-.02-.07-.09-.13-.14-.18-.06-.07-.13-.13-.19-.19-.25-.24-.45-.53-.73-.74-.05-.04-.08-.09-.12-.14-.08-.09-.15-.19-.23-.28-.24-.27-.49-.53-.7-.81-.23-.3-.44-.61-.7-.88-.08-.08-.14-.18-.17-.28-.06-.18-.19-.3-.3-.44-.1-.11-.19-.23-.28-.35-.09-.12-.16-.25-.3-.33-.06-.03-.09-.1-.13-.16-.09-.13-.17-.27-.26-.4-.05-.08-.09-.15-.12-.23-.06-.16-.13-.31-.29-.41-.06-.03-.09-.1-.14-.16-.21-.26-.47-.5-.53-.85,0-.04-.03-.08-.06-.1-.19-.13-.28-.33-.39-.52-.2-.34-.43-.67-.63-1.02-.07-.12-.14-.21-.25-.29-.13-.09-.24-.22-.27-.38-.04-.19-.14-.33-.28-.44-.11-.09-.18-.2-.22-.35-.04-.19-.17-.33-.28-.49-.21-.31-.41-.64-.55-.98-.1-.23-.22-.45-.35-.66-.09-.15-.18-.28-.22-.45-.02-.1-.1-.2-.18-.26-.16-.12-.27-.27-.32-.46-.09-.38-.32-.71-.33-1.11,0-.05-.03-.1-.06-.14-.12-.17-.24-.34-.35-.52-.08-.12-.18-.25-.22-.39-.07-.27-.16-.53-.3-.78-.1-.18-.15-.36-.11-.57.04-.18-.02-.35-.18-.48-.25-.19-.33-.46-.31-.77,0-.08,0-.16-.02-.23-.07-.23-.15-.45-.22-.68-.08-.27-.11-.55-.22-.8-.16-.37-.16-.78-.28-1.16-.05-.15-.06-.31-.07-.47-.02-.37.02-.74-.1-1.09-.02-.07-.01-.16-.02-.24-.02-.2-.04-.4-.05-.59,0-.13,0-.26.03-.39.06-.2.04-.39-.02-.59-.06-.17-.11-.23-.28-.18-.3.09-.57,0-.85-.09-.2-.07-.38-.08-.58,0-.1.04-.21.06-.32.06-.21-.02-.4.03-.56.16-.12.1-.26.11-.39.08-.33-.08-.64.03-.93.13-.23.08-.42.26-.68.25,0,0-.02,0-.03.01-.23.18-.47.33-.72.47,0,0-.02.01-.02.02-.07.11-.18.14-.3.19-.12.05-.25.11-.33.2-.32.37-.63.75-.94,1.13-.05.06-.08.14-.1.22-.03.13-.08.25-.18.34-.12.1-.14.23-.1.38.02.11.04.22.03.32-.03.25-.08.49-.11.74,0,.07,0,.14,0,.2,0,.27-.01.53.07.79.04.12.06.25.09.37.09.35.21.68.22,1.05,0,.3.04.62.26.87.11.12.15.28.16.44,0,.11.04.21.08.31.09.23.2.46.3.68.13.29.26.58.4.87.07.14.16.28.24.41.08.14.17.27.24.41.12.25.22.51.34.76.03.06.07.13.13.15.34.11.47.38.54.7.02.07.06.15.09.21.05.09.1.17.15.26.04.07.08.13.13.19.22.24.36.54.59.77.01.01.02.03.03.05.09.21.22.37.41.5.1.06.19.18.24.3.19.39.38.76.73,1.03.05.04.08.11.12.17.17.24.32.52.53.72.26.24.41.56.67.8.1.09.17.2.31.26.09.04.19.12.24.21.08.15.19.25.3.37.14.17.27.34.41.51.22.27.44.54.68.79.15.17.37.29.49.48.21.32.57.51.74.86.33.21.5.59.86.78.09.05.14.17.21.25.07.08.13.18.21.25.28.24.63.39.83.71.02.03.07.04.1.07.09.08.18.16.25.25.13.17.25.35.43.49.16.12.33.24.44.4.1.15.23.27.37.37.11.07.22.14.32.22.09.07.19.13.25.21.21.3.46.57.75.81.08.06.13.16.21.2.29.15.51.41.77.6.08.06.14.14.21.21.08.1.14.21.11.35-.15.04-.28.04-.4-.05-.11-.08-.23-.16-.36-.21-.25-.08-.43-.29-.69-.33-.02,0-.03-.02-.05-.03-.35-.34-.78-.59-1.1-.97-.09-.1-.22-.16-.34-.24-.15-.09-.32-.17-.41-.34-.02-.03-.05-.06-.08-.09-.16-.12-.32-.23-.47-.36-.17-.15-.34-.3-.49-.47-.25-.29-.58-.48-.84-.75,0,0-.02,0-.03-.01-.24-.13-.48-.25-.6-.51-.02-.03-.05-.06-.08-.09-.32-.26-.65-.52-.97-.79-.07-.06-.13-.13-.19-.19-.07-.08-.14-.17-.21-.25-.18-.2-.37-.39-.56-.59-.19-.19-.38-.38-.56-.57-.17-.17-.33-.34-.49-.52-.2-.22-.33-.5-.61-.65-.04-.02-.06-.07-.09-.12-.07-.12-.15-.22-.3-.28-.1-.04-.18-.16-.26-.24-.07-.08-.14-.17-.21-.25-.09-.12-.19-.23-.28-.35-.09-.12-.16-.27-.27-.35-.22-.17-.36-.4-.52-.61-.12-.16-.23-.33-.38-.45-.22-.18-.38-.39-.48-.64-.06-.16-.14-.31-.27-.38-.3-.16-.46-.42-.63-.69-.12-.19-.23-.4-.43-.52-.02-.01-.04-.05-.05-.07-.11-.3-.39-.48-.55-.74-.09-.13-.2-.25-.23-.41-.03-.12-.09-.18-.21-.23-.16-.07-.27-.2-.34-.36-.05-.11-.09-.22-.14-.33-.07-.14-.13-.29-.21-.43-.23-.4-.47-.79-.7-1.18-.12-.21-.21-.43-.31-.65-.08-.17-.16-.34-.23-.52-.05-.12-.11-.24-.12-.37-.02-.2-.09-.38-.2-.52-.15-.19-.27-.39-.33-.67-.1.05-.16.07-.2.11-.12.12-.24.24-.35.37-.19.2-.34.41-.42.68-.02.07-.07.14-.12.2-.28.32-.5.66-.6,1.09-.06.27-.15.53-.3.78-.27.45-.38.94-.25,1.47.05.22.07.45.02.68-.05.2-.03.42-.05.62,0,.08-.02.16-.04.23-.07.3-.07.59.1.87.04.06.06.13.08.19.07.27.1.55.26.79.02.04.02.1.02.15.02.11.04.22.05.32.02.14.05.28.04.41-.01.24.05.46.18.65.1.14.16.3.18.47.03.25.15.46.35.6.22.15.26.42.41.62.02.03.01.08,0,.12-.07.4.11.69.42.93.21.17.4.36.45.65.01.07.05.13.08.19.08.16.16.32.23.48.09.19.21.33.39.44.12.07.23.16.32.26.16.19.3.4.46.59.09.1.19.21.31.27.11.06.2.13.26.23.19.33.54.53.72.87.02.04.07.07.12.09.15.09.27.2.35.36.04.08.12.16.21.21.13.07.27.13.41.18.12.04.21.1.28.2.09.12.22.22.34.33.06.05.13.1.18.16.11.13.23.25.41.29.1.03.18.09.22.19.13.33.4.51.71.64.14.06.28.12.39.21.17.14.31.32.53.37.03,0,.07.05.09.08.19.28.53.34.77.56.34.08.61.29.91.45.2.11.38.25.59.34.26.11.49.26.72.43.11.08.24.15.37.18.29.06.55.17.77.38.06.05.13.1.2.13.25.1.5.2.75.3.07.03.15.05.23.05.13,0,.23.05.33.12.11.09.24.14.39.14.12,0,.21.05.3.12.16.14.36.21.58.23.14,0,.25.05.35.14.13.11.28.17.44.15.15-.02.27,0,.4.07.06.03.13.06.2.06.14,0,.25.06.36.14.06.04.12.07.18.1.15.07.31.14.46.2.14.06.28.13.43.08.11-.04.19,0,.28.06.15.09.32.16.51.12.06-.01.14,0,.19.04.19.13.44.16.58.36.02.03.07.04.11.04.15.03.29.11.46.11.15,0,.3.08.45.13.28.1.58.17.84.31.28.15.56.24.87.3.22.05.45.12.64.23.15.09.28.18.46.2.18.02.34.08.53.08.13,0,.25.1.38.16.09.04.17.11.26.15.24.09.51.08.72.25,0,0,.02,0,.03,0,.25,0,.46.12.67.23.06.03.13.06.2.06.16,0,.25.09.31.23.1.23.29.34.53.38.24.04.49.06.72.2.12.07.29.08.43.09.16,0,.31.03.46.1.13.07.27.11.43.09.08,0,.17.03.26.05.05.01.1.05.14.04.2-.04.41,0,.61-.09.2-.09.42-.14.63-.19.18-.04.33-.12.44-.23.19-.19.36-.4.53-.61.04-.05.07-.12.1-.18.14-.23.27-.46.44-.67.18-.23.29-.47.31-.76,0-.09,0-.19.05-.26.21-.34.22-.74.37-1.1.04-.1.04-.21.05-.32.01-.08,0-.17.04-.23.14-.23.15-.49.19-.75.06-.3.08-.61.27-.88.16-.23.2-.5.15-.78ZM118.04,81.49c.06-.01.12-.03.18-.02.28.06.56.11.83.19.07.02.14.11.18.19.15.27.36.47.63.62.06.03.13.08.16.13.13.26.33.47.42.75.04.12.12.23.19.33.1.16.23.3.32.47.06.12.09.26.11.4.03.16.03.32.06.47.08.4.04.79.02,1.19-.03.55-.16,1.08-.25,1.62-.04.25-.07.49-.1.74-.02,0-.04,0-.05,0-.01-.03-.03-.06-.04-.09-.07-.36-.14-.72-.21-1.09-.03-.16-.03-.32-.07-.47-.1-.35-.26-.67-.33-1.04-.07-.35-.21-.68-.23-1.04,0-.17-.1-.28-.2-.39-.12-.13-.18-.28-.23-.45-.07-.27-.15-.54-.42-.7-.07-.04-.12-.11-.16-.18-.12-.18-.23-.37-.35-.55-.03-.04-.07-.07-.11-.09-.27-.17-.37-.47-.51-.72-.07-.13.01-.26.16-.29ZM105.39,87.85c-.12-.21-.22-.44-.36-.65-.24-.36-.45-.73-.67-1.1-.08-.13-.16-.25-.29-.33-.17-.1-.27-.25-.33-.45-.03-.11-.1-.21-.16-.32-.12-.23-.22-.47-.35-.69-.23-.37-.39-.78-.74-1.07-.17-.14-.31-.31-.43-.49-.13-.18-.29-.29-.48-.39-.17-.09-.32-.2-.48-.3-.09-.06-.18-.13-.28-.16-.19-.06-.35-.15-.44-.31-.17,0-.3,0-.43,0-.06,0-.12-.01-.18,0-.12.04-.25.03-.35-.03-.24-.13-.48-.08-.73-.04-.15.03-.27.08-.39.19-.17.15-.39.24-.58.36-.18.11-.34.24-.47.41-.09.13-.18.26-.34.32-.06.02-.1.1-.13.16-.11.18-.2.36-.34.53-.1.12-.12.31-.17.47-.04.11-.07.22-.17.31-.11-.11-.16-.25-.16-.38,0-.23,0-.46.11-.67.06-.14.12-.27.17-.41.07-.17.11-.34.25-.47.05-.04.07-.12.1-.19.2-.44.51-.8.84-1.15.05-.05.11-.09.17-.12.19-.1.38-.2.52-.39.11-.16.6-.3.8-.27.12.02.23.01.35-.02.11-.03.24-.04.35-.02.17.02.34,0,.5.02.25.02.5.07.76.05.16-.01.3.12.39.25.08.1.18.15.28.2.22.12.41.27.63.39.3.16.55.38.77.64.26.31.61.54.82.9.04.07.08.14.13.2.08.12.16.26.26.36.16.15.24.34.3.54.04.13.1.26.15.39.05.13.11.25.16.38.03.07.05.15.1.21.24.29.32.64.36,1,.02.16.05.31.07.47.02.12.03.24.05.35,0,.05,0,.1.01.15.11.47.23.94.34,1.42.02.07.02.15.04.29-.19-.19-.24-.38-.34-.54ZM90.4,95.72s-.06-.03-.08-.05c-.16-.17-.31-.34-.47-.5-.1-.1-.21-.18-.32-.27-.05-.04-.13-.07-.16-.13-.12-.17-.28-.28-.47-.37-.33-.16-.51-.41-.5-.76-.13-.15-.27-.27-.36-.41-.09-.15-.13-.33-.2-.5-.09-.21-.17-.43-.28-.62-.09-.16-.15-.32-.21-.49-.06-.2-.15-.39-.23-.58-.03-.07-.05-.13-.07-.2-.09-.42-.17-.84-.26-1.26-.03-.17,0-.33.09-.46.13-.19.14-.39.14-.6,0-.17,0-.34.08-.5.01-.03.03-.06.03-.08.02-.55.39-.9.75-1.25.09-.08.16-.2.26-.23.25-.08.46-.29.74-.3.22-.01.46-.06.65.11.03.02.07.02.16.05-.38.18-.48.61-.89.73-.02.26-.17.42-.34.6-.18.19-.33.42-.31.72,0,.15-.02.29,0,.44.01.13-.04.28-.1.4-.07.15-.08.28-.04.43.04.17.06.35.1.53.01.06.02.12.05.17.13.17.18.38.23.58.07.31.18.61.37.88.02.02.03.05.05.08.16.29.23.63.5.86.05.04.07.13.07.19.02.33.23.59.36.88.05.1.09.2.13.3.05.12.09.24.13.37.12.35.24.69.35,1.04.01.04-.01.09-.02.13.03.01.06.03.09.04-.01.01-.03.04-.03.03ZM87.35,105.11c-.2-.14-.39-.27-.59-.41-.12-.09-.24-.18-.37-.26-.21-.14-.43-.25-.55-.49-.04-.08-.14-.13-.22-.19-.18-.14-.37-.27-.55-.4-.02-.02-.05-.04-.06-.06-.18-.24-.3-.51-.51-.73,0,0-.01-.02-.01-.03-.03-.35-.28-.61-.38-.93-.07-.21-.17-.41-.29-.59-.19-.27-.19-.58-.27-.88-.1-.35-.18-.71-.27-1.07-.04-.15-.04-.3.01-.44.06-.15.08-.3.04-.47-.04-.14-.01-.27.04-.41.07-.17.11-.36.17-.54.04-.11.09-.22.15-.33.04-.06.11-.12.17-.16.09-.05.17-.01.21.09.02.05.02.1.02.15.02.25.05.5.07.74,0,.04.01.08,0,.12-.07.25.02.49,0,.74-.03.31.13.57.23.85.06.19.12.38.19.56.05.14.09.29.16.41.17.29.36.57.53.87.14.25.21.56.47.74,0,0,.01.02.02.03.09.33.34.55.51.84.03.06.09.11.13.16.04.06.1.11.11.17.09.35.3.62.49.92.2.32.39.64.58.97-.06.1-.13.07-.21.02ZM87.64,105.32s-.03-.04-.02-.05c.01-.02.03-.03.05-.05,0,.01.02.03.03.05-.02.02-.04.03-.06.05ZM113.34,84.54c-.24-.47-.53-.91-.86-1.32-.09-.11-.18-.22-.29-.3-.27-.19-.44-.45-.62-.72-.12-.18-.22-.39-.39-.52-.29-.23-.54-.5-.88-.67-.08-.04-.15-.1-.21-.16-.07-.07-.1-.21-.17-.23-.26-.08-.46-.29-.76-.26-.11.01-.22,0-.33,0-.07,0-.14-.05-.2-.07,0-.3.14-.45.41-.5.19-.03.37-.1.55-.13.13-.02.26-.01.39,0,.12,0,.24.03.35,0,.18-.03.32.02.43.15.1.12.23.19.36.26.26.14.53.27.78.43.11.07.2.19.28.3.15.22.26.47.43.68.11.13.2.3.26.47.12.34.24.68.33,1.02.13.5.23,1.01.34,1.51.02.08.04.17-.06.29-.06-.1-.11-.16-.15-.23ZM113.57,84.91s-.03-.02-.05-.03c0,0,.01-.02.02-.02.02,0,.03,0,.05.01,0,.01-.02.04-.03.03Z" fill="#191919"/><path d="M109.25,121.15c-.13-.24-.32-.39-.56-.51-.11-.05-.2-.14-.29-.2-.1-.07-.19-.13-.29-.2-.16-.1-.33-.19-.47-.31-.09-.08-.16-.14-.27-.16-.06-.01-.12-.03-.17-.06-.25-.19-.54-.29-.84-.36-.09.07-.1.15-.07.26.05.18.01.35-.07.52-.1.2-.14.43-.28.62-.05.06-.05.17-.05.26,0,.21-.05.4-.19.55-.17.19-.29.4-.4.62-.17.32-.39.63-.51.98,0,.02-.04.04-.07.06-.09-.11.01-.21.02-.31.01-.36.04-.72.06-1.07,0-.06,0-.12.02-.18.07-.27.05-.54,0-.8-.04-.23-.03-.45.09-.67.12-.23.23-.47.19-.74-.02-.19.06-.35.18-.49.04-.04.08-.08.14-.15-.17-.06-.31-.1-.44-.16-.49-.23-1-.42-1.53-.56-.15-.04-.23,0-.28.14-.07.2-.13.4-.18.6-.05.19-.07.39-.13.58-.17.55-.35,1.1-.5,1.65-.07.25-.16.49-.24.74-.04.12-.09.24-.14.35-.05-.07-.05-.13-.05-.18.01-.3.05-.59.03-.89-.05-.65-.05-1.29-.04-1.94,0-.15.02-.31-.02-.45-.05-.21-.03-.41.04-.62.06-.18-.04-.33-.24-.36-.08-.01-.16,0-.24,0-.09,0-.18,0-.26-.03-.17-.05-.33-.13-.5-.18-.15-.04-.31-.06-.46-.09-.1.4-.18.74-.27,1.09-.06.24-.07.48-.04.74.04.32.08.65-.02.98-.03.11-.03.24-.01.36.04.33.04.66-.03.98-.06.28,0,.53.09.79.04.12.09.25.09.37,0,.3.1.55.34.74.11.09.16.19.16.33.01.23.1.42.27.58.22.2.42.42.63.63.06.06.13.13.21.17.11.06.2.13.27.23.12.19.31.24.51.26.12.01.23.02.35.04.1.01.2.03.3.04.17.02.34.04.5.06.17.02.35.05.49-.06.16-.13.34-.2.52-.28.12-.05.22-.14.33-.2.08-.05.17-.1.26-.14.26-.13.51-.25.77-.37.05-.03.1-.07.13-.12.14-.24.38-.34.58-.5.12-.09.22-.2.32-.31.17-.18.33-.37.5-.55.03-.03.07-.03.11-.06.27-.18.63-.2.85-.48.02-.02.05-.03.08-.04.23-.07.36-.24.45-.45.03-.06.05-.13.09-.19.18-.26.37-.52.57-.8-.08,0-.16,0-.23-.02-.05-.01-.13-.04-.15-.08Z" fill="#191919"/><path d="M124.77,116.03c-.04-.06-.07-.12-.1-.18-.07-.2-.13-.4-.2-.6-.08-.22-.18-.42-.38-.56-.18-.13-.32-.3-.43-.49-.06-.1-.16-.18-.24-.26-.08-.08-.16-.14-.24-.22-.05-.05-.1-.12-.16-.14-.3-.07-.52-.27-.76-.44-.08-.06-.16-.11-.24-.17-.07-.05-.14-.1-.22-.16-.06-.05-.13-.09-.18-.15-.18-.18-.37-.37-.55-.55-.11-.12-.25-.19-.41-.23-.07-.02-.15-.05-.21-.11-.15-.16-.37-.24-.48-.44-.03-.05-.09-.07-.15-.1-.28-.15-.94-.05-1.15.18-.1.12-.18.26-.24.41-.1.27-.16.55-.25.86.07.03.15.08.23.08.19,0,.35.07.52.14.23.09.48.14.63.36,0,.01.04.01.05.02.29.14.51.37.78.53,0,0,.01.02.02.02.24.24.48.47.72.71.04.04.07.07.14.15-.28-.05-.51-.05-.72-.13-.3-.11-.61-.05-.91-.09-.17-.02-.33-.04-.46-.17-.04-.04-.1-.07-.15-.09-.33-.14-.64-.31-.91-.56-.04-.03-.09-.05-.17-.09,0,.15,0,.27,0,.39,0,.09,0,.19-.05.26-.12.2-.15.41-.13.63.01.14-.02.25-.11.36-.14.16-.2.34-.16.56.02.08-.02.17-.03.26-.01.07-.04.13-.06.2.05.03.1.06.14.07.35.11.74.06,1.06.26.24-.01.42.11.6.24.08.06.17.1.25.15.06.04.13.07.17.12.18.22.42.33.67.43.22.09.43.17.63.29-.03.04-.04.07-.05.07-.35.03-.7.06-1.06.09-.07,0-.14,0-.21-.01-.21-.07-.41-.06-.62,0-.2.05-.4.04-.58-.08-.1-.07-.2-.07-.31-.09-.27-.04-.54-.11-.78-.17,0,.1.02.24-.02.35-.14.37-.07.68.19.98-.02.05-.03.08-.04.11-.09.29,0,.44.31.46.16,0,.32,0,.48,0,.24.01.48.04.71.05.27,0,.53.05.8.02.22-.03.45-.1.68-.02.07.02.18.01.23-.03.18-.14.39-.14.59-.18.12-.02.23-.03.35.02.24.09.46.05.66-.13.18-.16.41-.24.65-.28.17-.03.33-.06.47-.16.06-.04.15-.07.22-.08.22-.02.4-.12.54-.29.11-.13.23-.26.32-.4.07-.12.16-.25.17-.38.02-.25.1-.46.21-.68.15-.32.14-.64-.08-.94Z" fill="#191919"/></svg>