<?xml version="1.0" encoding="UTF-8"?><svg id="Layer_1" xmlns="http://www.w3.org/2000/svg" viewBox="0 0 207.21 203.87"><rect x="72.39" y="103.4" width="62.43" height=".51" fill="#211e1f"/><path d="M134.31,103.58h-62.43l1.03.65c0-.63-.09-.4.29-.51.31-.08.76,0,1.07,0h61.07l-1.03-.65v.51c0,.22,1.03.44,1.03.65v-.51c0-.07-.93-.65-1.03-.65h-21.5c-11.26,0-22.53,0-33.79,0h-5.35c-.44,0-.99-.09-1.42,0s-.37-.18-.37.51c0,.07.93.65,1.03.65h62.43c-.34,0-.68-.65-1.03-.65Z"/><path d="M105.23,131.25c-1.18,0-2.13-.96-2.13-2.13v-50.63c0-.78-.64-1.41-1.42-1.41s-1.41.63-1.41,1.41v27.67c0,1.27-1.03,2.3-2.3,2.3s-2.3-1.03-2.3-2.3v-5.98c0-.17-.14-.32-.32-.32h-.34c-.17,0-.32.14-.32.32v12.61c0,1.05-.85,1.9-1.9,1.9s-1.9-.85-1.9-1.9v-19.27c0-.54-.44-.97-.97-.97s-.97.44-.97.97v34.09c0,1.12-.91,2.03-2.03,2.03s-2.03-.91-2.03-2.03v-52.97c0-.56-.45-1.01-1.01-1.01s-1.01.45-1.01,1.01v45.05c0,.73-.6,1.33-1.33,1.33s-1.33-.6-1.33-1.33v-29.26c0-.56-.45-1.01-1.01-1.01s-1.01.45-1.01,1.01v16c0,1.12-.91,2.03-2.03,2.03s-2.03-.91-2.03-2.03v-5.56h1.01v5.56c0,.56.45,1.01,1.01,1.01s1.01-.45,1.01-1.01v-16c0-1.12.91-2.03,2.03-2.03s2.03.91,2.03,2.03v29.26c0,.17.14.32.32.32s.32-.14.32-.32v-45.05c0-1.12.91-2.03,2.03-2.03s2.03.91,2.03,2.03v52.97c0,.56.45,1.01,1.01,1.01s1.01-.45,1.01-1.01v-34.09c0-1.1.89-1.99,1.99-1.99s1.99.89,1.99,1.99v19.27c0,.49.4.89.89.89s.89-.4.89-.89v-12.61c0-.73.6-1.33,1.33-1.33h.34c.73,0,1.33.6,1.33,1.33v5.98c0,.71.58,1.29,1.29,1.29s1.29-.58,1.29-1.29v-27.67c0-1.34,1.09-2.43,2.43-2.43s2.43,1.09,2.43,2.43v50.63c0,.62.5,1.12,1.12,1.12s1.12-.5,1.12-1.12v-55.17c0-.73.6-1.33,1.33-1.33.82,0,1.41.6,1.41,1.33v47.33c0,.56.45,1.01,1.01,1.01s1.01-.45,1.01-1.01v-38.53c0-.73.6-1.33,1.33-1.33s1.33.6,1.33,1.33v34.13c0,.56.45,1.01,1.01,1.01s1.01-.45,1.01-1.01v-25.34c0-1.12.91-2.03,2.03-2.03s2.03.91,2.03,2.03v16.51c0,.17.14.32.32.32s.32-.14.32-.32v-7.17c0-1.12.91-2.03,2.03-2.03s2.03.91,2.03,2.03v4.67c0,.56.45,1.01,1.01,1.01s1.01-.45,1.01-1.01v-10.56c0-.73.6-1.33,1.33-1.33s1.33.6,1.33,1.33v16.45c0,.17.14.32.32.32h.55c.17,0,.32-.14.32-.32v-9.73c0-.73.6-1.33,1.33-1.33h.38c.73,0,1.33.6,1.33,1.33v3.05h-1.01v-3.05c0-.17-.14-.32-.32-.32h-.38c-.17,0-.32.14-.32.32v9.73c0,.73-.6,1.33-1.33,1.33h-.55c-.73,0-1.33-.6-1.33-1.33v-16.45c0-.17-.14-.32-.32-.32s-.32.14-.32.32v10.56c0,1.12-.91,2.03-2.03,2.03s-2.03-.91-2.03-2.03v-4.67c0-.56-.45-1.01-1.01-1.01s-1.01.45-1.01,1.01v7.17c0,.73-.6,1.33-1.33,1.33s-1.33-.6-1.33-1.33v-16.51c0-.56-.45-1.01-1.01-1.01s-1.01.45-1.01,1.01v25.34c0,1.12-.91,2.03-2.03,2.03s-2.03-.91-2.03-2.03v-34.13c0-.17-.14-.32-.32-.32s-.32.14-.32.32v38.53c0,1.12-.91,2.03-2.03,2.03s-2.03-.91-2.03-2.03v-47.33c0-.17-.14-.32-.32-.32-.26,0-.4.14-.4.32v55.17c0,1.18-.96,2.13-2.13,2.13Z" fill="#211e1f"/><path d="M105.57,130.74c-1.74-.14-2.13-1.49-2.13-2.92v-48.94c0-1.07-.14-2.65-1.74-2.27-1.16.27-1.76,1.89-1.76,2.95v25.57c0,.45.01.91,0,1.37-.02.99-.59,1.47-1.63,1.47-3.04,0-2.3-4.22-2.3-6.15,0-.5.28-2.09-.2-2.4-.59-.38-1.17.64-1.34,1.06-.19.46-.1,1.02-.1,1.51v10.35c0,.69.05,1.29-.26,1.94l.65-1c-1.15,1.63-3.4.87-3.53-1.04-.03-.53,0-1.07,0-1.6v-15.39c0-.67.03-1.35,0-2.01-.06-1.09-1.06-1.55-1.83-.67s-.78,1.65-.78,2.73v29.92c0,1.23.3,3.01-.38,4.11l.66-1c-1.48,1.72-3.64.45-3.66-1.54-.01-.87,0-1.73,0-2.6v-48.95c0-.66.16-1.61-.55-1.97-1.14-.57-2.1,1.25-2.14,2.19-.1,2.61,0,5.25,0,7.86v14.26c0,7.44.2,14.91,0,22.35-.01.4,0,.66-.25,1.06l.62-.95c-.92.92-2.25.4-2.37-.88-.03-.3,0-.61,0-.9v-25.06c0-1.03.1-2.13,0-3.15s-1.1-1.5-1.84-.68c-.37.4-.78,1.09-.85,1.62-.17,1.31,0,2.74,0,4.06v8.07c0,1.43.42,3.74-.38,5.04l.66-1c-.91,1.06-2.57,1.13-3.35-.13-.38-.62-.31-1.33-.31-2.03v-4.6l-.67,1.02c.2,0,.91-.11,1.01.01s0,.79,0,.95v3.63c0,.88.22,2.74,1.61,1.78.49-.34,1-1.28,1.08-1.84.19-1.29,0-2.77,0-4.07v-10.9c0-.8-.07-1.48.38-2.21l-.66,1c1.37-1.59,3.61-.63,3.66,1.37.02.74,0,1.49,0,2.23v25c0,.49-.17,1.34,0,1.81.34.92,1.19-.52,1.3-1,.08-.37,0-.85,0-1.22v-39.76c0-1.46-.44-3.89.38-5.21l-.66,1c1.38-1.61,3.61-.6,3.66,1.4.02.66,0,1.33,0,1.99v45.98c0,1.54-.19,3.23,0,4.77.13,1.05,1.2,1.34,1.88.56.35-.4.74-1.03.82-1.56.08-.59,0-1.25,0-1.85v-10.63c0-7.11-.15-14.24,0-21.35.01-.52.08-.93.37-1.41l-.66,1c1.37-1.59,3.54-.59,3.59,1.37.03.97,0,1.94,0,2.9v14.78c0,.67-.23,1.94.61,2.22.94.31,1.74-1.22,1.83-1.96.15-1.14,0-2.39,0-3.54v-5.99c0-1.03-.34-2.81.25-3.74l-.62.95c.69-.69,2.08-.75,2.57.25.25.51.14,1.27.14,1.82,0,1.55-.16,3.18,0,4.72.1,1.02,1.17,1.77,2.09,1.04.39-.31.82-.99,1.01-1.44.23-.54.14-1.22.14-1.79v-25.04c0-.92-.09-1.81.33-2.65l-.62.95c1.14-1.69,3.83-1.39,4.39.65.09.33.08.65.09.98.01,1,0,1.99,0,2.99v46.41c0,.27-.03.55,0,.82.1,1.08,1.2,1.59,2,.76,1.35-1.41.91-3.55.91-5.33v-28.66c0-7.51-.19-15.05,0-22.56,0-.4,0-.67.25-1.07l-.62.95c.91-.91,2.32-.44,2.45.84.01.14,0,.28,0,.42.01.83,0,1.66,0,2.49v43.29c0,.4-.07.88.03,1.28.35,1.42,1.61.74,2.14-.07.25-.39.47-.7.52-1.18.23-2.02,0-4.21,0-6.24v-12.21c0-6.57-.19-13.17,0-19.74.01-.39,0-.65.25-1.04l-.62.95c1.01-1.01,2.29-.28,2.37,1,.03.52,0,1.05,0,1.56v31.1c0,.4-.05.84,0,1.24.07.56.37,1.06,1.01,1.06s.95-.59,1.25-1.06c.68-1.08.44-2.43.44-3.68v-21.57c0-.81-.07-1.52.38-2.25l-.66,1c1.28-1.49,3.52-.75,3.66,1.21.04.51,0,1.04,0,1.55v14.39c0,.48.04,1.16.64.63.48-.42.66-1.06.66-1.65v-4.23c0-1.12-.24-2.57.38-3.56l-.66,1c.94-1.1,2.72-1.12,3.44.27.34.65.23,1.5.23,2.21v2.87c0,.86.54,2.09,1.61,1.33.82-.57,1.08-1.68,1.08-2.6v-8.67c0-.63-.1-1.34.25-1.89l-.62.95c1.1-1.1,2.33-.17,2.37,1.14.02.87,0,1.73,0,2.6v12.26c0,.47-.2,1.39.32,1.61.72.3,1.39-.75,1.53-1.34.17-.7,0-1.66,0-2.38v-4.98c0-.81-.27-2.32.2-3.06l-.57.87c1.02-1.02,2.65-.45,2.75.98.07.96,0,1.94,0,2.9l.67-1.02c-.99,0-1.01.17-1.01-.83,0-.49.29-2.07-.09-2.45-.82-.82-1.56,1.18-1.59,1.73-.08,1.82,0,3.66,0,5.48v2.72c0,.61.09,1.27-.25,1.8l.62-.95c-1,1-2.79.53-2.92-.93-.06-.73,0-1.5,0-2.24v-12.67c0-.29.19-1.42-.09-1.66-.51-.42-1.14,1.01-1.21,1.39-.16.97,0,2.1,0,3.08v5.09c0,1.08.21,2.46-.38,3.42l.66-1c-1.02,1.19-3.02,1.07-3.56-.56-.24-.71-.1-1.65-.1-2.38,0-.91.09-1.89,0-2.79-.12-1.2-1.25-1.51-1.97-.54-.92,1.24-.73,2.43-.73,3.92v3.26c0,.68.14,1.56-.25,2.17l.62-.95c-.92.92-2.25.4-2.37-.88-.04-.4,0-.82,0-1.23v-12.38c0-.85.36-2.7-.2-3.46-1.03-1.41-2.45.86-2.5,1.82-.06,1.11,0,2.24,0,3.35v19.41c0,1.11.23,2.58-.38,3.56l.66-1c-1.36,1.58-3.55.65-3.66-1.31-.03-.62,0-1.25,0-1.86v-29.22c0-.82.04-1.66,0-2.48,0-.12.04-.32,0-.44-.28-.72-.66-.06-.88.27-.7,1.06-.42,2.4-.42,3.64v34.57c0,.8.07,1.51-.38,2.24l.66-1c-1.27,1.48-3.52.76-3.66-1.2-.01-.14,0-.29,0-.43,0-1.03,0-2.06,0-3.1v-40.48c0-.99.08-2.01,0-2.99-.02-.27.08-.59-.32-.65s-.98.99-1.07,1.34c-.11.46,0,1.1,0,1.57v32.44c0,6.96.15,13.95,0,20.91-.01.54-.09.98-.4,1.49l.66-1c-.48.55-.99.81-1.72.87-.26.02-.43,1-.67,1.02,1.57-.13,2.77-1.9,2.8-3.4.02-.94,0-1.88,0-2.82v-50.1c0-.66-.18-1.61.1-2.23l-.67,1.02c.81-.25.61.66.61,1.18v45.86c0,1.14.39,2.3,1.7,2.52,1.55.25,2.93-1.65,3.02-3.05.13-1.98,0-4.01,0-5.99v-24.83c0-2.43-.19-4.94,0-7.36.02-.25,0-.3.09-.55l-.67,1.02c.66-.27.54.46.54.85v32.98c0,.61,0,1.19.39,1.72,1.17,1.59,2.87.63,3.7-.64s.63-2.63.63-4.12v-21.62c0-.6-.09-1.24.2-1.78l-.67,1.02c1.02-1.02,1.81.03,1.83,1.06.02.83,0,1.67,0,2.5v8.21c0,1.74-.16,3.57,0,5.3.14,1.49,1.72,1.74,2.54.63.47-.63.77-1.18.79-1.97.03-1.39,0-2.79,0-4.19,0-.95-.26-2.34.2-3.22l-.67,1.02c.93-.93,1.81-.08,1.83.97.02.93,0,1.86,0,2.8,0,.67-.11,1.5.1,2.15.47,1.41,2.31,1.83,3.36.79.82-.81,1.26-1.9,1.26-3.02v-8.7c0-.49-.1-1.06.09-1.52l-.67,1.02c.76-.31.54.95.54,1.37v12.3c0,1.54-.59,4.5,1.79,4.33,2.2-.16,2.08-2.95,2.08-4.51v-4.86c0-.86-.24-2.12.09-2.93l-.67,1.02c1.25-.52.92,1.13.92,1.87,0,.21-.15,1.23,0,1.38.12.13.8.02,1.01.02.08,0,.67-.92.67-1.02,0-1.39.6-4.27-1.43-4.38-1.3-.07-2.24,1.46-2.28,2.63-.06,1.81,0,3.63,0,5.45v2.8c0,.47.09,1-.09,1.43l.67-1.02c-.98.4-1.09-.2-1.09-.95v-12.32c0-.99.02-1.99,0-2.98-.02-1.12-.96-2.42-2.16-1.46-1.51,1.2-1.17,3.26-1.17,4.94v5.23c0,.91.24,2.21-.2,3.05l.67-1.02c-.63.63-1.58.49-1.81-.44-.06-.24-.03-.52-.03-.76v-3.2c0-.94.03-1.87-.83-2.51-1.06-.78-2.31-.29-3,.69-.44.63-.84,1.23-.89,2.01-.04.7,0,1.41,0,2.11v3.3c0,.59.14,1.38-.09,1.94l.67-1.02c-.63.26-.54-.39-.54-.78v-14.54c0-1.45.02-3.44-2.03-3.44-1.45,0-2.63,1.87-2.7,3.18-.05,1.05,0,2.1,0,3.15v19.52c0,.93.25,2.28-.2,3.14l.67-1.02c-1.09,1.09-1.83-.12-1.83-1.15v-31.84c0-.55.05-1.13,0-1.68-.06-.64-.35-1.2-1.03-1.36-.91-.21-1.35.47-1.77,1.11-.78,1.2-.53,2.58-.53,3.97v34.62c0,.6.08,1.21-.2,1.75l.67-1.02c-.77.77-1.73.31-1.83-.71-.03-.28,0-.57,0-.85v-3.84c0-4.43,0-8.86,0-13.29v-26.98c0-.73.06-1.48,0-2.21-.09-1.09-1.29-1.85-2.25-1.09-.54.43-1.1,1.39-1.17,2.06-.19,1.74,0,3.61,0,5.36v28.41c0,7.03.22,14.09,0,21.11-.01.32-.01.52-.15.85l.67-1.02c-.93,1.21-2.06.21-2.09-.95-.01-.69,0-1.38,0-2.07v-32.73c0-5.08.19-10.2,0-15.28-.06-1.72-1.62-3.14-3.37-2.4-1.13.48-2.09,2.13-2.15,3.32-.11,2.31,0,4.65,0,6.97,0,6.77.17,13.56,0,20.33,0,.35.02.64-.19.97l.57-.87c-.99.99-2.25.26-2.29-1.01-.04-1.01,0-2.03,0-3.04,0-.88.08-1.81,0-2.69-.1-1.19-1.51-1.87-2.5-1.09s-1.17,2-1.17,3.18v10.21c0,.59.11,1.27-.17,1.8l.67-1.02c-.9.9-1.58-.03-1.6-.93-.02-.78,0-1.55,0-2.33v-15.28c0-.41.03-.84,0-1.25-.15-1.94-2.43-2.65-3.64-1.1-.79,1.01-1,1.91-1,3.12v30.01c0,1.06.31,2.7-.2,3.68l.67-1.02c-.76.76-1.72.32-1.83-.69-.03-.23,0-.47,0-.7v-51.66c0-1.46-.94-3.02-2.67-2.44-1.14.38-2.03,2.04-2.05,3.16-.18,7.3,0,14.63,0,21.93v14.26c0,2.73.21,5.56,0,8.29-.02.25,0,.33-.09.57l.67-1.02c-.83.35-.54-1.71-.54-2.14v-25.36c0-.84.17-1.97-.17-2.77-.63-1.51-2.58-1.57-3.53-.37-.49.62-.97,1.38-1.03,2.18-.1,1.27,0,2.58,0,3.86v11.05c0,.58.08,1.16-.2,1.69l.67-1.02c-.83.83-1.78.23-1.83-.81-.04-.81,0-1.63,0-2.44s.15-1.74,0-2.51c-.02-.11.04-.33-.03-.39-.11-.1-.83,0-.99,0-.08,0-.67.92-.67,1.02,0,1.82-.11,3.68,0,5.5.1,1.59,1.8,2.73,3.22,1.69.59-.43,1.26-1.47,1.43-2.17.32-1.3.07-2.91.07-4.24v-11.02c0-.62-.09-1.27.2-1.83l-.67,1.02c.74-.74,1.7-.36,1.83.64.03.2,0,.43,0,.64v27.63c0,.79-.12,1.72.75,2.14,1.25.61,2.47-1.13,2.58-2.22.04-.38,0-.78,0-1.16v-42.81c0-.58-.08-1.15.2-1.68l-.67,1.02c1.12-1.12,1.83.15,1.83,1.17v48.81c0,1.32-.46,3.96.59,5.02,1.73,1.73,4-.64,4.13-2.45.04-.57,0-1.16,0-1.73v-10.51c0-7.16-.23-14.36,0-21.52.01-.35,0-.56.19-.91l-.67,1.02c.71-.71,1.62-.35,1.76.61.04.27,0,.57,0,.85v14.39c0,1.6-.7,6.99,2.56,5.78,1-.37,1.84-1.89,1.91-2.9.07-1.09,0-2.22,0-3.32v-6c0-.98-.29-2.49.09-3.42l-.67,1.02c.69-.29.84.09.88.67.06.84,0,1.71,0,2.55,0,1.41-.41,3.68.79,4.73,1.71,1.49,3.53-.17,4.25-1.77.29-.65.22-1.38.22-2.08v-24.9c0-.77-.17-1.81.27-2.49l-.62.95c.97-.97,2.4-.43,2.52.92.02.21,0,.44,0,.65v48.89c0,1.5.22,3.03,2.13,3.18.2.02.48-1.03.67-1.02Z"/></svg>