<?xml version="1.0" encoding="UTF-8"?><svg id="Layer_1" xmlns="http://www.w3.org/2000/svg" viewBox="0 0 207.21 203.87"><path d="M111.18,67.68c-8.54-5.61-15.55-3.81-22.26,3.48-1.68,1.89-3.16,3.94-4.56,6.03-2.36,3.36-4.35,7.03-4.95,11.13-1.6,6.91.19,11.12,7.85,11.23h.03c2.97,0,5.93-.4,8.89-.65.13-.03.29-.03.46-.04.37,2.07.79,3.93.96,4.48.38,1.26.65,1.98,1.04,2.47,0,0,0,0,0,.01.07,1.25.17,2.51.09,3.78-.55,4.92-2.5,9.53-4.52,14-.83,1.82-1.7,3.62-2.66,5.38-.63,1.23-1.51,2.37-1.87,3.72-.56,5.14,6,6.15,9.83,6.62,1.96.14,3.96.24,5.92.02,1.38-.33,2.07-1.72,2.47-2.96,2.11-7.32,1.55-15.11.5-22.56-.12-.8-.23-1.6-.33-2.4.3-.37.44-.95.41-1.5.04-2.39-.24-4.77-.34-7.17-.13-1.5-.11-3.05-.15-4.6,5.18-.19,18.99-3.15,20.25-8.67,1.13-8.45-10.81-17.51-17.08-21.82ZM121.45,88.4c-1.64,2.46-3.53,2.37-6.29,3.01-2.04.53-3.39,2.46-5.52,2.79-.62.14-1.29.2-1.93.34h0c-.07-.42-.15-.83-.26-1.23h0c.18-.03.35-.13.51-.2,1.1-.55,1.92-1.41,2.83-2.21,1.17-.86,2.8-.85,3.95-1.77.79-.73,1.43-1.79,1.68-2.86,1.53.44,3,1.02,4.41,1.78.22.12.43.24.62.36ZM122.28,91.95s0,0,0,0c-1.8.09-3.6.26-5.28.96-1.22.46-2.29,1.26-3.42,1.9,0,0,0,0,0,0-.51.1-.94.17-1.27.23-1.42.27-2.97.53-4.43.82-.02-.25-.05-.49-.08-.74h0c.25-.05.54-.16.74-.14,1.01-.16,2.04-.35,2.96-.81,1.29-.68,2.33-1.82,3.79-2.2,1.99-.55,4.42-.5,5.83-2.26.28-.32.52-.68.78-1.02,1.78,1.27,1.55,2.36.37,3.26ZM121.19,92.61c-1.64.82-3.99,1.44-5.95,1.87.23-.15.46-.29.69-.41,1.61-.94,3.42-1.29,5.25-1.45ZM103.6,89.6h0c-.05-.27-.2-.58-.23-.79-.31-1.05,0-2.18,0-3.26h0c1.17-.12,2.23-.21,3.12-.28.33-.02.67-.03,1-.04-.06.26-.14.52-.27.77-.4.67-1.12,1.05-1.64,1.61-.6.56-.8,1.35-.72,2.14-.41-.1-.84-.14-1.27-.14ZM105.45,89.16c0-.33.16-.66.37-.93.59-.74,1.53-1.17,1.97-2.03.07-.15.21-.56.32-.99,1.25-.01,2.52.04,3.77.17,0,.09,0,.18-.02.28-.5,3.16-3.49,2.55-5.11,4.46-.07.12-.22.34-.34.58h0c-.25-.35-.57-.59-.94-.76.03-.28-.01-.61-.02-.79ZM106.78,91.4c.16-.45.34-.89.71-1.22.82-.71,1.96-.91,2.89-1.43,1.17-.63,2.01-1.95,2.07-3.29,1.14.14,2.28.36,3.4.65-1.09,3.84-3.03,2.59-5.67,4.54-.75.72-1.5,1.43-2.44,1.92-.11.09-.29.11-.44.16,0,0,0,0,0,0-.14-.45-.31-.89-.51-1.32,0,0,0,0,0,0ZM113.53,75.45c0-.1.02-.19.04-.29.02-.08.04-.15.07-.23.03-.06.05-.12.08-.18.03-.06.07-.11.11-.17.04-.05.07-.09.11-.13.05-.05.1-.09.15-.14.04-.03.09-.06.13-.09.07-.05.15-.09.23-.13.03,0,.1-.04.18-.06.08-.02.15-.04.23-.05.09-.01.19-.02.28-.03.12,0,.24,0,.36.01.13.01.25.03.38.06.15.04.3.08.44.13.05.02.1.04.16.06.11.05.23.1.34.16.17.09.34.2.51.31h0s.03.02.04.03c.15.11.31.24.45.37l.02.02s0,0,0,0c.14.14.28.28.4.43.13.16.25.33.37.5.09.14.16.29.23.43.07.15.13.3.18.46.03.09.06.23.09.37.02.11.03.22.04.33,0,.11,0,.22,0,.32-.01.09-.03.19-.05.28-.02.08-.04.15-.07.22-.02.05-.04.09-.06.14-.03.06-.07.12-.1.18-.04.06-.09.11-.14.17-.04.04-.08.08-.13.11-.06.04-.11.08-.17.12-.06.03-.12.07-.19.1-.06.03-.13.05-.2.07-.08.02-.15.04-.23.05-.09.01-.19.03-.28.03-.11,0-.22,0-.33,0-.12-.01-.24-.03-.36-.05-.18-.04-.36-.09-.53-.16-.15-.06-.29-.12-.44-.19-.2-.11-.4-.23-.58-.36-.12-.09-.28-.22-.44-.36h0s0-.01-.01-.02c-.15-.14-.3-.3-.44-.47-.09-.11-.21-.27-.32-.44-.09-.15-.18-.31-.26-.48h0s0-.02-.01-.03c-.05-.12-.11-.27-.16-.42-.04-.12-.07-.25-.09-.37-.01-.11-.03-.22-.04-.34,0-.1,0-.19,0-.29ZM115.14,85.03c-1.41-.31-2.84-.5-4.28-.6,1.07-2.48,3.77-2.61,4.28.6ZM108.6,76.24s.03.02.04.03c.02.03.08.08.13.14.05.06.09.12.14.19.03.05.05.09.08.14.02.05.04.1.06.15.01.04.02.08.03.12,0,.03,0,.07.01.1,0,.04,0,.09,0,.14,0,.04-.01.08-.02.12-.01.05-.03.11-.05.16-.01.03-.03.07-.05.1-.03.05-.06.1-.09.15-.04.05-.08.1-.11.14-.06.07-.13.13-.2.19-.08.06-.17.12-.25.18-.08.05-.17.09-.25.14-.09.04-.23.1-.38.15-.16.05-.34.09-.51.13-.16.03-.31.04-.47.06-.24.01-.47,0-.7,0-.21-.02-.42-.05-.62-.1-.09-.02-.23-.06-.37-.11-.16-.06-.31-.12-.47-.19-.13-.07-.26-.14-.38-.23-.08-.06-.15-.12-.23-.18-.06-.05-.12-.12-.18-.18-.05-.06-.09-.12-.13-.18-.03-.05-.06-.1-.08-.15-.03-.06-.05-.13-.07-.19v-.06s-.02-.08-.03-.12c0-.04,0-.09,0-.14,0-.03,0-.06.01-.09.02-.06.03-.12.05-.18.02-.04.03-.08.05-.11.03-.05.06-.11.1-.16.04-.05.08-.1.12-.15.05-.05.1-.1.15-.14.09-.07.18-.13.27-.2.09-.06.19-.1.28-.15.13-.06.25-.11.39-.15.09-.03.19-.05.28-.08.01,0,.02,0,.03,0,0,0,.02,0,.02,0,.04,0,.08-.02.12-.03.2-.03.39-.06.59-.07.16,0,.37,0,.58,0h0s.02,0,.03,0c.16.02.34.04.52.08.18.04.36.09.54.15.11.04.28.11.44.19.12.06.23.13.34.21.08.06.15.12.23.18ZM103.67,65.61c.06-.03.11-.07.15-.11,1.47.29,2.93.82,4.37,1.52.03.1.06.21.06.31-.63,1.85-3.66,2.11-5.23,1.45-1.38-.77-.31-2.5.65-3.16ZM102.8,85.6c0,.8-.23,1.63-.14,2.43.03.55.2,1.03.33,1.56-.41,0-.81.02-1.21.07h0s-.03-.03-.05-.04c-.47-.15-.87-.48-1.14-.9-.47-.83-.2-1.88-.52-2.78h0c.95-.14,1.87-.25,2.74-.35ZM88.33,88.99s0,0,0,0h0c1.59,1,2.45,3.12,4.28,3.82,1.04.49,2.26.33,3.36.54h0c0,.31.02.65.05,1.02,0,0,0,0,0,0-.5-.08-1.09-.04-1.35.02-3.68.89-3.5.75-6.57-1.29-1.45-.68-3.08-.38-4.62-.62,1.11-1.42,2.82-2.56,4.84-3.49ZM97.17,91.28s0,0,0,0c-.08,0-.17.01-.24.02-.82,0-1.66-.23-2.16-.94-.64-.83-.92-1.93-1.64-2.71-.05-.06-.16-.15-.29-.26,1.02-.28,2.07-.53,3.12-.74,0,0,0,0,0,0,.28.28.53.59.7.97.25,1.22.63,2.57,1.77,3.04h0s0,0,0,0c-.43.19-.84.4-1.25.62ZM99.43,90.25h0c-.3,0-.58-.04-.86-.18-1.36-.68-.96-2.52-1.9-3.55.94-.18,1.88-.34,2.79-.48h0c.31.79.13,1.71.4,2.53.18.5.53.96.97,1.27h0c-.47.11-.94.25-1.4.42ZM98.91,81.43c.16.02.31.05.46.09.08.02.15.05.22.07.08.03.16.07.23.11.04.03.09.06.13.09.03.03.06.05.09.08.02.03.05.05.07.08.02.03.04.06.06.09.01.03.03.06.04.08,0,.02.02.05.03.07,0,.03.01.06.02.08,0,.02,0,.04,0,.06,0,.04,0,.08,0,.12,0,.03,0,.06-.02.09-.01.05-.03.1-.05.15-.03.07-.06.14-.1.2-.04.07-.09.13-.13.19-.08.1-.17.19-.25.28-.06.05-.16.14-.26.23-.16.12-.32.23-.49.33-.15.08-.35.18-.55.27-.21.08-.43.16-.66.23-.21.06-.42.1-.64.14-.23.03-.45.05-.68.06-.15,0-.3,0-.45-.02-.14-.02-.28-.04-.42-.07-.11-.03-.21-.06-.31-.11-.05-.02-.11-.05-.16-.08-.06-.03-.12-.07-.17-.11-.03-.03-.06-.05-.09-.08-.02-.03-.05-.05-.07-.08-.02-.03-.04-.06-.06-.09-.01-.02-.02-.04-.03-.07,0-.03-.02-.05-.02-.07,0-.03-.01-.07-.02-.1,0-.03,0-.05,0-.08,0-.02,0-.04,0-.06,0-.05.02-.09.02-.14.01-.04.02-.08.04-.11.03-.08.07-.17.12-.25.03-.05.07-.1.1-.15.08-.1.15-.19.24-.27h0s0,0,0-.01c.09-.08.19-.17.28-.25.1-.08.25-.18.41-.28.16-.09.37-.2.58-.3.17-.08.4-.16.64-.23h0s.03-.01.05-.02c.09-.02.2-.05.31-.08.11-.03.23-.05.34-.06.23-.03.45-.05.68-.06.13,0,.29,0,.46.02ZM92.75,73.48c.02-.12.05-.25.08-.37.04-.11.08-.21.12-.31.06-.12.13-.25.2-.36.07-.11.15-.21.23-.31,0,0,0,0,0,0,0,0,0-.01.01-.02.06-.07.13-.14.21-.21.02-.02.04-.04.06-.06.07-.06.15-.12.23-.17.09-.06.18-.11.27-.17h0s.02,0,.03-.01c.07-.03.16-.08.26-.11.12-.04.24-.08.37-.11.12-.03.23-.04.35-.06.1,0,.23-.01.37-.01.15,0,.29.03.43.05.05.01.16.04.27.07.13.04.25.09.38.15.1.06.2.11.31.17.09.06.18.13.28.21.09.08.17.16.26.25.07.08.14.17.2.25.06.09.12.18.17.28.05.1.1.2.14.3.04.11.08.23.11.35v.03c.03.12.06.26.07.4,0,.06,0,.18,0,.3,0,.12-.02.23-.03.35-.01.07-.04.19-.07.31-.04.13-.09.25-.14.38-.06.12-.12.23-.19.34-.07.1-.14.2-.22.29-.07.08-.14.15-.22.22-.1.09-.2.17-.3.24-.05.03-.14.08-.22.14-.13.07-.26.13-.4.18-.09.03-.19.06-.28.09-.1.02-.26.05-.42.07-.09,0-.17,0-.25,0-.15,0-.3-.02-.44-.04-.11-.02-.23-.05-.34-.08-.11-.04-.22-.08-.34-.13-.1-.05-.19-.1-.29-.16-.11-.07-.22-.15-.32-.23-.08-.07-.16-.14-.23-.22-.07-.08-.16-.19-.25-.31-.06-.09-.12-.19-.18-.3-.05-.11-.1-.21-.14-.32-.04-.11-.07-.23-.1-.35-.02-.11-.04-.22-.05-.33h0v-.02c0-.08,0-.17,0-.26,0-.13.02-.26.03-.4ZM92.13,87.6h0c1.74,1.12,1.63,3.98,4.1,4.24h0s0,0,0,0c-.13.15-.2.47-.23.9-.99-.18-2.7-.1-3.17-.48-1.63-.71-2.47-2.5-3.85-3.55,1-.42,2.06-.79,3.16-1.11ZM85.13,77.63c.6-.91,1.22-1.82,1.88-2.71.15.4.33.79.28,1.24-.11,1.34-1.33,3.17-2.85,2.55-.02,0-.03,0-.05,0,.24-.36.49-.72.74-1.07ZM83.82,85.75c0-.05.02-.1.03-.16.02-.07.04-.14.06-.22.04-.1.08-.2.13-.29.06-.11.13-.21.2-.31.08-.11.2-.25.32-.39.02-.02.04-.04.06-.07.1-.1.23-.22.37-.33.14-.12.34-.26.54-.39.17-.1.34-.19.51-.27.06-.03.11-.05.17-.07.1-.04.2-.08.31-.11.14-.04.29-.07.44-.1.11-.02.23-.03.34-.04.09,0,.18,0,.27,0h0s.03,0,.04,0c.03,0,.11.02.17.03.05.01.1.03.15.05.05.02.09.04.14.06.03.02.06.03.08.05.02.02.05.04.07.06.01.01.03.03.04.04.02.03.04.06.06.08l.04.07s.02.05.03.07c0,.03.02.06.02.09,0,.04,0,.08.01.11,0,.05,0,.1,0,.15,0,.06-.02.11-.03.17-.02.08-.04.15-.07.23-.03.08-.07.17-.11.25-.07.14-.16.26-.25.39-.11.14-.22.27-.35.4-.14.13-.27.26-.42.37-.15.11-.3.21-.45.31-.19.11-.38.21-.57.3-.15.06-.29.11-.44.17-.16.05-.33.08-.49.12-.12.01-.23.02-.35.03-.07,0-.14,0-.2,0-.07,0-.14-.02-.21-.03-.06-.02-.11-.03-.17-.05-.04-.02-.09-.03-.13-.06-.03-.02-.06-.03-.09-.06-.03-.02-.05-.04-.07-.06-.02-.03-.05-.05-.07-.08-.02-.02-.03-.04-.04-.06,0-.02-.02-.03-.02-.04-.01-.03-.02-.05-.03-.08,0-.03-.02-.06-.02-.09,0-.05-.01-.09-.01-.14,0-.04,0-.09,0-.13ZM82.46,94.33c.16-.47.39-.91.66-1.33,0,0,0,0,0,0,1.35.22,2.74.15,4.09.39,1.54.4,2.52,2,4.18,2.11,1.59.2,3.13-.87,4.7-.48.04.37.08.76.14,1.16,0,0,0,0,0,0-1.64-.39-3.33.52-4.99.28-.94-.12-1.86-.53-2.78-.77-1.74-.53-3.6-.5-5.37-.07-.13.03-.22.13-.23.26,0,0,0,0,0,0-.29-.38-.44-.88-.39-1.54ZM90.68,96.95c-.62.03-1.25.06-1.88.08-1.57-.01-4.34.27-5.63-.83,0,0,0,0,0,0,.01,0,.03,0,.04,0,.84-.19,1.7-.32,2.56-.32,1.71-.06,3.28.73,4.93,1.08,0,0,0,0,0,0h0ZM98.73,103.92c-.55-1.62-.9-3.28-1.16-4.96,0,0,0,0,0-.01,0,0,0,0,0,0-.02-.11-.05-.21-.07-.32-.03-.1-.05-.21-.06-.31,0,0,0,0,0-.01h0s0-.07-.01-.1c0-.03,0-.06-.01-.1h0s0,0,0-.01h0s0-.05,0-.07c0-.02,0-.03,0-.05,0,0,0,0,0-.01h0c-.01-.11-.03-.2-.04-.3,0-.09-.01-.19-.03-.28-.01-.06-.03-.12-.03-.18,0-.08-.02-.16-.03-.23,0-.08-.01-.15-.02-.23,0-.03,0-.07,0-.1-.2-1.37-.46-2.73-.34-4.14,2.34-1.52,5.19-2.43,8.01-1.85,2.17,1.24,1.94,4.79,2.17,6.99.17,2.98.19,5.97.43,8.94.08,1.16.16,2.33.11,3.49-.05.27,0,.74-.28.88-1.15-.28-1.88-1.42-2.69-2.22-1.26-1.57-3.04-2.46-4.91-3.07-.56-.42-.76-1.11-1-1.74ZM108.3,128.99c-.36,2.99-.43,6.3-2.11,8.89-.88,1.03-2.38.61-3.63.7-3.38-.09-7.01-.37-10.03-2.03-3.62-2.52-1.5-4.71.08-7.64,1.68-3.21,3.19-6.51,4.53-9.87,1.57-3.97,2.77-8.19,2.48-12.49.46.23,1.07.45,1.91.76,2.04.98,3.09,3.24,5.05,4.33.25.13.47.2.67.21.03.18.07.36.07.51.25,1.72.51,3.43.67,5.16.51,3.81.61,7.65.32,11.48ZM127.03,86.49c-1.71.58-4.23-.64-5.34-2.01-.47-.69.95-1.23,1.45-1.41.86-.23,1.76-.24,2.64-.27.66,1.13,1.18,2.3,1.46,3.5-.08.04-.15.1-.21.18Z"/><path d="M106.12,103.92c.06,1.69.25,3.37.21,5.06,0,.16.12.3.28.31.16,0,.31-.12.31-.28.01-2.42-.25-4.83-.3-7.24-.12-.59.09-4.09-.65-3.9-.16.04-.25.2-.22.35.31,1.87.26,3.81.36,5.71Z"/><path d="M105.26,107.6c0,.16.12.3.28.31.8-.03.03-4.24-.05-4.93-.02-.2-.06-.56-.36-.52-.16.01-.29.16-.27.32.1.71.22,1.36.3,2.09.12.92.12,1.79.09,2.74Z"/><path d="M107.12,125.38c.06,3.12-.05,6.29-1,9.28-.32,1.03-.68,2.05-1.09,3.05-.06.15-.01.32.14.39.56.18.62-.96.85-1.32,1.47-3.61,1.81-7.52,1.69-11.38.02-.38-.57-.41-.59-.03Z"/><path d="M106.41,131.46c.03-.16-.07-.31-.23-.34-.15-.03-.32.08-.34.23-.28,2.18-.96,4.27-1.75,6.31-.06.15.04.32.19.37.15.05.32-.04.37-.19.58-1.53,1.14-3.08,1.47-4.69.11-.56.2-1.13.29-1.69Z"/><path d="M104.91,134.36c.05-.15-.03-.32-.19-.37-.15-.05-.32.03-.37.19-.16.53-.33,1.05-.5,1.58-.23.7-.47,1.38-.79,2.05-.07.14,0,.32.14.39.55.23.87-1.48,1.08-1.88.22-.65.42-1.3.62-1.96Z"/></svg>