<?xml version="1.0" encoding="UTF-8"?><svg id="Layer_1" xmlns="http://www.w3.org/2000/svg" viewBox="0 0 207.21 203.87"><path d="M121.63,113.43c-.32.25-.58.52-.59.62,0,.08.38.66.84,1.28.62.79.99,1.43,1.26,2.15.23.58.39,1.11.38,1.19,0,.08.06.24.16.34.16.15.21.14.37-.04.11-.11.21-.36.22-.53.05-.52.68-2.16,1.08-2.78.19-.32.57-.78.84-1.01.26-.24.48-.47.48-.49,0-.03-.29-.43-.65-.9-.72-.91-1.21-2.11-1.44-3.45-.1-.59-.2-.82-.34-.83-.16-.02-.3.25-.61,1.17-.47,1.43-1.24,2.67-2.03,3.29Z" fill="none"/><path d="M121.61,104.11c.4-.22.5-.81.18-1.04-.59-.39-1.25.02-1.08.67.12.42.51.58.9.37Z" fill="none"/><path d="M117.98,121.31c.58.24,1.01-.16.74-.68-.17-.35-.47-.43-.84-.22-.3.19-.25.75.09.9Z" fill="none"/><path d="M130.66,107.2c.1-.43.09-.54-.15-.84-.67-.82-2.14-.34-2.08.68.08,1.39,1.89,1.52,2.23.16Z" fill="none"/><path d="M100.71,117.7c3.18.68,7.9.04,10.27-1.38,1.78-1.06,4.32-3.68,4.18-4.31-.09-.43-2.26-2.99-3.18-3.75-1.12-.92-2.52-1.79-3.67-2.24-1.18-.48-3.65-.81-4.9-.67-1.74.21-4.03.96-5.34,1.76-1.54.95-5.18,4.3-5.43,5.02-.1.26-.02.41.47,1.04,1.58,1.97,4.9,3.95,7.6,4.51ZM99.75,111.18c.1-.97.17-1.24.45-1.65.71-1.06,2.15-2.07,3.2-2.23.73-.12,1.03-.09,1.9.15,2.44.71,3.72,2.91,3.07,5.33-.42,1.59-1.52,2.86-2.88,3.32-.47.16-.84.17-1.69.09-.95-.1-1.19-.16-1.83-.53-.87-.52-1.66-1.49-2.06-2.59-.24-.64-.26-.86-.15-1.88Z" fill="none"/><path d="M78.32,120.02c-.18.37-.07.74.26.81.41.09.69-.26.53-.66-.12-.29-.67-.4-.8-.15Z" fill="none"/><path d="M78.22,116.9c.23-.42.18-.89-.12-1.25-.14-.17-.38-.28-.68-.31-.62-.06-.97.25-1.02.89-.08,1.17,1.28,1.67,1.83.67Z" fill="none"/><path d="M74.84,127.29c4.38.86,6.09,1.09,12.36,1.75,3.58.37,7.82.87,9.42,1.11,3.96.59,9.49,1.18,20.25,2.16,9.31.85,12.6,1.06,14.66.95.64-.03,1.7-.08,2.35-.08.74-.02,1.25-.1,1.4-.2.33-.25.54-1.08.88-3.49,1.06-7.66.19-17.67-2.05-23.54-.57-1.51-2.26-4.65-3.35-6.26-1.49-2.18-3.63-4.25-6.8-6.58-1.3-.96-5.96-3.9-7.31-4.62-2.93-1.57-3.61-2.38-3.67-4.33-.02-.76.35-3.17.6-3.85.06-.17-.01-.27-.19-.3-.08.54-.19,1.12-.32,1.75-.04.18-.07.36-.11.54-.12.6-.24,1.21-.43,1.8-.15.49-.44.85-.84,1.03-.32.15-.67.16-.98.16-.53.02-1.04.02-1.55.03-.31,0-.61.01-.92.02h-.3c-.73.02-1.48.04-2.23,0-.27-.01-.53-.03-.77-.06-.2-.02-.4-.05-.59-.07l-.13-.02c-.3-.04-.68-.1-.97-.34-.41-.36-.36-.84-.32-1.19,0-.05.01-.09.01-.14.03-.35.05-.72.05-1.14,0-.52-.02-1.05-.04-1.56-.01-.31-.02-.63-.03-.94,0-.34-.01-.67,0-1-.13,0-.22.01-.22.04,0,0-.14,1.39-.14,1.39-.16,1.61-.6,3.26-1.02,3.94-.45.69-1.57,1.54-2.58,1.94-.49.2-1.75.61-2.8.92-4.92,1.49-8.23,3.2-11.95,6.25-3.5,2.85-6.34,6.41-8.54,10.68-1.25,2.43-2.55,5.79-3.73,9.71-.48,1.61-.51,1.81-.91,5.69-.43,4.24-.47,6.03-.13,6.48.42.58,1.22.86,3.94,1.39ZM97.46,88.2c1.31-.34,2.01-.39,1.98-.16-.02.17-.48.38-1.54.68-1.2.35-2.47.8-4.34,1.56-1.47.59-2.04.69-2,.36.06-.55,2.71-1.65,5.9-2.44ZM89.19,91.59c.92-.33,1.21-.37,1.19-.18,0,.07-.83.58-1.84,1.14-1,.56-2.19,1.22-2.62,1.46-.43.25-.87.44-.97.43-.88-.09,2.04-2.06,4.23-2.86ZM72.1,121.13c.22-2.15.69-4.5,1.58-8.02,1.69-6.57,3.05-9.78,5.41-12.71.88-1.09,1.75-1.84,2.77-2.38,1.83-.97,3.33-.97,7.3.03,3.83.96,5.88,1.11,8.41.6,1.77-.35,3.12-.94,5.67-2.46,2.84-1.68,3.96-2.16,5.31-2.24,1.35-.09,2.68.41,4.89,1.83,1.01.64,1.98,1.17,2.35,1.28.85.25,2.13.12,4.04-.42,1.73-.49,2.71-.64,3.62-.55,1.35.14,3.35,1.14,4.54,2.29.65.63,3.64,4.77,4.23,5.85,1.09,2,2.44,6.58,2.92,9.96.22,1.48.44,5.11.42,6.82-.03,2.84-.51,6.52-1.13,8.76-.32,1.1-1.05,1.73-2.14,1.81-.24.01-2.13-.09-4.22-.23-11.68-.81-13.22-.95-23.03-2.07-5.41-.62-14.66-1.65-20.55-2.29l-10.7-1.16-.66-.41c-1.19-.74-1.35-1.38-1.05-4.31Z" fill="none"/><path d="M83.49,113.06c-.2.4-.69,1.12-1.1,1.62-.39.5-.72.95-.73.98,0,.05.22.34.5.65.6.66.8,1.14,1.04,2.42.29,1.53.61,1.61,1.2.27.45-1.02.87-1.58,1.7-2.25.36-.29.68-.62.68-.71,0-.1-.32-.61-.73-1.14-.44-.57-.91-1.36-1.12-1.91-.55-1.37-.69-1.36-1.44.07Z" fill="none"/><path d="M79.78,107.11c.83.79,1.19,1.36,1.5,2.41.19.66.32.89.51.94.19.05.31-.02.43-.27.65-1.22,1.21-2.03,1.75-2.51.35-.32.64-.64.65-.71,0-.07-.21-.5-.47-.94-.57-.97-1.09-2.27-1.22-3.05-.05-.31-.14-.64-.2-.73-.07-.08-.18-.17-.27-.17-.2-.02-.39.18-.55.56-.28.69-1.15,1.89-1.93,2.67-.45.46-.83.92-.84,1.02-.01.11.26.46.62.79Z" fill="none"/><path d="M103.58,83.72c-.04.34-.04.5.09.61.14.12.39.16.64.19l.14.02c.39.06.81.1,1.29.12.72.03,1.47.02,2.19,0h.3c.31-.01.61-.02.92-.02.51-.01,1.02-.02,1.53-.03.28,0,.53-.01.74-.11.23-.1.39-.31.49-.62.17-.55.29-1.15.41-1.73.04-.18.07-.36.11-.54.13-.62.23-1.18.31-1.71-.96-.14-1.92-.27-2.88-.39-1.54-.19-3.08-.26-4.61-.42-.12-.01-.99-.13-1.67-.18,0,.31,0,.63,0,.95,0,.31.02.62.03.93.02.52.04,1.06.04,1.59,0,.44-.02.84-.05,1.2,0,.05-.01.1-.02.15ZM104.67,80.02c.37-.37.92,0,.78.53-.05.22-.15.28-.46.27-.34,0-.4-.05-.45-.33-.03-.19.03-.38.12-.48ZM104.54,82.48c.23-.22.45-.2.62.05.19.29.04.62-.29.59-.39-.04-.56-.4-.33-.64Z" fill="none"/><path d="M102.92,78.11c.1.01.22.03.35.04.1,0,.2.02.31.03,2.27.24,6.94.66,9.27.82.23.02.43.03.61.04.02,0,.03,0,.05,0,.44.03.71.04.74.02.1-.05.2-.4.26-1.01.09-.79.07-.96-.11-1.13-.09-.07-.33-.14-.75-.21-.01,0-.02,0-.03,0-.17-.03-.38-.05-.62-.08-.82-.09-2.03-.18-3.72-.28-1-.05-2.86-.19-4.11-.3-.54-.05-1.06-.09-1.5-.12-.11,0-.22-.01-.32-.01-.12,0-.24,0-.34,0-.24,0-.4,0-.46.01q-.33.09-.34,1.05c0,.51.02.98.06,1.03.02.02.25.05.65.1Z" fill="none"/><path d="M109.61,75.74c1.14.08,2.28.11,3.41.21,0-.17,0-.33.01-.5.01-.41.02-.81.04-1.22,0-.25.02-.5.03-.75.03-.66.06-1.34.04-2,0-.09,0-.18,0-.28,0-.25.01-.49-.09-.63-.07-.11-.19-.15-.36-.17-.08,0-.18-.01-.29-.01h-.09c-1.6-.03-2.98.01-4.22.14h-.02c-.26,0-.51.02-.75.04-.42.03-.85.09-1.33.18-.23.04-.47.09-.7.15l-.13.03c-.1.02-.21.04-.32.07-.18.05-.43.16-.56.38-.13.22-.17.52-.22.81-.01.07-.02.13-.03.2-.12.7-.19,1.43-.25,2.13l-.04.39c-.01.13-.02.27-.04.4.42.04.84.08,1.27.11,1.54.11,3.08.21,4.63.32ZM110.91,73.14c.09-.09.31-.14.48-.1.26.06.31.13.27.48-.05.5-.38.72-.69.48-.25-.2-.28-.64-.06-.87ZM106.05,73.64c.01-.15.09-.31.19-.39.47-.38,1.1.28.76.8-.29.43-1,.12-.94-.41Z" fill="none"/><path d="M74.87,128.15c4.14.8,6.43,1.11,13.16,1.82,3.75.4,9.52,1.09,12.82,1.53,3.31.46,6.91.88,8.02.95,1.11.06,4.23.32,6.95.55,9.59.84,13.97,1.13,16.54,1.12,3-.02,3.35-.11,3.75-.92.45-.94.8-3.04,1.09-6.7.27-3.35.27-4.32.06-8.07-.26-4.55-1.25-9.65-2.57-13.08-.86-2.23-3.27-6.35-4.65-7.92-2.87-3.29-7.25-6.53-12.9-9.55-2.44-1.3-3.17-2.02-3.37-3.25-.06-.35.01-1.19.2-2.56l.28-2.06.43-.29c.41-.28.42-.31.57-1.38.07-.5.19-1.14-.04-1.62-.25-.54-1-.65-1.55-.71,0-.18,0-.36.01-.54.01-.4.02-.81.04-1.21,0-.25.02-.5.03-.75.03-.67.06-1.36.04-2.05,0-.07,0-.16,0-.24,0-.31.02-.7-.21-1.03-.31-.44-.81-.45-1.17-.46h-.08c-1.62-.03-3.02.01-4.29.14-.27,0-.52.02-.77.04-.44.04-.89.09-1.39.18-.24.05-.49.1-.73.16l-.1.02c-.11.02-.25.04-.38.08-.42.12-.74.35-.93.66-.2.33-.26.72-.31,1.06,0,.06-.02.13-.03.19-.12.73-.19,1.46-.26,2.18l-.04.39c-.01.13-.02.27-.04.4l-.25-.02c-.92-.09-1.11.07-1.32,1.24-.18,1.05-.08,1.86.27,2.15l.26.21-.37,2.07c-.62,3.48-.96,3.82-5.38,5.24-5.48,1.75-8.38,3.23-12.12,6.18-1.94,1.53-3.37,2.93-4.93,4.81-3.24,3.89-5.12,7.44-7.21,13.6-1.33,3.92-1.45,4.5-1.89,9.03-.42,4.26-.45,5.72-.13,6.43.4.88,1.49,1.32,4.87,1.96ZM103.75,74.91l.04-.39c.07-.7.13-1.42.25-2.13.01-.06.02-.13.03-.2.04-.29.09-.6.22-.81.13-.21.38-.32.56-.38.11-.03.22-.05.32-.07l.13-.03c.23-.06.47-.1.7-.15.48-.09.91-.14,1.33-.18.24-.02.49-.03.75-.04h.02c1.24-.13,2.62-.17,4.22-.14h.09c.11,0,.2,0,.29.01.16.02.28.06.36.17.1.14.1.38.09.63,0,.1,0,.19,0,.28.02.66,0,1.34-.04,2-.01.25-.02.5-.03.75-.01.4-.02.81-.04,1.22,0,.17,0,.33-.01.5-1.13-.1-2.27-.13-3.41-.21-1.54-.1-3.08-.21-4.63-.32-.43-.03-.85-.07-1.27-.11.01-.13.02-.27.04-.4ZM102.21,76.98q0-.96.34-1.05c.06-.01.23-.02.46-.01.1,0,.21,0,.34,0,.1,0,.21,0,.32.01.44.02.96.06,1.5.12,1.26.11,3.11.25,4.11.3,1.69.1,2.9.18,3.72.28.24.02.44.05.62.08.01,0,.02,0,.03,0,.42.06.66.13.75.21.18.17.2.34.11,1.13-.06.61-.16.96-.26,1.01-.03.01-.3,0-.74-.02-.02,0-.03,0-.05,0-.18-.01-.38-.02-.61-.04-2.34-.16-7-.57-9.27-.82-.11-.01-.21-.02-.31-.03-.13-.01-.24-.03-.35-.04-.4-.05-.64-.08-.65-.1-.03-.04-.06-.51-.06-1.03ZM103.61,80.78c-.01-.31-.02-.62-.03-.93,0-.32,0-.63,0-.95.69.06,1.55.17,1.67.18,1.54.16,3.08.24,4.61.42.96.11,1.92.24,2.88.39-.08.53-.18,1.09-.31,1.71-.04.18-.07.36-.11.54-.12.58-.24,1.18-.41,1.73-.1.31-.26.52-.49.62-.21.1-.46.1-.74.11-.51.01-1.02.02-1.53.03-.31,0-.62.01-.92.02h-.3c-.72.02-1.46.04-2.19,0-.48-.02-.9-.06-1.29-.12l-.14-.02c-.24-.03-.5-.07-.64-.19-.14-.11-.13-.27-.09-.61,0-.05.01-.1.02-.15.04-.36.05-.76.05-1.2,0-.53-.02-1.07-.04-1.59ZM71.03,119.42c.39-3.88.42-4.08.91-5.69,1.18-3.91,2.48-7.27,3.73-9.71,2.2-4.28,5.04-7.84,8.54-10.68,3.72-3.04,7.03-4.76,11.95-6.25,1.05-.31,2.31-.73,2.8-.92,1.01-.4,2.13-1.25,2.58-1.94.43-.68.86-2.34,1.02-3.94,0,0,.14-1.38.14-1.39,0-.03.09-.04.22-.04,0,.33,0,.66,0,1,0,.31.02.63.03.94.02.51.04,1.04.04,1.56,0,.42-.01.8-.05,1.14,0,.05,0,.09-.01.14-.04.35-.1.83.32,1.19.29.24.67.3.97.34l.13.02c.19.03.38.05.59.07.24.02.5.04.77.06.75.03,1.5.01,2.23,0h.3c.31-.01.61-.02.92-.02.51,0,1.03-.02,1.55-.03.31,0,.65-.02.98-.16.4-.18.69-.54.84-1.03.18-.59.31-1.2.43-1.8.04-.18.07-.36.11-.54.13-.63.24-1.21.32-1.75.18.03.25.13.19.3-.24.68-.62,3.08-.6,3.85.06,1.95.74,2.76,3.67,4.33,1.34.72,6,3.66,7.31,4.62,3.17,2.33,5.31,4.41,6.8,6.58,1.09,1.61,2.78,4.75,3.35,6.26,2.24,5.87,3.11,15.88,2.05,23.54-.34,2.41-.55,3.24-.88,3.49-.15.11-.66.18-1.4.2-.64,0-1.7.05-2.35.08-2.05.11-5.35-.1-14.66-.95-10.76-.98-16.29-1.57-20.25-2.16-1.6-.24-5.84-.74-9.42-1.11-6.28-.66-7.99-.89-12.36-1.75-2.72-.53-3.52-.81-3.94-1.39-.34-.45-.29-2.24.13-6.48Z"/><path d="M111.66,73.52c.04-.35,0-.42-.27-.48-.17-.04-.38.01-.48.1-.22.22-.19.67.06.87.31.24.64.01.69-.48Z"/><path d="M106.99,74.06c.35-.52-.29-1.18-.76-.8-.09.08-.17.24-.19.39-.05.54.65.84.94.41Z"/><path d="M105,80.83c.31,0,.41-.06.46-.27.14-.53-.41-.9-.78-.53-.1.1-.15.29-.12.48.05.27.1.33.45.33Z"/><path d="M104.86,83.11c.33.03.48-.3.29-.59-.17-.25-.39-.27-.62-.05-.23.23-.06.6.33.64Z"/><path d="M93.56,90.27c1.87-.76,3.13-1.21,4.34-1.56,1.06-.3,1.53-.51,1.54-.68.02-.23-.67-.18-1.98.16-3.19.8-5.85,1.9-5.9,2.44-.03.33.53.23,2-.36Z"/><path d="M84.95,94.45c.1,0,.53-.18.97-.43.43-.24,1.61-.89,2.62-1.46,1-.56,1.83-1.07,1.84-1.14.02-.19-.27-.15-1.19.18-2.2.8-5.11,2.77-4.23,2.86Z"/><path d="M73.16,125.44l.66.41,10.7,1.16c5.88.64,15.14,1.67,20.55,2.29,9.81,1.12,11.34,1.26,23.03,2.07,2.09.14,3.98.24,4.22.23,1.09-.09,1.82-.71,2.14-1.81.62-2.24,1.1-5.93,1.13-8.76.02-1.71-.2-5.33-.42-6.82-.48-3.38-1.83-7.96-2.92-9.96-.59-1.08-3.58-5.21-4.23-5.85-1.19-1.15-3.19-2.15-4.54-2.29-.91-.09-1.89.06-3.62.55-1.91.53-3.19.66-4.04.42-.37-.11-1.35-.64-2.35-1.28-2.22-1.43-3.55-1.92-4.89-1.83-1.36.08-2.48.56-5.31,2.24-2.55,1.52-3.9,2.11-5.67,2.46-2.53.51-4.58.36-8.41-.6-3.97-1-5.47-1.01-7.3-.03-1.03.54-1.89,1.29-2.77,2.38-2.36,2.94-3.72,6.14-5.41,12.71-.89,3.51-1.36,5.86-1.58,8.02-.3,2.93-.14,3.58,1.05,4.31ZM130.51,106.36c.24.3.26.41.15.84-.34,1.36-2.15,1.22-2.23-.16-.06-1.01,1.42-1.49,2.08-.68ZM123.66,110.14c.31-.91.45-1.18.61-1.17.13.01.23.24.34.83.22,1.34.72,2.54,1.44,3.45.36.47.65.87.65.9,0,.03-.22.25-.48.49-.27.23-.65.68-.84,1.01-.4.62-1.03,2.26-1.08,2.78-.02.17-.11.42-.22.53-.17.18-.22.19-.37.04-.1-.1-.17-.25-.16-.34,0-.08-.16-.62-.38-1.19-.27-.73-.64-1.37-1.26-2.15-.47-.61-.85-1.19-.84-1.28,0-.1.27-.37.59-.62.79-.62,1.55-1.86,2.03-3.29ZM121.79,103.07c.32.23.22.82-.18,1.04-.39.21-.78.04-.9-.37-.17-.64.49-1.06,1.08-.67ZM117.88,120.42c.37-.21.66-.13.84.22.27.52-.16.92-.74.68-.34-.15-.4-.7-.09-.9ZM92.64,112.14c.26-.72,3.89-4.07,5.43-5.02,1.31-.8,3.6-1.56,5.34-1.76,1.24-.14,3.72.19,4.9.67,1.15.45,2.55,1.31,3.67,2.24.92.76,3.08,3.32,3.18,3.75.13.63-2.41,3.25-4.18,4.31-2.37,1.42-7.09,2.05-10.27,1.38-2.7-.57-6.01-2.55-7.6-4.51-.49-.63-.57-.78-.47-1.04ZM84.93,113c.21.55.68,1.34,1.12,1.91.42.53.74,1.05.73,1.14,0,.08-.32.41-.68.71-.83.67-1.25,1.23-1.7,2.25-.59,1.34-.91,1.26-1.2-.27-.24-1.28-.44-1.75-1.04-2.42-.28-.31-.51-.6-.5-.65,0-.03.33-.48.73-.98.41-.5.9-1.23,1.1-1.62.76-1.42.89-1.44,1.44-.07ZM80,105.3c.78-.78,1.65-1.99,1.93-2.67.16-.38.35-.58.55-.56.08,0,.2.09.27.17.05.09.14.42.2.73.13.78.65,2.08,1.22,3.05.26.44.48.87.47.94,0,.07-.3.39-.65.71-.54.49-1.1,1.29-1.75,2.51-.12.25-.24.32-.43.27-.19-.05-.32-.28-.51-.94-.31-1.05-.67-1.63-1.5-2.41-.36-.33-.63-.68-.62-.79,0-.1.39-.56.84-1.02ZM79.12,120.17c.16.4-.12.75-.53.66-.34-.07-.45-.44-.26-.81.12-.25.68-.14.8.15ZM76.39,116.22c.05-.65.4-.95,1.02-.89.3.03.54.14.68.31.29.36.35.83.12,1.25-.54.99-1.91.5-1.83-.67Z"/><path d="M101.97,115.66c.64.37.88.43,1.83.53.85.09,1.22.07,1.69-.09,1.36-.46,2.46-1.73,2.88-3.32.65-2.42-.63-4.61-3.07-5.33-.87-.25-1.18-.28-1.9-.15-1.05.17-2.49,1.18-3.2,2.23-.27.42-.35.68-.45,1.65-.1,1.02-.09,1.25.15,1.88.41,1.1,1.19,2.08,2.06,2.59Z"/></svg>