<?xml version="1.0" encoding="UTF-8"?><svg id="Layer_1" xmlns="http://www.w3.org/2000/svg" viewBox="0 0 207.21 203.87"><path d="M105.31,117.02c-.15.03-.26.17-.23.33,2.16,12.62,2.42,20.28.79,23.4-.07.14-.02.31.12.38.04.02.09.03.13.03.1,0,.2-.06.25-.15,1.69-3.24,1.45-11.01-.74-23.76-.03-.15-.17-.26-.33-.23Z" fill="#1c1b19"/><path d="M99.97,102.81c-.16,0-.28.13-.28.28,0,8.11-1.72,15.86-3.1,22.09-1.41,6.33-2.52,11.34-1.49,14.52.04.12.15.2.27.2.03,0,.06,0,.09-.01.15-.05.23-.21.18-.36-.98-3.03.11-7.97,1.5-14.22,1.39-6.25,3.12-14.03,3.12-22.21,0-.16-.13-.28-.28-.28Z" fill="#1c1b19"/><path d="M141.23,74.21c-.03-.16-.08-.31-.13-.45-.19-.72-1.3-3.44-7.33-4.65-.79-.16-1.62-.31-2.5-.46-5.76-1.03-12.92-2.31-17.84-8.24-3.36-4.06-7.48-6.29-11.61-6.29-3.32,0-6.46,1.49-8.62,4.09-.51.61-.98,1.21-1.44,1.78-3.11,3.88-5.35,6.68-11.86,8.41-7.17,1.9-11.92,3.67-13.47,6.57-.59,1.11-.74,3,.09,4.5,0,0,0,0,0,0,0,0,0,.02.01.03h0c.13.25.28.49.46.72.15.19.32.37.51.55h0s0,0,0,0c1.95,1.82,5.99,3.08,12.31,3.85,1.01.12,2.08.23,3.19.33,3.11.27,6.6.43,10.45.49-.85,1.7-1.36,2.9-1.6,3.76-.36,1.3-.14,2.16.65,2.57.2.1.41.15.62.15h0c.41,0,.75-.17,1.05-.43.04.4.16.76.42,1.04.26.29.62.45,1.02.45.18,0,.36-.03.55-.09.5-.16.87-.54,1.17-1.03.02.04.05.07.07.11-.23,3.32-.59,7.94-1.11,14-.97,11.17-2.98,16.56-4.45,20.5-.98,2.62-1.75,4.69-1.95,7.45-.4,5.47.65,9.63,3.11,12.39,1.92,2.14,4.69,3.34,8.01,3.46.15,0,.3,0,.46,0,3.24,0,6.19-1.29,8.32-3.62,2.5-2.74,3.65-6.66,3.25-11.04-.38-4.08-1.36-7.05-2.39-10.2-1.26-3.83-2.57-7.79-2.88-14.23-.29-5.91-.7-13.14-1-18.37.09,0,.18-.02.27-.03.93-.18,1.54-.85,1.68-1.82.76.92,1.63,1.74,2.64,1.74.34,0,.66-.09.95-.27.52-.31,1.03-.99.52-2.42-.25-.69-.69-1.52-1.25-2.58-.34-.63-.72-1.35-1.11-2.14,4.92-.5,11.09-1.32,16.61-2.44,3.84-.78,7.37-1.7,9.94-2.76,2.88-1.19,4.61-3.4,4.22-5.36ZM82.63,71.9c.46.12.89.34,1.21.63.22.2.39.44.48.71.1.3.11.63,0,.99-.05.15-.12.3-.21.45-1.03,1.68-3.29,1.16-4.2-.33-.07-.11-.13-.23-.18-.35-.11-.26-.18-.54-.16-.82,0-.06.01-.12.02-.18.24-1.22,2.07-1.35,3.04-1.11ZM124.6,73.05c-.57.85-2.02,1.21-2.55.34-.1-.16-.16-.37-.19-.62-.01-.12,0-.24.03-.36.25-1,1.8-1.83,2.58-.98.08.08.14.17.19.27.06.11.1.23.13.34.09.38,0,.73-.19,1.02ZM115.56,68.46c.02,1.42-1.19,2.59-2.61,1.82-2.01-1.1-1.27-4.96,1.21-4.23.87.25,1.38,1.37,1.4,2.41ZM104.38,68.3c.55.07,1.06.28,1.49.57,1.65,1.12,2.24,3.5-.03,4.39-1.15.45-2.67.58-3.77-.45-2.33-2.19.21-4.77,2.31-4.51ZM103.6,60.14c.18.25.31.56.34.91.19,1.93-2.79,2.67-3.61.94-.94-2,1.98-3.6,3.26-1.85ZM93.86,66.27c.16.16.29.33.38.5.95,1.74-1.53,3.61-2.95,1.75-1.41-1.84,1.03-3.8,2.57-2.24ZM97.15,74.95s0,0,0,0c-.28.8-1.24,1.53-2.06,1.03-.39-.24-.63-.68-.67-1.14,0-.12,0-.25.02-.37.04-.22.12-.42.23-.61.31-.52.86-.88,1.49-.85.59.03.94.41,1.06.89,0,.02,0,.03.01.05.07.31.04.66-.07.99ZM86.61,84.2c-8.2-.46-16.82-1.7-18.98-4.79.07-.26.19-.51.36-.69.58-.6,1.42-1,5.1-1.02,1.83-.01,4.03.19,6.55.57,3.65.55,6.55.82,8.96.95-3.32.77-10.68,1.53-16.89-.22-.15-.04-.31.05-.35.2-.04.15.05.31.2.35,2.87.81,5.95,1.1,8.77,1.1,4.69,0,8.69-.8,9.95-1.35.97.03,1.86.04,2.69.04-.38.23-.96.54-1.72.86-1.44.59-3.88,1.33-7.34,1.49-.16,0-.28.14-.27.3,0,.15.13.27.28.27,0,0,0,0,.01,0,6.82-.31,9.86-2.77,9.99-2.87.01-.01.03-.02.04-.04.71,0,1.42-.02,2.14-.03-.37,1.07-.87,2.35-1.51,3.77-.2.44-.41.9-.64,1.36-2.26-.03-4.77-.1-7.32-.24ZM106.77,110.71c.58,11.83,4.45,15.54,5.28,24.47.76,8.2-4.31,13.81-11,13.57-6.55-.24-10.91-4.83-10.18-14.79.5-6.83,4.81-9.58,6.4-27.94.5-5.76.84-10.22,1.08-13.49.01,0,.02,0,.04,0,.07.01.15.02.22.02.48,0,.85-.19,1.14-.5.08.16.19.31.31.44.31.32.7.48,1.14.48.05,0,.11,0,.17,0,.73-.07,1.19-.45,1.48-.96.22.22.51.38.88.44.07.01.15.02.22.02.36,0,.69-.14.95-.4.12-.12.22-.26.3-.42.16.18.34.34.56.45.3,5.23.71,12.58,1.01,18.62ZM111.79,91.06c-1.55.93-3.65-3.62-4.2-3.44s1.1,3.3-.76,3.67c-.05,0-.09.01-.13.02-.49.04-.81-.28-1.03-.75-.55-1.16-.49-3.27-.92-3.3-.61-.05.28,4.4-.87,4.22-1.14-.18-.74-3.12-1.24-3.12s.18,3.48-1.38,3.63-.5-4.32-1.01-4.37c-.5-.05-.46,4.13-1.74,3.94-.04,0-.07-.02-.11-.03-1.09-.41.27-4.56-.35-4.74-.14-.04-.25.15-.36.48-.41,1.21-.76,4.29-1.85,4.66-1.39.46-.21-2.89-.72-3.12-.5-.23-1.38,2.48-2.18,2.06-.62-.32-.26-1.74,1.48-5.18.04-.09.08-.17.13-.25.17-.33.33-.66.48-.99.24-.51.47-1.01.68-1.49.61-1.4,1.08-2.65,1.43-3.68,1.28-.02,2.6-.05,4.04-.05,2.02,0,4.03-.08,6-.23.3,1.17.68,2.28,1.09,3.3.22.56.45,1.1.69,1.61.15.33.3.65.45.95,1.68,3.44,3.28,5.64,2.39,6.18ZM136.63,78.66c-3.65,1.51-9.26,2.73-14.95,3.65-4.1.66-8.23,1.17-11.68,1.52-.23-.48-.45-.99-.67-1.52-.43-1.04-.83-2.17-1.15-3.36,6.39-.53,12.44-1.65,17.56-2.6,4.73-.88,8.82-1.64,11.64-1.64,1.03,0,1.85.1,2.46.31l.42.14c-.24,1.3-1.66,2.7-3.63,3.51Z" fill="#1c1b19"/><path d="M112.87,81.8c-1.16-.81-2.36-2.42-2.37-2.43-.09-.13-.27-.15-.4-.06-.13.09-.15.27-.06.4.05.07,1.26,1.7,2.5,2.56,0,0,.02,0,.03.01.04.02.09.04.13.04.05,0,.1-.01.14-.04.04-.02.07-.05.09-.08.09-.13.06-.3-.07-.39Z" fill="#1c1b19"/><path d="M119.7,81.31c-3.62-.39-6.17-2.36-6.19-2.38-.12-.1-.3-.07-.4.05-.1.12-.07.3.05.4.11.08,2.7,2.08,6.48,2.49.01,0,.02,0,.03,0,.14,0,.26-.11.28-.25.02-.16-.1-.29-.25-.31Z" fill="#1c1b19"/><path d="M134.86,77.35c-6.78,2.37-15.46,1.85-17.31,1-.14-.07-.31,0-.38.14-.07.14,0,.31.14.38.92.43,3.33.78,6.36.78,3.43,0,7.64-.45,11.38-1.76.15-.05.23-.21.17-.36-.05-.15-.21-.22-.36-.17Z" fill="#1c1b19"/><path d="M95.26,80.55c.09-.12.07-.3-.06-.4-.12-.09-.3-.07-.4.05-.01.02-1.24,1.61-3.69,2.63-.14.06-.21.23-.15.37.05.11.15.17.26.17.04,0,.07,0,.11-.02,2.6-1.08,3.87-2.74,3.93-2.81Z" fill="#1c1b19"/></svg>