<?xml version="1.0" encoding="UTF-8"?><svg id="Layer_1" xmlns="http://www.w3.org/2000/svg" viewBox="0 0 207.21 203.87"><path d="M88.81,104.55c11.92-21.62,27.92-40.98,46.91-56.75" fill="none" stroke="#000" stroke-linecap="round" stroke-linejoin="round" stroke-width="2.44"/><path d="M90.59,112.38c9.53-10.08,20.73-18.58,33-25.07" fill="none" stroke="#000" stroke-linecap="round" stroke-linejoin="round" stroke-width="2.44"/><path d="M101.61,114.87c19.19-13.93,40.7-24.65,63.38-31.57" fill="none" stroke="#000" stroke-linecap="round" stroke-linejoin="round" stroke-width="2.44"/><path d="M105.97,121.97c6.53-2.07,13.21-3.68,19.96-4.82" fill="none" stroke="#000" stroke-linecap="round" stroke-linejoin="round" stroke-width="2.44"/><path d="M84.25,85.11c-.26,3.23-.74,6.44-1.43,9.6" fill="none" stroke="#000" stroke-linecap="round" stroke-linejoin="round" stroke-width="2.44"/><path d="M59.73,99.07c2.62,2.68,5.24,5.35,7.87,8.03" fill="none" stroke="#000" stroke-linecap="round" stroke-linejoin="round" stroke-width="2.44"/><path d="M42.22,137.32c4.48-1.51,8.77-3.56,12.77-6.09" fill="none" stroke="#000" stroke-linecap="round" stroke-linejoin="round" stroke-width="2.44"/><path d="M75.65,144.59c-.37,3.86-.98,7.69-1.83,11.47" fill="none" stroke="#000" stroke-linecap="round" stroke-linejoin="round" stroke-width="2.44"/><path d="M98.08,133.74c3.02,2.22,6.38,3.97,9.92,5.17" fill="none" stroke="#000" stroke-linecap="round" stroke-linejoin="round" stroke-width="2.44"/><path d="M82.67,106.98c2.24.2,0,9.6,1.73,10.07,1.73.47,11.33,3.3,11.33,4.56s-7.24,3.62-8.97,4.25c-1.73.63.31,12.59.31,12.59,0,0-3.93-2.2-6.61-3.93-2.68-1.73-10.54,4.25-12.12,2.68-1.57-1.57,2.05-8.81,1.73-10.54-.31-1.73-9.6-5.04-9.13-7.4.47-2.36,9.28-.31,11.96-1.42,2.68-1.1,8.03-11.02,9.76-10.86Z"/></svg>