<?xml version="1.0" encoding="UTF-8"?><svg id="Layer_1" xmlns="http://www.w3.org/2000/svg" viewBox="0 0 207.21 203.87"><path d="M90.74,88.8c0,.09.05.21,0,.27-.45.56-.81,1.17-1.01,1.86-.03.1-.07.2-.14.27-.49.58-.57,1.29-.69,1.99-.03.16-.04.34-.12.47-.24.38-.36.77-.36,1.21,0,.1-.01.21-.06.3-.3.58-.3,1.22-.34,1.85-.05.75-.14,1.5-.19,2.25-.03.39-.02.77.18,1.13.27.5.26,1.04.07,1.55-.14.36-.17.73-.12,1.08.08.5.21,1,.4,1.47.16.4.34.79.32,1.23-.01.33.16.58.31.85.12.21.25.43.32.66.11.4.33.7.64.95.44.36.77.78.9,1.35.05.2.22.39.38.54.28.26.5.54.62.9.14.43.44.69.81.87.38.2.78.36,1.18.5.38.13.73.28.97.61.13.18.31.25.52.28.5.08.93.3,1.22.74.05.08.13.18.21.21.78.28,1.52.69,2.33.87.09.02.2,0,.3-.02.1-.02.2-.08.3-.07.77.15,1.59.1,2.31.45.55.27,1.1.41,1.7.27.12-.03.25-.02.36-.05.76-.2,1.42-.04,1.98.51.8-.27,1.63-.34,2.45-.46.15-.02.32-.09.44-.18.39-.31.81-.45,1.31-.44.18,0,.36-.06.53-.11.39-.12.77-.27,1.16-.38.22-.06.36-.18.45-.37.26-.55.68-.92,1.26-1.08.24-.07.38-.21.48-.43.18-.41.48-.7.84-.95.15-.1.28-.24.38-.38.27-.37.57-.7.98-.9.11-.05.24-.12.29-.21.21-.44.47-.88.55-1.34.13-.75.35-1.47.65-2.16.22-.5.32-1,.32-1.54,0-.43.07-.85.09-1.28.02-.37.02-.73.01-1.1,0-.47-.01-.94.16-1.39.05-.14.04-.32,0-.46-.25-.73-.32-1.47-.16-2.23.05-.23.04-.44-.1-.64-.34-.5-.52-1.06-.62-1.65-.06-.34-.16-.67-.41-.94-.1-.1-.14-.25-.2-.37-.26-.53-.53-1.05-.78-1.59-.12-.28-.21-.57-.28-.87-.07-.33-.23-.59-.44-.86-.27-.35-.47-.76-.69-1.15-.15-.27-.29-.53-.57-.7-.1-.06-.2-.16-.25-.26-.16-.32-.43-.53-.68-.77-.34-.32-.7-.61-1.03-.95-.3-.33-.77-.52-1.19-.71-.26-.12-.53-.18-.76-.38-.21-.19-.47-.25-.74-.16-.42.14-.77,0-1.08-.26-.2-.17-.42-.2-.66-.25-.45-.09-.89,0-1.33.02-.73.03-1.46.02-2.18.11-.61.08-1.25.03-1.82.38-.27.17-.6.25-.9.37-.11.05-.23.09-.32.16-.7.53-1.39,1.07-2.09,1.59-.42.31-.77.64-1.01,1.11-.26.51-.6.97-.93,1.44-.11.16-.3.28-.44.42-.1.1-.22.2-.25.33-.09.42-.14.84-.2,1.26-.02.12.03.26-.01.36-.25.61-.19,1.29-.39,1.91-.05.15-.06.32-.09.48-.05.26-.05.54-.15.78-.19.46-.2.9-.04,1.37.03.09.06.2.06.3,0,.8.29,1.52.58,2.23.16.38.33.75.32,1.17-.01.28.15.46.37.59.43.25.68.63.84,1.09.17.46.35.91.53,1.37.15.39.45.66.82.78.71.22,1.2.71,1.63,1.25.25.32.63.44.92.7.05.05.16.07.23.06.42-.04.81.03,1.2.17.11.04.28-.02.41-.07.42-.16.83-.12,1.26.01.39.12.79.18,1.19.24.11.02.23-.05.34-.09.3-.12.61-.23.89-.38.53-.27,1.14-.43,1.44-1.05.15-.32.47-.52.82-.59.37-.08.58-.29.75-.64.35-.73.75-1.44,1.11-2.17.05-.1.08-.23.07-.34-.06-.69-.12-1.38-.21-2.06-.03-.23-.11-.48-.23-.68-.27-.45-.67-.82-.8-1.37-.02-.08-.13-.16-.22-.19-.47-.19-.94-.42-1.43-.53-.32-.07-.68.02-1.01.07-.18.03-.34.14-.52.17-.24.03-.41.14-.54.35-.17.27-.41.46-.72.54-.23.06-.37.19-.5.4-.18.29-.44.53-.69.77-.19.19-.29.37-.18.65.15.37.1.76.01,1.14-.13.57-.31,1.15,0,1.73.04.07.04.16.04.24.03.27-.09.48-.31.62-.23.14-.48.13-.69-.03-.4-.31-.84-.61-.81-1.21-.33-.64-.27-1.34-.38-2.02-.02-.13-.11-.26-.18-.38-.29-.54-.35-1.08-.06-1.64.07-.14.14-.3.18-.45.11-.38.31-.71.59-.99.29-.29.54-.6.66-1.01.12-.38.41-.68.77-.83.24-.1.42-.24.57-.44.28-.37.67-.52,1.11-.57.24-.03.49-.11.72-.09.69.04,1.29-.32,1.97-.35.39-.02.74.01,1.04.24.37.28.76.45,1.23.48.68.04,1.12.41,1.36,1.06.07.2.2.41.37.55.64.54,1,1.29,1.47,1.95.13.19.19.45.23.69.11.68.24,1.37.29,2.06.06.7.05,1.4.17,2.1.07.42-.1.85-.37,1.2-.07.1-.18.19-.21.3-.31,1.02-1,1.86-1.29,2.9-.19.69-.67,1.15-1.42,1.29-.24.04-.46.16-.69.24-.27.08-.45.24-.57.51-.07.14-.18.27-.3.38-.17.15-.34.3-.54.4-.59.27-1.18.54-1.79.75-.21.07-.48-.03-.78-.05-.04.02-.13.07-.2.14-.52.43-1.09.47-1.72.27-.5-.16-1.03-.23-1.54-.32-.11-.02-.24.04-.35.09-.56.23-1.09.13-1.56-.21-.24-.18-.49-.26-.79-.24-.6.04-1.08-.24-1.42-.71-.19-.26-.41-.44-.67-.61-.18-.13-.34-.29-.52-.43-.16-.13-.3-.29-.49-.36-.75-.28-1.16-.94-1.69-1.47-.08-.08-.14-.21-.16-.33-.11-.63-.48-1.17-.68-1.76-.09-.26-.22-.47-.44-.64-.54-.42-.75-.97-.79-1.65-.03-.48-.22-.95-.38-1.41-.25-.76-.44-1.53-.42-2.33,0-.16-.03-.32-.05-.48-.03-.22-.07-.44-.09-.66-.04-.38-.09-.77-.08-1.15,0-.3.07-.6.14-.9.05-.22.14-.43.22-.63.19-.48.27-.98.22-1.5-.03-.33.07-.65.25-.93.25-.39.35-.8.37-1.27.03-.48.13-.97.28-1.43.08-.25.29-.51.51-.66.28-.2.48-.44.64-.72.33-.57.7-1.11,1.21-1.53.05-.04.11-.08.12-.13.25-.8.99-1.11,1.57-1.56.37-.29.75-.57,1.14-.83.22-.15.46-.25.69-.37.11-.06.23-.09.32-.16.55-.41,1.12-.74,1.84-.72.13,0,.27-.07.39-.15.23-.16.48-.24.75-.21.27.03.52-.02.78-.12.13-.05.28-.09.42-.1.87-.04,1.75-.08,2.62-.12.16,0,.32-.04.49-.06.26-.03.53-.08.79-.1.36-.03.69.06.94.35.27.31.57.42.98.25.17-.07.41-.05.59.01.28.1.56.25.81.42.24.16.47.32.77.34.33.02.57.21.77.45.16.2.38.29.6.4.43.22.83.52,1.26.74.54.27.9.68,1.17,1.2.1.19.29.33.44.49.21.22.44.42.61.67.38.55.67,1.16,1.17,1.64.18.17.29.44.37.69.13.39.3.75.52,1.1.29.47.54.97.73,1.48.11.31.29.57.44.86.38.72.73,1.45,1.04,2.2.1.25.1.57.07.85-.08.72.15,1.38.42,2.01.31.72.41,1.41.08,2.13-.18.39-.13.79-.12,1.2.03.85.03,1.71-.12,2.55-.05.3-.09.59-.07.9.02.36,0,.76-.15,1.08-.32.65-.39,1.37-.67,2.03-.02.04-.01.08-.03.12-.32.6-.48,1.24-.61,1.9-.06.3-.3.57-.46.85-.12.21-.28.41-.35.63-.17.59-.57.98-1.07,1.29-.12.07-.25.13-.38.19-.4.2-.69.46-.79.94-.12.57-.49.98-.97,1.29-.22.14-.44.3-.69.4-.28.12-.49.29-.64.55-.29.48-.74.74-1.28.87-.21.05-.43.13-.62.23-.57.3-1.16.49-1.81.5-.14,0-.29.02-.41.08-.3.15-.61.2-.95.22-.17,0-.36.08-.49.18-.4.32-.86.45-1.36.49-.2.02-.4.07-.6.09-.2.02-.41.08-.61.03-.28-.06-.49,0-.74.14-.64.36-1.28.36-1.89-.11-.41-.32-.9-.4-1.38-.31-.47.09-.9,0-1.29-.23-.5-.3-1.07-.37-1.63-.46-.14-.02-.3.03-.42-.03-.52-.24-1.07-.22-1.62-.2-1.14.05-1.98-.52-2.7-1.33-.14-.16-.29-.27-.5-.32-.41-.1-.75-.31-1.02-.64-.11-.13-.3-.2-.46-.26-.55-.21-1.11-.4-1.66-.62-.13-.05-.23-.16-.35-.24-.2-.13-.4-.28-.61-.39-.7-.38-1.3-.84-1.59-1.62-.06-.16-.16-.34-.3-.44-.58-.42-.86-1.03-1.04-1.69-.09-.33-.22-.59-.47-.84-.2-.2-.4-.45-.46-.71-.13-.62-.52-1.1-.81-1.64-.23-.42-.34-.86-.39-1.33-.06-.58-.24-1.15-.37-1.72,0-.02-.02-.04-.03-.05-.34-.54-.1-1.17-.27-1.74-.17-.57-.11-1.12.1-1.67.16-.41.16-.85.01-1.26-.15-.44-.13-.86-.1-1.32.06-.73.25-1.44.32-2.17.07-.71.12-1.45.51-2.12.21-.35.24-.82.31-1.24.07-.37.17-.71.46-.98.12-.11.21-.25.3-.38.52-.77,1.21-1.37,1.93-1.94.65-.52,1.31-1.03,1.97-1.54h-.01Z" fill="#191919"/></svg>