<?xml version="1.0" encoding="UTF-8"?><svg id="Layer_1" xmlns="http://www.w3.org/2000/svg" viewBox="0 0 500 500"><path d="M278.02,255.15c-.29-3.44-.12-6.87-.05-10.31.04-2.04.06-4.08-.04-6.12-.1-2.03-.24-4.17-.9-6.11-.52-1.53-1.66-2.99-3.07-3.81-1.51-.88-3.1-.39-3.97,1.09-.91,1.54-1.12,3.48-1.28,5.22-.16,1.79-.2,3.59-.19,5.39.04,7.93,1.24,15.75,1.92,23.63.66,7.7,1.14,15.87-1.05,23.38-1.07,3.67-3.07,7.12-6.43,9.11-.83.49-1.76.85-2.69,1.12-.91.27-1.81.35-2.74.5-.21.03-.43.05-.64.06,0,0-.36.04-.38.02-.03-.03-.02-.32-.03-.39-.04-.53-.08-1.05-.12-1.58-.07-.91-.13-1.81-.2-2.72-.05-.76-.11-1.52-.16-2.28.56.26,1.31-.12,1.81-.36.54-.25,1.04-.56,1.51-.93.96-.75,1.76-1.7,2.41-2.72,1.41-2.2,2.23-4.76,2.81-7.29,1.33-5.85,1.43-12.1.87-18.05-.29-3.05-.76-6.13-1.66-9.07-.4-1.3-.87-2.61-1.64-3.74-.33-.49-.83-.83-1.45-.71-.71.14-.95.71-1.16,1.33-1.01,2.96-1.09,6.14-.99,9.23.09,2.96.4,5.91.66,8.86.3,3.36.59,6.78.36,10.15-.19,2.85-.7,5.9-2.34,8.31-.42.61-.9,1.19-1.44,1.71-.55-9.28-.69-18.57-1.53-27.83-.83-9.19-2.01-18.37-2.01-27.61,0-.56,0-1.11.01-1.67,0-.27,0-.55.02-.82,0-.27-.06-.74.03-1,.08-.22-.11-.11.17-.2.09-.03.24-.03.34-.04.29-.04.58-.08.87-.14.55-.11,1.09-.24,1.62-.4,2.18-.65,4.24-1.74,6.05-3.11,3.5-2.66,5.97-6.29,7.34-10.46,2.7-8.21,1.46-17.09,1.63-25.56.02-1.23.05-2.46.02-3.69-.02-.89.15-2.19-.86-2.62-1.03-.43-1.58.49-1.95,1.28-.38.83-.73,1.67-1.06,2.51-1.53,3.96-2.54,8.1-3.32,12.26-.2,1.08-.39,2.16-.57,3.24-.35-2.09-.71-4.19-1.03-6.29-.49-3.22-.96-6.56-.8-9.83.04-.75.1-1.5.19-2.25.07-.6.11-1.19-.4-1.63-.51-.43-1.19-.35-1.71.03-.61.44-.58,1.15-.63,1.83-.13,1.6-.41,3.2-.59,4.8-.18,1.61-.34,3.21-.5,4.82-.37,3.68-.75,7.36-1.44,11-1.37-5.57-2.01-11.28-2.42-16.98-.05-.71-.1-1.42-.14-2.14-.04-.6,0-1.21-.46-1.66-.8-.78-2.02-.23-2.24.77-.63,2.95-1.09,5.92-1.4,8.93-.32,3.19-.49,6.4-.6,9.61-.93-5.65-1.54-11.35-2.32-17.03-.13-.97-.02-2.68-1.17-3.08-1.05-.36-2.07.73-2.61,1.5-1.41,2.03-1.6,4.75-1.7,7.14-.11,2.8.05,5.6.26,8.39-1.07-3.84-1.85-7.92-4.01-11.34-.42-.66-.98-1.72-1.81-1.91-1.12-.24-1.52.77-1.75,1.63-.52,1.94-.71,3.95-.75,5.95-.09,4.21.49,8.4,1.19,12.54.68,4.01,1.32,8.08,3.06,11.8,1.64,3.5,4.15,6.54,7.53,8.47.94.54,1.96.95,3,1.24.51.14,1.04.26,1.56.34.13.02.66,0,.75.09.1.1-.03.83-.03,1-.06,2.3-.04,4.61.04,6.91.26,7.48,1.13,14.91,1.83,22.35.85,8.93,1.02,17.88,1.56,26.83.07,1.13.14,2.26.22,3.4-.74-.15-1.71-.33-2.24-.87-.59-.62-1.17-1.25-1.69-1.93-1.02-1.34-1.8-2.81-2.39-4.39-1.24-3.35-1.56-6.96-1.62-10.51-.13-6.89.87-13.94-.69-20.73-.3-1.29-.8-3.33-2.44-3.41-1.74-.09-2.59,2.1-3.12,3.41-1.37,3.39-1.23,7.02-.78,10.59.43,3.35,1.05,6.69,1.67,10.01.62,3.32,1.38,6.65,2.58,9.81,1.15,3.03,2.74,6.11,5.26,8.23,1.28,1.08,2.79,1.89,4.43,2.26.2.05.41.09.61.12.13.02.56,0,.62.08.13.15.06.89.07,1.1.05.75.1,1.5.16,2.25.07.89.13,1.79.2,2.68-1.37-.13-2.83.06-4.19.17-1.59.13-3.17.29-4.77.3-3.01.02-6.09-.79-8.08-3.2-1.95-2.38-2.8-5.45-3.29-8.43-.52-3.12-.67-6.29-.98-9.44-.61-6.14-.67-12.26-.62-18.43.02-2.99-.09-5.99.22-8.97.33-3.21.75-6.41.86-9.64.1-2.89.12-6.2-1.32-8.81-1.27-2.31-4.83-4.19-7.37-2.88-2.55,1.31-2.89,4.92-2.99,7.44-.12,2.94.13,5.88.51,8.79.39,3.04.9,6.06,1.22,9.11.33,3.15.6,6.3.91,9.45.62,6.2,1.4,12.42,3,18.46,1.39,5.27,3.51,10.62,7.31,14.64,1.9,2.01,4.23,3.63,6.83,4.57,2.73.99,5.65,1.34,8.55,1.2,1.52-.08,3.04-.29,4.53-.59.07,2.52.42,5.06.65,7.56.23,2.51.46,5.01.7,7.51.43,4.55.87,9.09,1.3,13.64.22,2.4.44,4.79.63,7.19.05.63.1,1.27.15,1.9.04.51.15.96.61,1.26.8.53,1.89.02,2.01-.93.04-.35-.04-.74-.07-1.08-.06-.64-.12-1.28-.17-1.91-.13-1.41-.25-2.81-.38-4.22-.92-10.12-1.95-20.23-2.79-30.36-.02-.24-.04-.48-.06-.73-.01-.15-.14-.63-.04-.76.09-.12.55-.06.7-.08.35-.03.7-.07,1.05-.11,1.22-.16,2.45-.39,3.66-.65,2.25-.49,4.43-1.25,6.42-2.41,3.93-2.28,6.59-5.98,8.06-10.23,1.51-4.39,1.86-9.08,1.96-13.69.11-4.99-.02-9.99-.33-14.98-.08-1.22-.16-2.44-.26-3.66Z" fill="#282828"/><path d="M269.05,168.43c-.29-.6-1.55-.95-2.1-1.22-.7-.35-1.41-.71-2.11-1.07-1.36-.7-2.72-1.41-4.08-2.12-2.73-1.41-5.48-2.8-8.3-4.02-1.31-.57-2.68-1.17-4.13-1.17-1.42,0-2.67.72-3.71,1.64-2.23,1.97-4.08,4.38-5.99,6.65-.95,1.13-1.9,2.25-2.93,3.3-.74.76-2.33,1.76-2.03,3.02.12.51.54.94,1.07,1.03.7.11,1.41.08,2.1.24,1.23.29,2.41.74,3.57,1.23,2.37,1.02,4.64,2.27,7.11,3.03,1.22.38,2.51.65,3.79.66,1.39,0,2.76-.34,4.06-.84,3.01-1.18,5.61-3.16,8.26-4.96,1.34-.91,2.72-1.77,4.19-2.45.59-.27.98-.72,1.3-1.37.38-.76.03-1.38-.06-1.58ZM247.15,161.86c1.62-.95,3.77.05,5.3.73,1.8.8,4.38,2.05,6.14,2.94-4.4-.47-7.94-2.12-14.92-.76.85-.91,2.45-2.2,3.47-2.91ZM237.71,172.18c1.03-1.07,1.94-2.26,3.08-3.22,1.18-1,2.6-1.58,4.11-1.87-1.31,2.55-1.07,5.72.38,8.17-2.48-1.11-4.91-2.43-7.56-3.08ZM262.69,171.36c-1.85,1.22-3.63,2.56-5.56,3.67.61-1.06.99-2.24,1.06-3.47.07-1.17-.03-2.52-.62-3.56.75.08,1.51.16,2.26.28.73.12,5.22.84,5.93,1.2-1.06.57-2.08,1.22-3.08,1.88Z" fill="#282828"/></svg>