<?xml version="1.0" encoding="UTF-8"?><svg id="Layer_1" xmlns="http://www.w3.org/2000/svg" viewBox="0 0 207.21 203.87"><path d="M126.99,90.08c-.37-5.43-1.51-11.34-7.05-22.73-.38-.79-.75-1.54-1.1-2.27-2.52-5.22-4.35-8.99-6.5-11.42-2.3-2.59-4.97-3.7-8.94-3.7-.24,0-.49,0-.75.01-4.48.14-7.92,2.22-10.81,6.52-2.67,3.98-4.85,9.8-7.31,17.32-5.01,15.36-5.06,20.11-3.45,23.13,1.21,2.27,3.34,3.1,3.89,3.28.95.44,2.12.66,3.48.66,2.21,0,4.88-.6,7.72-1.73.65-.26,1.28-.49,1.91-.69-.02.09-.04.18-.06.26-.06.3-.12.57-.17.81-.3,1.45-.34,2.13.29,2.57.23.16.49.24.76.24h0c.43,0,.8-.19,1.13-.48.04.1.1.2.17.29.06.08.14.15.22.22,0,2.84-.05,6.74-.23,11.45-.29,7.53-1.19,10.81-2.81,16.76-.46,1.67-.97,3.57-1.54,5.82-1.65,6.48-1.29,11.68,1.02,14.65,1.49,1.91,3.68,2.88,6.53,2.88.79,0,1.63-.08,2.52-.23,2.32-.4,4.02-1.5,5.07-3.27,2.77-4.69.4-13.24-2.57-21.79-2.5-7.2-2.82-19.46-2.77-26.42.1-.06.18-.12.26-.19.22.17.5.27.84.27.09,0,.18,0,.27-.03.36-.07.66-.26.86-.54.13.04.26.06.41.06s.28-.02.42-.06c.32-.09.58-.31.73-.6.28-.54.16-1.19-.22-2.32-.12-.37-.27-.8-.45-1.29,0-.02-.01-.04-.02-.05,1.85.23,3.91.64,6.41,1.29,1.04.27,2.07.4,3.06.4h0c3.77,0,7.03-2.03,8.29-5.18.51-1.26.66-2.59.48-3.89ZM120.29,80.43c.77.52.92,1.43.59,2.2-.13.31-.34.6-.63.82,0,0-.01.01-.02.02-.35.27-.9.34-1.22.03-.12-.12-.21-.29-.27-.49-.09-.3-.11-.66-.08-1.03.1-1.08.69-2.16,1.62-1.54ZM84.77,90.77c.45-.7,1.2-1.28,1.99-1.46.05-.01.1-.02.15-.03.57-.09,1.03.05,1.37.33.17.14.32.32.43.52.43.77.44,1.88-.03,2.71-.66,1.15-2.23,1.69-3.38.94-.56-.37-.85-.83-.94-1.32-.1-.56.07-1.16.4-1.68ZM105.82,83.36c.01-.09.03-.18.05-.27.06-.26.15-.53.26-.8.54-1.25,1.69-2.43,3.11-2.09.72.17,1.12.77,1.31,1.47,0,.01,0,.03.01.04.07.3.11.62.11.94,0,.51-.07,1.02-.2,1.41-.55,1.67-2.9,2.82-4.2,1.19-.41-.52-.54-1.23-.45-1.89ZM114.34,76c.28.19.47.49.58.83.34,1.08-.18,2.57-1.45,2.27-.55-.13-.96-.64-1.11-1.18-.34-1.26.63-2.82,1.98-1.92ZM114.5,67.59c.22.72.2,1.51-.21,2.11-.73,1.06-2.19,1.15-3.27.61-3.47-1.74.14-6.5,2.68-4.05.36.34.64.82.8,1.33ZM106.19,55.57c.5-.59,1.59-.37,1.84.36.09.26.07.59-.12.97-.71,1.44-2.63-.26-1.72-1.33ZM107.36,61.2c3.48,2.42-4.5,5.73-3.8,1.12.28-1.83,2.53-2.01,3.8-1.12ZM100.77,76.14c-.68-2.25,2.17-2.97,3.32-1.21,1.43,2.19-2.67,3.35-3.32,1.21ZM96.29,84.18c.3-.82,1.03-1.12,1.66-.99.58.13.94.46,1.09.85.13.34.11.72-.05,1.06-.16.34-.47.64-.91.8-.53.19-1.01.15-1.36-.04-.31-.17-.51-.47-.55-.86-.03-.24,0-.51.12-.81ZM97.83,56.49c.2-1.4,2.3-1.73,3.1-.78.19.23.31.54.3.93-.04,1.98-3.7,1.92-3.4-.15ZM96.62,66.28c1.46.49,2.56,1.74,1.94,3.35-.83,2.13-3.78,3.43-5.7,1.93-1.53-1.2-1.54-2.62-.8-3.71.89-1.31,2.85-2.14,4.56-1.56ZM87.36,82.17c-.63-.52-.87-1.42-.71-2.23.19-.99.94-2.13,2.01-2.25.99-.11,1.68.39,2.03,1.1.45.92.33,2.19-.44,2.98-.73.75-2.02,1.11-2.89.39ZM95.81,98.22c-3.34,1.33-6.53,1.94-8.89,1.54-.02,0-1.17-.65-.96-1.56.33-1.4,1.71-1.53,5.28-1.77,2.01-.13,4.46-.29,7.39-.88,0,.05-.01.1-.02.15-.08.56-.18,1.1-.29,1.63-.82.25-1.65.54-2.51.88ZM107.47,128.95c3.73,10.73,6.8,22.31-1.74,23.76-9.46,1.61-11.46-6.17-8.94-16.08,2.56-10.07,4-12.96,4.38-22.78.18-4.61.23-8.43.23-11.24.3-.05.54-.19.73-.4.23.2.52.31.83.31.03,0,.06,0,.09,0,.43-.03.75-.22.98-.5.16.17.36.3.61.35-.05,7.03.28,19.27,2.83,26.58ZM108.42,100.77c-.9.26-1.38-2.04-1.74-1.86-.36.19,1.05,2.2.15,2.38-.79.15-.88-1.75-1.14-2.21-.04-.06-.08-.1-.12-.1-.37.02.24,2.15-.51,2.41-.17.06-.3-.03-.4-.2-.34-.58-.35-2.13-.61-2.11-.34.02-.25,2.39-1.06,2.44-.81.05-.25-2.83-.58-2.81-.3.02-.47,2.29-.99,2.81-.07.07-.15.11-.24.11-.71-.06.25-2.39-.15-2.36-.13,0-.35.28-.61.62-.53.7-1.23,1.71-1.7,1.39-.19-.14-.01-1,.25-2.21.07-.3.14-.62.21-.96.07-.35.15-.71.22-1.08.07-.39.14-.79.2-1.19.02-.17.05-.34.07-.51,2.02-.46,4.27-1.12,6.74-2.11.27,1.11.6,2.15.92,3.09.12.35.24.7.35,1.02.14.4.27.77.39,1.12.47,1.35.73,2.21.37,2.31ZM115.41,97.79c-2.54-.66-4.83-1.14-7.02-1.37-.37-1.07-.76-2.28-1.07-3.57,1.97-.83,4.08-1.87,6.33-3.17,1.8-1.04,3.63-1.57,5.43-1.57,3.7,0,6.13,2.26,6.16,2.28l.84.81c-.04,4.46-4.55,8.17-10.66,6.58Z" fill="#1c1b19"/><path d="M124.11,91.46c-1.86-.12-6.81-2.46-6.86-2.48-.14-.07-.31,0-.38.13-.07.14,0,.31.13.38.21.1,5.1,2.41,7.06,2.54,0,0,.01,0,.02,0,.15,0,.27-.11.28-.26.01-.16-.11-.29-.26-.3Z" fill="#1c1b19"/><path d="M121.08,95.27c-3.92-2.39-5.02-5.94-5.03-5.98-.04-.15-.2-.23-.35-.19-.15.04-.23.2-.19.35.05.15,1.16,3.79,5.28,6.3.05.03.1.04.15.04.1,0,.19-.05.24-.14.08-.13.04-.31-.09-.39Z" fill="#1c1b19"/><path d="M113.82,90.85c-.05-.15-.21-.23-.36-.18-.15.05-.23.21-.18.36.06.18,1.46,4.41,2.96,5.89.06.05.13.08.2.08s.15-.03.2-.08c.11-.11.11-.29,0-.4-1.4-1.38-2.81-5.62-2.82-5.66Z" fill="#1c1b19"/><path d="M111.41,92.53c-.02-.16-.16-.26-.32-.25-.15.02-.26.16-.25.32l.35,2.76c.02.14.14.25.28.25.01,0,.02,0,.04,0,.15-.02.26-.16.25-.32l-.35-2.76Z" fill="#1c1b19"/><path d="M106.76,147.76c-.06.15.02.31.16.37.03.01.07.02.1.02.11,0,.22-.07.26-.18.1-.26,2.44-6.46-1.4-15.75-.06-.14-.23-.21-.37-.15-.14.06-.21.22-.15.37,3.75,9.07,1.42,15.27,1.4,15.33Z" fill="#1c1b19"/><path d="M102.38,124.8c-.15-.06-.31.02-.36.16-1.91,5.06-2.49,9.49-2.63,12.32-.16,3.07.13,4.92.14,4.99.02.14.14.24.28.24.02,0,.03,0,.05,0,.15-.02.26-.17.23-.32-.01-.07-1.15-7.47,2.46-17.02.06-.15-.02-.31-.16-.36Z" fill="#1c1b19"/></svg>