<?xml version="1.0" encoding="UTF-8"?><svg id="Layer_1" xmlns="http://www.w3.org/2000/svg" viewBox="0 0 207.21 203.87"><path d="M125.73,64.48c-3.88,3.51-4.45,9.43-3.62,14.59.83,5.16,2.79,10.14,3.01,15.37,3.14-1.53,4.6-5.33,4.67-8.82.07-3.49-1.09-6.87-2.11-10.21-1.02-3.34-2.54-7.48-1.95-10.92Z"/><path d="M144.84,95.59c-.9,2.27-2.31,4.29-3.6,6.36-1.29,2.07-2.5,4.26-2.91,6.67-.41,2.41.11,5.09,1.86,6.79,3.02-2.34,4.97-4.89,5.88-8.6.92-3.71.35-7.73-1.24-11.21Z"/><path d="M109.11,18.58c.91,4.41-.72,8.88-1.84,13.24-1.12,4.36-1.59,9.42,1.18,12.96,3.4-3.51,5.45-8,5.6-12.88.16-4.88-1.78-9.6-4.94-13.32Z"/><path d="M81.36,53.4c-1.26,3.55-2.52,7.09-3.78,10.64-.88,2.49-1.78,5.03-1.9,7.67-.12,2.64.65,5.45,2.62,7.21,3.66-2.91,5.95-6.93,6.57-11.57s-.75-10.17-3.51-13.95Z"/><path d="M66.83,87.06c.74,2.46.27,5.13-.55,7.56-.82,2.44-1.97,4.76-2.64,7.24s-.8,5.24.37,7.52c3.57-2.32,6.02-5.98,6.59-10.2.57-4.22-.94-8.94-3.77-12.13Z"/><path d="M126.17,170.73c-.34.2-.7.4-1.06.59-4.74,1.92-9.51-4.56-10.65-8.17-1.03-3.25-1.12-7.98.76-13.33-1.8,1.06-3.71,1.79-5.62,1.7-1.92-.09-3.86-1.04-5.33-3.03-1.4-1.9-2.29-4.63-2.8-7.46-.51-2.83-.97-6.02-1.12-8.96-3.41,14.73-13.49,12.38-13.49,12.38,2.96,4.04,6.14,16.57.47,23.5-1.68,2.06-4.56,1.64-7.38-.04-3.11-2.09-6.03-4.64-8.66-7.73-19.24-22.59-6.44-48.79-6.02-45.85.67,4.69,5.36,24.6,13.89,19.91,8.53-4.68-1-16.73-2.34-27.11-1.34-10.37,6.53-16.07,5.69-14.06-4.15,9.95,1,27.78,7.86,24.43,6.86-3.35.17-21.59-2.17-29.96-2.34-8.37,5.69-15.56,7.03-29.12,1.34-13.56-2.68-20.42-1.51-21.09,1.17-.67,6.36,3.51,8.7,10.04,2.34,6.53-.17,18.91-3.18,27.11-3.01,8.2-5.19,25.94,6.19,24.6,11.38-1.34,4.69-20.42,2.18-31.29-2.51-10.88,5.35-16.9,4.69-14.73-.67,2.18-2.18,14.89,3.01,22.26,5.19,7.36,5.52,15.9,3.01,21.92-2.51,6.02-17.07,25.6-2.34,27.44,14.73,1.84,7.87-23.6,9.37-23.76,1.51-.17,3.01,4.52,4.52,11.55,1.51,7.03-7.2,15.4.84,20.92,8.03,5.52,12.38-8.03,13.22-5.52.84,2.51-4.85,35.31-17.74,42.84Z"/><path d="M80.46,22.82s-.09.03-.12.06c-.03.04-.11.36-.18.71-.23,1.25-.67,2.34-1.32,3.34-.19.29-.55.7-1.01,1.15-.52.51-.71.74-.71.83,0,.07.1.27.21.45.47.7.9,1.57,1.72,3.52.23.56.52,1.29.63,1.63.25.7.33.85.48.85.13,0,.16-.07.38-.82.21-.74.44-1.33,1.06-2.68.54-1.17,1.04-2.15,1.31-2.55.1-.15.18-.32.18-.38,0-.06-.12-.26-.27-.44-.72-.89-1.23-2.09-1.91-4.48-.29-1.05-.35-1.18-.47-1.18Z"/></svg>