<?xml version="1.0" encoding="UTF-8"?><svg id="Layer_1" xmlns="http://www.w3.org/2000/svg" viewBox="0 0 207.21 203.87"><path d="M136.86,82.49c-.25-.02-.5.02-.73.09-.36-.46-.76-.89-1.18-1.29-2.34-1.9-7.58-2.24-8.33-2.18-3.61-2.84-7.33-5.49-11.3-7.81-1.67-.99-9.15-4.07-11.3-4.65-3.56-.96-7.32-.69-10.9-1.6-3.12-.77-6.29-1.14-9.5-1.26-7.2-.78-9.02-.93-4.43,6.14,1.82,2.52.19,1.79,6.27,11.18,1.7,4.04,2.8,4.71,5.23,8.51-2.77,1.53-5.44,3.22-8.38,4.42-1.23.57-2.39,1.26-3.47,2.08-2.6,1.7-3.23,1.64-7.28,5.16-.55.21-3.23,2.15-5.13,3.82-.53.63.02,2.18.87,2.25.41.03.23-.01,3.31-2.01.12.33.26.65.41.97-1.2.55-1.73.67-2.76,1.41-.35.24-.81.27-1.12.54-.57.55-.07,1.63.68,1.68,0,0-.05-.01-.05-.01.85.11,1.59-.62,2.39-.86.29-.15,1.05-.42,1.85-.76.13.28.09.21.3.71-1.99.66-3.84.73-4.05,1.66-.07.81.81,1.56,1.56,1.68,1.68-.4,3.4-.81,5.07-1.34,1.85-.06,3.53-1.13,5.4-1.21,2.43-.11,4.75-.87,7.14-1.26,2.73-.5,5.51-.66,8.24-1.11.46,2.11.7,4.25.83,6.4.36,3.55,1.32,7.03,1.39,10.61.04,2.68-.4,5.36-.05,8.04.39,5.14-.65,6.33-.38,7.4.8,2.06,4.73-1.94,5.8-2.66,9.03-6.7,11.13-9.98,15.93-14.84,2.3-2.3,3.6-5.32,5.26-8.07,4.24-7.64,5.58-8.03,7.78-19.3,1.75-1.25,3.51-2.53,4.56-4.44.7-1.58,1.1-3.47.79-5.21.53-.14,1.27-.52,2.4-1.24.36-.22.83-.38.98-.81.33-1.32-1.59-.89-4.09-.82Z"/></svg>