<?xml version="1.0" encoding="UTF-8"?><svg id="Layer_1" xmlns="http://www.w3.org/2000/svg" viewBox="0 0 207.21 203.87"><path d="M111.71,91.96c0-.59.1-5.78-.22-6.18,1.7-1.31,2.15-4.01-.02-5.08,3.48-4.59.93-11.68-4.16-13.86-8.46-3.44-16.78,7.04-10.68,14.22-2.3.88-1.71,3.5-.16,4.83-.51.89-.26,5.39-.31,6.42-5.6-3.65-14.64-4.48-18.2,2.35-7.14,18.15,14.59,31.93,25.68,42.88,1.99,1.23,7.69-6.05,9.37-7.48,8.2-9.08,21.2-21.19,16.74-34.66-3.06-7.17-12.6-9.2-18.04-3.45ZM96.46,78.18c-2.05-4.84,1.97-10.41,6.98-10.8,5.49-.43,9.7,5.51,7.92,10.63-2.33,6.7-12.19,6.59-14.9.17ZM96.69,82.65c.9-1.13,2.12.4,3.05.85,3.37,1.69,7.7.91,10.53-1.41,1.26-.31,1.29,1.25.67,2.09-1.7,2.29-8.41,2.88-10.95,2.02-1.03-.35-4.44-2.12-3.3-3.55ZM104.35,136.37c-10.1-10.71-29.4-22.15-25.34-39.37,2.76-8.4,11.74-5.73,17.55-2.48.37-.04,1.05-.96,1.13-1.33.33-2,.23-4.37.24-6.41,3.76,2.08,8.14,1.58,12.01.12l.24,5.48c.19.63,0,2.28.99,2.18,6.46-7.03,17.19-4.99,18.09,5.24-.88,15.28-15.29,26.1-24.91,36.57Z"/><path d="M119.63,110.14c-5.87-1.08-10.88,4.14-16.52,3.1-4.9-.91-8.39-4.78-13.91-4.63-11.4,1.21.29,11.52,4.03,15.11,3.14,2.92,7.39,7.29,11.15,9.22,6.14-4.21,11.55-11.37,16.17-17.23.46-.61,2.06-2.69,2.12-3.3.12-1.18-2.09-2.08-3.03-2.25ZM88.43,115.19c-1.72-.98-4.2-3.42-1.3-4.75,4.45-2.04,10.24,2.73,14.42,3.88,1.75.48,3.41.48,5.21.27-4.98,3.15-13.15,3.42-18.33.61Z"/><path d="M122.43,92.49c-.42-.11-1.54-.16-1.16.51,4.86,3.55,5.1,8.26,2.62,13.45-.24.55-1.72,2.63-.12,2.36,1-.17,2.23-3.15,2.54-4.06,1.97-4.56.69-9.95-3.89-12.26Z"/><path d="M81.06,99.64c-1.56,1.21.9,8.42,2.09,9.53,1.69.55.05-2.12-.08-2.86-.61-1.16-.7-7.27-2.01-6.67Z"/><path d="M106.59,80.78c2.69-.88,4.5-4.09,3.91-6.86-.3-1.4-2.31-4.64-4.01-4.08-.71.23.8,1.55,1.03,1.88,2.39,3.16,1.07,7.08-2.47,8.47-.47.93,1.03.76,1.54.6Z"/><path d="M103.39,81.46c.7-.36.48-.95-.16-1.22-.64-.14-2.3-.79-2.92-.38-1.02,1.02,2.06,2.13,3.08,1.61Z"/></svg>