<?xml version="1.0" encoding="UTF-8"?><svg id="Layer_1" xmlns="http://www.w3.org/2000/svg" viewBox="0 0 207.21 203.87"><path d="M117.88,135.15c-.73.52-1.48,1.05-2.28,1.44,0-.08-.01-.16-.01-.23.03-.88.03-1.77.08-2.65.29-2.46.14-4.94.14-7.42.03-1.36-.1-2.71-.2-4.06-.08-1.24-.03-2.48-.17-3.71-.39-1.79-.21-3.61-.18-5.42-.07-1.33-.43-2.62-.53-3.94-.18-1.34-.03-2.68-.04-4.02-.02-2.2.11-4.39-.12-6.58-.06-1.04,0-2.1-.06-3.14.34-.06.68-.14,1.01-.23.21-.08.53.02.67-.17.15-.42.18-.88.23-1.32.07-.21-.01-.5-.24-.56-.69-.06-1.38-.11-2.07-.14-.07-.37-.13-.75-.17-1.12-.27-3.15.23-6.37-.53-9.47-.02-.03-.04-.06-.06-.09.45-.03.9-.04,1.34.03,1.12.06,1.02-.22,1.18-1.18.2-1.21.37-2.42.54-3.62.07-.62.58-2.02-.57-1.7-.75.02-1.5.08-2.25.02,0-.04,0-.08,0-.11.04-.29.12-.57.13-.87.08-1.24.28-2.47.38-3.7.1-.92.17-1.86.19-2.79,0-.07-.02-.13-.05-.19,0-.19-.06-.4-.17-.53-.6-.87-1.24-1.71-1.95-2.49-.39-.59-.87-1.13-1.44-1.57-.05-.04-.09-.06-.13-.08.09-.68.07-1.4-.12-2.06-.14-.34-.32-.54-.52-.64.02-.24.01-.48.04-.72.07-.21.09-.48-.08-.65-.45-.38-.61.34-.59.68,0,.23-.03.46-.04.69-.28.11-.57.33-.81.61-.23.28-.45.58-.59.92-.1.32-.36.91-.34,1.35-.31.33-.62.9-.83,1.11-.54.71-1.09,1.4-1.68,2.07-.32.28-.64.57-.84.95-.06.1-.14.21-.2.32-.1.08-.18.18-.22.33,0,.08,0,.16.02.23-.17,1.75-.38,3.57-.43,5.34-.04.47-.05.94-.08,1.41.01.18-.04.45,0,.66-.71.08-1.42.19-2.12.31-.84-.78-.65,1.86-.77,2.27-.06.7-.16,1.44-.21,2.14.1.56-.39,1.61.42,1.78.81.06,1.63.02,2.44.04-.27.3-.32.72-.48,1.08-.33,1.01-.62,2.05-.67,3.12,0,.97-.2,1.92-.46,2.85-.22.9-.46,1.81-.55,2.73-.01.1-.02.2-.03.3-.79-.02-1.59-.03-2.38.04-.55-.08-.41.81-.52,1.15-.28.66.16,1.13.83,1.11.59.03,1.18.07,1.78.1-.02.07-.05.14-.07.21-.89,2.12-1.26,4.39-1.81,6.61-.22.9-.23,1.83-.29,2.76-.21,1.92-.42,3.85-.81,5.75-.49,1.9-.72,3.85-1.03,5.78-.23,1.4-.68,2.75-.93,4.15-.2.96-.24,1.94-.39,2.91-.21,1.13-.49,2.25-.61,3.4-.1,1.46-.3,2.9-.68,4.31-.24,1.29-.64,2.57-.83,3.86,0,.06.02.12.04.17-.38.09-.76.22-1.11.36-1.17.52-2.14,1.4-3.14,2.18-.08,0-.14.05-.18.11-.21.12-.15.53.07.61,0,0,0,0,0,0,.05.04.11.07.18.07.01,0,.03,0,.04,0,.54.15,1.1.16,1.65,0,1.16-.44,2.3-.62,3.53-.31.54.25,1.1.43,1.6.75.37.19.8.15,1.19.26,1.08.42,2.22.4,3.35.2,1.31-.08,2.43-.82,3.69-1.1.63-.2,1.22,0,1.78.29.48.16.98.27,1.43.5.5.2,1.02.32,1.52.52.68.14,1.37.22,2.04.43,1.84.04,3.74-.3,5.23-1.44.95-.86,1.89-1.77,2.65-2.8.22-.5-.38-1.11-.75-.55ZM115.67,93.93c.07,0,.14,0,.21,0,0,.19,0,.38-.02.58,0,.05,0,.09-.01.14-.04,0-.08,0-.12.01,0-.02.01-.04.02-.06.04-.13.03-.28,0-.41-.03-.09-.07-.18-.14-.25.02,0,.05,0,.07,0ZM98.73,93.83s-.09.06-.14.1c0-.05,0-.09.01-.14.02,0,.05,0,.07.01.03,0,.06,0,.09.01-.01,0-.02.01-.03.02ZM114.67,94.74s.01.03.02.04c-.09,0-.17.01-.26.01,0-.02,0-.04,0-.06.08,0,.17,0,.25,0ZM113.5,93.98c-.27.04-.54.07-.81.1-.06.01-.12.05-.15.09,0,0,0,0,0,0,0-.01.01-.02.02-.03.04-.07.06-.16.05-.24.3.02.6.04.9.05,0,0,0,.02,0,.03ZM114.23,81.11c.1-1.16.35-2.3.38-3.46-.04-.35.13-.93-.08-1.25.47-.04.94-.05,1.42.03-.47,1.72-.73,3.48-.78,5.26-.32.05-.64.08-.96.09.02-.23-.02-.51.03-.68ZM114.01,76.46c-.11.3-.02.82-.07,1.06.1.64-.47,3.28-.31,4.28-.49,0-.97-.02-1.46-.06,0,0,0,0,0,0,.05-.4.11-.79.14-1.19.09-1.19.24-2.36.32-3.55.01-.13.05-.25.04-.38,0,0,0,0,0,0,.13,0,.25-.02.38-.03.32-.03.63-.08.95-.12ZM112.57,66.8s-.03,0-.04,0c0-.03,0-.05-.02-.08.02.03.04.05.06.08ZM112.23,66.35s.05.06.07.09c-.02-.01-.05-.02-.08-.03,0-.02,0-.04,0-.06ZM111.16,65.74s.04,0,.06,0c-.02.01-.03.02-.04.03-.02.02-.04.04-.06.07.01-.04.03-.07.04-.11ZM110.16,64.39s.04.05.07.07c0,0,.01.01.02.02-.03,0-.06,0-.09-.01-.01,0-.03,0-.04,0,.02-.02.03-.05.05-.07ZM110.06,62.93c0,.09,0,.17,0,.26-.03-.02-.07-.03-.11-.04.03-.07.07-.14.11-.22ZM109.68,61.55s.05.04.07.06c-.03.02-.06.05-.08.1-.04-.06-.08-.1-.12-.12.04-.01.09-.03.14-.04ZM109.18,61.78c-.03.06-.06.11-.09.17,0-.03-.01-.06-.02-.08.03-.03.07-.06.11-.09ZM107.92,64.4c.06.05.14.08.25.1-.03.03-.05.07-.08.1-.01.02-.02.03-.04.05-.07-.1-.13-.15-.2-.17.02-.03.05-.06.07-.08ZM107.45,66.27s0-.06,0-.09c.01-.02.03-.04.04-.06.07-.1.13-.2.2-.31.03,0,.06,0,.09-.02-.12.27-.27.53-.42.78.03-.1.07-.2.08-.3ZM107.4,68.6c.11-.08.16-.17.18-.27.05,0,.1-.02.15-.03.85.08,1.71-.08,2.55-.09,0,0,0,0,0,0,.07.18.11.38.11.58-.07.66.04,1.34-.16,1.98-.44.95-1.82,1.1-2.63.55-.56-.35-.39-2.16-.2-2.72ZM104.97,67.87s0,.05,0,.08c-.03,0-.06,0-.1,0,.03-.03.07-.06.1-.09ZM103.67,75.72c0-.17.02-.34.03-.51.12-1.15.31-2.29.35-3.45.08-.94.35-1.91.3-2.85.12-.03.24-.05.37-.07.67.02,1.32-.14,1.97-.3-.18.69-.13,1.45-.05,2.15.07.72.51,1.36,1.21,1.59,1.17.37,2.62-.35,2.95-1.56.15-.8.45-1.64.29-2.45.07.01.14.03.21.04.44.15.9.14,1.36.13.26.05.52.07.79.08.06,0,.11.02.17.04,0,.04,0,.08-.01.12-.09,1.33-.11,2.66-.31,3.98-.06.76,0,1.53-.06,2.3,0,.21-.15.58-.16.87-.84-.09-1.69-.24-2.53-.12-.97.1-1.93.17-2.91.12-.56.03-1.11.09-1.67.05-.77-.05-1.51.11-2.26.22,0-.13-.03-.27-.03-.37ZM111.6,81.67c-.41-.07-.81-.18-1.22-.13-.32.03-.63.04-.95.06.11-.63.11-1.53.16-1.76.07-1.05.18-2.1.25-3.14.73,0,1.46-.01,2.18-.05-.09.36-.06.76-.11,1.12-.07.97-.14,1.94-.23,2.91.02.21-.07.63-.08,1ZM109.22,76.68c-.22.64-.13,1.48-.2,2.14-.04.82-.1,1.63-.18,2.45,0,.1-.02.22-.04.34-.76.02-1.53.02-2.29.05.04-.25.09-.5.12-.76.1-1.26.03-2.54.17-3.8.02-.11.04-.22.04-.33.47-.06.93-.17,1.4-.15.32.02.65.04.97.05ZM103.56,81.32c.13-1.25.25-2.51.37-3.76,0-.22.08-.48.09-.71.72-.03,1.44-.05,2.17-.04-.14.52-.07,1.11-.12,1.64-.02.68.04,1.36-.01,2.04,0,.24-.12.78-.14,1.23-.78.07-1.56.08-2.35.1,0-.17-.02-.35,0-.48ZM101.39,82.07c-.25,0-.5,0-.75-.05.17-1.68.37-3.36.52-5.05.72-.2,1.45-.21,2.18-.16-.03.2-.04.41-.07.54-.09.84-.12,1.69-.19,2.54-.01.32-.23,1.42-.09,1.98-.53.09-1.06.24-1.6.2ZM101.7,91.65c.76-2.77.76-5.69,1.66-8.42.23-.27.53-.4.86-.46.31.04.63.02.94-.01.4.03.8.08,1.15.07,1.01-.03,2-.31,3.02-.14.63.02,1.26.07,1.89.1.59.04,1.2-.13,1.77.01.18.96-.05,1.95-.04,2.92,0,1.39.33,2.76.42,4.15.08,1.04.08,2.07.1,3.11-.37,0-.74,0-1.11,0-1.44.08-2.88.28-4.31.02-.14-.19-.4-.21-.6-.1-1.28-.24-2.58-.16-3.87-.12-.71.03-1.42,0-2.12-.01.08-.38.17-.75.25-1.13ZM111.28,93.82c-.12.04-.24.07-.36.11,0-.01,0-.02,0-.03-.01-.04-.03-.07-.05-.11.14.01.28.02.42.03ZM109.6,93.64c.21.01.41.04.62.07-.08.02-.16.04-.24.06-.12.04-.24.07-.36.11,0,0,0,0,0-.01,0,0,0,0,0,0,0-.07,0-.15-.01-.23ZM108.21,93.62s-.04.02-.06.04c0-.01,0-.02.01-.04.01,0,.02,0,.03,0,0,0,.01,0,.01,0ZM104.29,93.74s-.07.01-.1.02c-.04,0-.09.02-.13.02,0-.02-.01-.04-.02-.06.08,0,.17.01.25.02ZM102.89,93.61c-.08,0-.16,0-.24,0,0,0,0,0,0,0,.04,0,.08,0,.12,0,.04,0,.08,0,.12,0ZM94.86,128.67c.28-1.2.6-2.4.76-3.63.09-1.37.4-2.7.7-4.04.22-1.18.19-2.4.37-3.58.4-2.02,1.08-3.99,1.39-6.04.25-1.24.1-2.52.32-3.76.21-1.02.59-2,.72-3.04.11-.9.03-1.81.2-2.7.28-1.3.78-2.53.96-3.85.19-.95.4-1.9.61-2.85.45.01.9.02,1.35,0,1.1-.09,2.19-.01,3.25.27,1.09.26,2.2.09,3.31.03.97-.03,1.94.1,2.91.11.64.03,1.27.02,1.9-.04.12.95.36,1.88.41,2.83.12,2.62.03,5.23.02,7.85.22,1.84.25,3.64.19,5.49.1,2,.49,3.97.57,5.98.03,1.73.23,3.45.28,5.18-.03,1.39.1,2.77.15,4.15,0,.76-.16,1.52-.14,2.28.08,1.51.02,3.02,0,4.52.03.61.06,1.21.03,1.82.03.27-.11.82-.02,1.16-.17.07-.35.13-.53.18-2.8.63-5.27.44-7.78-1.04-1.9-1.02-3.35-.9-4.96-.22,0,0,0-.02,0-.03.21-.82.21-1.66.22-2.5.02-1.25.28-2.49.13-3.74.02-.72-.53-1.71-1.35-1.27-.55.29-.85.89-1.1,1.43-.15.39-.32.77-.49,1.16-.35.37-.72.83-.5,1.22-.15.4-.27.81-.36,1.23-.14.49-.65,2.16-.62,3.11-.09-.04-.17-.09-.25-.14-.74-.29-1.36-.81-2.07-1.14-.56-.18-1.16-.2-1.74-.12.52-2.07.81-4.19,1.17-6.29ZM101.55,131.11s-.05-.04-.07-.05c.02-.04.05-.07.07-.11,0,.05,0,.11,0,.16ZM101.39,129.85s.03-.09.05-.14c0,.05.01.1.02.16-.02,0-.04-.01-.07-.02ZM101.44,132.26s-.02.08-.03.13c0,.01,0,.02,0,.04-.05,0-.1.03-.16.07.06-.07.13-.15.19-.24ZM100.9,129.55c-.14-.13-.38.01-.62.22.11-.17.23-.33.38-.48.16-.11.37-.27.53-.28-.14.1-.22.41-.29.55ZM101.09,132.69s-.03.04-.05.07c-.05.08-.11.16-.16.25,0-.01,0-.03,0-.04.05-.07.1-.14.15-.21.02-.02.03-.04.05-.06ZM100.62,136.33c-.06.03-.13.07-.19.1.04-.06.08-.12.12-.18.02.03.05.06.07.08ZM99.77,136.69c-.14.03-.28.05-.42.05.08-.12.15-.24.22-.33.06.14.12.23.2.28ZM99.13,133.58c-.04.25-.21.59-.4.95.08-.34.16-.69.26-1.03.04.03.09.06.14.08ZM98.51,136.49s-.02.09-.03.14c-.01,0-.03,0-.04-.01,0-.06-.01-.12-.03-.18,0-.04.01-.09.02-.13.01.01.03.02.05.03,0,.05.02.1.04.15ZM114.42,138.33c-1.11.56-2.27.98-3.51,1.12-1.78-.26-3.26-1.53-5.05-1.82-1.7-.79-3.46.15-5.07.72-1.16.29-2.38.97-3.54.3-.36-.21-.76-.32-1.14-.46-.57-.42-1.21-.74-1.89-.96-.84-.13-1.71-.07-2.56,0-.6.12-1.13.46-1.73.57,1.1-1.01,2.38-1.8,3.83-2.18.89-.3,1.78-.03,2.34.71.71.6,1.56,1.14,2.5,1.28.77.09,1.51-.2,2.23-.42,1.38-.39,2.69-1.15,4.14-1.24,1.08-.04,1.92.65,2.76,1.23,1.15.64,2.43,1.22,3.77,1.09,1.75-.23,3.41-.89,5.09-1.41-.6.66-1.34,1.14-2.17,1.46Z"/><path d="M117.64,134.59c-.74.52-1.48,1.03-2.28,1.44l.48,1.12c-.14-2.27.25-4.56.24-6.83,0-2.37-.04-4.72-.2-7.08-.08-1.08-.07-2.16-.13-3.24-.07-1.22-.32-2.4-.32-3.63,0-1.05.11-2.11.03-3.16s-.35-2.18-.48-3.28c-.24-2.17-.06-4.41-.04-6.59.01-1.26,0-2.51-.09-3.76-.06-.94-.32-2.25-.08-3.16-.17-.39-.06-.56.32-.51.23-.05.45-.1.67-.16.23-.06.49,0,.67-.17.4-.38.25-1.44.1-1.92-.08-.24-.21-.7-.38-.88-.42-.46-1.68-.31-2.29-.34l.48,1.12c-.48-2.73-.11-5.5-.34-8.25-.1-1.15-.22-2.56-.91-3.56l.48,1.12c.48-.02,1.68.25,2.11-.04.36-.24.35-.71.41-1.11.23-1.48.59-3,.69-4.49.04-.55-.14-1.1-.43-1.58-.48-.81-2.16-.31-3.02-.36l.48,1.12c.08-1.55.37-3.12.52-4.68.11-1.13.38-2.4,0-3.49-.21-.62-.53-1.17-.91-1.69-.49-.68-1.04-1.29-1.56-1.94-.47-.59-.9-1.26-1.57-1.65l.48,1.12c.11-1.1-.05-3.08-1.12-3.82l.48,1.12c.03-.59.09-.94-.08-1.47-.06-.2-.27-.89-.43-1-.68-.45-.53.66-.62,1-.15.63-1.1,1.14-1.43,1.87-.19.42-.17.95-.34,1.35-.16.38-.58.78-.83,1.11-.62.83-1.31,1.58-1.99,2.36s-.89,1.2-.99,2.2c-.11,1.11-.23,2.23-.3,3.35-.04.6-.06,1.2-.09,1.8-.02.35.07.93-.06,1.26.13.36,0,.49-.41.39-.28.04-.57.08-.85.12-.28.04-.57.09-.85.14-.07-.08-.16-.12-.26-.14-.65.32-.46,1.78-.52,2.41-.11,1.23-.53,2.76-.07,3.93.1.25.19.62.36.82.52.63,2.09.31,2.84.32l-.48-1.12c-1.18,1.89-.93,4.17-1.41,6.25-.23,1.03-.55,2.03-.7,3.08-.04.25-.07.51-.08.76h-.48c-.57.14-1.35-.21-1.9.04-.68.31-.65,1.47-.4,2.15.08.23.18.5.31.71.5.81,1.81.58,2.67.62l-.48-1.12c-1.05,3.03-1.92,6.13-2.16,9.34-.26,3.38-1.08,6.64-1.59,9.98-.23,1.54-.54,3.04-.9,4.55-.37,1.56-.48,3.14-.77,4.72-.56,3.01-.89,6.02-1.59,9-.14.58-.15,1.63-.45,2.15l.04.17c-.25.06-.5.14-.75.23-.26.09-.5.2-.74.32-.69.35-3.07,1.7-3.03,2.54.1,1.93,2.16,1.39,3.39,1.09.71-.18,1.48-.26,2.2-.13s1.35.58,2.06.84c1.46.54,3.01.68,4.54.47,1.3-.18,2.42-.86,3.69-1.1,1.32-.25,2.74.63,3.97,1.05,3.23,1.11,6.46.82,8.97-1.64.74-.73,2-1.59,1.58-2.69-.18-.48-.48-1.5-1.11-.9-.11.1.58,1.03.48,1.12.3-.29.49-.28.74.05l-.48-1.12c.25.97-1.8,2.57-2.48,3.15-1.07.91-2.43,1.36-3.81,1.52s-2.84-.11-4.19-.56c-1.14-.38-2.58-1.25-3.79-1.19s-2.43.92-3.67,1.13c-1.55.27-2.84.07-4.34-.27-.78-.17-1.43-.67-2.19-.91-.7-.21-1.51-.19-2.22-.06-.96.17-2.5.99-3.35.13l.48,1.12c-.08-.6,1.16-1.27,1.61-1.61.73-.55,1.48-1.03,2.35-1.32.61-.2.52-.12.59-.77.05-.43.18-.87.27-1.29.23-1,.47-1.99.69-3,.41-1.85.46-3.74.83-5.59.37-1.85.5-3.73.94-5.56.47-1.96.78-3.91,1.12-5.89s.83-3.98,1.08-6c.26-2.03.32-4.06.78-6.05.47-2.03.99-3.96,1.67-5.93.03-.08-.44-1.12-.48-1.12-.8-.04-2.23.21-2.67-.62l.48,1.12c-.07-.74.02-1.65.81-1.75.43-.05,1.84.23,2.14-.02.19-.16.28-1.81.36-2.13.3-1.27.59-2.45.69-3.76.1-1.37.41-3.02,1.15-4.2.04-.06-.45-1.12-.48-1.12-.7,0-2.33.28-2.83-.3l.48,1.12c-.33-1.06.08-2.58.18-3.65.06-.61,0-1.3.16-1.89.1-.34.12-.4.41-.51.02,0,.52.05.62.05.31-.02.98-.08,1.27-.19.45-.17.41.03.41-.55,0-.37.03-.73.05-1.1.04-.83.08-1.65.14-2.47.09-1.22.02-2.83.51-3.9.3-.64.87-1.09,1.33-1.61.52-.59,1-1.22,1.47-1.84s.68-1.01.87-1.72c.16-.57.41-1.11.81-1.55.19-.21.5-.34.67-.54.2-.24.14-.44.18-.76.03-.23.3-1.35.66-.53l-.4-.96c-.09.61-.12,1,.11,1.55.22.52.53.75.78,1.25l-.47-1.1c.16.7.19,1.35.12,2.06-.01.15.36,1.05.48,1.12.73.41,1.21,1.18,1.72,1.82.66.81,1.43,1.61,1.91,2.55l-.47-1.1c.4,2.59-.47,5.35-.61,7.94,0,.11.42,1.12.48,1.12.67.03,1.35.04,2.02,0,.36-.03.71-.16.92.2l-.48-1.12c.11.5-.05,1-.13,1.49-.16.98-.27,1.97-.43,2.95-.07.42-.03,1.37-.39,1.71-.46.43-1.7.1-2.24.13.08,0,.4,1.01.48,1.12l.06.09-.48-1.12c.78,3.5.09,7.08.7,10.59.02.13.4,1.12.48,1.12.63.03,1.74-.09,2.26.27l-.47-1.1c.13.34.06.95-.06,1.3-.21.59-.14.45-.67.59-.26.07-.75.06-.96.21-.29.21-.14.94-.14,1.38.01,1.85.18,3.7.17,5.55s-.12,3.82-.06,5.73c.05,1.85.62,3.66.6,5.51-.03,3.81.4,7.57.55,11.39.08,1.93.08,3.88.05,5.81-.03,1.94-.36,3.9-.24,5.84,0,.12.5,1.11.48,1.12.81-.42,1.55-.92,2.28-1.44.08-.05-.54-1.08-.48-1.12Z"/><path d="M115.91,94.49c.07,0,.14,0,.21,0l-.48-1.12c0,.14,0,.28-.01.43,0,.07,0,.14-.02.21,0,.02,0,.04,0,.06h0s0,.03-.01.03c-.01,0-.04,0-.05,0-.02,0-.04,0-.05,0l.48,1.12c.06-.15.06-.31.01-.46-.02-.05-.04-.1-.06-.16-.13-.33-.27-.66-.42-.98-.04-.09-.08-.17-.14-.25l.48,1.12s.05,0,.07,0c0,0-.08-.19-.07-.17-.06-.13-.11-.26-.17-.4s-.11-.26-.17-.4l-.04-.09s-.02-.05-.04-.08c-.02,0-.05,0-.07,0,0,0,.08.19.07.17.06.13.11.26.17.4s.11.26.17.4l.04.09s.02.05.04.08c.03.04.06.08.09.13v-.02s0,.01,0,.02c.06.12,0,0-.15-.35l-.27-.63c-.03-.07-.01-.02,0,0v-.02c.05.16.05.33-.01.49,0,.02.01.03.02.05.02.04.03.08.05.12.06.13.11.26.17.4s.11.26.17.4c0,.02.06.16.07.16.03,0,.08,0,.11-.01.01,0,.02,0,.01,0,0,0,0-.01,0-.02,0-.02,0-.04,0-.06,0-.07.01-.14.02-.21,0-.14,0-.28.01-.43,0-.02-.01-.03-.02-.05-.02-.04-.03-.08-.05-.12-.06-.13-.11-.26-.17-.4s-.11-.26-.17-.4l-.04-.09s-.02-.05-.04-.08c-.07,0-.14,0-.21,0,0,0,.08.19.07.17.06.13.11.26.17.4s.11.26.17.4l.04.09s.02.05.04.08Z"/><path d="M98.49,93.27s-.09.06-.14.1l.48,1.12s0-.05,0-.07c0-.01,0-.03,0-.04,0,0,0-.01,0-.02,0,0,0,0,0,0s0,0,0,0c.05,0,.1.02.15.02l-.48-1.12s-.02.01-.03.02c0,.02.01.03.02.05.02.04.03.08.05.12.06.13.11.26.17.4s.11.26.17.4l.04.09s.02.05.04.08c.01,0,.02-.01.03-.02,0-.02-.01-.03-.02-.05-.02-.04-.03-.08-.05-.12-.06-.13-.11-.26-.17-.4s-.11-.26-.17-.4l-.04-.09s-.02-.05-.04-.08c-.05,0-.1-.01-.15-.02,0,0,0,0,0,0,0,0,0,0,0,0h0s0,.02,0,.02c0,.01,0,.02,0,.04,0,.03,0,.05,0,.08,0,.02.01.03.02.05.02.04.03.08.05.12.06.13.11.26.17.4s.11.26.17.4l.04.09s.02.05.04.08c.04-.04.09-.07.14-.1,0-.02-.01-.03-.02-.05-.02-.04-.03-.08-.05-.12-.06-.13-.11-.26-.17-.4s-.11-.26-.17-.4l-.04-.09s-.02-.05-.04-.08Z"/><path d="M114.9,95.28s.02.04.03.06l-.48-1.12c-.09,0-.17.01-.26.01l.48,1.12s0-.03,0-.04c0,0,0-.01,0-.01,0,0,0,0,0,0,0,0,0,0,.01,0,.03,0,.05,0,.08,0,.05,0,.1,0,.16,0,0-.02-.01-.03-.02-.05-.02-.04-.03-.08-.05-.12-.06-.13-.11-.26-.17-.4s-.11-.26-.17-.4l-.04-.09s-.02-.05-.04-.08c-.05,0-.1,0-.16,0-.03,0-.05,0-.08,0,0,0,0,0-.01,0,0,0,0,0,0,0,0,0,0,.01,0,.01,0,.01,0,.03,0,.04,0,.02.01.03.02.05.02.04.03.08.05.12.06.13.11.26.17.4s.11.26.17.4l.04.09s.02.05.04.08c.09,0,.17,0,.26-.01,0-.02-.01-.03-.02-.05-.02-.04-.03-.08-.05-.12-.06-.13-.11-.26-.17-.4s-.11-.26-.17-.4c-.02-.05-.05-.11-.07-.16,0,0,0,0,0,0v.02s0-.02,0-.03c-.01-.02-.01-.03,0,0,0,.02.02.05.03.07.05.11.09.22.14.34.06.14.12.29.19.43.04.09.07.17.11.26Z"/><path d="M113.26,93.42c-.18.02-.36.05-.54.07-.09.01-.18.02-.26.03-.03,0-.07.02-.1.03-.02.01-.05.06-.07.06l.48,1.12c.05-.07.07-.16.07-.24,0,0,0-.03,0-.03s.03,0,.04,0c.03,0,.05,0,.08,0,.05,0,.11,0,.16.01.21.01.41.03.62.03l-.48-1.12s0,.02,0,.03c0,.02.01.03.02.05.02.04.03.08.05.12.06.13.11.26.17.4s.11.26.17.4l.04.09s.02.05.04.08c0,0,0-.02,0-.03,0-.02-.01-.03-.02-.05-.02-.04-.03-.08-.05-.12-.06-.13-.11-.26-.17-.4s-.11-.26-.17-.4c0-.02-.06-.16-.07-.16-.21,0-.41-.02-.62-.03-.05,0-.1,0-.15-.01-.03,0-.05,0-.08,0,0,0-.03,0-.04,0,0,0-.01,0,0,0,0,0,0,.01,0,.02,0,.09-.03.18-.07.25,0,.01.07.18.07.17.06.13.11.26.17.4s.11.26.17.4c0,.02.06.16.07.16.02,0,.05-.04.07-.06.03-.02.06-.03.09-.04.09-.02.18-.02.27-.03.18-.02.36-.05.54-.07,0,0-.08-.19-.07-.17-.06-.13-.11-.26-.17-.4s-.11-.26-.17-.4c0-.02-.06-.16-.07-.16Z"/><path d="M114.47,81.67c.1-1.09.32-2.16.37-3.26,0-.21,0-.41.02-.62s.04-.4,0-.59c-.05-.24-.17-.47-.27-.69s-.18-.46-.3-.67l.48,1.12c.47-.04.94-.05,1.42.03l-.48-1.12c-.28,1.02-.48,2.06-.61,3.12-.06.51-.11,1.02-.14,1.53,0,.14-.01.27-.02.41,0,.07,0,.14,0,.21-.06,0-.13.02-.19.03-.26.03-.51.05-.77.07l.48,1.12c.01-.22-.02-.46.03-.68,0-.03-.06-.16-.07-.17-.05-.13-.11-.26-.17-.4s-.11-.26-.17-.4c-.01-.03-.08-.13-.07-.16-.05.22-.02.45-.03.68,0,.04.06.15.07.17.05.13.11.26.17.4.02.05.2.56.25.56.26-.01.52-.03.77-.07.06,0,.13-.02.19-.03,0-.07,0-.14,0-.21,0-.14.01-.27.02-.41.03-.51.07-1.02.14-1.53.13-1.05.34-2.09.61-3.12,0-.02-.07-.17-.07-.17-.05-.13-.11-.26-.17-.4-.03-.07-.17-.55-.25-.56-.47-.07-.94-.07-1.42-.03.02,0,.21.52.23.56.08.18.14.39.25.56l.03.05-.07-.16.03.06-.4-.96c.09.3.03.6.02.9-.02.38-.02.76-.06,1.15-.09.85-.24,1.69-.32,2.54,0,.03.06.15.07.17.05.13.11.26.17.4s.11.26.17.4c.02.04.08.13.07.16Z"/><path d="M113.78,75.9c-.14.45-.04.98-.06,1.45-.03.53-.11,1.05-.18,1.58-.07.56-.15,1.13-.16,1.7,0,.11,0,.23,0,.34,0,.05,0,.09,0,.14,0,.03,0,.06,0,.09.02.04,0,.06-.05.04-.07.04-.28,0-.36,0-.1,0-.21,0-.31-.01-.24-.01-.49-.03-.73-.05l.48,1.12c.13-1.09.23-2.19.34-3.29.05-.55.09-1.1.15-1.65,0-.03,0-.17.01-.19.01-.01.07,0,.09-.01.12-.04.3-.02.42-.03.27-.03.54-.07.81-.1-.02,0-.21-.52-.23-.56-.02-.05-.21-.56-.25-.56-.25.03-.51.07-.76.1-.14.02-.28.03-.43.04-.17.01-.13,0-.15.16-.06.56-.1,1.13-.16,1.7-.11,1.1-.2,2.2-.34,3.29,0,.03.06.15.07.17.05.13.11.26.17.4.03.06.18.55.25.56.24.02.48.04.73.05.2,0,.43.05.63.02.14-.03.1,0,.09-.13,0-.05,0-.09,0-.14,0-.11,0-.21,0-.32.01-.58.09-1.15.16-1.73.07-.52.15-1.04.18-1.56.03-.48-.08-1.01.06-1.47,0-.02-.07-.17-.07-.17-.05-.13-.11-.26-.17-.4s-.11-.26-.17-.4c-.01-.03-.08-.14-.07-.16Z"/><path d="M112.33,66.24s-.03,0-.04,0l.48,1.12s0-.03,0-.04c0,0,0-.01,0-.02,0,0,0,0,0-.01,0,0,0,0,0,0,.02.02.03.05.05.07,0-.02-.01-.03-.02-.05-.02-.04-.03-.08-.05-.12-.06-.13-.11-.26-.17-.4s-.11-.26-.17-.4l-.04-.09s-.02-.05-.04-.08c-.02-.02-.03-.05-.05-.07,0,0,0-.01,0,0,0,0,0,0,0,0,0,0,0,.01,0,.02,0,.01,0,.03,0,.04,0,.02.01.03.02.05.02.04.03.08.05.12.06.13.11.26.17.4s.11.26.17.4l.04.09s.02.05.04.08c.01,0,.03,0,.04,0,0-.02-.01-.03-.02-.05-.02-.04-.03-.08-.05-.12-.06-.13-.11-.26-.17-.4s-.11-.26-.17-.4l-.04-.09s-.02-.05-.04-.08Z"/><path d="M112.47,66.91s.05.06.07.09l-.48-1.12s-.05-.02-.08-.03l.48,1.12s0-.04,0-.06c0-.02-.01-.03-.02-.05-.02-.04-.03-.08-.05-.12-.06-.13-.11-.26-.17-.4s-.11-.26-.17-.4l-.04-.09s-.02-.05-.04-.08c0,.02,0,.04,0,.06,0,.02.01.03.02.05.02.04.03.08.05.12.06.13.11.26.17.4s.11.26.17.4l.04.09s.02.05.04.08c.03,0,.05.02.08.03,0-.02-.01-.03-.02-.05-.02-.04-.03-.08-.05-.12-.06-.13-.11-.26-.17-.4s-.11-.26-.17-.4l-.04-.09s-.02-.05-.04-.08c-.02-.03-.05-.06-.07-.09,0,.02.01.03.02.05.02.04.03.08.05.12.06.13.11.26.17.4s.11.26.17.4l.04.09s.02.05.04.08Z"/><path d="M111.4,66.3s.04,0,.06,0l-.48-1.12s-.04.03-.06.05c-.02.02-.03.03-.04.05l.48,1.12s.03-.07.04-.11c0-.02-.01-.03-.02-.05-.02-.04-.03-.08-.05-.12-.06-.13-.11-.26-.17-.4s-.11-.26-.17-.4l-.04-.09s-.02-.05-.04-.08c-.01.04-.03.07-.04.11,0,.02.01.03.02.05.02.04.03.08.05.12.06.13.11.26.17.4s.11.26.17.4l.04.09s.02.05.04.08c.01-.02.03-.04.04-.05.02-.02.04-.03.06-.05,0-.02-.01-.03-.02-.05-.02-.04-.03-.08-.05-.12-.06-.13-.11-.26-.17-.4s-.11-.26-.17-.4l-.04-.09s-.02-.05-.04-.08c-.02,0-.04,0-.06,0,0,.02.01.03.02.05.02.04.03.08.05.12.06.13.11.26.17.4s.11.26.17.4l.04.09s.02.05.04.08Z"/><path d="M110.4,64.95s.05.06.09.09l-.48-1.12s-.09-.01-.14-.02l.48,1.12s.03-.05.05-.07c0-.02-.01-.03-.02-.05-.02-.04-.03-.08-.05-.12-.06-.13-.11-.26-.17-.4s-.11-.26-.17-.4l-.04-.09s-.02-.05-.04-.08c-.02.02-.03.05-.05.07,0,.02.01.03.02.05.02.04.03.08.05.12.06.13.11.26.17.4s.11.26.17.4l.04.09s.02.05.04.08c.05,0,.09,0,.14.02,0-.02-.01-.03-.02-.05-.02-.04-.03-.08-.05-.12-.06-.13-.11-.26-.17-.4s-.11-.26-.17-.4l-.04-.09s-.02-.05-.04-.08c-.03-.03-.06-.05-.09-.09,0,.02.01.03.02.05.02.04.03.08.05.12.06.13.11.26.17.4s.11.26.17.4l.04.09s.02.05.04.08Z"/><path d="M109.82,62.37c0,.07,0,.13,0,.2,0,.02,0,.03,0,.05,0,0,0,.01,0,.01s0,0,0,0c0,0-.01,0-.02,0-.03-.01-.06-.02-.09-.03l.48,1.12c.03-.07.07-.15.11-.22,0-.02-.01-.03-.02-.05-.02-.04-.03-.08-.05-.12-.06-.13-.11-.26-.17-.4s-.11-.26-.17-.4l-.04-.09s-.02-.05-.04-.08c-.04.07-.07.14-.11.22,0,.02.01.03.02.05.02.04.03.08.05.12.06.13.11.26.17.4s.11.26.17.4l.04.09s.02.05.04.08c.03,0,.06.02.08.03,0,0,.01,0,.02,0,0,0,.01,0,.01,0s0,0,0-.01c0-.02,0-.03,0-.05,0-.07,0-.13,0-.2,0-.02-.01-.03-.02-.05-.02-.04-.03-.08-.05-.12-.06-.13-.11-.26-.17-.4s-.11-.26-.17-.4l-.04-.09s-.02-.05-.04-.08Z"/><path d="M109.92,62.11s.05.04.07.06l-.48-1.12s-.04.03-.05.05c0,0-.02.02-.02.03,0,0,0,0,0,0h0s0,0,0,0c0,0,0-.01-.01-.02-.03-.04-.06-.07-.1-.1l.48,1.12s.09-.03.14-.04c0,0-.08-.19-.07-.17-.06-.13-.11-.26-.17-.4s-.11-.26-.17-.4l-.04-.09s-.02-.05-.04-.08c-.05,0-.09.02-.14.04,0,0,.08.19.07.17.06.13.11.26.17.4s.11.26.17.4l.04.09s.02.05.04.08c.04.03.07.06.1.1,0,0,0,.01.01.02,0,0,0,0,0,0,0,0,0,0,0,0,0,0,0,0,0,0,0-.01.02-.02.02-.03.02-.02.03-.04.05-.05,0-.02-.01-.03-.02-.05-.02-.04-.03-.08-.05-.12-.06-.13-.11-.26-.17-.4s-.11-.26-.17-.4l-.04-.09s-.02-.05-.04-.08c-.02-.02-.04-.04-.07-.06,0,.02.01.03.02.05.02.04.03.08.05.12.06.13.11.26.17.4s.11.26.17.4l.04.09s.02.05.04.08Z"/><path d="M108.94,61.22c-.03.05-.06.11-.09.17l.48,1.12s-.02-.07-.03-.11v.02s.08-.06.11-.09c0-.02-.01-.03-.02-.05-.02-.04-.03-.08-.05-.12-.06-.13-.11-.26-.17-.4s-.11-.26-.17-.4l-.04-.09s-.02-.05-.04-.08c-.04.03-.07.06-.11.09v.02s0,0,0,0v-.02s0,.05.01.08c0,.02.01.03.02.05.02.04.03.08.05.12.06.13.11.26.17.4s.11.26.17.4l.04.09s.02.05.04.08c.03-.06.05-.12.09-.17,0-.02-.01-.03-.02-.05-.02-.04-.03-.08-.05-.12-.06-.13-.11-.26-.17-.4s-.11-.26-.17-.4l-.04-.09s-.02-.05-.04-.08Z"/><path d="M108.16,64.96c.07.05.16.09.25.1l-.48-1.12s-.06.07-.09.11c0,0-.01.02-.02.03,0,0,0,.01,0,.01,0,0,0,0,0,0h0s-.03-.04-.04-.06c-.04-.05-.09-.09-.15-.1l.48,1.12s.05-.06.07-.08c0-.02-.01-.03-.02-.05-.02-.04-.03-.08-.05-.12-.06-.13-.11-.26-.17-.4s-.11-.26-.17-.4l-.04-.09s-.02-.05-.04-.08c-.02.03-.05.06-.07.08,0,.02.01.03.02.05.02.04.03.08.05.12.06.13.11.26.17.4s.11.26.17.4l.04.09s.02.05.04.08c.06.02.11.06.15.1.01.02.03.03.04.05,0,0,0,.01,0,.01,0,0,.01-.01.01-.01,0,0,.01-.02.02-.03.03-.04.06-.07.09-.11,0-.02-.01-.03-.02-.05-.02-.04-.03-.08-.05-.12-.06-.13-.11-.26-.17-.4s-.11-.26-.17-.4l-.04-.09s-.02-.05-.04-.08c-.09-.02-.17-.05-.25-.1,0,.02.01.03.02.05.02.04.03.08.05.12.06.13.11.26.17.4s.11.26.17.4l.04.09s.02.05.04.08Z"/><path d="M107.69,66.83s0-.05,0-.08c0-.03.02-.05.04-.07.03-.04.06-.09.09-.13s.06-.09.08-.13c0-.01.02-.03.02-.04.01-.01,0-.01.03-.01.02,0,.05,0,.07-.02l-.48-1.12c-.12.27-.27.53-.42.78l.48,1.12c.03-.1.07-.2.08-.3,0-.02-.01-.03-.02-.05-.02-.04-.03-.08-.05-.12-.06-.13-.11-.26-.17-.4s-.11-.26-.17-.4l-.04-.09s-.02-.05-.04-.08c-.02.1-.05.2-.08.3,0,.02.01.03.02.05.02.04.03.08.05.12.06.13.11.26.17.4s.11.26.17.4l.04.09s.02.05.04.08c.16-.25.3-.51.42-.78,0-.02-.01-.03-.02-.05-.02-.04-.03-.08-.05-.12-.06-.13-.11-.26-.17-.4-.02-.04-.24-.56-.25-.56-.02,0-.04.01-.06.02s-.02,0-.03.01c0,0-.01.02-.02.03-.03.05-.06.09-.09.14s-.06.09-.08.13c-.01.02-.03.04-.04.07,0,.03,0,.06,0,.08,0,.02.01.03.02.05.02.04.03.08.05.12.06.13.11.26.17.4s.11.26.17.4l.04.09s.02.05.04.08Z"/><path d="M107.64,69.16s.09-.08.12-.13c.02-.03.04-.12.06-.14.07-.06.25-.02.33-.01.27.02.54,0,.8,0,.52-.03,1.04-.09,1.57-.1l-.48-1.12c.05.16.09.3.1.47.01.2-.02.41-.02.62,0,.4,0,.8-.06,1.19-.06.3-.19.55-.43.75-.2.17-.44.28-.69.34-.51.12-1.07.05-1.52-.22-.07-.04-.14-.09-.19-.16-.03-.03-.05-.07-.07-.11l.42.98v-.03s-.03-.08-.04-.12c-.06-.23-.08-.48-.08-.72,0-.49.03-1.01.18-1.48,0-.02-.07-.17-.07-.17-.06-.13-.11-.26-.17-.4s-.11-.26-.17-.4c-.01-.03-.08-.14-.07-.16-.15.45-.18.95-.18,1.42,0,.26.02.52.08.78.03.13.09.26.14.39.14.34.27.7.45,1.03.23.43.89.55,1.33.54.55,0,1.13-.24,1.42-.73.23-.37.2-.9.2-1.32,0-.25,0-.49.02-.74.01-.23-.04-.42-.1-.63-.06-.19-.16-.38-.23-.56-.06-.13-.11-.26-.17-.4,0-.02-.06-.16-.07-.16-.52,0-1.04.07-1.57.1-.26.01-.52.02-.77,0-.07,0-.3-.05-.36.01-.02.02-.03.09-.05.12-.03.06-.08.1-.13.15-.02.02.21.51.23.56.02.05.26.54.25.56Z"/><path d="M104.73,67.31s0,.03,0,.04c0,0,0,.01,0,.02,0,0,0,0,0,.01,0,0,0,0,0,0,0,0,0,0,0,0,0,0-.02,0-.02,0,0,0-.02,0-.02,0-.02,0-.03,0-.05,0l.48,1.12s.07-.06.1-.09c0-.02-.01-.03-.02-.05-.02-.04-.03-.08-.05-.12-.06-.13-.11-.26-.17-.4s-.11-.26-.17-.4l-.04-.09s-.02-.05-.04-.08c-.03.03-.07.06-.1.09,0,.02.01.03.02.05.02.04.03.08.05.12.06.13.11.26.17.4s.11.26.17.4l.04.09s.02.05.04.08c.02,0,.03,0,.05,0,0,0,.02,0,.02,0,0,0,.02,0,.02,0h0s0,0,0,0c0,0,0,0,0-.01,0,0,0-.01,0-.02,0-.01,0-.03,0-.04,0-.02-.01-.03-.02-.05-.02-.04-.03-.08-.05-.12-.06-.13-.11-.26-.17-.4s-.11-.26-.17-.4l-.04-.09s-.02-.05-.04-.08Z"/><path d="M103.91,76.28c.03-.78.16-1.56.25-2.33s.1-1.57.22-2.34c.05-.36.12-.71.16-1.07.02-.18.04-.36.05-.54,0-.08-.05-.47,0-.53.13-.16.9-.08,1.09-.1.42-.05.83-.16,1.24-.26l-.48-1.12c-.17.72-.15,1.48-.04,2.21.07.5.32.96.52,1.42.43.99,1.27,1.51,2.36,1.26.52-.12,1-.4,1.34-.81.4-.47.48-1.06.61-1.65.07-.35.14-.7.15-1.06,0-.03-.06-.51-.04-.52.06-.04.3.08.38.09.7.16,1.45.02,2.14.2l-.48-1.12c-.14,1.36-.19,2.73-.32,4.09-.06.7,0,1.4-.05,2.11-.02.28-.04.66-.16.91l-.02.15c-.1,0-.19-.02-.29-.03-.19-.02-.39-.05-.58-.07-1.43-.16-2.84.15-4.27.1s-2.83.05-4.22.26l.48,1.12c0-.12-.02-.25-.03-.37-.01-.38-.47-.75-.48-1.12,0,.12.02.25.03.37,0,.11.44,1.13.48,1.12,1.37-.2,2.74-.28,4.13-.26,1.46.02,2.91-.26,4.37-.1.16.02.32.04.49.06.1.01.19.02.29.03.11.04.15,0,.12-.14.1-.22.13-.58.15-.82.05-.7,0-1.41.05-2.11s.15-1.38.2-2.08.06-1.41.13-2.11c.01-.12-.39-1.1-.48-1.12-.43-.11-.93-.11-1.38-.12-.26,0-.51-.02-.76-.08-.07-.02-.2-.09-.27-.07-.15.04-.07-.03-.08.15-.06.91-.05,1.99-.55,2.8-.38.62-1.07,1.02-1.78,1.11-.36.04-.73.01-1.07-.13-.16-.07-.32-.16-.45-.28-.29-.25-.55-.89-.1.21l.07.17c-.27-.82-.27-1.84-.07-2.67.02-.1-.48-1.12-.48-1.12-.38.09-.76.19-1.15.25-.25.04-.89-.05-1.09.1-.12,0-.15.06-.09.2,0,.12,0,.24,0,.36,0,.18-.03.36-.05.54-.04.36-.11.72-.16,1.07-.11.75-.12,1.5-.21,2.25-.09.81-.23,1.62-.26,2.43-.01.37.49.76.48,1.12Z"/><path d="M111.36,81.11c-.36-.07-.72-.16-1.08-.14s-.73.05-1.09.07l.48,1.12c.08-.48.09-.97.12-1.45.04-.53.09-1.06.13-1.59.03-.33.06-.65.08-.98.01-.16.03-.33.04-.49,0-.08.01-.16.02-.24,0-.05,0-.1,0-.15h.1c.15-.03.34,0,.5,0,.18,0,.36,0,.55,0,.35,0,.69-.02,1.04-.04l-.48-1.12c-.09.4-.08.81-.11,1.21-.04.45-.07.91-.1,1.36-.06.82-.17,1.64-.2,2.45,0,.04.06.15.07.17.05.13.11.26.17.4s.11.26.17.4c.02.04.08.12.07.16.04-.82.14-1.64.2-2.45.03-.45.06-.91.1-1.36.03-.4.03-.82.11-1.21,0-.03-.07-.16-.07-.17-.05-.13-.11-.26-.17-.4-.02-.05-.2-.56-.25-.56-.68.03-1.36.06-2.03.05-.05,0-.1,0-.15,0v.1c-.03.07-.02.17-.02.24-.01.16-.02.33-.04.49-.03.34-.06.69-.09,1.03-.04.52-.1,1.04-.13,1.56s-.05.99-.13,1.48c0,.03.06.16.07.17.05.13.11.26.17.4.02.05.2.56.25.56.36-.02.73-.05,1.09-.07s.72.08,1.08.14c-.05,0-.21-.5-.23-.56-.06-.13-.11-.26-.17-.4-.01-.02-.05-.16-.07-.16Z"/><path d="M108.98,76.12c-.17.52-.15,1.08-.17,1.62-.02.6-.06,1.2-.11,1.8-.02.31-.05.62-.08.93-.01.15-.02.3-.04.45-.02.13.01.11-.12.14-.06.01-.14,0-.2,0-.66.01-1.33.02-1.99.04l.48,1.12c.21-1.22.16-2.45.23-3.68.02-.29.03-.59.07-.88,0-.07.03-.14.03-.2.01-.13,0-.1.1-.14.12-.05.29-.04.42-.06.63-.1,1.23-.04,1.86-.02-.03,0-.21-.51-.23-.56-.03-.06-.19-.56-.25-.56-.61-.02-1.2-.08-1.81.01-.14.02-.28.04-.42.06-.05,0-.09.01-.14.02v.08c-.03.06-.03.15-.03.21-.05.3-.06.61-.08.92-.07,1.23-.02,2.46-.23,3.68,0,.03.06.16.07.17.05.13.11.26.17.4.02.05.2.56.25.56.65-.02,1.29-.03,1.94-.04.08,0,.17.01.25,0,.11-.02.08.01.11-.09.04-.14.03-.31.04-.45.03-.33.06-.65.08-.98.05-.58.09-1.17.11-1.75s0-1.12.17-1.66c0-.02-.07-.17-.07-.17-.05-.13-.11-.26-.17-.4s-.11-.26-.17-.4c-.01-.03-.08-.14-.07-.16Z"/><path d="M103.8,81.88c.12-1.14.23-2.28.34-3.42.02-.25.04-.49.08-.74,0-.06,0-.28.04-.32.05-.05.37-.01.44-.02.57-.02,1.15-.03,1.72-.02l-.48-1.12c-.14.56-.11,1.17-.12,1.74-.01.65.02,1.31-.01,1.96-.01.23-.05.45-.08.67-.02.14-.04.27-.05.41-.01.12.02.09-.11.13-.07.02-.17.01-.24.02-.67.04-1.34.05-2.01.07l.48,1.12c0-.16-.02-.32,0-.48,0-.03-.06-.15-.07-.17-.05-.13-.11-.26-.17-.4s-.11-.26-.17-.4c-.02-.04-.08-.13-.07-.16-.02.16,0,.32,0,.48,0,.04.06.14.07.17.05.13.11.26.17.4.02.05.19.56.25.56.65-.02,1.31-.02,1.96-.07.09,0,.21,0,.29-.02.11-.03.07.01.1-.09.04-.13.03-.28.05-.41.03-.24.08-.47.09-.71.03-.64,0-1.27.01-1.91,0-.58-.02-1.22.12-1.79,0-.02-.07-.16-.07-.17-.05-.13-.11-.26-.17-.4-.02-.06-.19-.56-.25-.56-.56,0-1.12,0-1.67.02-.11,0-.35-.03-.44.02-.07.03-.05.03-.06.12,0,.05-.01.11-.02.16-.04.26-.06.52-.09.78-.11,1.14-.22,2.28-.34,3.42,0,.03.06.15.07.17.05.13.11.26.17.4s.11.26.17.4c.02.04.08.13.07.16Z"/><path d="M101.15,81.51c-.25,0-.5-.01-.75-.05l.48,1.12c.12-1.22.26-2.44.39-3.66.03-.29.06-.58.09-.88.01-.12-.01-.35.04-.46.04-.07.06-.07.15-.09.08-.02.16-.04.25-.05.59-.11,1.19-.11,1.79-.07l-.48-1.12c-.17,1.15-.15,2.32-.3,3.47-.06.45-.13.92-.08,1.38,0,.04.03.11.02.15-.01.08-.03.06-.13.08-.16.03-.31.06-.47.09-.33.06-.66.1-.99.08.04,0,.21.51.23.56.03.06.18.55.25.56.32.02.63-.02.95-.08.16-.03.31-.06.47-.09.05,0,.09-.02.14-.03.05,0,.06-.01.03-.06,0-.03-.01-.08-.02-.12-.06-.47.02-.95.08-1.41.15-1.15.13-2.32.3-3.47,0-.03-.06-.16-.07-.17-.05-.13-.11-.26-.17-.4-.03-.06-.18-.55-.25-.56-.58-.04-1.16-.04-1.74.06-.08.01-.39.04-.44.1-.06.07-.03.37-.04.46-.03.31-.06.62-.09.93-.12,1.22-.26,2.44-.39,3.66,0,.03.06.15.07.17.05.13.11.26.17.4s.11.26.17.4c.01.02.06.16.07.16.25.04.5.04.75.05-.03,0-.21-.51-.23-.56-.02-.06-.19-.56-.25-.56Z"/><path d="M101.93,92.21c.4-1.49.6-3.02.83-4.55.12-.8.25-1.6.43-2.38.15-.64.21-1.53.87-1.83.61-.27,1.46-.09,2.12-.07.74.03,1.46-.12,2.2-.17.78-.06,1.58.04,2.37.09.81.05,1.68-.09,2.48.06l-.48-1.12c.15.97-.04,1.94-.04,2.92s.14,1.85.27,2.77.2,1.88.22,2.83c.01.39.15,1.08.03,1.45v.22c-.14,0-.29,0-.44,0-.22,0-.45,0-.67.01-.91.04-1.81.15-2.73.15-.44,0-1.05.04-1.47-.11-.14-.05-.24-.15-.39-.18-.17-.03-.37.03-.55.02-.92-.03-1.81-.14-2.73-.11-1.01.03-2.02.05-3.04.02l.48,1.12c.08-.38.17-.75.25-1.13.07-.33-.55-.8-.48-1.12-.08.38-.17.75-.25,1.13-.02.09.43,1.12.48,1.12,1.02.03,2.02.01,3.04-.02.92-.03,1.82.06,2.73.11.19.01.3-.03.48-.03s.21.11.34.17c.4.17,1.05.12,1.47.13.95.01,1.89-.11,2.84-.15.22,0,.45-.01.67-.01.11,0,.22,0,.33,0,.15.04.18-.03.11-.22.09-.39-.02-.94-.03-1.34-.03-.99-.09-1.96-.23-2.94-.13-.92-.27-1.84-.27-2.77,0-.98.19-1.94.04-2.92-.02-.14-.37-1.1-.48-1.12-.8-.15-1.67,0-2.48-.06-.75-.04-1.51-.14-2.26-.1s-1.53.21-2.3.18c-.65-.03-1.5-.21-2.12.07-.67.29-.73,1.19-.87,1.83-.17.75-.3,1.51-.41,2.27-.24,1.56-.43,3.13-.84,4.66-.03.11.19.46.23.56s.27.45.25.56Z"/><path d="M111.04,93.26c-.12.04-.24.07-.36.11l.48,1.12s-.01-.05-.02-.07c0-.03-.02-.05-.03-.08-.06-.14-.12-.28-.18-.42s-.12-.28-.18-.42c-.03-.07-.06-.14-.09-.21-.01-.02-.02-.05-.04-.07l.48,1.12c.14.01.28.02.42.03,0-.02-.01-.03-.02-.05-.02-.04-.03-.08-.05-.12-.06-.13-.11-.26-.17-.4s-.11-.26-.17-.4l-.04-.09s-.02-.05-.04-.08c-.14,0-.28-.02-.42-.03,0,.02.01.03.02.05.02.04.03.08.05.12.06.13.11.26.17.4s.11.26.17.4l.04.09s.02.05.04.08c0,.01.01.02.02.03v-.02s0,0,0,0c.06.12,0,0-.16-.37l-.27-.63s-.02-.06-.02-.04c0,0,0,0,0,.01v-.02s0,.03,0,.05c0,.02.01.03.02.05.02.04.03.08.05.12.06.13.11.26.17.4s.11.26.17.4c0,.02.07.16.07.16.12-.04.24-.07.36-.11,0,0-.08-.19-.07-.17-.06-.13-.11-.26-.17-.4s-.11-.26-.17-.4c0-.02-.07-.16-.07-.16Z"/><path d="M109.84,94.2c.21.01.41.04.62.07l-.48-1.12c-.2.05-.41.11-.6.18l.48,1.12c.01-.08,0-.17-.01-.25-.01-.05-.05-.12-.07-.17-.06-.13-.11-.26-.17-.4s-.11-.26-.17-.4l-.04-.09s-.02-.05-.04-.08c.02.08.03.17.01.25,0,.02.01.03.02.05.02.04.03.08.05.12.06.13.11.26.17.4s.11.26.17.4c0,.02.07.16.07.16.2-.07.4-.13.6-.18,0,0-.08-.19-.07-.17-.06-.13-.11-.26-.17-.4s-.11-.26-.17-.4l-.04-.09s-.02-.05-.04-.08c-.2-.03-.41-.06-.62-.07,0,0,.08.19.07.17.06.13.11.26.17.4s.11.26.17.4l.04.09s.02.05.04.08Z"/><path d="M107.97,93.06s-.04.02-.06.04l.48,1.12s0-.01,0-.02c0,0,0,0,0,0,0,0,0,0,0,0,.01,0,.03,0,.04,0,0-.02-.01-.03-.02-.05-.02-.04-.03-.08-.05-.12-.06-.13-.11-.26-.17-.4s-.11-.26-.17-.4l-.04-.09s-.02-.05-.04-.08c-.01,0-.03,0-.04,0,0,0,0,0,0,0,0,0,0,0,0,.01,0,0,0,.01,0,.02,0,.02.01.03.02.05.02.04.03.08.05.12.06.13.11.26.17.4s.11.26.17.4l.04.09s.02.05.04.08c.02-.01.04-.02.06-.04,0-.02-.01-.03-.02-.05-.02-.04-.03-.08-.05-.12-.06-.13-.11-.26-.17-.4s-.11-.26-.17-.4c0-.02-.07-.16-.07-.16Z"/><path d="M104.05,93.18c-.08.01-.15.03-.23.04l.48,1.12s-.02-.05-.02-.08v.02c.09,0,.17.01.26.02,0-.02-.01-.03-.02-.05-.02-.04-.03-.08-.05-.12-.06-.13-.11-.26-.17-.4s-.11-.26-.17-.4l-.04-.09s-.02-.05-.04-.08c-.08,0-.17-.01-.25-.02v.02s0,0,.01,0v-.02s0,.03,0,.05c0,.02.01.03.02.05.02.04.03.08.05.12.06.13.11.26.17.4s.11.26.17.4l.04.09s.02.05.04.08c.08-.01.15-.03.23-.04,0,0-.08-.19-.07-.17-.06-.13-.11-.26-.17-.4s-.11-.26-.17-.4l-.04-.09s-.02-.05-.04-.08Z"/><path d="M102.65,93.05c-.08,0-.16,0-.24,0l.48,1.12s0,0,.01,0c0,0,.01,0,.02,0,0,0,.02,0,.03,0,.02,0,.04,0,.06,0,.04,0,.08,0,.12,0,0-.02-.01-.03-.02-.05-.02-.04-.03-.08-.05-.12-.06-.13-.11-.26-.17-.4s-.11-.26-.17-.4l-.04-.09s-.02-.05-.04-.08c-.04,0-.08,0-.12,0-.02,0-.04,0-.06,0,0,0-.02,0-.03,0,0,0,0,0-.01,0,0,0,0,0,0,0,0,0,0,0,0,0,0,.02.01.03.02.05.02.04.03.08.05.12.06.13.11.26.17.4s.11.26.17.4l.04.09s.02.05.04.08c.08,0,.16,0,.24,0,0-.02-.01-.03-.02-.05-.02-.04-.03-.08-.05-.12-.06-.13-.11-.26-.17-.4s-.11-.26-.17-.4l-.04-.09s-.02-.05-.04-.08Z"/><path d="M95.1,129.23c.47-1.96.69-3.92,1.07-5.89.35-1.79.46-3.57.75-5.37.34-2.04,1.07-3.99,1.39-6.04.15-.94.14-1.88.21-2.82.08-1,.38-1.91.62-2.88s.24-1.9.32-2.9c.07-.9.31-1.74.56-2.6s.43-1.74.6-2.62c.09-.48.2-.95.3-1.43.18-.8.06-.94.89-.94,1.02,0,2-.1,3.01.06.96.15,1.83.36,2.8.32,2.07-.08,4.16.13,6.23-.03l-.48-1.12c.38,2.6.48,5.11.46,7.74-.02,2.36.2,4.69.19,7.05,0,2.48.43,4.89.54,7.36s.21,4.69.31,7.03c.1,2.29.04,4.56.01,6.85-.01,1.21,0,2.42,0,3.63,0,.38.05.97-.07,1.33.12.25.04.38-.24.39-.23.08-.47.14-.71.18-2.05.44-4.21.31-6.15-.52-1.08-.46-2.02-1.15-3.21-1.31-1.03-.14-1.99.11-2.93.48l.48,1.12c.36-1.09.2-2.34.28-3.46s.3-2.31-.01-3.39c-.26-.89-.9-2.53-2.04-1.6-.79.65-1.15,1.97-1.65,2.83-.25.43-.26,1.08-.4,1.58-.11.39-.21.79-.31,1.19-.13.48-.25.96-.32,1.45-.03.17.01.66-.08.76-.14.16-.14.03-.44-.08-.55-.21-1.01-.61-1.54-.88-.67-.34-1.35-.36-2.09-.3l.48,1.12c.51-2.07.81-4.18,1.17-6.29.06-.34-.54-.79-.48-1.12-.36,2.1-.66,4.21-1.17,6.29-.02.09.45,1.12.48,1.12.74-.07,1.42-.04,2.09.3.42.21,1.37,1.09,1.85,1.03.22-.03.13-.21.16-.51.03-.28.08-.55.14-.82.11-.52.26-1.04.4-1.55.07-.26.13-.52.2-.78.09-.3.06-.66.13-.91.17-.6.64-1.1.89-1.68.38-.88,1.43-2.85,2.41-1.38l-.31-.71.11.27-.17-.41c.28,1.17.07,2.42-.01,3.6-.07,1.05.07,2.21-.26,3.23-.04.11.51,1.11.48,1.12.95-.38,1.91-.62,2.93-.48,1.19.16,2.14.85,3.21,1.31,1.94.83,4.1.96,6.15.52.24-.03.48-.09.71-.18.28,0,.35-.14.24-.39.11-.36.06-.95.07-1.33,0-1.21,0-2.42,0-3.63.02-2.29.09-4.56-.01-6.85s-.2-4.68-.31-7.03c-.12-2.47-.55-4.88-.54-7.36,0-2.36-.21-4.69-.19-7.05.03-2.63-.08-5.14-.46-7.74-.02-.12-.42-1.12-.48-1.12-2.07.16-4.16-.05-6.23.03-.98.04-1.85-.17-2.8-.32-.94-.15-1.84-.08-2.78-.07-.82.01-.88-.13-1.06.7-.11.47-.21.95-.31,1.42-.2.97-.38,1.91-.65,2.86-.25.86-.49,1.7-.56,2.6-.07.99-.08,1.92-.32,2.9-.24.97-.53,1.88-.62,2.88-.08.95-.07,1.88-.21,2.82-.31,1.97-.97,3.85-1.34,5.81-.18.97-.18,1.95-.29,2.93-.1.91-.34,1.78-.51,2.68-.38,1.97-.6,3.93-1.07,5.89-.08.32.55.81.48,1.12Z"/><path d="M101.31,130.55s-.05-.04-.07-.05l.48,1.12s.05-.07.07-.11l-.48-1.12c0,.05,0,.11,0,.16,0,.02.01.03.02.05.02.04.03.08.05.12.06.13.11.26.17.4s.11.26.17.4l.04.09s.02.05.04.08c0-.05,0-.11,0-.16,0-.02-.01-.03-.02-.05-.02-.04-.03-.08-.05-.12-.06-.13-.11-.26-.17-.4s-.11-.26-.17-.4l-.04-.09s-.02-.05-.04-.08c-.02.04-.05.07-.07.11,0,.02.01.03.02.05.02.04.03.08.05.12.06.13.11.26.17.4s.11.26.17.4l.04.09s.02.05.04.08c.03.02.05.04.07.05,0-.02-.01-.03-.02-.05-.02-.04-.03-.08-.05-.12-.06-.13-.11-.26-.17-.4s-.11-.26-.17-.4l-.04-.09s-.02-.05-.04-.08Z"/><path d="M101.63,130.41s.03-.09.05-.14l-.48-1.12s0,.08.01.11c0,0,0,.02,0,.03,0,0,0,.01,0,.02,0,0,0,0-.01,0-.02,0-.04,0-.06-.01,0,.02.01.03.02.05.02.04.03.08.05.12.06.13.11.26.17.4s.11.26.17.4l.04.09s.02.05.04.08c.02,0,.04,0,.06.01,0,0,0,0,.01,0,0,0,0-.01,0-.02,0,0,0-.02,0-.03,0-.04,0-.08-.01-.11,0-.02-.01-.03-.02-.05-.02-.04-.03-.08-.05-.12-.06-.13-.11-.26-.17-.4s-.11-.26-.17-.4l-.04-.09s-.02-.05-.04-.08c-.02.05-.03.09-.05.14,0,.02.01.03.02.05.02.04.03.08.05.12.06.13.11.26.17.4s.11.26.17.4l.04.09s.02.05.04.08Z"/><path d="M101.2,131.7s-.01.06-.02.09c0,.02,0,.03-.01.05,0,0,0,.02,0,.02,0,0,0,0,0,0,0,0,0,0,0,0-.05,0-.1.04-.14.07l.48,1.12c.07-.08.13-.16.19-.24,0-.02-.01-.03-.02-.05-.02-.04-.03-.08-.05-.12-.06-.13-.11-.26-.17-.4s-.11-.26-.17-.4l-.04-.09s-.02-.05-.04-.08c-.06.08-.13.16-.19.24,0,.02.01.03.02.05.02.04.03.08.05.12.06.13.11.26.17.4s.11.26.17.4l.04.09s.02.05.04.08c.04-.04.09-.06.14-.07,0,0,0,0,0,0,0,0,0,0,0,0,0,0,0-.02,0-.02,0-.02,0-.03.01-.05,0-.03.01-.06.02-.09,0-.02-.01-.03-.02-.05-.02-.04-.03-.08-.05-.12-.06-.13-.11-.26-.17-.4s-.11-.26-.17-.4l-.04-.09s-.02-.05-.04-.08Z"/><path d="M100.66,128.99c-.08-.07-.18-.05-.27-.01-.13.05-.24.14-.34.23l.48,1.12c.06-.09.13-.19.2-.28s.13-.18.22-.24c.08-.05.16-.11.24-.16.07-.04.16-.09.24-.1l-.48-1.12c-.08.06-.13.17-.17.26s-.07.19-.12.29c0,.02.01.03.02.05.02.04.03.08.05.12.06.13.11.26.17.4s.11.26.17.4l.04.09s.02.05.04.08c.04-.09.07-.19.12-.29s.09-.2.17-.26c0,0-.08-.19-.07-.17-.06-.13-.11-.26-.17-.4s-.11-.26-.17-.4c0-.02-.06-.16-.07-.16-.09,0-.16.05-.24.09-.09.05-.17.11-.25.16-.09.06-.15.15-.22.23-.07.09-.14.18-.2.28,0,.01.07.18.07.17.06.13.11.26.17.4s.11.26.17.4c0,.02.08.16.07.16.1-.09.22-.18.34-.23.09-.04.19-.05.27.01,0-.02-.01-.03-.02-.05-.02-.04-.03-.08-.05-.12-.06-.13-.11-.26-.17-.4s-.11-.26-.17-.4l-.04-.09s-.02-.05-.04-.08Z"/><path d="M100.85,132.13c-.07.1-.14.21-.21.32l.48,1.12s0-.03,0-.04c0,0,.01-.01.01-.02,0,0,0-.01.01-.02.02-.03.04-.05.06-.08s.04-.05.06-.08.04-.05.06-.07c0-.02-.01-.03-.02-.05-.02-.04-.03-.08-.05-.12-.06-.13-.11-.26-.17-.4s-.11-.26-.17-.4l-.04-.09s-.02-.05-.04-.08c-.02.02-.04.05-.06.07s-.04.05-.06.08-.04.05-.06.08c0,0,0,.01-.01.02,0,0-.01.01-.01.02,0,.01,0,.03,0,.04,0,.02.01.03.02.05.02.04.03.08.05.12.06.13.11.26.17.4s.11.26.17.4l.04.09s.02.05.04.08c.07-.11.13-.21.21-.32,0-.02-.01-.03-.02-.05-.02-.04-.03-.08-.05-.12-.06-.13-.11-.26-.17-.4s-.11-.26-.17-.4l-.04-.09s-.02-.05-.04-.08Z"/><path d="M100.38,135.77c-.06.03-.13.07-.19.1l.48,1.12s.06-.09.09-.14c0-.01.01-.02.02-.04,0,0,0,0,0,0,0,0,0,0,0,0h0s0,.01.01.02c.02.02.03.04.05.06,0-.02-.01-.03-.02-.05-.02-.04-.03-.08-.05-.12-.06-.13-.11-.26-.17-.4s-.11-.26-.17-.4l-.04-.09s-.02-.05-.04-.08c-.02-.02-.04-.04-.05-.06,0,0,0-.01-.01-.02,0,0,0,0,0,0,0,0,0,0,0,0,0,.01-.01.02-.02.04-.03.05-.06.09-.09.14,0,.02.01.03.02.05.02.04.03.08.05.12.06.13.11.26.17.4s.11.26.17.4c0,.02.07.16.07.16.06-.03.13-.07.19-.1,0,0-.08-.19-.07-.17-.06-.13-.11-.26-.17-.4s-.11-.26-.17-.4c0-.02-.07-.16-.07-.16Z"/><path d="M99.53,136.13c-.14.03-.28.05-.42.05l.48,1.12c.07-.11.14-.23.22-.33l-.37-.84c.1.23.2.47.3.7.03.06.05.12.08.18.02.04.04.07.06.11.03.05.07.09.12.13,0-.02-.01-.03-.02-.05-.02-.04-.03-.08-.05-.12-.06-.13-.11-.26-.17-.4s-.11-.26-.17-.4l-.04-.09s-.02-.05-.04-.08c-.07-.05-.12-.12-.16-.2v.02s0-.02,0-.03c0,0,0,0,0-.01.12.26.23.52.34.78-.08-.19-.16-.38-.24-.57-.03-.07-.06-.13-.09-.2-.01-.03-.02-.05-.04-.08-.08.1-.15.22-.22.33,0,.02.01.03.02.05.02.04.03.08.05.12.06.13.11.26.17.4s.11.26.17.4l.04.09s.02.05.04.08c.14,0,.28-.02.42-.05,0,0-.08-.19-.07-.17-.06-.13-.11-.26-.17-.4s-.11-.26-.17-.4l-.04-.09s-.02-.05-.04-.08Z"/><path d="M98.89,133.02c-.02.15-.08.3-.14.43-.08.17-.17.34-.25.51l.48,1.12c.05-.2.09-.41.15-.61.03-.1.05-.2.08-.3,0-.03.01-.05.02-.08,0-.01,0-.03.01-.04,0,0,.02.01.03.02.04.02.08.04.12.06-.01,0-.07-.18-.07-.17-.06-.13-.11-.26-.17-.4s-.11-.26-.17-.4l-.04-.09s-.02-.05-.04-.08c-.04-.02-.08-.04-.12-.06,0,0-.02-.01-.03-.02,0,.01,0,.03-.01.04,0,.03-.01.05-.02.08-.03.1-.05.2-.08.3-.05.2-.1.41-.15.61,0,.02.01.03.02.05.02.04.03.08.05.12.06.13.11.26.17.4s.11.26.17.4l.04.09s.02.05.04.08c.09-.17.18-.34.25-.51.06-.14.12-.28.14-.43,0-.02-.01-.03-.02-.05-.02-.04-.03-.08-.05-.12-.06-.13-.11-.26-.17-.4s-.11-.26-.17-.4l-.04-.09s-.02-.05-.04-.08Z"/><path d="M98.27,135.93s-.02.06-.02.09c0,0,0,.01,0,.02s0,.02,0,.02c0,0,0,0,0,0,0,0,0,0-.01,0,0,0-.02,0-.02,0l.48,1.12c0-.07-.02-.13-.04-.2v.02s.01-.06.02-.1c0,0,0-.02,0-.02,0,0,0,0,0-.01,0,0,0,0,0,0,.01,0,.02.02.04.03l-.48-1.12c0,.06.02.11.04.17.03.09.07.17.11.26.06.14.12.29.18.43.05.11.1.22.15.33l.03.06s.01.03,0,0c0,0,0-.01,0-.02v.02s-.01-.07-.02-.1c0,0,0-.02,0-.03,0-.03-.02-.05-.03-.08-.03-.07-.06-.13-.08-.2-.09-.21-.18-.42-.27-.62-.03-.06-.05-.11-.08-.17,0-.01-.01-.04-.03-.05,0,0-.01,0-.02-.01,0,0-.01-.01-.02-.02,0,0,0,0,0,0,0,0,0,0,0,0,0,0,0,.01,0,.02,0,0,0,.02,0,.02,0,.02,0,.04,0,.05,0,0,0,.02,0,.02,0,.01,0,.03.01.04v-.02c.01.05.02.11.02.16,0,.02.01.03.02.05.02.04.03.08.05.12.06.13.11.26.17.4s.11.26.17.4l.04.09s.02.05.04.08c0,0,.02,0,.02,0,0,0,0,0,.01,0,0,0,0,0,0,0,0,0,0-.02,0-.02s0-.01,0-.02c0-.03.01-.06.02-.09,0-.02-.01-.03-.02-.05-.02-.04-.03-.08-.05-.12-.06-.13-.11-.26-.17-.4s-.11-.26-.17-.4l-.04-.09s-.02-.05-.04-.08Z"/><path d="M114.18,137.77c-.95.46-2.03.96-3.1,1.06s-2-.41-2.93-.84c-2.08-.96-3.92-1.53-6.15-.74-.99.35-1.98.77-3.01,1-1.12.25-2.1-.13-3.11-.63-1.13-.56-1.85-1.05-3.17-1.03-1.12.01-1.96.38-3.01.66l.48,1.12c1.41-1.24,4.09-3.21,5.92-1.76.91.72,1.75,1.53,2.99,1.58s2.67-.65,3.84-1.08c1.09-.4,2.28-.82,3.43-.36,1.08.43,1.93,1.26,3.03,1.69,2.5.99,5.06-.23,7.46-.99l-.48-1.12c-.64.65-1.33,1.1-2.17,1.46,0,0,.47,1.12.48,1.12.84-.36,1.53-.81,2.17-1.46.05-.05-.5-1.11-.48-1.12-2.31.73-4.83,1.94-7.25,1.08-1.14-.41-1.99-1.19-3.06-1.69-1.2-.56-2.42-.16-3.6.28-1.12.41-2.4,1.05-3.61,1.09-1.2.04-2.23-.68-3.09-1.44-1.85-1.63-4.54.28-6.05,1.61-.04.04.48,1.12.48,1.12,1.06-.28,1.89-.64,3.01-.66,1.32-.02,2.04.47,3.17,1.03,1.01.5,1.98.88,3.11.63,1.03-.23,2.02-.65,3.01-1,2.23-.79,4.07-.22,6.15.74.93.43,1.89.94,2.93.84s2.14-.6,3.1-1.06c.03-.01-.49-1.12-.48-1.12Z"/><path d="M105.22,141.21s0,0,0,0c-.51.02-1.04.18-1.56.03-.76-.39-.53-1.19-1.89-1.04-1.46.13-2.81.76-4.22,1.11-.61.1-1.52.67-2.05.19-.99-1.6-1.59-2.05-3.48-1.47-.52.18-2.73,1.13-2.17,1.85-.03.01-.07.03-.1.04-.47-.2-.56.61-.2.78.41.22.8-.2,1.18-.32.57-.23,1.17-.37,1.79-.38.31,0,.72-.17.98.06.56.54.47,1.44,1.05,1.95.66.63,1.63.48,2.42.2.69-.27,1.85-1.21,2.59-1.02.53.64,1.47.79,2.24.58.64-.21,1.06-.81,1.67-1.09.53-.27,1.08-.47,1.67-.58.43-.06.48-.72.1-.88ZM101.43,143.02c-2.12.02-1.06-1.87-3.78-.11-.6.43-1.14,1-1.93,1.04-.44.05-.92-.24-1.06-.66-.08-.57-.18-1.16-.5-1.66-.57-1.2-2.02-.56-2.98-.29.8-.49,1.76-.9,2.71-.7.65.23.97.9,1.4,1.38.64.59,2.52.2,3.33.03,1.24-.27,2.56-1.49,3.84-.8.23.34.41.76.82.93-.65.23-1.17.75-1.87.84Z"/><path d="M105.18,141.82h0c.04-.12.05-1.21.09-1.22-.53.04-1.21.24-1.69-.05-.26-.16-.38-.44-.59-.64-.62-.62-1.77-.26-2.51-.07-1.15.29-2.3.66-3.44,1.02-.4.12-.94.36-1.35.14-.35-.19-.53-.72-.79-1.03-1.04-1.22-2.58-.77-3.84-.11-.49.25-1.13.58-1.27,1.16-.09.37-.21,1.13,0,1.47l.09-1.22c-.34.12-.45,0-.53.44-.06.33-.08.72-.07,1.05.03,1.19,1.53.13,2.14-.02.45-.11,1.39-.34,1.85-.17.51.19.61.94.79,1.37.48,1.16,1.67,1.29,2.75.91.72-.26,1.87-1.37,2.69-1.05.24.09.44.4.71.51s.57.16.87.16c.6,0,1.04-.25,1.5-.61s.94-.66,1.52-.88c.48-.18,1.15-.14,1.33-.68.13-.41.23-1.43-.17-1.69.16.11-.26,1.1-.09,1.22.19.13.25.25.26.48l.09-1.22c-.1.43-.48.41-.85.52-.44.12-.88.29-1.27.51-.78.43-1.26,1.12-2.22,1.13-.41,0-.82-.09-1.16-.31-.36-.23-.44-.44-.91-.35-.75.15-1.34.7-2.03.98s-1.57.43-2.23.03c-.77-.47-.64-1.37-1.18-1.99-.46-.55-1.81-.19-2.41-.01-.49.15-1.85,1.08-1.89.03l-.09,1.22c.07-.39.24-.25.52-.36.05-.02.13-1.14.09-1.22-.06-.1-.08-.16-.09-.28l-.09,1.22c.19-.96,1.98-1.54,2.81-1.72.61-.13,1.24-.16,1.78.21s.86,1.41,1.48,1.58c.65.17,1.76-.35,2.39-.53,1-.3,1.99-.68,3.02-.85.75-.13,1.35-.18,1.86.43.17.2.32.43.58.54.45.19,1.1,0,1.56-.03l.09-1.22h0c-.12.38.04.84-.09,1.22Z"/><path d="M101.47,142.41c-.43,0-.84-.07-1.2-.32-.21-.15-.38-.37-.62-.48-.33-.14-.7,0-1.01.14-.66.3-1.18.77-1.78,1.17-.54.36-1.32.66-1.88.17-.31-.27-.3-.61-.37-.98s-.2-.74-.4-1.08c-.66-1.15-1.97-.58-2.98-.29l-.09,1.22c.58-.35,1.21-.66,1.9-.74s1.2.14,1.65.69c.31.38.53.8,1.02.95s1.04.09,1.54.04c1.09-.13,1.99-.46,2.99-.89.55-.24,1.16-.45,1.77-.31s.7.8,1.24,1.09l.09-1.22c-.64.25-1.18.71-1.87.84-.11.02,0,1.2-.09,1.22.69-.13,1.22-.59,1.87-.84.04-.02.11-1.2.09-1.22-.5-.26-.62-.91-1.15-1.07-.6-.18-1.21.02-1.77.25-1.03.43-1.96.79-3.08.92-.48.06-1,.1-1.48-.02-.51-.13-.72-.51-1.03-.9-.44-.54-.88-.82-1.6-.76s-1.39.37-2,.74c-.16.1.06,1.17-.09,1.22,1.01-.3,2.32-.86,2.98.29.2.34.32.7.4,1.08.08.37.07.72.37.98.56.49,1.34.19,1.88-.17.6-.4,1.12-.86,1.78-1.17.31-.14.68-.28,1.01-.14.23.1.39.31.59.46.37.26.78.34,1.23.34.03,0,.07-1.22.09-1.22Z"/><path d="M116.58,139.89c-.4-.13-.54.37-.75.59-.49.3-1.01.53-1.5.83-.67.37-1.29.86-2.01,1.11-.82.28-.35-.86-1.34-1.41-.69-.44-1.56-.28-2.26.05-.53.25-2.74,1.31-1.66,1.97.22.3.51.06.71-.12.5-.38,1.37-.99,1.89-.33.26.43.43.92.82,1.26.38.3.81.58,1.29.67,1.79-.02,3.41-.57,4.28-2.24.23-.66,1.41-1.81.55-2.37ZM111.85,143.97c-1.65-.14-1.25-1.78-2.23-2.38,1.8-.31,1.48,1.12,2.15,1.4.79.26,2.57-.62,3.34-.98-.84.98-1.98,1.71-3.26,1.96Z"/><path d="M116.2,139.42c-.43-.08-.5.35-.75.59-.19.18-.52.3-.75.42-.25.13-.51.27-.75.41-.45.26-.88.56-1.34.8-.24.13-.84.54-1.11.26l.76.93c-.23-.34-.28-.76-.55-1.09-.35-.45-.71-1-1.24-1.27-1.06-.53-2.3.12-3.21.7-.3.19-.8.5-.87.88-.07.41.52.89.75,1.15.11.13.26.32.41.39.31.15.56-.19.79-.36.49-.35,1.2-.76,1.69-.21l-.76-.93c.58,1,1.2,2.1,2.27,2.66,1,.52,2.56.07,3.48-.49.97-.59,1.45-1.59,1.98-2.55.19-.35.41-.77.18-1.15s-.61-.87-.98-1.14c.31.23.45.71.77.94.06.04.12.08.16.14l-.76-.92c.35.47-.08,1.08-.33,1.5-.31.51-.54,1.06-.93,1.51-.84.96-2.09,1.36-3.33,1.43-.38.02-.68-.03-1.02-.2-.2-.1-.36-.24-.55-.35-.28-.23-.19-.11.26.38-.05-.09-.1-.17-.15-.26-.29-.52-.61-.96-1.01-1.41-.43-.49-.94-.38-1.46-.07-.24.14-.44.34-.68.5-.3.19-.49.03-.72-.19l.76.92c-.5-.68,1.17-1.45,1.59-1.66.49-.24,1-.45,1.56-.45.44,0,.71.18,1.1.34.2.16.15.09-.14-.22-.24-.34-.31-.41-.19-.21.05.12.1.23.14.35.18.48.5.83.83,1.21.35.41.75.16,1.17-.06.74-.39,1.43-.87,2.17-1.25.3-.16.67-.3.87-.58.17-.24.29-.49.63-.43-.09-.02-.32-.4-.38-.48-.07-.09-.27-.45-.39-.47Z"/><path d="M111.46,143.5c-.41-.04-.7-.17-1-.44l.65.79-.05-.07s-.05-.07-.07-.11c-.04-.07-.07-.14-.11-.21-.07-.14-.12-.29-.18-.43-.12-.28-.25-.54-.44-.78-.31-.39-.61-.87-1.03-1.15l.77.94c.33-.05.69-.08,1.01.05.11.05.2.11.29.19.4.33-.87-1.19-.57-.69.03.05.05.09.08.14.31.57.66,1.09,1.13,1.56.38.39,1.13.14,1.57,0,.68-.22,1.32-.53,1.97-.83l-.77-.94c-.85.98-1.97,1.7-3.26,1.96.04,0,.34.43.38.48.04.05.33.48.39.47,1.28-.26,2.4-.98,3.26-1.96,0-.01-.74-.96-.77-.94-.62.29-1.25.59-1.9.81-.33.11-.68.21-1.03.22-.13,0-.28,0-.4-.05-.48-.19-.03-.24.47.66-.1-.17-.18-.35-.27-.52-.19-.34-.46-.63-.71-.92-.18-.22-.35-.45-.62-.57-.32-.13-.68-.11-1.01-.05.04,0,.34.43.38.48.11.14.24.37.39.47.07.04.13.09.19.14.45.38-.83-1.14-.5-.61.08.13.14.27.21.41.12.28.23.58.4.84.27.41.61.82.95,1.17.27.27.62.39.99.42-.01,0-.12-.15-.11-.14-.09-.11-.18-.22-.27-.33s-.18-.22-.27-.33c-.02-.02-.09-.13-.12-.14Z"/><path d="M107.89,116.84c.46.14.95-.06,1.42-.11.4-.07.39-.95.46-1.28.03-.44.16-.93-.05-1.33-.2-.27-.58-.11-.86-.15-.18-.01-.38-.17-.55-.05-.26-.25-.53.09-.49.36-.05.69-.65,2.12.08,2.55ZM109.28,114.58s0,.03,0,.04c0,.03,0,.07-.01.1,0,0,0-.02,0-.03-.01-.04-.03-.08-.05-.12.02,0,.05,0,.07,0Z"/><path d="M107.77,117.43c.45.13.89-.04,1.34-.1.3-.04.37-.31.43-.57.13-.55.25-1.1.32-1.66.02-.17.03-.22.05-.39.02-.22.06-.44.05-.66,0-.19-.02-.46-.17-.59-.13-.11-.3-.11-.46-.1-.19.01-.35.02-.54-.04-.09-.03-.19-.06-.28-.04-.02,0-.05.03-.06.03-.04,0-.02,0-.05-.02s-.07-.05-.12-.05c-.16-.03-.28.13-.32.26-.06.18-.09.37-.13.55-.05.23-.12.47-.14.7-.01.13-.02.25-.04.38.02-.13.06-.28.09-.41,0,.03-.02.07-.02.1-.04.16-.07.33-.11.49-.09.43-.2.87-.2,1.31,0,.31.08.62.36.8-.02-.01.12-.54.13-.59.03-.14.06-.28.09-.42,0-.02.04-.17.03-.18-.42-.26-.38-.83-.32-1.25,0-.06.02-.12.03-.18,0-.02,0-.02,0,0-.02.1-.04.19-.06.29,0,.05-.03.13,0,.04.05-.24.1-.47.15-.71.04-.17.07-.35.1-.52.02-.11,0-.23.03-.33l-.25,1.15c.03-.12.11-.24.23-.27.06-.01.11,0,.16.02.02,0,.06.06.08.06.02,0,.09-.04.12-.05.15-.02.29.08.43.09.13.02.27,0,.4-.01.12,0,.25,0,.36.07.13.09.18.26.2.41.05.34-.02.68-.05,1.01v-.08c-.02.18-.04.36-.06.54,0,.05-.02.11-.02.16-.07.42.35-1.36.18-.87-.03.08-.06.17-.12.23-.05.06-.11.09-.18.11-.15.03-.3.05-.45.08-.32.06-.64.12-.96.03.02,0-.29,1.18-.26,1.19Z"/><path d="M109.16,115.18s0,.1-.01.15l.26-1.19c-.01-.05-.03-.1-.06-.15l-.26,1.19s.05,0,.07,0c0-.02,0-.03.01-.05,0-.04.02-.08.03-.12.03-.14.06-.28.09-.42s.06-.28.09-.42l.02-.09s.01-.05.01-.08c-.02,0-.05,0-.07,0,0,.02,0,.03-.01.05,0,.04-.02.08-.03.12-.03.14-.06.28-.09.42s-.06.28-.09.42l-.02.09s-.01.05-.01.08c.03.05.04.1.06.15,0-.02,0-.03.01-.05,0-.04.02-.08.03-.12.03-.14.06-.28.09-.42s.06-.28.09-.42c.01-.06.03-.12.03-.18,0-.05.01-.1.01-.15,0,.02,0,.03-.01.05,0,.04-.02.08-.03.12-.03.14-.06.28-.09.42s-.06.28-.09.42l-.02.09s-.01.05-.01.08Z"/><path d="M111.77,70.87c.17.03.33.1.47.2.48.22.58-.59.22-.78-.44-.33-1.36-.45-1.07.38.06.14.22.26.38.2Z"/><path d="M111.17,70.97c.12.03.23.07.34.12.08.04.15.1.24.11.05,0,.1,0,.15,0,.35-.05.71-.1,1.06-.16.08-.01.15-.03.21-.08.17-.16.15-.48,0-.65-.04-.05-.09-.08-.14-.11-.05-.04-.11-.07-.17-.1-.12-.06-.25-.1-.38-.12-.06,0-.13-.01-.19-.01-.08,0-.15.02-.23.03-.34.05-.69.09-1.03.16-.1.02-.21.06-.26.16-.08.13-.04.31,0,.45.04.1.12.19.23.22.03,0,.05.01.08.01.09,0,.18-.02.27-.04.26-.04.53-.08.79-.12.07-.01.15-.02.22-.04-.02,0-.03,0-.05,0-.04,0-.08.01-.12.02-.14.02-.28.04-.43.06s-.28.04-.43.07c-.06,0-.12.01-.18.03,0,0-.02,0-.03,0h.02s0,0-.01,0l1.1-.17h-.01s.06,0,.08,0c-.27.02-.39-.31-.37-.53.01-.15.11-.26.26-.3h-.02s.02,0,.02,0l-1.12.17s.01,0,.02,0h-.02c.25-.02.51.07.72.2.1.07.19.13.24.24.05.11.05.24.03.35s-.1.23-.22.26h.02s.09-.02.14-.03l.95-.15h.04s.01,0,.02,0c-.1,0-.17-.04-.25-.08-.12-.07-.25-.12-.39-.15-.02,0-.03,0-.05,0-.04,0-.08.01-.12.02-.14.02-.28.04-.43.06s-.28.04-.43.07l-.09.02s-.05,0-.08.02Z"/><path d="M111.44,73.38c.46.31.66-.5.31-.72-.21-.16-.42-.32-.6-.51-.09-.13-.23-.26-.39-.19-.61.48.3,1.13.68,1.43Z"/><path d="M110.84,73.27c.11.07.25.08.38.11.27.05.53.09.8.14.07.01.15.03.23.03.11,0,.19-.09.23-.19.05-.11.06-.24.03-.36-.04-.15-.14-.22-.25-.32-.19-.15-.39-.29-.53-.48-.06-.08-.14-.15-.24-.17-.25-.06-.51-.09-.76-.13-.13-.02-.26-.04-.39-.06-.03,0-.07-.01-.1,0-.15,0-.26.2-.28.34s.05.27.12.39c.19.29.49.51.76.72.03.02.16.03.18.03.14.03.28.05.42.07s.28.05.42.07h.09s.05.02.08.03c-.26-.21-.54-.41-.73-.68-.09-.12-.16-.26-.15-.41,0-.07.03-.14.07-.2.06-.09.13-.16.24-.15h-.02s.01,0,.02,0l-1.16-.2h.02s-.01,0-.02,0c.09.03.16.09.22.17.06.08.14.15.22.22s.16.14.25.2c.07.05.15.1.21.16.15.15.17.42.07.6-.05.1-.14.16-.26.15h.02s0,0-.01,0l.74.12.39.07h.02s-.09-.03-.13-.06c-.03-.02-.15-.03-.18-.03-.14-.03-.28-.05-.42-.07s-.28-.05-.42-.07h-.09s-.05-.02-.08-.03Z"/><path d="M109.49,74.04c-.07-.3-.04-.65-.16-.93-.09-.21-.4-.29-.52-.06-.16.35,0,.75.03,1.12.11.56.74.44.65-.12Z"/><path d="M110.08,73.89c-.04-.18-.05-.37-.07-.56-.02-.15-.04-.35-.15-.47-.04-.04-.1-.08-.15-.09-.1-.03-.21,0-.31.03-.28.07-.57.14-.85.21-.07.02-.16.03-.23.07-.06.04-.1.09-.12.16-.06.18-.05.37-.02.56.01.09.03.19.05.28.01.09.02.18.04.26.03.11.08.21.18.28.1.07.2.05.31.03.33-.08.65-.16.98-.24.06-.02.12-.03.17-.05.05-.02.08-.05.11-.09.08-.1.09-.24.07-.37,0,0-.55.13-.59.14-.14.03-.28.07-.42.11-.02,0-.17.04-.17.05.03.18-.02.41-.21.47h.02s.03-.01.04-.02l1.02-.26h.04s.01-.01.02-.01c-.18.03-.32-.11-.38-.28-.02-.07-.03-.14-.03-.2-.01-.08-.03-.17-.04-.25-.03-.16-.06-.33-.04-.49.01-.14.05-.33.21-.38h-.02s0,0,.01,0l-.73.19h.01c-.14.03-.28.06-.41.1h.01s-.01,0-.02,0c.09-.01.17.01.24.07.09.07.12.16.15.26.07.26.05.54.11.8,0,0,1.19-.28,1.18-.3Z"/><path d="M106.12,74.32c.18.2.44.08.53-.14.15-.22.3-.44.48-.63.11-.09.25-.17.26-.33.02-.72-.59-.6-.9-.12-.25.34-.76.8-.37,1.23Z"/><path d="M106.32,74.89c.13.14.32.13.44,0,.03-.03.05-.07.07-.11.03-.05.06-.1.1-.15.07-.1.14-.2.21-.29.07-.09.14-.18.23-.25.07-.05.14-.1.18-.18.04-.08.04-.18.03-.27,0-.04-.01-.08-.02-.12-.06-.2-.13-.4-.2-.59s-.13-.39-.21-.58c-.01-.03-.03-.06-.05-.09-.03-.04-.07-.08-.12-.1-.1-.05-.22-.02-.31.02-.13.06-.23.15-.32.26-.11.14-.21.28-.32.41-.12.16-.24.34-.25.54,0,.05,0,.09.01.13.05.21.14.41.21.62.06.17.12.34.18.5.01.04.03.08.05.12.03.05.06.1.1.14,0-.02,0-.03-.02-.05-.01-.04-.03-.08-.04-.12-.05-.14-.09-.27-.14-.41s-.1-.27-.14-.41l-.03-.09s-.02-.05-.03-.08c-.04-.05-.08-.1-.1-.16v.02s.01.02.02.03l.35.99v.03s.01.01.01.02c-.09-.36.24-.68.43-.93.09-.12.17-.25.3-.34.09-.07.21-.13.33-.13.13,0,.23.08.28.19v-.02c.01.05,0,.01-.05-.11l-.32-.9s-.01-.04,0-.02v-.02c.03.16.04.33-.08.45-.06.06-.13.1-.19.16-.07.08-.14.17-.21.26s-.13.18-.2.28c-.05.07-.08.15-.15.21-.13.12-.3.12-.42-.01,0,.02,0,.03.02.05.01.04.03.08.04.12.05.14.09.27.14.41s.1.27.14.41l.03.09s.02.05.03.08Z"/><path d="M104.97,72.86c.38.13.72-.29,1.1-.33.39-.08.34-.72-.02-.81-.38-.05-.72.21-1.07.33-.33.11-.29.65,0,.81Z"/><path d="M104.36,72.89c.06.02.11.03.17.03.13,0,.26-.01.38-.02.23-.01.45-.02.68-.04.16-.01.3-.03.45-.09.21-.09.4-.24.63-.27h-.02c.41-.04.4-.73.02-.81-.04,0-.07,0-.11,0-.11,0-.23,0-.35.01-.25.01-.5.03-.76.04-.08,0-.16,0-.24.02-.15.02-.3.08-.44.15s-.28.12-.42.18c-.09.04-.16.11-.19.2-.08.21,0,.49.2.6.02,0,.04,0,.05,0,.04,0,.08,0,.13,0,.14,0,.29-.01.43-.02s.29-.02.43-.03h.1s.06-.01.08-.01c-.18-.11-.25-.34-.21-.54.02-.1.07-.19.16-.24.06-.04.13-.05.19-.08.07-.03.15-.06.22-.1.16-.08.33-.15.51-.18h-.02c.45-.06-1.47.06-1.05.06h-.02c.11,0,.2.04.28.12.06.07.1.17.11.26.02.19-.07.39-.27.43h.02c-.33.03-.58.3-.9.35h.02c-.06,0-.02,0,.11-.01l.96-.05h.03s.01,0,.02,0c-.05,0-.1,0-.15-.03-.04-.01-.15,0-.18,0-.14,0-.29.01-.43.02s-.29.02-.43.03h-.1s-.06.01-.08.01Z"/><path d="M105.49,70.69c.17.04.34.07.51.1.38-.03.36-.61.07-.77-.22-.08-.62-.29-.8-.07-.18.24-.08.66.22.74Z"/><path d="M104.88,70.78c.09.02.19.04.29.06.05,0,.09.02.14.03.02,0,.04,0,.07.01.04,0,.08,0,.12,0,.32-.04.64-.09.96-.14.07-.01.15-.02.23-.04.04-.01.08-.04.11-.07.13-.13.12-.36.04-.52-.05-.09-.11-.15-.2-.19-.11-.05-.23-.1-.35-.12-.06-.01-.12-.03-.19-.02-.11,0-.23.03-.34.04-.2.03-.41.06-.61.09-.1.02-.2.03-.3.05-.12.02-.2.1-.24.21-.08.24.03.55.28.62.02,0,.03,0,.05,0,.04,0,.08-.01.12-.02.14-.02.28-.04.43-.06s.28-.04.43-.06l.09-.02s.05,0,.08-.02c-.18-.05-.29-.22-.31-.4s.05-.38.23-.43h-.02s.01,0-.03,0l-1.04.15s-.06,0-.03,0h-.02c.13,0,.26.03.37.08.06.02.11.04.17.07.05.02.09.04.12.07.13.13.18.35.12.53-.04.1-.11.17-.21.19h.02s-.01,0-.02,0l.58-.09h0c.19-.03.39-.05.58-.08,0,0-.01,0-.02,0h.02c-.17-.04-.34-.07-.51-.11-.02,0-.03,0-.05,0-.04,0-.08.01-.12.02-.14.02-.28.04-.43.06s-.28.04-.43.06l-.09.02s-.05,0-.08.02Z"/></svg>