<?xml version="1.0" encoding="UTF-8"?><svg id="Layer_1" xmlns="http://www.w3.org/2000/svg" viewBox="0 0 207.21 203.87"><path d="M117.76,71.02c-.11-.05-.39-.03-.65,0-.27.05-1.83.84-3.44,1.74-1.63.89-4.96,2.72-7.41,4.04-9.03,4.9-11.54,6.29-13.55,7.48-1.95,1.14-2.06,1.24-2.55,2.43-1.44,3.58-3.76,26.33-4.12,40.63-.12,4.95.02,6.02.7,5.36.16-.16.5-.4.74-.5.24-.1,1.16-.85,2.06-1.68,13.48-12.39,14.4-13.2,23.57-20.71,5.18-4.23,7.18-6.12,7.8-7.36.33-.65.36-1.42.12-3.54-.17-1.49-.73-7.13-1.23-12.53-1.21-12.73-1.51-15.1-2.05-15.37ZM117.53,77.54c.05-.27.18,1.26.36,3.4.14,2.15.37,4.95.49,6.2.1,1.27.49,4.65.82,7.56.35,2.93.49,5.3.33,5.34-.38.11-5.65-.77-5.67-.94-.02-.07.3-1.96.73-4.21.65-3.63,2.79-16.01,2.94-17.34ZM116.65,74.39l-.35,2.26c-.21,1.22-.91,5.39-1.58,9.22-1.78,10.15-2.25,12.55-2.38,12.59-.25.06-8.54-2.46-8.59-2.62-.09-.21,3.06-5.45,6.99-11.69,1.71-2.72,3.75-6.03,4.52-7.35l1.4-2.41ZM113.58,75.75c.53-.52.94-.91.97-.87,0,.05-.66,1.21-1.48,2.59-.8,1.39-2.25,3.69-3.21,5.16-.94,1.45-3.01,4.83-4.6,7.47l-2.9,4.83-1.15-.41c-.62-.23-1.95-.81-2.92-1.3-1.39-.69-1.76-.96-1.64-1.2.23-.46,4.48-4.58,10.52-10.19,3.02-2.79,5.91-5.54,6.42-6.07ZM99.24,82.56c2.1-1.11,5.59-3,7.7-4.19,2.14-1.2,3.94-2.14,3.99-2.12.04.02-.5.56-1.2,1.21-4.89,4.48-8.66,8.01-11.2,10.53-1.85,1.81-3.04,2.84-3.19,2.7-.54-.43-3.29-4.03-3.22-4.21.09-.17.58-.47,7.13-3.93ZM87.46,125.34c-.16.05.1-5.61.57-12.06.48-6.31,1.09-11.69,2.24-19.07.5-3.32.93-6.19.97-6.37.03-.5.15-.36,2.07,2.2,1.21,1.64,1.72,2.51,1.6,2.75-.11.22-1.8,7.6-3.75,16.42-1.96,8.84-3.62,16.11-3.69,16.13ZM88.7,126.17c-.13.04,2.54-11.61,5.14-22.6,1.19-5.09,2.04-9.05,2.14-10.06.04-.25.62.01,2.55,1.06,1.37.77,2.67,1.53,2.91,1.7.39.3.34.47-2.15,5.75-2.66,5.7-7.09,15.73-9.21,21-.73,1.72-1.33,3.15-1.39,3.15ZM89.71,127.22l.55-1.48c.85-2.23,5.81-13.6,8.98-20.54,1.56-3.39,3-6.65,3.2-7.25l.37-1.06,1.35.49c.74.26,2.73.88,4.39,1.39,4.03,1.2,3.92,1.15,3.5,1.67-.21.25-1.04,1.32-1.9,2.38-.83,1.07-4.89,5.92-9.02,10.78-4.12,4.87-8.37,9.91-9.47,11.23l-1.96,2.4ZM119.76,101.96c-.04.2-1.16,1.29-2.49,2.43-1.32,1.18-4.81,4.14-7.75,6.62-2.95,2.48-7.84,6.74-10.89,9.49-3.07,2.77-5.58,4.98-5.6,4.91-.03-.1,8.9-10.81,13.58-16.26,3.55-4.18,5.88-7.15,6.44-8.28.28-.56.42-.57,1.46-.32.63.15,2.07.47,3.23.69,1.68.33,2.1.46,2.02.72Z"/></svg>