<?xml version="1.0" encoding="UTF-8"?><svg id="Layer_1" xmlns="http://www.w3.org/2000/svg" viewBox="0 0 207.21 203.87"><path d="M150.38,115.9c.11-2.23-.56-4.36-1.06-6.51-.56-2.9-1.68-5.64-3.19-8.18-.96-1.86-1.56-3.88-2.87-5.54-1.4-2.07-2.62-4.29-4.3-6.15-3.23-4.1-7.65-6.95-11.64-10.22-1.4-1.01-2.99-1.63-4.64-2.12-1.52-.65-2.97-1.49-4.64-1.69-1.2-.31-2.36-.76-3.61-.81-.38-.01-.73-.37-1.1-.25-.5-.1-1.01-.18-1.52-.26.15-.81.06-1.66.06-2.47-.05-.85.23-1.95-.99-1.95-1.39,0-2.76-.22-4.14-.27-.17,0-.34.01-.51.02,0-.23-.03-.46,0-.64.09-2.81.07-5.62.04-8.42-.37-6.94-.13-13.89-.03-20.84.03-.32.13-.77-.3-.84-.22-.03-.41.13-.44.34-.33,5.05-.54,10.12-.52,15.18.22,5.11.28,10.22.19,15.33-.44.05-.87.11-1.31.16-.81-.03-1.61-.07-2.41.07-.58.1-1.35,0-1.73.53-.33.99-.5,2.02-.61,3.07-.03.21-.12.47-.17.73-2.7.36-5.37.92-7.97,1.63-5.18,2.11-10.48,4.22-14.88,7.76-5.88,5.28-10.76,11.64-14.18,18.77-.62,1.78-1.44,3.49-1.93,5.31-.31,1.88-.76,3.74-1.05,5.62-.81,3.35-.66,6.78-.3,10.19.42,4.72,1.29,9.42,3.07,13.83.95,2.21,2.1,4.3,3.29,6.38,1.07,2.54,2.81,4.75,4.8,6.65,3.66,3.3,7.53,6.43,11.84,8.84,2.9,1.56,5.78,3.25,8.97,4.16,2.4.71,4.93,1,7.43,1.16,1.68.14,3.31.63,5.01.65,4.68,0,9.51.17,13.9-1.73,4.5-.89,8.28-3.6,12.35-5.55,2.48-1.48,4.69-3.34,6.78-5.33.01,0,.03,0,.04.01.45.01.62-.35.74-.76,1.01-1,2-2.02,2.97-3.04,1.5-1.6,2.53-3.51,3.72-5.33.55-.77,1.14-1.51,1.57-2.36,2.52-4.78,4.37-9.91,5.15-15.27.41-3.25.27-6.56.17-9.83ZM149.04,113c.25,1.1.28,2.21.28,3.33-.19-.08-.47-.07-.79.11-.59.27-1.19.52-1.79.77.1-1.38.18-2.76.21-4.14.07-.02.15-.04.22-.07.35-.2,1.16-.3,1.74-.54.04.18.08.36.13.54ZM148.7,111.51c-.24.11-.49.24-.72.25-.33.11-.67.2-1,.29.02-1.81-.02-3.62-.17-5.43.19-.09.38-.19.56-.3.58,1.68.94,3.44,1.33,5.18ZM146.62,104.47c.15.32.3.65.43.98-.11.06-.22.12-.33.18-.02-.21-.04-.42-.07-.63-.04-.2-.06-.41-.08-.62.02.03.03.06.05.09ZM138.16,115.13c.15-.03.3-.06.45-.1-.04.07-.07.14-.09.21-.11.03-.2.11-.25.21-.01.03-.03.06-.04.08.02-.15-.01-.29-.07-.4ZM137.38,114.18c.01-.68,0-1.36-.03-2.04.03-.79.06-1.58.09-2.37,1.45-.38,2.87-.84,4.26-1.4-.17,1.7-.38,3.4-.51,5.1-1.27.22-2.55.42-3.81.7ZM137.91,119.95s-.04.01-.06.02c-.04,0-.09.01-.13.02.02-.07.04-.15.06-.22.03.08.08.14.14.19ZM137.37,115.28c-.01.06-.02.12-.03.18,0-.06,0-.12,0-.18,0,0,.02,0,.02,0ZM141.33,125.84c1.13-.31,2.26-.65,3.4-.98-.14,1.37-.28,2.73-.41,4.1-1.11.33-2.23.64-3.36.91.13-1.35.25-2.69.37-4.04ZM141.43,124.7c.05-.55.1-1.11.15-1.66.06-1,.13-2,.2-3.01,1.24-.4,2.5-.77,3.74-1.2-.17,1.6-.39,3.2-.62,4.8-1.14.39-2.3.74-3.46,1.07ZM145.5,128.2c.13.13.34.18.52.11.01.01.02.02.04.03.02.02.05.03.07.04-.22.08-.44.15-.67.23.01-.13.03-.27.04-.4ZM143.19,97.51s-.04-.01-.07-.02c0-.03,0-.06,0-.09.03.04.05.07.07.11ZM144.03,101.19c.32-.09.55-.3.65-.52.24.51.49,1.03.74,1.54-.18.16-.25.43.02.62.18,1.06.31,2.13.4,3.21-.41.17-.83.32-1.26.45-.58.17-1.16.34-1.75.5,0-.01,0-.03,0-.04.17-1.76.15-3.52.04-5.28.38-.15.77-.31,1.15-.48ZM142.85,100.54s-.03.01-.05.02c0-.02,0-.03,0-.05.02,0,.03.02.05.03ZM142.47,96.46s-.05.04-.07.06c0-.06-.01-.12-.01-.19.03.04.06.09.09.13ZM142.75,108.09c.81-.22,1.61-.49,2.4-.79.25-.1.5-.2.76-.3.07,1.43.07,2.87,0,4.3,0,.34,0,.69,0,1.03-.41.11-.81.23-1.21.36-.79.24-1.6.42-2.41.58.15-1.73.3-3.46.45-5.18ZM145.9,113.38c-.04,1.42-.13,2.84-.27,4.25-1.24.47-2.51.88-3.78,1.26.11-1.52.23-3.03.36-4.54,1.24-.28,2.47-.61,3.69-.97ZM141.92,105.52c-.03.59-.07,1.18-.12,1.78-1.19.35-2.38.72-3.55,1.16-.26.07-.52.15-.77.21.06-1.74.1-3.48.12-5.22,1.45-.43,2.91-.88,4.33-1.4.05,1.16.06,2.32,0,3.47ZM141.49,95.95c.1,1.66.26,3.31.37,4.97-.06.02-.11.04-.17.05-1.35.49-2.72.93-4.09,1.35,0-1.69-.01-3.39-.07-5.08,0-.04,0-.08,0-.12,1.34-.44,2.66-.97,3.92-1.63.04.16.07.32.04.46ZM141.29,94.64c-.06-.03-.13-.04-.2-.04-.28,0-.52.16-.77.26-.9.44-1.83.8-2.77,1.12.02-1.51.02-3.02-.32-4.51.5-.18.99-.36,1.49-.55.93,1.18,1.76,2.45,2.58,3.72ZM137.78,89.8c.12.14.24.27.36.41-.37.14-.73.27-1.1.4-.08-.53-.15-1.27-.25-1.93.34.36.66.74.98,1.12ZM137.02,121.17c1.23-.19,2.45-.43,3.65-.79-.11,1.54-.23,3.08-.36,4.61-1.16.3-2.33.56-3.51.8-.12.01-.23.03-.35.04.27-1.54.48-3.09.56-4.66ZM138.32,135.69c-1.16.28-2.32.51-3.49.74.18-1.02.27-2.05.37-3.09.05-.36.1-.73.15-1.09,1.46-.3,2.92-.61,4.37-.95-.03.23-.05.47-.08.7-.14,1.18-.28,2.35-.42,3.53-.3.05-.6.11-.91.15ZM138.5,136.78s-.02.03-.02.04c0-.01-.02-.02-.02-.03.02,0,.03,0,.05,0ZM137.61,136.96s-.02.04-.02.06c0-.02,0-.04,0-.06,0,0,.01,0,.02,0ZM136.58,139.28c0,.06,0,.12,0,.17-.02,0-.03,0-.05,0,.02-.06.04-.12.06-.18ZM136.43,137.2c-.02.06-.04.11-.07.17,0-.05-.01-.1-.02-.15.03,0,.06-.01.09-.02ZM135.4,139.36c0,.05-.01.11-.02.16-.01,0-.03,0-.04,0,.02-.06.04-.11.06-.17ZM135.16,140.62c-.07.01-.14.03-.22.04.03-.06.05-.12.06-.18.05.05.1.1.16.13ZM133.88,135.59c-.09.35-.18.7-.26,1.06-1.1.21-2.2.42-3.29.67.2-1.37.37-2.75.51-4.12,1.12-.24,2.25-.48,3.38-.71-.15,1.03-.27,2.07-.34,3.11ZM134.11,140.83s-.05,0-.07.01c-.03,0-.06.01-.08.02.02-.16.05-.32.07-.48,0,.18.02.33.08.45ZM114.26,152.04c.12-1.1.26-2.21.41-3.31,1.46-.04,2.91-.1,4.37-.17-.09.55-.2,1.09-.32,1.64-.12.56-.23,1.13-.34,1.7-.14,0-.28,0-.43,0-1.23.06-2.46.11-3.69.14ZM116,155.31s-.06,0-.1,0c.02-.02.03-.04.05-.07.01.02.03.04.05.06ZM115.29,153.09c-.11.14-.18.34-.24.5-.02-.17-.09-.36-.21-.48.15,0,.31-.01.46-.02ZM98.48,129.38c.05-1.68.09-3.36.07-5.04,1.55.06,3.1.09,4.65.08-.06,1.71-.1,3.42-.12,5.14-1.54-.02-3.07-.07-4.61-.17ZM103.04,130.66s0,.07,0,.11c-.11-.05-.25-.06-.45,0,0,0,0,0,0-.01,0-.03.01-.06.02-.09,0,0,0,0,.01,0,.14,0,.29,0,.43,0ZM100.47,130.78c-.21-.2-.55-.21-.75,0,0-.09-.01-.17-.04-.26.26.01.52.02.78.03,0,.07,0,.14.01.22ZM98.74,134.74c-.13,0-.26,0-.39,0,0-.18,0-.37,0-.55.09.01.19,0,.31-.02-.01.19,0,.4.07.58ZM97.66,113.29c-.07,1.46-.12,2.93-.14,4.4-.57,0-1.15,0-1.72-.02-.7-.04-1.4-.11-2.1-.2-.01-1.41.02-2.82.08-4.23,1.29.02,2.59.03,3.88.04ZM94.44,107.77c.06,0,.12,0,.18,0,0,.02.01.04.03.06-.01,0-.02,0-.04,0-.06-.03-.11-.05-.17-.07ZM93.97,150.97c-.04-.54-.08-1.07-.14-1.61-.04-.48-.06-.96-.08-1.45,1.18.06,2.36.1,3.54.17,0,1.06-.01,2.12,0,3.18-1.11-.06-2.22-.17-3.33-.3ZM96.47,152.31s0,.03,0,.04c-.01.05-.03.1-.04.16-.04-.09-.08-.16-.14-.22.06,0,.12.01.19.02ZM95.42,152.21c.12.01.23.02.35.03-.16.09-.29.28-.32.5.03-.16.02-.36-.03-.54ZM93.73,146.85c-.01-.89-.02-1.78-.05-2.68,1.22.11,2.45.2,3.67.28-.02.86-.03,1.73-.04,2.59-1.2-.05-2.39-.11-3.58-.2ZM93.63,143.07s0-.08,0-.12c0-.99-.08-1.98-.15-2.96,1.31.12,2.62.22,3.93.3,0,.12.01.25.02.37,0,.9-.02,1.81-.04,2.71-1.25-.09-2.5-.19-3.74-.3ZM93.33,135.56c.1.01.2.03.3.04,1.21.13,2.43.19,3.65.21,0,1.13.03,2.26.08,3.39-1.32-.08-2.64-.18-3.96-.31-.05-.83-.09-1.67-.06-2.51,0-.28,0-.55-.01-.83ZM93.3,134.47c-.04-1.42-.1-2.85-.13-4.27,1.39.11,2.79.18,4.18.24-.05,1.43-.08,2.86-.09,4.29-1.28-.03-2.57-.09-3.84-.24-.04,0-.08-.01-.13-.02ZM97.4,129.35c-1.41-.05-2.83-.14-4.24-.26,0-.73.01-1.46.05-2.18-.02-.96.01-1.92.07-2.87,1.4.09,2.79.18,4.19.25,0,1.33,0,2.65-.02,3.98-.02.36-.04.72-.05,1.08ZM84.24,141.89c-.09-1.04-.16-2.09-.21-3.13,1.02.17,2.05.33,3.07.48,0,.45,0,.9,0,1.36.07.59.13,1.17.18,1.76-1.02-.14-2.04-.3-3.06-.47ZM84.4,143.02s-.03.02-.05.03c0-.01,0-.03,0-.04.02,0,.03,0,.05,0ZM75.99,136.03c-.04-1.2-.07-2.4-.1-3.6,1.05.25,2.1.49,3.16.71,0,1.2,0,2.39.03,3.59-1.03-.22-2.06-.45-3.09-.7ZM77.95,137.59s-.01.03-.02.04c0,0,0,0,0,0,0,.01,0,.02,0,.03,0-.03-.02-.06-.04-.09.02,0,.04,0,.06.01ZM76.16,140.35s0,0,0,0c0,0,0,0,0,0,0,0,0,0,0,0ZM75.86,131.33c-.03-1.37-.06-2.74-.08-4.11,1.13.27,2.26.53,3.39.77-.06,1.35-.1,2.71-.12,4.06-1.07-.22-2.13-.46-3.19-.72ZM78.88,137.79c.08.02.15.03.23.05,0,.05,0,.09,0,.14-.07,0-.16.02-.26.06.02-.09.03-.17.02-.25ZM79.22,140.27c.01.24.03.48.04.72-.08-.02-.17-.03-.25-.05.09-.22.15-.45.21-.67ZM79.22,126.89c-1.15-.25-2.3-.52-3.45-.79,0-.17,0-.34,0-.52-.01-1.35,0-2.7.03-4.04,1.19.27,2.39.52,3.6.73-.11,1.54-.18,3.08-.17,4.62ZM74.7,125.83c-1.06-.27-2.13-.55-3.18-.84.09-1.49.2-2.97.32-4.46.97.27,1.95.52,2.93.76-.04,1.51-.06,3.02-.06,4.54ZM74.71,127.08s-.1,0-.15,0c-.01-.08-.05-.15-.1-.2.08.02.16.04.25.06,0,.04,0,.09,0,.13ZM73.91,126.75c-.08.03-.15.08-.21.17,0-.07-.01-.15-.02-.22.07.02.15.04.22.06ZM70.2,134.55c-1-.27-2-.56-2.99-.88,0-.16,0-.32,0-.48.03-1.08.06-2.15.11-3.23.96.32,1.92.63,2.89.93-.02,1.22-.03,2.44-.01,3.66ZM68.64,129.2c-.42-.14-.84-.27-1.27-.41.06-1.29.13-2.57.2-3.86.65.21,1.3.41,1.95.62.29.09.59.17.89.25-.07,1.31-.13,2.62-.17,3.93-.54-.17-1.07-.35-1.6-.53ZM63.51,111.02c.08-1.09.18-2.18.31-3.27.03-.15.05-.3.08-.45.52.2,1.06.39,1.6.58.75.24,1.51.49,2.26.74-.09,1.3-.2,2.61-.31,3.91-1.33-.46-2.65-.97-3.94-1.5ZM68.29,124.05c-.21-.07-.43-.14-.65-.21.09-1.48.2-2.96.31-4.43.95.29,1.9.57,2.85.84-.12,1.48-.24,2.97-.33,4.45-.73-.21-1.46-.42-2.19-.65ZM70.71,146.84c.08,0,.15-.02.21-.04.01.11.03.22.04.33-.13-.04-.25-.07-.38-.11.06-.05.1-.11.13-.18ZM70.9,119.19c-.05-.02-.1-.03-.15-.04-.9-.25-1.81-.5-2.71-.77.12-1.47.24-2.93.37-4.4.96.31,1.92.59,2.9.84-.14,1.46-.28,2.91-.41,4.37ZM71.11,113.65c-.87-.23-1.74-.49-2.61-.77.08-1.31.16-2.62.25-3.94,1,.33,2,.65,3.01.96-.08.74-.15,1.49-.2,2.23-.05.53-.1,1.06-.15,1.59-.1-.02-.2-.05-.3-.07ZM68.84,107.83c.11-1.45.23-2.89.36-4.34.66.24,1.32.47,2,.67.42.13.85.25,1.27.38-.2,1.42-.4,2.84-.58,4.27-1.02-.31-2.04-.64-3.05-.98ZM71.32,130.05c.09,0,.2-.04.32-.1,0,.09.01.17.04.24-.12-.04-.25-.08-.37-.11,0,0,0-.02,0-.03ZM71.92,119.48c.07-.93.15-1.86.22-2.78.06-.55.11-1.09.16-1.64.9.22,1.81.41,2.72.59-.1,1.52-.17,3.04-.22,4.56-.96-.22-1.92-.47-2.88-.74ZM72.4,113.96c.12-1.25.23-2.5.36-3.75.89.27,1.78.52,2.67.75-.12,1.17-.23,2.35-.34,3.52,0,.02,0,.04,0,.06-.9-.18-1.8-.38-2.69-.59ZM72.88,109.11c.15-1.43.33-2.87.54-4.3.87.25,1.74.49,2.61.72-.17,1.44-.33,2.89-.48,4.33-.89-.24-1.78-.49-2.67-.76ZM77.72,94.39c-.26,1.42-.51,2.85-.76,4.27-.91-.21-1.83-.42-2.74-.64.16-1.5.32-3,.52-4.5.99.31,1.98.6,2.98.87ZM76.56,88.3s0-.06,0-.09c.04.02.08.04.12.05-.04,0-.09.02-.13.04ZM77.77,100.08c0-.05.02-.11.02-.16.01,0,.03,0,.04,0-.02.05-.05.1-.07.15ZM77.81,104.8s0,.03,0,.05c-.01,0-.02,0-.03,0,.01-.01.03-.03.04-.04ZM77.79,88.77c-.05-.06-.12-.11-.2-.14-.11-.04-.24-.04-.35,0-.01-.07-.04-.14-.08-.19.23.09.47.18.7.27-.02.02-.05.03-.07.06ZM76.78,99.68c-.03.19-.06.37-.1.56-.18,1.4-.36,2.79-.52,4.19-.02,0-.05-.01-.07-.02-.84-.22-1.67-.44-2.51-.67.2-1.57.37-3.15.53-4.72.89.23,1.78.45,2.67.67ZM75.82,120.45c.05-1.53.12-3.07.22-4.6,1.29.24,2.59.46,3.89.66,0,.04,0,.08,0,.11-.16,1.51-.31,3.03-.44,4.54-1.22-.21-2.44-.45-3.66-.71ZM77.84,111.68s.02-.09.02-.13c.02,0,.04,0,.06.01-.03.03-.05.07-.07.12ZM78.69,111.72c.19.04.37.07.56.1,0,.01-.01.02-.02.04,0,0,0,0,0,0-.02.06-.03.11-.04.16-.07-.1-.17-.18-.29-.21-.06-.01-.12-.01-.18,0,0-.03-.01-.06-.02-.09ZM77.02,110.24c-.17-.04-.34-.09-.52-.13.14-1.45.31-2.89.48-4.34,1.28.32,2.56.61,3.86.84-.15,1.43-.29,2.86-.43,4.3-1.14-.2-2.27-.43-3.4-.67ZM77.91,93.31s0,0,0,0c0,0,0,0,0,0,0,0,0,0,0,0ZM86.61,90.93c-.16.85-.33,1.69-.48,2.54-.09.51-.16,1.03-.22,1.55-.9-.15-1.79-.32-2.68-.49.18-1.35.36-2.69.55-4.04.94.18,1.89.33,2.84.45ZM84.4,86.11s0-.03,0-.04c.13.03.26.06.39.09,0,0-.01.02-.02.03-.15-.08-.27-.1-.38-.07ZM93.96,111.66s-.08.08-.11.12c0-.18.02-.35.03-.53.06.14.18.25.33.29-.09.02-.18.06-.25.12,0,0,0,0,0,0ZM93.72,100.38c-.03.28-.06.57-.08.85-1.09-.05-2.19-.11-3.28-.17.26-1.23.51-2.47.65-3.72.03-.18.06-.35.08-.53.46.05.91.09,1.37.13.53.07,1.06.14,1.59.21-.07,1.08-.16,2.15-.32,3.22ZM93.73,122.97s0,.03.01.04c-.13,0-.26-.02-.39-.03,0-.04,0-.09.01-.13.06-.02.12-.04.19-.07.04.08.1.15.17.19ZM90.18,95.64c-1.07-.13-2.14-.28-3.21-.45.18-1.37.44-2.73.7-4.09,1.01.21,2.02.39,3.04.54-.18,1.33-.35,2.67-.54,4ZM90.03,96.7s0,.06-.01.09c-.02-.04-.04-.07-.06-.1.03,0,.05,0,.08,0ZM89.04,102c-.11.5-.21,1-.27,1.5-.09.92-.19,1.83-.29,2.75-.93-.08-1.87-.16-2.8-.23.19-1.48.4-2.95.59-4.42.71.12,1.42.23,2.13.34.22.02.43.04.65.06ZM88.92,100.93s.03-.08.04-.12c.14.03.26.03.35,0-.01.06-.03.11-.04.17-.12-.01-.24-.03-.35-.04ZM88.35,123.62c.6.08,1.2.15,1.8.21.69.05,1.39.1,2.08.15-.09,1.67-.14,3.35-.15,5.03-1.2-.12-2.4-.26-3.6-.43-.07-1.65-.14-3.3-.13-4.95ZM88.62,138.36c-.1-.01-.19-.02-.29-.04.14-.13.21-.34.24-.53,0,.18,0,.38.05.57ZM88.36,133.66c.06-1.33.12-2.66.13-3.99.19.03.38.06.58.08,1,.15,2.01.26,3.02.36,0,.94.03,1.87.07,2.81.02.46.04.93.05,1.39-1.28-.2-2.56-.42-3.84-.64ZM92.23,135.41s0,.07,0,.11c-.07,0-.14,0-.23.01-.03-.07-.06-.13-.11-.18.11.02.23.03.34.05ZM88.37,122.49c.02-.81.07-1.62.15-2.43.04-.77.06-1.54.07-2.31,1.34.22,2.67.48,4.01.68-.12,1.49-.23,2.98-.32,4.46-1.31-.11-2.61-.24-3.91-.4ZM88.62,116.67c.03-1.21.06-2.41.16-3.61,1.3.09,2.61.14,3.92.17-.06,1.37-.09,2.73-.09,4.11-1.34-.19-2.66-.43-3.99-.66ZM88.89,111.98c.17-1.51.35-3.03.53-4.54,1.21.09,2.42.18,3.63.25-.12,1.49-.22,2.98-.3,4.47-1.29-.03-2.57-.09-3.86-.18ZM87.31,86.85c-.08-.04-.18-.07-.31-.07-.05-.09-.14-.16-.24-.2-.07-.03-.16-.03-.23-.02,0-.01,0-.03,0-.04.27.05.54.11.8.16,0,.06-.02.12-.03.17ZM85.78,96.11c-.13,1.28-.23,2.56-.38,3.84-.02.14-.04.29-.06.43-.93-.17-1.86-.35-2.79-.54.17-1.41.34-2.81.52-4.22.9.17,1.8.33,2.71.48ZM85.2,101.42c-.21,1.52-.43,3.03-.61,4.55-.9-.06-1.8-.16-2.69-.29.17-1.59.34-3.18.53-4.77.92.18,1.85.35,2.77.51ZM83.98,128.94c1.14.2,2.27.39,3.41.56-.01,1.32-.06,2.65-.11,3.97-.81-.14-1.63-.28-2.44-.41-.29-.04-.58-.08-.86-.13,0-1.33,0-2.66,0-3.99ZM87.29,122.36c-1.04-.14-2.08-.29-3.11-.46.08-1.05.18-2.11.32-3.16.05-.5.07-1.01.07-1.51.14.02.27.04.41.07.85.06,1.69.16,2.53.28,0,.28,0,.56,0,.84-.04,1.31-.15,2.63-.21,3.94ZM87.39,128.41s-.09-.01-.14-.02c.05-.02.09-.05.14-.07,0,.03,0,.06,0,.09ZM86.22,123.3c.09.01.18.03.27.04-.11.26-.19.53-.29.79,0-.23.06-.56.02-.84ZM84.3,127.9c-.11-.02-.21-.04-.32-.06,0-.02,0-.03,0-.05.04,0,.09-.02.15-.03.05.05.11.1.17.14ZM87.56,145.93c0,.1.01.19.02.29-.06,0-.13-.02-.19-.02.07-.07.12-.16.17-.27ZM87.53,116.49c-.99-.12-1.98-.25-2.96-.38,0-.57,0-1.15.04-1.72.05-.58.14-1.14.25-1.71.95.12,1.9.22,2.85.3,0,.06-.01.11-.02.17-.07,1.11-.13,2.23-.16,3.34ZM81.63,99.66c-.86-.17-1.73-.34-2.59-.5-.36-.09-.72-.17-1.08-.26.22-1.42.46-2.84.71-4.26,1.16.29,2.33.56,3.5.8-.19,1.4-.37,2.81-.54,4.21ZM82.92,127.65c-.91-.17-1.81-.35-2.71-.54.06-1.55.14-3.11.23-4.66.65.1,1.3.19,1.96.27.21.03.41.06.62.09-.12,1.61-.1,3.23-.1,4.85ZM82.92,128.74c0,.06,0,.11,0,.17,0,1.28-.03,2.56-.04,3.84-.94-.15-1.87-.32-2.81-.5.02-1.35.05-2.7.1-4.06.91.19,1.83.37,2.75.54ZM80.51,121.34c.1-1.56.22-3.12.34-4.68.88.14,1.75.27,2.63.41,0,.17,0,.34.01.51-.04,1.39-.28,2.77-.4,4.16-.86-.12-1.72-.25-2.58-.39ZM83.47,115.96c-.85-.12-1.69-.24-2.53-.37.1-1.15.2-2.29.31-3.44.84.13,1.68.24,2.52.37-.2,1.14-.28,2.29-.29,3.44ZM81.05,100.63s0,0,0,0c0,0,0,0,0,0,0,0,0,0,0,0ZM80.72,100.56c-.16.03-.27.12-.35.25.02-.09.04-.2.05-.32.1.02.2.04.3.06ZM79.6,105.26s-.02,0-.03,0c0,0,.02,0,.03-.01,0,0,0,.01,0,.02ZM79.43,100.29c-.04.12-.08.23-.13.33-.01-.16-.1-.31-.22-.4.12.03.24.05.35.08ZM78.98,105.12s-.07-.02-.11-.03c.01-.03.02-.07.03-.1h0s.05.09.08.13ZM78.67,100.12s-.04.01-.05.02c0,0,0-.02,0-.03.02,0,.03,0,.05.01ZM80.06,133.35c.93.19,1.87.36,2.81.52,0,1.2,0,2.4.03,3.6-.93-.17-1.86-.34-2.79-.53-.03-1.05-.05-2.09-.05-3.14,0-.15,0-.3,0-.46ZM82.93,138.57c.02.65.06,1.3.1,1.95.04.39.08.79.12,1.18-.94-.16-1.89-.33-2.83-.51-.07-1.05-.13-2.1-.17-3.14.93.18,1.85.36,2.78.52ZM81.48,142.51c.59.11,1.18.22,1.78.32.09.94.18,1.87.28,2.81-.97-.16-1.94-.32-2.9-.5-.08-.95-.16-1.9-.23-2.84.36.07.72.14,1.08.21ZM83.65,146.76c.1,1.01.2,2.02.31,3.03-.97-.11-1.94-.23-2.91-.37-.11-1.05-.22-2.11-.32-3.16.97.18,1.94.35,2.92.51ZM81.35,111.07c.11-1.17.23-2.33.35-3.49.03-.27.06-.54.08-.81.89.09,1.78.17,2.67.25-.2,1.48-.29,2.97-.48,4.45-.88-.12-1.75-.25-2.63-.4ZM83.96,134.48c0-.14,0-.28,0-.42.72.12,1.44.23,2.16.33.37.05.74.11,1.11.17-.05,1.2-.1,2.4-.12,3.6-1.04-.15-2.09-.31-3.13-.49-.03-1.06-.04-2.12-.03-3.19ZM86.82,143.39c-.07.05-.14.12-.2.2-.09-.16-.26-.25-.44-.29.21.03.43.06.64.09ZM86.01,143.27c-.07,0-.14,0-.2,0-.02-.02-.03-.03-.05-.04.08.01.16.02.25.04ZM87.66,147.36c.08.96.17,1.92.3,2.88-.96-.11-1.92-.21-2.88-.31-.13-.99-.25-1.98-.33-2.98.97.15,1.94.29,2.92.42ZM87.81,111.89c-.92-.08-1.85-.18-2.77-.29.08-.51.15-1.02.18-1.53.08-.99.19-1.97.31-2.96.93.08,1.87.16,2.81.24-.18,1.51-.37,3.02-.53,4.54ZM88.19,139.39c1.39.19,2.78.35,4.18.49.07,1.03.14,2.06.17,3.09-.38-.04-.76-.07-1.13-.11-1.01-.1-2.02-.22-3.02-.35-.13-1-.25-2.01-.2-3.03,0-.03,0-.06,0-.09ZM92.58,144.07c.03.9.05,1.8.08,2.69-1.33-.11-2.65-.24-3.98-.4-.03-.52-.06-1.05-.08-1.57,0-.39-.04-.78-.08-1.17,1.35.17,2.7.32,4.06.45ZM90.11,147.65c.86.1,1.72.16,2.58.21.03.99.08,1.98.15,2.97-1.27-.16-2.53-.34-3.8-.49-.11-.95-.21-1.9-.28-2.85.45.05.9.11,1.35.15ZM92.93,151.93c.02.2.04.39.06.59.03.64.04,1.28.05,1.93-1.16-.13-2.32-.27-3.48-.43-.14-.85-.27-1.7-.38-2.55,1.25.14,2.5.29,3.75.46ZM89.55,106.34c.12-1,.23-2,.33-3,.08-.42.17-.83.26-1.24,1.13.09,2.26.16,3.4.22-.14,1.44-.28,2.87-.4,4.31-1.2-.08-2.39-.18-3.59-.28ZM94.12,107.81s0-.03,0-.05c.04,0,.08,0,.11,0-.04,0-.08.02-.12.05ZM94.11,96.06c-.13-.02-.26-.04-.39-.05-.82-.07-1.65-.15-2.47-.24.2-1.32.38-2.64.56-3.97.86.12,1.71.22,2.57.31,0,.03,0,.07-.01.1-.12,1.28-.18,2.57-.26,3.85ZM91.95,90.78c.15-1.1.31-2.2.49-3.3.86.11,1.72.21,2.58.3-.2,1.1-.37,2.2-.51,3.3-.85-.09-1.7-.19-2.55-.3ZM92.97,86.46s.03-.03.04-.04c.01.02.02.04.04.05-.03,0-.05,0-.08-.01ZM94.36,83.13c.17.02.33.04.5.06-.05.02-.09.06-.12.1,0,0-.01.01-.02.02-.06-.05-.13-.09-.22-.11-.04,0-.09-.01-.13-.01,0-.02,0-.04,0-.05ZM94.8,100.53c.16-1.07.25-2.15.33-3.24,1.27.16,2.54.3,3.81.42-.11,1.2-.24,2.4-.37,3.6,0,.04,0,.07,0,.11-1.28-.03-2.55-.08-3.83-.14.02-.25.05-.5.07-.75ZM110.77,133.37c-.04.43-.07.85-.09,1.28-.9.04-1.79.07-2.69.09,0-.17,0-.34,0-.51.02-1.22.06-2.45.1-3.67.91-.04,1.83-.09,2.74-.16-.06.99-.09,1.98-.07,2.98ZM110.61,135.75c-.06,1.19-.09,2.39-.15,3.58-.92.04-1.83.06-2.75.08.1-1.2.19-2.4.24-3.6.89-.01,1.78-.03,2.66-.06ZM110.4,140.45c-.07,1.12-.17,2.24-.33,3.35-.93,0-1.86,0-2.79-.02.11-1.08.23-2.17.33-3.25.93-.02,1.86-.05,2.79-.09ZM103.76,112.28c-1.66-.02-3.31-.05-4.97-.09.04-1.03.11-2.07.26-3.11.05-.37.1-.74.14-1.12.04,0,.08,0,.11,0,1.55-.02,3.11-.04,4.66-.08-.06,1.46-.13,2.92-.2,4.38ZM103.82,140.53c.12,0,.23,0,.35,0-.19.18-.31.47-.41.78,0-.05,0-.09,0-.14.02-.22.04-.43.06-.65ZM103.7,113.38c-.07,1.32-.13,2.65-.2,3.97-1.61.14-3.24.26-4.87.32.03-.81.06-1.63.09-2.44.01-.64.02-1.29.03-1.93,1.65.01,3.3.03,4.95.08ZM99.3,106.89c.13-1.46.21-2.92.3-4.38.96.02,1.93.04,2.89.06.55,0,1.1-.01,1.65-.02,0,.04,0,.08,0,.12-.03,1.37-.08,2.75-.14,4.12-.3,0-.59,0-.89,0-1.27.07-2.54.09-3.82.08ZM104.07,131.75c.02-.36.03-.73.05-1.09.97,0,1.93-.03,2.9-.07-.04,1.39-.08,2.77-.12,4.16-.99.01-1.97.02-2.96.02.01-1.01.04-2.01.13-3.02ZM104.61,123.25s.01.06.03.09c-.08,0-.16,0-.23,0,.07-.01.14-.04.21-.09ZM104.52,118.42s0-.01,0-.02c0,0,0,0,0,0,0,0,0,.01-.01.02ZM107.32,124.38c-.13,1.71-.21,3.42-.26,5.14-.96.03-1.93.05-2.89.05.06-1.71.11-3.43.16-5.14,1,0,2-.01,3-.05ZM105.33,118.37s0,0,0,0c0,0,0,0,0,0,0,0,0,0,0,0ZM105.48,118.37c.06,0,.13,0,.19,0,.08,0,.16,0,.24,0-.05.06-.08.12-.11.2-.07-.11-.19-.18-.32-.19ZM107.17,144.85c.91.02,1.83.03,2.74.04-.06.94-.14,1.87-.24,2.8-.92-.01-1.83-.04-2.75-.07.07-.93.16-1.85.25-2.78ZM107.63,117.26c-1.02,0-2.04,0-3.06.03.04-.8.08-1.61.13-2.41,0-.5.02-1,.04-1.49.98-.01,1.96-.02,2.93-.04-.01,1.3-.03,2.61-.05,3.91ZM104.63,87.15s-.08,0-.12,0c-1.21-.05-2.42-.07-3.63-.1.06-.87.13-1.74.2-2.61.03-.25.06-.51.09-.76,1.18.05,2.36.1,3.54.16-.03,1.11-.05,2.21-.07,3.32ZM104.03,88.11c.19,0,.38,0,.57.01-.02,1.17-.05,2.34-.07,3.51-.5,0-1.01,0-1.51-.02-.82-.01-1.64-.04-2.46-.08.08-1.17.16-2.33.24-3.5,1.08.01,2.15.03,3.23.07ZM100.72,96.73s0,.03,0,.04c-.2-.01-.41-.03-.61-.04.01-.13.03-.26.04-.39.02,0,.03,0,.05.01.05.23.29.38.51.38ZM104.35,97.97c-.04,1.16-.09,2.32-.15,3.48-1.51.03-3.02.03-4.53,0,.08-1.12.17-2.25.3-3.37.01-.09.02-.19.03-.28,1.45.11,2.9.17,4.35.16ZM99.88,86.1c-.02.31-.05.61-.07.92-1.17-.04-2.34-.09-3.51-.19.22-1.13.46-2.26.7-3.39.21.02.42.04.63.06.83.04,1.65.08,2.48.12-.1.82-.18,1.65-.23,2.47ZM99.73,88.02c-.09,1.15-.18,2.3-.27,3.46-1.3-.07-2.59-.17-3.88-.29.14-1.11.32-2.21.52-3.31,1.21.09,2.42.13,3.63.15ZM99.38,92.5c-.11,1.38-.22,2.76-.35,4.15-1.28-.12-2.57-.27-3.84-.44.07-1.3.13-2.59.26-3.89,0-.04,0-.07.01-.11,1.3.12,2.61.21,3.92.28ZM98.6,118.76c1.62-.07,3.23-.21,4.85-.31-.08,1.63-.15,3.26-.21,4.9-1.57,0-3.14-.05-4.7-.12-.01-1.49.01-2.98.06-4.47ZM103.26,148.54c.83.06,1.66.12,2.49.17-.08,1.07-.17,2.15-.24,3.22-.82-.04-1.64-.09-2.45-.15.05-1.08.12-2.16.2-3.25ZM103.34,147.46c.07-.9.14-1.8.21-2.7.84.03,1.69.05,2.53.07-.08.92-.16,1.84-.24,2.76-.83-.04-1.67-.08-2.5-.13ZM105.36,140.55c.13,0,.27,0,.4,0-.03.07-.06.16-.06.25-.03-.02-.06-.03-.1-.03-.09-.02-.18-.01-.26.02.03-.08.03-.16.01-.24ZM103.89,139.43c.05-1.2.05-2.39.05-3.59.98,0,1.95,0,2.93-.01-.02.72-.05,1.44-.09,2.15-.06.48-.11.97-.16,1.45-.91.01-1.82.01-2.73,0ZM106.51,153.05c.77.03,1.55.06,2.32.08.03,0,.05,0,.08,0-.03.16-.05.32-.08.49-.09.59-.17,1.17-.24,1.76-.75-.02-1.5-.06-2.25-.12.04-.74.1-1.47.17-2.21ZM106.6,151.98c.06-.66.12-1.33.17-1.99.02-.41.04-.82.07-1.23.62.03,1.24.05,1.86.05.28,0,.56,0,.85,0-.13,1.08-.28,2.16-.45,3.24-.83-.02-1.66-.04-2.49-.07ZM109.56,156.48c.47.01.94.02,1.42.03.53-.01,1.07-.03,1.6-.04-.02.18-.05.36-.07.54-.06.55-.13,1.1-.22,1.65-.98.04-1.97.08-2.95.1.07-.76.14-1.53.23-2.29ZM109.69,155.4c.09-.75.19-1.49.3-2.23,1.01.03,2.02.02,3.03,0-.1.74-.19,1.48-.29,2.23-1.01.02-2.02.02-3.04.01ZM110.19,152.07c.19-1.08.33-2.17.44-3.26.99,0,1.97-.02,2.96-.04-.14,1.1-.29,2.2-.43,3.3-.99.01-1.98.02-2.97,0ZM110.75,147.71c.09-.94.18-1.87.28-2.81,1.04,0,2.07-.02,3.1-.07-.14.95-.27,1.91-.4,2.86-.99.02-1.99.02-2.98.01ZM111.15,143.79c.07-.55.14-1.11.23-1.66.04-.58.08-1.16.11-1.74,1.1-.06,2.19-.13,3.28-.21-.05.43-.09.85-.14,1.28-.12.76-.24,1.52-.35,2.28-1.04.03-2.09.04-3.13.05ZM112.34,92.48c-.05,1.27-.11,2.54-.18,3.81-.99.12-1.98.25-2.97.35.04-1.33.07-2.66.1-3.99,1.02-.04,2.03-.1,3.05-.17ZM109.31,91.55c.02-1.09.03-2.18.04-3.27,1.04.03,2.07-.03,3.1-.15,0,1.08-.03,2.16-.07,3.24-1.02.07-2.04.13-3.07.17ZM122.45,100.78c-.05,1.21-.09,2.42-.12,3.64-.02.38-.04.77-.06,1.15-1.01.14-2.02.26-3.04.37.02-1.26.02-2.52,0-3.78,0-.31,0-.61,0-.92,1.07-.14,2.14-.29,3.21-.46ZM119.74,100.09c.07-.09.12-.19.15-.3,0,0,0,0,0,0,.08.02.16.01.24,0,.01.09.05.17.1.24-.16.02-.33.05-.49.07ZM121.21,96.17s.05-.01.07-.02c-.02.01-.04.03-.05.04,0,0-.01-.02-.02-.03ZM121.62,96.08c.26-.06.52-.12.78-.18-.07.06-.12.14-.14.24-.04-.03-.08-.05-.12-.06-.13-.04-.27-.04-.39.04-.04-.02-.08-.03-.13-.04ZM122.57,122.92s0-.05,0-.08c.44-.07.87-.14,1.31-.19.78-.11,1.57-.21,2.35-.3-.06,1.72-.17,3.43-.3,5.14-1.26.21-2.52.4-3.79.58,0-.04,0-.08,0-.12.05-1.68.29-3.35.41-5.02ZM122.46,99.68s.01-.01.02-.02c0,0,.02,0,.02.01-.01,0-.03,0-.04,0ZM132.82,98.43c1.25-.3,2.49-.62,3.72-.99,0,1.73.03,3.46.02,5.19-1.25.36-2.51.69-3.77.99.02-1.48.03-2.97.04-4.45,0-.25,0-.5,0-.75ZM132.82,97.3c0-.06,0-.13,0-.19.02,0,.03,0,.04-.01.04.06.09.12.15.16-.06.02-.13.03-.19.05ZM133.95,92.65s.02,0,.03-.01c0,0-.02.01-.02.02,0,0,0,0,0,0ZM134.61,92.71c-.07-.11-.21-.17-.35-.18.16-.05.31-.11.47-.16-.06.1-.1.22-.12.34ZM134.62,96.85s-.07.02-.1.03c0-.03,0-.06.01-.09.03.03.06.05.09.07ZM135.41,92.13c.09-.03.18-.06.27-.1-.05.06-.1.13-.12.23-.05-.06-.1-.1-.15-.13ZM134.76,104.28c.59-.18,1.19-.35,1.79-.53-.01.5-.02,1-.05,1.51,0,1.23-.04,2.45-.1,3.68-1.26.3-2.52.55-3.79.78.08-1.66.13-3.32.16-4.98.66-.15,1.32-.3,1.99-.46ZM136.34,110.05c-.02.5-.05,1-.07,1.5.03.94.03,1.87,0,2.81-1.33.21-2.67.4-4,.59.02-.58.06-1.16.11-1.74.06-.79.12-1.58.16-2.37,1.27-.23,2.54-.48,3.8-.78ZM133.2,115.88c1.01-.14,2.03-.26,3.04-.42-.06,1.59-.18,3.18-.28,4.76-1.29.17-2.59.31-3.89.44.01-.15.03-.3.04-.44.08-1.39.09-2.79.13-4.18.32-.05.64-.11.96-.16ZM132.53,121.72c1.12-.13,2.24-.24,3.36-.39-.02.28-.03.56-.05.84-.11,1.27-.29,2.53-.5,3.79-1.2.14-2.4.31-3.59.52-.08.01-.16.03-.25.04.16-1.59.32-3.17.47-4.76.19-.02.37-.03.56-.05ZM131.62,105s.04,0,.06-.01c0,0,0,.01,0,.02-.02,0-.04,0-.06,0ZM131.75,97.48s0,.05,0,.08c-.61.15-1.23.3-1.84.45-.46.14-.93.26-1.39.39.05-1.37.11-2.73.12-4.1.61-.16,1.21-.32,1.82-.47.44-.15.88-.3,1.32-.45-.01,1.36-.06,2.73-.03,4.09ZM128.64,93.32c0-.26,0-.52-.01-.78-.05-.89-.11-1.77-.18-2.66,1.04-.25,2.08-.52,3.11-.8.02.19.03.39.04.58.12.92.17,1.84.18,2.76-1.03.34-2.08.63-3.14.89ZM128.48,99.5c1.08-.29,2.17-.55,3.27-.81,0,1.73-.02,3.46-.05,5.2-1.12.25-2.23.49-3.36.7.03-.68.05-1.37.08-2.05,0-1.01.02-2.02.06-3.03ZM131.33,105.06s-.07.06-.1.1c-.03-.02-.07-.04-.11-.05.07-.02.14-.03.21-.05ZM130.67,105.2c-.09.08-.16.2-.17.34-.03-.12-.09-.21-.18-.26.12-.03.23-.05.35-.07ZM129.38,105.47c.1-.02.2-.04.3-.06-.01.02-.02.04-.03.07-.06.17-.09.34-.14.51.02-.19-.03-.38-.13-.52ZM128.6,109.89c-.01.18.06.35.18.47-.23.05-.46.1-.69.14,0-.1,0-.2.01-.31.21.03.42-.11.5-.31ZM129.2,111.38c.75-.11,1.5-.23,2.25-.36-.05.79-.1,1.58-.16,2.37-.02.57-.04,1.13-.06,1.69-1.13.15-2.27.29-3.4.41.08-1.3.15-2.59.21-3.89.39-.07.78-.14,1.16-.23ZM131.18,116.21c-.07,1.54-.16,3.06-.26,4.57-1.17.11-2.33.22-3.5.35.13-1.5.24-3,.34-4.51,1.15-.1,2.29-.24,3.42-.41ZM128.78,122.08s-.07.1-.09.16c0,0,0,0,0,0-.05-.06-.11-.1-.18-.13.09,0,.18-.02.28-.03ZM127.54,126.99c0,.09,0,.17.02.24-.17.03-.34.06-.51.09,0-.09.01-.18.02-.27.15.07.34.07.47-.05ZM127.3,122.51c0-.07,0-.13,0-.2,0-.03,0-.06,0-.08.04,0,.07,0,.11-.01-.05.08-.09.18-.12.3ZM127.45,97.62c-.01.35-.02.71-.03,1.06-1.27.31-2.55.57-3.83.8.05-1.3.1-2.6.13-3.9,1.3-.32,2.59-.66,3.88-1-.01,1.01-.06,2.03-.15,3.04ZM123.72,89.81c0-.14-.01-.29-.02-.43.06.02.12.02.18.02,0,.02,0,.05,0,.07,0,.12.04.21.1.29-.09.02-.18.04-.26.05ZM123.51,86.49c-.01-.12-.02-.23-.03-.35.16-.05.32-.09.48-.14-.19.11-.33.29-.44.49ZM123.55,100.6c1.27-.22,2.53-.47,3.78-.78.02,0,.04-.01.07-.02-.04,1.66-.08,3.32-.13,4.99-1.29.23-2.58.44-3.87.63,0,0,0-.02,0-.03.03-1.59.09-3.19.16-4.78ZM127.22,105.9c-.05,1.18-.1,2.36-.19,3.54-.02.41-.04.82-.06,1.24-1.07.15-2.14.27-3.2.47-.2.03-.4.06-.59.09.03-1.56.07-3.12.15-4.68,1.3-.19,2.6-.42,3.89-.66ZM123.78,112.25c1.04-.2,2.1-.32,3.15-.47-.06,1.28-.12,2.56-.19,3.84-.89.09-1.79.17-2.68.24-.36.05-.73.09-1.09.14.04-.56.09-1.12.15-1.68.02-.66.03-1.31.04-1.96.21-.03.42-.07.63-.1ZM126.96,128.42c1.04-.17,2.07-.35,3.1-.54.09-.02.17-.04.26-.05-.15,1.47-.3,2.96-.47,4.45-1.11.2-2.22.39-3.34.57.17-1.48.32-2.95.44-4.43ZM129.72,133.41c-.09.83-.19,1.66-.29,2.51-.08.55-.16,1.09-.24,1.64-1.1.16-2.2.31-3.3.45.03-.22.06-.45.09-.67.14-1.12.28-2.24.41-3.36,1.11-.18,2.23-.36,3.34-.56ZM121.83,133.54c.13-1.46.23-2.92.28-4.37,1.25-.18,2.49-.37,3.73-.57-.13,1.48-.28,2.95-.44,4.42-1.19.18-2.38.36-3.57.52ZM125.27,134.14c-.15,1.33-.32,2.67-.49,4-1.17.14-2.35.28-3.52.4.03-.28.06-.57.09-.85.15-1,.27-2.02.38-3.05,1.18-.16,2.37-.33,3.55-.51ZM121.8,112.91c-.11-.06-.25-.07-.37-.02.02-.08.03-.18.03-.27.2-.03.4-.06.61-.09,0,.16,0,.32-.01.47-.04,0-.08,0-.12,0-.04-.04-.08-.06-.13-.09ZM125.75,139.14c1.1-.08,2.18-.25,3.25-.46-.18,1.06-.36,2.13-.55,3.19-1.01.18-2.02.37-3.03.54.12-1.09.21-2.18.33-3.27ZM122.23,106.72c-.06,1.57-.1,3.14-.14,4.71-.97.16-1.94.31-2.93.31-.06,0-.12,0-.17,0,.11-1.56.19-3.12.23-4.68,1.01-.1,2.01-.21,3.01-.35ZM120.22,116.33s-.04,0-.05,0c0-.02.02-.04.02-.06,0,.02.02.04.03.05ZM121.81,117.23c-.1,1.57-.18,3.13-.28,4.7-.26.05-.51.09-.77.14-1.01.15-2.02.29-3.04.42.17-1.42.37-2.85.59-4.27.03-.19.05-.39.08-.58,1.14-.12,2.28-.26,3.42-.41ZM121.09,127.98c0,.08,0,.16,0,.24-.19.02-.37.05-.56.07.11-.06.21-.15.25-.27.13.02.23,0,.32-.04ZM120.13,128.34c-.17.02-.34.04-.51.06.05-.16.09-.33.12-.48.05.2.19.36.39.41ZM117.84,127.24c-.02.08-.03.16-.04.25-.02.01-.03.02-.05.03.02-.1.05-.2.09-.28ZM121.03,129.32c-.07,1.46-.19,2.92-.33,4.37-.25.03-.51.07-.76.1-1.16.17-2.32.32-3.49.44.09-.92.17-1.84.27-2.75.06-.55.12-1.09.18-1.64,1.38-.15,2.75-.33,4.12-.52ZM120.9,147.38s-.06,0-.09,0c.03-.07.05-.15.06-.24,0,.08,0,.16.03.23ZM120.24,134.85s-.05.05-.07.08c-.02-.02-.04-.04-.06-.06.04,0,.09-.01.13-.02ZM111.92,130.31c1.3-.1,2.59-.22,3.88-.35-.15,1.46-.29,2.92-.43,4.38-1.2.11-2.41.19-3.61.26.03-.56.06-1.13.09-1.69-.01-.87.02-1.73.07-2.59ZM114.94,135.48c.11-.01.21-.02.32-.04-.12,1.22-.24,2.43-.37,3.65-1.11.08-2.23.14-3.34.19.06-1.19.11-2.39.16-3.58,1.08-.05,2.16-.12,3.23-.22ZM115.24,144.77c1.46-.09,2.91-.23,4.36-.41-.11,1.05-.24,2.09-.39,3.13-1.46.09-2.93.15-4.39.18.14-.97.28-1.94.42-2.9ZM115.4,143.68c.09-.57.18-1.15.26-1.72.08-.62.15-1.24.22-1.86,1.39-.11,2.78-.24,4.16-.37-.01.1-.02.21-.04.31-.1,1.08-.2,2.15-.3,3.23-1.43.18-2.87.32-4.31.41ZM117.52,138.48c0,.14-.02.28,0,.42-.04,0-.08,0-.12,0,.05-.14.09-.29.12-.43ZM117.48,135.19s.06,0,.1-.01c-.03.04-.05.09-.06.15,0-.05-.02-.1-.04-.14ZM118.31,135.09c.07,0,.14-.02.21-.03-.05.06-.09.14-.1.24-.02-.09-.06-.16-.11-.21ZM119.22,134.98c.08,0,.15-.02.23-.03-.05.06-.09.13-.11.2-.03-.07-.07-.13-.12-.18ZM116.1,127.09c-.06.59-.12,1.17-.18,1.76-1.31.15-2.61.28-3.92.39.11-1.44.24-2.89.27-4.34,0-.27,0-.54.01-.8,1.4-.11,2.8-.24,4.19-.38-.14,1.12-.27,2.25-.37,3.37ZM110.88,97.5c.41-.04.82-.08,1.22-.12-.07,1.23-.14,2.46-.2,3.7-.95.1-1.91.18-2.86.23.04-1.19.08-2.39.12-3.58.58-.07,1.15-.15,1.73-.23ZM110.72,102.26s-.06.1-.09.16c-.28-.11-.58.1-.63.39-.11-.1-.27-.14-.41-.11.08-.14.11-.26.1-.36.34-.02.68-.05,1.02-.07ZM111.63,107.62c-.04,1.51-.05,3.02-.02,4.53-.95.06-1.91.15-2.86.12.02-1.51.05-3.02.09-4.52.93-.04,1.86-.08,2.79-.13ZM111.58,113.27c-.06,1.29-.11,2.59-.16,3.88-.91.06-1.83.09-2.75.1,0-1.31.01-2.61.05-3.92.95-.02,1.91-.04,2.86-.06ZM119.27,152.94c1.01.01,2.02,0,3.03-.06-.06.29-.32,1.17-.62,2.26-.94.04-1.88.07-2.82.1.13-.77.26-1.54.41-2.3ZM119.5,151.87c.25-1.12.46-2.25.64-3.38,1.08-.07,2.15-.15,3.23-.25-.24,1.17-.5,2.34-.79,3.51-1.02.06-2.05.1-3.08.12ZM121.92,144.38c.02-.11.03-.22.02-.32.03,0,.06,0,.09-.01-.04.12-.07.24-.11.33ZM122.95,143.91c.1-.02.21-.03.31-.05-.17.2-.29.51-.37.74.02-.2.08-.47.06-.7ZM120.81,143.12c.12-1.17.23-2.34.34-3.51,1.17-.12,2.34-.24,3.5-.36-.08,1.12-.2,2.23-.34,3.34-1.17.19-2.34.37-3.51.53ZM124.16,143.72c-.01.08-.02.15-.03.23-.05,0-.09-.01-.15-.02-.05-.07-.11-.12-.16-.16.11-.02.23-.04.34-.05ZM124.53,148.14c.97-.1,1.94-.21,2.91-.34-.07.45-.14.9-.2,1.35-.06.72-.15,1.43-.27,2.13-1.08.18-2.17.31-3.27.4.28-1.18.58-2.35.83-3.54ZM124.74,147.03c.05-.27.09-.54.13-.81.18-.89.31-1.79.42-2.69.98-.16,1.97-.34,2.95-.52-.22,1.22-.43,2.44-.64,3.66-.95.13-1.91.25-2.87.35ZM128.58,147.65c1.11-.16,2.21-.34,3.31-.54.04,0,.09-.01.13-.02,0,.02,0,.04,0,.05-.25,1.11-.49,2.23-.74,3.35-.65.11-1.3.21-1.96.31-.41.1-.83.2-1.24.28.17-1.14.34-2.29.51-3.43ZM128.75,146.52c.09-.56.18-1.12.29-1.68.08-.68.19-1.35.31-2.01,1.12-.22,2.24-.43,3.36-.64-.17,1.26-.32,2.52-.51,3.77-1.15.21-2.29.4-3.45.57ZM129.57,141.66c.19-.98.39-1.97.55-2.95.01-.09.03-.17.04-.26,1.07-.22,2.14-.45,3.22-.63-.21,1.07-.38,2.16-.53,3.24-1.1.2-2.19.41-3.29.61ZM130.96,132.07c.09-.9.18-1.8.26-2.7.05-.58.11-1.16.17-1.74,1.24-.21,2.5-.37,3.75-.53-.25,1.42-.52,2.84-.75,4.26-1.14.25-2.28.49-3.43.71ZM136.76,130.8c-.4.1-.81.2-1.21.29.11-.66.22-1.31.3-1.97.14-.73.27-1.45.41-2.18.49-.07.97-.14,1.46-.21.84-.18,1.67-.38,2.5-.59-.11,1.33-.23,2.67-.37,4-1.03.24-2.06.45-3.09.66ZM136.57,94.65c0,.22-.01.44-.02.66-.04-.02-.09-.04-.14-.05.06-.21.11-.42.16-.6ZM136.37,92.09c-.08-.11-.21-.17-.34-.18.1-.04.2-.07.3-.11.01.1.03.19.04.29ZM135.77,87.95c.1.99.26,1.97.42,2.95-1.13.38-2.27.75-3.41,1.17-.04-1-.12-1.99-.25-2.98,0-.1-.02-.2-.03-.31,1.03-.34,2.1-.59,3.07-1.05.03.09.09.17.21.22ZM134.96,86.84c-.86.3-1.72.59-2.59.85-.16-1.06-.4-2.1-.73-3.12-.07-.16-.12-.38-.17-.63,1.21.91,2.38,1.87,3.49,2.9ZM131.43,87.97c-1.02.29-2.05.57-3.08.82-.11-1.21-.25-2.41-.44-3.61-.03-.07-.06-.2-.1-.38.92-.27,1.85-.55,2.75-.88.35,1.34.67,2.68.86,4.05ZM129.52,82.51s-.02,0-.03,0c0-.01,0-.02,0-.03,0,0,.02.02.03.03ZM128.59,83.63s.02.02.03.03c-.02,0-.05.02-.07.02.02-.02.03-.03.04-.05ZM127.81,83.87s.04.02.06.03c-.07.02-.14.04-.22.06,0,0,0,0,0,0,.06-.02.11-.05.16-.09ZM127.47,90.11c.08,1.15.13,2.3.13,3.46-.81.19-1.62.38-2.42.58-.48.13-.96.25-1.44.37.02-1.2.02-2.41,0-3.61,1.25-.25,2.49-.51,3.72-.8ZM126.1,85.31s.08-.02.12-.04c-.03.04-.05.08-.07.12-.01-.03-.03-.06-.05-.08ZM126.95,80.84s0,.06.01.09c0,.02,0,.05,0,.07-.01-.05-.03-.1-.04-.15.01,0,.02,0,.03,0ZM126.94,85.06s.01.06.02.09c-.03,0-.05,0-.08,0-.03-.02-.06-.04-.09-.05.05-.02.1-.03.16-.05ZM124.14,78.81s.1.04.15.05c-.05,0-.1.01-.15.03,0-.03,0-.06,0-.09ZM126.05,81.09c.31,1.01.53,2.05.73,3.09-.1.02-.2.05-.31.07-1.04.28-2.06.66-3.1.97-.01-.09-.02-.17-.03-.26-.08-1.04-.25-2.08-.44-3.11,1.05-.25,2.11-.49,3.15-.76ZM126.22,116.72c.15,0,.3-.02.46-.02-.09,1.52-.21,3.04-.37,4.55-1.22.14-2.44.3-3.66.49.09-1.55.15-3.1.25-4.65,1.11-.14,2.21-.27,3.33-.37ZM122.67,94.78c-1.14.26-2.29.5-3.44.69,0-1.25-.02-2.51-.04-3.76,1.18-.18,2.35-.37,3.52-.59.01,1.22,0,2.44-.04,3.67ZM122.69,90.01c-.29.06-.59.11-.88.17-.88.17-1.76.31-2.64.45-.03-1.18-.07-2.35-.13-3.53.49-.11.99-.23,1.47-.32.68-.09,1.34-.22,2-.38.1,1.2.16,2.41.19,3.61ZM122.18,78.19s-.02.04-.03.06c0-.02,0-.04,0-.06.01,0,.03,0,.04,0ZM122.35,84.8c.03.23.05.45.07.68-.27.06-.54.12-.82.17-.88.11-1.75.31-2.61.5-.02-1.16-.05-2.32-.14-3.48.85-.16,1.71-.3,2.55-.42.19-.05.39-.1.58-.15.16.9.29,1.8.36,2.71ZM121.52,79.4c.09.61.2,1.22.31,1.83-.34.08-.69.16-1.03.25-.69.05-1.36.17-2.04.29-.11-1.04-.29-2.08-.56-3.1,1.01-.11,2.02-.23,3.04-.35.09.37.26.76.28,1.09ZM119.14,76.84c.48.12.93.32,1.37.55-.85.11-1.7.21-2.55.31-.08-.37-.17-.8-.3-1.18.49.13.98.24,1.48.32ZM117.49,87.38c.19-.02.38-.05.57-.09.05,1.16.07,2.32.09,3.48-1.59.22-3.18.4-4.77.53.03-1.09.06-2.19.07-3.29,1.35-.18,2.7-.43,4.05-.64ZM113.45,86.95s.03.07.05.1c-.02,0-.03,0-.05,0,0-.03,0-.07,0-.1ZM114.52,83.35s.02,0,.03,0c0,0,0,0-.01.01,0,0-.01,0-.02-.01ZM116.65,83c.05,0,.1-.01.15-.02-.02.03-.04.05-.06.09-.03-.02-.06-.05-.1-.06ZM117.51,82.88s.09-.01.14-.02c-.03.02-.06.04-.09.06-.02-.02-.03-.03-.05-.04ZM113.36,83.63s0-.07,0-.1c.02,0,.03,0,.05,0-.02.03-.03.07-.04.11ZM113.36,92.4c1.61-.14,3.21-.32,4.81-.54.01,1.26.01,2.52,0,3.78-1.29.19-2.59.33-3.89.41-.35.04-.71.08-1.06.12.06-1.25.11-2.51.14-3.76ZM117.92,96.79c.08-.01.17-.03.25-.04,0,.74,0,1.47,0,2.21,0,.45.01.89.02,1.34-.39.05-.79.1-1.18.15-1.34.19-2.68.37-4.03.52.07-1.23.13-2.46.19-3.69,1.58-.16,3.16-.33,4.75-.49ZM116.9,77.05c.07.24.13.49.19.74-.13.01-.25.03-.38.04.17-.17.19-.49.19-.78ZM117.31,78.76c.25,1.04.42,2.1.53,3.16-.29.05-.58.09-.87.12-1.22.17-2.45.39-3.68.56-.08-.9-.18-1.79-.33-2.68-.03-.25-.06-.5-.1-.75,1.49-.12,2.97-.26,4.45-.42ZM112.92,102.06c1.36-.14,2.71-.31,4.06-.52.4-.05.81-.11,1.21-.16,0,1.56,0,3.12-.05,4.67-1.8.18-3.61.32-5.42.44.05-1.48.12-2.95.19-4.43ZM112.69,107.56c1.81-.1,3.62-.24,5.42-.4-.05,1.55-.12,3.1-.23,4.65-1.6.13-3.2.33-4.81.29-.14,0-.28,0-.42,0,0-.06,0-.12,0-.18-.02-1.46,0-2.91.03-4.37ZM112.63,113.23c1.73-.06,3.45-.16,5.17-.31-.05.68-.11,1.35-.17,2.03-.06.56-.13,1.11-.2,1.67-1.37.13-2.74.25-4.12.34-.27.03-.54.06-.81.09.05-1.27.1-2.55.13-3.82ZM116.04,117.83c.42-.02.83-.05,1.24-.09-.22,1.62-.46,3.25-.68,4.87-1.44.16-2.87.3-4.32.41.04-1.63.1-3.26.16-4.88,1.2-.09,2.39-.19,3.58-.31ZM112.41,83.67c.04.75.06,1.51.03,2.27,0,.42,0,.83,0,1.25-.51.06-1.02.1-1.54.13-.52.03-1.04.03-1.56.03,0-.83,0-1.66-.01-2.49,0-.32,0-.64,0-.97,1.01-.05,2.02-.13,3.03-.22.01,0,.02,0,.03,0ZM112.37,75.13c-.06.1-.1.22-.12.36-.02-.13-.04-.26-.07-.39.06,0,.13.02.19.03ZM111.91,79.25c.17,1.16.33,2.31.44,3.48-.69.08-1.38.14-2.07.16-.31.03-.62.05-.93.06-.02-1.18-.09-2.36-.2-3.53.92-.05,1.85-.11,2.77-.17ZM108.91,70.73c.25.02.51.05.76.06-.08.11-.13.24-.14.37-.11-.24-.4-.37-.65-.28.02-.05.03-.1.03-.15ZM110.94,74.93c.09.05.19.07.29.07.02.02.05.03.08.05.13,1.1.29,2.19.46,3.27-.91.07-1.81.13-2.72.17-.14-1.26-.32-2.5-.54-3.75.81.03,1.62.09,2.43.18ZM108.58,121.53c.05-1.06.08-2.12.09-3.19.91-.03,1.81-.07,2.72-.13-.06,1.63-.11,3.26-.16,4.89-.92.06-1.83.11-2.75.15.03-.57.07-1.15.1-1.72ZM111.2,124.17c0,.35-.02.71-.02,1.06-.06,1.36-.17,2.72-.27,4.09-.92.07-1.84.12-2.77.16.08-1.71.17-3.43.27-5.14.93-.04,1.86-.1,2.79-.16ZM108.25,79.46s0,.06,0,.1c0,0,0,0,0,0,0-.03,0-.06-.02-.09,0,0,.01,0,.02,0ZM107.64,74.73s.04.04.07.06c.07,1.25.28,2.49.44,3.74,0,0-.01,0-.02,0-.79,0-1.57,0-2.36-.02.02-1.07.03-2.14.06-3.2,0-.15.02-.33.04-.52.59-.04,1.19-.06,1.78-.06ZM106.82,79.47s-.09.07-.12.12c-.05-.06-.11-.1-.19-.13.1,0,.2,0,.31,0ZM105.83,70.62c.05,0,.1,0,.16-.01-.12.28-.19.59-.3.85.02-.27.14-.56.14-.84ZM105.7,83.88c.32.02.64.03.96.05.57.01,1.14,0,1.72,0,0,1.13,0,2.26,0,3.39-.9-.03-1.8-.09-2.71-.13.02-1.1.03-2.2.04-3.31ZM105.64,88.17c.91.04,1.81.1,2.72.11,0,1.1-.01,2.21-.03,3.31-.91.03-1.83.04-2.75.04.02-1.16.04-2.31.06-3.47ZM105.56,92.71c.92,0,1.83,0,2.74-.02-.03,1.35-.07,2.7-.12,4.06-.91.08-1.82.13-2.73.14.04-1.39.07-2.78.1-4.18ZM105.43,97.97c.91.03,1.82-.03,2.72-.13-.04,1.17-.09,2.34-.13,3.51-.62.02-1.25.03-1.88.03-.28.01-.56.02-.84.03.05-1.15.09-2.3.13-3.45ZM105.18,103.99c.03-.49.05-.98.07-1.46.91-.02,1.82-.06,2.73-.1-.06,1.43-.11,2.86-.16,4.29-.89.03-1.79.05-2.68.06.04-.93.06-1.86.04-2.79ZM107.78,107.79c0,.27-.02.54-.02.82-.03,1.22-.05,2.44-.06,3.66-.96.02-1.93.03-2.89.02.08-1.47.2-2.95.28-4.42.9-.02,1.8-.05,2.7-.08ZM104.55,70.78s.03,0,.04,0c-.04.07-.07.13-.1.18.03-.06.04-.12.06-.18ZM102.75,70.83c-.07.1-.12.21-.16.32-.14-.12-.32-.2-.51-.21-.02-.03-.04-.05-.06-.08.24-.02.49-.03.73-.04ZM102.01,76.88c.05-.67.39-1.36.28-2.02.89-.08,1.79-.11,2.68-.09-.04.31,0,.66-.03.95-.04.93-.07,1.85-.1,2.78-1-.03-2-.08-3-.14.06-.49.12-.98.17-1.48ZM104.81,79.42c-.04,1.15-.07,2.3-.09,3.45-.64-.03-1.29-.06-1.93-.08-.51,0-1.01,0-1.51-.03.15-1.16.31-2.31.45-3.47,1.03.06,2.06.1,3.09.13ZM101.25,70.94s-.01.02-.02.03c-.01,0-.02-.02-.04-.02.02,0,.04,0,.05,0ZM101.1,73.84s.02.05.03.07c-.02,0-.03,0-.05,0,0-.03.01-.05.02-.08ZM100.64,71.03s.02,0,.04,0c-.02.02-.04.04-.05.07,0-.02.01-.04.02-.06ZM100.1,73.73c.03-.19.06-.37.09-.56,0,0,0,0,0,0-.03.21-.07.42-.1.63-.02.07-.02.15-.02.22-.02,0-.03,0-.05,0,.02-.11.04-.21.07-.3ZM98.47,76.74c.03-.39.3-1,.27-1.46.63-.08,1.26-.15,1.89-.21.28-.05.57-.09.85-.12-.32.77-.52,2.33-.64,3.34-.88-.06-1.76-.13-2.64-.21.09-.45.18-.89.27-1.34ZM97.33,81.95c.26-.97.47-1.95.68-2.93.91.08,1.81.15,2.72.21-.15,1.16-.33,2.31-.49,3.47-1.01-.07-2.02-.16-3.02-.19.04-.19.08-.37.12-.56ZM97.2,77.97s0,.01,0,.02c-.05,0-.09,0-.14-.01.05,0,.1,0,.15,0ZM96.75,77.85c.08.07.19.11.29.12-.14-.01-.29-.03-.43-.04.05-.02.1-.05.14-.08ZM96.27,75.66s-.05.07-.06.11c-.06-.03-.11-.06-.17-.07.08-.01.16-.03.24-.04ZM94.4,77.5s.1.09.17.12c-.02.04-.03.08-.04.12-.06,0-.12-.01-.18-.02.02-.08.03-.15.05-.23ZM95.33,78.75c.14.08.27.09.39.04.42.05.85.09,1.27.13-.2.91-.42,1.82-.68,2.72-.05.22-.1.45-.16.67-.65-.12-1.3-.22-1.96-.29-.2-.02-.41-.05-.61-.07.24-1.11.4-2.23.6-3.34.38.05.76.09,1.14.14ZM93.68,76.22c-.15.38-.28.87-.4,1.4-.97-.12-1.93-.28-2.9-.41,1.08-.38,2.18-.71,3.3-.99ZM89.93,78c.37.05.76.07,1.11.17.69.11,1.38.21,2.06.3-.22,1.19-.4,2.47-.58,3.32-1.09-.18-2.16-.41-3.24-.65.17-1.05.38-2.1.64-3.14ZM89.12,82.21c1.04.22,2.08.42,3.12.62-.27,1.14-.5,2.29-.71,3.44-.99-.14-1.98-.29-2.97-.47.21-1.2.38-2.4.56-3.59ZM91.35,87.33c-.18,1.1-.34,2.2-.49,3.3-1-.14-2-.29-3-.45.21-1.1.41-2.21.55-3.32.98.17,1.96.32,2.95.46ZM85.94,79.08s0,.03,0,.04c-.01,0-.02,0-.04-.01,0,0,0,0,0,0,.01,0,.03-.01.04-.02ZM85.23,81.28c.59.14,1.19.26,1.81.42.34.1.69.18,1.04.27-.26,1.57-.45,3.03-.58,3.63-.64-.12-1.28-.25-1.92-.4-.34-.06-.67-.13-1.01-.21.1-.66.2-1.32.3-1.97.08-.59.2-1.17.36-1.74ZM84.87,79.57c-.06.15-.12.31-.18.47-.18-.05-.37-.09-.55-.13.24-.11.48-.23.72-.34ZM81,82.75c.13-.44.26-.89.42-1.32.04-.06.07-.13.09-.2.46-.25.93-.49,1.4-.73.09.06.2.11.3.15.39.17.79.3,1.19.41-.12.5-.21.94-.25,1.17-.14.85-.28,1.7-.42,2.55-1.01-.27-2.01-.58-3.01-.89.09-.39.18-.78.28-1.15ZM80.12,87.04c.12-.67.24-1.37.38-2.07.63.2,1.27.4,1.9.6.39.1.78.2,1.16.29-.18,1.16-.36,2.31-.53,3.47-.18-.03-.35-.07-.53-.1-.9-.23-1.79-.5-2.67-.79.09-.47.19-.94.28-1.41ZM80.26,89.55c.86.3,1.74.54,2.63.75-.2,1.35-.39,2.69-.57,4.04-1.16-.24-2.31-.5-3.45-.79.25-1.4.52-2.8.79-4.2.2.07.4.13.6.2ZM76.02,86.45c.02-.4.61-1.36.65-1.95.25-.22.51-.43.77-.63.37.24,1.01.31,1.36.51.28.11.57.21.85.31-.1.48-.19.95-.29,1.43-.15.67-.3,1.35-.44,2.02-1.02-.36-2.03-.74-3.04-1.14.04-.18.09-.37.13-.55ZM75.57,92.59s0,.05-.01.07c-.22-.07-.45-.13-.67-.2,0,0,0,0,0-.01.09.01.2,0,.33-.03.06.07.13.12.21.15.04.02.09.03.13.03ZM75.34,85.73c-.1.3-.18.58-.24.74-.02.07-.03.15-.05.22-.16-.06-.32-.13-.48-.2.25-.25.51-.51.77-.76ZM70.91,90.43c.99-1.15,2.02-2.27,3.07-3.35.19.2.52.34.87.47-.35,1.52-.67,3.06-.89,4.61-.91-.3-1.8-.62-2.69-.97-.17-.06-.35-.12-.52-.19.05-.19.18-.37.16-.56ZM70.43,92.74c.04-.23.07-.46.11-.69,1.08.42,2.18.82,3.29,1.18-.05.46-.09.91-.12,1.37-.09,1.06-.28,2.12-.44,3.18-1.13-.29-2.25-.6-3.36-.96.16-1.36.34-2.72.53-4.08ZM69.79,97.75s.09.03.14.05c-.06.05-.12.11-.17.19,0-.08.02-.16.03-.24ZM69.66,91.93c-.27,1.51-.5,3.04-.7,4.56-.69-.26-1.39-.52-2.06-.82.87-1.28,1.79-2.53,2.76-3.74ZM65.93,97.58c.05-.17.05-.31,0-.42.16-.26.32-.51.49-.77.28.17.65.28.89.4.51.22,1.02.42,1.53.62-.19,1.56-.37,3.13-.53,4.69-1.08-.38-2.16-.8-3.21-1.26.24-1.09.51-2.18.82-3.26ZM64.45,99.72c-.06.25-.13.49-.19.74-.02-.01-.05-.02-.07-.03-.01-.04-.03-.08-.06-.11.1-.2.21-.4.32-.6ZM64.9,101.78c.33.13.65.24.86.36.81.33,1.62.66,2.44.98-.07.69-.15,1.39-.23,2.08-.04.77-.09,1.53-.14,2.3-.5-.17-1-.34-1.5-.51-.76-.22-1.51-.48-2.25-.77.26-1.48.51-2.96.81-4.43ZM62.03,105.03c.49-1.32,1.05-2.61,1.67-3.88.09.09.21.17.33.24-.33,1.47-.61,2.95-.86,4.43-.42-.19-.83-.39-1.23-.61.03-.06.06-.13.09-.19ZM59.39,117.32c.03-.41.07-.83.13-1.24.89.5,1.82.93,2.76,1.32-.01.37-.02.74-.03,1.11-.07,1.14-.1,2.29-.15,3.43-.81-.33-1.61-.69-2.39-1.1-.07-.09-.14-.15-.21-.19-.05-1.11-.08-2.22-.09-3.33ZM59.92,125.75c-.17-1.32-.29-2.64-.37-3.96.05.02.11.05.17.07.76.38,1.53.73,2.32,1.05-.02.35-.05.7-.09,1.05-.07.95-.04,1.91-.01,2.86-.67-.3-1.32-.63-1.95-1-.02-.03-.05-.05-.07-.07ZM60.82,130.84c-.3-1.3-.54-2.61-.74-3.93.6.37,1.23.7,1.87.99,0,.06,0,.13,0,.19,0,1.15,0,2.3,0,3.44-.3-.15-.6-.31-.89-.48-.06-.12-.15-.19-.25-.22ZM61.12,132.07c.29.16.57.33.86.48.04,1.02.11,2.05.28,3.07.01.07.03.14.04.21-.46-1.23-.85-2.49-1.18-3.76ZM62.31,116.41c-.91-.38-1.8-.81-2.66-1.28.22-1.43.53-2.86.81-4.28.21.1.42.19.59.26.48.24.97.46,1.46.67-.09,1.54-.15,3.08-.2,4.63ZM62.59,110.62c-.6-.28-1.22-.52-1.8-.82-.04-.04-.08-.07-.12-.1.2-1.18.46-2.34.86-3.46.48.26.97.49,1.47.7-.06.36-.11.72-.17,1.08-.1.87-.17,1.73-.24,2.6ZM62.96,124.68c.03-.45.05-.91.07-1.36,1.14.45,2.3.87,3.47,1.26-.07,1.29-.13,2.58-.19,3.87-1.12-.37-2.25-.75-3.34-1.19-.01-.86-.03-1.72-.01-2.58ZM65.31,118.57s0-.02,0-.03c.01,0,.02,0,.03.01-.01,0-.02.01-.03.02ZM66.04,118.79s.05.02.08.03c-.01.03-.02.07-.03.11-.01-.05-.03-.09-.04-.14ZM66.36,123.44c.08-.03.15-.06.21-.11,0,.06,0,.12-.01.18-.07-.02-.13-.04-.2-.06ZM62.97,130.22c.02-.62.02-1.24.01-1.87,1.08.44,2.19.83,3.28,1.22-.05,1.22-.09,2.45-.13,3.67,0,.02,0,.04,0,.05-1.07-.38-2.13-.79-3.16-1.27-.02-.6-.02-1.21,0-1.81ZM63.26,135.65c-.1-.86-.18-1.71-.24-2.57,1.01.49,2.04.93,3.09,1.32-.01,1.13-.02,2.26.01,3.39-.94-.35-1.87-.73-2.77-1.18-.02-.32-.05-.64-.1-.95ZM64.71,141c-.46-.79-.88-1.6-1.27-2.43-.01-.31-.02-.63-.03-.94.64.29,1.3.55,1.66.79.36.15.73.29,1.09.43.04.95.11,1.9.22,2.85-.57-.23-1.13-.47-1.68-.71ZM65.5,142.32c.35.15.69.31,1.03.47.03.18.05.36.08.53.05.54.11,1.08.16,1.63-.46-.85-.8-1.78-1.28-2.63ZM63.27,116.8c.04-1.54.09-3.08.17-4.62,1.26.51,2.54.97,3.83,1.42.03.01.06.02.09.03-.13,1.48-.25,2.96-.37,4.44-1.26-.38-2.5-.8-3.72-1.27ZM67.2,134.78c.88.29,1.77.55,2.67.78.12.03.23.07.35.1.02.71.05,1.41.08,2.12.02.44.04.87.06,1.31-1.05-.28-2.1-.58-3.14-.92-.03-1.13-.02-2.26-.01-3.38ZM67.37,140.85c-.05-.53-.08-1.06-.11-1.59,1.04.36,2.09.67,3.16.95.05.91.1,1.82.16,2.72-.12-.03-.24-.06-.36-.09-.91-.13-1.8-.38-2.67-.69-.06-.44-.11-.87-.18-1.31ZM69.72,146.75c-.06-.02-.13-.04-.19-.06.06,0,.11,0,.16-.02,0,.03.01.05.02.07,0,0,0,0,0,0ZM69.27,146.59s-.03-.01-.05-.02c0,0,0,0,0-.01.01.01.03.02.04.03ZM67.7,143.46c0-.06-.01-.12-.02-.19.04.02.09.03.13.05-.04.04-.08.08-.11.14ZM68.27,146.18s-.05-.02-.07-.03c.03-.03.05-.07.07-.12,0,.05,0,.1,0,.15ZM70.78,149.79c-.83-.77-1.6-1.59-2.3-2.48.75.34,1.69.66,2.62.94.03.21.06.43.09.64.07.36.08.74.09,1.12-.17-.07-.33-.14-.5-.21ZM71.31,131.21c1.16.34,2.32.66,3.49.95.03,1.01.07,2.02.12,3.04,0,.19,0,.38,0,.57-.03,0-.06-.01-.09-.02-1.18-.31-2.36-.6-3.54-.91-.02-1.21-.01-2.42,0-3.63ZM71.32,135.96c1.2.33,2.41.64,3.63.94.02,1.07.05,2.15.1,3.22-1.2-.26-2.4-.52-3.61-.79-.05-1.12-.09-2.25-.12-3.37ZM71.5,140.48c1.19.29,2.39.55,3.6.79.04.93.1,1.87.16,2.8-1.2-.25-2.38-.57-3.57-.87-.07-.91-.13-1.81-.18-2.72ZM71.87,145.37c-.03-.34-.06-.67-.09-1.01,1.18.28,2.36.55,3.55.81.07,1.04.16,2.07.25,3.1-.05-.02-.1-.03-.15-.04-1.09-.3-2.21-.53-3.32-.8-.09-.68-.17-1.35-.24-2.05ZM72.39,150.11c-.04-.52-.09-1.04-.15-1.55,1.04.27,1.92.47,2.26.53.39.11.78.23,1.18.34.05.69.09,1.39.15,2.08-1.16-.3-2.3-.65-3.41-1.07,0-.11-.02-.22-.02-.34ZM75.32,153.54c-.79-.63-1.59-1.25-2.38-1.89.99.34,2,.62,3.01.9.04.25.08.49.13.74.1.3.12.68.18,1.04-.32-.25-.63-.51-.94-.78ZM76.21,141.49c1.04.2,2.08.4,3.12.59.05.62.1,1.25.15,1.87.03.33.07.66.1.99-1.08-.2-2.15-.42-3.22-.65-.05-.93-.1-1.87-.15-2.8ZM76.52,146.74c-.03-.45-.06-.9-.09-1.35,1.08.23,2.17.45,3.25.66.09,1.06.17,2.12.26,3.19-1.09-.18-2.18-.4-3.26-.68-.05-.61-.1-1.21-.17-1.82ZM79.13,150.21s-.04.04-.06.05c0,0-.01,0-.02.01-.03-.04-.07-.07-.11-.09.06,0,.13.02.19.03ZM77.93,150s-.07.06-.09.1c-.04,0-.07,0-.11,0-.02-.02-.04-.04-.07-.05-.06-.04-.12-.06-.19-.08-.02-.03-.05-.05-.08-.08.18.04.35.08.53.12ZM76.79,149.85s0-.08,0-.12c.05.01.1.02.14.04-.05.02-.09.05-.13.09ZM77.35,154.19c-.08-.44-.17-.87-.24-1.31.19.06.38.11.57.17.92.21,1.84.4,2.76.59.1.66.22,1.32.36,1.97-1.12-.27-2.23-.63-3.35-.94-.02-.16-.06-.32-.1-.48ZM78.5,155.95c.59.19,1.19.39,1.78.57.26.08.51.14.77.2.08.33.18.66.27.99-.96-.56-1.91-1.14-2.83-1.76ZM81.34,152.13c-.06-.54-.12-1.08-.18-1.62.98.14,1.95.27,2.93.39.11.78.24,1.56.37,2.34-1.02-.18-2.04-.35-3.06-.53-.02-.19-.05-.38-.07-.57ZM82.22,157.11c-.02-.05-.03-.1-.05-.15.03,0,.06.01.09.02-.02.04-.03.09-.05.14ZM83.32,158.69s.03,0,.04,0c.1-.03.19-.09.26-.16.02.09.03.19.06.28-.12-.03-.24-.07-.37-.1ZM83.42,157.2s.04,0,.06.01c-.01,0-.03.01-.04.02,0-.01-.01-.02-.02-.04ZM84.31,157.56c-.03-.07-.07-.13-.11-.18.1.03.2.05.29.08-.07.02-.13.05-.18.1ZM81.97,155.85s-.03,0-.05,0c-.13-.66-.25-1.32-.35-1.98,1.02.19,2.05.37,3.07.54.07.47.13.95.18,1.43.03.21.05.41.07.62-.97-.23-1.92-.51-2.92-.6ZM85.03,159.1c.09-.05.17-.12.23-.21.02.09.04.18.06.27-.1-.02-.19-.04-.29-.06ZM85.23,151.03c.96.11,1.91.21,2.87.32.1.84.22,1.68.35,2.52-.96-.14-1.92-.28-2.87-.44-.12-.8-.24-1.6-.35-2.4ZM85.88,155.6c-.04-.34-.09-.68-.14-1.02.96.15,1.92.29,2.89.42.11.7.23,1.4.36,2.09-.78-.12-1.56-.24-2.35-.33-.22-.02-.43-.04-.64-.08-.05-.36-.09-.72-.12-1.08ZM86.52,159.42s0,0,0-.01c-.13-.54-.24-1.07-.34-1.61,1,.15,2.01.27,3.01.41.11.6.22,1.2.33,1.8-.97-.18-1.94-.37-2.91-.56-.03,0-.06-.02-.09-.02ZM86.97,160.73c.01-.07,0-.14-.01-.21.92.21,1.84.41,2.77.59.05.28.1.55.15.83-1-.34-1.96-.76-2.91-1.21ZM89.87,155.77c-.04-.21-.08-.42-.11-.63,1.1.14,2.2.26,3.31.38.01.76.03,1.52.08,2.27-1.01-.17-2.01-.34-3.01-.51-.09-.5-.18-1-.26-1.51ZM90.35,158.39c.42.07.84.16,1.25.25.54.08,1.09.16,1.63.23.06.61.15,1.22.28,1.82-.94-.14-1.89-.3-2.83-.46-.1-.61-.22-1.22-.34-1.84ZM91,162.29c-.03-.2-.1-.42-.11-.61-.01-.12-.03-.24-.04-.36.97.18,1.94.33,2.92.48.07.41.15.86.33,1.16-1.05-.16-2.08-.37-3.1-.67ZM94.23,157.1c-.03-.49-.05-.98-.07-1.47,1.07.1,2.14.2,3.21.28.03.76.08,1.52.15,2.28-1.09-.1-2.18-.19-3.26-.26-.01-.27-.02-.55-.03-.82ZM94.99,163.08s.04-.06.06-.09c.03,0,.05.01.08.01,0,.03,0,.06,0,.09-.05,0-.09-.01-.14-.02ZM97.47,162.4c-.06-.05-.12-.09-.18-.14.07,0,.15.02.22.03-.02.04-.03.07-.04.11ZM97.69,161.18c-1.02-.09-2.03-.21-3.04-.34-.14-.61-.24-1.23-.31-1.85,1.09.12,2.19.23,3.29.32.07.63.16,1.27.26,1.89-.07,0-.14-.02-.2-.03ZM97.71,111.72s.03-.08.05-.13c0,.08-.01.17-.02.25,0-.04-.02-.08-.04-.12ZM98.05,108.24c-.05-.08-.12-.14-.23-.18,0-.04,0-.08,0-.12.09,0,.17,0,.26,0-.01.1-.03.2-.04.3ZM94.22,106.69c.13-1.45.26-2.89.4-4.33,1.29.05,2.58.09,3.88.12-.07,1.46-.13,2.93-.28,4.39-1.33-.03-2.67-.09-4-.18ZM102.59,135.84c.09,0,.17,0,.26,0-.03,1.19-.05,2.38-.09,3.57-1.4-.02-2.79-.07-4.19-.14-.05,0-.1,0-.15,0-.01-.42-.03-.84-.05-1.26-.02-.73-.03-1.45-.03-2.18,1.42.01,2.83,0,4.25.02ZM101.67,163.91c-.78-.11-1.56-.26-2.34-.38,0-.03,0-.07,0-.1-.02-.32-.07-.65-.13-.97.82.08,1.64.16,2.47.22-.01.35-.03.71-.05,1.06,0,.06.02.11.04.17ZM101.72,161.62c-.9-.08-1.8-.17-2.7-.27-.04-.22-.06-.44-.08-.67-.07-.42-.12-.85-.18-1.27,1.01.08,2.02.15,3.02.22-.02.66-.04,1.33-.06,1.99ZM101.81,158.55c-1.06-.08-2.12-.18-3.18-.27-.08-.76-.13-1.53-.18-2.3,1.14.08,2.28.15,3.41.21-.02.79-.04,1.57-.06,2.36ZM101.89,155.12c-1.17-.05-2.34-.11-3.5-.19-.02-.81-.03-1.62-.03-2.44,1.2.11,2.4.21,3.6.29-.03.78-.05,1.56-.07,2.34ZM102,151.7c-1.21-.1-2.43-.22-3.64-.36,0-1.06.02-2.12.04-3.17.29.02.58.05.87.08.96.06,1.93.13,2.89.21-.07,1.08-.12,2.17-.17,3.25ZM102.39,145.58c-.06.6-.11,1.21-.15,1.81-1.25-.09-2.5-.19-3.75-.3-.02,0-.05,0-.07,0,.01-.85.03-1.71.04-2.56,1.34.08,2.67.14,4.01.2-.03.29-.05.57-.08.86ZM98.47,143.44c0-1.03,0-2.06-.02-3.09,1.42.08,2.85.13,4.27.17-.04,1.05-.09,2.09-.17,3.14-1.36-.06-2.73-.13-4.09-.21ZM104.42,164.03c-.29,0-.59,0-.88,0-.31,0-.62,0-.92-.02.19-.31.08-.82.09-1.24.6.05,1.2.09,1.8.13-.04.38-.08.76-.08,1.14ZM104.6,161.54c0,.09,0,.18,0,.27-.61-.03-1.21-.07-1.82-.11.04-.66.08-1.33.1-2,.62.04,1.23.09,1.85.13-.09.57-.15,1.13-.13,1.72ZM103.45,158.67s.06-.06.08-.1c0,.04.02.08.04.11-.04,0-.08,0-.12,0ZM104.92,158.76c-.14,0-.28-.02-.42-.02,0,0,0,0,0,0,.04,0,.08-.01.12-.03.08-.03.15-.06.21-.11.04,0,.08,0,.12,0,0,.05-.02.11-.03.16ZM105.29,155.21c-.77,0-1.54-.03-2.3-.05,0-.14,0-.27,0-.41,0-.63,0-1.26.03-1.89.81.05,1.61.1,2.42.14-.05.74-.1,1.47-.15,2.21ZM107.55,163.68c-.04.1-.07.21-.07.33-.67.02-1.33.03-2,.03.08-.35.12-.7.14-1.06.2.01.4.02.6.04.24,0,.77,0,1.48,0-.05.22-.1.45-.16.67ZM107.9,161.93c-.75-.01-1.49-.03-2.24-.06,0-.31.02-.62.04-.92.01-.36.05-.72.11-1.08.77,0,1.55,0,2.33-.02-.07.69-.15,1.39-.24,2.08ZM108.25,158.79c-.74.01-1.49.02-2.24,0,.12-.61.23-1.22.26-1.85,0-.19.01-.37.02-.56.73.02,1.46.05,2.19.07-.08.78-.15,1.56-.23,2.34ZM111.08,163.75c-.82.1-1.65.17-2.48.21.1-.26.18-.59.25-.94.7,0,1.48,0,2.3,0-.08.28-.12.54-.06.75ZM111.63,161.61c-.01.09-.04.19-.08.31-.85.02-1.69.02-2.54.02.09-.76.15-1.54.21-2.11.96-.02,1.92-.04,2.88-.08-.12.63-.27,1.25-.46,1.86ZM112.14,163.6c.05-.15.08-.31.11-.44.02-.06.04-.11.06-.17.97-.02,1.96-.06,2.88-.11-1,.33-2.02.56-3.06.73ZM116.28,161.51s-.02.1-.04.15c-1.18.13-2.37.19-3.56.23.02-.07.04-.14.06-.21.18-.65.32-1.31.45-1.96,1.21-.05,2.43-.1,3.64-.16-.2.65-.4,1.3-.56,1.96ZM117.15,158.41c-1.25.07-2.51.14-3.76.2.12-.72.22-1.44.32-2.17,1.29-.02,2.57-.05,3.86-.08-.13.68-.26,1.36-.41,2.04ZM117.77,155.27s-.03,0-.05,0c.03-.04.05-.09.07-.14,0,.05-.02.09-.02.14ZM117.81,153.24c-.01-.1-.04-.18-.07-.25.15,0,.3-.01.45-.02-.03.14-.05.29-.08.43-.07-.1-.17-.16-.29-.16ZM118.11,161.42c.05-.1.09-.21.13-.3.06.1.16.17.27.21-.13.03-.27.06-.4.09ZM119.98,161.32s.04-.09.06-.14c.04.03.08.05.12.07-.06.02-.12.05-.18.07ZM120.91,158.2c-.87.04-1.75.09-2.62.14.15-.66.28-1.34.39-2.01.9-.03,1.8-.06,2.71-.1-.17.65-.34,1.32-.48,1.97ZM121.66,160.57c.02-.32.01-.65.08-.89.02-.14.05-.29.08-.43.93-.07,1.85-.14,2.77-.21-.97.53-1.94,1.06-2.93,1.53ZM125.66,156.6c-.11.44-.21.86-.32,1.29-.59.09-1.19.24-1.77.2-.51.02-1.02.04-1.53.06.15-.66.31-1.32.49-1.98.83-.05,1.66-.1,2.49-.17.29-.04.57-.08.86-.12-.07.24-.14.48-.21.72ZM125.16,154.89c-.77.09-1.55.15-2.33.19.2-.75.41-1.49.6-2.24,0-.02,0-.03.01-.05,1.11-.09,2.22-.22,3.31-.39-.16.78-.35,1.56-.56,2.33-.35.06-.69.11-1.04.15ZM129.85,156.17c-.54.36-1.1.69-1.66,1.01-.51.23-1,.48-1.5.74-.01-.01-.03-.03-.04-.04-.06-.01-.11-.02-.17-.03.06-.33.12-.64.21-.84.1-.44.22-.88.35-1.31.99-.17,1.98-.37,2.97-.57-.14.38-.24.77-.16,1.05ZM130.4,153.92c-1.01.2-2.01.42-3.02.61.1-.35.2-.7.29-1.05.08-.42.15-.84.22-1.26.69-.13,1.38-.27,2.07-.43.35-.06.7-.11,1.05-.17-.19.77-.38,1.54-.6,2.31ZM131.1,155.3s.02-.06.03-.08c.04-.11.07-.23.11-.34.19-.04.38-.08.58-.11-.24.18-.47.36-.71.54ZM135.82,151.11c-.8.84-1.64,1.65-2.52,2.42-.27-.13-.67-.02-.97.04-.25.04-.49.08-.74.13.17-.61.33-1.23.47-1.85.03-.14.06-.28.09-.42,1.29-.22,2.59-.48,3.83-.85-.06.18-.12.36-.18.54ZM136.45,149.28c-1.32.43-2.67.74-4.02,1,.26-1.12.52-2.24.73-3.37,1.39-.25,2.77-.61,4.16-.89-.25,1.1-.55,2.18-.86,3.26ZM136.59,145.05c-1.08.25-2.16.47-3.24.68.16-1.25.29-2.51.45-3.76,1.54-.29,3.08-.59,4.61-.96-.23,1.3-.5,2.59-.83,3.87-.33.06-.66.11-.99.16ZM137.91,149.1c-.08-.04-.17-.07-.26-.08.31-1.06.57-2.13.82-3.2.88-.16,1.75-.37,2.61-.64-.92,1.41-2,2.71-3.17,3.92ZM142.32,143.21c-.12.16-.23.32-.35.48-.02.03-.03.06-.05.08-.25.06-.52.2-.75.25-.8.23-1.61.44-2.42.62.02-.09.04-.18.07-.27.27-1.21.51-2.43.73-3.65.17-.04.33-.09.5-.13.98-.17,1.91-.47,2.83-.81-.14.72-.27,1.44-.33,2.17.02.35-.24.87-.23,1.27ZM143.49,136.44c-.09.69-.22,1.38-.36,2.08-.37.17-.7.32-.91.38-.82.24-1.64.46-2.47.67.17-1.04.33-2.08.47-3.13,1.14-.24,2.27-.51,3.38-.86-.04.29-.07.57-.11.86ZM140.37,135.31c.18-1.42.34-2.85.48-4.28,1.13-.28,2.25-.57,3.36-.91-.14,1.42-.29,2.84-.45,4.26-1.11.38-2.24.68-3.39.92ZM143.77,141c.09-.57.2-1.14.32-1.71.1-.04.21-.09.31-.13.13-.07.29-.12.47-.17-.34.68-.71,1.35-1.1,2.01ZM145.48,137.7c-.31,0-.71.12-1.14.28.09-.49.17-.98.23-1.48.05-.44.11-.88.16-1.31.45-.17.89-.35,1.33-.55.2-.12.52-.23.82-.35-.42,1.16-.89,2.3-1.4,3.42ZM148.38,129.69c-.32,1.1-.66,2.19-1.03,3.28-.51-.1-1.11.53-1.64.64-.28.13-.56.25-.84.36.16-1.4.31-2.79.46-4.19,1.09-.35,2.17-.74,3.23-1.17-.07.36-.13.72-.19,1.08ZM147.17,128s.08-.06.12-.1c.01.01.03.02.04.04-.05.02-.11.04-.16.06ZM149.35,121.86c-.27.02-.57.24-.82.37-.79.44-1.64.73-2.49,1.01.18-1.6.38-3.21.59-4.81.73-.28,1.45-.58,2.16-.93.23-.05.4-.12.53-.22,0,.77.03,1.54.13,2.3-.04.76-.08,1.51-.11,2.27Z" fill="#030305"/><path d="M134.58,80.21c.21.03.41-.12.45-.32.74-1.23,1.39-2.51,2.17-3.72.12-.19.04-.45-.15-.56-.66-.41-1.54,1.87-1.9,2.37-.17.54-1.51,1.95-.56,2.23Z" fill="#030305"/><path d="M141.33,81.67c.31-.27.62-.54.94-.79.43-.32-.07-.98-.5-.66-.78.55-1.46,1.22-2.15,1.88-.24.36-1.15.74-.9,1.22.45.8,2.1-1.34,2.6-1.64Z" fill="#030305"/><path d="M144.05,88.26c.95.17,1.81-.56,2.62-.97.56-.32,1.1-.68,1.63-1.03.19-.13.21-.41.08-.58-.12-.16-.36-.21-.53-.11-1.1.62-2.14,1.38-3.31,1.87-.11.03-.22.07-.34.06-.47-.07-.6.65-.15.76Z" fill="#030305"/><path d="M61.23,142.48c-.83-.22-1.74.34-2.56.5-.52.26-2.17.35-1.91,1.17.31.65,1.81-.33,2.4-.4.58-.19,1.17-.38,1.76-.52.4.02.67-.47.32-.74Z" fill="#030305"/><path d="M62.2,148.99c-.38.4-1.52.78-1.11,1.46.59.54,1.25-.58,1.75-.84.36-.41,1.55-.97,1-1.58-.51-.31-1.14.75-1.63.96Z" fill="#030305"/><path d="M67.88,152.98c-.21.7-2.41,2.72-1.57,3.14.63.4,1.93-2.26,2.28-2.75.25-.46-.47-.84-.71-.38Z" fill="#030305"/></svg>