<?xml version="1.0" encoding="UTF-8"?><svg id="Layer_1" xmlns="http://www.w3.org/2000/svg" viewBox="0 0 207.21 203.87"><path d="M84.93,134.93c1.18.98,5.12,2.8,7.59,3.52,3.81,1.1,7.88,1.79,13.74,2.29,4.98.43,5.67.44,8.75.02,3.21-.42,5.02-1,6.29-1.98.9-.71,1.45-1.56,1.77-2.73.46-1.64.33-8.6-.36-18.71-.15-2.15-.31-4.94-.39-6.2-.25-4.67-2.11-24.72-2.83-30.53-.3-2.43-.41-2.98-.59-3.07-.05.57-.13,1.28-.64,1.72-.29.26-.66.36-1.02.43-.24.05-.49.1-.73.14l-.41.08c-.74.14-1.59.3-2.43.44-3.17.53-6.4.83-9.6.88-.81.01-1.64,0-2.45,0-.43,0-.85-.02-1.28-.04-.04,0-.09,0-.14,0-.09,0-.19,0-.29-.01h0c-.08.02-.15.03-.23.03-.06,0-.11-.02-.17-.04-.74-.27-.74-1.08-.75-1.43,0-.61,0-1.24.02-1.94.01-.68.03-1.37.05-2.05-.1,0-.16,0-.16,0,0-.03-.01-.05-.02-.05-.12-.01-.2.23-1.26,3.45-.45,1.41-1.27,3.78-1.79,5.26-1.48,4.11-1.9,5.49-3.21,10.65-.67,2.62-1.74,6.66-2.39,8.99-.64,2.33-1.59,5.85-2.09,7.85-3.21,12.74-3.53,14.16-3.92,17.29-.4,3.38-.18,4.86.9,5.74ZM106.29,86.55c.93-.31,1.83.21,2.07,1.2.26,1.12-.52,2.26-1.51,2.18-1.8-.16-2.23-2.83-.56-3.38ZM103.41,91.91c.37.97.37,1.23.06,2.02-.76,1.96-2.74,1.51-3.8.25-.33-.39-.56-.86-.65-1.35-.53-3.03,3.37-3.55,4.38-.92ZM95.47,88.89c.06-.73,1.67-5.77,2.12-6.63.1-.21.28-.37.4-.36.17.01.19.1.07.64-.17.84-1.68,5.37-2.04,6.11-.33.72-.6.83-.55.24ZM93.54,94.85c.2-1.05.76-2.87,1.02-3.36.56-1.04.55.44,0,2.19-.61,1.97-1.36,2.83-1.02,1.18ZM86.77,122.49c1.04-4.76,1.81-7.93,2.45-10.26.49-1.78,1.95-7.68,2.43-9.78.16-.71,1.01-2.58,1.56-3.45.94-1.48,2.39-2.37,4.1-2.53,1.06-.1,1.61-.03,3.84.49,3.9.92,5.06.98,6.69.35,1.12-.43,1.67-.89,3.39-2.75,1.73-1.89,3-2.87,4.35-3.39.56-.22,1.28-.44,1.59-.46.66-.08,1.3.05,1.64.32.67.51,1,2.02,1.32,5.79.12,1.43.26,2.99.33,3.48.18,1.51.45,5.2.53,7.32.13,3.35.26,5.2.62,8.46.19,1.7.35,4.15.38,5.43.12,5.86.16,8.49.14,10-.05,4.78-1.39,6.31-6.64,7.54-3,.71-5.58.82-9.9.43-4.56-.42-7.1-.96-12.1-2.58-3-.97-4.22-1.5-5.65-2.39-1.06-.67-1.72-1.32-1.97-1.95-.48-1.13-.08-5.48.92-10.04Z" fill="none"/><path d="M98.88,75.03c.1.02.21.04.32.05.1.02.21.03.33.05,2.08.29,6.22.68,12.92,1.22l5.88.48.32.03.33.03.91.07.2-1.32c.13-.84.17-1.36.1-1.44-.03-.04-.33-.1-.85-.17-.1-.02-.21-.03-.33-.05-.1-.01-.21-.03-.32-.04-.75-.1-1.74-.21-2.91-.34-2.35-.25-5.64-.64-7.32-.84-3.05-.4-6.97-.82-8.86-.96-.12-.01-.23-.02-.33-.02-.12,0-.23-.02-.33-.02-.1,0-.19,0-.26-.01-1.02-.03-1.12.12-1.07,1.69.02.9.08,1.17.26,1.35.08.08.4.16.99.26Z" fill="none"/><path d="M99.61,71.04c0,.07,0,.13,0,.19.61.04,1.21.1,1.82.15,3.08.32,6.15.65,9.22,1,1.54.17,3.07.35,4.61.53.77.09,1.54.18,2.3.27.4.05.8.09,1.2.14v-.04c.18-1.36.35-2.73.51-4.09l.06-.54c.19-1.51.38-3.07.18-4.59h0s-.11-.07-.11-.07c-.17-.11-.46-.15-.71-.19-.09-.01-.18-.02-.26-.04-.44-.08-.92-.15-1.47-.24-.87-.13-1.82-.25-2.91-.36-.82-.08-1.61-.16-2.38-.23-1.19-.1-2.34-.18-3.46-.25-2.1-.12-3.84-.14-5.57.11-.51.08-1.01.18-1.47.31-.37.11-.75.22-1.02.43-.24.2-.32.46-.39.9-.01.09-.03.19-.04.29l-.02.07c-.03.09-.05.2-.06.31l-.02.11c-.04.25-.06.52-.08.81-.03.54-.02,1.09,0,1.61.05,1.2.07,2.3.07,3.39ZM115.22,70.22s.21-.07.37-.05c.22.02.27.1.25.32-.03.35-.32.57-.58.44-.19-.09-.22-.56-.05-.7ZM112.55,66.4c.67-.22,1.31.15,1.48.87.19.8-.37,1.63-1.08,1.56-1.29-.11-1.6-2.03-.4-2.43ZM101.07,68.12c.04-.44.12-.63.38-.84.62-.53,1.52-.2,1.86.68.19.5.19.63.03,1.03-.22.55-.76.83-1.25.67-.17-.06-.48-.3-.69-.54-.32-.37-.37-.51-.33-1Z" fill="none"/><path d="M101.08,132.17c1.25,0,1.16-.23-.56-1.29-4.09-2.5-5.68-4.51-5.85-7.47-.11-1.79.8-3.84,2.32-5.2.94-.84,3.05-2.06,4.58-2.64,1.09-.41,1.32-.63.84-.81-.16-.05-.76-.13-1.37-.18-4.51-.35-8.54,2.05-10.15,6.04-.92,2.28-.71,4.92.59,7.3,1.59,2.89,4.75,4.29,9.6,4.25Z" fill="none"/><path d="M106.66,111.88l1.53.54-.13.66c-.07.37-.27,1.54-.43,2.59-.45,2.74-.33,2.79,1.51.77.61-.67,1.4-1.6,1.77-2.07.36-.46.7-.84.75-.84.04,0,1.04.57,2.21,1.25,3.15,1.82,3.4,1.75,1.91-.47-.52-.79-1.22-1.84-1.53-2.32l-.57-.87,1.47-1.3c.8-.7,1.47-1.35,1.47-1.41.02-.25-.42-.26-1.56.02-.68.15-1.48.38-1.8.47-.71.23-.64.34-1.41-2.15-.34-1.06-.68-2.02-.77-2.15-.36-.5-.45-.36-.75,1.33-.23,1.26-.76,3.5-.85,3.57-.03.01-1.07.21-2.34.45-2.52.47-2.74.54-2.76.81-.02.24.44.47,2.29,1.12Z" fill="none"/><path d="M108.8,76.6c-.97-.08-1.95-.16-2.92-.24-1.01-.09-2.02-.17-3.02-.26-1.01-.09-2.03-.13-3.03-.25-.03,0-.15-.02-.31-.04-.02.66-.04,1.33-.05,2-.01.7-.02,1.33-.02,1.93,0,.5.09.73.31.82l.08-.04.1.02c.09.01.19.01.29.01.05,0,.11,0,.16,0,.42.02.84.03,1.26.04.8.02,1.62.02,2.42,0,3.16-.05,6.36-.35,9.5-.87.84-.14,1.69-.3,2.42-.44l.41-.08c.24-.04.48-.09.72-.14.31-.07.55-.14.72-.29.32-.28.37-.81.42-1.32v-.05c-.08-.01-.17-.02-.26-.03-1.78-.14-3.55-.3-5.33-.45-1.29-.11-2.58-.22-3.87-.33ZM106.66,78.71c-.04.41-.26.6-.69.57-.58-.05-.73-.87-.22-1.17.16-.1.32-.17.36-.17.24.02.57.48.55.77Z" fill="none"/><path d="M88.35,137.76c3.55,1.63,7.32,2.56,14.07,3.45,7.28.96,11.62.92,15.98-.17,2.82-.71,4.28-1.76,5.19-3.77.32-.67.37-.96.5-2.71.26-3.09.08-9.17-.49-17.29-.15-2.14-.34-5.11-.42-6.61-.17-2.92-1.26-14.78-1.67-18.13-.14-1.13-.45-3.61-.7-5.52-.42-3.33-1.06-9.28-1-9.28.68-.15.87-.57,1.01-2.2.05-.53.34-1.66-.29-1.95-.13-.06-.27-.08-.41-.1-.23-.03-.46-.05-.69-.08v-.03c.17-1.36.34-2.73.51-4.09l.07-.53c.2-1.61.4-3.27.16-4.92-.02-.14-.09-.26-.21-.33-.08-.06-.18-.09-.28-.09-.28-.14-.6-.19-.88-.23-.08-.01-.16-.02-.23-.04-.44-.08-.93-.16-1.49-.24-.88-.13-1.84-.25-2.94-.37-2.09-.22-4.01-.38-5.87-.48-2.14-.12-3.92-.15-5.7.12-.54.08-1.06.19-1.57.33-.41.12-.87.25-1.24.55-.45.36-.56.87-.62,1.32-.01.08-.03.17-.04.26-.05.14-.07.28-.09.41v.1c-.05.28-.08.56-.1.87-.03.57-.02,1.14,0,1.68.05,1.19.07,2.28.07,3.35,0,.05,0,.11,0,.16-.16,0-.32-.01-.48-.01-.39,0-.86-.05-1.13.29-.25.32-.25.85-.27,1.24-.1,1.31.02,2.04.4,2.49l.28.33-.69,2.16c-.37,1.18-1.26,3.77-1.97,5.73-1.7,4.78-2.17,6.26-3.07,9.8-.41,1.65-.93,3.68-1.14,4.51-.21.83-.95,3.55-1.62,6.06-1.1,4.01-3.15,11.96-4.53,17.59-1.68,6.83-2.11,10.87-1.35,12.79.5,1.21,1.66,2.06,4.97,3.59ZM99.54,66.04c.02-.29.04-.55.08-.81l.02-.11c.02-.11.03-.23.06-.31l.02-.07c.02-.1.03-.2.04-.29.06-.43.14-.7.39-.9.27-.22.65-.33,1.02-.43.47-.13.96-.24,1.47-.31,1.73-.25,3.48-.23,5.57-.11,1.12.06,2.27.14,3.46.25.77.07,1.56.14,2.38.23,1.09.12,2.04.24,2.91.36.55.08,1.04.16,1.47.24.08.01.17.03.26.04.25.03.54.07.71.19l.11.07h0c.2,1.51,0,3.07-.18,4.59l-.06.54c-.16,1.36-.33,2.73-.51,4.09v.04c-.4-.05-.8-.09-1.2-.14-.77-.09-1.53-.18-2.3-.27-1.53-.18-3.07-.36-4.61-.53-3.07-.35-6.14-.68-9.22-1-.62-.05-1.22-.11-1.82-.15,0-.07,0-.13,0-.19,0-1.08-.02-2.19-.07-3.39-.02-.52-.04-1.07,0-1.61ZM97.63,73.42c-.05-1.56.05-1.71,1.07-1.69.07,0,.16,0,.26.01.1,0,.21.01.33.02.1,0,.21.01.33.02,1.89.15,5.81.57,8.86.96,1.67.21,4.97.59,7.32.84,1.17.13,2.16.25,2.91.34.11.01.22.03.32.04.12.02.23.03.33.05.51.08.82.14.85.17.07.08.04.6-.1,1.44l-.2,1.32-.91-.07-.33-.03-.32-.03-5.88-.48c-6.7-.54-10.84-.93-12.92-1.22-.12-.02-.22-.03-.33-.05-.12-.02-.22-.03-.32-.05-.59-.1-.91-.18-.99-.26-.18-.17-.24-.45-.26-1.35ZM118.26,77.41v.05c-.05.51-.1,1.04-.42,1.32-.17.15-.41.22-.72.29-.24.05-.48.09-.72.14l-.41.08c-.73.14-1.59.3-2.42.44-3.14.53-6.33.82-9.5.87-.8.01-1.62.01-2.42,0-.42,0-.84-.02-1.26-.04-.05,0-.1,0-.16,0-.1,0-.21,0-.29-.01l-.1-.02-.08.04c-.23-.09-.31-.31-.31-.82,0-.6,0-1.23.02-1.93.01-.66.03-1.34.05-2,.16.02.28.04.31.04,1.01.12,2.02.17,3.03.25,1.01.09,2.02.17,3.02.26.97.08,1.94.16,2.92.24,1.29.11,2.58.22,3.87.33,1.78.15,3.55.31,5.33.45.09,0,.18.02.27.03ZM84.03,129.19c.38-3.14.7-4.56,3.92-17.29.51-1.99,1.45-5.52,2.09-7.85.64-2.32,1.72-6.37,2.39-8.99,1.31-5.16,1.72-6.54,3.21-10.65.52-1.48,1.34-3.85,1.79-5.26,1.05-3.22,1.14-3.46,1.26-3.45,0,0,.01.02.02.05,0-.01.06-.01.16,0-.02.68-.04,1.37-.05,2.05-.01.7-.02,1.33-.02,1.94,0,.35,0,1.16.75,1.43.06.02.11.04.17.04.08,0,.16,0,.23-.03h0c.1,0,.2.01.29.01.05,0,.09,0,.14,0,.43.02.85.03,1.28.04.81.02,1.63.02,2.45,0,3.2-.05,6.43-.35,9.6-.88.84-.14,1.7-.3,2.43-.44l.41-.08c.24-.05.49-.09.73-.14.36-.07.72-.18,1.02-.43.51-.44.58-1.15.64-1.72.18.09.29.64.59,3.07.72,5.82,2.58,25.86,2.83,30.53.08,1.26.24,4.05.39,6.2.68,10.1.82,17.06.36,18.71-.32,1.18-.88,2.02-1.77,2.73-1.26.98-3.08,1.56-6.29,1.98-3.08.42-3.77.41-8.75-.02-5.86-.51-9.93-1.19-13.74-2.29-2.47-.72-6.41-2.54-7.59-3.52-1.08-.88-1.31-2.36-.9-5.74Z"/><path d="M112.96,68.83c.71.06,1.27-.76,1.08-1.56-.17-.71-.81-1.09-1.48-.87-1.2.4-.89,2.32.4,2.43Z"/><path d="M106.85,89.94c.98.09,1.77-1.06,1.51-2.18-.24-.99-1.13-1.52-2.07-1.2-1.67.56-1.24,3.23.56,3.38Z"/><path d="M102.09,69.66c.49.17,1.03-.12,1.25-.67.16-.4.16-.54-.03-1.03-.34-.88-1.23-1.21-1.86-.68-.26.21-.34.4-.38.84-.04.49,0,.63.33,1,.21.24.52.48.69.54Z"/><path d="M99.68,94.18c1.05,1.26,3.03,1.71,3.8-.25.31-.79.31-1.05-.06-2.02-1.01-2.64-4.91-2.11-4.38.92.09.5.32.97.65,1.35Z"/><path d="M115.27,70.92c.26.13.55-.09.58-.44.02-.22-.04-.3-.25-.32-.16-.01-.33,0-.37.05-.17.14-.14.61.05.7Z"/><path d="M96.01,88.65c.36-.74,1.87-5.26,2.04-6.11.12-.54.1-.63-.07-.64-.12-.01-.3.15-.4.36-.45.86-2.06,5.9-2.12,6.63-.05.6.22.48.55-.24Z"/><path d="M87.82,134.48c1.43.9,2.65,1.42,5.65,2.39,5,1.62,7.55,2.16,12.1,2.58,4.31.38,6.9.28,9.9-.43,5.25-1.23,6.6-2.76,6.64-7.54.02-1.51-.02-4.14-.14-10-.02-1.29-.19-3.73-.38-5.43-.35-3.26-.49-5.11-.62-8.46-.09-2.12-.36-5.8-.53-7.32-.07-.48-.2-2.04-.33-3.48-.31-3.76-.65-5.27-1.32-5.79-.35-.26-.98-.39-1.64-.32-.31.02-1.03.24-1.59.46-1.35.52-2.61,1.5-4.35,3.39-1.72,1.87-2.28,2.32-3.39,2.75-1.63.63-2.79.57-6.69-.35-2.23-.52-2.77-.6-3.84-.49-1.71.16-3.16,1.05-4.1,2.53-.55.87-1.4,2.74-1.56,3.45-.48,2.11-1.95,8.01-2.43,9.78-.64,2.33-1.41,5.5-2.45,10.26-.99,4.55-1.4,8.9-.92,10.04.25.63.91,1.28,1.97,1.95ZM104.37,110.77c.02-.27.24-.34,2.76-.81,1.26-.23,2.31-.44,2.34-.45.09-.08.62-2.32.85-3.57.31-1.69.39-1.83.75-1.33.09.13.43,1.09.77,2.15.77,2.49.7,2.38,1.41,2.15.31-.1,1.12-.32,1.8-.47,1.14-.28,1.58-.28,1.56-.02,0,.06-.67.7-1.47,1.41l-1.47,1.3.57.87c.32.48,1.01,1.52,1.53,2.32,1.49,2.23,1.24,2.29-1.91.47-1.17-.68-2.17-1.25-2.21-1.25-.05,0-.39.38-.75.84-.37.47-1.16,1.4-1.77,2.07-1.83,2.03-1.95,1.97-1.51-.77.16-1.05.36-2.22.43-2.59l.13-.66-1.53-.54c-1.85-.65-2.31-.87-2.29-1.12ZM90.88,120.63c1.61-4,5.64-6.4,10.15-6.04.61.05,1.22.13,1.37.18.48.18.25.4-.84.81-1.52.58-3.63,1.8-4.58,2.64-1.52,1.37-2.43,3.41-2.32,5.2.17,2.96,1.76,4.97,5.85,7.47,1.73,1.06,1.82,1.29.56,1.29-4.85.05-8.01-1.36-9.6-4.25-1.3-2.37-1.52-5.02-.59-7.3Z"/><path d="M94.56,93.67c.54-1.75.55-3.23,0-2.19-.25.49-.81,2.31-1.02,3.36-.34,1.65.41.8,1.02-1.18Z"/><path d="M106.11,77.94s-.2.07-.36.17c-.52.3-.37,1.12.22,1.17.43.04.65-.15.69-.57.03-.29-.3-.75-.55-.77Z"/></svg>