<?xml version="1.0" encoding="UTF-8"?><svg id="Layer_1" xmlns="http://www.w3.org/2000/svg" viewBox="0 0 207.21 203.87"><path d="M102.96,70.13c.15-.69,1.27-.49,1.22.19,0,3.01.03,6.02-.03,9.03,1.22-2.62,2.36-5.28,3.56-7.9.13-.48.82-.65,1.11-.21.31.31,0,.72-.1,1.05-1.37,2.99-2.66,6.01-4.05,8.99-.16.33-.27.69-.35,1.05.22-.16.44-.34.6-.57,1.72-2.5,3.44-5,5.11-7.53.17-.23.31-.51.56-.66.39-.13.81.18.86.57-.03.33-.27.59-.43.86-2.01,2.93-3.98,5.88-5.99,8.81,5.15,9.22,10.56,18.28,15.89,27.39,2.17,3.66,4.31,7.33,6.52,10.97-6.1,2.36-12.65,3.34-19.15,3.61-1.35-4.91-2.65-9.84-3.86-14.79.73,0,1.45,0,2.18-.02.1-.33.12-.66.08-.99-.84-.03-1.69-.03-2.53-.08-.02-.87-.06-1.75-.08-2.62.63,0,1.25-.01,1.88-.02.02-.3.03-.6.04-.89-.66-.02-1.31-.02-1.96-.04,0-.91,0-1.82,0-2.73.64,0,1.28,0,1.92-.05v-.92c-.64-.04-1.28-.06-1.91-.06,0-.87,0-1.75,0-2.62.64,0,1.28,0,1.92-.03-.01-.32-.02-.64-.03-.96-1.59-.02-3.18-.04-4.76,0,0,.31-.01.62,0,.94.62.04,1.24.05,1.86.07,0,.87,0,1.74,0,2.61-.62.01-1.24.03-1.86.05-.05.3-.09.6-.1.91.66.02,1.31.05,1.97.06,0,.91,0,1.83,0,2.75-.66,0-1.31,0-1.97.02,0,.3,0,.61,0,.91.66.04,1.32.04,1.98.04,0,.88,0,1.77-.04,2.65-.87.03-1.74-.06-2.6.05-.36.22-.18,1.07.33.97.66.02,1.33,0,1.99.02-1.17,4.94-2.49,9.85-3.8,14.76-2.91-.04-5.82-.33-8.68-.83-3.58-.56-7.11-1.45-10.48-2.76,2.99-5.01,5.9-10.07,8.87-15.1,4.52-7.72,9.07-15.43,13.48-23.22-1.99-3.04-4.07-6.02-6.1-9.03-.15-.31-.54-.69-.23-1.02.25-.38.83-.4,1.06.02,1.66,2.42,3.29,4.86,4.96,7.27.3.44.57.9.97,1.27-.08-.86-.55-1.6-.88-2.38-1.18-2.63-2.38-5.25-3.56-7.88-.09-.25-.28-.58-.06-.82.24-.38.92-.46,1.08.04,1.24,2.69,2.46,5.4,3.63,8.12-.04-3.11-.03-6.21,0-9.32Z"/><path d="M76,128.5c1-1.85,2.17-3.6,3.2-5.43,6.16,2.53,12.85,3.39,19.46,3.78-.64,2.44-1.27,4.88-1.97,7.31-6.95-.38-13.98-1.59-20.33-4.53-.77-.25-1.58-.02-2.37,0-.53-1.72-.95-3.48-1.38-5.22.68-.22,1.36-.41,2.05-.59.49,1.55.81,3.14,1.33,4.68ZM80.25,125.44c-1,.67-1.93,1.44-2.86,2.21.18.27.39.53.62.77.77-.58,1.51-1.19,2.29-1.75.21.95.34,1.93.64,2.86.2-.03.61-.1.81-.13-.1-1.25-.38-2.48-.65-3.71-.05-.43-.56-.5-.85-.25ZM85.14,127.13c.41,1.19.79,2.38,1.24,3.55.09.36.6.42.82.16.72-.71,1.41-1.44,2.16-2.12.18-.23.59-.45.43-.8-.09-.28-.47-.58-.73-.32-.71.61-1.35,1.29-1.99,1.98-.35-.92-.6-1.88-1.03-2.77-.31.08-.61.18-.89.33ZM92.86,128.41c-.74.96-1.57,1.84-2.27,2.83.23.2.46.4.69.6.69-.72,1.28-1.52,1.94-2.25.4.85.8,1.71,1.28,2.52.29-.11.57-.26.82-.44-.55-1.18-1.11-2.36-1.65-3.54-.31-.01-.67-.06-.82.28Z"/><path d="M108.53,126.85c6.61-.33,13.25-1.39,19.48-3.71,1.04,1.84,2.19,3.6,3.16,5.47.47-1.6.91-3.21,1.35-4.82.71.16,1.4.38,2.08.62-.49,1.76-.94,3.53-1.46,5.28-.9-.04-1.87-.37-2.71.07-3.43,1.6-7.11,2.6-10.81,3.33-3.04.52-6.11,1-9.19,1.05-.63-2.43-1.28-4.86-1.89-7.3ZM126.05,125.6c-.36,1.11-.52,2.29-.77,3.43-.15.48.53.41.81.5.32-.92.48-1.88.7-2.82.77.53,1.45,1.21,2.26,1.7.3-.14.47-.44.68-.68-.89-.78-1.86-1.47-2.79-2.2-.25-.25-.79-.37-.89.08ZM121.03,126.75c-.32.92-.66,1.84-.95,2.77-.67-.7-1.36-1.39-2.06-2.06-.28.16-.52.36-.75.58.53.77,1.27,1.36,1.89,2.05.34.33.63.76,1.09.93.29-.04.54-.23.6-.53.36-1.18.76-2.33,1.11-3.51-.3-.12-.61-.22-.92-.23ZM113.28,128.51c-.49,1.05-.94,2.12-1.46,3.17.26.18.52.34.81.48.51-.81.83-1.72,1.27-2.57.66.7,1.29,1.43,1.9,2.17.3-.12.56-.3.79-.52-.74-1.06-1.64-1.99-2.47-2.98-.26-.32-.74-.11-.83.24Z"/></svg>