<?xml version="1.0" encoding="UTF-8"?><svg id="Layer_1" xmlns="http://www.w3.org/2000/svg" viewBox="0 0 207.21 203.87"><path d="M106.73,114.93c1.45.82,2.65,1.27,5.26,1.98,2.62.71,4.26.97,4.59.73.26-.19.24-.24-.45-2.48-.95-3.01-2.31-6.74-2.99-8.19-1.06-2.27-2.23-3.62-3.25-3.77-.71-.12-1.18.05-1.75.58-1.02.95-1.26,2.22-.76,3.91.32,1.07.32,1.13.05.99-.17-.08-.7-.21-1.19-.28-1.13-.17-2.69.23-3.17.8-.34.42-.47,1.21-.31,1.75.38,1.28,1.96,2.85,3.98,3.99Z" fill="none"/><path d="M103.51,143.24c-.44-.08-.7.31-.49.78.12.31.23.37.52.32.4-.07.61-.57.37-.87-.07-.09-.25-.18-.41-.22Z" fill="none"/><path d="M87.06,52h0c-.02-.1-.16-.13-.23-.13-1.36-.05-2.72.12-4.03.51-1.38.41-2.69,1.06-3.88,1.92-.1.07-.13.17-.09.29v.02s.01.02.01.02c.11.65.35,1.3.58,1.93l.11.3c.1.27.19.53.29.8.14.4.29.81.44,1.22.8-.29,1.63-.49,2.44-.74.58-.17,1.17-.35,1.75-.53.83-.26,1.66-.52,2.49-.78.42-.13.84-.25,1.26-.36-.26-.99-.52-1.99-.76-2.96-.13-.51-.26-1.01-.39-1.52ZM84.84,55.28c0,.06-.02.11-.05.17-.02.03-.04.06-.07.09-.03.02-.06.05-.08.07-.03.02-.07.03-.1.05-.04,0-.07.01-.11.02h-.11c-.06-.02-.11-.05-.15-.08-.03-.02-.06-.04-.08-.07-.03-.03-.05-.06-.06-.09-.02-.03-.03-.07-.03-.1-.01-.04-.01-.07,0-.11,0-.06.02-.11.05-.17.02-.03.04-.06.07-.09.03-.02.06-.05.08-.07,0,0,0,0,0,0,.06-.04.13-.06.21-.06.06,0,.11,0,.17.03.05.01.1.04.14.08.03.03.06.06.08.1.02.02.03.05.04.08,0,0,0,0,0,0,0,0,0,0,0,0,0,0,0,0,0,0,0,.02.01.04.01.06.01.04.01.07,0,.11ZM86.38,54.13c0,.05-.03.1-.06.13-.03.04-.06.08-.1.1h0c-.06.04-.12.06-.18.06-.03,0-.07,0-.1,0-.07-.02-.12-.05-.17-.09-.02-.02-.04-.05-.06-.07-.03-.04-.04-.09-.05-.14-.01-.05-.01-.1,0-.15,0-.05.03-.1.06-.13.03-.04.06-.08.1-.1h0c.06-.04.12-.06.18-.06h.1c.07.02.12.05.17.1.02.02.04.05.06.07.03.04.04.09.05.14.01.05.01.1,0,.15ZM86.51,52.81c-.22.24-.55.38-.84.54-.28.15-.57.29-.86.43-.57.26-1.15.49-1.74.69-.62.2-1.25.35-1.89.46-.59.1-1.27.24-1.85.1-.22-.05-.23-.36-.02-.44.56-.19,1.21-.2,1.79-.3.6-.11,1.2-.26,1.78-.45.59-.19,1.17-.41,1.73-.69.27-.13.54-.28.81-.43.25-.14.49-.34.77-.43.3-.1.53.28.32.51Z" fill="none"/><path d="M106.49,132.52c-.89-.42-1.6.75-.84,1.38.33.29,1.07.17,1.27-.21.17-.31-.1-1.02-.44-1.18Z" fill="none"/><path d="M113.48,99.81c.3,0,.41-.11.58-.46.23-.53.17-.82-.24-1.14-.53-.42-1.22.05-1.19.83.02.46.4.79.85.77Z" fill="none"/><path d="M90.56,111.3c2.32,1.43,2.79,1.51,3,.41.15-.79.66-7.61.66-8.83,0-3.75-.91-6.38-2.41-6.93-.91-.34-1.86.13-2.58,1.28-.72,1.15-1.06,2.53-.97,3.88l.03.4-1-.51c-1.19-.61-2.17-.77-3.1-.51-1.36.39-1.74,1.33-1.22,3.01.79,2.55,3.36,5.19,7.59,7.8Z" fill="none"/><path d="M101,93.96c.69-.21.75-1.23.12-1.73-.32-.26-1.1-.12-1.26.25-.33.77.39,1.71,1.15,1.48Z" fill="none"/><path d="M114.24,127.38c-.13.39-.13.38-.43-.62-.51-1.66-1.56-2.98-2.51-3.16-.64-.11-.96-.07-1.36.19-.8.51-1.2,2.14-1.04,4.17.13,1.48.7,4.08,1.17,5.33.59,1.56,3.42,7.94,3.56,8.07.06.07.27.06.42.02.22-.07.55-.57,1.11-1.67,2.68-5.24,3.87-8.31,4.33-11.12.21-1.27.2-1.55-.05-2.53-.33-1.34-.71-1.76-1.77-1.89-1.42-.18-2.75,1.05-3.43,3.21Z" fill="none"/><path d="M86.18,117.15c-.19-.07-.39-.11-.43-.1-.04.01-.18.16-.31.32-.25.32-.16.93.21,1.3.25.24.88.11,1.06-.22.19-.36-.13-1.18-.53-1.31Z" fill="none"/><path d="M80.56,126.02c2.29,7.93,3.3,10.95,5.32,16.06.61,1.56,1.42,3.62,1.79,4.57.37.95.99,2.48,1.35,3.41l.67,1.67.68.1c1.61.25,6.19-.15,10.5-.94,4.58-.82,6.33-1.24,10.54-2.5,4.86-1.45,6.36-2.05,11.43-4.53,5.14-2.53,7.43-3.9,7.79-4.68.07-.15.05-.65-.03-1.1-.08-.45-1.42-5.3-2.98-10.76-1.56-5.47-3.33-11.93-3.92-14.35-1.28-5.22-2.65-9.89-3.38-11.57-1.99-4.67-5.11-9.42-7.88-12-1.88-1.77-4.16-3.23-9.82-6.37-2.49-1.37-4.41-2.54-4.96-3-2.3-1.92-3.88-4.43-5.26-8.39-.68-1.9-1.83-6.46-2.2-8.72-.12-.78-.33-1.68-.47-2.02-.3-.76-.14-1.52.56-2.79.26-.47.45-.96.41-1.09-.18-.59-1.3-.14-1.66-.04-.02,0-.04.01-.05.02.03.11.06.23.09.34.03.11.06.22.09.33.19.65.39,1.33.35,2.03-.03.58-.51.82-.86.99-.06.03-.12.06-.17.09-.37.2-.7.37-1.04.54-.78.39-1.74.84-2.79,1.15-.56.17-1.14.3-1.75.36h-.13c-.39.06-.89.12-1.29-.06-.39-.18-.54-.54-.65-.83-.02-.04-.04-.09-.05-.13-.29-.7-.58-1.4-.85-2.09-.22.09-.44.2-.64.34-.21.15-.77.44-.62.76.1.21.35.39.53.53.24.18.51.34.78.48q1.1.57,2.69,5.18c2.68,7.79,3.75,13.33,3.2,16.71-.39,2.41-1.55,4.69-4.73,9.26-2.68,3.88-3.62,5.88-4.19,8.94-.49,2.66-.4,5.5.32,10.31.67,4.5,1,5.92,3.28,13.78ZM90.87,70.82c.13-.04.24.12.35.5.2.69,1.41,3.89,2.01,5.41.46,1.1.55,1.56.37,1.62-.49.15-2.33-4.24-2.76-6.55-.11-.66-.11-.93.03-.97ZM88.7,63.58c.03-.11.12-.18.21-.18.2,0,1.65,4.72,1.66,5.38.01.48-.3.62-.53.23-.22-.36-1.41-5.2-1.33-5.44ZM80.73,96.62c1.24-2.31,4.09-6.44,5.26-7.65.72-.73,1.12-.92,3.85-1.89,1.13-.4,3.46-1.13,5.17-1.62,3.66-1.05,4.11-1.08,6.47-.48,2.09.54,3.12.97,4.73,1.93,3.33,1.99,5.44,3.62,7.31,5.68,2.54,2.75,3.32,4.4,5.58,11.6,1.01,3.25,1.89,6.31,2.28,7.95.33,1.45.85,3.64,1.15,4.86.28,1.23,1.48,5.87,2.65,10.32,1.45,5.53,2.15,8.41,2.22,9.07.15,1.81-.18,2.63-1.59,3.87-1.51,1.33-2.85,2-7.92,3.94-2.54.99-3.31,1.22-6.51,2.03-2.01.5-4.62,1.11-5.81,1.35-1.19.24-3.6.77-5.33,1.16-5.52,1.26-8.55,1.44-9.37.59-.4-.41-1.5-2.96-2.56-5.88-.48-1.32-1.29-3.51-1.8-4.85-2.45-6.43-4.03-11.47-4.79-15.32-.16-.77-.67-3.15-1.14-5.26-2.77-12.47-2.75-16.01.16-21.39Z" fill="none"/><path d="M81.41,61.73c.11.26.18.43.34.5.24.11.64.07.96.03l.14-.02c1.64-.18,3.17-.87,4.33-1.45.34-.17.66-.34,1.03-.54.06-.03.13-.07.19-.1.35-.17.51-.27.52-.48.03-.6-.15-1.22-.33-1.83-.03-.11-.07-.23-.1-.34-.03-.11-.06-.22-.09-.33-.53.16-1.07.31-1.6.47l-2.87.86c-.56.17-1.13.34-1.69.51-.53.16-1.07.28-1.6.46-.04.01-.08.03-.13.04.27.68.55,1.37.84,2.06.02.04.04.09.06.14ZM83.24,59.25c.93-.36,3.16-.88,3.34-.8.28.13-.55.51-2.36,1.05-1.23.37-1.88.5-2.01.43-.24-.13.02-.31,1.03-.68Z" fill="none"/><path d="M90.95,124.41c-1.44.43-2.04,1.25-1.93,2.68.05.69.14.95.58,1.78,1.11,2.05,3.48,4.16,6.81,6.05,1.75.99,4.94,2.35,5.28,2.25.13-.04.29-.23.34-.43.29-.94.54-6.85.47-10.95-.06-4.69-.85-6.79-2.63-7.12-.72-.14-1.62.21-2.26.89-1.03,1.08-1.46,2.66-1.29,4.78l.1,1.14-.68-.41c-1.41-.84-3.27-1.09-4.78-.64Z" fill="none"/><path d="M95.65,141.55c-.41-.22-.93-.09-1.12.28-.24.41.08,1.27.5,1.4.43.14.99,0,1.15-.29.19-.34-.13-1.18-.53-1.4Z" fill="none"/><path d="M80.84,61.96c.12.29.26.65.65.83.4.18.89.13,1.29.08h.13c.6-.08,1.19-.21,1.75-.38,1.05-.31,2.01-.76,2.79-1.15.34-.17.67-.35,1.04-.54.06-.03.11-.06.17-.09.35-.17.83-.41.86-.99.04-.7-.16-1.38-.35-2.03-.03-.11-.06-.22-.09-.33-.03-.11-.06-.23-.09-.34-.2.05-.39.11-.59.17.03.11.06.22.09.33.03.11.06.22.1.34.18.61.36,1.23.33,1.83-.01.2-.18.3-.52.48-.07.03-.13.07-.19.1-.36.19-.69.37-1.03.54-1.16.58-2.69,1.27-4.33,1.45l-.14.02c-.32.04-.72.08-.96-.03-.16-.07-.23-.24-.34-.5-.02-.05-.04-.1-.06-.14-.29-.69-.57-1.38-.84-2.06-.19.07-.39.13-.58.21.27.69.56,1.39.85,2.09.02.04.04.09.05.13Z"/><path d="M79.82,57.67c-.09-.27-.19-.53-.29-.8l-.11-.3c-.23-.63-.47-1.28-.58-1.93v-.02s-.01-.02-.01-.02c-.04-.12,0-.22.09-.29,1.18-.86,2.5-1.51,3.88-1.92,1.31-.39,2.67-.57,4.03-.51.07,0,.2.03.23.13h0c.13.51.26,1.01.39,1.52.25.97.5,1.97.76,2.96.2-.05.4-.1.6-.15-.26-.99-.52-1.99-.76-2.96-.13-.51-.26-1.01-.39-1.52-.09-.34-.41-.58-.8-.59-2.93-.12-5.87.79-8.29,2.55-.31.22-.43.58-.32.95.12.7.37,1.37.61,2.02l.11.3c.1.26.19.53.28.8.15.41.3.83.45,1.24.19-.08.38-.16.57-.23-.15-.41-.3-.82-.44-1.22Z"/><path d="M79.49,125.73c1.74,6.19,3.51,11.54,5.25,15.91.61,1.51,1.56,3.92,2.11,5.33,1.12,2.87,1.59,3.92,2.16,4.83.38.59.45.63,1.27.73,2.34.31,6.8-.22,14.61-1.72,2.99-.57,10.74-2.84,12.89-3.77,4.03-1.75,9.59-4.47,11.31-5.56,1.16-.72,2.04-1.5,2.28-2,.12-.22.19-.72.14-1.11-.03-.41-1.28-4.96-3.04-11.15-1.64-5.76-3.5-12.51-4.13-15.01-2.3-9.19-3.27-11.85-6.17-16.67-1.78-2.98-4.06-5.79-6.01-7.46-1.64-1.39-4.85-3.38-10.2-6.34-3.07-1.69-3.85-2.26-5.27-3.83-2.07-2.32-2.97-4.26-4.59-10.1-1.37-4.95-1.85-7.37-1.58-8.2.09-.28.2-.53.25-.55.05-.02.25-.41.43-.86.37-.95.27-1.66-.31-2.06-.44-.3-1.04-.06-1.51.05-.19.04-.38.09-.57.14-.2.05-.4.1-.6.15-.42.11-.84.23-1.26.36-.83.26-1.66.52-2.49.78-.58.18-1.16.36-1.75.53-.81.24-1.65.44-2.44.74-.19.07-.38.15-.57.23-.03.02-.07.03-.1.05-.87.4-1.57,1.04-1.63,1.48-.07.52.25.9,1.31,1.51,1.51.87,1.24.3,3.2,6.79,1.98,6.59,2.45,8.65,2.62,11.72.09,1.64.02,2.7-.27,3.79-.38,1.51-1.98,4.4-4.13,7.49-2.93,4.2-4.03,6.49-4.66,9.61-.48,2.4-.44,4.78.09,8.99.61,4.78,1.32,7.97,3.36,15.2ZM76.97,101.93c.57-3.06,1.51-5.06,4.19-8.94,3.18-4.57,4.34-6.85,4.73-9.26.54-3.38-.52-8.92-3.2-16.71q-1.59-4.61-2.69-5.18c-.27-.14-.53-.3-.78-.48-.18-.14-.43-.32-.53-.53-.16-.33.4-.61.62-.76.2-.14.41-.25.64-.34.19-.08.38-.15.58-.21.04-.01.08-.03.13-.04.53-.18,1.07-.3,1.6-.46.56-.17,1.13-.34,1.69-.51l2.87-.86c.53-.16,1.07-.32,1.6-.47.2-.06.39-.12.59-.17.02,0,.04-.01.05-.02.36-.1,1.48-.55,1.66.04.04.13-.14.62-.41,1.09-.7,1.27-.86,2.03-.56,2.79.14.33.35,1.23.47,2.02.37,2.26,1.52,6.82,2.2,8.72,1.38,3.96,2.97,6.47,5.26,8.39.55.47,2.47,1.63,4.96,3,5.67,3.14,7.94,4.6,9.82,6.37,2.77,2.58,5.88,7.33,7.88,12,.73,1.68,2.1,6.35,3.38,11.57.59,2.42,2.36,8.88,3.92,14.35,1.56,5.46,2.9,10.3,2.98,10.76.08.45.1.95.03,1.1-.35.78-2.65,2.15-7.79,4.68-5.07,2.48-6.57,3.08-11.43,4.53-4.21,1.26-5.95,1.68-10.54,2.5-4.31.78-8.89,1.18-10.5.94l-.68-.1-.67-1.67c-.36-.92-.98-2.45-1.35-3.41-.37-.95-1.18-3.01-1.79-4.57-2.03-5.11-3.03-8.13-5.32-16.06-2.27-7.86-2.61-9.28-3.28-13.78-.72-4.82-.8-7.65-.32-10.31Z"/><path d="M90.57,68.78c0-.66-1.46-5.38-1.66-5.38-.09,0-.18.07-.21.18-.07.24,1.11,5.07,1.33,5.44.23.39.55.25.53-.23Z"/><path d="M93.61,78.34c.18-.06.09-.52-.37-1.62-.61-1.51-1.81-4.72-2.01-5.41-.11-.38-.22-.54-.35-.5-.13.04-.14.31-.03.97.43,2.31,2.27,6.7,2.76,6.55Z"/><path d="M81.72,123.28c.76,3.85,2.33,8.89,4.79,15.32.51,1.34,1.32,3.52,1.8,4.85,1.06,2.92,2.16,5.46,2.56,5.88.81.85,3.85.66,9.37-.59,1.74-.39,4.14-.92,5.33-1.16,1.19-.24,3.8-.84,5.81-1.35,3.19-.81,3.97-1.04,6.51-2.03,5.07-1.94,6.41-2.61,7.92-3.94,1.41-1.24,1.74-2.06,1.59-3.87-.06-.65-.77-3.54-2.22-9.07-1.17-4.45-2.37-9.1-2.65-10.32-.29-1.22-.81-3.41-1.15-4.86-.39-1.64-1.27-4.7-2.28-7.95-2.25-7.2-3.03-8.86-5.58-11.6-1.88-2.06-3.99-3.68-7.31-5.68-1.61-.96-2.64-1.39-4.73-1.93-2.37-.6-2.82-.57-6.47.48-1.71.48-4.03,1.22-5.17,1.62-2.73.97-3.13,1.16-3.85,1.89-1.18,1.21-4.03,5.34-5.26,7.65-2.91,5.38-2.93,8.92-.16,21.39.47,2.11.98,4.49,1.14,5.26ZM86.71,118.46c-.17.33-.81.46-1.06.22-.37-.38-.47-.98-.21-1.3.12-.16.27-.31.31-.32.04-.01.24.03.43.1.4.12.73.95.53,1.31ZM96.17,142.94c-.16.29-.72.43-1.15.29-.43-.13-.74-.99-.5-1.4.19-.37.71-.5,1.12-.28.39.21.72,1.05.53,1.4ZM103.55,144.34c-.3.06-.41,0-.52-.32-.21-.47.05-.86.49-.78.16.04.34.13.41.22.23.3.02.8-.37.87ZM106.93,133.7c-.2.38-.94.5-1.27.21-.77-.64-.05-1.81.84-1.38.34.16.61.87.44,1.18ZM117.67,124.17c1.06.13,1.44.55,1.77,1.89.25.97.26,1.26.05,2.53-.46,2.81-1.65,5.88-4.33,11.12-.56,1.1-.89,1.6-1.11,1.67-.16.05-.36.05-.42-.02-.14-.13-2.96-6.5-3.56-8.07-.48-1.25-1.05-3.84-1.17-5.33-.16-2.04.25-3.66,1.04-4.17.41-.27.73-.31,1.36-.19.94.18,2,1.5,2.51,3.16.3,1,.3,1.01.43.62.68-2.16,2.01-3.39,3.43-3.21ZM113.82,98.21c.41.32.47.61.24,1.14-.17.35-.28.46-.58.46-.45.02-.83-.31-.85-.77-.03-.78.66-1.25,1.19-.83ZM103.07,109.19c.48-.57,2.04-.97,3.17-.8.49.07,1.02.2,1.19.28.27.13.27.08-.05-.99-.5-1.69-.26-2.95.76-3.91.57-.53,1.04-.7,1.75-.58,1.03.16,2.19,1.51,3.25,3.77.68,1.45,2.04,5.18,2.99,8.19.7,2.24.71,2.29.45,2.48-.33.24-1.97-.02-4.59-.73-2.61-.72-3.81-1.16-5.26-1.98-2.02-1.14-3.59-2.71-3.98-3.99-.16-.54-.03-1.33.31-1.75ZM99.85,92.47c.17-.36.94-.51,1.26-.25.64.5.57,1.52-.12,1.73-.75.22-1.48-.71-1.15-1.48ZM95.73,125.05l.68.41-.1-1.14c-.17-2.12.26-3.7,1.29-4.78.65-.68,1.55-1.04,2.26-.89,1.78.33,2.56,2.43,2.63,7.12.07,4.1-.18,10.01-.47,10.95-.05.2-.21.39-.34.43-.34.1-3.54-1.26-5.28-2.25-3.32-1.88-5.69-4-6.81-6.05-.44-.83-.53-1.09-.58-1.78-.11-1.42.49-2.25,1.93-2.68,1.5-.45,3.36-.2,4.78.64ZM84.19,100.49c.93-.26,1.91-.1,3.1.51l1,.51-.03-.4c-.09-1.35.25-2.73.97-3.88.72-1.15,1.67-1.62,2.58-1.28,1.5.54,2.41,3.17,2.41,6.93,0,1.22-.5,8.04-.66,8.83-.2,1.1-.67,1.02-3-.41-4.23-2.6-6.8-5.25-7.59-7.8-.53-1.68-.15-2.61,1.22-3.01Z"/><path d="M82.21,59.93c.14.07.79-.06,2.01-.43,1.81-.54,2.64-.92,2.36-1.05-.18-.09-2.41.43-3.34.8-1.01.37-1.27.55-1.03.68Z"/><path d="M86.19,52.3c-.28.09-.52.28-.77.43-.27.15-.54.29-.81.43-.56.27-1.14.5-1.73.69-.58.19-1.18.34-1.78.45-.59.11-1.23.11-1.79.3-.21.07-.2.39.02.44.59.13,1.27,0,1.85-.1.64-.11,1.27-.27,1.89-.46.6-.19,1.18-.42,1.74-.69.29-.13.58-.28.86-.43.28-.15.61-.3.84-.54.21-.23-.02-.61-.32-.51Z"/><path d="M84.82,55.1s0,0,0,0c0,0,0,0,0,0,0,0,0,0,0,0,0-.03-.02-.05-.04-.08-.02-.04-.05-.07-.08-.1-.04-.04-.09-.07-.14-.08-.05-.02-.11-.03-.17-.03-.07,0-.14.03-.21.06,0,0,0,0,0,0-.03.02-.06.05-.08.07-.02.03-.04.06-.07.09-.03.05-.05.11-.05.17,0,.04,0,.08,0,.11,0,.04.01.07.03.1.01.04.03.07.06.09.02.03.05.06.08.07.04.04.1.06.15.07h.11s.07,0,.11,0c.03-.02.07-.03.1-.05.03-.02.06-.05.08-.07.02-.03.04-.06.07-.09.03-.05.05-.11.05-.17,0-.04,0-.08,0-.11,0-.02,0-.04-.01-.06Z"/><path d="M86.33,53.84s-.04-.05-.06-.07c-.05-.05-.11-.08-.17-.09h-.1c-.07,0-.13.01-.18.05h0s-.08.06-.1.1c-.03.04-.05.08-.06.13-.01.05-.01.1,0,.15,0,.05.02.09.05.14.02.02.04.05.06.07.05.05.11.08.17.09.03,0,.07,0,.1,0,.07,0,.13-.02.18-.06h0s.08-.06.1-.1c.03-.04.05-.08.06-.13.01-.05.01-.1,0-.15,0-.05-.02-.09-.05-.14Z"/></svg>