<?xml version="1.0" encoding="UTF-8"?><svg id="Layer_1" xmlns="http://www.w3.org/2000/svg" viewBox="0 0 207.21 203.87"><path d="M102.07,121.64c.89,2.56,1.18,3.11,1.73,3.11.47,0,.58-.25,1.38-2.99.76-2.68,1.61-4.85,3.86-9.74,1.96-4.27,3.77-7.8,4.77-9.28.37-.54.66-1.16.66-1.4,0-.21-.43-.95-.97-1.61-2.6-3.24-4.46-7.61-6.93-16.31-1.07-3.82-1.26-4.29-1.71-4.29-.14,0-.33.12-.43.23-.12.14-.39,1.3-.64,2.58-.85,4.54-2.43,8.52-4.81,12.13-.7,1.07-2,2.54-3.67,4.19-1.88,1.86-2.58,2.68-2.58,3.01,0,.25.35.99.78,1.63,1.73,2.54,3.26,5.71,6.25,12.81.85,2.02,1.88,4.7,2.31,5.92Z"/></svg>