<?xml version="1.0" encoding="UTF-8"?><svg id="Layer_1" xmlns="http://www.w3.org/2000/svg" viewBox="0 0 207.21 203.87"><path d="M97.83,108.72c-.13-.03-.26.05-.29.19l-.54,2.41-.28,1.25-.19.87c-.03.13.05.26.19.29.01,0,.02,0,.04,0,0,0,.01,0,.02,0,.11,0,.2-.07.24-.18,0,0,0,0,0-.01l.18-.83.31-1.39.51-2.3c.03-.13-.05-.26-.19-.29Z" fill="#1c1b19"/><path d="M108.28,113.36c-.05-.26-.1-.55-.16-.85-.09-.5-.19-1.05-.29-1.61-.14-.8-.27-1.62-.38-2.38-.02-.13-.14-.23-.28-.21-.13.02-.23.14-.21.28.1.75.24,1.57.37,2.35.1.57.2,1.12.29,1.63.06.3.11.59.16.85.17.91.3,1.52.3,1.53.02.12.13.2.24.2.02,0,.03,0,.05,0,.13-.03.22-.16.19-.29,0-.01-.13-.61-.3-1.49Z" fill="#1c1b19"/><path d="M109.61,108.87c-.05-.13-.19-.19-.32-.15-.13.05-.19.19-.15.32l.61,1.67.72,1.98c.04.1.13.16.23.16.03,0,.06,0,.08-.01.13-.05.19-.19.15-.32l-.68-1.87-.65-1.78Z" fill="#1c1b19"/><path d="M102.54,109.26c-.14,0-.25.11-.25.25v5.14c0,.14.11.25.25.25s.25-.11.25-.25v-5.14c0-.14-.11-.25-.25-.25Z" fill="#1c1b19"/><path d="M100.31,109.26c-.13-.02-.26.08-.28.21l-.24,1.82-.17,1.28c-.02.13.08.26.21.28.01,0,.02,0,.03,0,.12,0,.23-.09.24-.21l.18-1.35.23-1.74c.02-.13-.08-.26-.21-.28Z" fill="#1c1b19"/><path d="M106.82,118.22c-.13.02-.23.14-.21.28.51,3.7.38,6.89-.37,8.74-.05.13.01.27.14.32.03.01.06.02.09.02.1,0,.19-.06.23-.15.78-1.93.92-5.2.4-8.99-.02-.13-.14-.23-.28-.21Z" fill="#1c1b19"/><path d="M103.24,119.28c-.14,0-.25.11-.25.25v5.87c0,.14.11.25.25.25s.25-.11.25-.25v-5.87c0-.14-.11-.25-.25-.25Z" fill="#1c1b19"/><path d="M98.02,118.5c.02-.13-.08-.26-.21-.28-.13-.02-.26.08-.28.21-.28,2.03-.35,6.59.49,8.08.05.08.13.13.21.13.04,0,.08-.01.12-.03.12-.07.16-.22.09-.34-.72-1.28-.74-5.53-.43-7.78Z" fill="#1c1b19"/><path d="M121.03,98.25c.16-.51.2-1.06.14-1.63-.06-.48-.19-.98-.4-1.43-.11-.24-.26-.45-.43-.62-.52-2.05-1.27-4.21-2.2-6.34.04-.52-.11-1.06-.29-1.43-.12-.25-.28-.47-.48-.64-.09-.08-.19-.15-.3-.21-.85-1.7-1.8-3.35-2.81-4.85-.68-1.01-1.38-1.94-2.09-2.78-.1-.46-.37-.9-.79-1.24-.21-.16-.43-.28-.67-.35-.6-.6-1.21-1.14-1.82-1.62-1.09-.84-2.17-1.47-3.25-1.89-.11-.09-.24-.18-.37-.26-.39-.23-.81-.35-1.22-.35-.18,0-.35.02-.51.07-.34-.04-.68-.07-1.02-.07-.17,0-.34,0-.5.02-3.27.21-6.26,2.52-8.9,6.85-.11.03-.22.07-.33.11-1,.43-1.47,1.84-1.28,2.87-1.7,3.51-3.27,7.97-4.77,13.55,0,0,0,0,0,0-.35.52-.59,1.13-.69,1.73-.08.52-.05,1.09.14,1.62-.08,1.95.38,3.55,1.36,4.84,1.13,1.47,2.92,2.47,5.49,3.06.4.09.82.17,1.26.24-.25,1.01-.58,2.3-.93,3.64-.22.84-.46,1.71-.69,2.53-.47,1.65-.48,2.58-.01,3.21.2.27.57.59,1.24.61h.03c.45,0,.8-.2,1.08-.48.07.32.2.63.44.87.05.05.1.09.16.14,0,.09,0,.19-.01.28-.02.48-.05.96-.08,1.44-.13,2.15-.25,4.36.06,6.49.3,2.05,1.95,3.83,4.21,4.55.92.29,1.96.45,3,.45,1.9,0,3.64-.5,4.91-1.42,2.14-1.54,2.57-3.85,2.71-5.45.18-2.13-.02-4.25-.22-6.3-.03-.27-.05-.53-.08-.8,0-.04-.02-.18-.05-.4.31.39.69.68,1.21.68.11,0,.22-.01.32-.04.24-.06.58-.23.83-.66.35-.62.62-1.92-.35-6.49-.03-.13-.05-.25-.08-.38-.19-.85-.39-1.69-.57-2.43,3.7-.33,6.58-1.06,8.23-3.14,1.16-1.46,1.61-3.47,1.37-6.14,0-.01,0-.02.01-.03ZM105.64,80.65c.63.22,1.14.75,1.39,1.37.17.43.21.9.09,1.36-.5,1.82-3.47,1.12-4.1-.22-.86-1.81,1.04-3.07,2.63-2.51ZM115.44,100.3c.78-.17,1.95.23,2.22,1.05.11.34.05.75-.3,1.19-1.54,1.94-4.08-1.77-1.92-2.24ZM115.54,91.51c.15-.02.3.02.44.08.45.21.73.62.83,1.1.02.07.03.15.04.23.04.42-.1.87-.43,1.12-1.34.98-2.24-2.34-.88-2.52ZM94.23,100.23c.34-.74,1.15-1.65,2.13-1.27.79.3,1.22,1.22,1.36,1.94.05.24.06.47.03.67-.12.99-1.33,1.55-2.34,1.39-.7-.11-1.26-.51-1.42-1.16-.13-.52,0-1.07.23-1.57ZM100.79,79.58c-1.38,1.23-3.19-.67-2.51-2.14.66-1.43,2.46-.68,2.94.47.22.53.16,1.14-.43,1.67ZM98.25,93.34c.47-1.27,2.68-1.92,3.59-.64.17.24.27.53.33.84.09.52.08,1.12-.06,1.63-.36,1.4-1.85,1.62-2.97.73-.78-.61-1.22-1.66-.89-2.57ZM105.45,87.53c.6.18,1.09.68,1.29,1.25.21.59.1,1.26-.51,1.72-.84.62-2.01.01-2.37-.87-.43-1.08.31-2.48,1.58-2.1ZM104.82,100.73c1.27-1.46,3.72-.51,4.51.92.25.45.34.97.16,1.46-.14.38-.42.71-.74.96-.92.72-2.46.95-3.39.12-.42-.37-.69-.89-.84-1.44-.19-.69-.17-1.49.3-2.03ZM107.91,96.14c-.38-1.14.29-2.41,1.51-2.63.94-.17,1.6.24,2,.9.6.96.64,2.45.19,3.4-.11.23-.27.45-.48.59-.45.3-1.08.22-1.54-.05-.77-.46-1.41-1.37-1.69-2.21ZM110.03,88.65c-.85-1.88,1.79-3.48,2.9-1.62,1.24,2.08-1.76,4.13-2.9,1.62ZM112.04,83.75c-.37.29-.95.2-1.25-.13-.33-.36-.46-.97-.34-1.43.11-.43.52-.68.93-.47.17.09.34.23.5.42.36.42.7,1.19.16,1.61ZM97.33,84.85c.39-1.08,1.9-1.87,2.45-.43.09.25.12.53.06.82-.21.97-1.63,2.48-2.45,1.12-.27-.45-.23-1.03-.05-1.52ZM95.19,89.2c.18.37.25.81.19,1.21-.11.82-.58,1.86-1.44,2.12-1,.3-1.88-.61-2.07-1.53-.15-.73.13-1.44.57-2.02.79-1.03,2.17-1.02,2.75.21ZM116.46,86.63c.13.03.25.09.36.18.11.09.2.22.27.37.15.3.27.79.18,1.18-.06.24-.19.44-.46.53-.99.32-1.92-1.66-.91-2.18.2-.1.39-.12.57-.08ZM110.29,77.53c.18.02.38.09.56.24.29.23.5.57.51.93,0,.13-.02.25-.07.38-.25.63-1.03.58-1.52.12-.83-.78-.25-1.74.52-1.67ZM103.64,73.57c.32-.15.78-.11,1.2.14.13.08.25.17.36.27.29.28.47.65.39,1.05-.23,1.3-2.16.54-2.34-.44-.1-.54.09-.87.4-1.02ZM93.13,80.39c.2-.08.37-.12.53-.12.57,0,.84.51.83,1.08,0,.27-.08.55-.22.8-.21.37-.51.73-.92.83-.49.12-.78-.08-.92-.42-.28-.67.05-1.89.7-2.17ZM86.9,97.89c.08-.49.3-1.04.63-1.49.51-.69,1.28-1.15,2.16-.78.54.22.8.75.87,1.35.11.89-.17,1.97-.52,2.52-.45.71-1.39.96-2.15.62-.4-.18-.67-.49-.84-.86-.18-.41-.23-.9-.16-1.35ZM109.56,124.3c-.16,1.91-.72,3.65-2.35,4.82-1.93,1.39-4.93,1.55-7.15.85-1.75-.56-3.34-1.97-3.62-3.86-.37-2.51-.09-5.24.03-7.77,0-.01,0-.02,0-.04.01,0,.02,0,.03,0,.11,0,.22,0,.33-.03.66-.11,1.13-.47,1.46-.87.2.44.55.81,1.19.81.05,0,.11,0,.17,0,.7-.08,1.1-.62,1.38-1.24.28.62.71,1.15,1.48,1.15h.02c.8-.01,1.2-.58,1.43-1.21.32.59.79,1.12,1.57,1.12h.03c.95-.02,1.34-.76,1.52-1.43.38.68.84,1.34,1.61,1.34.09,0,.19-.01.28-.03.12-.03.23-.07.33-.12.21,2.17.45,4.34.26,6.52ZM111.38,116.69c-.68.18-1.18-1.46-1.59-2.05-.1-.14-.19-.22-.28-.2-.34.08-.15,1.38-.35,2.12-.07.26-.19.45-.39.5-.79.18-1.36-2.35-1.98-2.27s-.19,2.35-1.25,2.37c-1.06.02-1.2-2.39-1.73-2.4-.53-.02-.35,2.48-1.3,2.5-.96.01-1.01-2.45-1.46-2.54-.45-.08-.59,2.53-1.51,2.63s-.49-2.04-.93-2.09c-.43-.05-.53,1.93-1.94,2.17-.06.01-.12.01-.17.02-1,.01-.6-1.64-.73-2.27-.02-.1-.06-.18-.12-.22-.45-.25-.93,1.69-1.74,1.67-.83-.02-.95-.86-.42-2.72.25-.88.5-1.81.74-2.71.35-1.32.67-2.58.92-3.57,1.6.21,3.49.3,5.77.3h0c1.67,0,3.38-.05,4.83-.1h.09c1.66-.06,3.24-.11,4.69-.22.22.86.46,1.86.68,2.88.62,2.9,1.04,5.94.16,6.18ZM120.21,97.99c-.02.06-.04.11-.07.16-.28.57-.95.58-1.41.1-.23-.25-.37-.57-.48-.88-.16-.45-.28-.93-.2-1.4.14-.78.94-1.25,1.52-.91.16.09.3.25.41.49.16.36.28.76.33,1.17.05.43.02.87-.1,1.28Z" fill="#1c1b19"/></svg>