<?xml version="1.0" encoding="UTF-8"?><svg id="Layer_1" xmlns="http://www.w3.org/2000/svg" viewBox="0 0 207.21 203.87"><path d="M95.2,89.5c-1.44,0-2.61-1.17-2.61-2.61v-4.8c0-1.44,1.17-2.61,2.61-2.61h19.15c1.44,0,2.61,1.17,2.61,2.61v4.8c0,1.44-1.17,2.61-2.61,2.61h-19.15ZM95.2,80.59c-.82,0-1.49.67-1.49,1.49v4.8c0,.82.67,1.49,1.49,1.49h19.15c.82,0,1.49-.67,1.49-1.49v-4.8c0-.82-.67-1.49-1.49-1.49h-19.15Z" fill="#1e1f23"/><path d="M108.96,71.14h-8.36c-2.24,0-4.01,1.89-3.88,4.12l.29,4.83h15.52l.29-4.83c.14-2.23-1.64-4.12-3.88-4.12Z" fill="#1e1f23"/><path d="M112.79,89.32v2.33c-4.53-.91-10-1.38-16.35-1.43v-.93s16.35.04,16.35.04Z" fill="#1e1f23"/><path d="M110.22,132.73h-10.89c-1.78,0-3.51-.35-5.14-1.05-1.64-.7-3.09-1.7-4.32-2.98-3.68-3.85-5.7-8.9-5.7-14.22,0-1.7.21-3.39.62-5.03.4-1.59.99-3.13,1.75-4.58,1.5-2.84,3.68-5.33,6.31-7.2,1.95-1.39,3.14-3.57,3.26-5.99l.14-2.71,1.12.06-.14,2.71c-.07,1.34-.44,2.67-1.08,3.85-.64,1.18-1.56,2.22-2.65,3-5.14,3.65-8.21,9.59-8.21,15.88,0,5.03,1.91,9.81,5.39,13.45,2.23,2.34,5.38,3.68,8.64,3.68h10.89c3.26,0,6.41-1.34,8.64-3.68,3.47-3.64,5.39-8.41,5.39-13.45,0-6.29-3.07-12.23-8.21-15.88-1.09-.78-2.01-1.81-2.65-3-.64-1.18-1.01-2.51-1.08-3.85l-.14-2.71,1.12-.06.14,2.71c.12,2.42,1.31,4.6,3.26,5.99,2.63,1.87,4.81,4.36,6.31,7.2.77,1.45,1.35,2.99,1.75,4.58.41,1.63.62,3.33.62,5.03,0,5.32-2.02,10.38-5.7,14.22-1.22,1.28-2.68,2.29-4.32,2.98-1.63.69-3.36,1.05-5.14,1.05Z" fill="#231f20"/><path d="M104.64,132.17c-13.16,0-16.8-4.94-19.15-12.61-1.84-6.02.59-12.85.59-12.85,14.02,4.18,24.62-2.33,37.11-.33,0,0,3.2,6.09.92,13.17-3.03,9.41-7.39,12.63-19.47,12.63Z" fill="#1e1f23"/><path d="M80.18,103.1l.64,2.38c.16.59.59,1.06,1.16,1.28l1.47.55c.08.03.08.15,0,.18l-1.47.55c-.57.21-1,.69-1.16,1.28l-.64,2.38c-.03.09-.16.09-.19,0l-.64-2.38c-.16-.59-.59-1.06-1.16-1.28l-1.47-.55c-.08-.03-.08-.15,0-.18l1.47-.55c.57-.21,1-.69,1.16-1.28l.64-2.38c.03-.09.16-.09.19,0Z" fill="#1e1f23"/><path d="M86.34,82.42l.44,1.64c.11.41.41.73.8.88l1.01.38c.06.02.06.1,0,.12l-1.01.38c-.39.15-.69.48-.8.88l-.44,1.64c-.02.07-.11.07-.13,0l-.44-1.64c-.11-.41-.41-.73-.8-.88l-1.01-.38c-.06-.02-.06-.1,0-.12l1.01-.38c.39-.15.69-.48.8-.88l.44-1.64c.02-.07.11-.07.13,0Z" fill="#1e1f23"/><path d="M128.18,118.16l.45,1.69c.11.42.42.76.82.91l1.04.39c.06.02.06.11,0,.13l-1.04.39c-.4.15-.71.49-.82.91l-.45,1.69c-.02.07-.11.07-.13,0l-.45-1.69c-.11-.42-.42-.76-.82-.91l-1.04-.39c-.06-.02-.06-.11,0-.13l1.04-.39c.4-.15.71-.49.82-.91l.45-1.69c.02-.07.11-.07.13,0Z" fill="#1e1f23"/><path d="M94.9,120.08l.45,1.69c.11.42.42.76.82.91l1.04.39c.06.02.06.11,0,.13l-1.04.39c-.4.15-.71.49-.82.91l-.45,1.69c-.02.07-.11.07-.13,0l-.45-1.69c-.11-.42-.42-.76-.82-.91l-1.04-.39c-.06-.02-.06-.11,0-.13l1.04-.39c.4-.15.71-.49.82-.91l.45-1.69c.02-.07.11-.07.13,0Z" fill="#fff"/><path d="M125.55,84.9l.64,2.38c.16.59.59,1.06,1.16,1.28l1.47.55c.08.03.08.15,0,.18l-1.47.55c-.57.21-1,.69-1.16,1.28l-.64,2.38c-.03.09-.16.09-.19,0l-.64-2.38c-.16-.59-.59-1.06-1.16-1.28l-1.47-.55c-.08-.03-.08-.15,0-.18l1.47-.55c.57-.21,1-.69,1.16-1.28l.64-2.38c.03-.09.16-.09.19,0Z" fill="#1e1f23"/><path d="M115.21,107.56l.78,2.92c.19.72.72,1.3,1.42,1.57l1.8.68c.1.04.1.18,0,.22l-1.8.68c-.7.26-1.23.85-1.42,1.57l-.78,2.92c-.03.12-.2.12-.23,0l-.78-2.92c-.19-.72-.72-1.3-1.42-1.57l-1.8-.68c-.1-.04-.1-.18,0-.22l1.8-.68c.7-.26,1.23-.85,1.42-1.57l.78-2.92c.03-.12.2-.12.23,0Z" fill="#fff"/><circle cx="123.89" cy="100.45" r=".95" fill="#1e1f23"/><circle cx="88.6" cy="94.58" r=".95" fill="#1e1f23"/><circle cx="119.17" cy="76.42" r=".95" fill="#1e1f23"/></svg>