<?xml version="1.0" encoding="UTF-8"?><svg id="Layer_1" xmlns="http://www.w3.org/2000/svg" viewBox="0 0 207.21 203.87"><path d="M87.75,115.84c-.89-.16-1.14-.14-1.75.12-.67.28-1.1.8-1.42,1.72-.27.79-.28.97-.17,1.91.12.87.2,1.14.57,1.75.75,1.22,1.73,1.7,3.11,1.54,1.04-.13,1.75-.51,2.27-1.24.59-.82.75-1.56.54-2.63-.31-1.65-1.54-2.87-3.16-3.16Z" fill="none"/><path d="M94.24,94.02c1.04-.95,2.29-3.04,2.02-3.38-.36-.46-3.04,1.25-4.06,2.59-.63.82-1.08,1.87-.92,2.17.23.43,1.76-.3,2.95-1.38Z" fill="none"/><path d="M87.59,100.42c.76-.22,1.71-1.4,1.49-1.82-.05-.09-.24-.14-.42-.12-.44.05-1.42,1.19-1.46,1.71q-.04.36.4.23Z" fill="none"/><path d="M95.41,125.17c-.99-.49-2.37.1-2.77,1.19-.17.45-.03,1.59.26,2.08.59,1.02,1.83,1.28,2.86.57,1.43-.98,1.25-3.03-.34-3.84Z" fill="none"/><path d="M96.06,74.24c-.47.11-.51.15-.44.37.05.14.22.68.36,1.18.32,1.07.15.99,2.35.93,1.68-.05,3.36-.34,3.56-.6.16-.22.21-2.41.06-2.53-.11-.1-5.02.46-5.89.65ZM97.27,75.72c-.32.33-.96-.2-.67-.57.04-.05.22-.1.39-.1.36,0,.53.4.28.67Z" fill="none"/><path d="M94.72,71.36l.93-.11c.51-.06,1.43-.11,2.03-.12.62-.01,1.83-.08,2.71-.14l1.6-.11-.03-.85c0-.47-.02-1.24,0-1.71,0-.48-.06-1.42-.14-2.1-.18-1.47-.14-1.44-1.81-1.7-.59-.09-1.34-.15-1.68-.15-1.77.04-4.43,1.32-4.74,2.26-.07.24,0,.69.36,1.96.26.9.53,1.9.62,2.21l.14.57ZM99.66,65.64c.07-.11.22-.21.34-.23.49-.06.71.55.33.87-.39.32-.94-.22-.67-.64ZM97.49,69.38c.19-.26.78.02.82.38.02.19-.41.47-.65.41-.18-.04-.3-.64-.17-.79ZM96.08,65.78q.26-.2.54,0c.31.22.33.4.07.69-.16.19-.27.22-.48.13-.33-.12-.42-.63-.14-.83ZM95.34,68.83c.27-.22.33-.21.65.03.46.36.36.94-.18,1.01-.15.02-.32-.02-.42-.1-.25-.19-.28-.77-.04-.94Z" fill="none"/><path d="M103.87,72.6c.06-.08.1-.36.07-.6-.09-.75-.36-.83-2.44-.66-1,.07-2.73.17-3.86.21-3.89.13-4.97.49-4.84,1.58.07.56.44.83,1.12.85.3,0,2.62-.26,5.16-.6,3.5-.46,4.67-.65,4.77-.78Z" fill="none"/><path d="M119.94,118.41c-.55-.86-1.33-1.52-2.12-1.77-1.97-.65-4.37.82-5.12,3.12-.9,2.74.69,5.39,3.44,5.74,2,.26,3.67-.82,4.33-2.81.21-.66.22-.85.05-2.18-.16-1.32-.21-1.51-.58-2.1Z" fill="none"/><path d="M123.18,129.87c2.88-3.34,4.97-7.87,5.52-12.02.33-2.54.33-4.12,0-6.86-.46-3.73-1.19-6.37-2.56-9.3-.89-1.93-1.43-2.8-2.75-4.47-3.01-3.8-4.99-5.2-10.87-7.72-2.6-1.11-3.75-1.71-4.94-2.56-2.31-1.68-3.51-3.99-4.16-8.03-.27-1.68-.46-4.42-.36-5.22.03-.25-.01-.28-.28-.25-.17.02-.31.1-.3.16.06.5.03,2.56-.05,2.74-.16.4-.96.62-3.09.81-1.11.11-2.31.16-2.67.12-.8-.07-.92-.25-1.38-1.79-.46-1.56-.62-1.34-.33.42.42,2.55.68,8.26.43,9.73-.31,1.89-1.77,3.64-5.3,6.4-5.92,4.61-8.72,8.29-10.68,14.03-1.14,3.3-1.34,5.61-.86,9.55.88,7.28,2.81,11.6,7.39,16.59,4,4.39,8.4,6.45,14.74,6.92,4.52.34,8.79-.09,11.51-1.16,4.63-1.83,7.23-3.74,10.99-8.11ZM106.73,91.41c.48-.35.93-.42,1.61-.23.67.19,1.09.8,1.21,1.72.07.59.02.78-.36,1.27-.34.44-.59.59-.98.64-.96.12-1.89-.78-2.03-1.97-.09-.69.06-1.09.56-1.43ZM104.12,97.58c1.53-.39,2.85.51,3.04,2.07.17,1.37-.44,2.3-1.7,2.63-.8.19-1.58-.07-2.15-.73-.98-1.13-.46-3.66.81-3.97ZM90.66,94.94c.11-.71.5-1.47,1.23-2.34.92-1.11,1.74-1.85,2.56-2.27.94-.51,1.88-.65,2.22-.35.58.51.09,1.94-1.27,3.67-1.5,1.91-3.83,3.01-4.57,2.15-.2-.25-.23-.37-.17-.85ZM87.92,97.94c.56-.34.65-.36,1.21-.21.54.16.79.49.75,1.03-.1,1.42-2.22,3.01-3.06,2.29-.62-.54.05-2.47,1.1-3.1ZM100.07,138.04c-5.12-.74-11.41-4.09-14.55-7.75-2.62-3.06-3.84-5.65-5.57-11.96-.75-2.72-.81-3.25-.45-4.12.42-1,.87-1.44,2.23-2.16,1.47-.77,1.81-.88,4.22-1.17,2.23-.29,4-.29,7.46-.04,3.19.24,4.76.2,6.53-.11,3.46-.61,6.48-2.06,10.84-5.25,1.19-.86,2.61-1.82,3.16-2.14,1.6-.92,4.44-2.21,5.8-2.63.69-.21,1.81-.46,2.47-.54,1.47-.19,1.67-.11,2.29.9.42.7,1.51,3.3,2.25,5.37.38,1.08.45,1.49.83,4.52.35,2.94.39,3.49.3,4.6-.27,3.11-1.77,7.97-3.2,10.39-.83,1.38-2.83,4.07-3.71,4.99-2.34,2.41-6.23,4.82-9.63,5.99-3.49,1.2-7.79,1.63-11.28,1.13Z" fill="none"/><path d="M107.84,139.65c2.93-.36,4.04-.7,6.77-1.98,3.93-1.86,6.31-3.83,9.67-8.02,1.9-2.37,2.93-4.22,4-7.2,1.15-3.25,1.51-5.95,1.31-9.8-.12-2.62-.98-6.81-1.85-9.06-.6-1.58-1.82-4.05-2.43-4.96-.69-1.01-2.06-2.72-3.19-3.96-1.69-1.86-4.57-3.76-7.68-5.12-.61-.26-1.87-.82-2.83-1.23-4.4-1.91-5.83-3.39-7.04-7.27-.3-.96-.44-1.75-.73-4.1-.36-3.05-.35-3.63.03-3.74.47-.16.71-.61.64-1.24-.04-.33-.15-.7-.22-.82-.22-.31-.84-.5-1.39-.43l-.46.06v-1.27c0-2.11-.21-4.53-.42-4.83-.6-.83-4.52-1-6.32-.27-1.08.43-1.95,1.04-2.35,1.61l-.39.54.2,1.03c.18.88.6,2.25,1.07,3.47.11.31.1.32-.57.45-.6.12-.73.2-1.04.63-.28.4-.33.59-.28,1.04.08.67.62,1.19,1.26,1.25.42.03.44.05.64.8.21.81.6,5.58.6,7.38,0,1.61-.12,2.81-.38,3.55-.47,1.4-2.13,3.18-5.15,5.51-5.41,4.19-8.25,7.87-10.31,13.3-1.55,4.11-1.76,6.56-.98,11.85.91,6.16,2.38,9.74,5.69,13.81,2.95,3.62,5.84,6.03,8.84,7.34,3.87,1.7,9.74,2.34,15.29,1.67ZM93.96,68.58c-.35-1.28-.43-1.72-.36-1.96.3-.94,2.97-2.21,4.74-2.26.34,0,1.09.06,1.68.15,1.67.26,1.63.23,1.81,1.7.07.68.14,1.62.14,2.1-.02.47,0,1.25,0,1.71l.03.85-1.6.11c-.88.06-2.09.12-2.71.14-.6.01-1.52.06-2.03.12l-.93.11-.14-.57c-.09-.31-.36-1.3-.62-2.21ZM93.93,73.98c-.68-.02-1.05-.29-1.12-.85-.13-1.09.94-1.45,4.84-1.58,1.13-.04,2.85-.14,3.86-.21,2.07-.17,2.34-.09,2.44.66.03.24-.01.52-.07.6-.11.14-1.27.33-4.77.78-2.55.34-4.87.6-5.16.6ZM101.88,76.12c-.2.26-1.88.55-3.56.6-2.2.06-2.03.14-2.35-.93-.14-.5-.3-1.04-.36-1.18-.08-.22-.03-.27.44-.37.86-.19,5.77-.75,5.89-.65.15.12.1,2.32-.06,2.53ZM100.69,139.14c-6.34-.48-10.74-2.54-14.74-6.92-4.58-5-6.51-9.32-7.39-16.59-.48-3.93-.28-6.25.86-9.55,1.97-5.74,4.77-9.42,10.68-14.03,3.53-2.75,4.99-4.51,5.3-6.4.25-1.47,0-7.18-.43-9.73-.29-1.76-.13-1.98.33-.42.46,1.54.58,1.72,1.38,1.79.36.04,1.56,0,2.67-.12,2.13-.19,2.93-.41,3.09-.81.08-.18.11-2.24.05-2.74,0-.06.13-.14.3-.16.27-.03.31,0,.28.25-.1.8.09,3.54.36,5.22.64,4.04,1.84,6.35,4.16,8.03,1.19.85,2.33,1.45,4.94,2.56,5.88,2.52,7.87,3.93,10.87,7.72,1.33,1.67,1.86,2.54,2.75,4.47,1.37,2.92,2.1,5.57,2.56,9.3.34,2.74.33,4.32,0,6.86-.55,4.15-2.64,8.68-5.52,12.02-3.76,4.37-6.36,6.28-10.99,8.11-2.72,1.06-6.99,1.5-11.51,1.16Z"/><path d="M96.22,66.62c.21.09.32.06.48-.13.26-.29.24-.47-.07-.69q-.29-.21-.54,0c-.28.21-.2.71.14.83Z"/><path d="M100.33,66.28c.38-.32.16-.93-.33-.87-.12.01-.27.12-.34.23-.27.43.28.96.67.64Z"/><path d="M95.38,69.77c.1.07.27.11.42.1.55-.07.65-.65.18-1.01-.31-.24-.38-.25-.65-.03-.24.18-.2.75.04.94Z"/><path d="M97.66,70.17c.24.06.68-.22.65-.41-.04-.36-.63-.64-.82-.38-.13.15,0,.75.17.79Z"/><path d="M96.99,75.05c-.17,0-.35.04-.39.1-.29.37.36.9.67.57.25-.27.08-.66-.28-.67Z"/><path d="M95.4,93.65c1.37-1.73,1.86-3.16,1.27-3.67-.34-.3-1.29-.16-2.22.35-.81.42-1.63,1.16-2.56,2.27-.73.88-1.12,1.63-1.23,2.34-.06.49-.04.61.17.85.73.86,3.07-.24,4.57-2.15ZM92.21,93.24c1.02-1.34,3.69-3.05,4.06-2.59.26.34-.98,2.43-2.02,3.38-1.19,1.08-2.72,1.81-2.95,1.38-.16-.3.29-1.35.92-2.17Z"/><path d="M108.2,94.81c.39-.05.63-.2.98-.64.38-.49.44-.68.36-1.27-.11-.92-.54-1.52-1.21-1.72-.68-.19-1.13-.12-1.61.23-.49.34-.64.74-.56,1.43.15,1.19,1.07,2.09,2.03,1.97Z"/><path d="M89.88,98.76c.03-.53-.22-.87-.75-1.03-.56-.15-.64-.13-1.21.21-1.04.63-1.72,2.57-1.1,3.1.84.72,2.96-.87,3.06-2.29ZM87.19,100.19c.05-.52,1.03-1.66,1.46-1.71.18-.02.37.03.42.12.23.43-.73,1.6-1.49,1.82q-.44.13-.4-.23Z"/><path d="M105.46,102.28c1.26-.32,1.87-1.25,1.7-2.63-.19-1.57-1.51-2.46-3.04-2.07-1.28.31-1.79,2.84-.81,3.97.57.66,1.35.92,2.15.73Z"/><path d="M120.97,130.92c.88-.92,2.88-3.61,3.71-4.99,1.43-2.42,2.93-7.27,3.2-10.39.1-1.11.06-1.66-.3-4.6-.37-3.04-.45-3.44-.83-4.52-.74-2.07-1.83-4.67-2.25-5.37-.62-1.01-.82-1.09-2.29-.9-.67.08-1.78.33-2.47.54-1.36.42-4.2,1.71-5.8,2.63-.55.31-1.97,1.28-3.16,2.14-4.36,3.19-7.38,4.64-10.84,5.25-1.77.32-3.34.35-6.53.11-3.47-.25-5.23-.24-7.46.04-2.4.3-2.75.4-4.22,1.17-1.35.72-1.81,1.16-2.23,2.16-.36.87-.31,1.41.45,4.12,1.74,6.31,2.96,8.9,5.57,11.96,3.14,3.66,9.43,7.01,14.55,7.75,3.49.51,7.79.08,11.28-1.13,3.39-1.17,7.29-3.58,9.63-5.99ZM90.37,121.64c-.53.73-1.23,1.11-2.27,1.24-1.39.16-2.36-.33-3.11-1.54-.37-.61-.45-.88-.57-1.75-.12-.94-.1-1.12.17-1.91.32-.91.75-1.44,1.42-1.72.61-.26.85-.28,1.75-.12,1.63.29,2.85,1.51,3.16,3.16.21,1.07.05,1.81-.54,2.63ZM95.74,129.01c-1.02.71-2.26.45-2.86-.57-.28-.48-.42-1.62-.26-2.08.41-1.1,1.79-1.69,2.77-1.19,1.59.82,1.77,2.86.34,3.84ZM120.46,122.68c-.66,1.99-2.32,3.07-4.33,2.81-2.76-.35-4.34-3-3.44-5.74.75-2.3,3.16-3.76,5.12-3.12.78.25,1.57.92,2.12,1.77.37.58.42.78.58,2.1.16,1.32.16,1.52-.05,2.18Z"/></svg>