<?xml version="1.0" encoding="UTF-8"?><svg id="Layer_1" xmlns="http://www.w3.org/2000/svg" viewBox="0 0 207.21 203.87"><path d="M137.77,71.07c-2.73-4.09-11.55-13.8-34.29-15.55-1.92-.15-3.79-.22-5.58-.22-6,0-11.31.83-15.78,2.48-3.61,1.33-6.69,3.2-9.14,5.54-3.82,3.65-4.92,7.3-5.13,8.1-.35.8-.54,1.64-.56,2.51-.06,2.36,1.66,4.55,5.13,6.51,2.56,1.45,6.13,2.82,10.61,4.07,6,1.67,12.07,2.68,14.36,3.03-.24,2.49-.47,5.19-.7,7.98-.25,3-.5,6.11-.74,9.16-.57,7.15-1.11,13.91-1.59,18.25-1.32,11.89-.37,19.45,2.91,23.11,1.5,1.68,3.48,2.53,5.87,2.53h0c.4,0,.83-.02,1.25-.07,1.66-.19,2.96-.88,3.84-2.04,2.43-3.2,1.39-9.57.09-17.62-1.05-6.5-2.25-13.88-1.95-21.28.18-4.48.39-8.31.63-11.58.2-2.8.41-5.2.61-7.26.52,0,1.07.01,1.64.01h0c3.8,0,11.13-.22,17.59-1.69,8.17-1.86,12.55-5.14,13.02-9.76.36-1.39-.42-3.74-2.07-6.21ZM100.63,61.63c.06.19.08.39.06.58-.02.14-.06.28-.12.4-.12.24-.31.44-.56.57-.2.1-.41.17-.64.23-.93.22-2.05.08-2.86-.31-.3-.14-.53-.36-.66-.61-.15-.29-.14-.64.12-.98,0,0,0,0,.01-.01.36-.45.98-.7,1.5-.88.75-.26,1.67-.34,2.38.07.35.2.64.55.77.94ZM90.61,60.41c-.44.88-2.05.99-2.77.43-1.51-1.18.67-2.5,1.86-2.22.77.18,1.29,1.04.92,1.79ZM81.46,62.73c0,.15-.03.3-.07.44-.06.2-.15.39-.26.56-.14.23-.32.46-.52.66-.62.63-1.48,1.06-2.34,1.06-.24,0-.47-.04-.69-.12-.39-.14-.7-.4-.84-.74-.12-.29-.11-.63.09-1.01.47-.89,2.81-2.43,4.02-1.87.4.19.62.59.62,1.03ZM133.14,71.09s-.03,0-.05.01c-.16.05-.33.05-.5.04-.85-.08-2.08-.52-2.42-1.41-.04-.12-.07-.25-.08-.38-.02-.31.04-.52.14-.67.09-.12.22-.19.37-.22.67-.13,1.8.53,2.2.86.22.18.42.39.55.64.04.07.07.14.09.22.11.35.08.76-.3.92ZM124.67,65.91c-1.49.5-2.9-1.32-2.02-2.23.4-.41,1.42-.68,2.08-.4,1.12.49,1.05,2.26-.06,2.63ZM117.21,63.96c-.07.18-.18.31-.31.42-.64.52-1.83.16-2.23-.55-.14-.24-.18-.52-.08-.82.09-.26.33-.43.59-.51.47-.14,1.14-.1,1.6.14.45.24.71.67.43,1.31ZM110.51,61.43c-.2.24-.47.41-.75.54-1.45.67-3.27.37-4.38-.79-.91-.96-.64-2.22.69-2.51,1.67-.37,4.43.56,4.69,1.89.06.31-.05.63-.25.87ZM106.7,87.69c-.03.32-.07.65-.1.98-.21,2.07-.42,4.48-.61,7.29-.23,3.27-.45,7.09-.62,11.54-.77,19.42,8.61,38.9-1.09,40-9.57,1.09-10.41-11.24-8.94-24.48.69-6.21,1.5-17.39,2.34-27.43.23-2.77.46-5.45.7-7.92.03-.33.06-.66.09-.99.52-5.35.5-9.64,1.43-11.25,1.44-2.5,8.56-1.11,7.87,3.87-.24,1.74-.64,4.36-1.06,8.37ZM107.69,87.73c.26-2.44.5-4.36.71-5.89.46,1,1.23,2.9,1.54,4.88.02.14.14.24.28.24.01,0,.03,0,.04,0,.15-.02.26-.17.24-.32-.47-2.98-1.89-5.68-1.95-5.8,0,0,0,0,0,0,.03-.19.05-.37.08-.54.04-.3.08-.57.12-.83.22-1.55-.19-2.97-1.16-4.09-1.14-1.31-3.03-2.13-4.94-2.13-1.66,0-2.98.62-3.6,1.71-.78,1.35-.96,3.87-1.21,7.37-.09,1.28-.2,2.73-.34,4.24-5.21-.8-29.4-4.91-29.2-12.6,0-.2.02-.4.05-.6l1.07-.8c2.23-1.8,6.3-3.45,11.46-4.66,5.32-1.25,11.5-1.94,17.4-1.94,1.69,0,3.38.06,5,.17,10.22.69,19.2,3.86,24.93,6.39,6.22,2.75,10.06,5.37,10.12,5.41l.37.26c-2.46,9.44-25.37,9.64-30.99,9.55Z" fill="#1c1b19"/><path d="M103.83,75.58c-1.31-.32-2.59-.14-3.43.5-.12.09-.15.27-.05.4.09.12.27.15.4.05.7-.54,1.81-.69,2.95-.4,1.35.33,2.46,1.21,2.99,2.33.05.1.15.16.26.16.04,0,.08,0,.12-.03.14-.07.2-.23.14-.38-.6-1.28-1.85-2.27-3.36-2.64Z" fill="#1c1b19"/><path d="M109.59,78.36c-.11-.11-.29-.11-.4,0-.11.11-.11.29,0,.4.03.03,3.28,3.38,5.38,7.32.05.1.15.15.25.15.04,0,.09-.01.13-.03.14-.07.19-.24.12-.38-2.14-4.01-5.44-7.41-5.48-7.45Z" fill="#1c1b19"/><path d="M116.54,79.77c-2.23-1.28-4.17-2.14-4.19-2.15-.14-.06-.31,0-.37.14-.06.14,0,.31.14.37.08.03,7.66,3.42,10.09,6.78.06.08.14.12.23.12.06,0,.12-.02.17-.05.13-.09.15-.27.06-.39-1.06-1.47-3.13-3.09-6.13-4.81Z" fill="#1c1b19"/><path d="M120.94,77.13c-3.8-.66-7.05-.8-7.08-.8-.15,0-.29.12-.29.27,0,.16.12.29.27.29.13,0,12.85.56,17.49,4.77.05.05.12.07.19.07.08,0,.15-.03.21-.09.1-.12.1-.29-.02-.4-2.02-1.83-5.64-3.21-10.76-4.11Z" fill="#1c1b19"/><path d="M134.36,77.42c-4.91-2.8-18.66-2.88-19.24-2.88h0c-.16,0-.28.13-.28.28,0,.16.13.28.28.28.14,0,14.18.07,18.96,2.8.04.03.09.04.14.04.1,0,.19-.05.25-.14.08-.14.03-.31-.11-.39Z" fill="#1c1b19"/><path d="M110,74.92c.05.09.15.15.25.15.05,0,.09-.01.14-.03.02,0,1.81-.99,4.3-1.88,2.28-.82,5.64-1.75,8.65-1.48.15.01.29-.1.31-.26.01-.16-.1-.29-.26-.31-3.12-.28-6.57.67-8.91,1.51-2.53.91-4.35,1.91-4.37,1.92-.14.07-.19.25-.11.38Z" fill="#1c1b19"/><path d="M114.16,68.22c-.05-.15-.22-.22-.36-.17-1.44.52-3.03,1.62-4.75,3.26-1.27,1.21-2.1,2.26-2.14,2.3-.1.12-.08.3.04.4.05.04.11.06.18.06.08,0,.17-.04.22-.11.03-.04,3.37-4.19,6.63-5.38.15-.05.22-.22.17-.36Z" fill="#1c1b19"/><path d="M107.9,66.97c-.13-.09-.3-.06-.39.07-1.6,2.24-2.45,5.45-2.49,5.58-.04.15.05.31.2.34.02,0,.05,0,.07,0,.13,0,.24-.08.27-.21,0-.03.86-3.24,2.4-5.4.09-.13.06-.3-.07-.39Z" fill="#1c1b19"/><path d="M103.23,67.07c-.16.02-.27.16-.25.31.06.55-.31,3.83-.46,5.05-.02.16.09.3.25.31.01,0,.02,0,.03,0,.14,0,.26-.11.28-.25.06-.45.54-4.46.46-5.18-.02-.16-.16-.27-.31-.25Z" fill="#1c1b19"/><path d="M97.4,66.62c-.1-.12-.28-.13-.4-.03-.12.1-.13.28-.03.4,1.54,1.75,3.49,5.38,3.51,5.42.05.1.15.15.25.15.05,0,.09-.01.13-.03.14-.07.19-.25.12-.38-.08-.15-2-3.72-3.58-5.52Z" fill="#1c1b19"/><path d="M98.81,72.79c-.19-.14-4.72-3.33-8.36-4.63-.15-.05-.31.02-.36.17-.05.15.02.31.17.36,3.56,1.27,8.17,4.53,8.22,4.56.05.04.11.05.16.05.09,0,.18-.04.23-.12.09-.13.06-.3-.07-.39Z" fill="#1c1b19"/><path d="M80.74,69.77c5.46,1,13.44,3.12,13.51,3.14.02,0,.05,0,.07,0,.12,0,.24-.08.27-.21.04-.15-.05-.31-.2-.35-.08-.02-8.08-2.15-13.56-3.15-.15-.03-.3.07-.33.23-.03.15.07.3.23.33Z" fill="#1c1b19"/><path d="M90.42,74.01c.16,0,.29-.11.3-.26.01-.16-.11-.29-.26-.3-.11,0-11.34-.72-18.04,1.31-.15.05-.23.2-.19.35.04.12.15.2.27.2.03,0,.05,0,.08-.01,6.6-2,17.73-1.3,17.84-1.29Z" fill="#1c1b19"/><path d="M92.93,75.33c-.03-.15-.18-.25-.33-.22-.07.01-6.77,1.32-11.78,4.55-.13.08-.17.26-.08.39.05.08.14.13.24.13.05,0,.11-.01.15-.04,4.92-3.17,11.52-4.46,11.59-4.47.15-.03.25-.18.22-.33Z" fill="#1c1b19"/><path d="M96.62,75.57c-.08-.13-.26-.17-.39-.09-.02,0-1.54.95-3.33,2.31-2.41,1.84-4.11,3.53-5.07,5.03-.08.13-.05.31.09.39.05.03.1.04.15.04.09,0,.18-.05.24-.13,2.21-3.46,8.16-7.13,8.22-7.17.13-.08.17-.26.09-.39Z" fill="#1c1b19"/><path d="M97.24,78.35c-.08.04-1.86,1.1-2.95,3.78-.06.14.01.31.15.37.04.01.07.02.11.02.11,0,.22-.07.26-.18,1.01-2.48,2.69-3.49,2.71-3.5.13-.08.18-.25.1-.39-.08-.14-.25-.18-.39-.1Z" fill="#1c1b19"/><path d="M104.04,109.92c0-.16-.11-.29-.27-.3-.16,0-.29.11-.3.27-.22,4.37.42,11.1.99,17.04.58,6.08,1.13,11.82.56,13.24-.06.15.01.31.16.37.03.01.07.02.1.02.11,0,.22-.07.26-.18.61-1.55.09-7.09-.53-13.5-.56-5.92-1.2-12.64-.99-16.96Z" fill="#1c1b19"/><path d="M102.28,128.67c-.16.01-.27.15-.26.31.65,7.59,1.04,13.16.02,15.69-.06.14.01.31.16.37.03.01.07.02.11.02.11,0,.22-.07.26-.18,1.07-2.65.7-8.04.02-15.95-.01-.16-.15-.27-.31-.26Z" fill="#1c1b19"/><path d="M100.82,89.39c-.15-.03-.3.06-.34.22-.41,1.89-.76,3.98-1.05,6.12-.73,5.34-1.11,11.02-1.38,14.85-.06.85-.11,1.62-.16,2.29-.01.16.11.29.26.3,0,0,.01,0,.02,0,.15,0,.27-.11.28-.26.05-.66.1-1.44.16-2.29.26-3.84.65-9.53,1.38-14.85.29-2.12.63-4.17,1.04-6.04.03-.15-.06-.3-.22-.34Z" fill="#1c1b19"/></svg>