<?xml version="1.0" encoding="UTF-8"?><svg id="Layer_1" xmlns="http://www.w3.org/2000/svg" viewBox="0 0 207.21 203.87"><path d="M145.63,73.17h0s0,0,0,0c0,0,0-.02,0-.02,0,0,0,0,0,0-.45-1.71-1.74-3.26-3.84-4.6-1.85-1.18-4.34-2.19-7.4-3.02-5.56-1.51-12.73-2.35-20.19-2.35-5.81,0-11.38.53-15.69,1.5-13.04,2.92-23.29,7.82-32.26,15.42-2.35,1.99-3.88,4.05-4.56,6.14-.46,1.41-.37,2.38-.32,2.69.02,1.74.55,3.42,1.55,4.96,1.21,1.86,3.12,3.53,5.64,4.91,5.03,2.74,12.28,4.19,20.98,4.19h0c2.53,0,5.2-.12,7.97-.37-.51,2.36-.66,3.19-.19,3.78.21.26.51.4.85.4.13,0,.27-.02.42-.07.58-.18.95-.77,1.39-1.72-.3,6.8-.97,18.09-1.94,24.5-.69,4.57.62,7.22,1.84,8.64,1.42,1.65,3.49,2.56,5.84,2.56,1.37,0,2.81-.32,4.16-.92,6.9-3.06,4.16-12.09,2.16-18.68-.28-.91-.54-1.77-.76-2.57-.78-2.78-1.47-6.66-2.01-10.18.42-.59.41-1.54.4-2.64,0-.11,0-.23,0-.36.38.32.83.64,1.38.64.1,0,.19-.01.29-.03.3-.06.55-.25.69-.52.32-.61.05-1.3-.61-2.98-.21-.54-.46-1.16-.71-1.85,6.86-1.55,13.3-3.92,18.88-6.98,6.37-3.49,11.38-7.75,14.09-11.99.22-.35.43-.69.62-1.04,1.49-2.7,1.95-5.25,1.33-7.43ZM96.52,70.06c-.31.31-.7.53-1.09.71-1.08.49-2.96,1.2-3.96.22-1.09-1.07.44-2.42,1.38-2.88,1.1-.53,2.48-.74,3.59-.12.26.15.46.36.56.6.21.53-.11,1.1-.48,1.47ZM86.56,75.64c-.27.04-.55.05-.81-.02-.26-.07-.51-.25-.61-.5-.33-.78.86-1.63,1.44-1.91.71-.34,1.55-.41,2.25-.01.06.03.12.07.18.12.09.07.18.16.23.26.6,1.09-2,1.96-2.68,2.06ZM112.79,66.61c-.02.27-.19.52-.41.69-.72.56-1.74.62-2.6.49-1.77-.27-1.44-2.17.11-2.49.88-.18,2.34-.09,2.81.84.07.14.1.3.09.48ZM105.74,70.53c-.25.22-.57.35-.89.45-.34.11-.7.18-1.06.13-.61-.09-1.13-.62-.77-1.23.43-.74,1.84-1.3,2.62-.91.65.32.59,1.13.1,1.57ZM125.98,67.29c-.04.34-.29.64-.59.81-.77.44-2.14.15-2.86-.27-.94-.56-.74-1.39-.03-1.79.21-.12.47-.2.76-.22.84-.06,2.86.24,2.72,1.47ZM115.54,68.95c-.53-1.13,2.1-1.88,2.73-.71.63,1.17-2.23,1.76-2.73.71ZM135.5,68.24c.21.75-.8,1.09-1.49,1.17-.12.01-.23.02-.33.02-.16,0-.32-.01-.48-.04-.58-.1-1.16-.37-1.49-.85-.38-.54-.23-1.23.39-1.47.41-.16,1.07-.17,1.71-.03.78.17,1.51.57,1.69,1.2ZM75.19,75.53c.87-.8,2.17-1.2,3.34-1.22.92,0,2,.64,2.26,1.44.15.45.03.95-.54,1.4-1.01.8-2.59,1.29-3.87,1.3-1.72.02-2.61-1.62-1.2-2.93ZM110.45,118.75c1.85,6.61,6.16,17.12-.92,20.25-5.61,2.49-12.01-.5-10.66-9.38.86-5.66,1.49-15.2,1.83-22.07.13.08.28.12.45.13.04,0,.07,0,.11,0,.99,0,1.54-.85,1.92-1.97.11,1.35.39,2.23,1.29,2.29.02,0,.05,0,.07,0,.95,0,1.28-.89,1.44-1.86.52,1.38,1.12,2.64,2.21,2.71.03,0,.05,0,.08,0,.07,0,.14,0,.2-.02.53,3.44,1.21,7.18,1.97,9.9ZM111.15,105.14c-.75.16-1.59-1.41-2.12-1.1-.19.11-.21.63-.21,1.26,0,1.12.08,2.59-.46,2.71-.03,0-.07.01-.1,0-1.22-.08-1.97-4.53-2.56-4.37-.59.16-.27,3.57-1.17,3.52-.73-.04-.47-3.83-.7-5.3-.05-.34-.14-.56-.26-.57-.15-.01-.26.25-.38.66-.41,1.49-.73,4.98-1.97,4.89-.58-.04-.2-2.76-.3-4.04-.02-.24-.06-.43-.12-.54-.04-.06-.08-.11-.13-.11-.09-.02-.19.05-.3.16-.1.11-.2.27-.3.46-.55,1.02-1.18,2.96-1.73,3.13-.71.22-.5-.79.05-3.38.06-.27.12-.56.19-.87.06-.28.12-.57.19-.88,1.16-5.55,2.35-13.64,5.33-12.9,2.66.66,3.2,3.3,4.48,8.63.31,1.3.67,2.46,1.02,3.49.1.28.19.55.28.8.98,2.69,1.8,4.23,1.28,4.34ZM143.24,80.75c-4.33,7.2-16.19,15.35-32.82,19.07-.35-1.03-.71-2.19-1.03-3.51l-.13-.56c-1.22-5.11-1.9-7.93-4.96-8.7-.19-.05-.39-.07-.58-.07-2.82,0-4.04,4.97-5.09,10.19-.28.54-1.36,2.58-1.98,3.7-.07.12-.02.26.09.33.04.02.08.03.12.03.08,0,.17-.04.21-.12.34-.61.82-1.5,1.23-2.27-.12.61-.24,1.2-.36,1.77-.08.41-.17.78-.24,1.14-18.94,1.7-30.1-2.49-33.96-8.16-.67-.99-1.13-2.03-1.36-3.09l.59-1.31c2.35-5.21,15.15-8.08,27.54-10.86,2.31-.52,4.7-1.05,6.99-1.6l.6-.14c4.5-1.07,12.02-2.87,26.48-4.06,3.03-.25,5.82-.38,8.28-.38,9.32,0,10.6,1.28,11.36,1.73.39.23.65.47.81.65.18,1.88-.44,4.02-1.78,6.24Z" fill="#1c1b19"/><path d="M113.51,97.1c-2.5-.61-4.07-3.45-4.09-3.48-.06-.12-.21-.16-.33-.1-.12.06-.16.21-.1.33.07.12,1.68,3.05,4.4,3.72.02,0,.04,0,.06,0,.11,0,.21-.07.23-.18.03-.13-.05-.26-.18-.29Z" fill="#1c1b19"/><path d="M122.83,93.5c-9.17.97-13.42-2.15-13.47-2.19-.11-.08-.26-.06-.34.05-.08.11-.06.26.05.34.15.12,3.34,2.48,10.27,2.48,1.09,0,2.27-.06,3.55-.19.13-.01.23-.13.21-.27-.01-.13-.13-.23-.27-.21Z" fill="#1c1b19"/><path d="M138.48,83.74s-3.13,2.28-7.75,4.27c-4.25,1.83-10.69,3.81-17.25,2.83-.13-.02-.25.07-.27.2-.02.13.07.25.2.27,1.23.18,2.45.27,3.66.27,5.35,0,10.35-1.62,13.87-3.13,4.66-2.01,7.8-4.29,7.83-4.32.11-.08.13-.23.05-.34-.08-.11-.23-.13-.34-.05Z" fill="#1c1b19"/><path d="M110.07,89.38c0,.13.11.23.24.23,0,0,0,0,0,0,7.45-.22,15.39-4.85,20.74-9.23,2.74-2.25,4.8-4.43,5.75-5.91.07-.11.04-.26-.07-.33-.11-.07-.26-.04-.33.07-.99,1.53-3.17,3.82-6.07,6.15-5.26,4.22-12.88,8.56-20.03,8.77-.13,0-.24.12-.23.25Z" fill="#1c1b19"/><path d="M112.29,86.49c.04.1.13.16.23.16.03,0,.06,0,.09-.02,4.83-1.84,8.56-4.26,11.21-6.36.79-.62,1.48-1.22,2.07-1.76,2.83-2.59,4.15-4.59,4.21-4.67.07-.11.04-.26-.07-.33-.11-.07-.26-.04-.33.07-.03.05-2.17,3.23-6.68,6.7-2.67,2.06-6.18,4.22-10.58,5.9-.12.05-.19.19-.14.31Z" fill="#1c1b19"/><path d="M117.65,80.36c2.58-2.79,3.74-5.02,3.76-5.06.06-.12.01-.26-.11-.32-.12-.06-.26-.01-.32.11-.02.04-1.25,2.41-4.01,5.3-2.2,2.31-5.38,4.96-9.71,7.03-.12.06-.17.2-.11.32.04.09.13.14.22.14.04,0,.07,0,.1-.02,4.6-2.21,7.93-5.06,10.18-7.49Z" fill="#1c1b19"/><path d="M111.24,80.68c1.63-2.84,2.43-5.37,2.44-5.42.04-.13-.03-.26-.16-.3-.13-.04-.26.03-.3.16-.01.04-.85,2.7-2.56,5.6-1.16,1.97-2.74,4.05-4.73,5.48-.11.08-.13.23-.06.34.05.07.12.1.2.1.05,0,.1-.01.14-.05,2.15-1.55,3.82-3.82,5.03-5.92Z" fill="#1c1b19"/><path d="M106,75.72c-.01-.13-.13-.23-.27-.21-.13.01-.23.13-.21.27,0,.03.26,2.45-.27,5.43-.17.98-.43,2.02-.81,3.06-.05.13.02.26.14.31.03,0,.06.01.08.01.1,0,.19-.06.23-.16.4-1.12.67-2.23.85-3.28.5-2.99.25-5.39.25-5.43Z" fill="#1c1b19"/><path d="M102.98,85.76s-1.97-1.31-3.83-3.76c-.66-.88-1.32-1.9-1.87-3.07-.06-.12-.2-.17-.32-.11-.12.06-.17.2-.11.32.53,1.11,1.14,2.09,1.76,2.94,1.94,2.64,4,4.01,4.11,4.08.04.03.09.04.13.04.08,0,.16-.04.2-.11.07-.11.04-.26-.07-.33Z" fill="#1c1b19"/><path d="M101.2,86.89c-3.93-.38-7.15-1.97-9.44-3.55-2.13-1.47-3.46-2.94-3.78-3.42-.07-.11-.22-.14-.33-.07-.11.07-.14.22-.07.33.4.6,1.67,1.96,3.53,3.3.21.15.43.3.65.45,2.02,1.35,5.28,3.04,9.39,3.44,0,0,.02,0,.02,0,.12,0,.23-.09.24-.22.01-.13-.08-.25-.22-.26Z" fill="#1c1b19"/><path d="M100.27,88.17c-4.58.32-9.54-1.07-12.1-1.93-1.14-.38-2.23-.8-3.22-1.23-2.15-.94-3.83-1.92-4.45-2.67-.09-.1-.24-.12-.34-.03-.1.09-.12.24-.03.34.61.73,2.1,1.66,4.09,2.57,3.9,1.78,9.72,3.48,14.71,3.48.47,0,.93-.01,1.37-.05.13,0,.23-.12.22-.26,0-.13-.13-.23-.26-.22Z" fill="#1c1b19"/><path d="M77.78,87.29c1.23.55,2.67,1.06,4.21,1.47,3.07.83,6.31,1.25,9.46,1.25,1.78,0,3.54-.13,5.22-.41.13-.02.22-.15.2-.28-.02-.13-.15-.22-.28-.2-4.59.74-9.74.45-14.48-.83-1.18-.32-2.47-.75-3.66-1.25-1.87-.78-3.5-1.71-4.12-2.61-.07-.11-.23-.14-.34-.06-.11.07-.14.23-.06.34.56.83,1.96,1.75,3.84,2.58Z" fill="#1c1b19"/><path d="M80.35,91.61c2.37.25,4.77.37,7.12.37,3.63,0,7.15-.3,10.3-.88.13-.02.22-.15.19-.28-.02-.13-.15-.22-.28-.19-8.13,1.51-18.8.95-25.69-1.05-1.88-.55-3.47-1.2-4.66-1.95-.11-.07-.26-.04-.33.08-.07.11-.04.26.08.33,1.07.68,2.52,1.3,4.25,1.83,2.5.78,5.59,1.38,9.03,1.74Z" fill="#1c1b19"/><path d="M97.15,92.42c.12-.05.18-.2.12-.32-.05-.12-.2-.18-.32-.12-2.41,1.05-7.74,2.82-16.48,2.82-5.36,0-10.28-.76-11.97-1.84-.11-.07-.26-.04-.33.07-.07.11-.04.26.07.33,1.75,1.12,6.62,1.93,12.25,1.93s11.91-.79,16.65-2.87Z" fill="#1c1b19"/><path d="M96.83,93.61c-.07-.11-.22-.14-.33-.07-8.68,5.79-16.84,5.86-16.92,5.86-.13,0-.24.11-.24.24,0,.13.11.24.24.24.08,0,8.38-.07,17.19-5.94.11-.07.14-.22.07-.33Z" fill="#1c1b19"/><path d="M98.81,93.53c-.11-.07-.26-.03-.33.09-1.94,3.29-5.23,5.7-6.96,6.51-.12.06-.17.2-.12.32.04.09.13.14.22.14.03,0,.07,0,.1-.02,1.79-.84,5.18-3.32,7.17-6.7.07-.11.03-.26-.09-.33Z" fill="#1c1b19"/><path d="M108.03,116.83c-.16.04-.26.2-.22.37,1.06,4.23,2.06,10.66,2.19,12.53.01.16.14.28.3.28,0,0,.02,0,.02,0,.17-.01.29-.16.28-.32-.14-1.85-1.1-8.2-2.21-12.63-.04-.16-.2-.26-.37-.22Z" fill="#1c1b19"/><path d="M106.01,111.71c-.16.03-.27.19-.24.35.01.06,1.04,5.61,1.11,7.7,0,.16.14.29.3.29,0,0,0,0,.01,0,.17,0,.3-.15.29-.31-.07-2.14-1.08-7.56-1.12-7.79-.03-.16-.19-.27-.35-.24Z" fill="#1c1b19"/><path d="M104.01,120.26c-.16-.04-.32.07-.36.23-.58,2.6-1.67,10.17-1.15,13.03.03.15.15.25.3.25.02,0,.04,0,.05,0,.16-.03.27-.19.24-.35-.5-2.73.59-10.3,1.14-12.79.04-.16-.07-.32-.23-.36Z" fill="#1c1b19"/><path d="M102.85,108.19h0c-.17,0-.3.14-.3.3,0,3.92-.45,7.19-.94,10.65-.26,1.85-.53,3.76-.73,5.82-.02.17.11.31.27.33,0,0,.02,0,.03,0,.15,0,.28-.12.3-.27.2-2.04.47-3.95.72-5.79.49-3.49.95-6.78.95-10.74,0-.17-.14-.3-.3-.3Z" fill="#1c1b19"/><path d="M108.57,101.07c-.08-.24-.16-.51-.24-.81-.09-.31-.18-.64-.27-.99-.04-.16-.08-.32-.12-.48-.65-2.54-1.31-5.66-1.32-5.7-.03-.16-.19-.27-.36-.23-.16.03-.27.19-.23.36.04.18.66,3.09,1.28,5.58.14.56.28,1.1.42,1.58.08.3.16.57.24.81.05.16.1.31.15.44.04.11.13.18.24.2.02,0,.03,0,.05,0,.03,0,.07,0,.1-.02.16-.06.24-.23.18-.39-.04-.11-.08-.22-.12-.35Z" fill="#1c1b19"/><path d="M104.76,91.89c-.17,0-.3.14-.3.3v6.82c0,.17.14.3.3.3s.3-.14.3-.3v-6.82c0-.17-.14-.3-.3-.3Z" fill="#1c1b19"/><path d="M102.88,93.44c-.17-.02-.32.1-.34.26l-.6,5.09-.1.85-.2,1.68-.1.87v.05c-.03.17.09.32.26.34.01,0,.02,0,.04,0,.15,0,.28-.11.3-.27l.02-.2.1-.87.19-1.6.1-.85.6-5.02c.02-.17-.1-.32-.26-.34Z" fill="#1c1b19"/></svg>