<?xml version="1.0" encoding="UTF-8"?><svg id="Layer_1" xmlns="http://www.w3.org/2000/svg" viewBox="0 0 500 500"><path d="M284.65,167.87c.12-1.04-1.07-1.82-2-1.49-.46.16-.82.55-1.17.87-.48.45-.89.69-1.48.96-2.2.99-4.03,2.7-5.62,4.48-3.3,3.68-5.81,8-9.22,11.58-3.3,3.46-7.01,6.72-8.89,11.24-1.91,4.6-1.65,9.78-3.07,14.52-1.62,5.39-5.34,9.78-7.86,14.75-.07-4.71.16-9.41-.07-14.12-.06-1.15-.1-2.31-.2-3.46-.07-.88-.34-1.81-1.37-1.97-1.06-.16-1.77.68-1.83,1.65-.04.53.11.94.17,1.45.06.56.06,1.14.09,1.71.23,4.71.05,9.4.13,14.11.02,1.21.06,2.41.08,3.62.01.55.02,1.09.02,1.64,0,.54-.44.98-.74,1.43-1.18,1.8-2.29,3.65-3.3,5.54-4.21,7.83-6.99,16.36-8.74,25.06-1.85,9.22-2.62,18.64-2.87,28.04-.13,4.82-.12,9.64-.06,14.47,0,.53.1,1.13.02,1.65-.07.42.06.13-.19.27-.08.05-.31.07-.39.09-.25.06-.5.19-.75.23-.52.09-1.06.08-1.59.2-.55.12-1.09.32-1.6.56-1.89.86-3.4,2.36-4.52,4.08-2.39,3.65-3.08,8.51-1.12,12.48,1.88,3.8,5.65,6.63,9.67,7.85,4.05,1.23,8.72.74,11.74-2.45,3.08-3.26,3.34-8.05,2.03-12.16-1.27-3.97-3.87-8.02-7.68-9.96-.46-.23-.93-.45-1.41-.62-.22-.08-.44-.14-.66-.2-.11-.03-.3-.03-.39-.09-.15-.11-.1-.26-.11-.48-.02-1.16-.04-2.31-.05-3.47-.03-2.39-.03-4.78-.01-7.18.08-9.44.6-18.9,2.11-28.23,1.43-8.83,3.86-17.68,7.81-25.73.99-2.01,2.06-3.99,3.22-5.9-.19,7.61,2.71,15.02,5.9,21.79,1.66,3.51,3.5,6.93,5.34,10.35,1.81,3.36,3.55,6.66,4.58,10.36,2.11,7.59,1.9,15.51,2.03,23.32.03,1.94.07,3.88.2,5.81.06.93.16,1.86.3,2.78.07.44.14.88.21,1.32.05.33,0,.36-.25.58-.18.15-.36.32-.53.49-2.51,2.59-3.53,6.48-3.89,9.97-.35,3.4.26,7.49,2.75,10.03,2.53,2.58,6.24,2.59,9.2.76,2.95-1.82,4.85-4.99,5.5-8.35.66-3.41-.09-7.09-1.75-10.13-.69-1.26-1.6-2.44-2.82-3.23-.64-.42-1.37-.72-2.13-.84-.74-.12-1.57-.27-2.32-.25-.17,0-.47.09-.63.05-.2-.06-.15-.16-.19-.41-.07-.46-.14-.92-.2-1.38-.12-.93-.17-1.87-.21-2.81-.08-1.94-.1-3.89-.12-5.83-.1-7.79-.01-15.76-2.28-23.29-1.11-3.68-2.85-7.01-4.66-10.38-1.84-3.42-3.69-6.84-5.35-10.35-3.19-6.72-6.18-14.28-5.48-21.86.07-.79.14-1.61.32-2.37.22-.89.48-1.76.81-2.62,1,.53,2.36-.32,3.29-.7,1.12-.47,2.21-.99,3.27-1.56,2.11-1.14,4.1-2.5,5.99-3.98,3.7-2.9,6.95-6.41,9.73-10.19,1.46-1.98,2.87-4.05,3.88-6.31,1.01-2.25,1.64-4.62,2.15-7.02.53-2.48.99-4.99,1.68-7.43.71-2.47,1.68-4.86,2.63-7.25,2.08-5.2,4.3-10.44,4.94-16.05ZM220.08,323.56c-.89-1.3-1.57-2.79-1.67-4.38-.1-1.67.27-3.32.9-4.86-.48,3.41,0,7.16,1.59,10.24-.29-.32-.57-.65-.83-1ZM224.83,313.15c-.07.12-.14.24-.2.36.24-.76.58-1.48,1.07-2.11.23-.3.52-.59.83-.81.13-.09.32-.24.46-.27.24-.05.18-.03.41.13-1.02.72-1.93,1.62-2.56,2.7ZM228.61,325.64c-1.02-.23-1.79-.81-2.44-1.61.75.59,1.66.92,2.62.86.47-.03.92-.15,1.35-.35.33-.15.29-.13.61,0,.18.08.37.12.57.12-.34.35-.72.75-1.19.89-.48.15-1.02.14-1.51.08ZM230.35,318.48c.2-.89.86-1.92,1.8-2.17-.05,1.31-.86,2.7-1.54,3.77-.25-.51-.32-1.05-.25-1.61ZM235.98,323.66c.87-2.08.91-4.31.9-6.53.87,2.61,1.28,5.77-.16,8.26-1.41,2.44-3.93,3.62-6.7,3.52.69-.21,1.31-.56,1.97-.84.63-.27,1.21-.64,1.72-1.09,1.02-.9,1.75-2.08,2.27-3.33ZM233.01,321.83s.05-.08.08-.12c-.12.33-.25.66-.41.97-.09-.26-.1-.13,0-.39.07-.16.23-.32.32-.46ZM230.66,312.2c.81-.03,1.46.46,1.89,1.12-1.86-.17-3.75,1.45-4.53,3.01-.89,1.77-.81,3.78.17,5.5-1.61-.98-1.8-3.9-1.42-5.52.44-1.86,1.9-3.78,3.89-4.11ZM267.42,320.65c.04.53.03,1.07-.04,1.6-.03.26-.19.61-.5.3-.19-.19-.07-.89-.03-1.12.08-.5.26-1,.44-1.46.05.23.1.45.13.69ZM264.77,324.94c-.19-.18-.24-.38-.31-.63.33.47.77.82,1.3,1.03-.37.09-.73-.2-1-.4ZM262.78,330.39c-2.48-1.28-3.2-4.63-3.14-7.19.11.29.43.77.43,1.08,0,.12-.15.32-.18.45-.04.16-.04.32-.03.48.08.73.46,1.72.84,2.35.16.28.43.44.64.67.24.27.44.57.68.84.49.55,1.01,1.08,1.56,1.57-.27-.06-.54-.14-.8-.25ZM269.45,326.29c-.36.72-.88,1.53-1.79,1.51.59-.39,1.06-.89,1.44-1.48.17-.26.32-.54.45-.81.12-.25.22-.69.42-.87-.13.56-.3,1.12-.53,1.65ZM257.93,200.9c.35-2.05.86-4.02,1.89-5.84,1-1.75,2.27-3.31,3.64-4.78,1.44-1.54,2.98-2.98,4.4-4.54,1.41-1.54,2.66-3.24,3.91-4.92,1.41-1.91,2.8-3.85,4.37-5.64-3.04,4.46-6.28,8.81-8.7,13.65-2.39,4.79-4.52,9.7-6.97,14.46-1.39,2.71-2.87,5.38-4.46,7.97,1.06-3.37,1.35-6.89,1.91-10.36ZM275.23,186.96c-1.11,3.01-1.83,6.08-2.48,9.21-.61,2.94-1.22,6.03-2.58,8.73-1.36,2.68-3.19,5.16-5.08,7.48-1.87,2.29-3.97,4.42-6.23,6.34-2.56,2.18-5.36,4.03-8.39,5.48,4.74-5.63,8.76-11.74,12.17-18.27,1.74-3.34,3.36-6.75,4.95-10.17,1.53-3.3,3.04-6.58,4.95-9.68,2.24-3.62,4.76-7.05,7.13-10.59-1.33,3.88-3.02,7.62-4.44,11.46Z" fill="#282828"/></svg>