<?xml version="1.0" encoding="UTF-8"?><svg id="Layer_1" xmlns="http://www.w3.org/2000/svg" viewBox="0 0 500 500"><path d="M192.51,284.08c1.49,0,1.96-1.59,2.5-2.67.69-1.39,1.42-2.76,2.17-4.12,1.38-2.5,2.84-4.95,4.32-7.39.7,6.88.85,13.82,2.15,20.63.34,1.77.73,3.55,1.26,5.28.4,1.29,2.13,1.95,3.04.69.45-.63.67-1.55.93-2.27.29-.81.56-1.64.81-2.47.52-1.71.96-3.44,1.42-5.16.97-3.68,1.98-7.41,3.93-10.72.16.36.22.83.33,1.22.17.64.36,1.28.55,1.91.34,1.11.7,2.21,1.1,3.3.77,2.13,1.63,4.22,2.54,6.29.5,1.14,1.07,2.25,1.43,3.45.33,1.07.67,2.14,1.03,3.2.73,2.15,1.54,4.28,2.53,6.32.5,1.04,1.05,2.05,1.64,3.04.57.93,1.16,1.94,1.9,2.74.64.7,1.68.85,2.43.21.8-.68.85-2.13,1.05-3.09,1.04-4.93,1.71-9.93,2.38-14.93.75-5.63,1.49-11.27,2.71-16.83,2.7,3.51,5.33,7.1,8.42,10.29.76.79,1.55,1.57,2.39,2.29.73.62,1.8.69,2.47-.07.74-.83.31-2.02.14-2.99-.2-1.16-.41-2.32-.63-3.48-1.71-8.79-4.29-17.35-6.47-26.02-1.25-4.97-2.43-10-3-15.1,6.52-.35,13.04.19,19.55.58,3.76.23,7.53.4,11.3.35,3.85-.05,7.69-.31,11.53-.62,3.76-.31,7.52-.65,11.29-.87,1.78-.1,3.57-.17,5.34-.39.86-.11,1.72-.25,2.57-.47.74-.19,1.73-.38,2.31-.9.54-.49.69-1.29.37-1.95-.37-.75-1.37-1.08-2.08-1.42-1.47-.71-3.02-1.23-4.59-1.67-3.56-.98-7.23-1.48-10.87-2.05-6.43-1.01-12.71-2.79-19.09-4.06-.94-.19-1.88-.36-2.83-.53,4.13-.59,8.23-1.35,12.32-2.16,3.73-.74,7.47-1.47,11.26-1.83,4.12-.4,8.27-.39,12.39-.85,1.99-.22,3.96-.58,5.88-1.13.77-.22,1.88-.39,2.41-1.04.53-.64.53-1.56,0-2.21-.56-.7-1.74-.89-2.56-1.15-1-.32-2-.6-3.02-.86-1.98-.5-3.99-.91-6.01-1.27-4.15-.74-8.34-1.31-12.5-1.99-8.51-1.39-16.96-3.2-25.59-3.7-1.08-.06-2.16-.1-3.24-.12-.36,0-.55-.01-.87-.22-.46-.3-.92-.6-1.38-.9-1.5-.99-2.9-2.12-4.34-3.19-3.25-2.42-6.66-4.7-10.39-6.34-3.65-1.6-7.57-2.53-11.56-2.59-3.98-.06-7.92.71-11.7,1.93-7.39,2.38-14.33,6.81-18.26,13.67-1.82,3.18-2.82,6.87-3.53,10.45-.83,4.17-1.21,8.4-1.41,12.64-.2,4.21-.23,8.42-.34,12.64-.11,4-.43,7.98-.68,11.97-.51,8.25-1.37,16.47-1.03,24.75.06,1.39-.2,3.99,1.86,3.99ZM194.73,260.45c.05-1.67.24-3.37.39-5.04.15-1.73.24-3.47.35-5.2.24-3.83.35-7.66.42-11.5.15-7.31.29-14.69,1.99-21.84.76-3.2,1.82-6.35,3.69-9.09,1.98-2.89,4.66-5.21,7.62-7.04,3.12-1.93,6.57-3.3,10.11-4.23,3.61-.95,7.45-1.4,11.17-.89,7.15.99,13.19,5.02,18.79,9.32.68.52,1.37,1.02,2.08,1.5-2.42,1.18-4.73,2.57-6.99,4.02-2.41,1.55-4.68,3.34-7.14,4.82-2.15,1.3-4.89,2.39-6.03,4.8-1.19,2.52-.55,5.5.33,8.01,1.08,3.06,2.78,5.85,4.23,8.75-1.89-.1-3.84.12-5.69.52-.91.2-1.81.45-2.7.73-.88.28-1.76.49-2.03,1.48-.21.79.11,1.63.84,2.03.87.48,1.8-.02,2.65-.29,1.9-.59,3.93-.93,5.92-.98.48-.01.96,0,1.44.03.22.01.52-.01.73.05.26.08.13-.1.25.23.05.13.05.29.07.43.17.98.34,1.96.53,2.94.38,1.98.8,3.95,1.25,5.91.91,3.99,1.93,7.95,2.96,11.9,1.2,4.62,2.41,9.24,3.44,13.9-2.01-2.33-4.13-4.57-6.21-6.83-.51-.56-1.03-1.12-1.54-1.68-.47-.52-.82-.96-1.56-.99-1.39-.05-2.07,1.64-2.63,2.67-2.51,4.65-3.71,10.02-4.64,15.18-.55,3.08-.97,6.18-1.32,9.29-.68-1.49-1.41-2.95-2.08-4.44-.67-1.5-1.36-2.99-2.06-4.48-1.4-2.99-2.81-5.98-4.16-8.99-.33-.74-.66-1.48-.98-2.23-.14-.34-.31-.67-.43-1.01-.12-.34-.17-.69-.39-.99-.36-.49-.87-.86-1.49-.86-.79,0-1.12.54-1.66.97-1.06.86-1.82,2.24-2.49,3.42-.75,1.32-1.36,2.72-1.89,4.14-1.25,3.4-2.05,6.94-3.02,10.42-.97-5.66-1.23-11.41-1.72-17.13-.13-1.46-.27-2.91-.44-4.37-.08-.69-.17-1.38-.27-2.07-.09-.65-.09-1.43-.53-1.96-.73-.9-2.04-.78-2.72.1-.81,1.06-1.46,2.3-2.16,3.44-1.73,2.8-3.42,5.63-5.01,8.51,0-5.14.34-10.28.71-15.4Z" fill="#282828"/><path d="M207.97,224.5c2.99,4.23,8.74,4.35,13.03,2.15,4.24-2.18,6.34-7.04,6.43-11.63.05-2.3-.46-4.7-1.77-6.63-1.35-1.98-3.54-3.09-5.86-3.46-2.32-.37-4.79-.13-6.99.71-1.04.39-2.05.93-2.95,1.59-.81.6-1.93,1.47-2.29,2.45-.11.31-.1.57-.27.86-.15.25-.29.51-.41.77-.28.58-.5,1.2-.69,1.81-.39,1.28-.52,2.63-.51,3.96.02,2.59.77,5.3,2.27,7.42ZM209.06,216.25c.16-1.94.72-4.03,2.28-5.34.17-.15.36-.27.52-.44.14-.16.21-.37.34-.53.25-.3.71-.52,1.07-.7.82-.4,1.75-.71,2.65-.85-.56,2.74-.9,5.52-1.07,8.31-.08,1.35-.12,2.71-.09,4.06.03,1.28.03,2.7.43,3.92-4.51.11-6.23-4.62-6.12-8.43Z" fill="#282828"/></svg>