<?xml version="1.0" encoding="UTF-8"?><svg id="Layer_1" xmlns="http://www.w3.org/2000/svg" viewBox="0 0 500 500"><path d="M303.63,254.13c-1.25-4.15-2.27-8.35-3.46-12.51-1.03-3.62-2.63-7.26-6.12-9.09-3.74-1.96-8.31-.63-12.03.67-4.06,1.42-7.93,3.27-11.63,5.47,1.77-2.2,3.69-4.28,5.92-6.01,1.02-.79,2.1-1.57,3.27-2.13,1.05-.51,2.16-.77,2.81-1.83,1.17-1.91-.07-4.44-2.31-4.69-1.29-.14-2.6.68-3.69,1.27-1.21.65-2.36,1.41-3.46,2.23,2.35-6.41,3.51-14.26,1.84-20.97-1.64-6.55-6.91-10.44-13.15-12.25-6.45-1.88-13.75-2.54-20.28-.73-6.53,1.81-10.94,7.09-10.84,13.95.06,3.92,1.68,7.74,3.06,11.35,1.44,3.78,2.37,7.7,3.36,11.62-1.03-1.9-2.03-3.81-3-5.74-.77-1.54-1.4-3.75-3.25-4.3-1.56-.46-3.22.47-3.74,1.99-.62,1.84-.2,4.3.26,6.13-3.99-4.24-8.79-7.4-14.48-8.83-2.74-.69-5.71-.92-8.4.11-2.46.94-4.24,3.07-5.38,5.37-1.27,2.58-1.9,5.54-2.46,8.35-.62,3.07-1.14,6.2-1.43,9.32-.5,5.42-.32,11.71,4.15,15.55,4.76,4.08,11.96,4.03,17.83,3.39-1.28.47-2.56.95-3.84,1.45-1.24.49-2.66.88-3.8,1.58-1.7,1.04-2.09,3.44-.66,4.88,1.8,1.82,4.03.46,5.96-.31,2.72-1.08,5.47-2.1,8.23-3.06-8.11,5.73-19.65,14.36-15.57,25.82,1.67,4.67,5.66,9.13,10.1,11.33,5.13,2.54,10.88,1.11,15.27-2.23,5.08-3.88,8.68-9.6,11.26-15.37-.04,1.48-.27,3.01.87,4.15.98.97,2.52,1.2,3.72.52,1.28-.71,1.59-1.93,1.6-3.3,0-1.6.06-3.19.16-4.79,1.05,5.22,1.81,10.51,2.94,15.71,1.02,4.71,3.4,8.92,8.69,9.29,4.66.33,10.02-1.71,13.69-4.52,3.72-2.84,6.04-7.25,6.33-11.92.36-5.9-1.65-11.47-4.61-16.5,1.85,2.15,3.62,4.45,5.61,6.47,1.71,1.74,4.83,1.21,5.23-1.44.2-1.32-.46-2.11-1.28-3.03-.92-1.04-1.81-2.1-2.7-3.17-1.92-2.32-3.88-4.6-5.93-6.8,6.17,2.77,14.02,6.6,20.9,4.38,2.93-.95,5.17-3.36,5.74-6.4.66-3.52-.3-7.05-1.31-10.4ZM253.12,262.63c-3.92.78-9.66-1.95-9.24-6.58.19-2.11,1.63-4.12,3.47-5.13,1.88-1.03,3.91-.89,5.77.06-1.65-.19-3.11.87-3.35,2.55-1.94-1.19-4.5.1-4.62,2.39-.12,2.2,2.36,3.97,4.38,2.89-.04,2.23,2.49,3.85,4.48,2.71,1.84-1.05,2.1-3.7.42-5.03.18-.12.34-.26.5-.41.23,1.64,1.61,2.55,3.19,2.58-1.05,1.94-2.91,3.34-5,3.98ZM255.76,253.53c-.05-.37-.18-.75-.37-1.08.51.2,1.08.26,1.62.18.57-.08.77-.35,1.24.04-.97-.1-1.79.15-2.48.86ZM237.01,204.79c1.5-4.13,5.66-5.49,9.7-5.87,4.25-.4,8.64.14,12.76,1.24,3.55.95,7.21,2.79,8.7,6.35,1.58,3.79,1.17,8.28.56,12.24-1.32,8.51-6.12,15.15-10.62,22.26-.55.87-1.1,1.75-1.63,2.64-.2.34-.45,1.11-.78,1.34-.33.23-.99-.21-1.48-.38-1.77-.62-3.76-.85-5.63-.59-.71.1-.78.21-1.06-.48-.2-.49-.4-.97-.59-1.46-.41-1.05-.78-2.11-1.14-3.18-.69-2.06-1.31-4.15-1.88-6.26-1.27-4.65-2.2-9.42-3.76-13.99-1.49-4.37-4.27-9.1-3.15-13.86ZM211.34,255.96c-2.43-.08-5.19-.28-7.32-1.59-2.1-1.29-2.76-3.6-2.97-5.92-.24-2.72.12-5.46.53-8.14.42-2.74.88-5.48,1.52-8.17.51-2.15,1.22-5.61,3.54-6.52,2.08-.82,4.9.12,6.88.88,4.97,1.92,8.68,5.51,11.93,9.62,3.67,4.66,6.9,9.68,11.27,13.74-8.04,3.36-16.58,6.15-25.38,6.12ZM240.74,277.86c-1.63,5.29-4.1,10.43-7.59,14.74-3.16,3.9-8.23,8.2-13.45,5.39-2.35-1.26-4.26-3.53-5.68-5.74-1.49-2.32-1.99-5.11-.94-7.7,2.01-4.91,6.88-8.44,11.03-11.46,5.02-3.67,10.55-6.85,15.03-11.2.35.64.75,1.25,1.22,1.81.34.4,1.32,1,1.48,1.46.11.32-.32,1.15-.27,1.6.08.74.32,1.44.39,2.19.28,2.98-.41,6.07-1.22,8.93ZM275.49,292.91c-1.43,4.27-5,6.5-9.13,7.77-1.51.46-4.22,1.29-5.54.03-1.35-1.29-1.53-4-1.82-5.71-.73-4.41-1.57-8.79-2.45-13.17-.46-2.28-.91-4.55-1.31-6.84-.37-2.1-.44-4.39-1.03-6.43,1.6-.37,3.12-1.03,4.49-1.95.25-.17.75-.73,1.01-.75.26-.02.85.41,1.07.53.67.35,1.3.77,1.92,1.2,2.7,1.87,5.09,4.08,7.1,6.67,3.96,5.11,7.34,12.07,5.68,18.66ZM298.85,263.63c-1.11,2.93-6.02,1.7-8.25,1.14-3.19-.8-6.26-2.18-9.27-3.49-3.03-1.32-6.06-2.58-9.19-3.66-1.57-.54-3.16-1.04-4.77-1.49-.39-.11-1.92-.25-2.2-.57-.1-.12,0-1.08-.02-1.27-.04-.49-.11-.97-.21-1.45-.08-.34-.17-.68-.28-1.01-.07-.2-.52-.99-.48-1.16.07-.32,1.44-1.15,1.71-1.36,1.38-1.07,2.78-2.11,4.22-3.1,2.64-1.82,5.39-3.45,8.29-4.82,2.84-1.35,5.88-2.66,8.97-3.32,1.28-.28,2.94-.59,4.14.15,1.3.8,1.89,2.62,2.35,3.96,1.19,3.45,1.81,7.07,2.85,10.57,1,3.38,2.89,7.3,2.14,10.89Z" fill="#282828"/></svg>