<?xml version="1.0" encoding="UTF-8"?><svg id="Layer_1" xmlns="http://www.w3.org/2000/svg" viewBox="0 0 500 500"><path d="M285.11,243.23c-1.64-1.73-3.69-3.17-5.74-4.36-2.01-1.16-4.15-1.81-6.4-2.3-5.26-1.15-10.69-1.45-16.06-1.23-5.66.23-11.27,1.03-16.85,1.97-5.44.92-10.96,1.85-16.06,4.02-2.56,1.09-4.96,2.47-7.03,4.35-1.9,1.73-3.87,4.28-3.14,7.02-1.01.14-1.23,1.05-1.31,1.91-.09,1.02-.11,2.04-.06,3.06.08,2,.38,3.98.74,5.94.68,3.74,2.86,18.7,3.27,22.51.41,3.86.97,7.7,1.55,11.54,1.1,7.32,2.17,14.64,3.19,21.97.52,3.76.97,7.53,1.59,11.28.46,2.73.97,4.72,1.67,7.41.14.55,1.71,2.24,1.83,2.36.34.34.68.66,1.04.97,1.28,1.11,2.71,2,4.23,2.74,2.93,1.43,6.15,2.2,9.38,2.56,7.18.81,14.75-.33,21.47-2.95,3.02-1.17,5.95-2.72,8.43-4.82,1.15-.97,2.21-2.06,3.1-3.28.66-.9,1.61-2.06,1.69-3.21.07-.94.35-1.91.55-2.84.2-.95.38-1.91.56-2.87.35-1.88.68-3.77.98-5.66.56-3.5,1.03-7.01,1.45-10.52.86-7.2,1.5-14.42,2.13-21.64.65-7.42,1.3-14.83,2.22-22.22.44-3.53.94-7.04,1.52-10.55.15-.87.3-1.74.45-2.61.07-.39.14-.79.22-1.18.08-.43.09-.97.26-1.37.11-.24.39-.4.57-.61.27-.3.48-.66.65-1.03.34-.73.43-1.51.3-2.3-.27-1.58-1.32-2.94-2.39-4.07ZM238.68,343.6c-2.64-.55-5.27-1.42-7.55-2.88-1.08-.69-2.08-1.48-2.95-2.43-.2-.22-1.01-1.07-1.13-1.25-.15-.24-.36-1.75-.43-2.1-1.16-5.67-1.88-11.4-2.7-17.13-.82-5.82-1.67-11.64-2.53-17.46-.43-2.89-.87-5.78-1.27-8.67-.2-1.42-.37-2.84-.53-4.26-.08-.74-.16-1.47-.24-2.21-.07-.66-.31-1.57-.1-2.17.21-.59.15-1.24.19-1.87.06-.76.15-1.51.29-2.26.24-1.33.61-2.63,1.13-3.88.95-2.28,2.58-4.76,5.16-5.33,2.68-.59,5.32.58,6.86,2.8,1.41,2.03,1.95,4.62,2.3,7.02.09.61.2,1.23.23,1.84.03.75,0,1.49.08,2.24.05.47.18.88.21,1.36.05.75.1,1.49.16,2.24.17,2.39.35,4.77.53,7.16.33,4.37.65,8.74.96,13.11.76,10.61,1.48,21.23,1.98,31.86.07,1.47.13,2.94.19,4.41-.28-.04-.56-.09-.83-.15ZM258.14,323.2c-.04,6.06-.09,12.13-.33,18.18,0,.18.06.95-.04,1.09-.11.14-.87.24-1.04.28-.77.2-1.54.37-2.31.53-1.42.29-2.85.51-4.28.67-1.51.17-3.03.26-4.56.26-.73,0-1.46-.02-2.19-.06-.14,0-.29-.02-.43-.03-.24-.02-.34.03-.43-.14-.15-.28-.05-.92-.06-1.24-.56-11.04-1.21-22.07-1.99-33.1-.42-5.94-.86-11.88-1.31-17.82-.17-2.31-.34-4.61-.5-6.92-.1-1.42-.34-2.89-.2-4.32.13-1.43.42-2.86.92-4.21.94-2.55,2.44-4.98,4.63-6.64,2.34-1.77,5.2-2.25,7.88-.95,2.48,1.2,4.43,3.53,5.83,5.85,1.45,2.41,1.97,5.2,2.03,7.97.01.73-1.53,28.37-1.62,40.59ZM278.3,289.36c-.76,8.68-1.52,17.36-2.68,25.99.02-.13.04-.26.06-.39-.59,4.32-1.25,8.63-2.1,12.91-.18.91-.37,1.81-.57,2.71-.09.4-.18.8-.27,1.2-.13.59-.27,1.03-.6,1.54-1.19,1.87-2.77,3.41-4.57,4.7-2.05,1.47-4.39,2.56-6.75,3.45.49-13.66.13-27.33.74-40.99.26-5.73.57-11.53,1.42-17.2.22-1.47,1.11-3.01,1.82-4.31.77-1.41,1.66-2.75,2.66-4.01.94-1.18,1.97-2.3,3.16-3.23,1.13-.88,2.57-1.81,4.07-1.67,1.68.16,2.71,1.83,3.32,3.23.71,1.62.98,3.31.99,5.07,0,.42-.06.86-.03,1.28.02.36.12.62.09.99-.09.97-.18,1.94-.27,2.91-.17,1.94-.34,3.88-.51,5.82ZM280.07,270.8c-.96-1.72-2.49-3.19-4.47-3.6-1.87-.38-3.77.23-5.36,1.19-3.54,2.13-6.17,5.74-8.14,9.3-1.06-4.38-4.05-8.62-7.88-11.01-1.94-1.21-4.2-1.84-6.48-1.6-2.35.24-4.51,1.33-6.27,2.88-1.94,1.71-3.45,3.89-4.47,6.27-1.03-3.03-3-5.84-6.09-7.01-3.3-1.25-7.01-.66-9.6,1.79-1.41,1.33-2.5,3.03-3.22,4.83-.38-2.85-.94-5.66-1.51-8.47-.68-3.35-1.31-6.74-1.1-10.17,1.56,1.41,3.72,2.05,5.74,2.44,2.33.46,4.69.82,7.04,1.15,4.74.65,9.52,1.08,14.3,1.28,8.97.38,18-.02,26.8-1.85,2.25-.47,4.47-1.06,6.67-1.74,2.17-.67,4.42-1.3,6.39-2.47-.98,5.57-1.72,11.19-2.35,16.81ZM283.38,248.36c-.09.58-.81,1.82-.98,2.02-.21.26-.49.47-.76.66-.25-2.01-2.52-3.08-4.2-3.67-1.86-.65-3.81-1.05-5.76-1.31-4.54-.62-9.14-.52-13.7-.17-4.63.35-9.24.96-13.88,1.23-4.58.27-9.17.16-13.74.6-2.6.25-5.23.66-7.73,1.45-1.84.58-5.15,1.63-4.93,4.11-.08-.17-.43-.36-.58-.52-.21-.23-.38-.48-.47-.78-.17-.57,0-1.17.26-1.69.56-1.1,1.45-2,2.36-2.81,1.85-1.64,4.13-2.83,6.41-3.73,5-1.97,10.37-2.86,15.64-3.73,9.89-1.63,20.18-2.74,30.11-.74,1.32.27,2.65.58,3.93.98,1.37.43,2.66,1.26,3.85,2.05,1.23.81,2.07,1.47,3.19,2.43,1.59,1.36.98,3.23.96,3.62Z" fill="#282828"/><path d="M252.03,166.11c.53-1.95,1-3.91,1.34-5.9.33-1.91.72-4.02.58-5.97-.06-.84-.74-1.5-1.59-1.45-.98.06-1.34.86-1.46,1.7-.26,1.82-.78,3.58-1.43,5.3-2.58,6.82-7.18,12.89-8.23,20.24-.57,4.01.19,7.82,1.89,11.46,1.64,3.53,4.03,6.78,5.2,10.51.3.96.51,1.95.62,2.94.09.83-.12,1.82.6,2.42.64.53,1.6.44,2.13-.19.58-.68.35-1.79.26-2.61-.02-.24-.66-4.63-.94-5.59-.56-1.91-1.12-3.82-1.6-5.76-.99-4-1.51-7.97-1.04-12.08.47-4.12,1.68-8.09,2.82-12.06.29-.99.57-1.99.84-2.99ZM245.33,181.27c-.29,2.76-.19,5.58.26,8.32-.65-1.46-1.13-2.97-1.37-4.55-.26-1.67-.17-3.36.09-5.02.5-3.18,1.84-6.21,3.24-9.09-.96,3.4-1.84,6.83-2.21,10.35Z" fill="#282828"/><path d="M264.22,197.39c.41-.42.81-.57,1.32-.83.53-.27.85-.84.78-1.44-.17-1.33-1.55-1.23-2.56-1.27.1-.48-.22-1.05-.38-1.49-.2-.55-.45-1.09-.62-1.65-.12-.39-.08-.78-.31-1.15-.21-.34-.56-.59-.96-.66-.82-.15-1.72.32-1.91,1.16-.12.54-.02,1.2.06,1.74.09.67.1,1.31.1,1.99-.47,0-.94,0-1.42,0-.42,0-.92-.05-1.32.08-.71.23-1.1.99-.93,1.71.17.71,1.05,1.25,1.53,1.77.59.62,1.13,1.28,1.57,2.02.37.63.64,1.55,1.22,2.01.55.45,1.34.42,1.87-.05.58-.51.48-1.24.47-1.94,0-.29,0-.32.14-.52.11-.15.29-.28.42-.42.31-.34.6-.7.9-1.05Z" fill="#282828"/><path d="M259.23,214.22c-.31-.71-.67-1.4-.95-2.12-.27-.67-.81-1.17-1.58-1.1-.67.06-1.26.61-1.33,1.28-.04.39-.01.81-.01,1.21,0,.42-.2.78-.13,1.21.07.4.16.76.19,1.17.03.48.06.95.11,1.43.05.49.1.97.16,1.45.05.41.05.88.23,1.25.27.56.95.89,1.57.77.72-.14.9-.73,1.26-1.25.51-.73.4-1.79.39-2.65,0-.26-.01-.51-.03-.77-.02-.27.01-.32.11-.57.17-.44.21-.89.02-1.33Z" fill="#282828"/><path d="M277.13,222.65c.78-.47,1.12-1.46.51-2.23-.27-.34-.69-.55-1.13-.55-.23,0-.44.06-.66.14-.34.12-.38.25-.59-.1-.21-.36-.13-.77-.37-1.14-.21-.32-.55-.56-.92-.66-.94-.23-1.75.54-1.93,1.42-.05.23-.03.49-.05.72,0,.1,0,.22-.02.32-.09.33.03.15-.24.21-.54.13-1.19-.05-1.74,0-.75.06-1.39.6-1.42,1.39-.04.94.67,1.36,1.46,1.61.46.15.92.29,1.38.43.36.11.29.18.29.53,0,.33,0,.66.03.98.03.54.03,1.07.43,1.48.33.35.8.52,1.28.46.48-.07.88-.36,1.1-.79.25-.48.13-.96.12-1.47.8.37,1.71.41,2.2-.47.22-.39.21-.76.09-1.17-.04-.14-.3-.63-.25-.76.04-.11.34-.28.44-.34Z" fill="#282828"/><path d="M247.46,223.44c.07-.91-.67-1.53-1.51-1.56.17-.43.08-.97.07-1.43-.01-.6-.03-1.19-.05-1.79-.03-.94-.13-1.95-1.25-2.17-.84-.16-1.59.42-1.78,1.22-.12.49-.07.91-.34,1.35-.29.49-.61.96-.92,1.44-.13.2-.25.39-.37.59-.05.09-.12.26-.2.35-.15.17-.04.08-.26.19-.43.21-.78.31-1.02.78-.45.91.16,1.85,1.08,2.04.33.07.77.03,1.07.16.26.11.09-.14.23.23.05.12.06.32.08.44.06.29.12.58.19.87.2.87.28,2.21,1.12,2.71.83.5,1.91.09,2.2-.83.16-.51,0-1.05-.05-1.56-.07-.57-.12-1.14-.15-1.72.88.03,1.79-.31,1.87-1.32Z" fill="#282828"/><path d="M226.72,211.16c-1.04-1.22-2.39.1-3.4.63-.16-.38-.32-.76-.48-1.14-.12-.28-.35-.65-.41-.95-.07-.37.1-.75,0-1.13-.07-.29-.22-.56-.44-.76-.42-.4-1.04-.54-1.59-.34-.65.24-.92.87-1.15,1.48-.24.64-.25,1.43-.32,2.11-.04.42-.08.85-.12,1.27-.01.18-.03.35-.04.53-.02.31,0,.33-.32.35-.6.04-1.2-.07-1.73.29-.5.34-.72.98-.57,1.56.14.54.53.87,1.02,1.07.33.13.68.25,1.01.38.29.12.29.06.35.34.04.16-.02.4-.03.56-.08,1.18-.66,3.15.79,3.74.52.21,1.12.1,1.55-.26.19-.16.33-.37.43-.59.06-.14.06-.3.11-.44.08-.23.09-.21.29-.35.18-.14.55-.76.74-.78.14-.02.72.54.84.63.56.45,1.17.73,1.87.36.67-.35.92-1.12.71-1.83-.12-.4-.33-.79-.49-1.18-.09-.21-.17-.41-.25-.62-.11-.27-.16-.31-.04-.58.16-.38.55-.75.79-1.09.26-.37.51-.74.75-1.12.43-.67.72-1.45.13-2.15Z" fill="#282828"/></svg>