<?xml version="1.0" encoding="UTF-8"?><svg id="Layer_1" xmlns="http://www.w3.org/2000/svg" viewBox="0 0 500 500"><path d="M312.59,254.38c-.93-.22-1.87-.45-2.8-.68-1.86-.46-3.73-.92-5.61-1.31,2.09-.7,4.15-1.5,6.11-2.52,1.34-.7,2.63-1.54,3.78-2.53.82-.71.88-2.03-.07-2.68-.58-.4-1.29-.58-1.87-.98-.68-.46-1.39-.89-2.11-1.29-1.38-.77-2.81-1.44-4.27-2.05-6.14-2.54-12.72-3.95-19.29-4.8-1.71-.22-3.42-.4-5.13-.53-.81-.06-1.62-.12-2.44-.16-.39-.02-.81,0-1.18-.09-.45-.12-.89-.35-1.31-.54-2.99-1.32-5.64-3.19-8.53-4.69-5.82-3.02-12.13-4.9-18.58-6-1.76-.3-3.53-.55-5.31-.75-.78-.09-1.76-.39-2.5,0-.67.36-1.06,1.12-.9,1.88.04.17.1.34.18.49.12.21.16.33.24.55.14.41.28.68.59,1,.6.62,1.26,1.2,1.94,1.74,1.35,1.08,2.8,2.03,4.28,2.93-5.72.95-11.28,2.71-16.73,4.64-2.61.93-5.21,1.86-7.79,2.87-2.66,1.05-5.19,2.42-7.91,3.29-2.7.87-5.53,1.31-8.3,1.91-2.85.61-5.69,1.29-8.45,2.25-2.55.89-5.03,2-7.33,3.41-1.15.71-2.27,1.48-3.34,2.31-.87.67-2.07,1.32-1.94,2.58.06.55.38,1.05.86,1.33.6.36,1.18.22,1.77,0,.05-.03.19-.07.22-.09-.06.02-.13.05-.19.07.04-.02.08-.03.13-.04,1.45-.56,2.96-.97,4.47-1.32,3.18-.72,6.44-1.08,9.7-1.16-4.93,3.43-10.05,6.82-13.88,11.52-.95,1.16-1.81,2.4-2.55,3.71-.65,1.14-1.93,2.93-.74,4.12,1.29,1.3,2.95-.22,4.12-.91,1.56-.92,3.14-1.8,4.73-2.65,6.37-3.43,12.93-6.5,19.26-10.02.37-.21.74-.42,1.11-.63.38-.21.81-.58,1.22-.7.35-.11.89,0,1.26,0,.49.01.97.03,1.46.05,1.91.09,3.82.25,5.72.47,3.78.44,7.53,1.15,11.26,1.9,7.41,1.49,14.79,3.24,22.33,3.98.92.09,1.84.17,2.76.23-2.55,2.05-5.02,4.2-7.26,6.59-1.07,1.14-2.28,2.37-3.1,3.71-.74,1.2.36,2.82,1.76,2.6.15-.02.26-.07.4-.12.16-.07.34-.25.49-.3.14-.05.38.01.54-.02.19-.03.35-.1.53-.18.73-.35,1.44-.79,2.14-1.2,1.36-.78,2.7-1.59,4.04-2.41,2.68-1.64,5.33-3.32,8.04-4.89,2.71-1.57,5.48-3.05,8.37-4.27.33-.14.66-.27,1-.4.39-.15.65-.15,1.07-.12.85.06,1.7.11,2.55.15,1.68.07,3.36.11,5.04.09,6.84-.1,13.29-2.41,19.81-4.24,1.82-.51,3.64-.98,5.49-1.35.76-.15,1.64-.15,2.17-.79.43-.52.54-1.24.25-1.85-.35-.76-1.01-.92-1.77-1.1ZM221.53,252.97c-.49.28-1.15.08-1.69.13-.62.06-1.22.28-1.83.35-1.14.14-1.68-1.46-.67-2.03.47-.27,1.16-.33,1.69-.41.68-.1,1.36-.14,2.05-.08,1.05.09,1.39,1.51.46,2.04ZM234.35,249.95c-.31.04-.65-.05-.96-.04-.38,0-.77.08-1.14.16-.71.16-1.38.53-2.08.67-.63.12-1.26-.28-1.35-.94-.1-.73.43-1.1,1.03-1.32,1.42-.53,2.9-.94,4.43-.76,1.29.15,1.4,2.07.08,2.24ZM236.99,243.6c-.68.14-1.53-.05-2.23-.04-.72,0-1.44.16-2.15.17-1.24,0-1.66-1.79-.42-2.19.69-.22,1.6-.17,2.32-.19.78-.02,1.56,0,2.33.05,1.25.09,1.39,1.94.15,2.2ZM246.49,240.83c-.37-.38-.43-.98-.14-1.42.33-.49,1.06-.63,1.6-.75.73-.16,1.48-.13,2.21-.09.58.03,1.26-.05,1.68.43.34.4.37.99.04,1.41-.38.48-.92.42-1.47.43-.73.07-1.46.21-2.19.28-.59.06-1.29.19-1.75-.28ZM254.93,255.17c-.83,0-1.64-.02-2.47.09-.8.11-1.55.4-2.34.52-.69.11-1.35-.36-1.34-1.1.01-.85.76-1.05,1.43-1.24,1.61-.46,3.3-.56,4.96-.47.63.03,1.11.63,1.02,1.25-.09.66-.66.95-1.27.95ZM258.72,246.54c-.12.14-.25.18-.39.28-.14.1-.17.14-.31.27-.29.26-.53.33-.92.37-.81.08-1.61.09-2.41-.04-.68-.11-1.55-.26-2.1-.69-.45-.35-.57-.98-.25-1.46.4-.58,1.32-.6,1.94-.73,1.48-.3,2.86-.37,4.24.32.61.3.61,1.24.2,1.68ZM266.93,239.91c-.55.62-1.42.24-2.12.21-.91-.04-1.81.04-2.72.05-.72,0-1.88.07-2.5-.34-.6-.4-.65-1.31-.11-1.78.57-.49,1.43-.71,2.16-.8.89-.11,1.78-.03,2.66.11.35.05.77.07,1.08.27.14.09.22.29.34.36.17.1.54.09.74.13.78.17.95,1.25.48,1.79ZM272.51,257.18c-.09.08-.24.11-.32.19-.09.08-.15.23-.24.31-.47.44-1.29.33-1.89.35-.63.02-1.41.13-2.02-.04-.46-.13-.8-.55-.81-1.02-.02-.66.45-.98,1.01-1.15,1.18-.37,2.4-.56,3.64-.58.6,0,1.06.62,1.02,1.18-.02.29-.16.58-.39.77ZM294.3,250.16c-.3.66-1.27.87-1.89,1.1-1.55.56-3.2.94-4.85.94-2.88,0-5.5-1.65-7.92-3.03-.65-.37-1.3-.74-1.97-1.08-.24-.12-.5-.22-.73-.35-.25-.14-.4-.35-.63-.48-.55-.33-.98-.78-.71-1.49.24-.64.89-.74,1.47-.93,2.87-.94,5.97-1.88,9.03-1.37,1.54.25,2.82,1.06,4.1,1.9,1.22.81,2.53,1.67,3.52,2.77.49.54.92,1.3.58,2.03Z" fill="#282828"/><path d="M188.6,255.97s.04-.02.06-.02c-.01,0-.02,0-.03.01,0,0-.02,0-.02.01Z" fill="#282828"/><path d="M288.96,244.78c-.67-.27-1.68-.36-2.23.18-.62.61-1.12,1.49-1.49,2.27-.39.8-.66,1.67-.71,2.56-.03.59-.06,1.32.46,1.72,1.32,1.02,3.12-1.01,3.7-2.02.46-.8.77-1.69.94-2.59.16-.86.28-1.73-.68-2.11Z" fill="#282828"/></svg>