<?xml version="1.0" encoding="UTF-8"?><svg id="Layer_1" xmlns="http://www.w3.org/2000/svg" viewBox="0 0 500 500"><path d="M196.3,237.35c1.13.96,2.44-.14,3.4-.82,1.37-.98,2.6-2.13,3.7-3.41,2.18-2.52,3.94-5.36,5.7-8.18.97-1.56,1.95-3.13,3-4.64.25-.36.47-.64.81-.92.37-.3.75-.6,1.14-.89.62-.46,1.27-.9,1.94-1.28,1.56-.88,3.34-1.3,5.1-1.55,1.82-.26,3.75-.22,5.56.09,3.6.62,6.94,2.2,10.25,3.66-3.64-.91-7.63-1.69-11.28-.39-1.64.58-3.09,1.59-4.2,2.93-1.22,1.48-1.99,3.23-2.6,5.03-.61,1.8-1.06,3.66-1.65,5.47-.6,1.84-1.43,3.58-2.29,5.31-1.72,3.41-3.81,6.89-4.48,10.69-.67,3.82.07,7.81.88,11.56.42,1.95.9,3.89,1.35,5.83.24,1.02.47,2.04.67,3.07.1.5.19,1,.27,1.5.08.49.08,1.06.24,1.52.28.8,1.28,1.16,2.02.77.32-.17.47-.55.75-.69.37-.19,1.19-1.57,1.32-2,.16-.5.33-1.01.51-1.5.35-.97.73-1.92,1.14-2.87,1.54-3.62,3.36-7.13,4.69-10.84.65-1.8,1.13-3.63,1.47-5.51.29-1.62.51-3.25.89-4.86.44-1.88,1.06-3.75,2.39-5.2,1.26-1.37,2.74-2.56,4.23-3.68.74-.56,1.49-1.1,2.25-1.63-.05.03-.1.05-.15.08,2.15-1.48,4.34-2.9,6.51-4.34,1.31-.86,2.61-1.73,3.88-2.64,1.2-.86,2.31-2.01,3.78-2.38-1.23,3.19-1.73,6.69-1.99,10.08-.27,3.56-.18,7.14.03,10.71.46,7.68,1.49,15.43.56,23.12-.51,4.23-1.85,8.18-3.49,12.09.03-.05.06-.09.09-.14-2.23,5-4.61,9.98-6.33,15.19-.76,2.31-1.37,4.67-1.77,7.07-.08-.91-.35-1.86-.52-2.75-.36-1.87-.71-3.75-.97-5.64-.49-3.49-.58-7.01-.16-10.51.91-7.52,3.03-14.84,3.86-22.38.21-1.86.34-3.73.35-5.6,0-.45,0-.91-.01-1.36-.01-.42.02-.87-.17-1.26-.3-.62-1.02-.92-1.67-.68-.79.28-1,1.23-1.3,1.92-.38.86-.75,1.73-1.12,2.59-.71,1.68-1.41,3.36-2.12,5.04-2.35,5.65-4.64,11.39-7.74,16.68-1.76,3.01-3.7,5.95-4.96,9.22-.59,1.53-1.03,3.12-1.25,4.75-.22,1.68-.22,3.37-.18,5.06.08,3.62.39,7.26,1.07,10.82.31,1.66.72,3.31,1.36,4.88.61,1.49,1.49,3.17,3.02,3.89,1.12.53,2.35.73,3.56.96.73.14,1.46.27,2.17.48.82.25,1.54.7,2.24,1.2,1.37.98,2.6,2.24,3.58,3.61.5.7.89,1.49,1.4,2.18.19.26.57.39.69.63.17.36.19.87.29,1.26.84,3.53,1.92,7,3.16,10.41.6,1.66,1.25,3.31,1.93,4.94.36.88.73,1.76,1.1,2.64.15.36.26.68.59.91.32.21.7.3,1.08.22.61-.13,1.04-.67,1.07-1.29.02-.36-.14-.65-.28-.97-.19-.44-.38-.87-.56-1.31-.74-1.76-1.44-3.54-2.1-5.34-1.22-3.33-2.29-6.71-3.16-10.14-1.72-6.84-2.6-13.91-2.01-20.95.14-1.74.4-3.47.76-5.18.12.23.92-.28,1.02-.37.36-.33.65-.76.98-1.12.68-.73,1.41-1.41,2.2-2.01,1.49-1.12,3.34-1.73,5.14-2.09,3.82-.77,7.79-.45,11.62.03,3.87.48,7.74,1.31,11.65,1.39,4.17.07,8.38-.59,12.34-1.91,1.78-.59,3.51-1.33,5.15-2.23.79-.43,1.55-.91,2.29-1.42.64-.45,1.53-.96,1.97-1.61.43-.65.26-1.59-.42-2.01-.49-.3-1.03-.19-1.57-.16-2.12.12-4.25.07-6.36-.14-3.91-.39-7.81-1.17-11.58-2.25-1.93-.55-3.82-1.22-5.68-1.98-1.27-.52-2.55-1.04-3.89-1.39-1.85-.49-3.69-.57-5.56-.14-1.77.41-3.49,1.1-5.11,1.91-3.56,1.76-6.94,4.1-9.82,6.84-.54.51-1.05,1.04-1.55,1.58.93-1.93,1.7-3.95,2.57-5.91.89-2.01,1.79-4.01,2.63-6.04.9-2.17,1.73-4.38,2.31-6.66.57-2.24.9-4.54,1.11-6.85.84-9.24-.86-18.45-.84-27.69.01-5.1.61-10.19,2.46-14.98.45.25.96.22,1.45.33.58.13,1.15.31,1.71.53,1.08.41,2.1.97,3.09,1.57,2.02,1.25,3.89,2.77,5.43,4.59,1.47,1.73,2.91,4.05,1.86,6.34-.5,1.08-1.19,2.06-1.66,3.15-.47,1.09-.73,2.22-.9,3.39-.36,2.53-.14,5.09.12,7.61.23,2.25.47,4.49.72,6.74.54,4.77,1.05,9.57.76,14.38-.06,1.03-.53,2.46.49,3.15.36.25.79.42,1.23.33.5-.11.98-.41,1.42-.67,1.91-1.16,3.47-2.79,4.78-4.59,2.93-4.01,4.74-8.69,6.76-13.19,1.98-4.39,4.79-8.35,6.66-12.81.89-2.12,1.63-4.49,1.44-6.82-.1-1.19-.4-2.25-1.33-3.05-.77-.67-1.73-1.15-2.44-1.89-.74-.76-.87-2.15-1.1-3.14-.26-1.09-.51-2.21-1.06-3.19-.94-1.68-2.56-3-4.25-3.86-4.32-2.21-9.4-1.92-14.11-2.19-1.18-.07-2.35-.18-3.53-.25,3.07-1.24,6.19-2.36,9.37-3.31,3.02-.91,6.17-1.81,9.34-1.94.76-.03,1.57-.04,2.31.17.32.09.66.2.87.47.2.27.28.64.36.97.32,1.4.28,2.87.33,4.3.05,1.52.08,3.13.55,4.6.44,1.38,1.27,2.64,2.31,3.65,1.13,1.11,2.49,1.84,3.87,2.59,1.46.79,2.76,1.68,3.55,3.19,1.47,2.81.95,6.36.33,9.33-.71,3.36-1.77,6.62-2.69,9.92-.86,3.07-1.68,6.27-1.73,9.48-.01.79.03,1.57.13,2.35.09.7.23,1.36.96,1.66.33.14.6.07.93.05.27-.01.49.02.75-.07.58-.21.91-.81,1.28-1.27.12-.15.24-.32.37-.47.13-.15.28-.22.42-.35.23-.21.3-.45.44-.72.34-.67.93-1.28,1.37-1.89.98-1.36,1.91-2.75,2.78-4.19,3.2-5.27,5.57-11.14,5.98-17.35.22-3.43-.15-6.9-1.05-10.22-.74-2.72-1.88-5.3-3.01-7.87-.48-1.11-.81-2.29-1.21-3.43-.49-1.38-1-2.76-1.55-4.11-1.23-3-2.65-5.99-4.3-8.79-1.6-2.73-3.52-5.43-6.25-7.13-2.76-1.71-6.06-1.91-9.12-.94-6.08,1.94-10.58,7.09-14.79,11.62-1.13,1.22-2.27,2.44-3.44,3.62.8-1.95,1.22-4.1,1.59-6.17.45-2.47.75-4.97.95-7.48.38-4.67.43-9.36.49-14.04.06-4.88.3-9.75.35-14.63.02-2.3.04-4.6.1-6.9.01-.4-.06-.85.15-1.19.13-.19.29-.38.44-.56.6-.77,1.21-1.53,1.76-2.34.63-.92,1.3-1.99,1.31-3.14,0-1.2-.79-2.04-1.89-2.39-2.52-.79-4.95.78-6.39,2.76-.05-.96-.2-1.91-.49-2.83-.26-.82-.83-1.52-1.8-1.32-.78.16-1.51,1.08-1.93,1.7-.55.8-.93,1.7-1.19,2.64-.36-1.26-.84-2.49-1.47-3.64-.47-.87-1.1-2.31-2.28-2.2-1.15.1-1.64,1.63-1.91,2.56-.36,1.27-.42,2.62-.22,3.92-.37-.27-.96-.39-1.4-.52-.6-.17-1.21-.31-1.83-.38-1.14-.15-2.32-.11-3.44.16-1.06.26-1.63,1.11-1.15,2.16.45.98,1.08,1.83,1.84,2.59.81.79,1.73,1.45,2.67,2.06.22.14.44.28.66.42.14.09.63.27.69.42.07.15-.05.57-.07.74-.02.25-.04.5-.06.75-.16,1.96-.26,3.93-.33,5.9-.16,4.77-.08,9.54-.07,14.31,0,2.54,0,5.07-.12,7.61-.1,2.3-.27,4.6-.35,6.9-.08,2.49-.07,5,.23,7.48.32,2.66.95,5.28,2.39,7.56-.09-.12-.26-.22-.37-.32-.31-.27-.61-.56-.9-.85-.6-.61-1.15-1.26-1.67-1.94-1.06-1.38-1.94-2.9-2.71-4.47-.78-1.58-1.43-3.23-1.87-4.94-.4-1.56-.53-3.1-.46-4.71.07-1.5.34-3,.36-4.5.02-1.5-.43-3.08-1.89-3.76-1.51-.71-3.29-.46-4.87-.2-1.68.28-3.33.69-4.95,1.18-3.49,1.06-6.85,2.51-10.03,4.29-.79.44-1.55.95-2.34,1.39-.78.44-1.66.75-2.47,1.14-1.52.74-2.99,1.57-4.39,2.52-2.73,1.85-5.12,4.19-6.67,7.13-.74,1.4-1.29,2.89-1.64,4.43-.18.79-.32,1.6-.42,2.4-.11.91-.54,1.81-.75,2.71-.58,2.44-.96,4.93-1.42,7.39-.28,1.48-.55,2.97-.8,4.45-.13.76-.25,1.51-.37,2.27-.11.73-.46,1.38-.57,2.11-.12.81,0,1.33.64,1.86ZM232.93,275.73c.27-1.9.19-2.76.59-4.64.3-1.37,2.06-5.54,2.59-6.84-.79,4.19-2.45,10.84-3.19,15.05.09-.94-.12-2.63,0-3.57ZM229.19,315.85c-1.27-.25-2.75-.31-3.92-.91-.99-.51-1.52-1.9-1.87-2.88-.88-2.4-1.3-4.96-1.59-7.5-.31-2.66-.48-5.35-.49-8.03,0-1.37.04-2.76.3-4.11.25-1.28.63-2.54,1.11-3.75,1.03-2.62,2.59-5.01,4.02-7.43-3.18,9.58-4.74,20.53.45,29.72.99,1.76,2.09,3.49,3.22,5.16-.41-.11-.82-.19-1.23-.28ZM233.79,315.81c-1.24-1.64-2.3-3.41-3.37-5.15-1.35-2.19-2.38-4.46-3-6.96-1.21-4.89-.8-10.05.25-14.93.6-2.81,1.42-5.58,2.35-8.3-.5,4.65-.38,9.38.02,14.03.41,4.76,1.19,9.48,2.25,14.13.59,2.63,1.28,5.24,2.04,7.82-.18-.21-.36-.43-.53-.65ZM270.5,292.75c3.04.44,6.08.93,9.15,1.21-4,.72-7.93.84-11.95.27-2.9-.41-5.8-.89-8.71-1.19-2.25-.23-4.53-.36-6.79-.24,1.15-.45,2.44-.66,3.66-.83,1.58-.21,3.18-.25,4.77-.21,3.31.08,6.6.52,9.87.99ZM258.08,285.46c.91-.3,1.88-.57,2.84-.63,1.04-.07,2.08.12,3.08.41,1.46.43,2.87,1.03,4.28,1.6-1.19-.34-2.54-.36-3.77-.38-1.36-.02-2.72.05-4.07.19-2.9.3-5.76.89-8.51,1.84,1.94-1.21,3.99-2.28,6.15-3.03Z" fill="#282828"/></svg>