<?xml version="1.0" encoding="UTF-8"?><svg id="Layer_1" xmlns="http://www.w3.org/2000/svg" viewBox="0 0 500 500"><path d="M317.84,251.98c.14-.1.27-.2.4-.31.26-.22.5-.45.71-.71.44-.51.8-1.09,1.09-1.7,1.23-2.57,1.5-6.09-.21-8.52-1.99-2.82-5.73-2.42-8.39-.82-1.22.73-2.35,1.84-2.86,3.19-2.05-.95-4.26-1.49-6.5-1.68-1.13-.09-2.27-.1-3.41-.02-.11,0-.32.05-.44.03-.37-.05-.15.07-.25-.19-.09-.24-.08-.6-.12-.85-.09-.6-.21-1.2-.35-1.79-1.02-4.31-3.4-8.47-6.86-11.27-3.46-2.79-7.78-3.94-12.17-3.24-4.17.66-7.88,2.97-10.35,6.38-1.41,1.96-2.38,4.2-2.89,6.56-.13.6-.23,1.21-.3,1.83-.03.26.01.73-.18.82-.21.1-.74,0-.98,0-1.42.02-2.83.11-4.24.26.13-4.64.42-9.28.7-13.92.28-4.67.78-9.34.95-14.02.08-2.27.08-4.55-.15-6.81-.05-.54-.12-1.08-.2-1.61-.04-.25-.08-.5-.12-.75-.03-.2-.23-.71-.16-.88.11-.29.61-.62.79-.92.26-.42.4-.89.41-1.39.02-1.01-.58-1.55-1.21-2.23-.64-.68-1.69-.92-2.54-.49-1.7.85-2.25,3.57-.73,4.84.11.09.48.26.54.38.08.14-.19.6-.27.79-.22.55-.43,1.1-.62,1.66-.4,1.15-.73,2.32-1.01,3.5-.57,2.39-.92,4.82-1.18,7.26-.98-4.14-1.86-8.3-2.86-12.43-.49-2.05-1.01-4.09-1.59-6.12-.29-1.01-.59-2.02-.9-3.03-.15-.49-.31-.97-.47-1.45-.05-.14-.26-.51-.22-.65.03-.11.28-.27.38-.38.98-1.11.78-3.04-.3-4.01-.28-.25-.6-.37-.84-.65-.26-.3-.64-.48-1.03-.48-.85,0-1.63.5-2.11,1.17-.99,1.38-.77,3.75.84,4.58.2.1.33.08.37.26.05.18-.09.56-.12.76-.08.54-.14,1.08-.18,1.62-.09,1.05-.13,2.1-.13,3.16.01,4.93.98,9.79,1.74,14.65-2.44-5.84-5.83-11.18-8.94-16.68-.39-.7-.78-1.39-1.16-2.1-.16-.29-.43-.64-.51-.96-.08-.3-.07-.21.09-.48.1-.16.18-.32.25-.49.49-1.25.82-2.78-.15-3.89-.89-1.03-2.45-1.22-3.7-.9-.58.15-1.15.44-1.58.87-.51.52-.54,1.12-.65,1.79-.23,1.43.14,2.8,1.31,3.73.25.2.52.37.82.48.31.12.3.02.41.32.04.11.04.29.06.42.13.83.32,1.64.56,2.44.42,1.45.98,2.85,1.5,4.26.53,1.44.96,2.92,1.43,4.39.97,3.08,1.99,6.15,2.89,9.25.88,3.04,1.56,6.12,2.38,9.17.93,3.5,1.93,6.98,2.81,10.49.43,1.71.83,3.42,1.17,5.15.17.84.32,1.69.45,2.54.03.17.11.42.09.59.09.17.04.26-.15.28-.06.03-.12.06-.18.08-.42.2-.83.41-1.23.63-2.93-6.42-10.04-9.5-16.84-8.21-6.58,1.24-12.33,5.87-16.08,11.26-1.88,2.7-3.37,5.7-4.4,8.82-.56,1.71-1.04,3.46-1.31,5.24-.07.43-.12.87-.17,1.3-.02.22-.04.44-.06.65-.02.32,0,.34-.2.57-.26.31-.7.56-1.01.81-.39.32-.78.64-1.17.96-5.29,4.42-10.33,9.46-13.71,15.52-.1.18-.2.36-.3.54-.19.35-.15.36-.53.3-.38-.06-.77-.07-1.16-.08-.93,0-1.82.17-2.69.49-1.61.59-3,1.65-4.1,2.96-2.29,2.7-3.6,6.78-1.64,10.02.78,1.31,2.22,2.18,3.66,2.58.8.23,1.64.35,2.47.39.32.01.92-.12,1.21,0,.25.1.34.87.43,1.19.92,3.14,2.55,5.97,5.06,8.1,2.56,2.18,5.73,3.26,8.87,4.28,3.26,1.06,6.65,1.7,10.05,2.07,3.55.39,7.12.46,10.69.3,3.47-.16,6.87-.71,10.29-1.24,6.9-1.06,13.74-2.73,20.46-4.61,6.89-1.92,13.66-4.22,20.41-6.59,3.32-1.17,6.62-2.36,9.93-3.54,3.31-1.18,6.63-2.33,9.88-3.67,6.1-2.52,12.11-5.59,17.05-10.04,4.95-4.47,8.44-10.35,9.37-17.01.47-3.37.34-6.8-.45-10.12-.19-.78-.41-1.55-.67-2.31-.14-.39-.28-.78-.44-1.16-.14-.33-.45-.79-.5-1.13-.04-.3-.08-.18.19-.37ZM184.44,294.91c.12-.07.23-.05.32.07-.11-.02-.21-.04-.32-.07ZM228.57,282.45c-1.68,0-3.32-.47-4.99-.55-.23-.01-.44-.06-.53.11-.06.12-.01.37-.02.52-.02.43-.04.86-.06,1.3-.05.88-.12,1.76-.18,2.64-.11,1.5-2.18,1.77-2.99.71-.47-.61-.7-1.5-.93-2.22-.26-.82-.48-1.66-.7-2.49-1.71.59-3.46,1.06-5.23,1.42-.75.15-1.74.51-2.48.21-.61-.25-1.06-.86-1.08-1.52-.05-1.4,1.69-2.59,2.76-3.2,1.28-.72,2.71-1.12,4.14-1.41-.8-1.6-1.38-3.31-1.72-5.07-.24-1.25-.86-3.37.44-4.24.27-.18.6-.29.93-.28.19,0,.36.09.54.09.16,0,.35-.08.52-.09.85,0,1.3.56,1.71,1.22.94,1.53,1.54,3.21,2.24,4.85.47-.54.95-1.07,1.45-1.59.48-.49,1.09-.94,1.5-1.48.37-.49.64-.82,1.27-.96.57-.13,1.12-.17,1.63.15.56.35.69.87.82,1.47.15.72.04,1.07-.31,1.71-.7,1.28-1.35,2.59-1.93,3.93.79.23,1.57.46,2.33.77.69.27,1.52.6,2.08,1.1,1.17,1.07.29,2.9-1.19,2.9ZM269.28,253.41c.21-.6.24-1.25.72-1.71.87-.82,2.93-.87,3.33.5.21.72.7,1.32.62,2.11-.07.67-.46,1.27-1.03,1.62-1.09.66-2.84.99-3.53-.37-.34-.67-.36-1.45-.12-2.15ZM245.51,225.16c-1.34-4.97-2.49-9.98-4.03-14.89-.86-2.74-1.72-5.49-2.61-8.22,1.58,2.71,3.15,5.43,4.53,8.24,1.35,2.76,2.38,5.65,3.54,8.48.3.72.6,1.44.92,2.15.28.63.5,1.43,1.2,1.7.52.2,1.12.05,1.49-.37.45-.51.34-1.19.32-1.83-.12-3.17-.57-6.32-1.06-9.46-.56-3.56-1.19-7.12-1.42-10.72,1.44,5.49,2.6,11.04,3.93,16.56.33,1.37.67,2.74,1.02,4.1.18.68.36,1.36.55,2.04.16.57.26,1.12.82,1.43.43.24.98.23,1.4-.03.64-.4.63-1.05.69-1.72.14-1.4.26-2.8.39-4.2.29-3.17.64-6.34,1.34-9.45.06,5.12-.55,10.23-.88,15.33-.33,5.05-.62,10.12-.8,15.18,0,.15-.01.3-.01.45-.01.34.01.25-.23.37-.28.14-.78.12-1.09.17-.68.11-1.35.24-2.03.38-1.36.29-2.7.63-4.02,1.06-.1-.61-.19-1.22-.3-1.82-.89-5.05-2.33-10-3.66-14.95ZM250.51,261.52c-1.11-.06-2.3-1.48-2.4-2.55-.05-.54.15-1.09.57-1.45.48-.42,1.04-.9,1.72-.9,1.4,0,1.82,1.39,1.99,2.54.18,1.21-.52,2.43-1.87,2.35ZM301.52,253.44c-.06,1.18-.21,2.36-.45,3.52-.98,4.72-3.34,9.06-6.41,12.75-6.33,7.63-15.4,13.1-24.92,15.71-2.6.71-5.25,1.18-7.95,1.3-2.79.12-5.61.05-8.39-.09-2.72-.14-5.44-.4-8.14-.83-1.37-.22-2.73-.48-4.09-.79-.71-.16-1.42-.34-2.13-.53-.55-.15-1.17-.23-1.51-.73-1.05-.21-1.51-1.42-.91-2.29.33-.49.92-.86,1.37-1.23.48-.39.98-.77,1.48-1.14,1.06-.78,2.15-1.52,3.26-2.22,2.24-1.41,4.57-2.68,6.94-3.87,4.92-2.47,10.59-5.64,15.62-7.89,9.75-4.37,18.31-9,28.34-12.74,1.22-.45,2.44-.88,3.68-1.27.64-.2,1.28-.39,1.92-.57.52-.15.98-.31,1.49-.05,1.08.54.85,1.95.8,2.95Z" fill="#282828"/><path d="M265.39,268.78c-6.97,3.09-14.63,6.56-21.12,10.61-1.25.8-2.48,1.65-3.66,2.55,5.33,1.38,10.94,1.77,16.44,1.86,2.46.04,4.91.05,7.35-.29,2.34-.33,4.66-.89,6.9-1.65,4.33-1.47,8.5-3.52,12.27-6.11,7.39-5.07,14.33-12.65,15.02-21.99-4.19,1.28-8.24,3.03-12.19,4.91-7.25,3.45-13.67,6.86-21.01,10.12Z" fill="#282828"/></svg>