<?xml version="1.0" encoding="UTF-8"?><svg id="Layer_1" xmlns="http://www.w3.org/2000/svg" viewBox="0 0 500 500"><path d="M279.41,271.4c-2.94-1.2-5.59-3.36-7.93-5.46-2.34-2.09-4.6-4.44-6.17-7.18-1.46-2.53-2.47-6.07-.49-8.63,2.22-2.88,5.63-.65,7.55,1.33,2.61,2.69,4.62,5.97,6.4,9.25-.48-4.36-1.11-8.7-1.95-13.01-.41-2.1-.86-4.19-1.37-6.27-.12-.5-.24-.99-.37-1.48-.11-.44-.17-1.26-.43-1.63-.22-.31-1.01-.32-1.43-.42-.51-.13-1-.28-1.49-.46-3.62-1.3-6.91-3.68-9.48-6.52-1.22-1.35-2.28-2.86-3.04-4.52-.61-1.32-1.69-3.57-.3-4.73,1.43-1.19,4.29-.41,5.83.18,1.93.74,3.66,1.94,5.22,3.27-1.08-2.43-2.28-4.82-3.61-7.13-.64-1.12-1.34-2.21-2.06-3.28-.36-.53-.72-1.06-1.1-1.58-.16-.23-.32-.53-.52-.72-.29-.28-.47-.18-.85-.3-1.13-.33-2.26-1.21-3.24-1.84-1.1-.7-2.18-1.45-3.25-2.21-2.01-1.43-3.96-2.97-5.68-4.75-1.61-1.66-3.31-3.72-3.27-6.16.04-2.4,2.33-4.06,4.53-4.41,2.32-.37,4.55,1.13,6.15,2.65,1.84,1.75,3.33,3.81,4.64,5.97,1.49,2.44,2.95,5.05,3.74,7.82.09.33.14.67.3.97.18.34.48.66.7.98.4.57.8,1.15,1.18,1.74.85,1.3,1.66,2.63,2.42,3.98-.31-3.45-.52-7.24.59-10.58.48-1.46,1.42-2.92,3.17-2.09,1.37.66,2.48,1.81,3.15,3.16,1.52,3.08,1.4,6.88.84,10.18-.29,1.73-.71,3.46-1.28,5.12-.26.75-.55,1.48-.89,2.19-.2.42-.41.84-.65,1.23-.04.07-.29.37-.29.42-.03.21.27.68.34.87,1.51,3.86,2.75,7.82,3.78,11.84.3-3.37,1.58-8.08,5.87-7.8,4.62.3,3.55,6.84,2.91,9.78-.44,2.07-1.03,4.1-1.71,6.1-.68,1.99-1.41,4.04-2.47,5.87-.22.37-.43.75-.78,1.02-.12.09-.25.17-.39.23-.42.19-.32-.01-.38.43-.06.43.15,1.02.21,1.45.08.6.16,1.21.23,1.82.27,2.16.5,4.33.69,6.5.79,8.79,1.05,17.61,1.09,26.43.02,4.36,0,8.72-.04,13.08,0,.92.16,1.94-.55,2.65-.67.67-1.75.75-2.51.18-.86-.65-.75-1.6-.74-2.55,0-1.13.02-2.27.03-3.4.04-4.92.05-9.85-.03-14.77-.04-2.51-.1-5.01-.2-7.52-.05-1.25-.1-2.51-.16-3.76-.03-.57-.06-1.15-.09-1.72-.01-.26-.03-.52-.04-.78-.03-.46.1-.85-.34-1.03Z" fill="#282828"/><path d="M266.28,298.68c-1.45.2-2.03-1.04-2.25-2.22-.3-1.63-.63-3.25-.99-4.87-.71-3.27-1.52-6.52-2.45-9.74-1.79-6.2-3.96-12.29-6.48-18.24-1.27-2.98-2.62-5.93-4.06-8.83-.72-1.45-1.46-2.9-2.23-4.33-.38-.72-.77-1.43-1.16-2.14-.17-.31-.34-.62-.52-.93-.09-.16-.16-.42-.3-.53-.19-.16-.32-.1-.59-.13-.75-.08-1.53-.43-2.24-.67-.76-.25-1.52-.51-2.28-.78-1.51-.54-3-1.14-4.46-1.81-2.69-1.25-5.46-2.78-7.39-5.07-1.72-2.04-3.25-6.16-.57-8.13,2.68-1.97,6.49.78,8.67,2.34-2.53-3.73-5.17-7.38-7.91-10.96-.36-.47-.7-1.01-1.11-1.44-.3-.3-.63-.32-1.03-.53-1.03-.55-1.96-1.29-2.85-2.02-1.68-1.38-3.27-2.88-4.78-4.43-1.53-1.58-3.02-3.24-4.14-5.15-.9-1.52-1.6-3.63-.19-5.1,1.42-1.47,4.14-1.07,5.8-.33,1.74.78,3.12,2.17,4.28,3.65,1.48,1.89,2.62,4.04,3.59,6.23.52,1.17.99,2.38,1.37,3.6.19.62.36.93.76,1.45.44.57.88,1.14,1.32,1.71-.41-1.81-.58-3.71-.34-5.56.17-1.34.45-3.63,2-4.06,1.42-.39,2.82,1.13,3.63,2.11.9,1.11,1.55,2.41,2.02,3.75,1.13,3.23,1.28,6.71,1.19,10.1-.02.93-.07,1.87-.14,2.8-.03.41-.06.83-.1,1.24-.02.2-.13.5-.13.7,0,.29.21.5.38.76,1.06,1.58,2.09,3.17,3.11,4.77,7.95,12.57,14.52,26.02,19.04,40.2,1.27,3.99,2.39,8.03,3.36,12.1.48,2.04.93,4.08,1.34,6.13.29,1.47,1.08,4.02-1.19,4.34Z" fill="#282828"/><path d="M256.29,303.12c-.56.24-1.22.19-1.74-.11-.7-.4-.89-1.17-1.19-1.86-.71-1.65-1.5-3.26-2.36-4.84-1.67-3.07-3.59-6-5.64-8.82-4.06-5.59-8.7-10.81-13.86-15.4-1.29-1.15-2.62-2.26-3.99-3.31-1.04-.79-2.66-1.53-2.31-3.11.35-1.58,2.06-1.69,3.18-.9,1.44,1.01,2.82,2.12,4.16,3.26,5.49,4.65,10.43,10,14.78,15.72,2.44,3.21,4.7,6.58,6.69,10.09.95,1.68,1.83,3.39,2.62,5.15.59,1.32,1.55,3.32-.33,4.13Z" fill="#282828"/><path d="M211.84,240.17c-.14-1.02.6-2,1.62-2.14,1.09-.15,2.2.85,3.07,1.39,2.09,1.3,4.17,2.64,6.2,4.03,3.99,2.73,7.85,5.66,11.44,8.9.9.81,1.78,1.64,2.64,2.49.83.81,1.82,1.64,2.5,2.59.62.86.37,2.1-.49,2.69-1.04.72-2.04.2-2.79-.6-3.39-3.61-7.16-6.83-11.11-9.81-2.21-1.66-4.48-3.24-6.78-4.76-1.19-.79-2.4-1.56-3.61-2.32-.99-.62-2.5-1.16-2.68-2.46Z" fill="#282828"/></svg>