<?xml version="1.0" encoding="UTF-8"?><svg id="Layer_1" xmlns="http://www.w3.org/2000/svg" viewBox="0 0 500 500"><path d="M247.35,273.55c-.06,1.04-.11,2.08-.14,3.12-.07,2.16-.06,4.32.03,6.48,2.76-1.23,5.52-2.44,8.26-3.7.67-.31,1.35-.61,2.02-.92.08-.04.37-.13.4-.18.02-.04-.05-.44-.06-.44-.04-.33-.08-.67-.12-1-.16-1.33-.3-2.67-.43-4.01-.14-1.37-.27-2.75-.39-4.12-.06-.64-.25-1.43-.18-2.14-1.76.92-3.48,1.9-5.16,2.94-1.46.91-2.86,1.91-4.23,2.95.04.32.02.67,0,1.02Z" fill="#282828"/><path d="M260.35,268.71c.25,2.72.51,5.45.83,8.17,3.07-1.37,6.15-2.71,9.26-4.01.37-.15.74-.31,1.1-.46.27-.11.68-.19.9-.37.21,0,.27-.11.17-.29,0-.07-.02-.14-.03-.21-.02-.14-.04-.28-.05-.42-.04-.35-.09-.69-.13-1.04-.17-1.47-.3-2.94-.41-4.41-.11-1.45-.18-2.9-.23-4.35,0-.22-.02-.45-.03-.68-4.22,1.18-8.35,2.75-12.31,4.64.05.03.09.06.13.1.86.76.69,2.29.79,3.33Z" fill="#282828"/><path d="M275.95,270.63c2.55-1,5.11-1.96,7.7-2.87.59-.21,1.19-.41,1.78-.62.28-.1.56-.19.84-.28.2-.07.69-.14.84-.28.26-.23.04-1.4.02-1.82-.03-.59-.05-1.19-.07-1.78-.04-1.19-.08-2.38-.1-3.57,0-.22-.02-.47-.04-.72-.81-.19-1.64-.3-2.48-.28-2.29.04-4.59.39-6.83.82-.81.16-1.62.34-2.42.53.01.65.03,1.29.06,1.94.12,2.98.35,5.96.71,8.93Z" fill="#282828"/><path d="M249.04,303c-.32.08-.63.15-.95.21.32-.07.63-.14.95-.21Z" fill="#282828"/><path d="M288.79,259.28c.26.1.52.21.78.32-.26-.11-.52-.22-.78-.32Z" fill="#282828"/><path d="M272.57,260.42c.75-.2,1.51-.4,2.26-.58-.76.18-1.51.37-2.26.58Z" fill="#282828"/><path d="M293.02,289.6c-.23.31-.46.61-.71.91.24-.3.47-.6.71-.91Z" fill="#282828"/><path d="M298.13,265.44c.3.3.58.61.86.93-.28-.32-.56-.63-.86-.93Z" fill="#282828"/><path d="M296.51,263.92c.42.36.83.73,1.22,1.11-.39-.38-.8-.75-1.22-1.11Z" fill="#282828"/><path d="M289.63,259.62c.27.12.54.24.81.37-.27-.13-.53-.25-.81-.37Z" fill="#282828"/><path d="M286.92,258.7c.3.07.6.15.9.25-.3-.09-.6-.17-.9-.25Z" fill="#282828"/><path d="M241.51,285.85c.47-.24.94-.48,1.42-.71.22-.11.44-.22.67-.32.32-.15.38-.16.36-.52-.06-1.08-.1-2.15-.12-3.23-.04-1.89,0-3.78.07-5.67-.86.8-1.68,1.62-2.47,2.5-2.78,3.1-5.1,6.61-6.92,10.35-.52,1.06-.99,2.14-1.42,3.24,1.09-.98,2.25-1.89,3.46-2.72,1.58-1.09,3.25-2.05,4.96-2.92Z" fill="#282828"/><path d="M250.7,302.54c-.32.1-.64.19-.97.28.32-.09.65-.18.97-.28Z" fill="#282828"/><path d="M296.4,263.82c-1.7-1.42-3.58-2.63-5.5-3.6-.15-.08-.31-.15-.46-.23.04,1.83.1,3.66.18,5.48,1.92-.59,3.84-1.14,5.78-1.66Z" fill="#282828"/><path d="M287.86,258.95c.28.09.56.18.84.29-.28-.1-.56-.2-.84-.29Z" fill="#282828"/><path d="M281.68,295.78c-.58.04-1.16.06-1.75.06.59,0,1.17-.02,1.75-.06Z" fill="#282828"/><path d="M277.83,294.83c-.9-2.95-1.74-5.92-2.49-8.92-3.06.93-6.1,1.96-9.1,3.1-.69.26-1.38.53-2.07.8-.15.06-.39.11-.52.21-.22.18-.17-.09-.15.29.01.3.16.64.24.93.35,1.33.73,2.66,1.16,3.97.1.31.21.62.32.93-.23.06-.45.12-.68.19-.5.15-1,.33-1.48.52.49-.19.98-.36,1.48-.52,4.78-1.47,10.25-.45,15.38-.48-.59,0-1.18,0-1.78-.02-.1-.33-.21-.66-.31-.99Z" fill="#282828"/><path d="M260.27,291.44c-2.23.98-4.42,2.01-6.57,3.15-.96.51-1.9,1.03-2.84,1.57-.47.27-.93.54-1.4.82-.31.19-.26.24-.17.59.07.24.13.49.2.73.3,1.04.63,2.07,1,3.08.13.36.28.72.42,1.08.37-.12.74-.23,1.1-.38,3.62-1.43,6.89-3.57,10.48-5.03-.18.07-.36.14-.53.21-.66-1.92-1.22-3.86-1.71-5.83Z" fill="#282828"/><path d="M274.45,282.13c-.05-.21-.09-.41-.13-.62-.08-.38-.16-.76-.24-1.13-.34-1.65-.63-3.3-.91-4.96-2.91,1.2-5.81,2.44-8.69,3.72-.75.33-1.49.66-2.24,1-.14.06-.41.12-.51.23-.13.14-.07.27-.04.48.06.4.11.79.17,1.19.24,1.55.5,3.1.81,4.64,3.07-1.23,6.18-2.34,9.33-3.35.42-.13.84-.27,1.26-.4.3-.09.8-.15,1.05-.32.22,0,.28-.08.17-.27-.02-.07-.03-.14-.05-.21Z" fill="#282828"/><path d="M288.81,282.48c-1.75.36-3.49.75-5.23,1.17-.83.2-1.66.41-2.49.63-.4.1-.79.21-1.19.32-.29.08-.57.16-.86.24-.08.02-.4.08-.43.12-.09.12.28,1.11.32,1.29.09.36.18.72.28,1.07.19.72.38,1.43.58,2.14.42,1.5.85,2.99,1.31,4.47.19.62.38,1.23.58,1.85,3.26-.21,6.32-1.04,8.93-3.43,0,0,0,0-.01.01-.69-3.27-1.29-6.57-1.78-9.88Z" fill="#282828"/><path d="M299.41,280.62s0,0,0,0c.41-.64.82-1.31,1.21-1.99-.39.68-.81,1.35-1.21,1.99,0,0,0,0,0,0Z" fill="#282828"/><path d="M288.14,277.36c-.07-.57-.13-1.15-.19-1.72-.19-1.86-.35-3.72-.49-5.58-3.05,1.02-6.07,2.12-9.07,3.28-.38.15-.76.29-1.14.44-.18.07-.46.14-.62.24-.22.15-.2.1-.16.41.12.77.24,1.54.37,2.31.28,1.63.62,3.24.97,4.85,2.31-.63,4.63-1.22,6.96-1.75.61-.14,1.22-.27,1.83-.41.29-.06.58-.12.86-.18.14-.03.79-.07.87-.18.08-.11-.09-.71-.11-.86-.04-.29-.07-.57-.1-.86Z" fill="#282828"/><path d="M292.58,281.77c-.14.02-.29.05-.43.08.02.15.04.29.06.44.03.18.05.37.08.55.06.4.12.8.18,1.2.13.8.26,1.6.4,2.41.16.9.32,1.8.5,2.7.69-.93,1.36-1.89,2.05-2.81,1.35-1.81,2.67-3.65,3.88-5.56-.63.17-1.37.2-1.95.27-1.59.2-3.18.45-4.77.72Z" fill="#282828"/><path d="M259.39,287.48c-.38-1.86-.7-3.73-.98-5.61-2.85,1.3-5.69,2.61-8.56,3.87-.36.16-.73.32-1.09.48-.34.15-.79.27-1.09.49-.21.15-.2.12-.17.42.02.18.03.37.05.55.04.4.08.8.13,1.2.18,1.57.4,3.13.7,4.68,2.06-1.2,4.16-2.31,6.3-3.36.89-.43,1.79-.86,2.7-1.27.44-.2.87-.39,1.31-.59.17-.08.46-.14.61-.27.22-.01.27-.11.16-.3-.02-.1-.04-.21-.06-.31Z" fill="#282828"/><path d="M245.94,273.62c.24-.2.49-.39.73-.59-.25.19-.49.39-.73.59Z" fill="#282828"/><path d="M233.09,291.49c-.35.9-.68,1.8-.98,2.72,0,0,0,0,0,0,.3-.92.62-1.82.97-2.72Z" fill="#282828"/><path d="M300.63,268.54c-.43-.67-.92-1.3-1.43-1.92-.29.07-.58.14-.87.22-1.87.48-3.74,1-5.59,1.55-.46.14-.93.28-1.39.42-.11.03-.21.07-.32.1-.22,0-.28.09-.2.29-.04.19.03.47.05.66.07.96.14,1.91.23,2.87.17,1.91.37,3.82.6,5.73,1.89-.33,3.78-.61,5.68-.85.72-.09,1.62-.36,2.3-.05.45.2.79.6.94,1.06.74-1.3,1.39-2.68,1.65-4.13.38-2.09-.53-4.23-1.64-5.95Z" fill="#282828"/><path d="M257.15,266.41c.46-.24.92-.46,1.38-.69-.46.23-.92.46-1.38.69Z" fill="#282828"/><path d="M238.4,305.48c-.08.09-.16.17-.24.26,0,0,0,0,0,0,.14-.08.28-.16.42-.24,2.07-1.05,4.46-1.36,6.72-1.75.8-.14,1.61-.29,2.41-.45-.53-1.41-.99-2.87-1.39-4.31-2.83,1.92-5.53,4.03-7.91,6.49Z" fill="#282828"/><path d="M232.11,294.21s-.04.04-.04.13c.01-.04.03-.09.05-.13,0,0,0,0,0,0Z" fill="#282828"/><path d="M232.6,308.7c-.8-1.32.53-2.56,1.32-3.5.9-1.08,1.86-2.1,2.87-3.08,2.1-2.03,4.4-3.85,6.8-5.51.36-.25.73-.5,1.1-.74.12-.08.25-.16.37-.24s.25-.16.37-.24c-.02-.07-.03-.14-.05-.21.02-.3-.16-.76-.22-1.06-.07-.36-.14-.71-.2-1.07-.28-1.57-.5-3.15-.67-4.74-2,1-3.95,2.09-5.8,3.36-.93.64-1.86,1.32-2.7,2.07-.69.61-1.4,1.68-2.37,1.83-.67.1-1.16-1.33-1.3-1.34-.01.04-.03.09-.05.13.36-8.34,1.5-16.51,4.1-24.47,2.5-7.65,6.01-14.93,10.58-21.56,2.28-3.31,4.81-6.44,7.53-9.41.17-.19.34-.37.51-.55.22-.23.26-.37.58-.35.48.03.99.24,1.45.35.97.23,1.94.47,2.92.62,2.06.32,4,.07,5.97-.56,3.68-1.18,7.17-3.01,10.33-5.22,3.15-2.2,6.2-4.89,8.09-8.28,1.9-3.42,3.11-7.38,3.02-11.31-.09-4-1.56-7.78-3.95-10.96-.57-.75-1.17-1.47-1.82-2.15,2.23.02,5.86.14,7.14-2.14.59-1.05.5-2.57-.29-3.49-.83-.99-2.19-1.12-3.38-.92.37-.56.85-1.37.85-2.06,0-.67-.48-1.3-1.13-1.44-.66-.14-1.41.2-1.99.48-.7.33-1.35.78-1.94,1.28.12-1.48-.09-2.98-.64-4.36-.24-.61-.49-1.21-1.19-1.36-.68-.15-1.24.24-1.72.67-2.1,1.9-2.83,5.47-2.39,8.16-2.03-1.04-4.32-1.65-6.59-1.21-2.23.44-4.37,1.59-6.25,2.82-3.71,2.41-7.11,5.51-9.8,9.03-2.72,3.57-4.35,7.86-4.64,12.34-.31,4.79.85,9.52,2.84,13.86.51,1.1,1.07,2.16,1.68,3.21.14.24.29.49.44.73.08.13.4.47.4.62,0,.12-.45.5-.55.61-.21.23-.41.46-.61.69-1.51,1.72-2.97,3.48-4.36,5.3-2.77,3.61-5.28,7.43-7.45,11.44-4.46,8.26-7.69,17.36-9.17,26.63-.79,4.94-1.16,9.92-1.34,14.91-.09,2.45-.11,4.9-.17,7.34-.06,2.44-.14,4.89-.02,7.33.06,1.14.16,2.28.31,3.42-5.22-8.18-9.77-16.95-12.17-26.39-1.21-4.76-1.9-9.65-1.91-14.56,0-5.03.8-9.97,1.99-14.84,1.18-4.8,2.03-9.65,2.77-14.53.18-1.21.36-2.42.54-3.63.09-.62.19-1.25.28-1.87.03-.21,0-.65.12-.82.11-.17.54-.23.72-.32,2.13-.96,4.39-1.59,6.56-2.45,2.09-.83,4.13-1.89,5.65-3.59,1.54-1.73,2.25-3.97,2.73-6.19,1.04-4.82,1.2-9.87,1.02-14.78-.17-4.63-1.33-9.28-3.68-13.3-1.11-1.89-2.53-3.61-4.34-4.86-1.9-1.31-4.24-1.82-6.5-2.06-1.19-.13-2.38-.15-3.58-.05.97-1.19,1.81-2.5,2.48-3.87.59-1.22,1.16-2.64,1-4.02-.15-1.34-1.17-2.32-2.49-2.5-1.46-.2-2.73.57-3.65,1.66-.17-1.07-.51-2.2-1.34-2.95-.77-.69-1.96-1-2.96-.67-2.27.75-2.23,4.04-2.12,5.95-.99-1.15-2.51-2.89-4.21-2.77-1.89.13-2.2,2.19-2,3.7.25,1.8.87,3.5,1.68,5.12.79,1.57,1.87,3.18,3.36,4.16-3.58,2.53-6.5,5.91-8.74,9.67-1.11,1.86-2.06,3.86-2.61,5.97-.59,2.24-.54,4.39.1,6.61,1.18,4.11,3.4,8,5.63,11.62,2.1,3.41,4.8,6.68,8.18,8.88,1.83,1.19,3.98,2.1,6.2,1.97-.72,4.78-1.39,9.58-2.35,14.32-.96,4.73-2.27,9.35-2.8,14.16-1.05,9.43.4,18.98,3.61,27.87,1.56,4.32,3.51,8.49,5.67,12.55,1.12,2.11,2.31,4.18,3.58,6.2,1.18,1.88,2.42,3.72,3.44,5.68.26.49.5.99.72,1.5.17.39.28.83.61,1.12.78.67,2,.2,2.21-.78.04-.18.04-.36,0-.55-.04-.17-.16-4.55-.12-4.71.14-.48-.09-1-.15-1.48-.07-.57-.02-1.14.09-1.71.2-1.07.69-2.14,1.3-3.04.05-.08.12-.16.17-.24-.59.03-1.19-.24-1.55-.83ZM286,196.6c.2.04.15.16.14.35-.06-.13-.14-.25-.24-.35h.1ZM280.59,213.69c.71-3.15.77-6.41.33-9.61.95,1.19,1.73,2.55,2.34,3.94,2.14,5.3,1.17,11.38-1.83,16.17-1.37,2.19-3.31,4.03-5.34,5.61-2.11,1.65-4.44,3.06-6.84,4.24-2.74,1.34-5.71,2.63-8.83,2.31,4.87-1.23,9.05-4.47,12.34-8.16,3.65-4.1,6.61-9.1,7.83-14.49ZM277.41,192.79c.1-.62.25-1.23.46-1.82.05,1.27-.17,2.49-.48,3.72-.11-.61-.05-1.29.02-1.9ZM277.84,202.29c.15.75.28,1.5.39,2.26.32,2.61.34,5.29-.19,7.88-.5,2.43-1.35,4.74-2.51,6.93-2.2,4.18-5.3,8.13-9.12,10.95-2.23,1.64-4.69,2.94-7.42,3.5,1.62-1.96,3.16-3.99,4.68-6.03,1.5-2.01,2.97-4.03,4.18-6.24,2.24-4.1,3.87-8.49,5.94-12.67,1.14-2.3,2.41-4.59,4.04-6.59ZM268.44,214c-1.01,2.28-2.06,4.55-3.29,6.72-1.22,2.15-2.71,4.13-4.2,6.1-1.71,2.28-3.47,4.53-5.34,6.68.1-1.89.24-3.78.49-5.66.32-2.27.81-4.52,1.53-6.7.34-1.05.77-2.07,1.1-3.13.36-1.14.61-2.32.92-3.48.6-2.23,1.44-4.17,3.11-5.81,1.57-1.55,3.42-2.78,5.34-3.87,2.23-1.27,4.57-2.35,6.92-3.37-2.8,3.83-4.65,8.23-6.57,12.53ZM252.3,230c-2.5-6.01-3.17-12.92-.21-18.9,1.39-2.81,3.37-5.15,5.61-7.32,2.25-2.18,4.74-4.18,7.51-5.65,1.49-.78,3.12-1.52,4.84-1.44,1.76.08,3.42.96,4.86,1.89-5.02,2.2-10.42,4.43-14.32,8.43-1.84,1.89-2.89,4.15-3.58,6.67-.38,1.38-.68,2.78-1.14,4.14-.45,1.34-.99,2.63-1.38,3.99-.89,3.12-1.31,6.35-1.55,9.58-.22-.46-.44-.92-.64-1.39ZM223.42,192.9c1.73.26,3.42.65,4.88,1.64,1.33.9,2.37,2.22,3.2,3.57,1.75,2.84,2.82,6.13,3.3,9.42.25,1.7.26,3.44.27,5.16.01,1.78-.02,3.56-.13,5.33-.11,1.75-.29,3.49-.59,5.21-.28,1.61-.62,3.35-1.37,4.83-1.77,3.5-5.93,4.58-9.35,5.78,4.21-4.43,6.04-10.72,6.27-16.71.12-3.23-.18-6.47-.73-9.64-.28-1.6-.62-3.19-1-4.76-.37-1.5-.74-3.01-1.46-4.39-1.62-3.08-4.65-4.52-7.86-5.43,1.5-.23,3.07-.19,4.57,0ZM213.57,180.54c.21-.42,1.53,4.7,1.57,4.86-.19-.2-1.84-2.66-2.23-4.07.03-.14-.38-1.7.66-.79ZM208.9,189.23s.06.06.09.1c.9.9,1.63,1.91,2.7,2.64-1.23-.1-2.25-1.81-2.79-2.74ZM206.84,227.62c-2.06-3.09-3.95-6.44-5.34-9.89-.79-1.96-1.43-3.95-1.19-6.09.38-2.47,1.46-4.76,2.75-6.88,1.3-2.14,2.84-4.12,4.61-5.9-.6,2.36-.68,4.93-.64,7.36.04,2.55.33,5.08.67,7.61.35,2.54.77,5.06,1.16,7.59.36,2.37.72,4.76,1.5,7.04.84,2.46,2.17,4.68,4.04,6.5-3.08-1.66-5.62-4.46-7.54-7.34ZM217.72,234.17c-1.4-1.07-2.62-2.39-3.52-3.91-.98-1.67-1.54-3.51-1.94-5.4-.41-1.93-.68-3.88-.97-5.83-.31-2.03-.65-4.06-.93-6.1-.44-3.38-.71-6.8-.45-10.21.11-1.5.22-3.24,1.01-4.56.79-1.31,2.34-2.03,3.5-2.96.74,2.38,1.65,4.71,2.36,7.11.74,2.49,1.12,4.97,1.11,7.57,0,5.27-1.1,10.45-1.21,15.71-.06,2.89.21,5.79,1.03,8.57ZM217.33,195.35c2.58.69,5.32,1.55,6.75,3.98.71,1.2,1.03,2.58,1.36,3.93.36,1.43.67,2.88.94,4.33,1.04,5.73,1.26,11.82-.67,17.39-.98,2.83-2.6,5.7-4.86,7.71-.25.22-.38.54-.4.87-2.98-9.88,1.85-20.16-.52-30.13-.66-2.76-1.72-5.39-2.6-8.08Z" fill="#282828"/></svg>