<?xml version="1.0" encoding="UTF-8"?><svg id="Layer_1" xmlns="http://www.w3.org/2000/svg" viewBox="0 0 500 500"><path d="M201.99,241.71c.46,2.29,1.42,4.52,2.75,6.44.38-2.02,1.3-4.01,2.65-5.56-.5-.17-1-.31-1.5-.44-1.28-.27-2.59-.42-3.89-.44Z" fill="#282828"/><path d="M261.91,250.73c-1.3,1.14-2.52,2.39-3.52,3.8-.25.35-.4.72-.63,1.08-.23.34-.47.66-.68,1.01-.4.67-.75,1.38-1.04,2.1,1.92-.02,3.83-.1,5.74-.33,1.04-.14,2.08-.32,3.11-.54-2.07-1.68-3.23-4.47-2.98-7.12Z" fill="#282828"/><path d="M278.42,243.73c-1.87.26-3.72.65-5.53,1.18,2.66,2.17,2.7,6.51,1.67,9.52,4.86-2.56,9.07-6.26,12.24-10.74-2.78-.31-5.6-.28-8.38.05Z" fill="#282828"/><path d="M218.32,249.09c-.4-.35-.8-.69-1.21-1.03-.23,2.79-1.89,5.75-4.24,7.29,1.7.85,3.53,1.58,5.39,1.95,1.97.38,3.9.41,5.89.28-1.16-3.32-3.29-6.11-5.84-8.5Z" fill="#282828"/><path d="M306.76,198.89c-.24-1.7-.76-5.59-3.37-4.25-2.09,1.07-4.02,2.42-5.86,3.87-3.75,2.96-7.1,6.38-10.22,9.99-1.57,1.82-3.08,3.69-4.53,5.6-.73.96-1.44,1.93-2.14,2.9-.24.34-.25.34-.66.22-.31-.09-.62-.18-.93-.27-.58-.17-1.17-.33-1.76-.49-4.73-1.27-9.55-2.18-14.42-2.73-9.96-1.13-20.2-.84-29.89,1.89-2.32.65-4.58,1.49-6.78,2.47.22-3.97.96-7.89,1.55-11.81.29-1.94.55-3.88.72-5.83.09-.99.15-1.99.17-2.98.02-.82.19-1.82-.35-2.51-1.17-1.49-3.23-.23-4.55.38-1.7.79-3.33,1.74-4.86,2.82-3.02,2.14-5.68,4.78-8.01,7.64-4.73,5.81-8.24,12.55-11,19.49-2.94,7.4-5.15,15.15-6.28,23.04-1.15,8.02-.78,16.23,1.33,24.06.26.97,2.31,7.57,3.35,9.77,1.03,2.18,2.38,4.08,3.8,6.01,2.4,3.26,5.22,6.22,8.4,8.74,3.2,2.53,6.76,4.6,10.59,6.01,4.36,1.61,11.34,2.89,15.97,2.82,10.05-.16,17.1-1.1,26.88-5.56,9.52-4.34,18.63-14.3,21.46-17.75,5.76-7.04,9.27-15.54,11.95-24.15,2.98-9.59,5.25-19.41,6.74-29.34.76-5.07,1.12-10.17,1.78-15.25.63-4.88,1.59-9.87.88-14.79ZM208.63,219.42c.56-1.61,1.28-3.16,2.16-4.62,1.63-2.74,3.79-5.16,6-7.44.94-.97,2.15-2.55,3.63-1.5.51.36.79.97.75,1.58-.04.65-.41,1.07-.84,1.5-2.35,2.32-4.57,4.76-6.28,7.6-.84,1.39-1.52,2.83-2.02,4.37-.22.67-.31,1.41-.87,1.89-.47.4-1.12.56-1.71.39-.69-.19-1.22-.8-1.33-1.52-.11-.75.27-1.57.51-2.26ZM225.49,261.19c-.7,0-1.39.05-2.09.1-5.78.37-11.65-1.66-16.2-5.22-4.79-3.77-8.67-9.39-9.15-15.61-.1-1.32.74-2.22,2.02-2.32,1.5-.12,3.02-.13,4.52.07,2.9.38,5.65,1.39,8.25,2.71,4.62,2.33,8.9,5.67,11.92,9.92,1.46,2.05,2.6,4.34,3.22,6.78.29,1.12.67,2.49-.48,3.27-.59.4-1.34.31-2.02.31ZM244.41,271.31c-.81.76-1.79,1.41-2.66,2.09-.86.67-3.72,1.84-3.87,2.03-.23.29-.15,2.06-.09,2.44.16,1,.38,1.98.59,2.97.18.79.44,1.59,0,2.35-.39.68-1.17,1.03-1.94.88-1-.19-1.43-1.33-1.6-2.24-.37-1.98-.66-3.06-.71-5.08,0-.24-.08-1.17-.16-1.39-.06-.17-.13-.16-.34-.24-.38-.16-2.44-1.26-3.48-2.08-.64-.5-1.56-1.27-2.03-2.01-.46-.73-.55-1.22-.24-1.97.29-.71,1.19-.81,1.95-.83,1.02-.02,2.03.02,3.05-.03,2.04-.09,4.07-.27,6.1-.31,1.02-.02,2.03,0,3.05.09.91.08,1.68.1,2.41.68.69.72.69,1.93-.04,2.62ZM247.61,238.09c-.25.07-.5.14-.75.22-.32.09-.24.02-.31.32-.09.36.05.97.08,1.34.03.45.05.89.07,1.34.04.85.06,1.71.05,2.56-.01.65-.04,1.27-.5,1.78-.42.47-1.07.68-1.68.56-.74-.14-1.12-.66-1.48-1.27-.4-.69-.8-1.38-1.21-2.07-.41-.69-.82-1.37-1.25-2.05-.19-.31-.39-.61-.59-.91-.04-.07-.3-.54-.36-.54-.04,0-.29.2-.36.24-1.23.82-5.95,3.39-6.24,3.39-.27,0-.53.13-.82.11-1.26-.12-2.07-1.51-1.5-2.65.31-.62.88-1.12,1.31-1.65.45-.56.89-1.14,1.32-1.72.26-.35.52-.7.77-1.05.08-.11.66-.76.64-.88-.02-.12-.68-.52-.78-.6-.28-.22-3.09-2.63-4.22-3.6-.51-.44-.94-.83-.99-1.54-.04-.54.16-1.08.56-1.46.93-.88,2.65-.5,3.78-.34,1.45.21,2.86.58,4.27.98.4.12,1.5.47,1.61.47.17,0,.2.03.21.04,0-.01.02-.05.13-.15.46-.42.82-1.02,1.22-1.5.87-1.04,1.78-2.05,2.76-2.98.98-.94,2.02-1.8,3.14-2.55,1.02-.68,2.34-1.49,3.4-.39.56.58.55,1.26.42,2-.13.7-.26,1.4-.42,2.1-.33,1.46-.73,2.9-1.22,4.31,1.94-.2,3.91-.27,5.85-.07.86.09,1.72.22,2.54.48.71.23,1.52.47,1.89,1.17.93,1.73-.91,2.7-2.18,3.36-1.69.87-3.47,1.55-5.28,2.11-.86.26-1.72.51-2.58.76-.43.12-.86.24-1.29.37ZM290.6,244.62c-1.81,2.7-3.9,5.23-6.31,7.42-5.67,5.15-12.72,8.47-20.26,9.73-1.76.29-3.54.49-5.33.59-.9.05-4.36.03-5.14.22-1.3.31-2.61-.48-2.47-1.95.14-1.48.99-3.05,1.74-4.31,1.72-2.88,3.58-5.65,6.09-7.92,2.36-2.13,5.06-3.88,7.95-5.19,6.31-2.86,13.43-3.99,20.31-3.17.93.11,1.86.26,2.77.45.6.12,1.11.28,1.45.83.77,1.21-.15,2.31-.81,3.31ZM298.67,207.66c-.46.64-1.14,1.16-1.67,1.75-.58.64-1.13,1.3-1.66,1.98-1.88,2.39-3.46,5.02-4.98,7.67-.38.66-.73,1.35-1.14,1.99-.35.54-.93.83-1.66.67-.63-.14-1.17-.59-1.46-1.18-.31-.63-.19-1.14.1-1.65,1.51-2.65,3.02-5.29,4.76-7.78.85-1.22,1.75-2.4,2.71-3.53.47-.55.96-1.09,1.46-1.62.47-.48.91-1.07,1.69-1.11,1.44-.07,2.62,1.72,1.84,2.81Z" fill="#282828"/></svg>