<?xml version="1.0" encoding="UTF-8"?><svg id="Layer_1" xmlns="http://www.w3.org/2000/svg" viewBox="0 0 500 500"><path d="M195.07,251.19c1.28.44,2.17,1.81,2.72,2.98.62,1.29.96,2.87.41,4.25,1.67-1.08,2.92-2.82,4.02-4.44,1.19-1.76,2.25-3.6,3.39-5.39-1.84.2-3.67.54-5.46.99-1.69.42-3.5.86-5.08,1.62Z" fill="#282828"/><path d="M195.45,255.28c.2.44.43.86.7,1.26-.04-.84-.56-1.73-1.03-2.39.08.39.19.77.33,1.14Z" fill="#282828"/><path d="M190.69,255.95c-.66,1.2-1.24,2.44-1.8,3.69,1.52-.06,3.04-.02,4.56-.09-1.19-.93-2.14-2.23-2.76-3.59Z" fill="#282828"/><path d="M351.6,223.79c-.14-.6-.36-1.21-.77-1.68-.4-.47-1.08-.71-1.67-.82-2.8-.51-5.56,1.44-7.61,3.1-2.49,2.02-4.68,4.47-6.43,7.16-2.57-3.88-6.17-7.14-10.18-9.48-4.15-2.42-9-3.71-13.75-4.23-9.93-1.08-20,1.27-29.14,5.05-8.61,3.57-16.32,8.8-23.83,14.25-3.76,2.73-7.49,5.51-11.32,8.15-2,1.38-4.02,2.72-6.09,3.99-1.04.64-6.02,3.12-6.34,3.21-1.16.36-2.28.91-3.43,1.32-1.15.41-2.33.79-3.52,1.05-2.3.5-4.9.65-6.77-1.03-1.79-1.6-2.31-4.15-2.93-6.36-.63-2.22-1.31-4.5-2.7-6.39-.62-.84-1.38-1.59-2.25-2.18,5.24-2.81,10.46-5.66,15.52-8.79,4.95-3.06,9.77-6.35,14.42-9.86,4.63-3.49,9.09-7.21,13.33-11.17,4.16-3.88,8.09-8,11.67-12.41,3.56-4.39,6.9-9.08,9.31-14.21,1.22-2.6,2.23-5.37,2.58-8.23.07-.59.14-1.24-.43-1.61-.57-.37-1.27-.04-1.84.14-1.33.41-2.64.88-3.93,1.38-5.31,2.07-10.36,4.79-15.22,7.76-4.94,3.03-9.69,6.38-14.2,10.02-4.64,3.74-9.08,7.74-13.43,11.81-4.3,4.04-8.48,8.21-12.54,12.5-1.01,1.07-2.02,2.15-3.02,3.23,2.5-3.57,4.82-7.24,7.18-10.9-.05.08-.1.16-.16.24,5.26-8.12,10.85-16.06,15.42-24.6,1.12-2.09,2.17-4.22,3.13-6.4.46-1.04.89-2.09,1.29-3.15.21-.56.42-1.12.61-1.69.17-.5.51-1.11.39-1.65-.1-.46-.49-.8-.96-.85-.52-.05-1.1.28-1.56.49-1.09.51-2.16,1.04-3.25,1.55-2.13,1-4.17,2.2-6.13,3.5-7.67,5.11-14.31,11.9-19.84,19.25-2.88,3.83-5.47,7.88-7.63,12.16-2.21,4.37-4.25,8.86-5.89,13.48-1.61,4.54-2.95,9.32-3.01,14.17,0,.2.09.68,0,.84-.08.13-.52.33-.66.41-.5.32-1,.64-1.5.97-.93.62-1.84,1.25-2.74,1.91-1.84,1.34-3.61,2.78-5.29,4.33-.8.74-1.58,1.5-2.33,2.29-3.88,4.06-7.03,8.82-9.25,13.98-2.08,4.84-4.55,12.3,1.08,15.77,2.58,1.59,5.92,1.74,8.86,1.59,3.12-.15,6.22-.74,9.26-1.46,3.03-.72,5.96-1.67,8.92-2.6,1.6-.5,8.17-2.56,7.25,1.17-.04.16-.08.32-.15.47-.07.16-4.93,4.58-6.23,5.35-.67.39-3.92,2.57-3.99,2.67-.1.14-1.13.73-1.47.93-.68.4-1.37.8-2.06,1.19-2.74,1.55-5.49,3.08-8.18,4.72-2.67,1.63-5.31,3.31-7.92,5.01-5.26,3.42-10.4,7.02-15.37,10.85-2.45,1.88-4.87,3.8-7.18,5.85-2.22,1.98-4.48,4.05-6.18,6.51-.77,1.12-1.55,2.4-1.51,3.81.03,1.12.77,2.23,1.87,2.55,1.37.39,2.94-.33,4.17-.88,1.39-.63,2.72-1.39,4.03-2.18,5.37-3.22,10.4-6.99,15.43-10.72,1.24-.92,2.46-1.86,3.72-2.74,1.3-.91,2.65-1.75,3.97-2.61,2.64-1.71,5.28-3.43,7.97-5.07,2.64-1.61,5.33-3.17,8.1-4.55,1.38-.69,2.78-1.34,4.2-1.94.68-.29,1.37-.57,2.07-.83.66-.25,1.36-.64,2.08-.56.64.06,1.29.3,1.35,1.03.06.7-.37,1.44-.72,2.02-.75,1.22-1.8,2.28-2.8,3.29-2.2,2.2-4.43,4.37-6.67,6.53-2.27,2.19-4.55,4.36-6.81,6.56-2.26,2.2-4.55,4.38-6.69,6.7-2.04,2.22-4.06,4.62-5.53,7.26-.61,1.09-1.36,2.96.05,3.77,1.15.67,2.77-.14,3.83-.65,5.28-2.55,9.91-6.41,14.34-10.2,4.64-3.96,9.23-7.94,14.27-11.4,5.19-3.56,10.64-6.73,16.15-9.78,5.55-3.08,11.14-6.11,16.75-9.07,5.51-2.9,11.06-5.66,16.85-8.14,2.79-1.2,5.61-2.31,8.47-3.33-2.54,4.16-2.28,9.72.51,13.7,2.81,4.01,7.71,5.88,12.47,6.15,5.12.29,10.22-.96,15.04-2.56,4.93-1.63,9.67-3.74,14.43-5.8,2.68-1.16,5.38-2.25,8.11-3.27,2.72-1.02,5.45-2.18,8.3-2.77-.91,3.07-3.13,5.68-5.27,7.97-2.36,2.52-4.94,4.81-7.35,7.28-1.18,1.21-2.36,2.44-3.51,3.69-1.07,1.17-2.1,2.39-2.87,3.78-.67,1.23-1.06,2.89.26,3.84,1.28.92,3.28.58,4.71.26,3.2-.71,6.1-2.44,8.67-4.43,2.64-2.05,5-4.46,7.19-6.97,4.39-5.05,8.14-10.68,11.3-16.57.83-1.55,1.62-3.12,2.33-4.73.65-1.47,1.11-3.05,1.82-4.48.35-.71.58-1.42.78-2.18.1-.39.21-.77.3-1.16.1-.44.02-.63-.17-1.01-.16-.31-.24-.65-.45-.94-.21-.29-.51-.51-.82-.69-.66-.37-1.43-.48-2.18-.52-.83-.05-1.67-.04-2.5-.04.09,0,.19,0,.28,0-3.17-.02-6.31.17-9.47.44-3.27.27-6.55.55-9.83.34,3.9-2.69,7.43-5.93,10.42-9.6,2.9-3.56,5.45-7.7,6.48-12.22.08-.34.15-.68.21-1.03.05-.31.05-.66.15-.96.08-.24.01-.1.17-.24.15-.13.41-.22.6-.31.3-.15.6-.3.91-.45,1.05-.51,2.13-1.01,3.21-1.46,2.36-.96,4.83-1.87,6.68-3.69.97-.95,1.7-2.14,2.01-3.46.34-1.43.45-2.96.49-4.43.04-1.46,0-2.99-.32-4.42ZM176.05,274.09c-1.14-.51-2.09-1.25-2.67-2.37-.6-1.15-.64-2.52-.53-3.78,2.3,1.46,4.44,3.85,4.82,6.64-.55-.12-1.09-.28-1.61-.49ZM208.16,248.81c-.55.82-1.07,1.65-1.58,2.49-1.81,2.97-3.62,6.25-6.38,8.47-2.92,2.35-6.78,2.11-10.33,2.15-.93.01-1.84.08-2.76.16-.77.07-1.43-.58-1.29-1.36.05-.26.2-.39.32-.61.09-.16.15-.36.23-.53.18-.4.36-.8.54-1.19.36-.8.72-1.59,1.11-2.37,1.46-2.91,3.36-5.79,6.48-7.08.31-.83.96-1.59,1.5-2.28.29-.37.59-.73.88-1.09.21-.26.4-.61.7-.77.65-.36,1.49-.03,1.69.7.24.87-.69,1.63-1.17,2.24.25-.07.49-.14.74-.2.11-.03.22-.06.33-.09.2-.05.2-.05.28-.2.2-.35.33-.75.54-1.11.22-.38.46-.76.72-1.12.21-.3.42-.67.71-.9.65-.52,1.64-.15,1.83.66.17.77-.55,1.39-.93,1.99,1.06-.19,2.12-.35,3.19-.47.78-.09,2-.46,2.58.27.25.31.55.59.6,1.01.05.5-.26.84-.52,1.23ZM207.72,218.25c-.21.34-.42.68-.62,1.03-.09.16-1.15,2.13-1.29,2.42-.26.53-4.28,9.83-4.72,9.78-.57-.06.83-7.56,1.23-9.1.82-3.12,2.38-7.05,3.9-9.82,3.06-5.56,6.63-10.89,10.71-15.76,1.98-2.36,4.09-4.63,6.36-6.71.57-.52,1.15-1.03,1.74-1.53.31-.26.61-.51.93-.76.26-.21.53-.48.85-.59.62-.21,1.29.14,1.47.76.19.64-.28,1.37-.53,1.94-2.5,5.7-6.38,10.64-10.29,15.43-1.94,2.38-3.91,4.74-5.77,7.19-.94,1.23-1.85,2.49-2.71,3.77-.43.64-.85,1.29-1.26,1.95ZM208.99,233.93c-.07-.56,3.47-5.14,4.36-6.04,1.81-1.82,3.63-3.63,5.47-5.41,3.73-3.61,7.53-7.14,11.43-10.57,3.92-3.45,7.93-6.8,12.06-10.01,4.11-3.19,8.17-6.46,12.42-9.45,2.07-1.46,4.2-2.85,6.41-4.1,1.08-.61,2.18-1.19,3.3-1.72.51-.24,1.19-.69,1.78-.63.46.05.84.37.97.82.17.59-.13.95-.49,1.36-.39.44-.79.88-1.2,1.32-.86.93-1.74,1.84-2.64,2.73-1.78,1.77-3.62,3.46-5.51,5.11-7.89,6.85-16.55,12.73-24.7,19.26-4.11,3.29-9.46,6.94-13.51,10.3-1.99,1.65-10.07,7.57-10.14,7.03ZM310.37,259.38c-.39.73-1.59.81-2.3,1-.5.14-1.04.25-1.51.48-.44.21-.67.54-.89.97-.24.47-.41.97-.58,1.46-.13.38-.21.82-.51,1.11-.56.55-1.5.35-1.79-.37-.19-.46-.13-1.04-.1-1.52.03-.53.09-1.05.17-1.57-1.03.23-2.08.18-3.1-.08-.79-.2-1.08-1.23-.55-1.83.32-.37.76-.38,1.21-.43.57-.06,1.14-.13,1.72-.19-.41-.61-.81-1.22-1.16-1.87-.3-.56-.65-1.18-.24-1.78.92-1.33,2.55.25,3.23,1.01.49-.96,1.29-1.69,2.32-2.02.98-.32,1.84.53,1.5,1.51-.31.88-.87,1.77-.93,2.71-.02.24-.03.21.14.26.11.04.32,0,.44-.01.21-.02.42-.05.62-.1.44-.1.91-.33,1.37-.32.8,0,1.34.89.96,1.6ZM311.04,232.75c-.54.23-1.68.55-1.84,1.2-.18.76.1,1.71.2,2.47.11.78.25,1.65.04,2.44-.18.67-.97,1.02-1.59.7-.64-.32-.7-1.13-.84-1.76-.18-.83-.33-1.66-.59-2.47-.81.8-1.57,1.67-2.21,2.62-.46.68-.75,1.77-1.76,1.66-.42-.04-.78-.32-.93-.71-.2-.51.05-.96.3-1.4.53-.94,1.2-1.79,1.91-2.61-1.32-.11-2.59-.62-3.44-1.68-.51-.51-.38-1.4.26-1.74.65-.34,1.6-.18,2.27,0,.75.2,1.45.55,2.2.76.22.06.59.21.79.07.26-.17.36-.83.43-1.1.21-.77.33-1.55.5-2.33.12-.54.26-1.34.77-1.67.6-.39,1.42-.14,1.68.53.15.39.02.81-.04,1.21-.07.44-.14.89-.2,1.33.05-.36-.04.24-.04.31-.03.2-.05.39-.07.59.89-.38,1.76-.82,2.63-1.24.72-.34,1.69-.7,2.12.26.64,1.43-1.64,2.16-2.57,2.55ZM326.68,240c-.51.61-1.35.36-2.03.28-.37-.05-.75-.11-1.12-.16-.1-.01-.52-.11-.6-.04-.09.08-.07.47-.08.58-.03.46-.03.91-.02,1.37,0,.34.08.72-.04,1.04-.2.58-.86.91-1.44.72-.74-.24-.81-.95-.89-1.62-.1-.86-.07-1.72.04-2.59-.68.12-1.69.54-2.34.17-.66-.38-.72-1.25-.23-1.79.57-.63,1.39-1.03,2.21-1.2-.23-.73-.48-1.51-.61-2.26-.09-.56.21-1.13.76-1.31.59-.19,1.34-.23,1.72.35.17.25.23.56.34.84.14.33.31.65.5.95.34-.37.75-.95,1.25-1.12.43-.15.92,0,1.2.35.74.93-.46,2.14-1.06,2.79.93.32,3.68,1.18,2.44,2.66Z" fill="#282828"/></svg>