<?xml version="1.0" encoding="UTF-8"?><svg id="Layer_1" xmlns="http://www.w3.org/2000/svg" viewBox="0 0 500 500"><path d="M289.43,262.16c-2.44-3.22-5.68-5.8-9.38-7.44-3.75-1.67-7.86-2.36-11.94-2.35-2.46,0-4.91.26-7.33.69.88-.43,1.67-1.16,2.37-1.83.82-.78,1.56-1.62,2.22-2.54,1.39-1.96,2.44-4.15,3.31-6.37,1.56-3.99,2.61-8.17,3.96-12.24.72-2.15,1.32-4.34,1.61-6.59.16-1.25.22-2.51.19-3.76-.02-.62-.06-1.24-.12-1.85-.07-.69-.02-1.37-.02-2.06.01-4.92-1.89-9.44-3.99-13.81-1.96-4.07-4.28-8.1-5.41-12.51-.51-1.98-.77-4.06-1.13-6.07-.21-1.17-.42-2.35-.63-3.52-.89-5-1.65-10.13-3.15-14.99-.31-1-.74-1.89-1.29-2.76-.55-.88-1.98-.84-2.46.09-.23.44-.31,1.01-.45,1.49-.14.51-.29,1.02-.42,1.52-.27,1-.53,2.01-.77,3.02-2.16,8.98-3.24,18.19-3.7,27.4-.06,1.28-.12,2.55-.16,3.83-.33-6.33-.68-12.67-1.34-18.98-.41-3.97-.87-8-1.7-11.91-.15-.73-.66-1.34-1.46-1.34-1.02,0-1.34.83-1.62,1.64-.69,1.96-1.28,3.95-1.79,5.97-1.07,4.22-1.77,8.52-2.34,12.83-.37-4.25-.75-8.52-.73-12.79,0-2.03-.32-4.48-.13-6.5.08-.84-.05-2.9-1.63-2.85-.93.03-1.75,1.34-1.8,2.16-.06,1.06-.14,2.13-.24,3.19-.2,2.16-.47,4.32-.82,6.46-.68,4.18-1.67,8.3-2.97,12.33-2.58,7.98-6.32,15.41-10.22,22.81-1.98,3.75-3.94,7.59-4.75,11.79-.77,3.96-.2,8,1.44,11.67,3.23,7.24,9.9,12.58,16.92,15.92.98.47,1.97.9,2.98,1.29-3.31-.48-6.83.3-9.89,1.56-3.22,1.33-6.18,3.32-8.74,5.68-2.5,2.31-4.43,4.97-5.82,8.09-1.43,3.22-2.25,6.67-3.03,10.1-.8,3.49-1.48,7.02-2.63,10.42-.23.69-.55,1.36-.76,2.06-.11.36-.07.65.02,1.01.06.24.08.24.01.5-.05.19-.07.39-.04.59.1.7.7,1.23,1.4,1.27.87.05,1.26-.55,1.64-1.22,3.32-5.83,4.84-12.47,7.87-18.43,1.44-2.84,3.4-5.88,6.26-7.47,2.96-1.64,6.45-2.07,9.67-3,.75-.21,1.49-.44,2.22-.72-2.13,4.02-3.54,8.42-4.72,12.8-1.24,4.62-2.32,9.39-2.69,14.17-.07.91-.31,2.11.56,2.72.42.29.97.34,1.44.14.55-.23.74-.66.89-1.2.64-2.34,1.3-4.69,2-7.01,1.34-4.44,2.85-8.85,4.82-13.05,2.03-4.34,4.57-8.66,8.17-11.9.96,11.15-4.24,21.86-2.87,33.04.63,5.15,2.77,10.14,4.8,14.87,2.13,4.97,4.47,9.86,6.47,14.88,1,2.51,1.93,5.06,2.67,7.66.38,1.35.71,2.71.99,4.09.13.63.25,1.26.35,1.89.09.54.15,1.04.59,1.41.88.75,2.3.2,2.42-.96.06-.59-.16-1.28-.28-1.86-.14-.7-.29-1.4-.45-2.1-.61-2.61-1.39-5.17-2.28-7.7-1.74-4.91-3.91-9.64-6.03-14.39-2.1-4.71-4.35-9.53-5.66-14.53-2.81-10.77,1.93-21.38,2.31-32.14.05-1.4.03-2.8-.08-4.19,1.72,1.29,3.27,2.86,4.28,4.77,1.05,2,1.59,4.16,1.97,6.37.73,4.34,1.08,8.69,2.49,12.89.42,1.25,1.16,4.53,3.14,3.49,1.02-.53.75-1.65.75-2.59,0-1.08.09-2.16.22-3.23.55-4.39,2.03-8.74.76-13.14-1.36-4.7-5.02-8.45-8.87-11.27.75-.23,1.57-.59,2.36-.69.81-.1,1.72.03,2.54.06,1.49.05,2.99.14,4.47.3,3.09.32,6.09.81,8.8,2.41,5.27,3.1,9.61,8.71,16.12,9.14.71.05,1.82.18,2.47-.16.68-.35.94-1.19.66-1.87-.67-1.62-1.8-3.2-2.85-4.6ZM255.95,252.13c-3.61.97-7.42.74-11.04-.02-3.81-.8-7.56-2.31-10.92-4.27-6.35-3.7-12.59-9.52-13.95-17.05-.19-1.05-.31-2.12-.27-3.18,0-.26.03-.53.05-.79,0-.07,0-.25.03-.31.1-.17.02-.05.23-.1.48-.13.89-.23,1.17-.7.23-.39.32-.91.47-1.34.18-.51.39-1,.61-1.49.45-.98.97-1.92,1.55-2.83-.68,1.6,1.62,2.83,2.56,1.41.37-.55.68-1.15,1-1.73.1-.18.21-.5.35-.64.1-.1.3-.13.41-.24.31-.28.5-.71.7-1.07,1.83-3.14,3.13-6.57,3.93-10.11.23-.99.31-2.05.66-3,.32-.88.56-1.95,1.2-2.64.99,3.86.88,7.9.53,11.84-.29,3.23-.77,6.43-1.2,9.64-.57,4.23-1.1,8.5-.86,12.78.05.83.21,1.62,1.14,1.83.76.18,1.49-.33,1.68-1.06.26-.95.31-2.02.44-3,.14-1,.28-2.01.42-3.02.54-4,1.02-8,1.39-12.02.1.98.19,1.97.27,2.95.06.8-.04,1.7.71,2.2.65.44,1.56.31,2.02-.34.5-.7.49-1.91.62-2.74.63-4.03,1.06-8.09,1.64-12.13.33-2.3.7-4.6,1.19-6.87.42,1.62.87,3.24,1.43,4.82.39,1.1.88,3.33,2.5,2.9.23,2.77.51,5.54.86,8.3.16,1.25.33,2.49.52,3.73.09.6.19,1.2.29,1.8.09.53.11,1.15.48,1.59.16.19.38.34.61.43.09.03.21.04.3.07.21.09.18.09.34.28.42.5,1.13.66,1.72.41.48-.21.74-.61.87-1.1.19-.72.3-1.46.44-2.19.54-2.73,1.01-5.48,1.4-8.24.43-3.11.79-6.23,1.08-9.36,1.11,1.36,1.99,2.87,2.68,4.49.17.41.33.82.48,1.24.14.4.23.82.54,1.13.53.52,1.42.55,1.96.04.55-.52.56-1.41.65-2.11.11-.88.16-1.77.19-2.66.06-1.85-.01-3.71.04-5.56.47.87.95,1.75,1.42,2.62.45.83.85,1.78,1.43,2.54.22.29.5.48.86.55.17.03.4-.04.55,0,.19.05.3.47.4.7.36.86.71,1.72,1.04,2.59.6,1.62,1.11,3.26,1.44,4.96.35,1.81-.06,3.74-.36,5.54-1.26,7.67-3.86,15.1-6.5,22.39-.17.47-.4.95-.51,1.44-.06.27-.03.46-.15.7-.12.23-.3.45-.45.67-.56.8-1.18,1.59-1.89,2.27-1.55,1.46-3.37,2.48-5.4,3.1Z" fill="#282828"/></svg>