<?xml version="1.0" encoding="UTF-8"?><svg id="Layer_1" xmlns="http://www.w3.org/2000/svg" viewBox="0 0 500 500"><path d="M262.79,179.25c.05-.02.1-.05.15-.07-.05.02-.1.05-.15.07Z" fill="#282828"/><path d="M236.12,215.44c1.53-.11,1.33-2.05,1.41-3.13.12-1.56.2-3.12.25-4.68.1-3.12.08-6.25-.02-9.37,5.16,4.46,9.86,9.4,14.06,14.77,4.14,5.3,7.8,10.94,11.13,16.78,1.87,3.28,3.63,6.61,5.34,9.98-.19-.37-.02-.04.01.03.06.13.13.25.19.38.11.22.22.44.33.66.25.5.5,1.01.74,1.51.47.98.94,1.96,1.41,2.94.92,1.97,1.82,3.95,2.7,5.93,1.75,3.97,3.47,7.97,4.94,12.06,1.41,3.94,2.5,7.98,3.93,11.9.73,1.99,1.55,3.95,2.54,5.82.22.42.45.83.69,1.24.23.39.45.91.82,1.19.68.52,1.69.3,2.08-.46.45-.88.59-2.04.75-3,.18-1.11.28-2.23.34-3.35.13-2.38.03-4.76-.22-7.13,1.75,4.1,3.54,8.22,5.89,12.02.57.92,1.17,1.82,1.82,2.69.31.42.63.84.97,1.25.29.36.55.76,1.01.9.88.28,1.68-.37,1.75-1.24.1-1.07-.05-2.22-.14-3.29-.78-9.2-4.26-17.93-7.78-26.37-1.78-4.27-3.58-8.51-5.78-12.6-2.15-3.99-4.55-7.84-7.16-11.55-5.23-7.44-11.22-14.33-17.5-20.89-3.18-3.33-6.39-6.64-9.74-9.82-3.09-2.93-6.32-5.72-9.88-8.07-.88-.58-1.78-1.13-2.7-1.65,3.64-2.22,7.39-4.25,11.19-6.17,1.89-.96,3.79-1.88,5.69-2.8.94-.45,1.88-.9,2.82-1.34.5-.24,1-.47,1.5-.71.25-.12.5-.24.75-.35.07-.03.69-.32.48-.23.09-.04.18-.08.26-.12.27-.14.86-.33,1.12-.69.3-.42.34-1,.08-1.46-.59-1.01-2.18-.69-3.16-.67-2.69.06-5.37.28-8.04.61-5.37.65-10.69,1.66-15.99,2.73-1.37.28-2.75.56-4.12.84-.13.03-.29.08-.41.08-.27,0-.23.02-.43-.17-.22-.21-.45-.42-.67-.63-.49-.47-.98-.94-1.47-1.41-1.93-1.86-3.84-3.75-5.78-5.61-.96-.92-1.92-1.83-2.9-2.72-.5-.46-1.01-.91-1.51-1.37-.2-.18-.41-.36-.61-.54-.29-.25-.46-.5-.7-.78-.78-.87-2.07-.32-2.36.7-.14.48,0,.88.27,1.28.36.55.56,1.26.8,1.88.99,2.56,1.94,5.14,2.83,7.74.46,1.33.9,2.67,1.33,4.01.19.6.38,1.21.56,1.82.03.1.22.51.18.61-.02.05-.31.22-.33.23-.3.21-.6.41-.9.62-4.29,2.93-8.75,5.6-13.1,8.43-2.16,1.41-4.29,2.85-6.36,4.39-1.06.79-2.11,1.6-3.13,2.43-.79.65-2.23,1.6-1.25,2.76.37.43.87.5,1.4.4.68-.13,1.36-.29,2.04-.44,1.33-.28,2.66-.55,3.99-.84,2.67-.57,5.34-1.17,8-1.82,2.67-.65,5.32-1.36,7.95-2.16,1.35-.41,2.7-.84,4.03-1.3.6-.21,1.2-.42,1.8-.63.18-.07.86-.43.99-.37.16.07.31.78.39.96,2.02,5.04,3.88,10.16,6.42,14.97.47.89.96,2.48,2.21,2.4ZM238.31,192.95c6.05,3.23,11.15,8.07,15.96,12.88,5.05,5.04,10.01,10.19,14.64,15.62,4.49,5.26,8.7,10.78,12.38,16.65,1.84,2.93,3.58,5.95,5.1,9.07,1.57,3.22,2.93,6.54,4.31,9.84,2.81,6.76,5.61,13.68,6.87,20.93.15.86.28,1.73.38,2.6-4.24-6.66-6.63-14.29-10.03-21.38-.42-.87-.85-1.72-1.3-2.57-.22-.42-1.74-2.83-2-3.03-.26-.19-.59-.28-.91-.26-.74.04-1.35.66-1.33,1.41,0,.41.23.75.43,1.09.24.42.46.84.67,1.28.42.9.79,1.82,1.11,2.75.64,1.83,1.14,3.73,1.51,5.63.81,4.21,1.22,8.6.73,12.88-2.75-5.92-4.15-12.36-6.53-18.42-2.37-6.03-4.98-11.98-7.8-17.81-5.53-11.48-11.85-22.73-19.95-32.62-2.24-2.74-4.61-5.38-7.11-7.89-1.23-1.23-2.48-2.43-3.77-3.61-.65-.6-1.3-1.2-1.97-1.79-.59-.52-1.23-.99-2.04-.56-.03-.73-.07-1.46-.11-2.2-.01-.25-.15-.76.08-.88.2-.11.16-.02.31.14.1.1.22.19.35.26ZM229.06,194.74c-.24-.6-.86-1.01-1.51-.89-.45.08-1.8.96-2.18,1.1-1.77.67-3.56,1.27-5.37,1.83-3.53,1.09-7.12,2.02-10.72,2.85-2.02.47-4.04.91-6.07,1.35,4.25-3.08,8.75-5.8,13.18-8.61,2.24-1.42,4.47-2.86,6.65-4.37.43-.3.99-.58,1.27-1.04.24-.39.52-.91.49-1.38-.03-.54-.3-1.12-.46-1.64-.2-.65-.41-1.31-.62-1.96-.92-2.89-1.92-5.75-2.97-8.6,1.92,1.78,3.81,3.6,5.69,5.42.94.91,1.88,1.83,2.81,2.74.69.68,1.61,1.98,2.7,1.91.58-.04,1.18-.22,1.75-.34.69-.14,1.38-.28,2.06-.42,1.31-.27,2.61-.53,3.92-.79,2.61-.52,5.23-1.02,7.86-1.44,2.95-.48,5.91-.88,8.89-1.14-5.15,2.47-10.27,5.03-15.22,7.89-1.22.71-2.43,1.43-3.63,2.17-.58.36-1.17.73-1.75,1.1-.49.32-.98.58-1.1,1.2-.09.46.02,1.04.04,1.51.04.75.08,1.51.12,2.26.06,1.4.12,2.81.15,4.22.08,3.19.07,6.38-.07,9.57-2.23-4.73-3.98-9.66-5.94-14.5Z" fill="#282828"/><path d="M292.41,289.63c-.41-1.3-2.38-1.04-2.63.21-.13.62.19,1.34.33,1.95.19.8.37,1.61.53,2.42.61,3.02,1.08,6.08,1.43,9.14.7,6.07.93,12.18.77,18.28-.08,3.06-.27,6.04-.56,9.09-.06.68-.25,1.43.24,1.99.42.49,1.15.63,1.73.32.64-.34.72-.93.78-1.59.08-.81.15-1.62.21-2.43.48-6.14.56-12.32.2-18.47-.2-3.51-.56-7.02-1.07-10.5-.26-1.77-.55-3.54-.89-5.3-.32-1.69-.57-3.48-1.08-5.12Z" fill="#282828"/><path d="M278.55,303.15c.23,1.41,2.16,1.87,2.75.42.25-.62-.04-1.43-.15-2.07-.14-.83-.28-1.66-.42-2.49-.54-3.18-1.1-6.35-1.69-9.52-1.2-6.41-2.52-12.79-4.09-19.12-3.1-12.51-7.2-24.76-12.89-36.34-2.79-5.69-5.94-11.19-9.42-16.49-.43-.66-.87-1.32-1.32-1.98-.34-.5-.75-.89-1.4-.85-.54.03-1.01.37-1.21.87-.25.63.02,1.13.37,1.64,1.79,2.61,3.49,5.27,5.1,7.99,6.57,11.09,11.51,23.04,15.2,35.38,3.71,12.4,6.18,25.05,8.36,37.79.27,1.59.54,3.18.8,4.77Z" fill="#282828"/><path d="M298.29,294.12c.67,3.29,1.29,6.59,1.76,9.92.23,1.65.42,3.3.56,4.95.07.81.12,1.62.16,2.44.04.84-.05,1.76.09,2.59.22,1.36,2.21,1.55,2.69.25.25-.66.08-1.56.05-2.25-.03-.89-.09-1.78-.15-2.67-.25-3.35-.72-6.68-1.29-9.98-.32-1.82-.67-3.64-1.04-5.45-.15-.76-.67-1.38-1.52-1.31-.7.05-1.47.76-1.31,1.52Z" fill="#282828"/></svg>