<?xml version="1.0" encoding="UTF-8"?><svg id="Layer_1" xmlns="http://www.w3.org/2000/svg" viewBox="0 0 500 500"><path d="M259.34,222.54c.48.02.97.04,1.45.07-.48-.03-.96-.05-1.45-.07Z" fill="#282828"/><path d="M256.65,265.15c-.09.08-.12.11-.08.09.03-.03.06-.06.08-.09Z" fill="#282828"/><path d="M251.24,222.71c.92-.07,1.83-.13,2.75-.17-.91.04-1.83.1-2.75.17Z" fill="#282828"/><path d="M246.52,223.24c-.69.1-1.38.21-2.07.34.69-.12,1.38-.24,2.07-.34Z" fill="#282828"/><path d="M307.09,281.86c-1.43-1.23-3.17-2.01-4.91-2.71-1.86-.75-3.76-1.39-5.68-1.98-3.94-1.2-7.95-2.14-11.89-3.34,3.45-3.81,6.5-8.34,7.94-13.31,1.55-5.37.63-10.81-.39-16.18-1-5.28-1.73-11.14.13-16.32.89-2.49,2.14-4.87,3.47-7.15,1.33-2.27,2.74-4.48,4.3-6.6,1.61-2.18,3.24-4.35,4.64-6.68.69-1.14,1.33-2.33,1.81-3.58.44-1.15.79-2.45.44-3.67-.76-2.65-4.05-2.42-6.19-2-2.53.5-4.96,1.72-7.17,3.01-2.32,1.36-4.51,2.93-6.7,4.49-2.17,1.55-4.37,3.07-6.49,4.71-4.09,3.15-7.95,6.63-11.11,10.73-.36.47-.71.94-1.05,1.43-.11.15-.38.71-.53.77-.21.09-.88-.17-1.13-.21-1.13-.2-2.26-.34-3.4-.46-.05.09-.1.18-.15.28-.54,1.06-1.03,2.15-1.43,3.28-.38,1.07-.53,2.14-.79,3.23-.21.88-1.01,1.53-1.94,1.43-2.78-.29-1.15-4.38-.63-5.88.31-.89.68-1.76,1.09-2.62-1.42-.06-2.83-.06-4.25-.03-.72,2.32-1.61,4.59-2.22,6.94-.16.69-.28,1.39-.38,2.09-.08.53-.22,1-.63,1.37-.78.7-2,.56-2.63-.27-.67-.88-.22-2.14-.02-3.12.26-1.2.58-2.38.95-3.55.35-1.09.72-2.17,1.08-3.25-.88.07-1.76.16-2.64.26-.13.27-.27.53-.38.79-.48,1.14-.91,2.29-1.29,3.46-.34,1.03-.65,2.08-.93,3.13-.25.93-.52,1.8-1.63,1.95-.95.13-1.85-.53-2-1.48-.08-.46.09-.91.21-1.35.14-.53.28-1.05.44-1.57.42-1.46.89-2.9,1.44-4.32-2.23.4-4.44.92-6.6,1.57-1.23.37-2.44.8-3.63,1.28.71-2.35,1.67-4.6,2.63-6.85.97-2.27,1.93-4.55,2.96-6.8,1.03-2.27,2.11-4.53,3.15-6.79.98-2.14,2.33-4.08,3.33-6.21.89-1.91,1.75-4.52.25-6.37-1.51-1.87-4.32-.96-6.15-.14-4.36,1.94-8.24,5.02-11.93,8.01-1.91,1.55-3.78,3.16-5.58,4.83-1.72,1.59-3.24,3.34-4.69,5.18-2.92,3.71-5.46,7.75-7.55,11.99-2.1,4.25-3.8,8.73-4.98,13.33-.6,2.32-1.06,4.68-1.37,7.06-.08.59-.14,1.17-.2,1.76-.05.55.17,2.67.14,2.98-.07.65-.12,1.3-.15,1.95-.47,9.34,3.06,18.27,9.53,24.97.72.75,1.48,1.47,2.26,2.16-3.21,2.5-6.68,4.61-10.17,6.68-1.74,1.03-3.49,2.06-5.21,3.13-1.74,1.08-3.42,2.25-5.16,3.31-1.42.87-3.38,1.9-3.66,3.72-.28,1.79,1.36,3.01,2.78,3.71,3.62,1.77,7.6.48,10.98-1.23,1.99-1,3.87-2.18,5.83-3.23.98-.52,1.99-1.04,3.04-1.41,1.03-.36,2.13-.42,3.16-.78-.77,2.37-2.32,4.4-3.4,6.63-.9,1.87-1.55,4.4.51,5.78,1.97,1.33,4.71.92,6.69-.13,2.14-1.14,3.83-2.99,5.43-4.77,1.69-1.89,3.39-4.13,5.64-5.38.17,2.15.06,4.31.07,6.46,0,1.99-.08,4.46.98,6.22,1.13,1.89,3.27,1.84,4.98.76,1.66-1.05,3.43-2.6,4.45-4.29,1.03-1.73,1.78-3.64,3.04-5.22.44-.55,1.55-1.67,2.17-.72.49.75.26,2.1.2,2.94-.13,1.88-.59,4.31.71,5.91,1.25,1.54,3.45,1.69,5.06.66,1.93-1.23,3.18-3.46,4.19-5.46,1.13-2.25,2.03-4.59,3.06-6.89,2.39,2.7,3.59,6.65,6.89,8.5,1.49.83,3.48.84,4.92-.12,1.57-1.06,2.07-2.88,2.25-4.66.23-2.34-.26-4.69-.02-7.01.79.46,1.55,1.05,2.13,1.76.63.76,1.02,1.73,1.41,2.63.75,1.75,1.48,3.56,2.94,4.85,2.54,2.25,7.65,3.38,9.25-.52.71-1.73.84-4.03.49-5.86-.19-.98-.63-1.92-1-2.84-.34-.85-.92-1.98-.79-2.91.12-.84,1.45-.74,2.08-.71,1.04.04,2.08.23,3.1.43,2.1.42,4.19.99,6.33,1.17,2.11.18,4.28-.33,5.94-1.71,1.7-1.42,1.59-3.58-.06-5ZM292.73,205.12c.14-.16.32-.25.47-.4.14-.13.23-.29.37-.43.66-.7,1.53-1.29,2.32-1.83.82-.56,1.68-1.06,2.59-1.47.81-.36,1.85-.84,2.75-.84,1.09,0,1.92,1.02,1.76,2.09-.17,1.12-.84,2.3-1.4,3.27-.52.91-1.13,1.73-1.87,2.47-.71.71-1.49.6-2.32.2-1.51-.72-4.82.86-5.07-1.76-.04-.47.1-.94.4-1.3ZM262.85,243.42c.77-.67,1.72-1.2,2.57-1.77,1.73-1.16,3.5-2.28,5.36-3.24,3.43-1.77,7.91-3.49,11.58-1.4,1.64.93,2.64,2.61,3.22,4.35.26.79.64,1.82.57,2.66-.08.95-.93,1.47-1.67,1.92-3.45,2.1-7.1,4.35-11.27,4.39-2.04.02-4.05-.55-5.91-1.38-.94-.42-1.86-.91-2.75-1.44-.7-.42-1.72-.83-2.04-1.64-.32-.82-.38-1.83.34-2.46ZM254.02,265.07c.92-.05,1.52.82,2.42.22.26-.17.32-.24.33-.51.01-.24-.01-.48,0-.72.03-.57.02-1.14.03-1.71,0-.61.03-1.21.08-1.82.01-.14.06-.33.05-.46-.03-.29.13-.11-.17-.32-.2-.14-.49-.22-.72-.31-.84-.35-1.71-.56-2-1.53-.26-.87.18-1.66.89-2.15.84-.59,2.14-.83,3.12-1.08,1.14-.3,2.29-.49,3.46-.58.53-.04,1.16-.15,1.68.02.48.16,1.91,1.59,1.99,1.78.14.34.17.73.09,1.09-.2.93-1.2,1.43-1.88,1.99-.85.7-1.69,1.42-2.58,2.08-.39.29-.43.18-.45.7-.01.31-.01.62-.02.94,0,.35,0,.7,0,1.05,0,.4-.08.59.29.8,1.08.6,1.78-.58,2.84-.53,1.07.05,1.86,1.07,1.67,2.12-.19,1.03-1.3,1.59-2.21,1.9-1.09.36-2.21.36-3.29-.04-.25-.09-.43-.24-.65-.15-.19.07-.39.31-.56.42-.4.26-.82.49-1.27.64-1.54.51-4.79.13-4.83-2.01-.01-.95.74-1.76,1.69-1.82ZM235.91,197.45c.98-.64,2.03-1.19,3.12-1.63.56-.23,1.12-.43,1.7-.61.48-.15.98-.36,1.49-.24,2.47.57,1.1,3.96.43,5.43-.46,1.02-1.01,2.07-1.66,2.98-.51.71-1.43.91-2.21.57-.54-.24-4.07-.63-4.52-.7-.51-.08-.9.01-1.37-.32-2.47-1.82,1.65-4.58,3.02-5.47ZM217.39,248.01c.18-.9,1.08-1.52,1.73-2.07.79-.66,1.61-1.3,2.44-1.91,3.27-2.39,7.31-4.76,11.53-4.37,1.96.18,3.8.95,5.21,2.33,1.44,1.4,2.37,3.27,3.92,4.55.8.66.99,1.83.27,2.63-.15.17-.34.31-.55.41-.19.09-1.71,1.09-1.94,1.25-1.93,1.31-4.04,2.4-6.35,2.86-4.38.86-8.57-1.07-12.56-2.65-.93-.37-2.03-.63-2.89-1.14-.64-.38-.97-1.17-.82-1.9ZM305.02,284.64c-.67.43-1.46.83-2.26.91-.93.1-1.92-.07-2.84-.22-1.86-.31-3.69-.78-5.55-1.11-1.71-.3-3.63-.59-5.3.05-1.54.58-2.48,1.96-2.46,3.61.02,1.71.84,3.33,1.45,4.89.62,1.58.77,3.66.13,5.27-.3.75-.85.9-1.62.78-.88-.14-1.86-.52-2.57-1.06-1.37-1.03-1.95-2.86-2.6-4.38-.68-1.57-1.51-3.04-2.85-4.15-1.15-.95-2.61-2.16-4.22-1.87-1.6.29-2.08,1.95-2.18,3.37-.13,1.89.17,3.79.11,5.68-.04,1.35-.12,3.65-2.01,3.48-.77-.07-1.36-.66-1.87-1.21-.61-.67-1.15-1.4-1.65-2.16-.93-1.39-1.76-2.87-2.78-4.2-.98-1.26-2.46-2.55-4.14-1.74-.59.28-1.01.81-1.33,1.36-.21.36-.37.75-.51,1.14-.16.44-.19.89-.31,1.32-.22.82-.69,1.64-1.04,2.41-.38.86-.78,1.71-1.21,2.55-.73,1.42-1.58,3.07-2.86,4.07-.61.48-1.3.56-1.44-.34-.15-.9,0-1.87.06-2.78.12-1.59.29-3.39-.42-4.87-.73-1.5-2.36-2.32-4-2.11-3.38.45-4.87,4.74-6.31,7.28-.79,1.39-2.11,2.67-3.43,3.57-.17.12-.82.6-1.04.51-.24-.1-.33-.97-.37-1.2-.18-.96-.2-1.95-.21-2.92-.03-1.82.06-3.64.02-5.46-.02-.87-.06-1.74-.17-2.61-.1-.74-.22-1.75-.83-2.27-1.1-.93-3.04.2-4.04.83-1.32.83-2.46,1.92-3.53,3.04-2.21,2.33-4.22,5.32-7.12,6.84-.74.39-1.51.61-2.34.56-.27-.02-.98-.05-1.15-.31-.12-.18.06-.62.12-.8.55-1.73,1.66-3.27,2.52-4.85.8-1.47,1.6-3.04,1.84-4.72.18-1.3,0-3.66-1.91-3.25-.87.18-1.66.64-2.5.9-.76.23-1.56.27-2.32.5-1.72.52-3.31,1.34-4.88,2.2-3,1.65-6.02,3.75-9.42,4.44-1.72.35-3.39.07-4.81-.98.7-.67,1.59-1.14,2.41-1.64.82-.5,1.62-1.04,2.42-1.58,1.75-1.16,3.56-2.25,5.36-3.32,3.49-2.07,7-4.12,10.32-6.46.84-.59,1.67-1.2,2.49-1.84.08-.06.17-.16.26-.2.32-.17.09-.12.34,0,.18.08.35.26.51.38.43.31.86.62,1.3.92,1.62,1.1,3.32,2.08,5.06,2.96,3.6,1.82,7.41,3.28,11.33,4.2,8.1,1.9,16.59,1.73,24.63-.39,7.12-1.88,13.86-5.3,19.45-10.12.33-.28.65-.57.97-.86.1-.09.35-.41.48-.45.16-.05.38.09.57.16.91.33,1.85.58,2.78.83,2.06.57,4.12,1.12,6.17,1.7,3.91,1.1,8.05,2.16,11.65,4.09.43.23.85.48,1.24.76.16.11.31.23.45.36.25.24.21.26-.06.47Z" fill="#282828"/><path d="M248.59,222.97c-.69.08-1.38.17-2.07.27.69-.1,1.38-.19,2.07-.27Z" fill="#282828"/><path d="M231.05,253.23c.67.69,1.76.39,2.36-.21.69-.68,1.12-1.67,1.46-2.56.82-2.1,1.38-4.43,1.38-6.69,0-.97-.1-2.43-.83-3.17-.34-.35-.82-.33-1.25-.4-.5-.08-.91-.05-1.28.34-1.37,1.44-2.09,3.62-2.45,5.53-.23,1.21-.34,2.45-.32,3.69.02,1.17.05,2.58.92,3.47Z" fill="#282828"/><path d="M275.01,249.18c1.62,1.41,3.55-2.58,4.08-3.64.96-1.93,1.94-4.28,1.9-6.47-.01-.9-.1-2.06-.85-2.67-.35-.29-.71-.33-1.15-.29-.35.03-.73,0-1.04.22-.4.27-.66.84-.91,1.25-.29.47-.55.96-.79,1.45-.49.99-.89,2.02-1.24,3.07-.42,1.26-.71,2.55-.77,3.88-.04.96-.02,2.5.76,3.2Z" fill="#282828"/></svg>