<?xml version="1.0" encoding="UTF-8"?><svg id="Layer_1" xmlns="http://www.w3.org/2000/svg" viewBox="0 0 500 500"><path d="M248.11,241.93c.9.75,2.24.88,3.19.13.66-.52,2.06-3.1,2.55-3.65,2.26-2.6,4.62-5.12,7.03-7.58,4.72-4.81,9.68-9.39,14.73-13.84,2.83-2.5,5.69-4.96,8.57-7.4-4.16,8.61-9.02,16.87-13.7,25.2-2.37,4.21-4.7,8.44-6.89,12.75-.43.85-1.08,1.78-1.13,2.76-.04.83-.05,1.91.41,2.65.52.84,1.45,1.54,2.16,2.23.89.88,1.78,1.75,2.68,2.61,3.98,3.83,8.05,7.57,12.19,11.23-4.62-1.19-9.22-2.48-13.81-3.78-2.3-.65-4.59-1.31-6.88-1.97-1.7-.48-4.3-1.79-5.97-.73-.9.57-1.7,1.38-2.52,2.06-.98.82-1.96,1.64-2.95,2.46-1.87,1.56-3.73,3.11-5.61,4.66-3.74,3.09-7.51,6.15-11.36,9.11-4.32,3.32-8.72,6.52-13.28,9.51,6.13-8.42,12.12-16.93,17.58-25.8,1.35-2.19,2.66-4.39,3.94-6.62.62-1.09,1.24-2.18,1.85-3.27.51-.93,1.06-1.78.72-2.88-.25-.82-.93-1.65-1.37-2.38-.72-1.17-1.43-2.35-2.14-3.52-1.32-2.2-2.62-4.41-3.89-6.63-2.88-5.04-5.63-10.17-8.16-15.4,7.66,5.65,14.73,12.05,22.06,18.11Z" fill="#282828"/></svg>