<?xml version="1.0" encoding="UTF-8"?><svg id="Layer_1" xmlns="http://www.w3.org/2000/svg" viewBox="0 0 500 500"><path d="M265.04,312.96c4.63-6.66,7.24-14.57,9.6-22.26,1.22-4,2.35-8.03,3.72-11.98,1.35-3.9,2.98-7.69,4.68-11.45,3.35-7.39,7.05-14.64,9.82-22.28.69-1.91,1.32-3.84,1.87-5.8.55-1.99.97-4.03.87-6.11-.2-3.82-2.14-7.13-5.29-9.29-3.2-2.19-7-3.23-10.79-3.86-4.11-.68-8.31-.8-12.47-.62-1.04.04-2.08.11-3.12.19,10.36-6.36,20.34-13.43,29.78-21.08.56-.45,1.11-.91,1.67-1.36.48-.4.88-.78.9-1.44.04-1.21-1.25-1.99-2.31-1.48-1.33.64-2.6,1.42-3.94,2.06-1.34.64-2.7,1.23-4.07,1.79-5.49,2.24-11.22,3.98-16.34,7.04-5.48,3.27-9.63,7.94-12.32,13.73-.19-.59-.49-1.22-.37-1.84.14-.72.26-1.44.38-2.16.23-1.4.43-2.81.59-4.23.31-2.73.49-5.49.5-8.24,0-5.24-.53-10.94-3.17-15.58-1.21-2.13-2.91-4.05-5.08-5.23-2.35-1.28-4.94-2-7.55-2.51-.66-.13-1.32-.24-1.99-.34-.71-.11-1.4-.39-2.09-.6-1.31-.4-2.64-.78-3.96-1.14-2.69-.73-5.4-1.37-8.13-1.94-5.31-1.1-10.95-2.21-16.39-1.66-1.23.12-4.14,1.27-4.41,1.4-.24.11-.51.09-.77.16-.5.14-.9.51-1.07,1.01-.16.46-.09.98.18,1.38.35.52.92.65,1.48.83,1.29.41,2.59.8,3.9,1.17,5.35,1.51,10.82,2.59,16.36,3.1,2.79.26,5.58.39,8.38.31,1.41-.04,2.82-.1,4.22-.12.65,0,1.3-.01,1.95,0,.71.01,1.45-.04,2.11.23,4.56,1.86,9.18,5.57,10.49,10.49,1.44,5.42-.09,11.16-.1,16.66,0,1.36.06,2.71.21,4.06-.89-1.04-1.87-1.99-2.9-2.88-.25-.21-2.21-1.76-2.69-2.1-2.16-1.55-4.45-2.92-6.74-4.28-4.42-2.61-9.02-5.2-12.56-8.98-.43-.46-.84-.93-1.24-1.42-.38-.46-1.88-1.72-2.64-1.24-.42.27-1.05.68-1.27,1.14-.26.55.21,3.1.39,3.75.33,1.25.78,2.48,1.38,3.63,2.43,4.62,6.84,7.44,11.47,9.54,5.46,2.49,11.39,4.28,16.09,8.15-.77-.1-1.56-.4-2.3-.61-.78-.22-1.56-.43-2.35-.64-1.54-.42-3.09-.82-4.65-1.19-3.04-.72-6.11-1.35-9.22-1.63-5.91-.54-12.48.16-16.78,4.7-2.02,2.14-3.45,4.8-4.62,7.47-1.22,2.81-2.1,5.77-2.8,8.74-1.47,6.17-2.19,12.52-2.4,18.84-.22,6.33.01,12.8,1.35,19,1.33,6.18,3.48,12.21,5.79,18.09,2.32,5.88,4.93,11.64,7.86,17.24,1.45,2.76,2.97,5.52,4.68,8.13,1.5,2.29,3.23,4.41,5.41,6.08,2.17,1.68,4.72,2.86,7.46,3.23,2.93.4,5.92-.07,8.7-1.03,2.7-.94,5.22-2.33,7.61-3.9,2.39-1.58,4.57-3.37,6.46-5.53.92-1.05,1.78-2.16,2.58-3.31ZM267.92,213.17c3.99-3.74,8.5-6.76,13.4-9.19-4.47,3.27-9.03,6.43-13.67,9.45.09-.09.18-.17.27-.26ZM219.74,177.98c-.29-.03-3.63-.27-4.09-.38-1.65-.37-3.29-.79-4.92-1.24,3.68-.27,10.07,1,13.69,1.62-.84-.05-3.85.07-4.69,0ZM236.01,207.54c-2.9-1.45-5.64-3.23-7.59-5.88,3.8,3.11,7.81,5.76,12.22,7.92-1.56-.65-3.11-1.31-4.63-2.04ZM247.45,322.62c-2.13.72-4.35,1.16-6.6.99-2.24-.17-4.33-1-6.16-2.29-3.62-2.55-5.89-6.56-7.99-10.35-4.42-7.96-8.17-16.3-11.26-24.86-1.55-4.3-2.97-8.71-3.89-13.19-.93-4.52-1.23-9.14-1.25-13.75-.03-9.1.87-18.52,3.77-27.19,1.33-3.98,3.16-8.36,6.57-11.01,3.54-2.77,8.5-2.93,12.78-2.53,1.12.1,2.23.25,3.34.43-2.26.26-4.56.74-6.51,1.96-1.88,1.18-3.43,2.77-4.83,4.49-1.47,1.8-2.72,3.77-3.92,5.76-.62,1.03-1.23,2.08-1.83,3.12-.28.49-.57.97-.86,1.46-.27.45-.64.92-.73,1.45-.15.91.52,1.78,1.46,1.83,1.06.06,1.65-.99,2.26-1.68,1.55-1.74,3.14-3.44,4.78-5.1,3.1-3.13,6.46-6.77,10.95-7.67,5.33-1.06,10.84-.01,16.22-.62-1.79,4.31-5.13,7.58-8.34,10.85-3.25,3.31-6.29,6.8-7.87,11.24-.39,1.1-.69,2.23-.92,3.37-.2.99-.4,2.13.71,2.65.83.39,1.79-.03,2.15-.85.48-1.09.8-2.23,1.37-3.29,2.2-4.13,5.54-7.38,8.72-10.76,3.48-3.71,6.56-7.71,8.07-12.64.41.15.41.32.72.6.25.22.61.34.91.5.78.41,1.53.86,2.26,1.36,1.5,1.01,2.84,2.18,4.09,3.49,2.56,2.68,4.68,5.72,7.11,8.5.56.64,1.14,1.27,1.74,1.87.57.58,1.21,1.45,2.09,1.5.66.04,1.33-.37,1.58-.98.3-.74.02-1.88-.09-2.65-.53-3.63-2.42-6.9-5.05-9.41-3.02-2.88-6.66-4.89-10.48-6.53,4.53-.48,9.13-.58,13.66-.12,4.24.43,8.8,1.29,12.36,3.78,1.67,1.16,3.05,2.8,3.59,4.79.61,2.24.31,4.52-.29,6.72-1.21,4.46-2.89,8.79-4.72,13.03-3.69,8.53-8.12,16.75-11.3,25.5-3.1,8.53-5.05,17.43-8.61,25.8-1.7,3.98-3.76,7.84-6.5,11.21-2.77,3.41-6.44,6.03-10.36,7.98-.95.47-1.92.9-2.91,1.26ZM270.21,230.89c1.28,1.18,2.45,2.51,3.29,4.05-1.1-1.34-2.17-2.71-3.29-4.05Z" fill="#282828"/><path d="M223.39,248.69c-.4-.7-1.27-.96-2-.66-.84.34-.95,1.19-1.13,1.98-.45,2-.64,4.05-.51,6.1.09,1.32.21,4.36,2.36,3.62.96-.33,1.03-1.26,1.15-2.12.15-1.02.32-2.03.48-3.05.18-1.14.33-2.28.45-3.42.1-.95.21-1.95-.8-2.45Z" fill="#282828"/><path d="M231.93,264.57c.14-.89-.45-1.77-1.37-1.87-1.04-.11-1.58.64-1.83,1.53-.64,2.29-1.05,4.66-.55,7.02.2.97.5,2.08,1.68,2.15,1.09.06,1.54-.84,1.8-1.73.33-1.12.5-2.29.54-3.46.02-.65.01-1.31,0-1.96-.01-.56.05-1.19-.27-1.68Z" fill="#282828"/><path d="M228.39,279.07c-.45,0-.89.21-1.19.56-.41.49-.28.91-.32,1.48-.02.38-.41.61-.53,1.02-.17.55-.21,1.17-.32,1.74-.23,1.16-.43,2.32-.21,3.5.19.99.53,2.32,1.69,2.52,1.06.18,1.67-.59,1.88-1.51.26-1.16.42-2.35.54-3.53.12-1.26.22-2.54.11-3.81-.08-1-.47-1.95-1.65-1.95Z" fill="#282828"/><path d="M239.35,305.24c0-.83-.09-1.76-.22-2.59-.14-.83-.47-1.7-1.36-1.93-.66-.17-1.33,0-1.77.53-.27.32-.39.74-.53,1.13-.16.46-.19,1.08-.42,1.5-.19.36-.44.5-.48.96-.05.49,0,1.01,0,1.5,0,1.08.12,2.07.33,3.13.16.81.16,1.7.91,2.21.65.44,1.78.45,2.38-.09.71-.63,1.02-1.98,1.17-2.88.19-1.16.11-2.31,0-3.47Z" fill="#282828"/><path d="M256.01,281.88c-.43-.02-.85.13-1.16.43-.33.32-.8.5-1.04.92-.28.47-.34,1.14-.47,1.67-.12.53-.24,1.06-.35,1.59-.26,1.26-.41,2.52-.36,3.82.04,1.01.26,2.14,1.5,2.21,1.09.06,1.51-.84,1.8-1.72.39-1.17.71-2.37.97-3.58.24-1.13.44-2.28.56-3.43.09-.93-.43-1.83-1.45-1.89Z" fill="#282828"/><path d="M261.35,262.03c1.23.07,1.57-1.01,1.87-1.96.35-1.13.67-2.27.9-3.44.1-.53.12-1.05.4-1.52.29-.48.55-.96.43-1.55-.16-.75-1.08-1.54-1.83-1.62-1.01-.11-1.58.62-1.78,1.51-.07.31-.1.63-.17.93-.08.31-.21.54-.37.83-.25.46-.49.94-.68,1.43-.53,1.37-1.04,5.25,1.24,5.38Z" fill="#282828"/><path d="M269.74,271.96c1.09.37,1.76-.43,2.16-1.32.52-1.16.82-2.41,1.08-3.65.21-1,.34-2.15-.86-2.56-.45-.15-.96-.09-1.36.17-.22.14-.43.34-.54.58-.03.05-.15.54-.11.32-.24,1.23-1.03,2.32-1.29,3.56-.22,1.04-.33,2.48.91,2.9Z" fill="#282828"/><path d="M276.99,254.35c.34.68,1.16,1.03,1.88.79.84-.27,1.11-1.1,1.3-1.88.11-.45.18-.91.25-1.37.07-.46.05-1.08.2-1.52.13-.38.3-.59.28-1.02-.02-.46-.1-.83-.27-1.25-.29-.71-.76-1.32-1.61-1.32-1.03,0-1.47.83-1.63,1.72-.17.99-.38,1.97-.49,2.97-.1.85-.31,2.1.09,2.89Z" fill="#282828"/></svg>