<?xml version="1.0" encoding="UTF-8"?><svg id="Layer_1" xmlns="http://www.w3.org/2000/svg" viewBox="0 0 500 500"><path d="M231.6,154.35c1.09,1.59,3.05,1.95,4.75,1.17,1.61-.74,2.5-2.31,2.52-4.06.01-.94-.17-1.92-.7-2.7-.23-.34-.54-.63-.77-.96-.25-.36-.49-.65-.91-.81-1.61-.59-3.71.36-4.71,1.62-1.29,1.62-1.35,4.05-.17,5.75ZM234.28,151.09c.11-.26.15-.19.41-.21.25-.02.49-.09.71-.21.2.57.18,1.46-.44,1.76-.79.38-.8-.85-.68-1.34Z" fill="#282828"/><path d="M253.17,157.85c1.33,1.22,3.53,1.08,4.71-.26.62-.7.89-1.65.72-2.56-.15-.82-.73-1.51-1.3-2.08-1.28-1.28-3.38-1.23-4.52.19-1.16,1.45-.95,3.47.39,4.71Z" fill="#282828"/><path d="M256.03,140.14c.36-.87.37-1.91,0-2.78-.38-.88-.84-1.46-1.61-1.96-.33-.21-.78-.42-1.19-.53-.4-.11-.89-.1-1.31-.05-.89.1-1.72.48-2.41,1.03-1.37,1.08-2.39,2.98-1.83,4.75.54,1.69,2.3,2.8,4.06,2.63,1.81-.17,3.6-1.4,4.3-3.09Z" fill="#282828"/><path d="M269.01,138.71c-1.17-1.13-3.08-1.09-4.16.15-1.02,1.18-.76,2.92.44,3.86,1.13.9,2.86.91,3.98-.03,1.36-1.14.87-2.9-.26-3.99Z" fill="#282828"/><path d="M241.76,225.51s-.02,0,.08,0c-.03,0-.05,0-.08,0Z" fill="#282828"/><path d="M246.46,235.45c-.02-.85.23-1.54.4-2.36.12-.58-.07-1.19-.51-1.6-.46-.43-1.14-.56-1.72-.34-.67.25-.96.82-1.15,1.47-.33,1.18-.89,3.21.27,4.1,1.02.78,2.73.08,2.71-1.28Z" fill="#282828"/><path d="M233.61,238.33c2.27.09,2.44-4.01.13-4.06-2.22-.04-2.41,3.98-.13,4.06Z" fill="#282828"/><path d="M243.41,245.07c0-1.24-1.09-2.46-2.41-2.2-1.36.27-1.64,2.04-1.6,3.2.04,1.22,1,2.39,2.33,1.85.27-.11.52-.3.7-.53.21-.26.46-.46.66-.72.36-.49.32-1.03.33-1.61Z" fill="#282828"/><path d="M235.49,247.52c-.56-1.03-1.75-1.91-2.88-1.07-.5.37-.58.88-.73,1.43-.18.63-.29,1.24-.01,1.87.47,1.06,1.71,1.8,2.78,1.08.48-.32.82-.83.95-1.4.14-.57.17-1.39-.11-1.91Z" fill="#282828"/><path d="M240.62,258.42c1.29-.7,1.14-2.43.92-3.64-.11-.65-.29-1.17-.9-1.51-.61-.34-1.31-.25-1.87.14-.45.31-.9.68-1.03,1.24-.13.6-.05,1.51.1,2.1.3,1.21,1.49,2.34,2.77,1.66Z" fill="#282828"/><path d="M242.19,266.64c-.54-.99-1.94-1.19-2.72-.38-.76.79-.47,1.77.06,2.58.59.9,1.81,1.25,2.66.44.34-.32.55-.79.55-1.26,0-.53-.31-.92-.56-1.37Z" fill="#282828"/><path d="M247.96,263.05c.07-1.97-2.98-2.06-3.05-.11-.06,1.97,2.98,2.06,3.05.11Z" fill="#282828"/><path d="M257.04,363.36c3.55-.69,7.11-1.67,10.39-3.23,2.91-1.39,5.9-3.41,7.26-6.45,1.37-3.08,1-6.86-1.17-9.47-2.23-2.69-5.63-4.11-8.94-4.92-4.05-.99-8.27-1.24-12.42-.85-.77-11.14-1.17-22.3-1.24-33.47-.04-5.58.01-11.17.14-16.75.06-2.79.14-5.58.24-8.37.02-.67.05-1.33.08-2,.01-.37.04-.73.04-1.1,0-.15.02-.29,0-.43-.03-.33-.16-.31.09-.46.44-.27,1.09-.38,1.58-.59.54-.23,1.06-.5,1.57-.79,9.28-5.27,10.27-16.97,10.7-26.54.25-5.57.1-11.14-.14-16.71-.24-5.58-.46-11.16-.64-16.74-.36-11.19-1-22.41-.42-33.6.04-.68.08-1.36.12-2.04.04-.55.58-1,.81-1.51.49-1.07.47-2.27,0-3.34-.96-2.21-3.48-3.66-5.65-4.45-1.22-.44-2.48-.75-3.75-.96-.63-.1-6.03-.89-11.72-.53-2.72.17-5.43.53-8.11,1-2.58.45-5.21,1.03-7.6,2.14-2.06.96-4.28,2.73-3.68,5.3.06.27.23.53.27.8.04.28-.04.66-.05.94-.03.72-.06,1.44-.08,2.16-.04,1.44-.06,2.87-.07,4.31-.04,11.17.79,22.33.71,33.5-.08,11.1-.34,22.23.96,33.28.32,2.69.74,5.36,1.26,8.02.51,2.6,1.24,5.07,2.49,7.41,1.99,3.72,5.24,6.7,9.12,8.35,2,.85,4.13,1.31,6.31,1.39-.33,3.98-.12,8.05.1,12.02.22,4.06.58,8.12.91,12.17.67,8.24.86,16.46.92,24.73.04,4.62.09,9.24.26,13.85-.48-.22-1.05-.18-1.57-.19-.58,0-1.16,0-1.73.05-1.12.08-2.23.24-3.32.48-2.11.46-4.16,1.2-6.07,2.21-3.78,2-6.74,5.2-8.45,9.13-.85,1.94-1.3,4.13-.89,6.23.39,1.98,1.71,3.63,3.26,4.87,3.47,2.76,8.44,3.11,12.69,2.98,2.55-.08,5.1-.35,7.63-.68,2.59-.33,5.19-.65,7.76-1.15ZM231.03,181.22c3.72.86,7.75.96,11.56.87,3.95-.09,7.87-.63,11.8-1.04,2.21-.23,4.44-.35,6.61-.87-.36,9.21-.11,18.4.21,27.6.08,2.28.16,4.56.22,6.84.02.56.03,1.12.05,1.67,0,.13.06.33.01.45-.08.18-.02.07-.22.14-.29.1-.69.1-1,.15-1.14.16-2.29.31-3.44.45-2.28.28-4.57.55-6.86.8-2.28.25-4.57.28-6.86.3-4.77.04-9.89-.07-14.35,1.85.06-5.19.03-10.37-.13-15.56-.17-5.24-.4-10.47-.48-15.71-.05-2.94-.05-5.89.04-8.83.91.4,1.87.67,2.84.89ZM227.95,175.63c.36-.77,1.5-1.21,2.23-1.51.94-.38,1.92-.68,2.9-.93,2.02-.51,4.08-.85,6.14-1.13,1.04-.14,2.08-.25,3.12-.35.93-.09,5-.07,5.99-.07,1.02,0,2.04,0,3.06.02,2.07.05,4.15.28,6.15.85.92.26,1.82.69,2.64,1.18.61.36,1.79,1.1,1.88,1.89.1.89-1.33,1.19-1.95,1.35-.99.26-2.01.38-3.02.49-2.12.22-4.25.4-6.37.64-2.35.27-4.7.5-7.06.6-2.16.1-4.3-.06-6.46-.06-1.76-.11-3.55-.28-5.29-.66-.89-.2-1.76-.44-2.58-.84-.46-.22-1.51-.8-1.39-1.46ZM241.24,272.43c-2.93-1.11-5.46-3.04-7.25-5.63-.91-1.31-1.61-2.71-2.14-4.22-.26-.75-.48-1.51-.66-2.27-.1-.42-.19-.84-.27-1.26-.04-.21-.24-1.24-.27-1.39.02.09-1.52-11.14-1.76-16.89-.12-2.84-.17-5.69-.19-8.53,0-1.42-.01-2.85,0-4.28,0-.1-.02-.28,0-.36.08-.24.05-.19.33-.25.32-.07.65-.13.98-.2.72-.14,1.45-.28,2.17-.4,1.6-.28,3.2-.51,4.81-.72.8-.1,1.61-.2,2.41-.29.37-.04.73-.08,1.1-.12.18-.02.37-.04.55-.06.08,0,.81-.08.4-.04.15-.02.3-.03.45-.04-.56.05.19-.02.24-.02.23-.02.45-.04.68-.06.41-.04.83-.07,1.24-.11.83-.07,1.65-.13,2.48-.19,1.69-.12,3.39-.23,5.08-.33,1.66-.1,3.31-.19,4.97-.28.83-.05,1.66-.09,2.49-.14.87-.05,1.8-.01,2.66-.18.35,8.42.81,16.87.28,25.29-.25,4.04-.72,8.17-1.78,12.09-1.01,3.75-3.08,7.23-6.35,9.41-3.75,2.51-8.41,2.91-12.64,1.47ZM243.43,361.78c-2.88.17-5.92.21-8.73-.55-2.48-.67-5.52-2.23-5.74-5.14-.2-2.68,1.52-5.4,3.13-7.39,1.74-2.14,4.11-3.58,6.65-4.58,1.46-.58,3-.95,4.55-1.19.78-.12,3.91,0,4.58-.38.07,1.4.16,2.79.27,4.18.05.66-.41,4.19,1.87,5.61.25.16.74.32,1.05.33,1.07.03,1.89-.64,2.09-1.52.13-.56-.05-1.25-.1-1.82-.07-.74-.13-1.47-.2-2.21-.12-1.41-.24-2.83-.35-4.24-.02-.25-.16-.79-.08-1.01.07-.18.17-.14.41-.16.14-.02.28-.03.42-.05.72-.07,1.43-.1,2.15-.11,1.38-.02,2.76.04,4.13.18,2.66.27,5.32.83,7.78,1.91,2.28,1.01,4.43,2.71,4.84,5.3.88,5.61-5.91,8.43-10.19,9.76-2.95.92-5.99,1.54-9.06,1.97-3.14.44-6.3.88-9.47,1.1Z" fill="#282828"/></svg>