<?xml version="1.0" encoding="UTF-8"?><svg id="Layer_1" xmlns="http://www.w3.org/2000/svg" viewBox="0 0 500 500"><path d="M165.48,253.02c9.59,2.59,19.57,2.66,29.37,1.41,9.59-1.23,18.99-3.61,28.42-5.69,5.59-1.24,11.21-2.39,16.9-3.1-2.5,1-4.94,2.16-7.33,3.43-1.3.69-2.58,1.41-3.84,2.15-.66.39-1.32.79-1.98,1.19-.69.43-1.47.63-2.25.87-5.69,1.81-11.5,3.22-17.3,4.64-5.99,1.47-11.99,2.95-17.83,4.94-2.35.8-4.64,1.74-6.97,2.58-2.25.82-4.89,1.9-4.86,4.71.01,1.38.59,2.76,1.19,3.98.63,1.27,1.43,2.44,2.34,3.52,1.65,1.97,3.59,3.67,5.61,5.25,4.55,3.55,9.64,6.39,14.99,8.53,1.82.73,3.6,1.54,5.42,2.24,2.52.98,5.34,1.87,8.06,1.26,1.31-.29,2.44-.99,3.53-1.75,1.19-.82,2.3-1.74,3.36-2.73,1.83-1.7,3.44-3.62,4.93-5.62,3.3-4.43,5.97-9.27,8.86-13.96,3.06-4.96,6.61-9.61,9.61-14.61.78-1.3,1.52-2.61,2.22-3.96.22.85.62,1.66.87,2.5.39,1.29.68,2.62.98,3.94.49,2.11.99,4.22,1.61,6.3.76,2.52,1.66,5.17,3.18,7.35.69.99,1.51,1.91,2.6,2.47.25.13.58.19.81.34.2.13.18.1.24.35.04.16.07.32.11.49.16.67.35,1.34.55,2,.38,1.26.62,2.53.95,3.81.34,1.35.76,2.68,1.22,3.99.95,2.7,2.09,5.33,3.23,7.96.99,2.27,1.99,4.55,2.87,6.87.89,2.35,1.67,4.78,1.86,7.3.15,1.93.06,3.87-.02,5.81-.05,1.25-.12,2.51-.09,3.77.03,1.15.1,2.47.84,3.41.78.99,2.06.91,2.98.19.86-.68,1.44-1.7,1.91-2.67,1.14-2.32,1.75-4.79,1.77-7.38.04-5.59-1.81-10.91-3.81-16.06-1.3-3.35-2.56-6.72-3.82-10.09-.97-2.6-1.94-5.2-2.93-7.79-.26-.68-.53-1.37-.79-2.05-.22-.57-.75-1.44-.65-2.01.11-.6.37-1.17.44-1.79.07-.6.08-1.2.07-1.8-.08-2.74-.79-5.5-1.57-8.11-.82-2.75-1.73-5.48-2.57-8.23-.14-.46-.28-.92-.42-1.38,6.1,3.48,12.72,6.08,19.37,8.29,6.96,2.32,14.07,4.15,21.21,5.82,3.46.81,6.84,1.28,10.35.47,3.41-.79,6.4-2.63,8.85-5.1,2.49-2.5,4.37-5.51,5.72-8.76.68-1.63,1.16-3.34,1.81-4.98.26-.64.74-1.18,1.01-1.84.33-.82.53-1.7.69-2.57.29-1.5.69-2.98.98-4.48.33-1.7.4-3.62-.73-5.06-1.04-1.32-2.74-1.77-4.33-2.06-1.67-.3-3.38-.43-5.08-.42-.8,0-1.6.05-2.39.18.09-.88.07-1.79.09-2.67.01-.61.12-1.26-.35-1.74-.69-.7-1.76-.35-2.61-.22-1.04.16-2.08.36-3.11.59-3.97.88-7.82,2.18-11.71,3.33-1.99.59-4.04,1.25-6.08,1.59.01,0,.03.02.04.03-2.66.49-5.35.84-8.03,1.21,5.12-1.76,10.14-4.04,14.85-6.71,4.29-2.43,8.39-5.2,12.52-7.88,2.11-1.37,4.22-2.74,6.34-4.09,2.31-1.47,4.47-3.06,6.59-4.79,1.71-1.4,3.41-2.84,5.25-4.06.52-.35,1.06-.68,1.6-.99.54-.3,1.2-.49,1.69-.86.44-.33.65-.88.54-1.42-.05-.26-.18-.48-.36-.67-.2-.21-.36-.37-.55-.59-.38-.43-1.05-.72-1.53-1.02-.62-.39-1.24-.76-1.87-1.13-1.23-.72-2.49-1.4-3.76-2.04-2.39-1.2-4.85-2.25-7.37-3.12-2.32-.79-4.67-1.4-7.08-1.85-2.73-.51-5.54-.94-8.33-.77-5.03.32-9.3,3.1-13.22,6.06-4.22,3.18-8.06,6.82-11.87,10.47-7.68,7.38-16,14.22-22.95,22.33-.88,1.03-1.73,2.07-2.56,3.14-.21-.82-.91-1.68-1.51-2.25-.44-.42-.87-.88-1.35-1.24,1.16-.99,2.05-2.35,2.42-3.83.16-.65.22-1.36.17-2.03,0-.1-.12-.5-.08-.58.03-.06.34-.23.41-.3.25-.27.45-.62.6-.95,1.26-2.81-1.65-6.08-4.59-4.86-.27.11-.54.26-.78.43-.14.1-.27.26-.42.35-.23.14-.15.13-.42.09-.33-.05-.67,0-.88-.22-.34-.36-.53-1.15-.73-1.6-.35-.8-.69-1.6-1.02-2.4-1.27-3.11-2.38-6.28-3.54-9.43-1.09-2.94-2.25-5.83-3.72-8.6-1.04-1.97-2.28-4.05-2.59-6.29-.09-.63-.13-1.36.14-1.96.34-.74,1-1.38,1.58-1.95,1.06-1.05,2.23-2,3.47-2.83,1.12-.76,2.44-1.64,3.8-1.87.69-.12.96.43,1.31.95.47.7.87,1.46,1.23,2.23.66,1.42,1.23,2.89,1.61,4.4.16.62.3,1.25.32,1.9.01.43-.32.53-.67.73-.34.19-.7.36-1.05.52-.68.3-1.36.58-2.07.8-.25.08-.85.35-1.1.27-.18-.06-.34-.44-.43-.59-.37-.67-.59-1.49-.7-2.24-.04-.3-.07-.61-.07-.92,0-.44.12-.8.17-1.23.16-1.37-1.71-2.1-2.51-.97-.79,1.11-.43,3-.17,4.22.28,1.36.84,2.9,1.92,3.84,1.03.9,2.21.7,3.43.36,1.47-.41,2.94-1.04,4.26-1.8.59-.34,1.2-.74,1.51-1.37.34-.7.34-1.51.24-2.27-.36-2.94-1.57-5.89-3-8.46-.66-1.18-1.56-2.69-2.94-3.08-1.38-.39-2.86.19-4.09.78-2.66,1.29-5.12,3.18-7.12,5.35-.97,1.05-1.73,2.19-1.88,3.64-.15,1.43.14,2.88.61,4.22.84,2.43,2.24,4.61,3.35,6.92,2.23,4.66,3.68,9.69,5.58,14.48.61,1.55,1.26,3.09,1.96,4.61-.33.03-.67.19-.97.32-.13.06-.54.35-.65.32-.15-.04-.51-.63-.6-.75-.67-.84-1.32-1.7-1.96-2.56-1.29-1.74-2.54-3.52-3.79-5.3-1.98-2.84-3.94-5.69-6.08-8.41-1.2-1.52-2.48-2.98-3.7-4.49-1.17-1.43-2.31-2.89-3.51-4.3-1.34-1.58-2.71-3.13-4.21-4.55-1.4-1.32-2.99-2.72-4.86-3.31-4.08-1.29-6.65,3.26-8.36,6.15-.84,1.42-1.89,2.68-2.74,4.08-.55.9-.73,1.79-.51,2.83.18.83.56,1.6.92,2.36,1.58,3.31,4.57,6.96,8.63,6.81,4-.15,6.94-4.51,7.36-8.19.2-1.71-.35-3.39-1.82-4.36-1.47-.96-3.38-.98-5.02-.45-1.61.52-3.14,1.85-3.05,3.68.06,1.2,1.12,3.45,2.67,2.83.89-.36,1.11-1.45.53-2.18,0,.01,0,.03,0,.04-.15-.24-.46-.55-.42-.84.06-.52.91-.79,1.33-.91,1.12-.33,2.86-.21,3.02,1.23.14,1.35-.63,2.81-1.3,3.92-.69,1.14-1.78,2.27-3.17,2.42-3.01.32-5.26-3.06-6.34-5.4-.24-.52-.71-1.28-.64-1.87.04-.31.29-.6.46-.86.55-.8,1.14-1.57,1.67-2.38,1.32-1.98,2.33-4.65,4.38-5.98,1.15-.75,2.33-.03,3.31.68,1.05.76,2,1.66,2.91,2.58,1.88,1.88,3.57,3.95,5.23,6.02,1.7,2.12,3.49,4.16,5.15,6.31,4.27,5.52,7.9,11.51,12.35,16.91-.31.16-.43.6-.68.82-.21.19-.62.25-.89.38-.63.3-1.2.74-1.59,1.31-.8,1.17-.8,2.72-.08,3.93.35.6.85,1.08,1.45,1.43.16.09.39.16.53.27.12.1.2.27.3.41.24.34.52.65.83.93,1.18,1.07,2.73,1.73,4.31,1.87-.26.02-.65.94-.74,1.15-.17.41-.29.84-.37,1.28-.13.75-.16,1.52-.14,2.28-1.1-.41-2.23-.74-3.32-1.16-1.15-.45-2.29-.94-3.42-1.43-2.23-.97-4.43-2.01-6.61-3.09-4.55-2.25-9.24-4.67-14.27-5.65-1.33-.26-2.68-.39-4.04-.32-.67.03-1.34.09-1.67.77-.32.66-.29,1.63-.34,2.35-.81-.33-1.76-.45-2.61-.64-1.05-.23-2.1-.44-3.15-.63-1.98-.35-3.97-.61-5.97-.78-1.85-.15-3.71-.18-5.56-.22-1.72-.03-3.46-.03-5.14.32-3.96.83-6.78,4.23-9.46,7.01-2.7,2.8-5.38,5.62-7.83,8.65-1.49,1.84-2.89,3.75-4.09,5.8-.54.93-1.05,1.89-1.49,2.87-.2.45-.43.9-.29,1.39.12.45.5.82.95.94ZM232.48,269.58c-1.02,1.34-2.23,2.51-3.39,3.73-1.29,1.36-2.58,2.73-3.88,4.09-1.34,1.4-2.7,2.79-4.09,4.14-1.29,1.25-2.77,2.41-4.15,3.49-1.18.92-2.48,1.88-3.87,2.57-1.63.8-3.44,1.24-5.25,1.28-.95.02-1.89-.04-2.82-.22-.96-.19-1.73-.59-2.59-1.05-1.62-.88-3.18-1.86-4.85-2.65-.81-.39-1.64-.76-2.51-1.01-.4-.12-.82-.21-1.23-.28-.21-.04-.42-.07-.63-.09-.21-.02-.5.09-.68.06-.32-.05-.8-.52-1.07-.71-.41-.28-.82-.56-1.22-.84-.74-.53-1.48-1.07-2.19-1.64-2.58-2.07-5.13-4.43-6.65-7.42-.37-.72-.67-1.47-.85-2.26-.2-.88.04-1.37.81-1.82,1.53-.87,3.32-1.33,4.95-1.97,3.03-1.18,6.12-2.19,9.24-3.09,6.76-1.96,13.63-3.48,20.44-5.24.92-.24,1.85-.48,2.77-.73-7.69,5.44-14.99,11.42-22.45,17.15-.58.45-.98,1.04-.63,1.8.25.53.81.98,1.21,1.4.43.44.87.88,1.33,1.29,1.75,1.6,3.72,3,5.99,3.76,4.9,1.64,9.84-.64,13.94-3.23,5.07-3.21,9.93-6.82,14.49-10.71-.06.08-.12.15-.18.23ZM252,220.12c0,.08.22.31.25.39-.08-.1-.32-.28-.25-.39ZM265.93,285.26c1.2,3.18,2.39,6.37,3.6,9.54-1.56-3.26-3.26-6.44-4.8-9.7-.86-1.81-1.66-3.65-2.35-5.54-.23-.64-.43-1.23-.51-1.9-.06-.51-.1-1.03-.13-1.55,0-.11-.07-.49,0-.54.07-.07.38-.1.49-.14.53,1.6,1.21,3.17,1.8,4.75.64,1.7,1.27,3.4,1.9,5.09ZM302.62,245.34c1.76-.58,3.55-1.16,5.38-1.45,1.81-.29,3.65-.4,5.41-.96,1.6-.51,3.05-1.48,3.57-3.15.57-1.8.66-3.79.77-5.66.65.29,1.62.31,2.32.43.97.16,1.93.32,2.9.5.26.05.42.07.62.22.12.09.21.21.34.29.17.1.41.1.57.21.33.24.02,1.52-.01,1.95-.04.58-.09,1.15-.14,1.73-.17,1.8-.38,3.73-1.19,5.36-.12.24-.22.49-.42.58-.11.05-.38.03-.51.06-.25.05-.49.12-.74.17-.4.09-.79.19-1.19.28-1.27.3-2.53.59-3.81.86-3.14.67-6.32,1.16-9.53,1.11-3.01-.05-6-.5-8.99-.88,1.54-.59,3.08-1.15,4.64-1.67ZM286.17,252.49c.78-.41,1.53-.87,2.3-1.31,1.11-.64,2.29-1.14,3.47-1.65.34-.15.69-.3,1.03-.44.21-.09.31-.15.49-.11.08.02.2.12.28.15.32.11.72.07,1.05.1.44.04.87.08,1.31.13,1.18.13,2.36.29,3.54.46.39.05.78.11,1.17.16.37.05.73.09,1.1.14.43.05.67.27,1.08.36,1.47.33,3.15.29,4.65.27,1.33-.02,2.65-.19,3.99-.16,1.18.02,2.35.04,3.53.03,2.96,0,6.3.03,9.09-1.1-.66,1.63-1.3,3.27-2.15,4.82-1.08,2-2.49,3.83-4.11,5.42-1.81,1.78-4.01,3.13-6.45,3.87-2.53.77-5.24.68-7.82.18-4.27-.84-8.52-2.02-12.72-3.16-4.79-1.31-9.55-2.75-14.22-4.46-5.06-1.86-10.02-4.01-14.76-6.58.88.38,1.84.64,2.75.95,1.74.6,3.49,1.19,5.25,1.72,3.47,1.05,7.14,1.99,10.79,1.87,1.94-.06,3.69-.72,5.38-1.64ZM256.59,239.72c7-8.39,15.62-15.3,24.67-21.37,8.77-5.88,18.04-10.93,27.48-15.65.52-.26,1.05-.52,1.57-.79.51-.26.91-.61.94-1.23.04-.63-.37-1.17-.95-1.38-1.34-.49-3.03-.32-4.43-.34-.66-.01-1.33-.02-1.99-.07-.64-.05-1.39-.06-1.97-.35,1.05-1.54,3.23-1.58,4.67-2.64.43-.32.81-.72,1.06-1.2.07-.13.16-.47.23-.52.11-.06.57.07.67.08,1.18.14,2.35.33,3.51.54-.89,1.36,1.44,2.89,2.35,3.48,1.48.96,3.18,1.59,4.85,2.13,3.45,1.13,7.21,1.7,10.44,3.41-1.24.72-2.36,1.7-3.47,2.6-.83.67-1.64,1.35-2.47,2.03-1.9,1.54-3.87,2.92-5.94,4.21-4.85,3.03-9.58,6.25-14.42,9.29-4.78,2.99-9.75,5.49-14.98,7.6-4.37,1.76-8.82,3.31-13.27,4.86-3.07,1.07-6.13,2.14-9.17,3.29-3.08,1.15-6.1,2.41-8.92,4.11-.07-.22-.13-.43-.21-.64-.1-.27-.19-.53-.29-.8-.04-.11-.14-.29-.14-.4,0-.18.02-.1.16-.27ZM251.72,238.92c1.85,3.99,2.89,8.3,4,12.54,1.04,3.99,2.5,7.85,3.69,11.79.37,1.23.72,2.48,1.03,3.73.15.63.3,1.27.43,1.91.07.35.14.7.2,1.05.03.2.23.76.15.95-.12.26-.9.57-1.18.61-.56.09-1.02-.29-1.38-.66-.83-.86-1.36-2.05-1.81-3.14-.98-2.42-1.77-4.96-2.59-7.44-.85-2.56-1.57-5.16-2.23-7.78-.75-3-1.37-6.03-2.02-9.06-.32-1.5-.78-2.96-1.1-4.45-.15-.71-.25-1.43-.25-2.15,0-.72.18-1.19.6-1.75,1.04,1.11,1.8,2.49,2.46,3.85ZM244.18,229.18c-.9-.37-1.75-.91-2.23-1.78-.49-.88-.45-1.95-.13-2.88.33-.97.99-1.88,1.8-2.51.61-.48,1.59-1.1,2.41-1.06.18,0,.34.1.54.09.17,0,.32-.07.49-.09.21-.03.41,0,.62-.03.81-.09,1.49.22,2.07.79,1.54,1.48,1.75,3.73.4,5.41-1.42,1.78-3.73,2.74-5.96,2.07ZM171.74,244.68c2.14-2.74,4.51-5.3,6.91-7.82,1.95-2.04,3.85-4.2,6.03-6,1.22-1.01,2.59-1.71,4.16-1.97,1.53-.25,3.12-.18,4.66-.13,2.8.08,5.58.18,8.36.59,1.53.23,3.05.51,4.56.84.83.18,1.65.37,2.48.58.15.04,1,.15,1.08.27.1.15-.1.83-.13,1.01-.07.44-.17.68-.57.91-.35.2-.76.26-1.15.32-.75.12-1.48.22-2.15.59-1.31.72-1.91,2.27-2.22,3.65-.33,1.48-.28,3.08.58,4.38.8,1.2,2.11,1.91,3.46,2.31,2.76.81,5.75.64,8.58.35,3.67-.37,7.29-1.02,10.97-1.29,3.81-.28,7.66-.4,11.47-.02-2.28.18-4.57.63-6.82,1.04-2.3.41-4.58.87-6.87,1.36-4.49.95-8.96,1.99-13.44,2.98-9.24,2.03-18.57,3.83-28.06,3.91-5.34.05-10.66-.47-15.86-1.72,1.13-2.16,2.5-4.19,3.98-6.13Z" fill="#282828"/></svg>