<?xml version="1.0" encoding="UTF-8"?><svg id="Layer_1" xmlns="http://www.w3.org/2000/svg" viewBox="0 0 500 500"><path d="M256.32,256.42c-1.25-.3-2.63.22-3.2,1.41-.39.83-.53,4.05-.74,4.83-.97,3.65-2.06,7.27-3.25,10.86-2.32,7.01-4.97,13.91-7.78,20.74-1.57,3.82-3.2,7.63-4.84,11.43-.08-10.48.7-20.95,1.28-31.41.29-5.29.53-10.58.6-15.87.01-1.05.2-2.28-.23-3.26-.36-.84-.87-1.9-1.68-2.41-.92-.57-2.17-.81-3.2-1.15-1.3-.43-2.6-.85-3.9-1.27-5.77-1.84-11.58-3.55-17.43-5.14,5.12-1.07,10.27-2.03,15.41-2.96,2.57-.47,5.15-.93,7.72-1.4,1.91-.35,5.1-.32,6.23-2.17.61-.99,1.01-2.18,1.48-3.24.57-1.28,1.14-2.56,1.71-3.84,1.08-2.43,2.17-4.87,3.26-7.3,2.19-4.85,4.41-9.69,6.76-14.46,2.64-5.35,5.42-10.64,8.46-15.78-1.96,11.24-3.73,22.52-4.8,33.89-.27,2.8-.49,5.61-.67,8.42-.09,1.37-.17,2.74-.23,4.11-.06,1.16-.18,2.26.68,3.18.64.68,1.71,1.17,2.5,1.67,1.27.8,2.54,1.61,3.81,2.43,2.36,1.52,4.7,3.07,7.03,4.64,5.28,3.57,10.46,7.28,15.48,11.19-10.27-1.85-20.32-4.72-30.46-7.14Z" fill="#282828"/></svg>