<?xml version="1.0" encoding="UTF-8"?><svg id="Layer_1" xmlns="http://www.w3.org/2000/svg" viewBox="0 0 500 500"><path d="M217.5,179.89c-1.32.62-2.44,1.54-3.54,2.47-.9.76-1.82,1.48-2.77,2.18-2.34,1.71-4.79,3.27-7.01,5.13-.56.47-1.11.96-1.64,1.47-.23.22-.46.45-.67.69-.23.25-.54.52-.69.83-.29.6.14,1.16.73,1.27.74.14,1.5.15,2.24.07,2.79-.29,5.35-1.68,7.87-2.81,2.4-1.08,5.21-2.35,7.89-1.64,2.58.68,3.95,3.4,5.24,5.51.59.97,1.35,1.92,1.82,2.95.3.64.29,1.3.27,1.99-.01.74,0,1.47,0,2.21.05,2.72.11,5.45.45,8.15.37,2.89,1.14,5.72,2.41,8.36.61,1.28,1.3,2.54,2.1,3.71.78,1.14,1.71,2.15,2.69,3.11,1.03,1.02,2.12,2.01,2.99,3.18.84,1.13,1.39,2.42,1.85,3.74.98,2.84,1.74,5.78,2.5,8.68,1.29,4.94,2.53,10.06,5.35,14.39.74,1.13,1.59,2.19,2.56,3.13.12.11.23.24.36.34.15.12.24.14.33.31.17.33.22.79.32,1.15.2.72.39,1.45.57,2.18.74,2.94,1.35,5.91,1.87,8.9,1,5.72,1.65,11.49,2.13,17.28.44,5.24.75,10.5,1.06,15.75.09,1.51.18,3.02.28,4.53-.69-4.16-.96-8.43-2.16-12.49-.54-1.84-1.27-3.58-2.3-5.19-1.09-1.7-2.42-3.22-3.67-4.8-1.18-1.49-2.18-3.02-2.86-4.8-.66-1.74-1.03-3.57-1.41-5.38-.67-3.17-1.56-6.3-2.37-9.44-.98-3.8-2.14-7.71-4.58-10.86-2.36-3.04-5.94-4.72-9.4-6.21-1.87-.8-3.78-1.5-5.75-2.01-1.68-.44-3.42-.76-5.16-.7-.91.03-1.85.17-2.69.53-.32.14-.57.38-.6.74-.05.49.28.77.67.96,1.77.87,3.45,1.89,5.08,3,3.38,2.32,6.58,5,9.28,8.1,1.2,1.38,2.33,2.86,3.18,4.49.9,1.74,1.28,3.58,1.61,5.5.16.97.33,1.94.58,2.89.19.73.44,1.43.67,2.15.56,1.77,1.03,3.58,1.55,5.37.56,1.94,1.17,3.86,1.97,5.72.8,1.85,1.78,3.63,2.84,5.35,2.17,3.49,4.74,6.71,7.2,10,1.24,1.66,2.52,3.32,3.59,5.09,1.03,1.72,1.86,3.54,2.68,5.37.44.97.87,1.94,1.34,2.89.21.42.42.83.64,1.25.22.41.57.84.72,1.27.07.21.04.51.06.73.03.29.05.58.08.87.05.53.1,1.07.15,1.6.1,1.06.21,2.11.33,3.17.2,1.82.46,3.64.64,5.47.19,1.94.32,3.88.46,5.82.26,3.85.52,7.73,1.3,11.51.39,1.89.92,3.75,1.65,5.53.35.85.69,1.84,1.33,2.49.49.5,1.47,1.23,2.11.53.58-.64.24-1.96-.03-2.67-.15-.41-.32-.95-.63-1.26-.16-.16-.25-.2-.35-.42-.11-.25-.22-.5-.32-.76-.76-1.93-1.13-4-1.37-6.05-.47-4.12-.4-8.29-.77-12.42-.78-8.67-1.87-17.35-2-26.06-.02-1.08-.02-2.15,0-3.23.01-1.03.11-2.05.08-3.08-.01-.51-.11-1.05-.09-1.57.02-.52.18-1.07.29-1.58.21-1,.47-1.99.75-2.97,1.07-3.72,2.36-7.39,3.62-11.05,1.17-3.4,2.33-6.81,3.38-10.25.42-1.38.8-2.78,1.2-4.17.23-.81.49-1.63.88-2.38.47-.89,1.18-1.59,1.96-2.2.66-.52,1.36-.97,2.04-1.47.74-.55,1.41-1.19,2.08-1.83,1.4-1.35,2.79-2.87,4.51-3.82.86-.47,1.73-.72,2.71-.49,1.02.25,1.85.87,2.44,1.73,1.08,1.57,1.37,3.66,1.58,5.51.23,2.01.27,4.03.54,6.03.26,1.98,1.08,3.8,1.82,5.64,1.43,3.52,2.94,7.1,5.03,10.29.51.78,1.06,1.53,1.73,2.19.31.3.61.51,1.06.36.41-.14.56-.5.63-.89.34-2.04.39-4.13.3-6.19-.18-3.84-.91-7.62-1.54-11.4-.33-1.98-.65-3.98-.83-5.98-.1-1.07-.1-2.11.04-3.18.12-.87.3-1.73.47-2.59.39-2.06.51-4.04-.07-6.08-.55-1.93-1.36-3.77-2.24-5.56-.82-1.66-1.71-3.28-2.53-4.94-.44-.88-.83-1.77-1.25-2.66-.38-.81-.78-1.63-1.36-2.32-.61-.72-1.45-1.15-2.35-1.39-.96-.26-1.94-.46-2.93-.57-2-.23-4.03.01-5.94.66-1.75.59-3.31,1.66-4.75,2.8-1.57,1.25-3,2.68-4.25,4.25-2.29,2.88-3.96,6.19-5.13,9.67-1.28,3.8-1.99,7.79-2.34,11.78-.17,1.94-.24,3.88-.42,5.82-.2,2.17-.49,4.33-.8,6.49-.58,3.91-1.26,7.8-1.8,11.72-.11-.19-.02-.69-.02-.91,0-.36,0-.72,0-1.09,0-.69-.02-1.39-.05-2.08-.06-1.36-.16-2.71-.37-4.05-.41-2.68-1.1-5.31-1.75-7.94-.64-2.6-1.26-5.21-1.66-7.86-.2-1.33-.35-2.66-.4-4-.01-.31-.05-.64.03-.94.08-.35.2-.7.3-1.05.19-.65.39-1.29.59-1.94,1.55-5.04,3.28-10.09,3.74-15.38.22-2.48.18-4.96.5-7.43.29-2.28.83-4.52,1.64-6.67.8-2.12,1.29-4.27,1.69-6.49.47-2.59.83-5.28,1.89-7.71.93-2.14,2.57-3.72,4.19-5.34,1.83-1.84,3.41-3.76,4.46-6.16,1-2.28,1.71-4.83,3.5-6.65.78-.79,1.75-1.4,2.69-1.97,1.15-.7,2.36-1.31,3.56-1.92,2.08-1.05,4.18-2.09,6.07-3.47.4-.3,1.1-.66,1.24-1.17.15-.53-.26-1.09-.82-1.09-.28,0-.58.08-.87.1-.34.02-.69.03-1.04.01-.68-.03-1.35-.15-2.02-.28-2.33-.47-4.66-1.29-7.06-1.05-2.44.24-4.34,1.72-5.92,3.5-1.59,1.79-2.89,3.86-4.75,5.39-1.96,1.62-4.26,2.81-6.16,4.5-.89.79-1.69,1.71-2.17,2.81-.12-2.15-.47-4.31-.81-6.44-.22-1.42-.46-2.83-.72-4.24-.06-.33-.12-.65-.18-.98-.03-.16-.06-.33-.09-.49,0,0-.07-.26-.05-.28.03-.04.18-.07.23-.1.51-.31.46-1.07.51-1.59.57-5.28.38-10.59.72-15.88.09-1.39.19-2.75.56-4.1.34-1.23.78-2.41,1.18-3.62.85-2.58,1.08-5.2.9-7.91-.18-2.68-.66-5.32-1.13-7.96-.07-.36-.15-.7-.51-.88-.57-.3-1.01.07-1.3.54-.66,1.06-1.24,2.17-1.8,3.29-2.44,4.9-4.51,10.29-5.01,15.78-.06.69-.1,1.39-.08,2.09-1.03-1.95-2.33-3.72-3.84-5.32-1.2-1.27-2.3-2.64-3.53-3.87-1.19-1.19-2.86-2.93-4.71-2.67-2.27.31-2.74,2.76-2.82,4.67-.04,1.02,0,2.04-.08,3.06-.06.84-.14,1.67-.22,2.5-.2,2.14-.44,4.27-.69,6.4-.48,4.13-1.01,8.25-1.34,12.39-.43,5.32-.55,10.69.11,16-.52-1.73-1.33-3.43-2.13-5.05-.87-1.75-1.81-3.46-2.82-5.13-.97-1.62-2.01-3.2-3.18-4.69-1.15-1.47-2.45-2.95-4.04-3.95-1.72-1.08-3.68-1.26-5.53-.4ZM238,204.26c-.24-.95-.45-1.9-.62-2.86-.1-.51-.18-1.02-.26-1.54-.04-.24-.07-.47-.1-.71,0-.07-.02-.14-.03-.21-.03-.07,0-.1.08-.09.05-.05.14-.08.2-.13.68-.51,1.32-1.06,2.04-1.53.79-.53,1.62-1,2.46-1.44.18,1.82.41,3.63.65,5.45.01.1.05.23.04.33-.01.16,0,.14-.17.21-.22.1-.45.21-.67.32-.42.21-.83.43-1.24.66-.83.47-1.62.99-2.39,1.55ZM243.71,167.06c0,.14.02.1-.07.15-.08.05-.26.03-.36.04-.24.03-.47.06-.71.09-.46.07-.92.15-1.38.26-.1-1.17-.19-2.34-.26-3.52,0-.14-.05-.29.04-.37.08-.07.27-.08.37-.11.26-.07.51-.13.77-.19.55-.12,1.11-.17,1.67-.21-.1,1.28-.11,2.57-.08,3.86ZM242.29,169.22c.5-.09,1.01-.16,1.52-.21.09,1.49.24,2.97.42,4.45.05.41.1.82.16,1.23.03.23.06.47.1.7.02.16.14.47.09.62-.04.11-.13.1-.26.14-.11.03-.22.06-.34.09-.2.06-.41.12-.61.18-.46.14-.93.29-1.38.45-.1-1.74-.24-3.47-.4-5.2-.05-.55-.1-1.1-.15-1.64-.01-.13-.11-.46-.05-.57.07-.15.73-.2.91-.24ZM240.66,211.01c-.39-.81-.81-1.61-1.24-2.41-.37-.69-.59-1.44-.82-2.19-.02-.05-.1-.23-.08-.28.02-.05.22-.16.27-.2.18-.13.36-.27.55-.39.35-.25.71-.48,1.07-.71.76-.48,1.55-.92,2.36-1.32.24,1.77.54,3.53.86,5.29.08.43.15.86.23,1.28.04.23.09.47.13.7.02.13.07.22,0,.32-.05.06-.23.13-.29.17-.77.45-1.5.95-2.2,1.51-.27-.59-.54-1.18-.82-1.76ZM246.81,191.76c-1.2.33-2.37.78-3.51,1.27-.14-1.37-.28-2.75-.41-4.12-.04-.48-.09-.96-.13-1.45-.02-.19-.12-.55-.06-.72.05-.16.4-.21.58-.27.9-.3,1.82-.57,2.74-.81.27,2.04.54,4.07.79,6.11ZM245.63,168.88c.79.01,1.57,0,2.36.03.44.02.89.05,1.33.1.06,0,.3,0,.34.04.04.05,0,.3,0,.36,0,.24.02.48.03.72.08,1.7.29,3.39.42,5.08-.54-.06-1.17.06-1.71.12-.69.08-1.37.2-2.04.33-.32-2.25-.6-4.51-.73-6.78ZM253.09,199.21c-1.19.04-2.37.15-3.54.34-.16-1.45-.32-2.89-.48-4.34-.04-.33-.08-.67-.12-1-.02-.19-.04-.38-.07-.57-.01-.09-.12-.49-.07-.56.04-.06.33-.08.42-.1.18-.04.36-.08.55-.12.33-.07.66-.14.99-.19.31-.05.62-.1.94-.14.15-.02.29-.08.36.03.07.1.05.37.07.49.1.71.21,1.42.32,2.13.11.72.23,1.44.35,2.16.06.34.11.67.17,1.01.02.12.12.86.12.86ZM253.45,201c.41,2.3.87,4.59,1.36,6.88-1.42.08-2.84.31-4.22.64-.28-1.64-.45-3.28-.61-4.94-.05-.47-.09-.94-.14-1.4-.02-.19-.14-.6-.08-.77.04-.11.14-.09.28-.11.12-.02.24-.03.36-.05,1.02-.13,2.04-.21,3.07-.24ZM248.83,209c-1.07.32-2.11.73-3.12,1.2-.29-1.6-.58-3.21-.84-4.82-.08-.48-.15-.97-.23-1.45-.03-.23-.07-.45-.1-.68-.02-.1-.07-.26-.05-.36-.06-.11-.02-.17.11-.17l.13-.05c1.05-.39,2.12-.71,3.21-.97.23,2.44.43,4.89.88,7.31ZM247.49,199.95c-1.11.25-2.2.58-3.27.97-.17-1.55-.39-3.1-.56-4.65-.02-.22-.05-.43-.07-.65-.02-.17-.12-.49-.07-.65.07-.23.84-.43,1.1-.53.8-.32,1.61-.61,2.43-.86.13,1.14.26,2.28.39,3.43.06.51.11,1.02.17,1.53.03.25.05.5.08.74.02.14.03.29.05.43.02.23-.02.18-.23.23ZM243.06,216.55c-.15-.39-.3-.78-.46-1.17-.08-.19-.16-.39-.24-.58-.03-.07-.11-.18-.11-.25,0-.12.06-.13.17-.23.62-.5,1.28-.95,1.96-1.37.37,1.98.76,3.96,1.15,5.94-.34.03-.68.06-1.01.1-.1.01-.47.11-.55.06-.07-.04-.13-.36-.16-.45-.25-.69-.5-1.37-.76-2.05ZM247.11,228.94c-.16.03-.31-.81-.36-.97-.11-.4-.22-.79-.34-1.19-.21-.73-.42-1.45-.64-2.18-.38-1.27-.78-2.54-1.2-3.8.36-.04.72-.07,1.08-.11.22-.02.19-.07.26.12.09.26.11.58.16.85.1.54.2,1.09.31,1.63.35,1.87.63,3.76.88,5.64-.05,0-.11.01-.16,0ZM247.23,218.08c-.23-1.19-.47-2.38-.7-3.56-.1-.52-.2-1.04-.3-1.56-.05-.25-.14-.53-.15-.78,0-.18.03-.17.2-.25.95-.44,1.92-.82,2.92-1.14.54,2.52,1.25,4.99,1.91,7.48-.75.1-1.5.19-2.25.27-.37.04-.74.08-1.1.12-.09,0-.18.02-.27.03-.12.06-.18.02-.16-.11-.07-.12-.07-.35-.09-.49ZM248.78,226.68c-.31-2.08-.69-4.14-1.08-6.21.68-.07,1.36-.14,2.04-.22.34-.04.67-.08,1.01-.13.13-.02.27-.04.4-.06.09-.01.18-.03.27-.04.13-.06.18-.02.17.12.15.24.16.67.23.96.08.34.16.69.23,1.03.13.59.25,1.18.35,1.78.11.66.21,1.32.29,1.99.04.3.07.61.1.91.01.13.02.26.03.39,0,.1.09.47.04.55-.09.12-.6.15-.77.2-.32.09-.65.17-.97.26-.68.18-1.37.35-2.07.49-.09-.67-.18-1.34-.28-2.02ZM250.99,241.79c-.34-2.08-.72-4.15-1.03-6.24-.21-1.41-.39-2.82-.57-4.23-.02-.16-.04-.33-.06-.49,0-.07-.05-.2-.03-.27.03-.12-.04-.04.1-.11.25-.12.64-.13.91-.19.36-.08.72-.17,1.07-.26.45-.12.91-.24,1.36-.36.18-.05.25-.09.38-.02.25.13.39.31.7.29-1.07,4.08-2.14,8.18-2.75,12.36-.03-.16-.05-.33-.08-.49ZM255.98,221.24c-.46,1.81-.93,3.61-1.37,5.42-.23-2.35-.7-4.67-1.26-6.97,1.09-.2,2.16-.45,3.22-.78-.2.77-.4,1.55-.59,2.33ZM257.02,216.85c-.62.24-1.25.44-1.89.61-.34.09-.68.18-1.03.26-.17.04-.34.08-.52.11-.13.03-.57.19-.68.13-.06-.03-.12-.45-.14-.54-.05-.18-.09-.36-.14-.54-.1-.37-.2-.74-.3-1.1-.21-.77-.42-1.55-.62-2.33-.21-.82-.42-1.65-.61-2.47-.04-.17-.13-.39-.13-.57,0-.18-.11-.08.11-.17.07-.03.19-.04.27-.06.38-.08.76-.17,1.15-.23.83-.14,1.66-.24,2.49-.29.13,0,.16-.03.22.06.05.06.04.2.06.28.05.21.09.42.14.63.1.42.19.84.29,1.26.21.89.42,1.77.64,2.65.12.46.23.93.35,1.39.05.2.09.41.16.6.04.1.17.26.16.32ZM257.85,212.89s0,.04,0,.06c-.27-1.11-.53-2.22-.79-3.33.26.05.55.04.81.07.08,0,.17.02.25.03.13.02.14,0,.18.09.05.14-.06.5-.08.65-.1.81-.22,1.63-.36,2.44ZM258.4,201.31c.09.1.05.5.06.65.01.3.03.61.04.91.02.56.03,1.13.04,1.69,0,1.13-.01,2.25-.09,3.37-.37-.04-.75-.07-1.12-.09-.16,0-.4.03-.55-.02-.13.04-.18,0-.17-.15-.01-.05-.02-.1-.03-.14-.16-.74-.31-1.48-.47-2.22-.29-1.43-.58-2.87-.84-4.31.55.03,1.11.07,1.66.13.48.05.99.2,1.47.18ZM257.42,192.51c.35,2.32.66,4.64.87,6.98-.84-.11-1.68-.19-2.53-.24-.2-.01-.41-.02-.61-.03-.14,0-.15.01-.22-.08-.05-.08-.04-.26-.06-.36-.07-.43-.15-.86-.22-1.3-.29-1.71-.56-3.43-.81-5.15.52,0,1.03,0,1.55.02.34.02.68.05,1.02.09.33.04.68.15,1.01.06ZM255.93,184.22c.41,2.16.82,4.33,1.18,6.5-.77-.13-1.55-.19-2.32-.2-.21,0-.41,0-.62,0-.13,0-.41.07-.53.02-.18-.07-.2-.98-.23-1.21-.22-1.61-.42-3.22-.6-4.84.6-.05,1.21-.08,1.81-.1.26,0,.53,0,.78-.01.11,0,.22-.03.33-.07.1-.04.15-.13.2-.08ZM254.39,177.51c.14,0,.12-.04.19.05.05.07.05.23.07.32.05.22.09.43.14.65.09.44.18.87.27,1.31.19.91.36,1.83.54,2.74-.37-.15-.94-.04-1.33-.02-.49.02-1.04.15-1.52.1-.17-.02-.11.04-.16-.12-.04-.11-.03-.28-.04-.4-.02-.22-.05-.45-.07-.67-.05-.48-.09-.95-.14-1.43-.1-1-.19-2.01-.28-3.01.42.05.83.11,1.24.2.34.07.74.27,1.08.27ZM251.93,168.96c.21.5.41,1,.61,1.51,0-.03,0-.05,0-.08.03.27.18.54.27.79.16.46.31.92.46,1.39.31.99.59,2,.84,3-.37-.1-.75-.17-1.13-.23-.19-.03-.99-.02-1.09-.14-.05-.06-.03-.32-.03-.4-.04-.42-.09-.84-.13-1.26-.08-.83-.16-1.66-.21-2.49-.03-.43-.05-.87-.07-1.3,0-.11-.03-.25-.01-.36.02-.16-.01-.09.09-.17.14-.1.29-.12.42-.26ZM251.79,190.7c-1.08.12-2.14.33-3.2.58-.17-1.53-.39-3.05-.59-4.57-.05-.4-.11-.8-.16-1.2,0-.04-.06-.25-.04-.28.02-.03.23-.05.27-.05.21-.04.41-.08.62-.12.78-.15,1.57-.28,2.36-.38.22,2.01.47,4.02.75,6.02ZM250.42,178.53c.14,1.45.26,2.9.42,4.35-1.11.1-2.21.33-3.3.56-.1-.73-.21-1.45-.32-2.18-.12-.76-.23-1.51-.35-2.27-.06-.38-.12-.75-.17-1.13-.01-.08-.09-.39-.04-.43.03-.03.15-.03.2-.04.47-.09.95-.17,1.43-.23.34-.05.69-.08,1.04-.11.14-.01.89-.15.98-.06.09.1.05.63.07.76.02.25.04.51.07.76ZM245.98,160.37c.18.37.65.77.92,1.06-.36-.04-.72-.07-1.09-.09.06-.32.11-.65.17-.97ZM245.62,163.17c.37.03.73.05,1.09.09.5.06,1.03.22,1.53.22.1,0,.21-.05.31-.05.13,0,.12-.01.22.12.15.2.3.4.45.6.32.44.62.9.91,1.36-.59.28-.47,1.2-.49,1.73-1.36-.16-2.73-.2-4.1-.16-.04-1.31-.02-2.61.07-3.92ZM245.14,179.81c.19,1.22.38,2.44.56,3.67.01.08.09.31.05.37-.07.12-.74.2-.9.25-.78.21-1.55.45-2.31.71-.13-1.61-.25-3.22-.36-4.83-.02-.33-.04-.66-.07-.99,0-.05-.03-.14-.01-.19.04-.11.28-.15.41-.2.77-.27,1.55-.51,2.34-.73.09.64.19,1.29.29,1.93ZM240.96,156.83c.03-.35.12-.72-.07-1.05,1.48.69,2.63,1.9,3.72,3.09-.36.27-.38.79-.45,1.2-.05.26-.09.52-.13.78-.02.11-.02.25-.05.36-.06.19-.04.14-.25.15-.97.05-1.95.2-2.89.46-.04-1.66-.02-3.33.11-4.99ZM239,162.51c.02-.22.03-.43.05-.65,0,.17.03.37,0,.53-.01.07.01.18-.05.12ZM238.79,164.88c.13-.04.26-.2.37-.28.03.69.08,1.39.14,2.08.03.41.07.82.1,1.23.02.18.03.17-.09.26-.08.05-.2.08-.29.12-.21.09-.41.18-.61.28.14-1.23.26-2.46.38-3.69ZM237.93,172.75c.04-.31.07-.63.11-.94.02-.17.04-.34.06-.51.01-.12,0-.35.05-.44.11-.17.44-.32.62-.42.27-.16.55-.31.84-.44.15,1.96.36,3.92.49,5.89.02.32.04.64.06.96.01.19.1.49.04.65-.05.13-.23.15-.38.22-.3.13-.59.26-.89.4-.57.27-1.14.56-1.69.87.22-2.08.46-4.16.7-6.24ZM237.01,181.23c.22-.07.44-.26.64-.38.28-.17.56-.32.84-.48.6-.32,1.21-.62,1.84-.89.06,1.81.24,3.61.39,5.42.02.19.1.49-.02.61-.12.12-.49.2-.65.26-.4.17-.8.35-1.19.53-.78.37-1.54.77-2.27,1.2.08-2.09.24-4.18.43-6.27ZM236.52,189.68c1.39-.93,2.87-1.68,4.41-2.33.07,1.04.18,2.08.28,3.13.05.55.11,1.09.16,1.64.02.24.05.48.07.72.03.27.12.6.09.87-.02.17.01.11-.14.22-.09.07-.22.11-.32.16-.21.11-.43.22-.64.33-.44.24-.88.48-1.3.74-.83.5-1.63,1.06-2.39,1.67-.21-2.37-.27-4.76-.23-7.14Z" fill="#282828"/></svg>