<?xml version="1.0" encoding="UTF-8"?><svg id="Layer_1" xmlns="http://www.w3.org/2000/svg" viewBox="0 0 500 500"><path d="M296.08,216.83c-1.84-3.48-5.12-6.05-8.61-7.74-3.75-1.81-8-2.84-12.17-2.81-4.16.04-8.2,1.36-11.93,3.15-1.84.89-3.6,1.93-5.27,3.12-1.76-5.06-1.49-10.52-1.29-15.79.05-1.39.11-2.78.13-4.17.01-.64.02-1.28.01-1.92,0-.56.04-1.15-.22-1.66-.42-.82-1.43-1.13-2.26-.77-.44.19-.67.52-.89.94-.32.61-.63,1.22-.93,1.84-1.28,2.67-2.38,5.44-3.5,8.18-1.73-7.66-2.46-15.57-5.64-22.83-.38-.87-.79-1.73-1.23-2.58-.37-.71-.84-1.27-1.7-1.31-.83-.04-1.64.56-1.83,1.38-.09.43,0,.91.03,1.34.04.52.07,1.03.11,1.55.3,3.97.58,7.95.04,11.91-.6,4.36-2.54,8.43-2.9,12.84-1.37-2.78-2.05-5.85-2.6-8.88-.28-1.53-.52-3.07-.79-4.6-.11-.63-.19-1.17-.72-1.6-.51-.41-1.18-.53-1.79-.29-.57.22-1,.73-1.41,1.16-.53.56-1,1.16-1.44,1.78-.82,1.17-1.49,2.44-2.06,3.74-1.23,2.8-2,5.77-2.38,8.8-.43,3.44-.34,7.15.87,10.44-3.29.4-6.52,1.3-9.58,2.57-2.87,1.19-5.49,2.98-7.46,5.4-4.14,5.07-4.84,11.85-4.26,18.15.36,3.85,1.19,7.62,2.27,11.33,2.43,8.33,5.54,16.5,8.83,24.52,3.28,7.98,6.87,15.83,10.72,23.55,1.96,3.93,4.01,7.81,6.04,11.69,1.97,3.76,3.78,7.61,5.87,11.31,1.03,1.82,2.12,3.59,3.34,5.29.53.73.98,1.57,1.97,1.65.95.07,1.46-.59,2.04-1.22,2.71-2.96,5.31-6.03,7.79-9.18,4.97-6.31,9.5-12.95,13.72-19.77,4.23-6.83,8.15-13.84,11.92-20.93,2.04-3.83,4.01-7.7,6.08-11.51,2.08-3.83,4.17-7.66,6.11-11.56,3.8-7.61,7.28-15.63,8.34-24.14.51-4.08.59-8.64-1.39-12.37ZM226.41,205.36c.14-.15.34-.23.48-.39.38-.43.47-.94.52-1.49.34.69.73,1.4,1.51,1.65.67.21,1.43,0,1.9-.52.62-.68.43-1.49.39-2.33-.02-.44-.02-.88,0-1.32,0-.22.01-.44.03-.66.02-.31-.05-.41.25-.5,1.14,3.47,2.94,6.75,5.78,9.11.79.84,2.22.72,2.84-.27.67-1.06-.11-2.39-.32-3.49-.26-1.36-.23-2.76-.07-4.13.07-.58.09-1.41.35-1.95.1-.2.07-.15.27-.28.11-.07.24-.12.35-.2.22-.16.4-.36.53-.6.08.62.07,1.36.49,1.87.36.44.95.71,1.52.68,1.53-.08,1.78-1.68,2.01-2.88.48,2.38,1.02,4.75,1.74,7.07.27.86.82,1.58,1.81,1.56,1.19-.02,1.53-.99,1.94-1.91.21.31.51.55.85.69.13.05.39.05.5.13.14.09.14.25.22.43.14.31.36.57.64.76.11.07.32.12.41.21.13.14.11.46.13.68.19,1.86.5,3.72,1.06,5.51.14.44.29.88.45,1.31.06.16.23.43.23.6,0,.21-.25.35-.43.52-.67.61-1.32,1.24-1.95,1.89-1.28,1.33-2.46,2.76-3.52,4.26-1.17,1.66-2.18,3.41-3.06,5.24-1.3-4.15-3.78-8.41-7.26-11.09-1.82-1.4-3.95-2.41-6.17-2.99-1.13-.29-2.28-.49-3.44-.6-.29-.03-.58-.05-.88-.06-.18-.01-.74.07-.88-.03-.15-.11-.28-.57-.35-.74-.14-.33-.24-.66-.34-1-.36-1.24-.57-2.51-.62-3.8,0-.15-.01-.29-.02-.44,0-.31-.04-.32.13-.51ZM228.63,269.17c-.29.98-.58,1.94-.75,2.95-.14.81-.04,1.68-.7,2.29-.57.52-1.46.56-2.09.13-.79-.54-.76-1.31-.68-2.17.05-.49.11-.98.2-1.47.05-.26.19-.57.19-.83,0-.13-.08-.29-.1-.42-.1-.82.55-1.78,1.11-2.34.51-.5,1.37-.57,1.98-.25.8.41,1.07,1.29.83,2.11ZM235.49,275.42c-.04.54-.08,1.08-.1,1.62-.01.46.06.96-.05,1.41-.16.67-.71,1.2-1.39,1.29-.71.1-1.47-.31-1.77-.97-.21-.46-.12-1.01-.1-1.51.02-.53.06-1.05.1-1.57.07-1,0-2.05.17-3.04.13-.8.81-1.41,1.63-1.41,2.23,0,1.62,2.79,1.52,4.17ZM243.88,281.53c-.74.4-1.7.17-2.18-.52-.26-.37-.28-.86-.34-1.3-.08-.5-.13-1.01-.16-1.51-.06-1.04-.07-2.12-.01-3.16.07-1.49,1.81-2.37,2.9-1.16.6.67.39,1.7.39,2.52,0,1.01.01,2.02.16,3.02.18.83.07,1.67-.75,2.12ZM260.1,277.51c-.1.77-.82,1.38-1.58,1.42-.77.04-1.43-.46-1.65-1.18-.26-.84-.35-1.75-.58-2.6-.22-.8-.74-1.78-.6-2.62.11-.67.63-1.22,1.29-1.36,1.93-.4,2.27,2.18,2.59,3.5.12.49.22.98.32,1.47.09.44.25.93.19,1.38ZM265.51,274.54c-.58-.49-.66-1.36-1.03-2-.2-.35-.42-.69-.68-.99-.26-.29-.55-.51-.71-.87-.68-1.54,1.32-3.04,2.56-1.84,1.1,1.06,2.17,2.61,2.49,4.14.31,1.48-1.48,2.53-2.63,1.56ZM271.88,256.51c-.33.86-1.1,1.46-1.78,1.96-.81.6-1.64,1.18-2.47,1.75-1.66,1.14-3.35,2.24-5.08,3.26-3.52,2.07-7.25,3.85-11.13,5.12-1.95.64-3.93,1.05-5.98,1.01-2.06-.04-4.14-.39-6.12-.92-3.99-1.07-7.78-2.81-11.42-4.74-1.84-.98-3.64-2.01-5.43-3.08-.69-.41-1.45-.93-1.74-1.72-.32-.89.19-1.59.67-2.3,2.3-3.4,4.89-6.62,7.81-9.52,2.82-2.81,6.08-5.41,9.84-6.81,1.89-.71,3.87-1.07,5.89-.97,2.04.1,4.09.84,5.98,1.58,3.86,1.51,7.51,3.56,10.98,5.82,1.75,1.14,3.47,2.33,5.15,3.57.84.62,1.67,1.25,2.48,1.9.7.56,3.09,2.17,2.35,4.11Z" fill="#282828"/><path d="M239.72,248.88c-.84-.11-1.91.92-2.49,1.42-.19.17-.37.35-.56.5-.3.23-.31.23-.3.62.01.55.05,1.1.14,1.65.16,1.07.49,2.19,1,3.14.47.87,1.08,1.75,2.01,2.17,1.03.46,1.72.1,2.18-.87.97-2.02.64-4.4-.24-6.37-.32-.66-.89-2.14-1.74-2.25Z" fill="#282828"/><path d="M224.71,258.19c3.28,1.94,6.63,3.78,10.13,5.29-2.97-3.02-4.9-7.17-5.39-11.37-1.7,1.93-3.28,3.96-4.74,6.08Z" fill="#282828"/><path d="M266.21,254.06c-.75-.57-1.51-1.13-2.29-1.68-1.54-1.09-3.11-2.15-4.7-3.15-3.16-2-6.45-3.79-9.96-5.1,2.46,2.96,3.52,7.25,3.71,11.01.2,3.8-.56,8.27-3.87,10.63,2.26-.61,4.47-1.51,6.6-2.47,4.49-2.11,8.68-4.77,12.68-7.69-.43-.1-.74-.42-1.07-.68-.37-.3-.74-.59-1.12-.87Z" fill="#282828"/></svg>