<?xml version="1.0" encoding="UTF-8"?><svg id="Layer_1" xmlns="http://www.w3.org/2000/svg" viewBox="0 0 500 500"><path d="M250,255.53c-.58-.94-1.74-1.47-2.81-1.09-.74.26-2.79,2.14-3.39,2.49-2.82,1.64-5.69,3.18-8.6,4.64-5.69,2.86-11.52,5.45-17.39,7.9-3.29,1.37-6.6,2.7-9.92,4.02,6.35-6.44,13.2-12.35,19.93-18.37,3.4-3.05,6.77-6.12,10.04-9.31.65-.63,1.51-1.26,1.85-2.13.29-.73.63-1.69.44-2.49-.21-.91-.83-1.82-1.25-2.66-.53-1.05-1.06-2.11-1.6-3.15-2.39-4.64-4.9-9.22-7.49-13.76,3.77,2.47,7.5,5.02,11.21,7.59,1.85,1.28,3.71,2.57,5.56,3.86,1.37.95,3.31,2.91,5.12,2.48.98-.23,1.94-.72,2.88-1.08,1.13-.43,2.26-.87,3.38-1.3,2.14-.82,4.29-1.65,6.44-2.46,4.29-1.62,8.59-3.22,12.94-4.69,4.87-1.65,9.79-3.18,14.78-4.46-8.05,5.66-16,11.46-23.59,17.74-1.87,1.55-3.72,3.12-5.54,4.72-.89.78-1.77,1.57-2.65,2.37-.74.68-1.49,1.27-1.52,2.35-.02.81.33,1.76.51,2.54.29,1.27.57,2.54.84,3.81.51,2.37,1,4.74,1.46,7.12,1.04,5.39,1.94,10.81,2.61,16.26-5.13-7.39-9.51-15.26-14.22-22.92Z" fill="#282828"/></svg>